<?xml version="1.0" encoding="UTF-8"?> <svg xmlns="http://www.w3.org/2000/svg" xmlns:xlink="http://www.w3.org/1999/xlink" viewBox="0 0 883.1 324.55"><defs><style>.cls-1{fill:url(#linear-gradient);}.cls-2{opacity:0.1;}.cls-3{opacity:0.5;}.cls-4{fill:url(#linear-gradient-2);}.cls-5{fill:url(#linear-gradient-3);}.cls-6{fill:url(#linear-gradient-4);}.cls-7{fill:url(#linear-gradient-5);}.cls-8{fill:url(#linear-gradient-6);}.cls-9{fill:url(#linear-gradient-7);}.cls-10{fill:url(#linear-gradient-8);}.cls-11{fill:url(#linear-gradient-9);}.cls-12{fill:url(#linear-gradient-10);}.cls-13{fill:url(#linear-gradient-11);}.cls-14{fill:url(#linear-gradient-12);}.cls-15{fill:url(#linear-gradient-13);}.cls-16{fill:url(#linear-gradient-14);}.cls-17{fill:url(#linear-gradient-15);}.cls-18{fill:url(#linear-gradient-16);}.cls-19{fill:url(#linear-gradient-17);}.cls-20{fill:url(#linear-gradient-18);}.cls-21{fill:url(#linear-gradient-19);}.cls-22{fill:url(#linear-gradient-20);}.cls-23{fill:url(#linear-gradient-21);}.cls-24{fill:url(#linear-gradient-22);}.cls-25{fill:url(#linear-gradient-23);}.cls-26{fill:url(#linear-gradient-24);}.cls-27{fill:url(#linear-gradient-25);}.cls-28{fill:url(#linear-gradient-26);}.cls-29{fill:url(#linear-gradient-27);}.cls-30{fill:url(#linear-gradient-28);}.cls-31{fill:url(#linear-gradient-29);}.cls-32{fill:url(#linear-gradient-30);}.cls-33{fill:url(#linear-gradient-31);}.cls-34{fill:url(#linear-gradient-32);}.cls-35{fill:url(#linear-gradient-33);}.cls-36{fill:url(#linear-gradient-34);}.cls-37{fill:url(#linear-gradient-35);}.cls-38{fill:url(#linear-gradient-36);}.cls-39{fill:url(#linear-gradient-37);}.cls-40{fill:url(#linear-gradient-38);}.cls-41{fill:url(#linear-gradient-39);}.cls-42{fill:url(#linear-gradient-40);}.cls-43{fill:#fff;}</style><linearGradient id="linear-gradient" y1="162.27" x2="883.1" y2="162.27" gradientUnits="userSpaceOnUse"><stop offset="0" stop-color="#bad8df"></stop><stop offset="1" stop-color="#fcdcda"></stop></linearGradient><linearGradient id="linear-gradient-2" x1="297.91" y1="39.16" x2="1097.14" y2="39.16" gradientUnits="userSpaceOnUse"><stop offset="0" stop-color="#3e2c57"></stop><stop offset="1" stop-color="#fcdcda"></stop></linearGradient><linearGradient id="linear-gradient-3" x1="361.69" y1="49.72" x2="362.11" y2="49.72" xlink:href="#linear-gradient-2"></linearGradient><linearGradient id="linear-gradient-4" x1="0" y1="39.16" x2="709.6" y2="39.16" xlink:href="#linear-gradient-2"></linearGradient><linearGradient id="linear-gradient-5" x1="30.83" y1="49.72" x2="31.25" y2="49.72" xlink:href="#linear-gradient-2"></linearGradient><linearGradient id="linear-gradient-6" x1="196.46" y1="71.14" x2="362.31" y2="71.14" gradientUnits="userSpaceOnUse"><stop offset="0" stop-color="#ec2942"></stop><stop offset="0.4" stop-color="#ec2b44"></stop><stop offset="0.54" stop-color="#ed3249"></stop><stop offset="0.65" stop-color="#ee3d53"></stop><stop offset="0.73" stop-color="#ef4e62"></stop><stop offset="0.8" stop-color="#f16474"></stop><stop offset="0.86" stop-color="#f4808b"></stop><stop offset="0.92" stop-color="#f7a0a7"></stop><stop offset="0.97" stop-color="#fac4c6"></stop><stop offset="1" stop-color="#fcdcda"></stop></linearGradient><linearGradient id="linear-gradient-7" x1="0" y1="43.54" x2="31.45" y2="43.54" xlink:href="#linear-gradient-6"></linearGradient><linearGradient id="linear-gradient-8" x1="628.83" y1="39.01" x2="1320.45" y2="39.01" xlink:href="#linear-gradient-2"></linearGradient><linearGradient id="linear-gradient-9" x1="692.55" y1="49.44" x2="692.97" y2="49.44" xlink:href="#linear-gradient-2"></linearGradient><linearGradient id="linear-gradient-10" x1="527.33" y1="71.34" x2="693.18" y2="71.34" xlink:href="#linear-gradient-6"></linearGradient><linearGradient id="linear-gradient-11" x1="297.46" y1="283.33" x2="1099.11" y2="283.33" xlink:href="#linear-gradient-2"></linearGradient><linearGradient id="linear-gradient-12" x1="361.69" y1="270.69" x2="362.11" y2="270.69" xlink:href="#linear-gradient-2"></linearGradient><linearGradient id="linear-gradient-13" x1="0" y1="283.33" x2="710.8" y2="283.33" xlink:href="#linear-gradient-2"></linearGradient><linearGradient id="linear-gradient-14" x1="30.83" y1="270.69" x2="31.25" y2="270.69" xlink:href="#linear-gradient-2"></linearGradient><linearGradient id="linear-gradient-15" x1="196.46" y1="250.66" x2="362.31" y2="250.66" xlink:href="#linear-gradient-6"></linearGradient><linearGradient id="linear-gradient-16" x1="0" y1="276" x2="31.45" y2="276" xlink:href="#linear-gradient-6"></linearGradient><linearGradient id="linear-gradient-17" x1="628.32" y1="283.18" x2="1268.21" y2="283.18" xlink:href="#linear-gradient-2"></linearGradient><linearGradient id="linear-gradient-18" x1="692.55" y1="270.41" x2="692.97" y2="270.41" xlink:href="#linear-gradient-2"></linearGradient><linearGradient id="linear-gradient-19" x1="527.33" y1="250.86" x2="693.18" y2="250.86" xlink:href="#linear-gradient-6"></linearGradient><linearGradient id="linear-gradient-20" x1="858.6" y1="43.69" x2="883.1" y2="43.69" xlink:href="#linear-gradient-6"></linearGradient><linearGradient id="linear-gradient-21" x1="858.6" y1="275.69" x2="883.1" y2="275.69" xlink:href="#linear-gradient-6"></linearGradient><linearGradient id="linear-gradient-22" x1="794.16" y1="160.95" x2="1036.07" y2="160.95" xlink:href="#linear-gradient-2"></linearGradient><linearGradient id="linear-gradient-23" x1="858.4" y1="106.61" x2="858.82" y2="106.61" xlink:href="#linear-gradient-2"></linearGradient><linearGradient id="linear-gradient-24" x1="858.4" y1="215.29" x2="858.82" y2="215.29" xlink:href="#linear-gradient-2"></linearGradient><linearGradient id="linear-gradient-25" x1="132.02" y1="160.95" x2="933.7" y2="160.95" xlink:href="#linear-gradient-2"></linearGradient><linearGradient id="linear-gradient-26" x1="196.25" y1="106.61" x2="196.67" y2="106.61" xlink:href="#linear-gradient-2"></linearGradient><linearGradient id="linear-gradient-27" x1="196.25" y1="215.29" x2="196.67" y2="215.29" xlink:href="#linear-gradient-2"></linearGradient><linearGradient id="linear-gradient-28" x1="0" y1="160.94" x2="260.84" y2="160.94" xlink:href="#linear-gradient-2"></linearGradient><linearGradient id="linear-gradient-29" x1="463.53" y1="160.95" x2="1065.85" y2="160.95" xlink:href="#linear-gradient-2"></linearGradient><linearGradient id="linear-gradient-30" x1="527.76" y1="106.61" x2="528.18" y2="106.61" xlink:href="#linear-gradient-2"></linearGradient><linearGradient id="linear-gradient-31" x1="527.76" y1="215.29" x2="528.18" y2="215.29" xlink:href="#linear-gradient-2"></linearGradient><linearGradient id="linear-gradient-32" x1="694.48" y1="-7708.82" x2="928.61" y2="-7708.82" gradientTransform="translate(-7263.54 -681.11) rotate(90)" xlink:href="#linear-gradient-6"></linearGradient><linearGradient id="linear-gradient-33" x1="-14854.59" y1="264.46" x2="-14620.46" y2="264.46" gradientTransform="translate(180.82 -14546.06) rotate(-90)" xlink:href="#linear-gradient-6"></linearGradient><linearGradient id="linear-gradient-34" x1="445.28" y1="65.42" x2="445.28" y2="567.71" xlink:href="#linear-gradient-6"></linearGradient><linearGradient id="linear-gradient-35" x1="694.48" y1="-7378.13" x2="928.61" y2="-7378.13" gradientTransform="translate(-7263.54 -681.11) rotate(90)" xlink:href="#linear-gradient-6"></linearGradient><linearGradient id="linear-gradient-36" x1="-14854.59" y1="-66.23" x2="-14620.46" y2="-66.23" gradientTransform="translate(180.82 -14546.06) rotate(-90)" xlink:href="#linear-gradient-6"></linearGradient><linearGradient id="linear-gradient-37" x1="114.58" y1="65.42" x2="114.58" y2="567.71" xlink:href="#linear-gradient-6"></linearGradient><linearGradient id="linear-gradient-38" x1="694.48" y1="-8039.23" x2="928.61" y2="-8039.23" gradientTransform="translate(-7263.54 -681.11) rotate(90)" xlink:href="#linear-gradient-6"></linearGradient><linearGradient id="linear-gradient-39" x1="-14854.59" y1="594.86" x2="-14620.46" y2="594.86" gradientTransform="translate(180.82 -14546.06) rotate(-90)" xlink:href="#linear-gradient-6"></linearGradient><linearGradient id="linear-gradient-40" x1="775.68" y1="65.42" x2="775.68" y2="567.71" xlink:href="#linear-gradient-6"></linearGradient></defs><g id="Layer_2" data-name="Layer 2"><g id="copy"><path class="cls-1" d="M883.1,0V260.94a63.41,63.41,0,0,1-19.53,45.86l-.9.85a63.37,63.37,0,0,1-43.17,16.9H0V0Z"></path><g class="cls-2"><g class="cls-3"><path class="cls-4" d="M591.74,0a24,24,0,0,1-23.5,19.33,23.91,23.91,0,0,1-15.83-6,15,15,0,0,0-24.88,11.29V78.31H474a15,15,0,0,1-11.29-24.89,23.95,23.95,0,1,0-36-.05,15,15,0,0,1-11.25,24.94H362.11V24.66a15,15,0,0,0-24.94-11.25,23.91,23.91,0,0,1-15.29,5.92A24.05,24.05,0,0,1,297.91,0Z"></path><path class="cls-5" d="M361.69,21.14a15,15,0,0,1,.42,3.52V78.31h-.42Z"></path></g><g class="cls-3"><path class="cls-6" d="M260.88,0a24,24,0,0,1-23.51,19.33,23.9,23.9,0,0,1-15.82-6,15,15,0,0,0-24.88,11.29V78.31H143.15a15,15,0,0,1-11.29-24.89,23.95,23.95,0,1,0-36-.05A15,15,0,0,1,84.59,78.31H31.25V24.66A15,15,0,0,0,6.31,13.41a23.92,23.92,0,0,1-6.31,4V0Z"></path><path class="cls-7" d="M30.83,21.14a15,15,0,0,1,.42,3.52V78.31h-.42Z"></path></g><g class="cls-3"><path class="cls-8" d="M362.31,24.47V77.62H308.66a15,15,0,0,0-11.25,24.94,24,24,0,1,1-36,0,14.81,14.81,0,0,0,2.75-4.6,15,15,0,0,0-14-20.29H196.46V24a15,15,0,0,1,24.88-11.3,23.9,23.9,0,0,0,15.82,6A23.94,23.94,0,0,0,260.51,0h37.64a24.06,24.06,0,0,0,23.93,19.14,24,24,0,0,0,15.29-5.92,15,15,0,0,1,24.94,11.25Z"></path></g><g class="cls-3"><path class="cls-9" d="M31.45,24.47V77.62H0V17.28a24.07,24.07,0,0,0,6.51-4.06A15,15,0,0,1,31.45,24.47Z"></path></g><g class="cls-3"><path class="cls-10" d="M883.1,0V12.93a14.9,14.9,0,0,0-9.5-3.56h-.11l-.76,0a15,15,0,0,0-14.34,15V78H804.87a15,15,0,0,1-11.29-24.88,23.94,23.94,0,1,0-36-.06A15,15,0,0,1,746.32,78H693V24.38a15.16,15.16,0,0,0-.42-3.53,13.92,13.92,0,0,0-.72-2.21,15,15,0,0,0-19.17-8.3A15.27,15.27,0,0,0,668,13.13,23.9,23.9,0,0,1,652.74,19,24.05,24.05,0,0,1,630.39,4.82c-.09-.2-.17-.4-.25-.6A22.46,22.46,0,0,1,628.83,0Z"></path><path class="cls-11" d="M692.55,20.85a15.16,15.16,0,0,1,.42,3.53V78h-.42Z"></path></g><g class="cls-3"><path class="cls-12" d="M693.18,24.87V78H639.53A15,15,0,0,0,628.28,103a24,24,0,1,1-36,0,14.81,14.81,0,0,0,2.75-4.6A15,15,0,0,0,581,78H527.33V24.38a15,15,0,0,1,24.88-11.3A23.9,23.9,0,0,0,568,19,23.94,23.94,0,0,0,591.47,0h37.47a23,23,0,0,0,1.2,4.22c.08.2.16.4.25.6A24.06,24.06,0,0,0,653,19.54a24,24,0,0,0,15.29-5.92,15,15,0,0,1,23.59,5A14.92,14.92,0,0,1,693.18,24.87Z"></path></g><g class="cls-3"><path class="cls-13" d="M592.18,324.46v.09H297.46a23.8,23.8,0,0,1,7-16.45l0,0q.39-.4.81-.78a23.93,23.93,0,0,1,31.91-.25,15,15,0,0,0,20.16-.36l.34-.33a15,15,0,0,0,4.4-10.61V242.11h53.22A15,15,0,0,1,426.63,267a24,24,0,1,0,36,.06,15.52,15.52,0,0,1-2.78-4.63,15,15,0,0,1,14-20.31h53.64v53.64a14.9,14.9,0,0,0,2.56,8.39l.23.32A15,15,0,0,0,552.47,307a23.89,23.89,0,0,1,34.63,3.33c.21.26.41.54.61.82A23.64,23.64,0,0,1,592.18,324.46Z"></path><path class="cls-14" d="M362.11,242.11v53.64a15,15,0,0,1-.42,3.52V242.11Z"></path></g><g class="cls-3"><path class="cls-15" d="M261.32,324.46v.09H0V303a23.42,23.42,0,0,1,6.35,4,15,15,0,0,0,20.16-.36l.34-.33a15,15,0,0,0,4.4-10.61V242.11H84.46A15,15,0,0,1,95.77,267a24,24,0,1,0,36,.06,15.32,15.32,0,0,1-2.78-4.63,15,15,0,0,1,14-20.31h53.64v53.64a14.61,14.61,0,0,0,.59,4.15,15,15,0,0,0,24.35,7.1,23.93,23.93,0,0,1,38.44,10.36c.07.18.12.37.18.56A23.21,23.21,0,0,1,261.32,324.46Z"></path><path class="cls-16" d="M31.25,242.11v53.64a15,15,0,0,1-.42,3.52V242.11Z"></path></g><g class="cls-3"><path class="cls-17" d="M362.31,241.43v54.13a15,15,0,0,1-4.4,10.61l-.2.19-.34.33a15,15,0,0,1-20,.17,23.92,23.92,0,0,0-32.11.44q-.42.38-.81.78l0,0a23.86,23.86,0,0,0-6.81,16.45H261.1c0-.25,0-.52,0-.78a24,24,0,0,0-.87-5.85c-.06-.19-.11-.38-.18-.56a23.95,23.95,0,0,0-38.66-11,15.42,15.42,0,0,1-4.62,2.79,15,15,0,0,1-19.51-9.21,14.87,14.87,0,0,1-.8-4.83V241.43H250.1a15,15,0,0,0,11.25-24.94,24,24,0,1,1,36,0,14.81,14.81,0,0,0-2.75,4.6,15,15,0,0,0,14.05,20.29Z"></path></g><g class="cls-3"><path class="cls-18" d="M31.45,241.43v54.13a15,15,0,0,1-4.4,10.61l-.2.19-.34.33a15,15,0,0,1-20,.17A23.75,23.75,0,0,0,0,302.75V241.43Z"></path></g><g class="cls-3"><path class="cls-19" d="M863.57,306.8l-.9.85a63.37,63.37,0,0,1-43.17,16.9H628.32a24,24,0,0,1,39.76-17.79A15,15,0,0,0,692.55,299a15.14,15.14,0,0,0,.42-3.52V241.82h53.22a15,15,0,0,1,11.3,24.89,23.94,23.94,0,1,0,36,.05,15.08,15.08,0,0,1-2.78-4.63,14.78,14.78,0,0,1-1-5.29,15,15,0,0,1,15-15h53.64v53.65a15,15,0,0,0,5.18,11.33Z"></path><path class="cls-20" d="M693,241.82v53.65a15.14,15.14,0,0,1-.42,3.52V241.82Z"></path></g><g class="cls-3"><path class="cls-21" d="M693.18,241.83V296a15,15,0,0,1-24.9,11.3,23.93,23.93,0,0,0-39.74,17.29H592c0-.12,0-.25,0-.38a23.73,23.73,0,0,0-4.26-13c-.2-.28-.4-.56-.61-.82a23.91,23.91,0,0,0-34.84-3.61,15.42,15.42,0,0,1-4.62,2.79,15,15,0,0,1-17.32-5.05l-.23-.32a14.92,14.92,0,0,1-2.76-8.67V241.83H581a15,15,0,0,0,11.25-24.94,24,24,0,1,1,36,.05,14.81,14.81,0,0,0-2.75,4.6,15,15,0,0,0,14,20.29Z"></path></g><g class="cls-3"><path class="cls-22" d="M883.1,12.76V78H858.6V24.38a15,15,0,0,1,14.13-15l.76,0h.11A14.93,14.93,0,0,1,883.1,12.76Z"></path></g><g class="cls-3"><path class="cls-23" d="M883.1,243.73v17.21a63.41,63.41,0,0,1-19.53,45.86l-.9.85a15,15,0,0,1-4-9.57c0-.23,0-.47,0-.71V243.73Z"></path></g><g class="cls-3"><path class="cls-24" d="M883.1,78V243.88H858.82V190.23A15,15,0,0,0,833.88,179a24,24,0,1,1,0-36,15,15,0,0,0,24.9-11.3V78Z"></path><path class="cls-25" d="M858.82,78v53.65a15,15,0,0,1-.42,3.52V78Z"></path><path class="cls-26" d="M858.4,186.71a15,15,0,0,1,.42,3.52v53.65h-.42Z"></path></g></g><path class="cls-27" d="M426.74,160.38A23.95,23.95,0,0,1,387,178.93a15,15,0,0,0-24.88,11.3v53.64H308.58A15,15,0,0,1,297.28,219a23.95,23.95,0,1,0-36-.06,15,15,0,0,1,3.76,9.94,15,15,0,0,1-15,15H196.67V190.23a14.5,14.5,0,0,0-.42-3.52,15,15,0,0,0-19.89-10.52,15.39,15.39,0,0,0-4.63,2.79,23.95,23.95,0,1,1,.05-36,15,15,0,0,0,24.47-7.77,14.5,14.5,0,0,0,.42-3.52V78h53.22a15,15,0,0,1,11.3,24.89,24,24,0,1,0,36,0,15.08,15.08,0,0,1-2.78-4.63,14.78,14.78,0,0,1-1-5.29,15,15,0,0,1,15-15H362.1v53.65A15,15,0,0,0,387,142.92a23.94,23.94,0,0,1,39.7,17.46Z"></path><path class="cls-28" d="M196.67,78v53.65a14.5,14.5,0,0,1-.42,3.52V78Z"></path><path class="cls-29" d="M196.25,186.71a14.5,14.5,0,0,1,.42,3.52v53.64h-.42Z"></path><g class="cls-2"><path class="cls-30" d="M95.89,160.38a24,24,0,0,1-39.77,18.55,15,15,0,0,0-24.88,11.3v53.64H0V78H31.24v53.65a15,15,0,0,0,24.94,11.25,23.95,23.95,0,0,1,39.71,17.46Z"></path></g><path class="cls-31" d="M758.25,160.38a23.95,23.95,0,0,1-39.75,18.55,15,15,0,0,0-24.89,11.3v53.64H640.09A15,15,0,0,1,628.79,219a23.95,23.95,0,1,0-36-.06,15,15,0,0,1,3.76,9.94,15,15,0,0,1-15,15H528.18V190.23a14.5,14.5,0,0,0-.42-3.52,15,15,0,0,0-19.89-10.51,15.24,15.24,0,0,0-4.63,2.78,23.94,23.94,0,1,1,.06-36,15,15,0,0,0,24.46-7.77,14.62,14.62,0,0,0,.42-3.52V78H581.4a15,15,0,0,1,11.3,24.89,24,24,0,1,0,36,0,15.08,15.08,0,0,1-2.78-4.63A14.78,14.78,0,0,1,625,93a15,15,0,0,1,15-15h53.64v53.65a15,15,0,0,0,15,15,15.17,15.17,0,0,0,5.3-1,15.47,15.47,0,0,0,4.63-2.79,23.94,23.94,0,0,1,39.7,17.46Z"></path><path class="cls-32" d="M528.18,78v53.65a14.62,14.62,0,0,1-.42,3.52V78Z"></path><path class="cls-33" d="M527.76,186.71a14.5,14.5,0,0,1,.42,3.52v53.64h-.42Z"></path><path class="cls-34" d="M362.35,78H416a15,15,0,0,0,15-15h0a15.06,15.06,0,0,0-3.75-9.93,24,24,0,1,1,36,0A15,15,0,0,0,459.55,63h0a15,15,0,0,0,15,15H362.35Z"></path><path class="cls-35" d="M528.2,243.87H474.56a15,15,0,0,0-15,15h0a15.11,15.11,0,0,0,3.75,9.93,23.94,23.94,0,1,1-36-.05,14.91,14.91,0,0,0,3.71-9.88h0a15,15,0,0,0-15-15H528.2Z"></path><path class="cls-36" d="M463.55,162a23.95,23.95,0,0,0,39.71,17.46,15,15,0,0,1,9.93-3.76,15,15,0,0,1,15,15v53.15H362.35V190.23a15,15,0,0,1,24.89-11.3,23.94,23.94,0,1,0,.05-36,15.32,15.32,0,0,1-4.63,2.78,14.78,14.78,0,0,1-5.3,1,15,15,0,0,1-15-15V78H528.2v54.13a15,15,0,0,1-24.89,11.29A24,24,0,0,0,463.55,162Z"></path><path class="cls-37" d="M31.66,78H85.3a15,15,0,0,0,15-15h0a15.11,15.11,0,0,0-3.75-9.93,23.94,23.94,0,1,1,36,0A14.9,14.9,0,0,0,128.85,63h0a15,15,0,0,0,15,15H31.66Z"></path><path class="cls-38" d="M197.51,243.87H143.86a15,15,0,0,0-15,15h0a15.07,15.07,0,0,0,3.76,9.93,24,24,0,1,1-36-.05,15,15,0,0,0,3.71-9.88h0a15,15,0,0,0-15-15H197.51Z"></path><path class="cls-39" d="M132.86,162a23.95,23.95,0,0,0,39.71,17.46,15,15,0,0,1,24.94,11.25v53.15H31.66V190.23a15,15,0,0,1,24.88-11.3,23.95,23.95,0,1,0,.06-36A15.44,15.44,0,0,1,52,145.7a14.82,14.82,0,0,1-5.3,1,15,15,0,0,1-15-15V78H197.51v54.13a15,15,0,0,1-24.89,11.29A24,24,0,0,0,132.86,162Z"></path><path class="cls-40" d="M692.76,78H746.4a15,15,0,0,0,15-15h0a15.07,15.07,0,0,0-3.76-9.93,24,24,0,1,1,36,0A15,15,0,0,0,790,63h0a15,15,0,0,0,15,15H692.76Z"></path><path class="cls-41" d="M858.6,243.87H805a15,15,0,0,0-15,15h0a15.07,15.07,0,0,0,3.76,9.93,24,24,0,1,1-36-.05,15,15,0,0,0,3.71-9.88h0a15,15,0,0,0-15-15H858.6Z"></path><path class="cls-42" d="M794,162a23.95,23.95,0,0,0,39.71,17.46,15,15,0,0,1,24.94,11.25v53.15H692.76V190.23a15,15,0,0,1,24.88-11.3,23.94,23.94,0,1,0,.05-36,15.39,15.39,0,0,1-4.62,2.78,15,15,0,0,1-20.31-14V78H858.61v54.13a15,15,0,0,1-24.9,11.29A23.95,23.95,0,0,0,794,162Z"></path><path class="cls-43" d="M393,108.49v-6.85a6.92,6.92,0,0,1,6.1-5.43s3-.37,3,1.55.62,2.9,2.47,2.9,2.34-1.18,2.34-2.9,2.47-1.55,2.47-1.55a6.36,6.36,0,0,1,5,2.26,7.78,7.78,0,0,1,1.81,5.07v4.77a1.71,1.71,0,0,1-1.79,1.29,1.52,1.52,0,0,1-1.67-1.29v-5.5a3.15,3.15,0,0,0-3.21-3.14c-3.14,0-3.14,2.1-3.14,2.1v6.17a1.93,1.93,0,0,1-1.85,1.66,1.73,1.73,0,0,1-1.79-1.48v-6.23s-.31-2.22-3.15-2.22a3,3,0,0,0-3.18,2.47v5.64a1.78,1.78,0,0,1-1.82,1.82S393,109.51,393,108.49Z"></path><path class="cls-43" d="M418.6,96.31A1.56,1.56,0,0,0,417,97.88v5a7.29,7.29,0,0,0,1.18,4.06,6.07,6.07,0,0,0,3.45,2.53,7,7,0,0,0,1.65.23c1.11,0,2.05-.05,2.05-.05s.86-.06.86-2.22a2.12,2.12,0,0,1,2.38-2.16,1.61,1.61,0,0,0,1.76-1.7V97.6a1.59,1.59,0,0,0-1.73-1.29c-1.58,0-1.64,1.29-1.64,2v5.71a3.13,3.13,0,0,1-3.05,2.16,3.32,3.32,0,0,1-3.61-3.23V97.42S420.3,96.31,418.6,96.31Z"></path><path class="cls-43" d="M433.89,109.66a1.84,1.84,0,0,1-1.79-1.8V102a1.75,1.75,0,0,1,1.79-1.27,2.18,2.18,0,0,0,2.39-2.25c0-1.31.1-2.12,2.22-2.12s6.85,1.86,6.85,5.76v6.42a1.43,1.43,0,0,1-1.44,1.17c-1.26,0-1.85-.59-1.85-1.7V102.3a3.11,3.11,0,0,0-3.34-2.59,2.91,2.91,0,0,0-3.22,2.51s0,5.73,0,6.07S435.46,109.66,433.89,109.66Z"></path><path class="cls-43" d="M455.07,98a1.54,1.54,0,0,0-1.73-1.69c-1.91,0-7.31,1-7.31,6.67s5.67,6.68,7.25,6.68a1.85,1.85,0,0,0,1.48-.71,2.17,2.17,0,0,0,.45-1.42,2.24,2.24,0,0,1,2.51-2.49s1.66.27,1.66-2.06a3.24,3.24,0,0,1,3.37-3.47,3.52,3.52,0,0,1,3.17,2.87v4.72s.07,1.17,1.67,1.17,1.6-1.07,1.6-1.38v-5s-1.17-5.61-6.13-5.61c-3.49.15-3.89.92-3.89.92V93.84s.18-1.36-1.56-1.36a1.58,1.58,0,0,0-1.71,1.6v9.57s.09,2.4-3.46,2.4-2.9-4-2.9-4,.16-2.4,3.61-2.4C454.94,99.64,455.07,98.49,455.07,98Z"></path><path class="cls-43" d="M473.38,98a1.81,1.81,0,0,0-.41-1.23,1.67,1.67,0,0,0-1.34-.59,1.52,1.52,0,0,0-1.57,1.42v4.94a6.51,6.51,0,0,0,5.92,5.61,7.73,7.73,0,0,0,4-.89s-.27,2.68-2.31,3.14c-2.16.1-2.16,0-2.16,0a1.52,1.52,0,0,0-1.23,1.58,1.85,1.85,0,0,0,1.11,1.79h2.68s5.21-1.33,5.21-6.14v-7.44a1.8,1.8,0,0,0-1.63-.83c-1.2,0-1.79.59-1.79,1.23s0,4.38-3.21,4.38-3.36-3.36-3.36-3.36Z"></path><circle class="cls-43" cx="486.1" cy="97.82" r="1.91"></circle><path class="cls-43" d="M497.51,97.82A1.6,1.6,0,0,0,495.74,96h-1.39a6.43,6.43,0,0,0-3.69,1.11A3.78,3.78,0,0,0,489,99.48c-.28,1.36-.22,3,1.85,3s2.35.77,2.35,2.09-.78,1.82-3.46,1.82h-3.95s-1.11.1-1.11,1.7a1.38,1.38,0,0,0,1.42,1.54h5s5-.55,5.89-4.44c.22-1.67-.56-2.1-1.94-2.1s-2.32-.44-2.32-2.05,1.18-1.8,2-1.8h1.72A1.3,1.3,0,0,0,497.51,97.82Z"></path><path class="cls-43" d="M393,231.68v-6.85a6.94,6.94,0,0,1,6.1-5.44s3-.36,3,1.55.62,2.9,2.47,2.9,2.34-1.17,2.34-2.9,2.47-1.54,2.47-1.54a6.33,6.33,0,0,1,5,2.26,7.77,7.77,0,0,1,1.81,5.06v4.77a1.72,1.72,0,0,1-1.79,1.3,1.52,1.52,0,0,1-1.67-1.3V226a3.15,3.15,0,0,0-3.21-3.15c-3.14,0-3.14,2.1-3.14,2.1v6.17a1.94,1.94,0,0,1-1.85,1.67,1.73,1.73,0,0,1-1.79-1.48v-6.23s-.31-2.23-3.15-2.23a3,3,0,0,0-3.18,2.47V231a1.78,1.78,0,0,1-1.82,1.82S393,232.7,393,231.68Z"></path><path class="cls-43" d="M418.6,219.49a1.57,1.57,0,0,0-1.57,1.58v5a7.26,7.26,0,0,0,1.18,4,6,6,0,0,0,3.45,2.54,6.5,6.5,0,0,0,1.65.22,19,19,0,0,0,2.05,0s.86-.06.86-2.22a2.12,2.12,0,0,1,2.38-2.16,1.62,1.62,0,0,0,1.76-1.7v-5.92a1.59,1.59,0,0,0-1.73-1.3c-1.58,0-1.64,1.3-1.64,2v5.71a3.13,3.13,0,0,1-3.05,2.15,3.31,3.31,0,0,1-3.61-3.22V220.6S420.3,219.49,418.6,219.49Z"></path><path class="cls-43" d="M433.89,232.84a1.82,1.82,0,0,1-1.79-1.79v-5.91a1.75,1.75,0,0,1,1.79-1.28,2.17,2.17,0,0,0,2.39-2.24c0-1.32.1-2.13,2.22-2.13s6.85,1.86,6.85,5.77v6.42a1.42,1.42,0,0,1-1.44,1.16c-1.26,0-1.85-.59-1.85-1.7v-5.65a3.11,3.11,0,0,0-3.34-2.59,2.9,2.9,0,0,0-3.22,2.5s0,5.74,0,6.07S435.46,232.84,433.89,232.84Z"></path><path class="cls-43" d="M455.07,221.19a1.54,1.54,0,0,0-1.73-1.7c-1.91,0-7.31,1-7.31,6.68s5.67,6.67,7.25,6.67a1.85,1.85,0,0,0,1.48-.7,2.19,2.19,0,0,0,.45-1.42,2.24,2.24,0,0,1,2.51-2.5s1.66.27,1.66-2.05a3.24,3.24,0,0,1,3.37-3.47,3.51,3.51,0,0,1,3.17,2.87v4.72s.07,1.17,1.67,1.17,1.6-1.08,1.6-1.39v-5s-1.17-5.62-6.13-5.62c-3.49.16-3.89.93-3.89.93V217s.18-1.36-1.56-1.36a1.59,1.59,0,0,0-1.71,1.61v9.56s.09,2.41-3.46,2.41-2.9-4-2.9-4,.16-2.41,3.61-2.41C454.94,222.82,455.07,221.68,455.07,221.19Z"></path><path class="cls-43" d="M473.38,221.18A1.81,1.81,0,0,0,473,220a1.67,1.67,0,0,0-1.34-.59,1.52,1.52,0,0,0-1.57,1.42v4.93a6.52,6.52,0,0,0,5.92,5.62,7.67,7.67,0,0,0,4-.9s-.27,2.69-2.31,3.15a7.62,7.62,0,0,1-2.16,0,1.51,1.51,0,0,0-1.23,1.57,1.85,1.85,0,0,0,1.11,1.79h2.68s5.21-1.32,5.21-6.14v-7.43a1.8,1.8,0,0,0-1.63-.83c-1.2,0-1.79.58-1.79,1.23s0,4.38-3.21,4.38-3.36-3.36-3.36-3.36Z"></path><circle class="cls-43" cx="486.1" cy="221" r="1.91"></circle><path class="cls-43" d="M497.51,221a1.59,1.59,0,0,0-1.77-1.77h-1.39a6.36,6.36,0,0,0-3.69,1.11,3.76,3.76,0,0,0-1.66,2.33c-.28,1.36-.22,3,1.85,3s2.35.77,2.35,2.1-.78,1.82-3.46,1.82h-3.95s-1.11.09-1.11,1.7a1.37,1.37,0,0,0,1.42,1.53h5s5-.55,5.89-4.43c.22-1.67-.56-2.1-1.94-2.1s-2.32-.44-2.32-2.06,1.18-1.8,2-1.8h1.72A1.29,1.29,0,0,0,497.51,221Z"></path><path class="cls-43" d="M722.51,108.49v-6.85a6.94,6.94,0,0,1,6.11-5.43s3-.37,3,1.55.62,2.9,2.47,2.9,2.34-1.18,2.34-2.9,2.47-1.55,2.47-1.55a6.36,6.36,0,0,1,5,2.26,7.78,7.78,0,0,1,1.81,5.07v4.77a1.71,1.71,0,0,1-1.79,1.29,1.52,1.52,0,0,1-1.67-1.29v-5.5A3.15,3.15,0,0,0,739,99.67c-3.14,0-3.14,2.1-3.14,2.1v6.17A1.93,1.93,0,0,1,734,109.6a1.72,1.72,0,0,1-1.78-1.48v-6.23s-.31-2.22-3.15-2.22a3,3,0,0,0-3.18,2.47v5.64a1.78,1.78,0,0,1-1.82,1.82S722.51,109.51,722.51,108.49Z"></path><path class="cls-43" d="M748.08,96.31a1.56,1.56,0,0,0-1.57,1.57v5a7.29,7.29,0,0,0,1.18,4.06,6.08,6.08,0,0,0,3.44,2.53,7.14,7.14,0,0,0,1.66.23c1.11,0,2.05-.05,2.05-.05s.86-.06.86-2.22a2.12,2.12,0,0,1,2.38-2.16,1.6,1.6,0,0,0,1.75-1.7V97.6a1.57,1.57,0,0,0-1.72-1.29c-1.58,0-1.64,1.29-1.64,2v5.71a3.13,3.13,0,0,1-3.05,2.16,3.32,3.32,0,0,1-3.61-3.23V97.42S749.78,96.31,748.08,96.31Z"></path><path class="cls-43" d="M763.37,109.66a1.84,1.84,0,0,1-1.79-1.8V102a1.75,1.75,0,0,1,1.79-1.27,2.18,2.18,0,0,0,2.39-2.25c0-1.31.1-2.12,2.22-2.12s6.85,1.86,6.85,5.76v6.42a1.43,1.43,0,0,1-1.44,1.17c-1.26,0-1.85-.59-1.85-1.7V102.3a3.12,3.12,0,0,0-3.34-2.59,2.91,2.91,0,0,0-3.22,2.51s0,5.73,0,6.07S764.94,109.66,763.37,109.66Z"></path><path class="cls-43" d="M784.54,98a1.53,1.53,0,0,0-1.72-1.69c-1.92,0-7.31,1-7.31,6.67s5.67,6.68,7.25,6.68a1.87,1.87,0,0,0,1.48-.71,2.17,2.17,0,0,0,.45-1.42A2.23,2.23,0,0,1,787.2,105s1.66.27,1.66-2.06a3.24,3.24,0,0,1,3.37-3.47,3.53,3.53,0,0,1,3.17,2.87v4.72s.07,1.17,1.67,1.17,1.6-1.07,1.6-1.38v-5s-1.17-5.61-6.14-5.61c-3.48.15-3.88.92-3.88.92V93.84s.18-1.36-1.56-1.36a1.58,1.58,0,0,0-1.71,1.6v9.57s.09,2.4-3.46,2.4-2.9-4-2.9-4,.16-2.4,3.61-2.4C784.42,99.64,784.54,98.49,784.54,98Z"></path><path class="cls-43" d="M802.86,98a1.81,1.81,0,0,0-.41-1.23,1.67,1.67,0,0,0-1.34-.59,1.52,1.52,0,0,0-1.57,1.42v4.94a6.51,6.51,0,0,0,5.92,5.61,7.73,7.73,0,0,0,4-.89s-.28,2.68-2.31,3.14c-2.16.1-2.16,0-2.16,0a1.52,1.52,0,0,0-1.24,1.58,1.85,1.85,0,0,0,1.12,1.79h2.68s5.21-1.33,5.21-6.14v-7.44a1.8,1.8,0,0,0-1.63-.83c-1.21,0-1.79.59-1.79,1.23s0,4.38-3.21,4.38-3.36-3.36-3.36-3.36Z"></path><circle class="cls-43" cx="815.58" cy="97.82" r="1.91"></circle><path class="cls-43" d="M827,97.82A1.6,1.6,0,0,0,825.22,96h-1.39a6.43,6.43,0,0,0-3.69,1.11,3.78,3.78,0,0,0-1.66,2.33c-.28,1.36-.22,3,1.85,3s2.35.77,2.35,2.09-.78,1.82-3.46,1.82h-4s-1.11.1-1.11,1.7a1.38,1.38,0,0,0,1.42,1.54h5s5-.55,5.89-4.44c.21-1.67-.56-2.1-1.94-2.1s-2.32-.44-2.32-2.05,1.17-1.8,2-1.8h1.72A1.3,1.3,0,0,0,827,97.82Z"></path><path class="cls-43" d="M722.51,231.68v-6.85a7,7,0,0,1,6.11-5.44s3-.36,3,1.55.62,2.9,2.47,2.9,2.34-1.17,2.34-2.9,2.47-1.54,2.47-1.54a6.33,6.33,0,0,1,5,2.26,7.77,7.77,0,0,1,1.81,5.06v4.77a1.72,1.72,0,0,1-1.79,1.3,1.52,1.52,0,0,1-1.67-1.3V226a3.15,3.15,0,0,0-3.21-3.15c-3.14,0-3.14,2.1-3.14,2.1v6.17a1.94,1.94,0,0,1-1.86,1.67,1.72,1.72,0,0,1-1.78-1.48v-6.23s-.31-2.23-3.15-2.23a3,3,0,0,0-3.18,2.47V231a1.78,1.78,0,0,1-1.82,1.82S722.51,232.7,722.51,231.68Z"></path><path class="cls-43" d="M748.08,219.49a1.57,1.57,0,0,0-1.57,1.58v5a7.26,7.26,0,0,0,1.18,4,6.05,6.05,0,0,0,3.44,2.54,6.64,6.64,0,0,0,1.66.22,19,19,0,0,0,2.05,0s.86-.06.86-2.22a2.12,2.12,0,0,1,2.38-2.16,1.61,1.61,0,0,0,1.75-1.7v-5.92a1.58,1.58,0,0,0-1.72-1.3c-1.58,0-1.64,1.3-1.64,2v5.71a3.13,3.13,0,0,1-3.05,2.15,3.31,3.31,0,0,1-3.61-3.22V220.6S749.78,219.49,748.08,219.49Z"></path><path class="cls-43" d="M763.37,232.84a1.82,1.82,0,0,1-1.79-1.79v-5.91a1.75,1.75,0,0,1,1.79-1.28,2.17,2.17,0,0,0,2.39-2.24c0-1.32.1-2.13,2.22-2.13s6.85,1.86,6.85,5.77v6.42a1.42,1.42,0,0,1-1.44,1.16c-1.26,0-1.85-.59-1.85-1.7v-5.65a3.12,3.12,0,0,0-3.34-2.59,2.9,2.9,0,0,0-3.22,2.5s0,5.74,0,6.07S764.94,232.84,763.37,232.84Z"></path><path class="cls-43" d="M784.54,221.19a1.53,1.53,0,0,0-1.72-1.7c-1.92,0-7.31,1-7.31,6.68s5.67,6.67,7.25,6.67a1.86,1.86,0,0,0,1.48-.7,2.19,2.19,0,0,0,.45-1.42,2.24,2.24,0,0,1,2.51-2.5s1.66.27,1.66-2.05a3.24,3.24,0,0,1,3.37-3.47,3.52,3.52,0,0,1,3.17,2.87v4.72s.07,1.17,1.67,1.17,1.6-1.08,1.6-1.39v-5s-1.17-5.62-6.14-5.62c-3.48.16-3.88.93-3.88.93V217s.18-1.36-1.56-1.36a1.59,1.59,0,0,0-1.71,1.61v9.56s.09,2.41-3.46,2.41-2.9-4-2.9-4,.16-2.41,3.61-2.41C784.42,222.82,784.54,221.68,784.54,221.19Z"></path><path class="cls-43" d="M802.86,221.18a1.81,1.81,0,0,0-.41-1.22,1.67,1.67,0,0,0-1.34-.59,1.52,1.52,0,0,0-1.57,1.42v4.93a6.52,6.52,0,0,0,5.92,5.62,7.67,7.67,0,0,0,4-.9s-.28,2.69-2.31,3.15a7.62,7.62,0,0,1-2.16,0,1.52,1.52,0,0,0-1.24,1.57,1.85,1.85,0,0,0,1.12,1.79h2.68s5.21-1.32,5.21-6.14v-7.43a1.8,1.8,0,0,0-1.63-.83c-1.21,0-1.79.58-1.79,1.23s0,4.38-3.21,4.38-3.36-3.36-3.36-3.36Z"></path><circle class="cls-43" cx="815.58" cy="221" r="1.91"></circle><path class="cls-43" d="M827,221a1.59,1.59,0,0,0-1.77-1.77h-1.39a6.36,6.36,0,0,0-3.69,1.11,3.76,3.76,0,0,0-1.66,2.33c-.28,1.36-.22,3,1.85,3s2.35.77,2.35,2.1-.78,1.82-3.46,1.82h-4s-1.11.09-1.11,1.7a1.37,1.37,0,0,0,1.42,1.53h5s5-.55,5.89-4.43c.21-1.67-.56-2.1-1.94-2.1s-2.32-.44-2.32-2.06,1.17-1.8,2-1.8h1.72A1.29,1.29,0,0,0,827,221Z"></path><path class="cls-43" d="M62.34,108.49v-6.85a6.93,6.93,0,0,1,6.1-5.43s3-.37,3,1.55.61,2.9,2.46,2.9,2.35-1.18,2.35-2.9,2.47-1.55,2.47-1.55a6.33,6.33,0,0,1,5,2.26,7.73,7.73,0,0,1,1.81,5.07v4.77a1.7,1.7,0,0,1-1.79,1.29,1.51,1.51,0,0,1-1.66-1.29v-5.5a3.15,3.15,0,0,0-3.21-3.14c-3.15,0-3.15,2.1-3.15,2.1v6.17a1.92,1.92,0,0,1-1.85,1.66,1.74,1.74,0,0,1-1.79-1.48v-6.23s-.31-2.22-3.14-2.22a3,3,0,0,0-3.18,2.47v5.64a1.78,1.78,0,0,1-1.82,1.82S62.34,109.51,62.34,108.49Z"></path><path class="cls-43" d="M87.91,96.31a1.57,1.57,0,0,0-1.58,1.57v5a7.29,7.29,0,0,0,1.18,4.06A6.11,6.11,0,0,0,91,109.42a7.14,7.14,0,0,0,1.66.23c1.1,0,2-.05,2-.05s.87-.06.87-2.22a2.11,2.11,0,0,1,2.37-2.16,1.61,1.61,0,0,0,1.76-1.7V97.6a1.58,1.58,0,0,0-1.73-1.29c-1.57,0-1.63,1.29-1.63,2v5.71a3.15,3.15,0,0,1-3.06,2.16,3.32,3.32,0,0,1-3.6-3.23V97.42S89.6,96.31,87.91,96.31Z"></path><path class="cls-43" d="M103.2,109.66a1.84,1.84,0,0,1-1.8-1.8V102a1.77,1.77,0,0,1,1.8-1.27,2.17,2.17,0,0,0,2.38-2.25c0-1.31.11-2.12,2.23-2.12s6.84,1.86,6.84,5.76v6.42a1.42,1.42,0,0,1-1.44,1.17c-1.25,0-1.85-.59-1.85-1.7V102.3A3.1,3.1,0,0,0,108,99.71a2.92,2.92,0,0,0-3.23,2.51s0,5.73,0,6.07S104.76,109.66,103.2,109.66Z"></path><path class="cls-43" d="M124.37,98a1.53,1.53,0,0,0-1.73-1.69c-1.91,0-7.31,1-7.31,6.67s5.68,6.68,7.25,6.68a1.84,1.84,0,0,0,1.48-.71,2.07,2.07,0,0,0,.45-1.42A2.24,2.24,0,0,1,127,105s1.67.27,1.67-2.06a3.23,3.23,0,0,1,3.36-3.47,3.53,3.53,0,0,1,3.18,2.87v4.72s.06,1.17,1.67,1.17,1.6-1.07,1.6-1.38v-5s-1.17-5.61-6.14-5.61c-3.48.15-3.89.92-3.89.92V93.84s.19-1.36-1.55-1.36a1.58,1.58,0,0,0-1.72,1.6v9.57s.1,2.4-3.45,2.4-2.9-4-2.9-4,.15-2.4,3.61-2.4C124.25,99.64,124.37,98.49,124.37,98Z"></path><path class="cls-43" d="M142.69,98a1.81,1.81,0,0,0-.41-1.23,1.67,1.67,0,0,0-1.34-.59,1.53,1.53,0,0,0-1.58,1.42v4.94a6.53,6.53,0,0,0,5.93,5.61,7.73,7.73,0,0,0,4-.89s-.28,2.68-2.32,3.14c-2.15.1-2.15,0-2.15,0a1.52,1.52,0,0,0-1.24,1.58,1.85,1.85,0,0,0,1.11,1.79h2.69s5.21-1.33,5.21-6.14v-7.44a1.81,1.81,0,0,0-1.64-.83c-1.2,0-1.78.59-1.78,1.23s0,4.38-3.21,4.38-3.37-3.36-3.37-3.36Z"></path><circle class="cls-43" cx="155.41" cy="97.82" r="1.91"></circle><path class="cls-43" d="M166.82,97.82A1.6,1.6,0,0,0,165.05,96h-1.39a6.47,6.47,0,0,0-3.7,1.11,3.77,3.77,0,0,0-1.65,2.33c-.28,1.36-.22,3,1.85,3s2.35.77,2.35,2.09-.78,1.82-3.46,1.82h-4s-1.11.1-1.11,1.7a1.38,1.38,0,0,0,1.42,1.54h5s5-.55,5.89-4.44c.21-1.67-.56-2.1-2-2.1s-2.31-.44-2.31-2.05,1.17-1.8,2-1.8h1.73A1.3,1.3,0,0,0,166.82,97.82Z"></path><path class="cls-43" d="M62.34,231.68v-6.85a7,7,0,0,1,6.1-5.44s3-.36,3,1.55.61,2.9,2.46,2.9,2.35-1.17,2.35-2.9,2.47-1.54,2.47-1.54a6.3,6.3,0,0,1,5,2.26,7.72,7.72,0,0,1,1.81,5.06v4.77a1.7,1.7,0,0,1-1.79,1.3,1.52,1.52,0,0,1-1.66-1.3V226a3.15,3.15,0,0,0-3.21-3.15c-3.15,0-3.15,2.1-3.15,2.1v6.17a1.93,1.93,0,0,1-1.85,1.67,1.74,1.74,0,0,1-1.79-1.48v-6.23s-.31-2.23-3.14-2.23a3,3,0,0,0-3.18,2.47V231a1.78,1.78,0,0,1-1.82,1.82S62.34,232.7,62.34,231.68Z"></path><path class="cls-43" d="M87.91,219.49a1.57,1.57,0,0,0-1.58,1.58v5a7.26,7.26,0,0,0,1.18,4A6.08,6.08,0,0,0,91,232.61a6.64,6.64,0,0,0,1.66.22,18.88,18.88,0,0,0,2,0s.87-.06.87-2.22a2.11,2.11,0,0,1,2.37-2.16,1.62,1.62,0,0,0,1.76-1.7v-5.92a1.58,1.58,0,0,0-1.73-1.3c-1.57,0-1.63,1.3-1.63,2v5.71a3.14,3.14,0,0,1-3.06,2.15,3.31,3.31,0,0,1-3.6-3.22V220.6S89.6,219.49,87.91,219.49Z"></path><path class="cls-43" d="M103.2,232.84a1.83,1.83,0,0,1-1.8-1.79v-5.91a1.77,1.77,0,0,1,1.8-1.28,2.16,2.16,0,0,0,2.38-2.24c0-1.32.11-2.13,2.23-2.13s6.84,1.86,6.84,5.77v6.42a1.41,1.41,0,0,1-1.44,1.16c-1.25,0-1.85-.59-1.85-1.7v-5.65A3.1,3.1,0,0,0,108,222.9a2.92,2.92,0,0,0-3.23,2.5s0,5.74,0,6.07S104.76,232.84,103.2,232.84Z"></path><path class="cls-43" d="M124.37,221.19a1.54,1.54,0,0,0-1.73-1.7c-1.91,0-7.31,1-7.31,6.68s5.68,6.67,7.25,6.67a1.83,1.83,0,0,0,1.48-.7,2.08,2.08,0,0,0,.45-1.42,2.24,2.24,0,0,1,2.51-2.5s1.67.27,1.67-2.05a3.23,3.23,0,0,1,3.36-3.47,3.52,3.52,0,0,1,3.18,2.87v4.72s.06,1.17,1.67,1.17,1.6-1.08,1.6-1.39v-5s-1.17-5.62-6.14-5.62c-3.48.16-3.89.93-3.89.93V217s.19-1.36-1.55-1.36a1.59,1.59,0,0,0-1.72,1.61v9.56s.1,2.41-3.45,2.41-2.9-4-2.9-4,.15-2.41,3.61-2.41C124.25,222.82,124.37,221.68,124.37,221.19Z"></path><path class="cls-43" d="M142.69,221.18a1.81,1.81,0,0,0-.41-1.22,1.67,1.67,0,0,0-1.34-.59,1.53,1.53,0,0,0-1.58,1.42v4.93a6.53,6.53,0,0,0,5.93,5.62,7.67,7.67,0,0,0,4-.9s-.28,2.69-2.32,3.15a7.55,7.55,0,0,1-2.15,0,1.52,1.52,0,0,0-1.24,1.57,1.85,1.85,0,0,0,1.11,1.79h2.69s5.21-1.32,5.21-6.14v-7.43a1.81,1.81,0,0,0-1.64-.83c-1.2,0-1.78.58-1.78,1.23s0,4.38-3.21,4.38-3.37-3.36-3.37-3.36Z"></path><circle class="cls-43" cx="155.41" cy="221" r="1.91"></circle><path class="cls-43" d="M166.82,221a1.59,1.59,0,0,0-1.77-1.77h-1.39a6.39,6.39,0,0,0-3.7,1.11,3.74,3.74,0,0,0-1.65,2.33c-.28,1.36-.22,3,1.85,3s2.35.77,2.35,2.1-.78,1.82-3.46,1.82h-4s-1.11.09-1.11,1.7a1.37,1.37,0,0,0,1.42,1.53h5s5-.55,5.89-4.43c.21-1.67-.56-2.1-2-2.1s-2.31-.44-2.31-2.06,1.17-1.8,2-1.8h1.73A1.29,1.29,0,0,0,166.82,221Z"></path><path class="cls-43" d="M270.92,156.8v-5.32a1.15,1.15,0,0,1,.32-.86,1.09,1.09,0,0,1,.8-.3,1.05,1.05,0,0,1,1.12,1.16v5.21a2.73,2.73,0,0,0,.28,1.25,2.12,2.12,0,0,0,.8.88,2.24,2.24,0,0,0,1.21.33,2.09,2.09,0,0,0,1.65-.73,2.5,2.5,0,0,0,.64-1.73v-5.21a1.15,1.15,0,0,1,.32-.86,1.09,1.09,0,0,1,.8-.3,1.13,1.13,0,0,1,.81.3,1.17,1.17,0,0,1,.31.86v5.32a4.4,4.4,0,0,1-2.78,4.07,4.47,4.47,0,0,1-1.75.34,4.64,4.64,0,0,1-2.27-.57,4.39,4.39,0,0,1-1.65-1.58A4.28,4.28,0,0,1,270.92,156.8Z"></path><path class="cls-43" d="M281.17,159.92v-5.73a1.23,1.23,0,0,1,.3-.86,1,1,0,0,1,.77-.33,1,1,0,0,1,.68.21.93.93,0,0,1,.32.58,2.36,2.36,0,0,1,2.06-.88,3.27,3.27,0,0,1,1.52.35,2.47,2.47,0,0,1,1.05,1,3,3,0,0,1,.38,1.54v4.12a1.38,1.38,0,0,1-.14.62,1,1,0,0,1-.39.43,1,1,0,0,1-.55.15,1,1,0,0,1-.78-.34,1.26,1.26,0,0,1-.29-.86v-3.74a1.45,1.45,0,0,0-.39-1.1,1.41,1.41,0,0,0-1-.38,1.35,1.35,0,0,0-.73.2,1.27,1.27,0,0,0-.48.52,1.81,1.81,0,0,0-.16.76v3.74a1.26,1.26,0,0,1-.14.62,1,1,0,0,1-.38.43,1.07,1.07,0,0,1-.56.15,1,1,0,0,1-.77-.34A1.22,1.22,0,0,1,281.17,159.92Z"></path><path class="cls-43" d="M290.51,149.78a1,1,0,0,1,.6.17,1.26,1.26,0,0,1,.45.44,1.07,1.07,0,0,1,.16.57,1.21,1.21,0,0,1-.35.87,1.15,1.15,0,0,1-1.7,0,1.22,1.22,0,0,1-.37-.86,1.14,1.14,0,0,1,.37-.82A1.18,1.18,0,0,1,290.51,149.78Zm-1.07,10.14v-5.73a1.23,1.23,0,0,1,.3-.86,1,1,0,0,1,.77-.33,1,1,0,0,1,.56.15,1.13,1.13,0,0,1,.39.42,1.38,1.38,0,0,1,.13.62v5.73a1.38,1.38,0,0,1-.13.62,1.09,1.09,0,0,1-.39.43,1.07,1.07,0,0,1-.56.15,1,1,0,0,1-.77-.34A1.22,1.22,0,0,1,289.44,159.92Z"></path><path class="cls-43" d="M294.46,160.22l-2.17-5.55a2,2,0,0,1-.13-.62.94.94,0,0,1,.33-.77,1.16,1.16,0,0,1,.79-.28,1,1,0,0,1,1,.76l1.37,4.24h0l1.37-4.24a1,1,0,0,1,1-.76,1.2,1.2,0,0,1,.79.27,1,1,0,0,1,.32.78,1.72,1.72,0,0,1-.13.62l-2.16,5.55a1.73,1.73,0,0,1-.42.68,1.4,1.4,0,0,1-1.49,0A1.9,1.9,0,0,1,294.46,160.22Z"></path><path class="cls-43" d="M306,157.78h-4.58a1.66,1.66,0,0,0,.68,1.16,2.29,2.29,0,0,0,1.35.39,2.05,2.05,0,0,0,.83-.15c.23-.1.52-.25.86-.44a2,2,0,0,1,.74-.28.78.78,0,0,1,.43.14,1,1,0,0,1,.33.34.92.92,0,0,1,.12.45,1,1,0,0,1-.3.66,2.85,2.85,0,0,1-.83.59,5.27,5.27,0,0,1-1.16.41,4.82,4.82,0,0,1-1.22.16,4.2,4.2,0,0,1-2.1-.53,3.68,3.68,0,0,1-1.42-1.48,4.54,4.54,0,0,1-.22-3.69,4.59,4.59,0,0,1,.8-1.35,3.75,3.75,0,0,1,1.24-.92,3.68,3.68,0,0,1,3.09,0,3.66,3.66,0,0,1,1.23.91,4.3,4.3,0,0,1,.79,1.27,3.58,3.58,0,0,1,.28,1.38A.84.84,0,0,1,306,157.78Zm-4.63-1.44h3.42a2,2,0,0,0-.54-1.19,1.71,1.71,0,0,0-2.32,0A2,2,0,0,0,301.36,156.34Z"></path><path class="cls-43" d="M307.67,159.92v-5.84a1,1,0,0,1,.33-.8,1.14,1.14,0,0,1,.77-.28c.7,0,1.05.3,1.05.89h0a2.56,2.56,0,0,1,.68-.68,1.53,1.53,0,0,1,.83-.21,1,1,0,0,1,.73.3,1.12,1.12,0,0,1,.32.85.68.68,0,0,1-.17.49,1.39,1.39,0,0,1-.45.28l-.67.27a4.48,4.48,0,0,0-1,.58,1.11,1.11,0,0,0-.32.86v3.29a1.38,1.38,0,0,1-.14.62,1,1,0,0,1-.39.43,1,1,0,0,1-.55.15,1,1,0,0,1-.78-.34A1.21,1.21,0,0,1,307.67,159.92Z"></path><path class="cls-43" d="M318.06,154.46a1,1,0,0,1-.25.67.78.78,0,0,1-.62.29,2.09,2.09,0,0,1-.64-.21l-.72-.32a1.48,1.48,0,0,0-.57-.1.86.86,0,0,0-.52.15.53.53,0,0,0-.21.45c0,.21.21.41.64.59l1.36.58a3.73,3.73,0,0,1,1.22.79,1.76,1.76,0,0,1,.51,1.33,2.28,2.28,0,0,1-.38,1.3,2.54,2.54,0,0,1-1.08.9,3.72,3.72,0,0,1-1.6.33,4.41,4.41,0,0,1-1.34-.22,3.36,3.36,0,0,1-1.18-.6,1.1,1.1,0,0,1-.48-.84,1.05,1.05,0,0,1,.26-.62.78.78,0,0,1,.66-.34,1.13,1.13,0,0,1,.51.1,4.1,4.1,0,0,1,.55.28,5.43,5.43,0,0,0,.58.27,1.7,1.7,0,0,0,.59.09,1.07,1.07,0,0,0,.66-.15.54.54,0,0,0,.19-.46c0-.21-.21-.4-.62-.58l-1.36-.58a3.65,3.65,0,0,1-1.25-.81,1.81,1.81,0,0,1-.5-1.33,2.33,2.33,0,0,1,.37-1.31,2.54,2.54,0,0,1,1-.88,3.52,3.52,0,0,1,1.51-.32,4.28,4.28,0,0,1,1.21.18,2.67,2.67,0,0,1,1.05.53A1.08,1.08,0,0,1,318.06,154.46Z"></path><path class="cls-43" d="M326.36,154.4v5.32a2.42,2.42,0,0,1-.17,1c-.12.26-.4.39-.86.39a.92.92,0,0,1-.67-.23,1.42,1.42,0,0,1-.36-.68,2.6,2.6,0,0,1-2.05,1,3.24,3.24,0,0,1-1.8-.53,3.63,3.63,0,0,1-1.28-1.48,4.76,4.76,0,0,1-.47-2.13,4.63,4.63,0,0,1,.48-2.1,3.9,3.9,0,0,1,1.29-1.51,3.09,3.09,0,0,1,1.78-.55,2.72,2.72,0,0,1,1.16.25,2.18,2.18,0,0,1,.89.73,1,1,0,0,1,.34-.64,1,1,0,0,1,.69-.25c.46,0,.74.13.86.39A2.45,2.45,0,0,1,326.36,154.4Zm-5.5,2.68a2.82,2.82,0,0,0,.19,1,1.86,1.86,0,0,0,.57.81,1.43,1.43,0,0,0,.93.31,1.39,1.39,0,0,0,1.23-.65,2.67,2.67,0,0,0,.43-1.51A3.13,3.13,0,0,0,324,156a2,2,0,0,0-.57-.83,1.4,1.4,0,0,0-.91-.32,1.39,1.39,0,0,0-.93.32,1.89,1.89,0,0,0-.58.82A3.23,3.23,0,0,0,320.86,157.08Z"></path><path class="cls-43" d="M327.56,159.92v-9.19a1.28,1.28,0,0,1,.29-.86,1,1,0,0,1,.78-.33,1.07,1.07,0,0,1,.56.15,1,1,0,0,1,.38.42,1.38,1.38,0,0,1,.14.62v9.19a1.38,1.38,0,0,1-.14.62,1,1,0,0,1-.39.43,1,1,0,0,1-.55.15,1,1,0,0,1-.78-.34A1.26,1.26,0,0,1,327.56,159.92Z"></path><path class="cls-43" d="M271,172.44v-8.39a1.16,1.16,0,0,1,.3-.85,1.1,1.1,0,0,1,.85-.31h2.62a4.1,4.1,0,0,1,2.75.82,3.17,3.17,0,0,1,1,2.55,2.72,2.72,0,0,1-.21,1.09,2.43,2.43,0,0,1-.6.85,3,3,0,0,1-.87.56,4.53,4.53,0,0,1-1.08.32l2.54,2.71a.94.94,0,0,1,.29.66,1.16,1.16,0,0,1-.32.8,1.05,1.05,0,0,1-.79.35,1.08,1.08,0,0,1-.87-.39l-3.32-4h0v3.24a1.15,1.15,0,0,1-.31.85,1.09,1.09,0,0,1-.81.31,1.13,1.13,0,0,1-.8-.31A1.15,1.15,0,0,1,271,172.44Zm2.24-7.49v2.64h1.53a1.42,1.42,0,0,0,1-.36,1.24,1.24,0,0,0,.38-1,1.22,1.22,0,0,0-.38-1,1.44,1.44,0,0,0-1-.34Z"></path><path class="cls-43" d="M282.78,165.39a3.66,3.66,0,0,1,1.55.34,3.89,3.89,0,0,1,1.23.92,4.18,4.18,0,0,1,.8,1.33,4.55,4.55,0,0,1,.28,1.57,4.66,4.66,0,0,1-.28,1.59,4.12,4.12,0,0,1-.78,1.32,3.5,3.5,0,0,1-1.23.9,3.71,3.71,0,0,1-1.57.33,3.64,3.64,0,0,1-2-.56,3.74,3.74,0,0,1-1.37-1.5,4.58,4.58,0,0,1-.48-2.08,4.34,4.34,0,0,1,.28-1.55,4.25,4.25,0,0,1,.79-1.35,3.75,3.75,0,0,1,1.24-.92A3.43,3.43,0,0,1,282.78,165.39Zm0,2a1.44,1.44,0,0,0-.93.32,1.9,1.9,0,0,0-.57.83,2.91,2.91,0,0,0-.19,1.05,2.82,2.82,0,0,0,.19,1,1.86,1.86,0,0,0,.57.81,1.57,1.57,0,0,0,1.87,0,1.8,1.8,0,0,0,.58-.81,3,3,0,0,0,.19-1,2.91,2.91,0,0,0-.19-1.05,2,2,0,0,0-.58-.83A1.45,1.45,0,0,0,282.78,167.36Z"></path><path class="cls-43" d="M287.55,172.4v-9.19a1.28,1.28,0,0,1,.29-.86,1,1,0,0,1,.78-.33,1,1,0,0,1,.94.57,1.38,1.38,0,0,1,.14.62v2.93a2.72,2.72,0,0,1,.95-.55,3.14,3.14,0,0,1,1.09-.2,3,3,0,0,1,1.88.61,3.79,3.79,0,0,1,1.19,1.58,5.53,5.53,0,0,1,.4,2.07,4.55,4.55,0,0,1-.44,1.95,3.91,3.91,0,0,1-1.26,1.52,3.16,3.16,0,0,1-1.84.57,2.51,2.51,0,0,1-1.14-.26,1.89,1.89,0,0,1-.83-.72,1,1,0,0,1-1.08.89,1,1,0,0,1-.78-.33A1.29,1.29,0,0,1,287.55,172.4Zm2.15-2.92a2.86,2.86,0,0,0,.43,1.56,1.39,1.39,0,0,0,1.25.68,1.35,1.35,0,0,0,.91-.32,1.92,1.92,0,0,0,.58-.81,3,3,0,0,0,.19-1,3.14,3.14,0,0,0-.19-1.05,2.13,2.13,0,0,0-.57-.83,1.41,1.41,0,0,0-.92-.32,1.48,1.48,0,0,0-.93.3,1.92,1.92,0,0,0-.57.79A2.94,2.94,0,0,0,289.7,169.48Z"></path><path class="cls-43" d="M297.16,162.26a1.19,1.19,0,0,1,.6.17,1.32,1.32,0,0,1,.44.44,1.08,1.08,0,0,1,.17.57,1.23,1.23,0,0,1-.35.87,1.15,1.15,0,0,1-1.7,0,1.18,1.18,0,0,1-.37-.86,1.1,1.1,0,0,1,.37-.82A1.15,1.15,0,0,1,297.16,162.26Zm-1.07,10.14v-5.73a1.28,1.28,0,0,1,.29-.86,1,1,0,0,1,.78-.33,1.07,1.07,0,0,1,.56.15,1,1,0,0,1,.38.42,1.38,1.38,0,0,1,.14.62v5.73a1.46,1.46,0,0,1-.14.63,1,1,0,0,1-.39.42,1,1,0,0,1-.55.15,1,1,0,0,1-.78-.33A1.29,1.29,0,0,1,296.09,172.4Z"></path><path class="cls-43" d="M299.43,172.4v-5.73a1.23,1.23,0,0,1,.3-.86,1,1,0,0,1,.77-.33,1,1,0,0,1,.68.21.93.93,0,0,1,.32.58,2.36,2.36,0,0,1,2.06-.88,3.27,3.27,0,0,1,1.52.35,2.47,2.47,0,0,1,1.05,1,3,3,0,0,1,.38,1.55v4.11a1.46,1.46,0,0,1-.14.63,1,1,0,0,1-.39.42,1,1,0,0,1-.55.15,1,1,0,0,1-.78-.33,1.29,1.29,0,0,1-.29-.87v-3.74a1.46,1.46,0,0,0-.39-1.1,1.41,1.41,0,0,0-1-.37,1.35,1.35,0,0,0-.73.19,1.27,1.27,0,0,0-.48.52,1.81,1.81,0,0,0-.16.76v3.74a1.33,1.33,0,0,1-.14.63,1,1,0,0,1-.38.42,1.07,1.07,0,0,1-.56.15,1,1,0,0,1-.77-.33A1.24,1.24,0,0,1,299.43,172.4Z"></path><path class="cls-43" d="M315.08,166.89v5.31a2.37,2.37,0,0,1-.18,1c-.11.26-.4.39-.86.39a.94.94,0,0,1-.67-.23,1.42,1.42,0,0,1-.36-.68,2.58,2.58,0,0,1-2,1,3.3,3.3,0,0,1-1.81-.53,3.64,3.64,0,0,1-1.28-1.48,4.7,4.7,0,0,1-.46-2.13,4.76,4.76,0,0,1,.47-2.1,3.9,3.9,0,0,1,1.29-1.51,3.2,3.2,0,0,1,1.79-.55,2.87,2.87,0,0,1,1.15.25,2.2,2.2,0,0,1,.89.74,1,1,0,0,1,.34-.65,1,1,0,0,1,.69-.25c.46,0,.75.13.86.39A2.45,2.45,0,0,1,315.08,166.89Zm-5.51,2.67a2.82,2.82,0,0,0,.19,1,1.8,1.8,0,0,0,.58.81,1.39,1.39,0,0,0,.93.31,1.38,1.38,0,0,0,1.22-.65,2.65,2.65,0,0,0,.44-1.51,2.91,2.91,0,0,0-.19-1.05,1.88,1.88,0,0,0-.57-.83,1.36,1.36,0,0,0-.9-.32,1.44,1.44,0,0,0-.93.32,1.84,1.84,0,0,0-.58.83A2.91,2.91,0,0,0,309.57,169.56Z"></path><path class="cls-43" d="M268.15,168.7l-7.1-8.57a10.7,10.7,0,0,0,5.85-9.56,10.91,10.91,0,0,0-21.81-.1c0,.59,0,10.14,0,11.39a5,5,0,0,1-5,5,5.1,5.1,0,0,1-5.17-5c0-.39.07-18,.07-18a2.92,2.92,0,0,0-2.93-2.94,3,3,0,0,0-3,2.94v18a10.73,10.73,0,0,0,11,10.82A11.14,11.14,0,0,0,251,161.27V150.54a5,5,0,1,1,5.14,5.12,2.92,2.92,0,0,0-2.44,4.68l9.94,12.12a2.95,2.95,0,1,0,4.54-3.76"></path><path class="cls-43" d="M601.79,156.8v-5.32a1.15,1.15,0,0,1,.32-.86,1.09,1.09,0,0,1,.8-.3,1.05,1.05,0,0,1,1.12,1.16v5.21a2.73,2.73,0,0,0,.28,1.25,2.12,2.12,0,0,0,.8.88,2.24,2.24,0,0,0,1.21.33,2.09,2.09,0,0,0,1.65-.73,2.5,2.5,0,0,0,.64-1.73v-5.21a1.15,1.15,0,0,1,.32-.86,1.09,1.09,0,0,1,.8-.3,1.13,1.13,0,0,1,.81.3,1.17,1.17,0,0,1,.31.86v5.32a4.4,4.4,0,0,1-2.78,4.07,4.47,4.47,0,0,1-1.75.34,4.64,4.64,0,0,1-2.27-.57,4.39,4.39,0,0,1-1.65-1.58A4.28,4.28,0,0,1,601.79,156.8Z"></path><path class="cls-43" d="M612,159.92v-5.73a1.23,1.23,0,0,1,.3-.86,1,1,0,0,1,.77-.33,1,1,0,0,1,.68.21.93.93,0,0,1,.32.58,2.36,2.36,0,0,1,2.06-.88,3.27,3.27,0,0,1,1.52.35,2.47,2.47,0,0,1,1,1,3,3,0,0,1,.38,1.54v4.12a1.38,1.38,0,0,1-.14.62,1,1,0,0,1-.39.43,1,1,0,0,1-.55.15,1,1,0,0,1-.78-.34,1.26,1.26,0,0,1-.29-.86v-3.74a1.45,1.45,0,0,0-.39-1.1,1.41,1.41,0,0,0-1-.38,1.35,1.35,0,0,0-.73.2,1.27,1.27,0,0,0-.48.52,1.81,1.81,0,0,0-.16.76v3.74a1.26,1.26,0,0,1-.14.62,1,1,0,0,1-.38.43,1.07,1.07,0,0,1-.56.15,1,1,0,0,1-.77-.34A1.22,1.22,0,0,1,612,159.92Z"></path><path class="cls-43" d="M621.38,149.78a1,1,0,0,1,.6.17,1.26,1.26,0,0,1,.45.44,1.07,1.07,0,0,1,.16.57,1.21,1.21,0,0,1-.35.87,1.15,1.15,0,0,1-1.7,0,1.22,1.22,0,0,1-.37-.86,1.14,1.14,0,0,1,.37-.82A1.18,1.18,0,0,1,621.38,149.78Zm-1.07,10.14v-5.73a1.23,1.23,0,0,1,.3-.86,1,1,0,0,1,.77-.33,1,1,0,0,1,.56.15,1.13,1.13,0,0,1,.39.42,1.38,1.38,0,0,1,.13.62v5.73a1.38,1.38,0,0,1-.13.62,1.09,1.09,0,0,1-.39.43,1.07,1.07,0,0,1-.56.15,1,1,0,0,1-.77-.34A1.22,1.22,0,0,1,620.31,159.92Z"></path><path class="cls-43" d="M625.33,160.22l-2.17-5.55a2,2,0,0,1-.13-.62.94.94,0,0,1,.33-.77,1.16,1.16,0,0,1,.79-.28,1,1,0,0,1,1,.76l1.37,4.24h0l1.37-4.24a1,1,0,0,1,1-.76,1.2,1.2,0,0,1,.79.27,1,1,0,0,1,.32.78,1.72,1.72,0,0,1-.13.62l-2.16,5.55a1.73,1.73,0,0,1-.42.68,1.4,1.4,0,0,1-1.49,0A1.9,1.9,0,0,1,625.33,160.22Z"></path><path class="cls-43" d="M636.86,157.78h-4.58a1.66,1.66,0,0,0,.68,1.16,2.29,2.29,0,0,0,1.35.39,2.05,2.05,0,0,0,.83-.15c.23-.1.52-.25.86-.44a2,2,0,0,1,.74-.28.78.78,0,0,1,.43.14,1,1,0,0,1,.33.34.92.92,0,0,1,.12.45,1,1,0,0,1-.3.66,2.85,2.85,0,0,1-.83.59,5.27,5.27,0,0,1-1.16.41,4.82,4.82,0,0,1-1.22.16,4.2,4.2,0,0,1-2.1-.53,3.68,3.68,0,0,1-1.42-1.48,4.54,4.54,0,0,1-.22-3.69,4.59,4.59,0,0,1,.8-1.35,3.75,3.75,0,0,1,1.24-.92,3.68,3.68,0,0,1,3.09,0,3.66,3.66,0,0,1,1.23.91,4.3,4.3,0,0,1,.79,1.27,3.58,3.58,0,0,1,.28,1.38A.84.84,0,0,1,636.86,157.78Zm-4.63-1.44h3.42a2,2,0,0,0-.54-1.19,1.71,1.71,0,0,0-2.32,0A2,2,0,0,0,632.23,156.34Z"></path><path class="cls-43" d="M638.54,159.92v-5.84a1,1,0,0,1,.33-.8,1.14,1.14,0,0,1,.77-.28c.7,0,1.05.3,1.05.89h0a2.56,2.56,0,0,1,.68-.68,1.53,1.53,0,0,1,.83-.21,1,1,0,0,1,.73.3,1.12,1.12,0,0,1,.32.85.68.68,0,0,1-.17.49,1.39,1.39,0,0,1-.45.28l-.67.27a4.48,4.48,0,0,0-1,.58,1.11,1.11,0,0,0-.32.86v3.29a1.38,1.38,0,0,1-.14.62,1,1,0,0,1-.39.43,1,1,0,0,1-.55.15,1,1,0,0,1-.78-.34A1.21,1.21,0,0,1,638.54,159.92Z"></path><path class="cls-43" d="M648.93,154.46a1,1,0,0,1-.25.67.78.78,0,0,1-.62.29,2.09,2.09,0,0,1-.64-.21l-.72-.32a1.48,1.48,0,0,0-.57-.1.86.86,0,0,0-.52.15.53.53,0,0,0-.21.45c0,.21.21.41.64.59l1.36.58a3.73,3.73,0,0,1,1.22.79,1.76,1.76,0,0,1,.51,1.33,2.28,2.28,0,0,1-.38,1.3,2.54,2.54,0,0,1-1.08.9,3.72,3.72,0,0,1-1.6.33,4.41,4.41,0,0,1-1.34-.22,3.36,3.36,0,0,1-1.18-.6,1.1,1.1,0,0,1-.48-.84,1.05,1.05,0,0,1,.26-.62.78.78,0,0,1,.66-.34,1.13,1.13,0,0,1,.51.1,4.1,4.1,0,0,1,.55.28,5.43,5.43,0,0,0,.58.27,1.7,1.7,0,0,0,.59.09,1.07,1.07,0,0,0,.66-.15.54.54,0,0,0,.19-.46c0-.21-.21-.4-.62-.58l-1.36-.58a3.65,3.65,0,0,1-1.25-.81,1.81,1.81,0,0,1-.5-1.33,2.33,2.33,0,0,1,.37-1.31,2.54,2.54,0,0,1,1-.88,3.52,3.52,0,0,1,1.51-.32,4.28,4.28,0,0,1,1.21.18,2.67,2.67,0,0,1,1,.53A1.08,1.08,0,0,1,648.93,154.46Z"></path><path class="cls-43" d="M657.23,154.4v5.32a2.42,2.42,0,0,1-.17,1c-.12.26-.4.39-.86.39a.92.92,0,0,1-.67-.23,1.42,1.42,0,0,1-.36-.68,2.6,2.6,0,0,1-2,1,3.24,3.24,0,0,1-1.8-.53A3.63,3.63,0,0,1,650,159.2a4.76,4.76,0,0,1-.47-2.13,4.63,4.63,0,0,1,.48-2.1,3.9,3.9,0,0,1,1.29-1.51,3.09,3.09,0,0,1,1.78-.55,2.72,2.72,0,0,1,1.16.25,2.18,2.18,0,0,1,.89.73,1,1,0,0,1,.34-.64,1,1,0,0,1,.69-.25c.46,0,.74.13.86.39A2.45,2.45,0,0,1,657.23,154.4Zm-5.5,2.68a2.82,2.82,0,0,0,.19,1,1.86,1.86,0,0,0,.57.81,1.43,1.43,0,0,0,.93.31,1.39,1.39,0,0,0,1.23-.65,2.67,2.67,0,0,0,.43-1.51,3.13,3.13,0,0,0-.18-1.05,2,2,0,0,0-.57-.83,1.4,1.4,0,0,0-.91-.32,1.39,1.39,0,0,0-.93.32,1.89,1.89,0,0,0-.58.82A3.23,3.23,0,0,0,651.73,157.08Z"></path><path class="cls-43" d="M658.43,159.92v-9.19a1.28,1.28,0,0,1,.29-.86,1,1,0,0,1,.78-.33,1.07,1.07,0,0,1,.56.15,1,1,0,0,1,.38.42,1.38,1.38,0,0,1,.14.62v9.19a1.38,1.38,0,0,1-.14.62,1,1,0,0,1-.39.43,1,1,0,0,1-.55.15,1,1,0,0,1-.78-.34A1.26,1.26,0,0,1,658.43,159.92Z"></path><path class="cls-43" d="M601.88,172.44v-8.39a1.16,1.16,0,0,1,.3-.85,1.1,1.1,0,0,1,.85-.31h2.62a4.1,4.1,0,0,1,2.75.82,3.17,3.17,0,0,1,1,2.55,2.72,2.72,0,0,1-.21,1.09,2.43,2.43,0,0,1-.6.85,3,3,0,0,1-.87.56,4.53,4.53,0,0,1-1.08.32l2.54,2.71a.94.94,0,0,1,.29.66,1.16,1.16,0,0,1-.32.8,1.05,1.05,0,0,1-.79.35,1.08,1.08,0,0,1-.87-.39l-3.32-4h0v3.24a1.15,1.15,0,0,1-.31.85,1.09,1.09,0,0,1-.81.31,1.13,1.13,0,0,1-.8-.31A1.15,1.15,0,0,1,601.88,172.44Zm2.24-7.49v2.64h1.53a1.42,1.42,0,0,0,1-.36,1.24,1.24,0,0,0,.38-1,1.22,1.22,0,0,0-.38-1,1.44,1.44,0,0,0-1-.34Z"></path><path class="cls-43" d="M613.65,165.39a3.66,3.66,0,0,1,1.55.34,3.89,3.89,0,0,1,1.23.92,4.18,4.18,0,0,1,.8,1.33,4.55,4.55,0,0,1,.28,1.57,4.66,4.66,0,0,1-.28,1.59,4.12,4.12,0,0,1-.78,1.32,3.5,3.5,0,0,1-1.23.9,3.71,3.71,0,0,1-1.57.33,3.64,3.64,0,0,1-2-.56,3.74,3.74,0,0,1-1.37-1.5,4.58,4.58,0,0,1-.48-2.08,4.34,4.34,0,0,1,.28-1.55,4.25,4.25,0,0,1,.79-1.35,3.75,3.75,0,0,1,1.24-.92A3.43,3.43,0,0,1,613.65,165.39Zm0,2a1.44,1.44,0,0,0-.93.32,1.9,1.9,0,0,0-.57.83,2.91,2.91,0,0,0-.19,1.05,2.82,2.82,0,0,0,.19,1,1.86,1.86,0,0,0,.57.81,1.57,1.57,0,0,0,1.87,0,1.8,1.8,0,0,0,.58-.81,3,3,0,0,0,.19-1,2.91,2.91,0,0,0-.19-1.05,2,2,0,0,0-.58-.83A1.45,1.45,0,0,0,613.65,167.36Z"></path><path class="cls-43" d="M618.42,172.4v-9.19a1.28,1.28,0,0,1,.29-.86,1,1,0,0,1,.78-.33,1,1,0,0,1,.94.57,1.38,1.38,0,0,1,.14.62v2.93a2.72,2.72,0,0,1,.95-.55,3.14,3.14,0,0,1,1.09-.2,3,3,0,0,1,1.88.61,3.79,3.79,0,0,1,1.19,1.58,5.53,5.53,0,0,1,.4,2.07,4.55,4.55,0,0,1-.44,1.95,3.91,3.91,0,0,1-1.26,1.52,3.16,3.16,0,0,1-1.84.57,2.51,2.51,0,0,1-1.14-.26,1.89,1.89,0,0,1-.83-.72,1,1,0,0,1-1.08.89,1,1,0,0,1-.78-.33A1.29,1.29,0,0,1,618.42,172.4Zm2.15-2.92A2.86,2.86,0,0,0,621,171a1.39,1.39,0,0,0,1.25.68,1.35,1.35,0,0,0,.91-.32,1.92,1.92,0,0,0,.58-.81,3,3,0,0,0,.19-1,3.14,3.14,0,0,0-.19-1.05,2.13,2.13,0,0,0-.57-.83,1.41,1.41,0,0,0-.92-.32,1.48,1.48,0,0,0-.93.3,1.92,1.92,0,0,0-.57.79A2.94,2.94,0,0,0,620.57,169.48Z"></path><path class="cls-43" d="M628,162.26a1.19,1.19,0,0,1,.6.17,1.32,1.32,0,0,1,.44.44,1.08,1.08,0,0,1,.17.57,1.23,1.23,0,0,1-.35.87,1.15,1.15,0,0,1-1.7,0,1.18,1.18,0,0,1-.37-.86,1.1,1.1,0,0,1,.37-.82A1.15,1.15,0,0,1,628,162.26ZM627,172.4v-5.73a1.28,1.28,0,0,1,.29-.86,1,1,0,0,1,.78-.33,1.07,1.07,0,0,1,.56.15,1,1,0,0,1,.38.42,1.38,1.38,0,0,1,.14.62v5.73a1.46,1.46,0,0,1-.14.63,1,1,0,0,1-.39.42,1,1,0,0,1-.55.15,1,1,0,0,1-.78-.33A1.29,1.29,0,0,1,627,172.4Z"></path><path class="cls-43" d="M630.3,172.4v-5.73a1.23,1.23,0,0,1,.3-.86,1,1,0,0,1,.77-.33,1,1,0,0,1,.68.21.93.93,0,0,1,.32.58,2.36,2.36,0,0,1,2.06-.88,3.27,3.27,0,0,1,1.52.35,2.47,2.47,0,0,1,1,1,3,3,0,0,1,.38,1.55v4.11a1.46,1.46,0,0,1-.14.63,1,1,0,0,1-.39.42,1,1,0,0,1-.55.15,1,1,0,0,1-.78-.33,1.29,1.29,0,0,1-.29-.87v-3.74a1.46,1.46,0,0,0-.39-1.1,1.41,1.41,0,0,0-1-.37,1.35,1.35,0,0,0-.73.19,1.27,1.27,0,0,0-.48.52,1.81,1.81,0,0,0-.16.76v3.74a1.33,1.33,0,0,1-.14.63,1,1,0,0,1-.38.42,1.07,1.07,0,0,1-.56.15,1,1,0,0,1-.77-.33A1.24,1.24,0,0,1,630.3,172.4Z"></path><path class="cls-43" d="M646,166.89v5.31a2.37,2.37,0,0,1-.18,1c-.11.26-.4.39-.86.39a.94.94,0,0,1-.67-.23,1.42,1.42,0,0,1-.36-.68,2.58,2.58,0,0,1-2,1,3.3,3.3,0,0,1-1.81-.53,3.64,3.64,0,0,1-1.28-1.48,4.7,4.7,0,0,1-.46-2.13,4.76,4.76,0,0,1,.47-2.1,3.9,3.9,0,0,1,1.29-1.51,3.2,3.2,0,0,1,1.79-.55,2.87,2.87,0,0,1,1.15.25,2.2,2.2,0,0,1,.89.74,1,1,0,0,1,.34-.65,1,1,0,0,1,.69-.25c.46,0,.75.13.86.39A2.45,2.45,0,0,1,646,166.89Zm-5.51,2.67a2.82,2.82,0,0,0,.19,1,1.8,1.8,0,0,0,.58.81,1.39,1.39,0,0,0,.93.31,1.38,1.38,0,0,0,1.22-.65,2.65,2.65,0,0,0,.44-1.51,2.91,2.91,0,0,0-.19-1.05,1.88,1.88,0,0,0-.57-.83,1.36,1.36,0,0,0-.9-.32,1.44,1.44,0,0,0-.93.32,1.84,1.84,0,0,0-.58.83A2.91,2.91,0,0,0,640.44,169.56Z"></path><path class="cls-43" d="M599,168.7l-7.09-8.57a10.71,10.71,0,0,0,5.84-9.56,10.91,10.91,0,0,0-21.81-.1c0,.59,0,10.14,0,11.39a5,5,0,0,1-5,5,5.1,5.1,0,0,1-5.17-5c0-.39.07-18,.07-18a2.92,2.92,0,0,0-2.93-2.94,3,3,0,0,0-3,2.94v18a10.73,10.73,0,0,0,11,10.82,11.14,11.14,0,0,0,10.91-11.41V150.54a5,5,0,1,1,5.14,5.12,2.92,2.92,0,0,0-2.44,4.68l9.94,12.12A2.95,2.95,0,0,0,599,168.7"></path></g></g></svg> 