<?xml version="1.0" encoding="UTF-8"?> <svg xmlns="http://www.w3.org/2000/svg" xmlns:xlink="http://www.w3.org/1999/xlink" viewBox="0 0 940.87 430.37"><defs><style>.cls-1{fill:url(#linear-gradient);}.cls-2{fill:url(#linear-gradient-2);}.cls-3{fill:url(#linear-gradient-3);}.cls-4{fill:url(#linear-gradient-4);}.cls-5{fill:url(#linear-gradient-5);}.cls-6{fill:url(#linear-gradient-6);}.cls-7{fill:url(#linear-gradient-7);}.cls-8{fill:url(#linear-gradient-8);}.cls-9{fill:url(#linear-gradient-9);}.cls-10{fill:#f1f2f2;}.cls-11{fill:#3e2b58;}.cls-12{fill:#231f20;}.cls-13{fill:url(#linear-gradient-10);}.cls-14{fill:url(#linear-gradient-11);}.cls-15{fill:url(#linear-gradient-12);}.cls-16{fill:url(#linear-gradient-13);}.cls-17{fill:url(#linear-gradient-14);}.cls-18{fill:url(#linear-gradient-15);}.cls-19{fill:url(#linear-gradient-16);}.cls-20{fill:url(#linear-gradient-17);}.cls-21{fill:url(#linear-gradient-18);}.cls-22{fill:url(#linear-gradient-19);}.cls-23{fill:url(#linear-gradient-20);}.cls-24{fill:url(#linear-gradient-21);}.cls-25{fill:url(#linear-gradient-22);}.cls-26{fill:url(#linear-gradient-23);}.cls-27{fill:url(#linear-gradient-24);}.cls-28{fill:url(#linear-gradient-25);}.cls-29{fill:url(#linear-gradient-26);}.cls-30{fill:url(#linear-gradient-27);}.cls-31{fill:url(#linear-gradient-28);}.cls-32{fill:url(#linear-gradient-29);}.cls-33{fill:url(#linear-gradient-30);}.cls-34{fill:url(#linear-gradient-31);}</style><linearGradient id="linear-gradient" x1="583.68" y1="119.94" x2="727.99" y2="119.94" gradientUnits="userSpaceOnUse"><stop offset="0" stop-color="#ec2942"></stop><stop offset="0.4" stop-color="#ec2b44"></stop><stop offset="0.54" stop-color="#ed3249"></stop><stop offset="0.65" stop-color="#ee3d53"></stop><stop offset="0.73" stop-color="#ef4e62"></stop><stop offset="0.8" stop-color="#f16474"></stop><stop offset="0.86" stop-color="#f4808b"></stop><stop offset="0.92" stop-color="#f7a0a7"></stop><stop offset="0.97" stop-color="#fac4c6"></stop><stop offset="1" stop-color="#fcdcda"></stop></linearGradient><linearGradient id="linear-gradient-2" x1="0.25" y1="120.18" x2="213.14" y2="120.18" gradientUnits="userSpaceOnUse"><stop offset="0" stop-color="#bad8df"></stop><stop offset="0.04" stop-color="#bfd8df"></stop><stop offset="0.27" stop-color="#dadadd"></stop><stop offset="0.5" stop-color="#eddbdb"></stop><stop offset="0.75" stop-color="#f8dcda"></stop><stop offset="1" stop-color="#fcdcda"></stop></linearGradient><linearGradient id="linear-gradient-3" x1="727.99" y1="120.18" x2="940.87" y2="120.18" xlink:href="#linear-gradient"></linearGradient><linearGradient id="linear-gradient-4" x1="213.14" y1="119.94" x2="357.45" y2="119.94" gradientUnits="userSpaceOnUse"><stop offset="0" stop-color="#3e2c57"></stop><stop offset="1" stop-color="#a03594"></stop></linearGradient><linearGradient id="linear-gradient-5" x1="106.21" y1="72.3" x2="508.49" y2="72.3" gradientUnits="userSpaceOnUse"><stop offset="0" stop-color="#ee2741"></stop><stop offset="1" stop-color="#a03594"></stop></linearGradient><linearGradient id="linear-gradient-6" x1="-200.68" y1="335.37" x2="258.11" y2="335.37" gradientUnits="userSpaceOnUse"><stop offset="0" stop-color="#bad8df"></stop><stop offset="1" stop-color="#fcdcda"></stop></linearGradient><linearGradient id="linear-gradient-7" x1="285.97" y1="335.37" x2="744.77" y2="335.37" xlink:href="#linear-gradient-6"></linearGradient><linearGradient id="linear-gradient-8" x1="0.25" y1="192.27" x2="469.8" y2="192.27" xlink:href="#linear-gradient"></linearGradient><linearGradient id="linear-gradient-9" x1="469.8" y1="192.27" x2="1655.97" y2="192.27" xlink:href="#linear-gradient-2"></linearGradient><linearGradient id="linear-gradient-10" x1="381.25" y1="45.04" x2="429.68" y2="45.04" gradientTransform="translate(31.8 208.77) rotate(-30)" xlink:href="#linear-gradient"></linearGradient><linearGradient id="linear-gradient-11" x1="484.3" y1="81.12" x2="534.86" y2="81.12" gradientTransform="translate(718.58 553.95) rotate(-122.91)" xlink:href="#linear-gradient"></linearGradient><linearGradient id="linear-gradient-12" x1="475.75" y1="93.48" x2="522.16" y2="93.48" gradientTransform="translate(691.83 564.09) rotate(-122.91)" xlink:href="#linear-gradient"></linearGradient><linearGradient id="linear-gradient-13" x1="467.69" y1="104.52" x2="511.15" y2="104.52" gradientTransform="translate(667.85 573.12) rotate(-122.91)" xlink:href="#linear-gradient"></linearGradient><linearGradient id="linear-gradient-14" x1="459.59" y1="115.1" x2="497.34" y2="115.1" gradientTransform="translate(642.05 580.25) rotate(-122.91)" xlink:href="#linear-gradient"></linearGradient><linearGradient id="linear-gradient-15" x1="511.45" y1="45.04" x2="559.87" y2="45.04" gradientTransform="translate(94.29 -261.79) rotate(30)" xlink:href="#linear-gradient-2"></linearGradient><linearGradient id="linear-gradient-16" x1="401.67" y1="70.18" x2="494.68" y2="70.18" xlink:href="#linear-gradient"></linearGradient><linearGradient id="linear-gradient-17" x1="431.47" y1="47.86" x2="469.85" y2="47.86" gradientTransform="matrix(-0.75, 0.66, -0.66, -0.75, 821.5, -210.97)" xlink:href="#linear-gradient-2"></linearGradient><linearGradient id="linear-gradient-18" x1="456.33" y1="53.35" x2="542.85" y2="53.35" xlink:href="#linear-gradient-2"></linearGradient><linearGradient id="linear-gradient-19" x1="404.75" y1="87.61" x2="431.57" y2="87.61" gradientTransform="translate(12.32 220.88) rotate(-30)" xlink:href="#linear-gradient-2"></linearGradient><linearGradient id="linear-gradient-20" x1="449.1" y1="113.47" x2="475.92" y2="113.47" gradientTransform="translate(5.34 246.52) rotate(-30)" xlink:href="#linear-gradient-2"></linearGradient><linearGradient id="linear-gradient-21" x1="419.86" y1="92.82" x2="450.85" y2="92.82" gradientTransform="translate(12.02 230.17) rotate(-30)" xlink:href="#linear-gradient-2"></linearGradient><linearGradient id="linear-gradient-22" x1="434.43" y1="103.66" x2="462.62" y2="103.66" gradientTransform="translate(8.37 238.21) rotate(-30)" xlink:href="#linear-gradient-2"></linearGradient><linearGradient id="linear-gradient-23" x1="-8726.64" y1="-14016.78" x2="-8691.8" y2="-14016.78" gradientTransform="translate(-8543.69 -13935.26) rotate(180)" xlink:href="#linear-gradient-5"></linearGradient><linearGradient id="linear-gradient-24" x1="58.72" y1="81.52" x2="148.1" y2="81.52" xlink:href="#linear-gradient-5"></linearGradient><linearGradient id="linear-gradient-25" x1="793.41" y1="-18430.46" x2="882.79" y2="-18430.46" gradientTransform="matrix(1, 0, 0, -1, 0, -18404.23)" xlink:href="#linear-gradient-2"></linearGradient><linearGradient id="linear-gradient-26" x1="793.41" y1="-18492.58" x2="882.79" y2="-18492.58" gradientTransform="matrix(1, 0, 0, -1, 0, -18404.23)" xlink:href="#linear-gradient-2"></linearGradient><linearGradient id="linear-gradient-27" x1="213.14" y1="72.21" x2="357.45" y2="72.21" xlink:href="#linear-gradient"></linearGradient><linearGradient id="linear-gradient-28" x1="-7986.48" y1="-18508.71" x2="-7842.17" y2="-18508.71" gradientTransform="translate(-7629.03 -18436.51) rotate(180)" xlink:href="#linear-gradient-2"></linearGradient><linearGradient id="linear-gradient-29" x1="-7958.02" y1="-18508.71" x2="-7813.7" y2="-18508.71" gradientTransform="translate(-7230.03 -18436.51) rotate(180)" xlink:href="#linear-gradient"></linearGradient><linearGradient id="linear-gradient-30" x1="-8357.02" y1="-18508.71" x2="-8212.7" y2="-18508.71" gradientTransform="translate(-7629.03 -18436.51) rotate(180)" xlink:href="#linear-gradient-2"></linearGradient><linearGradient id="linear-gradient-31" x1="-9103.25" y1="-14128.62" x2="-9066.6" y2="-14128.62" gradientTransform="translate(-8543.69 -13935.26) rotate(180)" xlink:href="#linear-gradient"></linearGradient></defs><g id="Layer_2" data-name="Layer 2"><g id="copy"><rect class="cls-1" x="583.68" width="144.31" height="239.87"></rect><path class="cls-2" d="M41.75,0H213.14a0,0,0,0,1,0,0V240.37a0,0,0,0,1,0,0H.25a0,0,0,0,1,0,0V41.5A41.5,41.5,0,0,1,41.75,0Z"></path><rect class="cls-3" x="727.99" width="212.88" height="240.37"></rect><rect class="cls-4" x="213.14" width="144.31" height="239.87"></rect><rect class="cls-5" x="357.45" width="226.23" height="144.61"></rect><rect class="cls-6" y="240.37" width="470.06" height="190"></rect><rect class="cls-7" x="469.8" y="240.37" width="470.06" height="190"></rect><path class="cls-8" d="M44.47,144.17H469.8a0,0,0,0,1,0,0v96.2a0,0,0,0,1,0,0H.25a0,0,0,0,1,0,0v-52A44.22,44.22,0,0,1,44.47,144.17Z"></path><rect class="cls-9" x="469.8" y="144.17" width="469.55" height="96.2"></rect><path class="cls-10" d="M146.06,200v-25.2h5.86L162.36,192h-3.09l10.15-17.14h5.87l.07,25.2h-6.55l-.08-15.23h1.12l-7.59,12.75h-3.17l-7.81-12.75h1.36V200Z"></path><path class="cls-10" d="M188.1,200.34a9.52,9.52,0,0,1-4.26-.93,6.6,6.6,0,0,1-3-2.94,10.65,10.65,0,0,1-1.07-5.05V180.51h6.84v9.79a4.9,4.9,0,0,0,.85,3.24,3,3,0,0,0,2.39,1,3.6,3.6,0,0,0,1.84-.47,3.37,3.37,0,0,0,1.33-1.49,6,6,0,0,0,.5-2.65v-9.39h6.84V200H193.9v-5.51l1.26,1.55a6.91,6.91,0,0,1-2.92,3.22A8.34,8.34,0,0,1,188.1,200.34Z"></path><path class="cls-10" d="M217.33,180.18a9.06,9.06,0,0,1,4.11.92,6.76,6.76,0,0,1,2.9,2.83,10.15,10.15,0,0,1,1.06,4.93V200h-6.84V190a4.5,4.5,0,0,0-.85-3,3,3,0,0,0-2.36-1,4.06,4.06,0,0,0-2,.49A3.32,3.32,0,0,0,212,188a5.84,5.84,0,0,0-.5,2.63V200h-6.84V180.51h6.51v5.54l-1.26-1.62a7.53,7.53,0,0,1,3.06-3.18A9,9,0,0,1,217.33,180.18Z"></path><path class="cls-10" d="M239.73,200.34a12.58,12.58,0,0,1-5.78-1.29,10,10,0,0,1-4-3.58,9.63,9.63,0,0,1-1.44-5.24A9.52,9.52,0,0,1,230,185a9.87,9.87,0,0,1,4-3.55,12.7,12.7,0,0,1,5.78-1.28,11.15,11.15,0,0,1,5.72,1.41,7.7,7.7,0,0,1,3.42,4l-5.29,2.7a4.86,4.86,0,0,0-1.69-2,4.1,4.1,0,0,0-2.2-.63,4.38,4.38,0,0,0-2.16.54,3.8,3.8,0,0,0-1.53,1.57,5.16,5.16,0,0,0-.56,2.5,5.34,5.34,0,0,0,.56,2.55,3.79,3.79,0,0,0,1.53,1.59,4.38,4.38,0,0,0,2.16.54,4.1,4.1,0,0,0,2.2-.63,4.86,4.86,0,0,0,1.69-2l5.29,2.7a7.78,7.78,0,0,1-3.42,4A11.15,11.15,0,0,1,239.73,200.34Z"></path><path class="cls-10" d="M263.92,180.18a9.05,9.05,0,0,1,4.1.92,6.71,6.71,0,0,1,2.9,2.83,10,10,0,0,1,1.06,4.93V200h-6.84V190a4.56,4.56,0,0,0-.84-3,3,3,0,0,0-2.36-1,4,4,0,0,0-2,.49,3.34,3.34,0,0,0-1.41,1.49,6,6,0,0,0-.5,2.63V200h-6.84V173.31h6.84v12.74l-1.58-1.62a7.41,7.41,0,0,1,3.06-3.18A9,9,0,0,1,263.92,180.18Z"></path><path class="cls-10" d="M281.74,200.85l-8.6-20.34h7l6.34,15.77Zm-2.67,6.48a10.24,10.24,0,0,1-3.11-.49,7.46,7.46,0,0,1-2.54-1.28l2.38-4.78a4.49,4.49,0,0,0,1.42.84,4.37,4.37,0,0,0,1.6.31,2.8,2.8,0,0,0,1.77-.51,3.88,3.88,0,0,0,1.11-1.58l.9-2.27.54-.68,6.63-16.38h6.51l-8.42,20.3a12.73,12.73,0,0,1-2.32,3.94,7.33,7.33,0,0,1-2.92,2A10.29,10.29,0,0,1,279.07,207.33Z"></path><path class="cls-10" d="M297.54,186.41l2.7-9.36,1,3.89a4.17,4.17,0,0,1-2.95-1.06,3.69,3.69,0,0,1-1.15-2.86,3.83,3.83,0,0,1,1.17-2.94,4.13,4.13,0,0,1,2.93-1.1,4.07,4.07,0,0,1,2.92,1.1,3.86,3.86,0,0,1,1.15,2.94,7.19,7.19,0,0,1-.07,1,6.9,6.9,0,0,1-.31,1.23c-.15.46-.41,1.09-.77,1.89l-2.3,5.25Z"></path><path class="cls-10" d="M314.71,200.34a20.54,20.54,0,0,1-4.84-.57,14.27,14.27,0,0,1-3.8-1.44l2.06-4.68a12.11,12.11,0,0,0,3.2,1.31,13.74,13.74,0,0,0,3.6.49,5.5,5.5,0,0,0,2.39-.36,1.09,1.09,0,0,0,.67-1,.89.89,0,0,0-.63-.85,6.36,6.36,0,0,0-1.66-.41l-2.25-.33q-1.21-.18-2.46-.48a8,8,0,0,1-2.27-.94,4.72,4.72,0,0,1-1.64-1.71,5.94,5.94,0,0,1,.49-6.07,7.22,7.22,0,0,1,3.22-2.3,14.11,14.11,0,0,1,5.18-.85,21.2,21.2,0,0,1,4.16.42,11.45,11.45,0,0,1,3.55,1.24l-2.05,4.64a9.84,9.84,0,0,0-2.88-1.13A13.54,13.54,0,0,0,316,185a5.38,5.38,0,0,0-2.43.4,1.13,1.13,0,0,0-.7,1,.94.94,0,0,0,.61.88,5.57,5.57,0,0,0,1.64.47q1,.17,2.25.33a19.76,19.76,0,0,1,2.46.48,8.39,8.39,0,0,1,2.27,1,4.66,4.66,0,0,1,1.64,1.69,5.37,5.37,0,0,1,.61,2.72,5.16,5.16,0,0,1-1.1,3.24,7.46,7.46,0,0,1-3.24,2.3A14.12,14.12,0,0,1,314.71,200.34Z"></path><path class="cls-11" d="M591,200.52q-5.58,0-8.72-3.06c-2.08-2-3.13-4.93-3.13-8.67v-14h7.13v13.75c0,2.16.43,3.71,1.28,4.65a4.52,4.52,0,0,0,3.51,1.4,4.46,4.46,0,0,0,3.49-1.4q1.26-1.41,1.26-4.65V174.82h7v14q0,5.61-3.13,8.67T591,200.52Z"></path><path class="cls-11" d="M607.45,200v-25.2H619a14.43,14.43,0,0,1,5.95,1.12,8.62,8.62,0,0,1,3.87,3.22,8.94,8.94,0,0,1,1.37,5,8.38,8.38,0,0,1-5.24,8.09,14.77,14.77,0,0,1-5.95,1.09h-7.57l3.17-3V200Zm7.13-8.93-3.17-3.27h7.13a4.89,4.89,0,0,0,3.33-1,3.4,3.4,0,0,0,1.1-2.7,3.47,3.47,0,0,0-1.1-2.73,4.89,4.89,0,0,0-3.33-1h-7.13l3.17-3.28ZM623,200l-6.26-9.18h7.59l6.3,9.18Z"></path><path class="cls-11" d="M646.48,200.52a15.56,15.56,0,0,1-5.53-1,12.9,12.9,0,0,1-4.39-2.72,12.57,12.57,0,0,1-2.9-4.16,13.87,13.87,0,0,1,0-10.54,12.57,12.57,0,0,1,2.9-4.16,12.9,12.9,0,0,1,4.39-2.72,15.56,15.56,0,0,1,5.53-1,15.19,15.19,0,0,1,6.25,1.22,12,12,0,0,1,4.58,3.53l-4.53,4.1A8.92,8.92,0,0,0,650.1,181a6.93,6.93,0,0,0-3.26-.76,8,8,0,0,0-2.85.5,6.23,6.23,0,0,0-2.21,1.46,7,7,0,0,0-1.44,2.29,8.63,8.63,0,0,0,0,5.9,7,7,0,0,0,1.44,2.29,6.23,6.23,0,0,0,2.21,1.46,8,8,0,0,0,2.85.5,6.93,6.93,0,0,0,3.26-.76,8.92,8.92,0,0,0,2.68-2.19l4.53,4.1a12.36,12.36,0,0,1-4.58,3.51A15,15,0,0,1,646.48,200.52Z"></path><path class="cls-11" d="M670.6,200v-25.2h5.87L686.91,192h-3.1L694,174.82h5.87l.07,25.2h-6.55l-.07-15.23h1.11l-7.59,12.75h-3.17l-7.81-12.75h1.37V200Z"></path><path class="cls-11" d="M710.59,200.34a8.93,8.93,0,0,1-4-.79,5.79,5.79,0,0,1-2.46-2.16,5.64,5.64,0,0,1-.85-3.06,5.29,5.29,0,0,1,.92-3.11,5.69,5.69,0,0,1,2.83-2,14.44,14.44,0,0,1,4.93-.7h4.61v3.56h-3.68a3.78,3.78,0,0,0-2.32.54A1.77,1.77,0,0,0,710,194a1.73,1.73,0,0,0,.68,1.44,3,3,0,0,0,1.87.54,3.9,3.9,0,0,0,2-.55,3.34,3.34,0,0,0,1.35-1.71l.93,2.52a5.07,5.07,0,0,1-2.1,3A7.47,7.47,0,0,1,710.59,200.34Zm5.76-.32v-3.64l-.46-.9v-6.69a3.16,3.16,0,0,0-1-2.5,4.67,4.67,0,0,0-3.15-.89,9.52,9.52,0,0,0-2.85.45,7.64,7.64,0,0,0-2.45,1.25l-2.3-4.65a13,13,0,0,1,4-1.67,18.43,18.43,0,0,1,4.62-.6q4.75,0,7.37,2.18c1.74,1.45,2.61,3.73,2.61,6.82V200Z"></path><path class="cls-11" d="M726.87,200V173.31h6.84V200Z"></path><path class="cls-11" d="M744.11,200.34a8.93,8.93,0,0,1-4-.79,5.88,5.88,0,0,1-2.47-2.16,5.72,5.72,0,0,1-.84-3.06,5.22,5.22,0,0,1,.92-3.11,5.7,5.7,0,0,1,2.82-2,14.48,14.48,0,0,1,4.93-.7h4.61v3.56h-3.67a3.76,3.76,0,0,0-2.32.54,1.86,1.86,0,0,0,0,2.88A2.93,2.93,0,0,0,746,196a3.84,3.84,0,0,0,2-.55,3.34,3.34,0,0,0,1.35-1.71l.94,2.52a5,5,0,0,1-2.11,3A7.44,7.44,0,0,1,744.11,200.34Zm5.76-.32v-3.64l-.47-.9v-6.69a3.16,3.16,0,0,0-1-2.5,4.65,4.65,0,0,0-3.15-.89,9.45,9.45,0,0,0-2.84.45A7.54,7.54,0,0,0,740,187.1l-2.3-4.65a13.08,13.08,0,0,1,4-1.67,18.45,18.45,0,0,1,4.63-.6q4.76,0,7.36,2.18c1.74,1.45,2.61,3.73,2.61,6.82V200Z"></path><path class="cls-11" d="M766,200.85l-8.6-20.34h7l6.33,15.77Zm-2.66,6.48a10.35,10.35,0,0,1-3.12-.49,7.32,7.32,0,0,1-2.53-1.28l2.37-4.78a4.6,4.6,0,0,0,1.42.84,4.46,4.46,0,0,0,1.61.31,2.77,2.77,0,0,0,1.76-.51,4,4,0,0,0,1.12-1.58l.9-2.27.54-.68,6.62-16.38h6.52l-8.43,20.3a12.53,12.53,0,0,1-2.32,3.94,7.33,7.33,0,0,1-2.92,2A10.23,10.23,0,0,1,763.37,207.33Z"></path><path class="cls-11" d="M788.93,200.34a20.48,20.48,0,0,1-4.84-.57,14.27,14.27,0,0,1-3.8-1.44l2.05-4.68a12,12,0,0,0,3.21,1.31,13.74,13.74,0,0,0,3.6.49,5.53,5.53,0,0,0,2.39-.36,1.1,1.1,0,0,0,.67-1,.9.9,0,0,0-.64-.85,6.38,6.38,0,0,0-1.65-.41l-2.25-.33c-.82-.12-1.64-.28-2.47-.48a8.11,8.11,0,0,1-2.26-.94,4.64,4.64,0,0,1-1.64-1.71,6,6,0,0,1,.48-6.07A7.33,7.33,0,0,1,785,181a14.17,14.17,0,0,1,5.19-.85,21.27,21.27,0,0,1,4.16.42,11.48,11.48,0,0,1,3.54,1.24l-2,4.64a9.84,9.84,0,0,0-2.88-1.13,13.45,13.45,0,0,0-2.73-.31,5.32,5.32,0,0,0-2.43.4,1.14,1.14,0,0,0-.71,1,1,1,0,0,0,.62.88,5.49,5.49,0,0,0,1.63.47l2.25.33a19.91,19.91,0,0,1,2.47.48,8.52,8.52,0,0,1,2.27,1,4.75,4.75,0,0,1,1.64,1.69,5.48,5.48,0,0,1,.61,2.72,5.22,5.22,0,0,1-1.1,3.24,7.46,7.46,0,0,1-3.24,2.3A14.2,14.2,0,0,1,788.93,200.34Z"></path><path class="cls-11" d="M804.77,178.35a4.33,4.33,0,0,1-3-1,3.49,3.49,0,0,1,0-5.18,4.32,4.32,0,0,1,3-1,4.47,4.47,0,0,1,3,1,3.17,3.17,0,0,1,1.15,2.53,3.52,3.52,0,0,1-1.13,2.69A4.29,4.29,0,0,1,804.77,178.35ZM801.35,200V180.51h6.84V200Z"></path><path class="cls-11" d="M818.59,200.34a8.93,8.93,0,0,1-4-.79,5.79,5.79,0,0,1-2.46-2.16,5.64,5.64,0,0,1-.85-3.06,5.29,5.29,0,0,1,.92-3.11,5.7,5.7,0,0,1,2.82-2,14.54,14.54,0,0,1,4.94-.7h4.6v3.56h-3.67a3.76,3.76,0,0,0-2.32.54,1.77,1.77,0,0,0-.67,1.44,1.74,1.74,0,0,0,.69,1.44,2.93,2.93,0,0,0,1.87.54,3.84,3.84,0,0,0,2-.55,3.24,3.24,0,0,0,1.35-1.71l.94,2.52a5,5,0,0,1-2.11,3A7.42,7.42,0,0,1,818.59,200.34Zm5.76-.32v-3.64l-.47-.9v-6.69a3.16,3.16,0,0,0-1-2.5,4.65,4.65,0,0,0-3.15-.89,9.5,9.5,0,0,0-2.84.45,7.54,7.54,0,0,0-2.45,1.25l-2.3-4.65a13,13,0,0,1,4-1.67,18.37,18.37,0,0,1,4.62-.6q4.75,0,7.36,2.18c1.74,1.45,2.61,3.73,2.61,6.82V200Z"></path><path class="cls-11" d="M30.66,278.67v-18L33.1,263H26.94v-4.37h9.39v20Z"></path><path class="cls-11" d="M48,279.07a8.2,8.2,0,0,1-7.69-4.78,14.41,14.41,0,0,1,0-11.28,8.49,8.49,0,0,1,15.36,0,14.41,14.41,0,0,1,0,11.28A8.2,8.2,0,0,1,48,279.07Zm0-4.64a2.48,2.48,0,0,0,1.62-.57,3.71,3.71,0,0,0,1.1-1.85,14.4,14.4,0,0,0,0-6.74,3.69,3.69,0,0,0-1.1-1.83,2.57,2.57,0,0,0-3.23,0,3.85,3.85,0,0,0-1.12,1.83,14.05,14.05,0,0,0,0,6.74,3.88,3.88,0,0,0,1.12,1.85A2.48,2.48,0,0,0,48,274.43Z"></path><path class="cls-11" d="M67.49,279.07a8.2,8.2,0,0,1-7.69-4.78,14.41,14.41,0,0,1,0-11.28,8.49,8.49,0,0,1,15.36,0,14.41,14.41,0,0,1,0,11.28,8.2,8.2,0,0,1-7.67,4.78Zm0-4.64a2.5,2.5,0,0,0,1.62-.57,3.71,3.71,0,0,0,1.1-1.85,14.4,14.4,0,0,0,0-6.74,3.69,3.69,0,0,0-1.1-1.83,2.5,2.5,0,0,0-1.62-.57,2.46,2.46,0,0,0-1.61.57,3.85,3.85,0,0,0-1.12,1.83,14.05,14.05,0,0,0,0,6.74,3.88,3.88,0,0,0,1.12,1.85A2.46,2.46,0,0,0,67.49,274.43Z"></path><path class="cls-11" d="M82.89,269.48a5.27,5.27,0,0,1-2.63-.66,4.54,4.54,0,0,1-1.83-1.9,6.32,6.32,0,0,1-.66-3,6.25,6.25,0,0,1,.66-3,4.65,4.65,0,0,1,1.83-1.9,5.54,5.54,0,0,1,5.28,0,4.85,4.85,0,0,1,1.83,1.9,6.13,6.13,0,0,1,.67,3,6.24,6.24,0,0,1-.67,3,4.75,4.75,0,0,1-1.83,1.91A5.29,5.29,0,0,1,82.89,269.48Zm-1.83,9.19,13.68-20h4.12l-13.68,20Zm1.86-11.91a1.42,1.42,0,0,0,1.19-.66,3.83,3.83,0,0,0,.47-2.17,3.89,3.89,0,0,0-.47-2.18,1.43,1.43,0,0,0-1.19-.65,1.51,1.51,0,0,0-1.22.65,3.7,3.7,0,0,0-.5,2.18,3.65,3.65,0,0,0,.5,2.17A1.5,1.5,0,0,0,82.92,266.76ZM97,278.92a5.34,5.34,0,0,1-2.65-.65,4.66,4.66,0,0,1-1.82-1.91,6.29,6.29,0,0,1-.66-3,6.2,6.2,0,0,1,.66-3,4.79,4.79,0,0,1,1.82-1.91,5.56,5.56,0,0,1,5.29,0,4.83,4.83,0,0,1,1.84,1.91,6.21,6.21,0,0,1,.67,3,6.29,6.29,0,0,1-.67,3,4.71,4.71,0,0,1-1.84,1.91A5.32,5.32,0,0,1,97,278.92Zm0-2.71a1.46,1.46,0,0,0,1.2-.66,5.07,5.07,0,0,0,0-4.35,1.41,1.41,0,0,0-2.39,0,5,5,0,0,0,0,4.35A1.46,1.46,0,0,0,97,276.21Z"></path><path class="cls-11" d="M112.85,278.67v-20H123.1q3.95,0,5.89,1.44a4.5,4.5,0,0,1,1.95,3.79,4.64,4.64,0,0,1-.82,2.71,5.55,5.55,0,0,1-2.29,1.83,8.34,8.34,0,0,1-3.5.67l.57-1.37a9.7,9.7,0,0,1,3.69.64,5.53,5.53,0,0,1,2.45,1.86,5,5,0,0,1,.87,3,4.63,4.63,0,0,1-2.1,4.05,10.88,10.88,0,0,1-6.14,1.45Zm5.61-4.1h4.75a4,4,0,0,0,2.22-.5,1.71,1.71,0,0,0,.76-1.53,1.73,1.73,0,0,0-.76-1.53,4.1,4.1,0,0,0-2.22-.5h-5.15v-3.92h4.29a3.8,3.8,0,0,0,2.15-.49,1.63,1.63,0,0,0,.71-1.46,1.6,1.6,0,0,0-.71-1.44,3.9,3.9,0,0,0-2.15-.47h-3.89Z"></path><path class="cls-11" d="M137.18,261.44a3.46,3.46,0,0,1-2.41-.83,2.79,2.79,0,0,1,0-4.12,3.41,3.41,0,0,1,2.41-.83,3.53,3.53,0,0,1,2.4.79,2.52,2.52,0,0,1,.91,2,2.82,2.82,0,0,1-.9,2.14A3.38,3.38,0,0,1,137.18,261.44Zm-2.72,17.23V263.16h5.43v15.51Z"></path><path class="cls-11" d="M148.91,278.92a16.42,16.42,0,0,1-3.85-.45,11,11,0,0,1-3-1.15l1.63-3.72a9.72,9.72,0,0,0,2.55,1,11.48,11.48,0,0,0,2.86.38,4.39,4.39,0,0,0,1.9-.28.85.85,0,0,0,.53-.78.7.7,0,0,0-.5-.67,5.52,5.52,0,0,0-1.31-.33l-1.79-.26a19.35,19.35,0,0,1-2-.38,6.18,6.18,0,0,1-1.81-.75,3.74,3.74,0,0,1-1.3-1.35,4.45,4.45,0,0,1-.48-2.18,4.32,4.32,0,0,1,.87-2.65,5.78,5.78,0,0,1,2.56-1.83,11.11,11.11,0,0,1,4.12-.67,17.12,17.12,0,0,1,3.31.33,9.16,9.16,0,0,1,2.81,1l-1.63,3.69a7.68,7.68,0,0,0-2.29-.9,9.91,9.91,0,0,0-2.17-.25,4.19,4.19,0,0,0-1.93.32.9.9,0,0,0-.56.77.76.76,0,0,0,.49.7,4.33,4.33,0,0,0,1.3.37c.54.09,1.14.17,1.79.26a15.79,15.79,0,0,1,2,.39,6.84,6.84,0,0,1,1.8.75,3.82,3.82,0,0,1,1.3,1.35,4.32,4.32,0,0,1,.49,2.16,4.13,4.13,0,0,1-.88,2.58,6,6,0,0,1-2.57,1.83A11.31,11.31,0,0,1,148.91,278.92Z"></path><path class="cls-11" d="M166.71,278.92a10,10,0,0,1-4.6-1,7.91,7.91,0,0,1-3.16-2.84,8.16,8.16,0,0,1,0-8.32,7.93,7.93,0,0,1,3.16-2.82,10.2,10.2,0,0,1,4.6-1,8.85,8.85,0,0,1,4.55,1.12,6.18,6.18,0,0,1,2.72,3.14l-4.21,2.15a3.78,3.78,0,0,0-1.35-1.59,3.23,3.23,0,0,0-1.74-.5,3.46,3.46,0,0,0-1.72.43,3,3,0,0,0-1.21,1.24,4.09,4.09,0,0,0-.45,2,4.2,4.2,0,0,0,.45,2,3,3,0,0,0,1.21,1.26,3.46,3.46,0,0,0,1.72.43,3.15,3.15,0,0,0,1.74-.5,3.72,3.72,0,0,0,1.35-1.59l4.21,2.15a6.2,6.2,0,0,1-2.72,3.15A8.94,8.94,0,0,1,166.71,278.92Z"></path><path class="cls-11" d="M182.42,278.92a7.47,7.47,0,0,1-3.39-.74,5.29,5.29,0,0,1-2.35-2.33,8.56,8.56,0,0,1-.84-4v-8.67h5.43v7.78a3.93,3.93,0,0,0,.68,2.58,2.38,2.38,0,0,0,1.9.77,3,3,0,0,0,1.46-.37,2.7,2.7,0,0,0,1.06-1.19,4.91,4.91,0,0,0,.4-2.1v-7.47h5.44v15.51H187v-4.38l1,1.23a5.53,5.53,0,0,1-2.32,2.56A6.68,6.68,0,0,1,182.42,278.92Z"></path><path class="cls-11" d="M198.27,261.44a3.45,3.45,0,0,1-2.4-.83,2.77,2.77,0,0,1,0-4.12,3.4,3.4,0,0,1,2.4-.83,3.57,3.57,0,0,1,2.41.79,2.52,2.52,0,0,1,.91,2,2.82,2.82,0,0,1-.9,2.14A3.41,3.41,0,0,1,198.27,261.44Zm-2.72,17.23V263.16H201v15.51Z"></path><path class="cls-11" d="M202.74,267.79v-4.06H214v4.06Zm8.55,11.13a6.74,6.74,0,0,1-4.63-1.47A5.64,5.64,0,0,1,205,273V259.69h5.43v13.25a1.83,1.83,0,0,0,.46,1.31,1.59,1.59,0,0,0,1.17.47,2.79,2.79,0,0,0,1.67-.49l1.34,3.81a4.9,4.9,0,0,1-1.69.67A10.15,10.15,0,0,1,211.29,278.92Z"></path><path class="cls-11" d="M222.65,278.92a16.48,16.48,0,0,1-3.85-.45,11.08,11.08,0,0,1-3-1.15l1.63-3.72a9.65,9.65,0,0,0,2.54,1,11.54,11.54,0,0,0,2.86.38,4.48,4.48,0,0,0,1.91-.28.87.87,0,0,0,.53-.78.71.71,0,0,0-.5-.67,5.75,5.75,0,0,0-1.32-.33l-1.79-.26a19.9,19.9,0,0,1-2-.38,6,6,0,0,1-1.8-.75,3.59,3.59,0,0,1-1.3-1.35,4.73,4.73,0,0,1,.38-4.83,5.89,5.89,0,0,1,2.56-1.83,11.15,11.15,0,0,1,4.12-.67,17.12,17.12,0,0,1,3.31.33,9.13,9.13,0,0,1,2.82,1l-1.63,3.69a7.89,7.89,0,0,0-2.29-.9,10,10,0,0,0-2.18-.25,4.22,4.22,0,0,0-1.93.32.9.9,0,0,0-.56.77.77.77,0,0,0,.49.7,4.42,4.42,0,0,0,1.3.37c.55.09,1.14.17,1.79.26a15.44,15.44,0,0,1,2,.39,6.57,6.57,0,0,1,1.8.75,3.85,3.85,0,0,1,1.31,1.35,4.32,4.32,0,0,1,.48,2.16,4.18,4.18,0,0,1-.87,2.58,6,6,0,0,1-2.58,1.83A11.27,11.27,0,0,1,222.65,278.92Z"></path><path class="cls-12" d="M87.82,317.93l.52-3.71H85.66v-1.69h2.91l.52-3.75H86.44v-1.69h2.88l.55-3.72h1.69L91,307.09h3l.55-3.72h1.69l-.55,3.72h2.7v1.69H95.49L95,312.53h2.67v1.69H94.73l-.52,3.71H92.52l.52-3.71H90l-.52,3.71Zm2.44-5.4h3l.52-3.75h-3Z"></path><path class="cls-12" d="M106.74,318.58V303.24H103.1v-1.87h5.59v17.21Z"></path><path class="cls-12" d="M121,303.4v-2.55h2.11v2.55Zm.08,15.18v-13h1.95v13Z"></path><path class="cls-12" d="M126.45,318.58v-13h2v2a6.5,6.5,0,0,1,1.72-1.58,4.66,4.66,0,0,1,2.6-.65,5.3,5.3,0,0,1,2.53.63,5,5,0,0,1,1.93,1.9,6.09,6.09,0,0,1,.74,3.11v7.56H136v-7.51a4,4,0,0,0-1-2.85,3.42,3.42,0,0,0-2.62-1.08,4,4,0,0,0-2,.5,3.79,3.79,0,0,0-1.42,1.39,4,4,0,0,0-.53,2.07v7.48Z"></path><path class="cls-12" d="M154.77,318.79a9.19,9.19,0,0,1-3.57-.67,8.25,8.25,0,0,1-2.77-1.9,8.82,8.82,0,0,1-1.78-2.82A9.48,9.48,0,0,1,146,310a9.38,9.38,0,0,1,.62-3.43,8.67,8.67,0,0,1,1.78-2.81,8.1,8.1,0,0,1,2.77-1.9,9.69,9.69,0,0,1,7.13,0,8.1,8.1,0,0,1,2.77,1.9,8.67,8.67,0,0,1,1.78,2.81,9.38,9.38,0,0,1,.62,3.43,9.48,9.48,0,0,1-.62,3.42,8.82,8.82,0,0,1-1.78,2.82,8.25,8.25,0,0,1-2.77,1.9A9.18,9.18,0,0,1,154.77,318.79Zm0-1.9a6.79,6.79,0,0,0,3.62-.92,6.16,6.16,0,0,0,2.34-2.49,7.9,7.9,0,0,0,0-7,6.23,6.23,0,0,0-2.34-2.49,7.58,7.58,0,0,0-7.24,0,6.25,6.25,0,0,0-2.35,2.49,7.9,7.9,0,0,0,0,7,6.19,6.19,0,0,0,2.35,2.49A6.84,6.84,0,0,0,154.77,316.89Z"></path><path class="cls-12" d="M171.69,318.79a6,6,0,0,1-3.31-.9,6,6,0,0,1-2.2-2.43,7.74,7.74,0,0,1,0-6.77,6,6,0,0,1,5.51-3.31,5.7,5.7,0,0,1,2.77.62,5.39,5.39,0,0,1,1.89,1.69v-2.11h2v13h-2V316.5a5.44,5.44,0,0,1-1.89,1.67A5.81,5.81,0,0,1,171.69,318.79ZM172,317a4.11,4.11,0,0,0,4-2.48,6.1,6.1,0,0,0,0-4.93,4.17,4.17,0,0,0-4-2.47,4.33,4.33,0,0,0-4,2.47,5.8,5.8,0,0,0,0,4.93,4.28,4.28,0,0,0,4,2.48Z"></path><path class="cls-12" d="M183.08,318.58V307.3h-2.65v-1.72h2.65v-4.65H185v4.65h3v1.72h-3v11.28Z"></path><path class="cls-12" d="M196.11,318.58V301.37h7.72a6.37,6.37,0,0,1,3.21.7,4.27,4.27,0,0,1,1.7,1.76,4.64,4.64,0,0,1,.52,2.09,4.06,4.06,0,0,1-.7,2.56A4.44,4.44,0,0,1,207,309.8a5.64,5.64,0,0,1,1.47.74,4.06,4.06,0,0,1,1.23,1.36,4.26,4.26,0,0,1,.5,2.16,4.15,4.15,0,0,1-1.47,3.22,6.47,6.47,0,0,1-4.41,1.3Zm1.95-9.51h5.77a4.79,4.79,0,0,0,1.7-.31,2.93,2.93,0,0,0,1.29-1,2.76,2.76,0,0,0,.49-1.7,3.11,3.11,0,0,0-.32-1.38,2.67,2.67,0,0,0-1-1.07,3.89,3.89,0,0,0-1.91-.41h-6Zm0,7.67h6.42a4.46,4.46,0,0,0,2.74-.74,2.48,2.48,0,0,0,1-2.1,2.92,2.92,0,0,0-.93-2.14,4.1,4.1,0,0,0-3-.92h-6.21Z"></path><path class="cls-12" d="M218.39,318.79a6,6,0,0,1-5.52-3.33,7.74,7.74,0,0,1,0-6.77,6.26,6.26,0,0,1,2.2-2.42,6.15,6.15,0,0,1,3.32-.89,5.68,5.68,0,0,1,2.76.62,5.23,5.23,0,0,1,1.89,1.69v-2.11h2v13h-2V316.5a5.27,5.27,0,0,1-1.89,1.67A5.8,5.8,0,0,1,218.39,318.79Zm.26-1.77a4.11,4.11,0,0,0,4-2.48,6,6,0,0,0,0-4.93,4.16,4.16,0,0,0-4-2.47,4.42,4.42,0,0,0-2.47.68,4.36,4.36,0,0,0-1.59,1.79,5.8,5.8,0,0,0,0,4.93,4.35,4.35,0,0,0,1.59,1.81A4.41,4.41,0,0,0,218.65,317Z"></path><path class="cls-12" d="M233.1,318.79a6.94,6.94,0,0,1-3-.6,4.53,4.53,0,0,1-1.88-1.57,4.19,4.19,0,0,1-.73-2.12h2a3,3,0,0,0,.45,1.26,2.66,2.66,0,0,0,1.16,1,4.71,4.71,0,0,0,2,.38,7.7,7.7,0,0,0,1-.08,4.78,4.78,0,0,0,1.11-.29,2.14,2.14,0,0,0,.89-.62,1.58,1.58,0,0,0,.37-1.07,1.43,1.43,0,0,0-.63-1.24,4.52,4.52,0,0,0-1.61-.69c-.66-.17-1.36-.33-2.09-.48A13.5,13.5,0,0,1,230,312a4.16,4.16,0,0,1-1.61-1.06,2.74,2.74,0,0,1-.62-1.89,3.26,3.26,0,0,1,1.28-2.74,7.84,7.84,0,0,1,6.61-.44,4.14,4.14,0,0,1,1.64,1.36,4,4,0,0,1,.66,1.8h-2a2.19,2.19,0,0,0-.81-1.43,3.69,3.69,0,0,0-2.36-.6c-2.06,0-3.09.62-3.09,1.87a1.37,1.37,0,0,0,.62,1.2,5,5,0,0,0,1.61.66c.66.17,1.36.32,2.1.47a12.64,12.64,0,0,1,2.09.61,4.09,4.09,0,0,1,1.61,1.1,2.85,2.85,0,0,1,.63,1.94,3.3,3.3,0,0,1-1.45,2.9A6.64,6.64,0,0,1,233.1,318.79Z"></path><path class="cls-12" d="M246.67,318.79a6.5,6.5,0,0,1-3.45-.9,6.14,6.14,0,0,1-2.31-2.43,7.12,7.12,0,0,1-.81-3.38,7.33,7.33,0,0,1,.78-3.39,6,6,0,0,1,2.23-2.42,7.09,7.09,0,0,1,6.88,0,6.09,6.09,0,0,1,2.22,2.42,7.33,7.33,0,0,1,.78,3.39v.78H242.1a5.28,5.28,0,0,0,.74,2.1,4.27,4.27,0,0,0,1.57,1.5,4.49,4.49,0,0,0,2.29.56,4.1,4.1,0,0,0,2.31-.61,4.23,4.23,0,0,0,1.46-1.57h2.13a6.39,6.39,0,0,1-2.14,2.85A6.17,6.17,0,0,1,246.67,318.79ZM242.12,311H251a4.82,4.82,0,0,0-1.4-2.78,4.6,4.6,0,0,0-6,0A5,5,0,0,0,242.12,311Z"></path><path class="cls-12" d="M260.87,318.79a6,6,0,0,1-3.31-.9,6,6,0,0,1-2.2-2.43,7.74,7.74,0,0,1,0-6.77,6,6,0,0,1,5.51-3.31,5.72,5.72,0,0,1,2.77.62,5.28,5.28,0,0,1,1.88,1.69v-7.31h2v18.2h-2V316.5a5.32,5.32,0,0,1-1.88,1.67A5.84,5.84,0,0,1,260.87,318.79Zm.26-1.77a4.31,4.31,0,0,0,2.46-.67,4.41,4.41,0,0,0,1.52-1.81,6.1,6.1,0,0,0,0-4.93,4.41,4.41,0,0,0-1.52-1.79,4.31,4.31,0,0,0-2.46-.68,4.44,4.44,0,0,0-2.47.68,4.51,4.51,0,0,0-1.59,1.79,5.9,5.9,0,0,0,0,4.93,4.5,4.5,0,0,0,1.59,1.81A4.43,4.43,0,0,0,261.13,317Z"></path><path class="cls-12" d="M283,318.79a10.42,10.42,0,0,1-4.13-.69,5.12,5.12,0,0,1-2.38-1.91,5.89,5.89,0,0,1-.93-2.75h2a3,3,0,0,0,.83,2,4.56,4.56,0,0,0,2,1.13,9.72,9.72,0,0,0,2.72.37,6.7,6.7,0,0,0,3.46-.77,2.49,2.49,0,0,0,1.27-2.28,1.87,1.87,0,0,0-.64-1.47,4.9,4.9,0,0,0-1.69-.92c-.7-.24-1.46-.46-2.3-.66s-1.66-.41-2.51-.64a11.89,11.89,0,0,1-2.31-.86,4.81,4.81,0,0,1-1.69-1.33,3.37,3.37,0,0,1-.64-2.1,4.24,4.24,0,0,1,1.63-3.43,7.56,7.56,0,0,1,4.85-1.33,9,9,0,0,1,3.77.69,5.15,5.15,0,0,1,2.22,1.81,4.87,4.87,0,0,1,.82,2.42h-2a3.25,3.25,0,0,0-1.3-2.2,5.67,5.67,0,0,0-3.51-.9,8.13,8.13,0,0,0-2.37.29,3.63,3.63,0,0,0-1.39.74,2.35,2.35,0,0,0-.65.95,3,3,0,0,0-.17.94,1.72,1.72,0,0,0,.64,1.39,5.15,5.15,0,0,0,1.69.88c.7.23,1.48.45,2.33.64s1.69.4,2.53.63a12.61,12.61,0,0,1,2.31.89,4.83,4.83,0,0,1,1.7,1.36,3.46,3.46,0,0,1,.63,2.14A4.22,4.22,0,0,1,288,317.5,8.5,8.5,0,0,1,283,318.79Z"></path><path class="cls-12" d="M298.15,318.79a6.5,6.5,0,0,1-3.45-.9,6,6,0,0,1-2.3-2.43,7,7,0,0,1-.83-3.38,7.33,7.33,0,0,1,.79-3.39,6,6,0,0,1,2.23-2.42,7.09,7.09,0,0,1,6.88,0,6.09,6.09,0,0,1,2.22,2.42,7.33,7.33,0,0,1,.78,3.39v.78H293.58a5.28,5.28,0,0,0,.74,2.1,4.27,4.27,0,0,0,1.57,1.5,4.49,4.49,0,0,0,2.29.56,4.1,4.1,0,0,0,2.31-.61,4.23,4.23,0,0,0,1.46-1.57h2.13a6.39,6.39,0,0,1-2.14,2.85A6.17,6.17,0,0,1,298.15,318.79ZM293.6,311h8.84a4.82,4.82,0,0,0-1.4-2.78,4.16,4.16,0,0,0-3-1.12,4.11,4.11,0,0,0-3,1.12A5,5,0,0,0,293.6,311Z"></path><path class="cls-12" d="M312.82,323.94a6.9,6.9,0,0,1-4-1.05,5.23,5.23,0,0,1-2.08-2.75h2.16a3,3,0,0,0,1.35,1.5,5.07,5.07,0,0,0,2.44.53,4.43,4.43,0,0,0,3.27-1.05,4.22,4.22,0,0,0,1-3.06v-1.79a5.55,5.55,0,0,1-1.88,1.68,5.72,5.72,0,0,1-2.77.63,6.23,6.23,0,0,1-3.32-.87,5.92,5.92,0,0,1-2.19-2.38,7.63,7.63,0,0,1,0-6.72,6,6,0,0,1,2.19-2.36,6.23,6.23,0,0,1,3.32-.87,5.84,5.84,0,0,1,2.77.61,5,5,0,0,1,1.88,1.67v-2.08H319v12.61a5.52,5.52,0,0,1-1.6,4.27A6.39,6.39,0,0,1,312.82,323.94Zm-.21-7.12a4.41,4.41,0,0,0,2.43-.65,4.22,4.22,0,0,0,1.53-1.76,5.48,5.48,0,0,0,.54-2.43,5.4,5.4,0,0,0-.54-2.44,4.25,4.25,0,0,0-1.53-1.75,4.41,4.41,0,0,0-2.43-.65,4.59,4.59,0,0,0-2.47.65,4.4,4.4,0,0,0-1.59,1.75A5.4,5.4,0,0,0,308,312a5.48,5.48,0,0,0,.54,2.43,4.36,4.36,0,0,0,1.59,1.76A4.59,4.59,0,0,0,312.61,316.82Z"></path><path class="cls-12" d="M322.33,318.58v-13h1.95v2a5,5,0,0,1,1.41-1.48,4.2,4.2,0,0,1,2.54-.7,4.55,4.55,0,0,1,2.41.68,4.73,4.73,0,0,1,1.73,1.94,6.38,6.38,0,0,1,.82-1.06,5,5,0,0,1,1.47-1.1,4.71,4.71,0,0,1,2.18-.46,4.45,4.45,0,0,1,2.34.65,5,5,0,0,1,1.78,1.85,5.67,5.67,0,0,1,.69,2.85v7.85H339.7v-7.8a3.77,3.77,0,0,0-.92-2.64,3,3,0,0,0-2.3-1,3.44,3.44,0,0,0-3.51,3.67v7.77h-2v-7.8a3.73,3.73,0,0,0-.93-2.64,3,3,0,0,0-2.3-1,3.44,3.44,0,0,0-3.51,3.67v7.77Z"></path><path class="cls-12" d="M350.67,318.79a6.5,6.5,0,0,1-3.45-.9,6.14,6.14,0,0,1-2.31-2.43,7.13,7.13,0,0,1-.82-3.38,7.33,7.33,0,0,1,.79-3.39,6,6,0,0,1,2.23-2.42,7.09,7.09,0,0,1,6.88,0,6.09,6.09,0,0,1,2.22,2.42,7.33,7.33,0,0,1,.78,3.39v.78H346.1a5.28,5.28,0,0,0,.74,2.1,4.27,4.27,0,0,0,1.57,1.5,4.49,4.49,0,0,0,2.29.56,4.1,4.1,0,0,0,2.31-.61,4.23,4.23,0,0,0,1.46-1.57h2.13a6.39,6.39,0,0,1-2.14,2.85A6.17,6.17,0,0,1,350.67,318.79ZM346.12,311H355a4.82,4.82,0,0,0-1.4-2.78,4.16,4.16,0,0,0-3-1.12,4.11,4.11,0,0,0-3,1.12A5,5,0,0,0,346.12,311Z"></path><path class="cls-12" d="M359.38,318.58v-13h1.95v2a6.5,6.5,0,0,1,1.72-1.58,4.69,4.69,0,0,1,2.6-.65,5.27,5.27,0,0,1,2.53.63,5,5,0,0,1,1.93,1.9,6.09,6.09,0,0,1,.74,3.11v7.56h-2v-7.51a4,4,0,0,0-1-2.85,3.46,3.46,0,0,0-2.63-1.08,4,4,0,0,0-2,.5,3.69,3.69,0,0,0-1.41,1.39,3.94,3.94,0,0,0-.54,2.07v7.48Z"></path><path class="cls-12" d="M375.19,318.58V307.3h-2.65v-1.72h2.65v-4.65h1.95v4.65h3v1.72h-3v11.28Z"></path><path class="cls-12" d="M87.82,349.13l.52-3.71H85.66v-1.69h2.91l.52-3.75H86.44v-1.69h2.88l.55-3.72h1.69L91,338.29h3l.55-3.72h1.69l-.55,3.72h2.7V340H95.49L95,343.73h2.67v1.69H94.73l-.52,3.71H92.52l.52-3.71H90l-.52,3.71Zm2.44-5.4h3L93.8,340h-3Z"></path><path class="cls-12" d="M106.74,349.78V334.44H103.1v-1.87h5.59v17.21Z"></path><path class="cls-12" d="M121,334.6v-2.55h2.11v2.55Zm.08,15.18v-13h1.95v13Z"></path><path class="cls-12" d="M126.45,349.78v-13h2v2a6.5,6.5,0,0,1,1.72-1.58,4.66,4.66,0,0,1,2.6-.65,5.3,5.3,0,0,1,2.53.63,5,5,0,0,1,1.93,1.9,6.09,6.09,0,0,1,.74,3.11v7.56H136v-7.51a4,4,0,0,0-1-2.85,3.42,3.42,0,0,0-2.62-1.08,4,4,0,0,0-2,.5,3.79,3.79,0,0,0-1.42,1.39,4,4,0,0,0-.53,2.07v7.48Z"></path><path class="cls-12" d="M154.35,350a8.14,8.14,0,0,1-4.45-1.18,7.9,7.9,0,0,1-2.87-3.19,10.38,10.38,0,0,1,0-8.89,7.94,7.94,0,0,1,2.87-3.18,8.15,8.15,0,0,1,4.45-1.19,8.59,8.59,0,0,1,3.51.69,7.82,7.82,0,0,1,2.65,1.89,7.7,7.7,0,0,1,1.64,2.78H160.1A5.43,5.43,0,0,0,158,335.2a6.17,6.17,0,0,0-3.53-.94,6.58,6.58,0,0,0-3.55.92,6,6,0,0,0-2.23,2.49,8.57,8.57,0,0,0,0,7,6,6,0,0,0,2.23,2.49,6.49,6.49,0,0,0,3.55.92,6.24,6.24,0,0,0,3.53-.93,5.53,5.53,0,0,0,2.06-2.52h2.05a7.88,7.88,0,0,1-1.64,2.76,7.71,7.71,0,0,1-2.65,1.9A8.59,8.59,0,0,1,154.35,350Z"></path><path class="cls-12" d="M164.65,349.78v-13h1.95V340a5,5,0,0,1,.4-.9,5.2,5.2,0,0,1,.87-1.13,5,5,0,0,1,1.44-1,4.87,4.87,0,0,1,2.07-.4h.13v1.95h-.24a4,4,0,0,0-2.5.79,5.13,5.13,0,0,0-1.62,2.05,6.61,6.61,0,0,0-.55,2.69v5.72Z"></path><path class="cls-12" d="M179.05,350a6.62,6.62,0,0,1-3.46-.89,6.21,6.21,0,0,1-2.3-2.44,7,7,0,0,1-.82-3.38,7.33,7.33,0,0,1,.78-3.39,6.07,6.07,0,0,1,2.24-2.42,7.07,7.07,0,0,1,6.87,0,6,6,0,0,1,2.23,2.42,7.33,7.33,0,0,1,.78,3.39v.78h-10.9a5.43,5.43,0,0,0,.74,2.1,4.3,4.3,0,0,0,1.58,1.5,4.48,4.48,0,0,0,2.28.56,4.13,4.13,0,0,0,2.32-.61,4.31,4.31,0,0,0,1.46-1.57H185a6.41,6.41,0,0,1-2.15,2.85A6.16,6.16,0,0,1,179.05,350Zm-4.55-7.75h8.84a4.82,4.82,0,0,0-1.4-2.78,4.17,4.17,0,0,0-3-1.12,4.09,4.09,0,0,0-3,1.12A5,5,0,0,0,174.5,342.24Z"></path><path class="cls-12" d="M193.24,350a6.14,6.14,0,0,1-3.31-.89,6,6,0,0,1-2.2-2.44,7.74,7.74,0,0,1,0-6.77,6.11,6.11,0,0,1,2.2-2.42,6.05,6.05,0,0,1,3.31-.89,5.7,5.7,0,0,1,2.77.62,5.31,5.31,0,0,1,1.89,1.69v-2.11h1.95v13H197.9V347.7a5.35,5.35,0,0,1-1.89,1.67A5.81,5.81,0,0,1,193.24,350Zm.27-1.77a4.11,4.11,0,0,0,4-2.48,6.1,6.1,0,0,0,0-4.93,4.16,4.16,0,0,0-4-2.47A4.42,4.42,0,0,0,191,339a4.36,4.36,0,0,0-1.59,1.79,5.8,5.8,0,0,0,0,4.93,4.35,4.35,0,0,0,1.59,1.81A4.41,4.41,0,0,0,193.51,348.22Z"></path><path class="cls-12" d="M203.23,349.78v-13h2v2a4.82,4.82,0,0,1,1.4-1.48,4.21,4.21,0,0,1,2.55-.7,4.47,4.47,0,0,1,2.41.69,4.71,4.71,0,0,1,1.73,1.93,6.81,6.81,0,0,1,.81-1.06,5.33,5.33,0,0,1,1.47-1.1,4.78,4.78,0,0,1,2.19-.46,4.45,4.45,0,0,1,2.34.65,5,5,0,0,1,1.78,1.85,5.67,5.67,0,0,1,.69,2.85v7.85h-2V342a3.69,3.69,0,0,0-.93-2.63,3,3,0,0,0-2.3-1,3.44,3.44,0,0,0-3.51,3.67v7.77h-2V342a3.69,3.69,0,0,0-.92-2.63,3,3,0,0,0-2.3-1,3.47,3.47,0,0,0-2.47,1,3.5,3.5,0,0,0-1,2.7v7.77Z"></path><path class="cls-12" d="M237.91,350a10.46,10.46,0,0,1-4.13-.69,5.17,5.17,0,0,1-2.38-1.91,5.77,5.77,0,0,1-.92-2.75h2a3,3,0,0,0,.84,2,4.45,4.45,0,0,0,2,1.13,9.65,9.65,0,0,0,2.71.37,6.7,6.7,0,0,0,3.46-.77,2.49,2.49,0,0,0,1.27-2.28,1.89,1.89,0,0,0-.63-1.47,5.1,5.1,0,0,0-1.69-.92c-.7-.24-1.47-.46-2.3-.66s-1.67-.41-2.51-.64a12.24,12.24,0,0,1-2.32-.86,4.72,4.72,0,0,1-1.69-1.34,3.31,3.31,0,0,1-.63-2.09,4.23,4.23,0,0,1,1.62-3.43,7.58,7.58,0,0,1,4.85-1.33,8.94,8.94,0,0,1,3.77.69,5.15,5.15,0,0,1,2.22,1.81,4.74,4.74,0,0,1,.82,2.42h-2a3.21,3.21,0,0,0-1.3-2.2,5.63,5.63,0,0,0-3.51-.9,8,8,0,0,0-2.36.29,3.6,3.6,0,0,0-1.4.74,2.45,2.45,0,0,0-.65,1,3,3,0,0,0-.16.94,1.74,1.74,0,0,0,.63,1.39,5.25,5.25,0,0,0,1.69.88c.7.23,1.48.45,2.33.64s1.69.4,2.53.63a12.71,12.71,0,0,1,2.32.89,4.88,4.88,0,0,1,1.69,1.36,3.47,3.47,0,0,1,.64,2.14,4.21,4.21,0,0,1-1.83,3.67A8.47,8.47,0,0,1,237.91,350Z"></path><path class="cls-12" d="M252.81,350a6.11,6.11,0,0,1-3.31-.89,6,6,0,0,1-2.2-2.44,7.74,7.74,0,0,1,0-6.77,6.11,6.11,0,0,1,2.2-2.42,6,6,0,0,1,3.31-.89,5.7,5.7,0,0,1,2.77.62,5.39,5.39,0,0,1,1.89,1.69v-2.11h1.94v13h-1.94V347.7a5.44,5.44,0,0,1-1.89,1.67A5.81,5.81,0,0,1,252.81,350Zm.26-1.77a4.31,4.31,0,0,0,2.46-.67,4.41,4.41,0,0,0,1.52-1.81,6.1,6.1,0,0,0,0-4.93,4.41,4.41,0,0,0-1.52-1.79,4.31,4.31,0,0,0-2.46-.68,4.44,4.44,0,0,0-2.47.68,4.51,4.51,0,0,0-1.59,1.79,5.9,5.9,0,0,0,0,4.93,4.5,4.5,0,0,0,1.59,1.81A4.43,4.43,0,0,0,253.07,348.22Z"></path><path class="cls-12" d="M262.79,349.78v-13h1.95v2a6.5,6.5,0,0,1,1.72-1.58,4.69,4.69,0,0,1,2.6-.65,5.34,5.34,0,0,1,2.54.63,5,5,0,0,1,1.92,1.9,6.09,6.09,0,0,1,.74,3.11v7.56h-1.95v-7.51a4,4,0,0,0-1-2.85,3.46,3.46,0,0,0-2.63-1.08,4,4,0,0,0-2,.5,3.76,3.76,0,0,0-1.41,1.39,3.94,3.94,0,0,0-.54,2.07v7.48Z"></path><path class="cls-12" d="M283,350a5.93,5.93,0,0,1-5.52-3.33,7.74,7.74,0,0,1,0-6.77,6.19,6.19,0,0,1,2.2-2.42,6.06,6.06,0,0,1,3.32-.89,5.75,5.75,0,0,1,2.77.62,5.36,5.36,0,0,1,1.88,1.69v-7.31h2v18.2h-2V347.7a5.41,5.41,0,0,1-1.88,1.67A5.87,5.87,0,0,1,283,350Zm.26-1.77a4.11,4.11,0,0,0,4-2.48,6.1,6.1,0,0,0,0-4.93,4.16,4.16,0,0,0-4-2.47,4.42,4.42,0,0,0-2.47.68,4.36,4.36,0,0,0-1.59,1.79,5.8,5.8,0,0,0,0,4.93,4.35,4.35,0,0,0,1.59,1.81A4.41,4.41,0,0,0,283.26,348.22Z"></path><path class="cls-12" d="M295.5,349.78l-4.08-13h2.08l3.12,10.59,3.3-10.59h2.13l3.31,10.59,3.12-10.59h2.08l-4.09,13h-2.23L301,339.41l-3.25,10.37Z"></path><path class="cls-12" d="M312.3,334.6v-2.55h2.1v2.55Zm.08,15.18v-13h1.95v13Z"></path><path class="cls-12" d="M323.3,350a6.32,6.32,0,0,1-3.39-.89,6.16,6.16,0,0,1-2.22-2.44,7.65,7.65,0,0,1,0-6.77,6,6,0,0,1,5.61-3.31,6.41,6.41,0,0,1,3.93,1.19,5.82,5.82,0,0,1,2.2,3.1h-2.11a3.91,3.91,0,0,0-3.76-2.53,4.51,4.51,0,0,0-4.14,2.47,5.62,5.62,0,0,0,0,4.93,4.45,4.45,0,0,0,4.14,2.48,3.91,3.91,0,0,0,2.35-.7,4,4,0,0,0,1.41-1.82h2.11a5.82,5.82,0,0,1-2.2,3.1A6.48,6.48,0,0,1,323.3,350Z"></path><path class="cls-12" d="M331.85,349.78v-18.2h1.95v7.23a6.62,6.62,0,0,1,1.71-1.58,4.71,4.71,0,0,1,2.6-.65,5.31,5.31,0,0,1,2.54.63,4.93,4.93,0,0,1,1.92,1.9,6,6,0,0,1,.74,3.11v7.56h-1.95v-7.51a4,4,0,0,0-1-2.85,3.44,3.44,0,0,0-2.62-1.08,4,4,0,0,0-2,.5,3.79,3.79,0,0,0-1.42,1.39,4,4,0,0,0-.53,2.07v7.48Z"></path><path class="cls-12" d="M357.41,350a6.92,6.92,0,0,1-3-.65,5.48,5.48,0,0,1-2.21-1.81,4.44,4.44,0,0,1-.84-2.69,4,4,0,0,1,.84-2.48,5,5,0,0,1,2.34-1.68,3.44,3.44,0,0,1-1.19-.71,4.78,4.78,0,0,1-1-1.29,3.34,3.34,0,0,1-.4-1.61,4.37,4.37,0,0,1,1.45-3.35,6,6,0,0,1,4.27-1.36,6.84,6.84,0,0,1,2.91.54,4.36,4.36,0,0,1,1.75,1.35,4.2,4.2,0,0,1,.8,1.7h-2.06a2.46,2.46,0,0,0-1.05-1.22,4.19,4.19,0,0,0-2.41-.6,3.94,3.94,0,0,0-2.82.87,2.84,2.84,0,0,0-.89,2.1,2.41,2.41,0,0,0,1,2.15,4.07,4.07,0,0,0,2.37.71h4.18v-1.15h1.82V340H365v1.74h-1.69V345a4.61,4.61,0,0,1-1.56,3.6A6.24,6.24,0,0,1,357.41,350Zm0-1.74a4.3,4.3,0,0,0,3-.95,2.88,2.88,0,0,0,1-2.14V341.7H357a4.13,4.13,0,0,0-1.93.44,3.33,3.33,0,0,0-1.32,1.16,2.86,2.86,0,0,0-.47,1.6,2.94,2.94,0,0,0,.51,1.65,3.68,3.68,0,0,0,1.43,1.23A4.73,4.73,0,0,0,357.41,348.25Z"></path><path class="cls-12" d="M93.82,381.19A8.11,8.11,0,0,1,89.38,380a7.85,7.85,0,0,1-2.88-3.19,10.38,10.38,0,0,1,0-8.89,7.89,7.89,0,0,1,2.88-3.18,8.11,8.11,0,0,1,4.44-1.19,8.59,8.59,0,0,1,3.51.69,7.81,7.81,0,0,1,4.29,4.67H99.57a5.37,5.37,0,0,0-2.06-2.52,6.17,6.17,0,0,0-3.53-.94,6.58,6.58,0,0,0-3.55.92,5.94,5.94,0,0,0-2.22,2.49,8.44,8.44,0,0,0,0,7,5.85,5.85,0,0,0,2.22,2.5,6.49,6.49,0,0,0,3.55.92,6.24,6.24,0,0,0,3.53-.93,5.47,5.47,0,0,0,2.06-2.52h2.05A7.88,7.88,0,0,1,100,378.6a7.61,7.61,0,0,1-2.65,1.9A8.59,8.59,0,0,1,93.82,381.19Z"></path><path class="cls-12" d="M104.12,381v-18.2h1.95V370a6.62,6.62,0,0,1,1.71-1.58,4.71,4.71,0,0,1,2.6-.65,5.34,5.34,0,0,1,2.54.63,4.93,4.93,0,0,1,1.92,1.9,6,6,0,0,1,.74,3.11V381h-2v-7.51a4,4,0,0,0-1-2.85,3.45,3.45,0,0,0-2.63-1.08,4,4,0,0,0-2,.5,3.79,3.79,0,0,0-1.42,1.39,3.94,3.94,0,0,0-.53,2.07V381Z"></path><path class="cls-12" d="M124.48,381.19a6.42,6.42,0,0,1-3.44-.9,5.88,5.88,0,0,1-2.23-2.43,7.74,7.74,0,0,1,0-6.77,6,6,0,0,1,2.23-2.42,7.09,7.09,0,0,1,6.88,0,6.09,6.09,0,0,1,2.22,2.42,7.74,7.74,0,0,1,0,6.77,5.93,5.93,0,0,1-2.22,2.43A6.37,6.37,0,0,1,124.48,381.19Zm0-1.77a4.11,4.11,0,0,0,4-2.48,6.1,6.1,0,0,0,0-4.93,4.16,4.16,0,0,0-4-2.47,4.19,4.19,0,0,0-4,2.47,6.1,6.1,0,0,0,0,4.93,4.14,4.14,0,0,0,4,2.48Z"></path><path class="cls-12" d="M139.09,381.19a6.2,6.2,0,0,1-3.38-.9,6,6,0,0,1-2.23-2.43,7.65,7.65,0,0,1,0-6.77,6,6,0,0,1,5.61-3.31A6.46,6.46,0,0,1,143,369a5.85,5.85,0,0,1,2.19,3.1h-2.1a4,4,0,0,0-1.42-1.82,3.9,3.9,0,0,0-2.35-.71,4.51,4.51,0,0,0-4.14,2.47,5.62,5.62,0,0,0,0,4.93,4.45,4.45,0,0,0,4.14,2.48,3.89,3.89,0,0,0,2.35-.7,4,4,0,0,0,1.42-1.82h2.1A5.85,5.85,0,0,1,143,380,6.53,6.53,0,0,1,139.09,381.19Z"></path><path class="cls-12" d="M153.28,381.19a6.4,6.4,0,0,1-3.43-.9,5.88,5.88,0,0,1-2.23-2.43,7.65,7.65,0,0,1,0-6.77,6,6,0,0,1,2.23-2.42,7.09,7.09,0,0,1,6.88,0,6.09,6.09,0,0,1,2.22,2.42,7.74,7.74,0,0,1,0,6.77,5.93,5.93,0,0,1-2.22,2.43A6.38,6.38,0,0,1,153.28,381.19Zm0-1.77a4.11,4.11,0,0,0,4-2.48,6.1,6.1,0,0,0,0-4.93,4.53,4.53,0,0,0-6.42-1.79,4.22,4.22,0,0,0-1.53,1.79,6.1,6.1,0,0,0,0,4.93,4.22,4.22,0,0,0,1.53,1.81A4.31,4.31,0,0,0,153.28,379.42Z"></path><path class="cls-12" d="M162.31,381v-18.2h1.95V381Z"></path><path class="cls-12" d="M173.12,381.19a6,6,0,0,1-3.31-.9,6,6,0,0,1-2.2-2.43,7.74,7.74,0,0,1,0-6.77,6.11,6.11,0,0,1,2.2-2.42,6,6,0,0,1,3.31-.89,5.7,5.7,0,0,1,2.77.62,5.28,5.28,0,0,1,1.88,1.69V368h2v13h-2V378.9a5.32,5.32,0,0,1-1.88,1.67A5.81,5.81,0,0,1,173.12,381.19Zm.26-1.77a4.31,4.31,0,0,0,2.46-.67,4.41,4.41,0,0,0,1.52-1.81,6.1,6.1,0,0,0,0-4.93,4.41,4.41,0,0,0-1.52-1.79,4.31,4.31,0,0,0-2.46-.68,4.44,4.44,0,0,0-2.47.68,4.51,4.51,0,0,0-1.59,1.79,5.9,5.9,0,0,0,0,4.93,4.5,4.5,0,0,0,1.59,1.81A4.43,4.43,0,0,0,173.38,379.42Z"></path><path class="cls-12" d="M184.51,381V369.7h-2.65V368h2.65v-4.65h2V368h3v1.72h-3V381Z"></path><path class="cls-12" d="M197.09,381.19a6.54,6.54,0,0,1-3.46-.9,6.19,6.19,0,0,1-2.3-2.43,7.13,7.13,0,0,1-.82-3.38,7.33,7.33,0,0,1,.78-3.39,6.07,6.07,0,0,1,2.24-2.42,7.09,7.09,0,0,1,6.88,0,6.09,6.09,0,0,1,2.22,2.42,7.33,7.33,0,0,1,.78,3.39v.78H192.52a5.28,5.28,0,0,0,.74,2.1,4.27,4.27,0,0,0,1.57,1.5,4.49,4.49,0,0,0,2.29.56,4.1,4.1,0,0,0,2.31-.61,4.23,4.23,0,0,0,1.46-1.57H203a6.46,6.46,0,0,1-2.14,2.85A6.17,6.17,0,0,1,197.09,381.19Zm-4.55-7.75h8.84a4.82,4.82,0,0,0-1.4-2.78,4.16,4.16,0,0,0-3-1.12,4.09,4.09,0,0,0-3,1.12A5,5,0,0,0,192.54,373.44Z"></path><path class="cls-12" d="M219,381.19a8.13,8.13,0,0,1-4.44-1.18,7.76,7.76,0,0,1-2.87-3.19,10.29,10.29,0,0,1,0-8.89,7.8,7.8,0,0,1,2.87-3.18,8.14,8.14,0,0,1,4.44-1.19,8.59,8.59,0,0,1,3.51.69,7.73,7.73,0,0,1,4.29,4.67h-2.05a5.41,5.41,0,0,0-2-2.52,6.22,6.22,0,0,0-3.54-.94,6.58,6.58,0,0,0-3.55.92,5.94,5.94,0,0,0-2.22,2.49,8.44,8.44,0,0,0,0,7,5.85,5.85,0,0,0,2.22,2.5,6.49,6.49,0,0,0,3.55.92,6.3,6.3,0,0,0,3.54-.93,5.51,5.51,0,0,0,2-2.52h2.05a8,8,0,0,1-1.63,2.76,7.75,7.75,0,0,1-2.66,1.9A8.59,8.59,0,0,1,219,381.19Z"></path><path class="cls-12" d="M234.92,381.19a6.38,6.38,0,0,1-3.43-.9,5.91,5.91,0,0,1-2.24-2.43,7.74,7.74,0,0,1,0-6.77,6.07,6.07,0,0,1,2.24-2.42,7.09,7.09,0,0,1,6.88,0,6.09,6.09,0,0,1,2.22,2.42,7.74,7.74,0,0,1,0,6.77,5.93,5.93,0,0,1-2.22,2.43A6.4,6.4,0,0,1,234.92,381.19Zm0-1.77a4.11,4.11,0,0,0,4-2.48,6.1,6.1,0,0,0,0-4.93,4.17,4.17,0,0,0-4-2.47,4.22,4.22,0,0,0-4,2.47,6.1,6.1,0,0,0,0,4.93,4.17,4.17,0,0,0,4,2.48Z"></path><path class="cls-12" d="M249.43,381.19a6.07,6.07,0,0,1-3.32-.9,6,6,0,0,1-2.19-2.43,7.74,7.74,0,0,1,0-6.77,6.16,6.16,0,0,1,2.19-2.42,6.06,6.06,0,0,1,3.32-.89,5.72,5.72,0,0,1,2.77.62,5.28,5.28,0,0,1,1.88,1.69V368H256v13h-1.95V378.9a5.32,5.32,0,0,1-1.88,1.67A5.84,5.84,0,0,1,249.43,381.19Zm.26-1.77a4.31,4.31,0,0,0,2.46-.67,4.41,4.41,0,0,0,1.52-1.81,6.1,6.1,0,0,0,0-4.93,4.41,4.41,0,0,0-1.52-1.79,4.31,4.31,0,0,0-2.46-.68,4.44,4.44,0,0,0-2.47.68,4.51,4.51,0,0,0-1.59,1.79,5.9,5.9,0,0,0,0,4.93,4.5,4.5,0,0,0,1.59,1.81A4.43,4.43,0,0,0,249.69,379.42Z"></path><path class="cls-12" d="M260.82,381V369.7h-2.65V368h2.65v-4.65h1.95V368h3v1.72h-3V381Z"></path><path class="cls-12" d="M273.4,381.19a6.54,6.54,0,0,1-3.46-.9,6.19,6.19,0,0,1-2.3-2.43,7.13,7.13,0,0,1-.82-3.38,7.33,7.33,0,0,1,.78-3.39,6.07,6.07,0,0,1,2.24-2.42,7.09,7.09,0,0,1,6.88,0,6.09,6.09,0,0,1,2.22,2.42,7.33,7.33,0,0,1,.78,3.39v.78H268.83a5.28,5.28,0,0,0,.74,2.1,4.27,4.27,0,0,0,1.57,1.5,4.49,4.49,0,0,0,2.29.56,4.1,4.1,0,0,0,2.31-.61,4.23,4.23,0,0,0,1.46-1.57h2.13a6.41,6.41,0,0,1-2.15,2.85A6.14,6.14,0,0,1,273.4,381.19Zm-4.55-7.75h8.84a4.82,4.82,0,0,0-1.4-2.78,4.17,4.17,0,0,0-3-1.12,4.09,4.09,0,0,0-3,1.12A5,5,0,0,0,268.85,373.44Z"></path><path class="cls-12" d="M287.6,381.19a6.07,6.07,0,0,1-3.32-.9,6,6,0,0,1-2.19-2.43,7.74,7.74,0,0,1,0-6.77,6.16,6.16,0,0,1,2.19-2.42,6.06,6.06,0,0,1,3.32-.89,5.75,5.75,0,0,1,2.77.62,5.28,5.28,0,0,1,1.88,1.69v-7.31h1.95V381h-1.95V378.9a5.32,5.32,0,0,1-1.88,1.67A5.87,5.87,0,0,1,287.6,381.19Zm.26-1.77a4.25,4.25,0,0,0,2.45-.67,4.36,4.36,0,0,0,1.53-1.81,6.1,6.1,0,0,0,0-4.93,4.36,4.36,0,0,0-1.53-1.79,4.26,4.26,0,0,0-2.45-.68A4.36,4.36,0,0,0,283.8,372a5.9,5.9,0,0,0,0,4.93,4.31,4.31,0,0,0,4.06,2.48Z"></path><path class="cls-12" d="M309.7,381.19a10.51,10.51,0,0,1-4.14-.69,5.22,5.22,0,0,1-2.38-1.91,5.88,5.88,0,0,1-.92-2.75h2a3,3,0,0,0,.83,2,4.51,4.51,0,0,0,2,1.13,9.67,9.67,0,0,0,2.72.37,6.72,6.72,0,0,0,3.46-.77,2.51,2.51,0,0,0,1.27-2.28,1.87,1.87,0,0,0-.64-1.47,5,5,0,0,0-1.69-.92c-.7-.24-1.47-.46-2.3-.66s-1.67-.41-2.51-.64a11.89,11.89,0,0,1-2.31-.86,4.64,4.64,0,0,1-1.69-1.34,3.26,3.26,0,0,1-.64-2.09,4.21,4.21,0,0,1,1.63-3.43,7.56,7.56,0,0,1,4.85-1.33,9,9,0,0,1,3.77.69,5.27,5.27,0,0,1,2.22,1.81,4.87,4.87,0,0,1,.82,2.42h-2a3.2,3.2,0,0,0-1.29-2.2,5.67,5.67,0,0,0-3.51-.9,8.09,8.09,0,0,0-2.37.29,3.55,3.55,0,0,0-1.39.74,2.35,2.35,0,0,0-.65.95,2.71,2.71,0,0,0-.17.94,1.72,1.72,0,0,0,.64,1.39,5,5,0,0,0,1.69.88c.7.23,1.47.45,2.32.64s1.7.4,2.54.64a11.91,11.91,0,0,1,2.31.88,4.79,4.79,0,0,1,1.69,1.36,3.4,3.4,0,0,1,.64,2.14,4.22,4.22,0,0,1-1.82,3.67A8.5,8.5,0,0,1,309.7,381.19Z"></path><path class="cls-12" d="M324.88,381.19a6.54,6.54,0,0,1-3.46-.9,6.19,6.19,0,0,1-2.3-2.43,7.13,7.13,0,0,1-.82-3.38,7.33,7.33,0,0,1,.78-3.39,6.07,6.07,0,0,1,2.24-2.42,7.09,7.09,0,0,1,6.88,0,6.09,6.09,0,0,1,2.22,2.42,7.33,7.33,0,0,1,.78,3.39v.78H320.31a5.28,5.28,0,0,0,.74,2.1,4.27,4.27,0,0,0,1.57,1.5,4.49,4.49,0,0,0,2.29.56,4.1,4.1,0,0,0,2.31-.61,4.31,4.31,0,0,0,1.46-1.57h2.13a6.41,6.41,0,0,1-2.15,2.85A6.16,6.16,0,0,1,324.88,381.19Zm-4.55-7.75h8.84a4.82,4.82,0,0,0-1.4-2.78,4.17,4.17,0,0,0-3-1.12,4.09,4.09,0,0,0-3,1.12A5,5,0,0,0,320.33,373.44Z"></path><path class="cls-12" d="M339.55,386.34a6.9,6.9,0,0,1-4-1,5.18,5.18,0,0,1-2.08-2.75h2.16A2.93,2.93,0,0,0,337,384a5,5,0,0,0,2.44.53,4.39,4.39,0,0,0,3.26-1.05,4.18,4.18,0,0,0,1-3.06v-1.79a5.55,5.55,0,0,1-1.88,1.68,5.75,5.75,0,0,1-2.77.63,6.23,6.23,0,0,1-3.32-.87,6,6,0,0,1-2.2-2.38,7.63,7.63,0,0,1,0-6.72,6,6,0,0,1,2.2-2.36,6.23,6.23,0,0,1,3.32-.87,5.87,5.87,0,0,1,2.77.61,5,5,0,0,1,1.88,1.67V368h1.95v12.61a5.52,5.52,0,0,1-1.6,4.27A6.41,6.41,0,0,1,339.55,386.34Zm-.21-7.12a4.41,4.41,0,0,0,2.43-.65,4.22,4.22,0,0,0,1.53-1.76,5.88,5.88,0,0,0,0-4.88,4.29,4.29,0,0,0-1.53-1.74,4.41,4.41,0,0,0-2.43-.65,4.57,4.57,0,0,0-2.47.65,4.36,4.36,0,0,0-1.59,1.74,5.69,5.69,0,0,0,0,4.88,4.29,4.29,0,0,0,1.59,1.76A4.57,4.57,0,0,0,339.34,379.22Z"></path><path class="cls-12" d="M349.06,381V368H351v2a4.94,4.94,0,0,1,1.4-1.48,4.23,4.23,0,0,1,2.55-.7,4.55,4.55,0,0,1,2.41.68,4.8,4.8,0,0,1,1.73,1.94,6.38,6.38,0,0,1,.82-1.06,5,5,0,0,1,1.47-1.1,4.71,4.71,0,0,1,2.18-.46,4.45,4.45,0,0,1,2.34.65,5,5,0,0,1,1.78,1.85,5.67,5.67,0,0,1,.69,2.85V381h-1.95v-7.8a3.77,3.77,0,0,0-.92-2.64,3,3,0,0,0-2.31-1,3.44,3.44,0,0,0-3.51,3.67V381h-1.95v-7.8a3.73,3.73,0,0,0-.92-2.64,3,3,0,0,0-2.3-1,3.44,3.44,0,0,0-3.51,3.67V381Z"></path><path class="cls-12" d="M377.4,381.19a6.54,6.54,0,0,1-3.46-.9,6.12,6.12,0,0,1-2.3-2.43,7.13,7.13,0,0,1-.82-3.38,7.33,7.33,0,0,1,.78-3.39,6.07,6.07,0,0,1,2.24-2.42,7.09,7.09,0,0,1,6.88,0,6.09,6.09,0,0,1,2.22,2.42,7.33,7.33,0,0,1,.78,3.39v.78h-10.9a5.6,5.6,0,0,0,.74,2.1,4.37,4.37,0,0,0,1.58,1.5,4.49,4.49,0,0,0,2.29.56,4.1,4.1,0,0,0,2.31-.61,4.31,4.31,0,0,0,1.46-1.57h2.13a6.41,6.41,0,0,1-2.15,2.85A6.16,6.16,0,0,1,377.4,381.19Zm-4.55-7.75h8.84a4.82,4.82,0,0,0-1.4-2.78,4.17,4.17,0,0,0-3-1.12,4.09,4.09,0,0,0-3,1.12A5,5,0,0,0,372.85,373.44Z"></path><path class="cls-12" d="M386.11,381V368h1.95v2a6.5,6.5,0,0,1,1.72-1.58,4.66,4.66,0,0,1,2.6-.65,5.3,5.3,0,0,1,2.53.63,5,5,0,0,1,1.93,1.9,6.09,6.09,0,0,1,.74,3.11V381h-1.95v-7.51a4,4,0,0,0-1-2.85,3.42,3.42,0,0,0-2.62-1.08,4,4,0,0,0-2,.5,3.79,3.79,0,0,0-1.42,1.39,4,4,0,0,0-.53,2.07V381Z"></path><path class="cls-12" d="M401.92,381V369.7h-2.65V368h2.65v-4.65h1.95V368h3v1.72h-3V381Z"></path><path class="cls-12" d="M87.82,411.53l.52-3.71H85.66v-1.69h2.91l.52-3.75H86.44v-1.69h2.88l.55-3.72h1.69L91,400.69h3l.55-3.72h1.69l-.55,3.72h2.7v1.69H95.49L95,406.13h2.67v1.69H94.73l-.52,3.71H92.52l.52-3.71H90l-.52,3.71Zm2.44-5.4h3l.52-3.75h-3Z"></path><path class="cls-12" d="M106.74,412.18V396.84H103.1V395h5.59v17.21Z"></path><path class="cls-12" d="M121,397v-2.55h2.11V397Zm.08,15.18v-13h1.95v13Z"></path><path class="cls-12" d="M126.45,412.18v-13h2v2a6.5,6.5,0,0,1,1.72-1.58,4.66,4.66,0,0,1,2.6-.65,5.3,5.3,0,0,1,2.53.63,5,5,0,0,1,1.93,1.9,6.09,6.09,0,0,1,.74,3.11v7.56H136v-7.51a4,4,0,0,0-1-2.85,3.42,3.42,0,0,0-2.62-1.08,4,4,0,0,0-2,.5,3.79,3.79,0,0,0-1.42,1.39,4,4,0,0,0-.53,2.07v7.48Z"></path><path class="cls-12" d="M147.12,412.18V395h2.26l6.17,8.17,6-8.17h2.27v17.21h-2V397.93l-6.37,8.2-6.48-8.2v14.25Z"></path><path class="cls-12" d="M167.58,397v-2.55h2.11V397Zm.08,15.18v-13h2v13Z"></path><path class="cls-12" d="M171.4,412.18l5-6.7-4.7-6.3h2.49l3.36,4.92,3.33-4.92h2.49l-4.7,6.3,5,6.7h-2.5l-3.66-5.3-3.69,5.3Z"></path><path class="cls-12" d="M190.75,412.39a6.54,6.54,0,0,1-3.46-.9,6.12,6.12,0,0,1-2.3-2.43,7,7,0,0,1-.82-3.38,7.3,7.3,0,0,1,.78-3.39,6.07,6.07,0,0,1,2.24-2.42,7.07,7.07,0,0,1,6.87,0,6,6,0,0,1,2.23,2.42,7.3,7.3,0,0,1,.78,3.39v.78h-10.9a5.43,5.43,0,0,0,.74,2.1,4.3,4.3,0,0,0,1.58,1.5,4.48,4.48,0,0,0,2.28.56,4.13,4.13,0,0,0,2.32-.61,4.39,4.39,0,0,0,1.46-1.57h2.13a6.41,6.41,0,0,1-2.15,2.85A6.16,6.16,0,0,1,190.75,412.39Zm-4.55-7.75H195a4.82,4.82,0,0,0-1.4-2.78,4.17,4.17,0,0,0-3-1.12,4.09,4.09,0,0,0-3,1.12A5,5,0,0,0,186.2,404.64Z"></path><path class="cls-12" d="M204.94,412.39a6,6,0,0,1-5.51-3.33,7.74,7.74,0,0,1,0-6.77,6.19,6.19,0,0,1,2.2-2.42,6,6,0,0,1,3.31-.89,5.7,5.7,0,0,1,2.77.62,5.39,5.39,0,0,1,1.89,1.69V394h2v18.2h-2V410.1a5.44,5.44,0,0,1-1.89,1.67A5.81,5.81,0,0,1,204.94,412.39Zm.27-1.77a4.11,4.11,0,0,0,4-2.48,6.1,6.1,0,0,0,0-4.93,4.16,4.16,0,0,0-4-2.47,4.47,4.47,0,0,0-2.48.68,4.41,4.41,0,0,0-1.58,1.79,5.8,5.8,0,0,0,0,4.93,4.4,4.4,0,0,0,1.58,1.81A4.47,4.47,0,0,0,205.21,410.62Z"></path><path class="cls-12" d="M228.11,412.39a8.17,8.17,0,0,1-4.45-1.18,7.9,7.9,0,0,1-2.87-3.19,10.38,10.38,0,0,1,0-8.89,7.94,7.94,0,0,1,2.87-3.18,8.17,8.17,0,0,1,4.45-1.19,8.59,8.59,0,0,1,3.51.69,7.81,7.81,0,0,1,4.29,4.67h-2a5.43,5.43,0,0,0-2.06-2.52,6.17,6.17,0,0,0-3.53-.94,6.58,6.58,0,0,0-3.55.92,6,6,0,0,0-2.23,2.49,8.54,8.54,0,0,0,0,7,5.93,5.93,0,0,0,2.23,2.5,6.49,6.49,0,0,0,3.55.92,6.24,6.24,0,0,0,3.53-.93,5.53,5.53,0,0,0,2.06-2.52h2a7.88,7.88,0,0,1-1.64,2.76,7.61,7.61,0,0,1-2.65,1.9A8.59,8.59,0,0,1,228.11,412.39Z"></path><path class="cls-12" d="M243.89,412.39a6,6,0,0,1-3.31-.9,6,6,0,0,1-2.2-2.43,7.74,7.74,0,0,1,0-6.77,6.11,6.11,0,0,1,2.2-2.42,6,6,0,0,1,3.31-.89,5.7,5.7,0,0,1,2.77.62,5.39,5.39,0,0,1,1.89,1.69v-2.11h1.95v13h-1.95V410.1a5.44,5.44,0,0,1-1.89,1.67A5.81,5.81,0,0,1,243.89,412.39Zm.26-1.77a4.11,4.11,0,0,0,4-2.48,6.1,6.1,0,0,0,0-4.93,4.17,4.17,0,0,0-4-2.47,4.46,4.46,0,0,0-2.47.68,4.41,4.41,0,0,0-1.58,1.79,5.8,5.8,0,0,0,0,4.93,4.4,4.4,0,0,0,1.58,1.81A4.46,4.46,0,0,0,244.15,410.62Z"></path><path class="cls-12" d="M255.28,412.18V400.9h-2.65v-1.72h2.65v-4.65h2v4.65h3v1.72h-3v11.28Z"></path><path class="cls-12" d="M267.86,412.39a6.5,6.5,0,0,1-3.45-.9,6,6,0,0,1-2.3-2.43,7,7,0,0,1-.82-3.38,7.3,7.3,0,0,1,.78-3.39,6,6,0,0,1,2.23-2.42,7.09,7.09,0,0,1,6.88,0,6.09,6.09,0,0,1,2.22,2.42,7.3,7.3,0,0,1,.78,3.39v.78H263.29a5.28,5.28,0,0,0,.74,2.1,4.27,4.27,0,0,0,1.57,1.5,4.49,4.49,0,0,0,2.29.56,4.1,4.1,0,0,0,2.31-.61,4.3,4.3,0,0,0,1.46-1.57h2.13a6.39,6.39,0,0,1-2.14,2.85A6.17,6.17,0,0,1,267.86,412.39Zm-4.55-7.75h8.84a4.82,4.82,0,0,0-1.4-2.78,4.16,4.16,0,0,0-3-1.12,4.11,4.11,0,0,0-3,1.12A5,5,0,0,0,263.31,404.64Z"></path><path class="cls-12" d="M282.53,417.54a6.9,6.9,0,0,1-4-1.05,5.23,5.23,0,0,1-2.08-2.75h2.16a3,3,0,0,0,1.35,1.5,5.07,5.07,0,0,0,2.44.53,4.43,4.43,0,0,0,3.27-1,4.22,4.22,0,0,0,1-3.06v-1.79a5.55,5.55,0,0,1-1.88,1.68,5.72,5.72,0,0,1-2.77.63,6.23,6.23,0,0,1-3.32-.87,5.92,5.92,0,0,1-2.19-2.38,7.63,7.63,0,0,1,0-6.72,6,6,0,0,1,2.19-2.36,6.23,6.23,0,0,1,3.32-.87,5.84,5.84,0,0,1,2.77.61,5,5,0,0,1,1.88,1.67v-2.08h2v12.61a5.52,5.52,0,0,1-1.6,4.27A6.39,6.39,0,0,1,282.53,417.54Zm-.21-7.12a4.41,4.41,0,0,0,2.43-.65,4.22,4.22,0,0,0,1.53-1.76,5.48,5.48,0,0,0,.54-2.43,5.4,5.4,0,0,0-.54-2.44,4.25,4.25,0,0,0-1.53-1.75,4.41,4.41,0,0,0-2.43-.65,4.59,4.59,0,0,0-2.47.65,4.4,4.4,0,0,0-1.59,1.75,5.4,5.4,0,0,0-.54,2.44,5.48,5.48,0,0,0,.54,2.43,4.36,4.36,0,0,0,1.59,1.76A4.59,4.59,0,0,0,282.32,410.42Z"></path><path class="cls-12" d="M297.69,412.39a6.42,6.42,0,0,1-3.44-.9,5.88,5.88,0,0,1-2.23-2.43,7.74,7.74,0,0,1,0-6.77,6,6,0,0,1,2.23-2.42,7.09,7.09,0,0,1,6.88,0,6.09,6.09,0,0,1,2.22,2.42,7.74,7.74,0,0,1,0,6.77,5.93,5.93,0,0,1-2.22,2.43A6.37,6.37,0,0,1,297.69,412.39Zm0-1.77a4.11,4.11,0,0,0,4-2.48,6.1,6.1,0,0,0,0-4.93,4.16,4.16,0,0,0-4-2.47,4.33,4.33,0,0,0-2.45.68,4.22,4.22,0,0,0-1.53,1.79,6.1,6.1,0,0,0,0,4.93,4.22,4.22,0,0,0,1.53,1.81A4.32,4.32,0,0,0,297.69,410.62Z"></path><path class="cls-12" d="M306.71,412.18v-13h2v3.2a5.88,5.88,0,0,1,.4-.9,4.93,4.93,0,0,1,2.31-2.1,4.9,4.9,0,0,1,2.07-.4h.13v1.95h-.23a4,4,0,0,0-2.51.79,5.11,5.11,0,0,0-1.61,2,6.45,6.45,0,0,0-.56,2.69v5.72Z"></path><path class="cls-12" d="M317,417.33,319.4,412l-5.31-12.82h2.16l4.19,10.66,4.26-10.66h2.13l-7.69,18.15Z"></path><path class="cls-12" d="M340.72,412.39a10.51,10.51,0,0,1-4.14-.69,5.17,5.17,0,0,1-2.38-1.91,5.88,5.88,0,0,1-.92-2.75h2a3,3,0,0,0,.83,2,4.51,4.51,0,0,0,2,1.13,9.67,9.67,0,0,0,2.72.37,6.68,6.68,0,0,0,3.45-.77,2.5,2.5,0,0,0,1.28-2.28,1.9,1.9,0,0,0-.64-1.47,5,5,0,0,0-1.69-.92c-.7-.24-1.47-.46-2.3-.66s-1.67-.41-2.51-.64a11.89,11.89,0,0,1-2.31-.86,4.56,4.56,0,0,1-1.69-1.34,3.26,3.26,0,0,1-.64-2.09,4.23,4.23,0,0,1,1.62-3.43,7.58,7.58,0,0,1,4.85-1.33,8.91,8.91,0,0,1,3.77.69,5.31,5.31,0,0,1,2.23,1.81,5,5,0,0,1,.82,2.42h-2a3.18,3.18,0,0,0-1.3-2.2,5.63,5.63,0,0,0-3.51-.9,8,8,0,0,0-2.36.29,3.55,3.55,0,0,0-1.39.74,2.35,2.35,0,0,0-.65.95,2.71,2.71,0,0,0-.17.94,1.74,1.74,0,0,0,.63,1.39,5.25,5.25,0,0,0,1.69.88c.71.23,1.48.45,2.33.64s1.7.4,2.54.63a12.61,12.61,0,0,1,2.31.89,4.79,4.79,0,0,1,1.69,1.36,3.47,3.47,0,0,1,.64,2.14,4.22,4.22,0,0,1-1.82,3.67A8.52,8.52,0,0,1,340.72,412.39Z"></path><path class="cls-12" d="M355.9,412.39a6.54,6.54,0,0,1-3.46-.9,6.12,6.12,0,0,1-2.3-2.43,7,7,0,0,1-.82-3.38,7.3,7.3,0,0,1,.78-3.39,6.07,6.07,0,0,1,2.24-2.42,7.07,7.07,0,0,1,6.87,0,6,6,0,0,1,2.23,2.42,7.3,7.3,0,0,1,.78,3.39v.78h-10.9a5.43,5.43,0,0,0,.74,2.1,4.3,4.3,0,0,0,1.58,1.5,4.48,4.48,0,0,0,2.28.56,4.13,4.13,0,0,0,2.32-.61,4.28,4.28,0,0,0,1.45-1.57h2.14a6.41,6.41,0,0,1-2.15,2.85A6.16,6.16,0,0,1,355.9,412.39Zm-4.55-7.75h8.84a4.82,4.82,0,0,0-1.4-2.78,4.17,4.17,0,0,0-3-1.12,4.09,4.09,0,0,0-3,1.12A5,5,0,0,0,351.35,404.64Z"></path><path class="cls-12" d="M370.56,417.54a6.93,6.93,0,0,1-4-1.05,5.28,5.28,0,0,1-2.08-2.75h2.16a3,3,0,0,0,1.36,1.5,5,5,0,0,0,2.44.53,4.39,4.39,0,0,0,3.26-1,4.18,4.18,0,0,0,1-3.06v-1.79a5.58,5.58,0,0,1-1.89,1.68,5.7,5.7,0,0,1-2.77.63,6.22,6.22,0,0,1-3.31-.87,5.88,5.88,0,0,1-2.2-2.38,7.63,7.63,0,0,1,0-6.72,6,6,0,0,1,2.2-2.36,6.22,6.22,0,0,1,3.31-.87,5.81,5.81,0,0,1,2.77.61,5.08,5.08,0,0,1,1.89,1.67v-2.08h1.95v12.61a5.52,5.52,0,0,1-1.6,4.27A6.43,6.43,0,0,1,370.56,417.54Zm-.2-7.12a4.41,4.41,0,0,0,2.43-.65,4.36,4.36,0,0,0,1.53-1.76,5.61,5.61,0,0,0,.53-2.43,5.53,5.53,0,0,0-.53-2.44,4.16,4.16,0,0,0-4-2.4,4.57,4.57,0,0,0-2.47.65,4.26,4.26,0,0,0-1.59,1.75,5.41,5.41,0,0,0-.55,2.44,5.49,5.49,0,0,0,.55,2.43,4.22,4.22,0,0,0,1.59,1.76A4.57,4.57,0,0,0,370.36,410.42Z"></path><path class="cls-12" d="M380.08,412.18v-13H382v2a4.82,4.82,0,0,1,1.4-1.48A4.21,4.21,0,0,1,386,399a4.55,4.55,0,0,1,2.41.68,4.71,4.71,0,0,1,1.72,1.94,7.7,7.7,0,0,1,.82-1.06,5.33,5.33,0,0,1,1.47-1.1,4.78,4.78,0,0,1,2.19-.46,4.45,4.45,0,0,1,2.34.65,5,5,0,0,1,1.78,1.85,5.67,5.67,0,0,1,.69,2.85v7.85h-1.95v-7.8a3.73,3.73,0,0,0-.93-2.64,3,3,0,0,0-2.3-1,3.44,3.44,0,0,0-3.51,3.67v7.77h-1.95v-7.8a3.77,3.77,0,0,0-.92-2.64,3,3,0,0,0-2.3-1,3.47,3.47,0,0,0-2.47,1,3.5,3.5,0,0,0-1,2.7v7.77Z"></path><path class="cls-12" d="M408.42,412.39a6.54,6.54,0,0,1-3.46-.9,6.12,6.12,0,0,1-2.3-2.43,7,7,0,0,1-.82-3.38,7.3,7.3,0,0,1,.78-3.39,6.07,6.07,0,0,1,2.24-2.42,7.07,7.07,0,0,1,6.87,0,6,6,0,0,1,2.23,2.42,7.3,7.3,0,0,1,.78,3.39v.78h-10.9a5.43,5.43,0,0,0,.74,2.1,4.3,4.3,0,0,0,1.58,1.5,4.46,4.46,0,0,0,2.28.56,4.13,4.13,0,0,0,2.32-.61,4.28,4.28,0,0,0,1.45-1.57h2.14a6.41,6.41,0,0,1-2.15,2.85A6.16,6.16,0,0,1,408.42,412.39Zm-4.55-7.75h8.84a4.82,4.82,0,0,0-1.4-2.78,4.17,4.17,0,0,0-3-1.12,4.09,4.09,0,0,0-3,1.12A5,5,0,0,0,403.87,404.64Z"></path><path class="cls-12" d="M417.13,412.18v-13h1.95v2a6.62,6.62,0,0,1,1.71-1.58,4.72,4.72,0,0,1,2.61-.65,5.3,5.3,0,0,1,2.53.63,4.93,4.93,0,0,1,1.92,1.9,6,6,0,0,1,.74,3.11v7.56h-1.94v-7.51a4,4,0,0,0-1-2.85,3.45,3.45,0,0,0-2.63-1.08,4,4,0,0,0-2,.5,3.79,3.79,0,0,0-1.42,1.39,4,4,0,0,0-.53,2.07v7.48Z"></path><path class="cls-12" d="M432.94,412.18V400.9h-2.66v-1.72h2.66v-4.65h1.95v4.65h3v1.72h-3v11.28Z"></path><path class="cls-12" d="M649.52,279.42V255.57h10.7a8.75,8.75,0,0,1,4.44,1A5.81,5.81,0,0,1,667,259a6.5,6.5,0,0,1,.72,2.9,5.66,5.66,0,0,1-1,3.55,6,6,0,0,1-2.23,1.81,7.94,7.94,0,0,1,2,1,5.72,5.72,0,0,1,1.72,1.89,6,6,0,0,1,.68,3,5.72,5.72,0,0,1-2,4.47c-1.35,1.2-3.39,1.8-6.1,1.8Zm2.7-13.18h8a6.39,6.39,0,0,0,2.36-.44,4,4,0,0,0,1.78-1.35,3.88,3.88,0,0,0,.68-2.36,4.22,4.22,0,0,0-.45-1.91,3.51,3.51,0,0,0-1.44-1.47,5.18,5.18,0,0,0-2.65-.58h-8.28Zm0,10.62h8.9a6.2,6.2,0,0,0,3.8-1,3.45,3.45,0,0,0,1.35-2.9,4.06,4.06,0,0,0-1.3-3,5.72,5.72,0,0,0-4.14-1.28h-8.61Z"></path><path class="cls-12" d="M672.68,258.38v-3.53h2.92v3.53Zm.11,21v-18h2.7v18Z"></path><path class="cls-12" d="M686.73,279.71a9.61,9.61,0,0,1-4.2-.83,6.37,6.37,0,0,1-2.61-2.18,5.93,5.93,0,0,1-1-2.94h2.81a4.21,4.21,0,0,0,.63,1.75,3.7,3.7,0,0,0,1.6,1.37,6.5,6.5,0,0,0,2.81.52,9.08,9.08,0,0,0,1.34-.11,6.61,6.61,0,0,0,1.53-.39,3.11,3.11,0,0,0,1.24-.87,2.12,2.12,0,0,0,.51-1.47,2,2,0,0,0-.87-1.73,6.66,6.66,0,0,0-2.23-1c-.92-.23-1.88-.45-2.9-.66a19.58,19.58,0,0,1-2.9-.85,5.67,5.67,0,0,1-2.24-1.48,3.75,3.75,0,0,1-.86-2.61,4.49,4.49,0,0,1,1.78-3.8,10.78,10.78,0,0,1,9.15-.61,5.65,5.65,0,0,1,2.27,1.89,5.47,5.47,0,0,1,.92,2.49h-2.74a3,3,0,0,0-1.13-2,5.11,5.11,0,0,0-3.26-.82q-4.29,0-4.29,2.59a1.88,1.88,0,0,0,.87,1.66,7.23,7.23,0,0,0,2.23.92c.91.22,1.88.44,2.9.64a17.44,17.44,0,0,1,2.9.85,5.62,5.62,0,0,1,2.23,1.53,3.93,3.93,0,0,1,.87,2.68,4.58,4.58,0,0,1-2,4A9.21,9.21,0,0,1,686.73,279.71Z"></path><path class="cls-12" d="M705.28,279.71a8.69,8.69,0,0,1-4.68-1.24,8.49,8.49,0,0,1-3.08-3.37,10.57,10.57,0,0,1,0-9.39,8.38,8.38,0,0,1,7.76-4.59,8.92,8.92,0,0,1,5.46,1.66,8.09,8.09,0,0,1,3,4.28h-2.92a5.53,5.53,0,0,0-2-2.52,5.42,5.42,0,0,0-3.26-1,6.24,6.24,0,0,0-5.73,3.42,7.78,7.78,0,0,0,0,6.83,6.21,6.21,0,0,0,5.73,3.44,5.39,5.39,0,0,0,5.22-3.5h2.92a8.08,8.08,0,0,1-3,4.29A8.92,8.92,0,0,1,705.28,279.71Z"></path><path class="cls-12" d="M724.16,279.71a7.45,7.45,0,0,1-3.5-.88A6.83,6.83,0,0,1,718,276.2a8.34,8.34,0,0,1-1-4.31V261.41h2.7v10.41a5.47,5.47,0,0,0,1.43,3.94,4.75,4.75,0,0,0,3.62,1.5,5.5,5.5,0,0,0,2.74-.7,5.35,5.35,0,0,0,2.7-4.78V261.41h2.7v18h-2.7v-2.81a8.94,8.94,0,0,1-2.38,2.2A6.58,6.58,0,0,1,724.16,279.71Z"></path><path class="cls-12" d="M737.41,258.38v-3.53h2.92v3.53Zm.11,21v-18h2.7v18Z"></path><path class="cls-12" d="M746.85,279.42V263.79h-3.67v-2.38h3.67V255h2.7v6.45h4.15v2.38h-4.15v15.63Z"></path><path class="cls-12" d="M763.21,279.71a9.61,9.61,0,0,1-4.2-.83,6.37,6.37,0,0,1-2.61-2.18,5.93,5.93,0,0,1-1-2.94h2.81a4.21,4.21,0,0,0,.63,1.75,3.7,3.7,0,0,0,1.6,1.37,6.47,6.47,0,0,0,2.81.52,8.86,8.86,0,0,0,1.33-.11,6.82,6.82,0,0,0,1.54-.39,3.11,3.11,0,0,0,1.24-.87,2.16,2.16,0,0,0,.5-1.47,2,2,0,0,0-.86-1.73,6.63,6.63,0,0,0-2.24-1c-.91-.23-1.88-.45-2.9-.66a19.94,19.94,0,0,1-2.9-.85,5.7,5.7,0,0,1-2.23-1.48,3.75,3.75,0,0,1-.86-2.61,4.49,4.49,0,0,1,1.78-3.8,8.67,8.67,0,0,1,5.28-1.35,8.81,8.81,0,0,1,3.87.74,5.65,5.65,0,0,1,2.27,1.89,5.59,5.59,0,0,1,.92,2.49h-2.74a3.06,3.06,0,0,0-1.13-2,5.14,5.14,0,0,0-3.27-.82q-4.27,0-4.28,2.59a1.89,1.89,0,0,0,.86,1.66,7.3,7.3,0,0,0,2.24.92c.91.22,1.87.44,2.9.64a17.72,17.72,0,0,1,2.9.85,5.69,5.69,0,0,1,2.23,1.53,3.92,3.92,0,0,1,.86,2.68,4.58,4.58,0,0,1-2,4A9.21,9.21,0,0,1,763.21,279.71Z"></path><path class="cls-12" d="M661.33,322.94a14.5,14.5,0,0,1-5.73-1,7.21,7.21,0,0,1-3.29-2.64,8.12,8.12,0,0,1-1.28-3.82h2.81a4.23,4.23,0,0,0,1.15,2.79,6.32,6.32,0,0,0,2.76,1.57,13.47,13.47,0,0,0,3.76.5,9.22,9.22,0,0,0,4.79-1.06,3.46,3.46,0,0,0,1.77-3.16,2.6,2.6,0,0,0-.88-2,7,7,0,0,0-2.35-1.28c-1-.33-2-.64-3.18-.92s-2.32-.57-3.48-.88a17.36,17.36,0,0,1-3.21-1.19,6.71,6.71,0,0,1-2.34-1.85,4.6,4.6,0,0,1-.88-2.91,5.85,5.85,0,0,1,2.25-4.75c1.5-1.22,3.74-1.84,6.72-1.84a12.36,12.36,0,0,1,5.22,1A7.16,7.16,0,0,1,669,302a6.62,6.62,0,0,1,1.14,3.35h-2.78a4.42,4.42,0,0,0-1.8-3,7.81,7.81,0,0,0-4.86-1.25,11.31,11.31,0,0,0-3.28.4,5.06,5.06,0,0,0-1.93,1,3.43,3.43,0,0,0-.9,1.31,4.2,4.2,0,0,0-.23,1.3,2.41,2.41,0,0,0,.88,1.93,7.14,7.14,0,0,0,2.34,1.22,31.08,31.08,0,0,0,3.23.88c1.17.27,2.34.56,3.51.89a17.67,17.67,0,0,1,3.21,1.22,6.69,6.69,0,0,1,2.34,1.89,4.73,4.73,0,0,1,.88,3,5.84,5.84,0,0,1-2.52,5.09A11.8,11.8,0,0,1,661.33,322.94Z"></path><path class="cls-12" d="M674.37,322.65v-18h2.7v2.81a9.09,9.09,0,0,1,2.38-2.2,6.58,6.58,0,0,1,3.6-.9,7.32,7.32,0,0,1,3.52.88,6.85,6.85,0,0,1,2.66,2.63,8.34,8.34,0,0,1,1,4.31v10.48h-2.7V312.24a5.52,5.52,0,0,0-1.41-3.95,4.78,4.78,0,0,0-3.64-1.49,5.53,5.53,0,0,0-2.73.68,5.28,5.28,0,0,0-2,1.93,5.51,5.51,0,0,0-.74,2.86v10.38Z"></path><path class="cls-12" d="M702.36,322.94a8.27,8.27,0,0,1-7.63-4.61,10.75,10.75,0,0,1,0-9.39,8.25,8.25,0,0,1,7.63-4.59,8.06,8.06,0,0,1,3.84.86,7.29,7.29,0,0,1,2.61,2.35v-2.92h2.7v18h-2.7v-2.88a7.35,7.35,0,0,1-2.61,2.3A8,8,0,0,1,702.36,322.94Zm.36-2.45a5.73,5.73,0,0,0,5.51-3.44,8.09,8.09,0,0,0,.73-3.41,8,8,0,0,0-.73-3.42,6.06,6.06,0,0,0-2.1-2.49,6,6,0,0,0-3.41-.93,6,6,0,0,0-5.62,3.42,7.73,7.73,0,0,0-.75,3.42,7.81,7.81,0,0,0,.75,3.41,6,6,0,0,0,5.62,3.44Z"></path><path class="cls-12" d="M723.94,322.94a8.61,8.61,0,0,1-4.68-1.25,8.46,8.46,0,0,1-3.08-3.36,10.57,10.57,0,0,1,0-9.39,8.38,8.38,0,0,1,7.76-4.59A8.92,8.92,0,0,1,729.4,306a8.09,8.09,0,0,1,3,4.28h-2.92a5.53,5.53,0,0,0-2-2.52,5.42,5.42,0,0,0-3.26-1,6.19,6.19,0,0,0-5.73,3.42,7.36,7.36,0,0,0-.79,3.42,7.44,7.44,0,0,0,.79,3.41,6.21,6.21,0,0,0,5.73,3.44,5.39,5.39,0,0,0,5.22-3.5h2.92a8.08,8.08,0,0,1-3,4.29A8.92,8.92,0,0,1,723.94,322.94Z"></path><path class="cls-12" d="M735.79,322.65V297.43h2.7v16.14l8.69-8.93H751l-7.24,7.09,7.78,10.92h-3.32l-6.3-9L738.49,317v5.69Z"></path><path class="cls-12" d="M759.93,322.94a9.61,9.61,0,0,1-4.2-.83,6.37,6.37,0,0,1-2.61-2.18,5.93,5.93,0,0,1-1-2.94h2.81a4.21,4.21,0,0,0,.63,1.75,3.7,3.7,0,0,0,1.6,1.37,6.5,6.5,0,0,0,2.81.52,9.08,9.08,0,0,0,1.34-.11,6.74,6.74,0,0,0,1.53-.39,3.21,3.21,0,0,0,1.24-.87,2.12,2.12,0,0,0,.5-1.47,2,2,0,0,0-.86-1.73,6.66,6.66,0,0,0-2.23-1c-.92-.23-1.88-.45-2.9-.67a18.43,18.43,0,0,1-2.9-.84,5.67,5.67,0,0,1-2.24-1.48,3.77,3.77,0,0,1-.86-2.61,4.49,4.49,0,0,1,1.78-3.8,10.78,10.78,0,0,1,9.15-.61,5.59,5.59,0,0,1,2.27,1.89,5.48,5.48,0,0,1,.92,2.48H764a3,3,0,0,0-1.13-2,5.11,5.11,0,0,0-3.26-.83q-4.29,0-4.29,2.6a1.88,1.88,0,0,0,.87,1.66,7,7,0,0,0,2.23.91c.91.23,1.88.45,2.9.65a17.44,17.44,0,0,1,2.9.85,5.62,5.62,0,0,1,2.23,1.53,3.93,3.93,0,0,1,.87,2.68,4.58,4.58,0,0,1-2,4A9.21,9.21,0,0,1,759.93,322.94Z"></path><path class="cls-12" d="M630.51,366.17a11.33,11.33,0,0,1-6.16-1.64,11,11,0,0,1-4-4.42,14.44,14.44,0,0,1,0-12.32,10.94,10.94,0,0,1,4-4.41,11.33,11.33,0,0,1,6.16-1.64,11.86,11.86,0,0,1,4.87,1,10.68,10.68,0,0,1,3.67,2.61,10.82,10.82,0,0,1,2.27,3.85h-2.84a7.52,7.52,0,0,0-2.85-3.49,8.62,8.62,0,0,0-4.9-1.3,9.1,9.1,0,0,0-4.92,1.28,8.26,8.26,0,0,0-3.08,3.44,11.85,11.85,0,0,0,0,9.71,8.25,8.25,0,0,0,3.08,3.46,9.1,9.1,0,0,0,4.92,1.28,8.7,8.7,0,0,0,4.9-1.3,7.52,7.52,0,0,0,2.85-3.49h2.84a11,11,0,0,1-2.27,3.83,10.59,10.59,0,0,1-3.67,2.63A11.86,11.86,0,0,1,630.51,366.17Z"></path><path class="cls-12" d="M644.78,365.88V340.66h2.7v10a8.94,8.94,0,0,1,2.38-2.2,6.58,6.58,0,0,1,3.6-.9,7.26,7.26,0,0,1,3.51.88,6.81,6.81,0,0,1,2.67,2.63,8.42,8.42,0,0,1,1,4.3v10.49H658V355.47a5.52,5.52,0,0,0-1.4-4,4.79,4.79,0,0,0-3.64-1.49,5.59,5.59,0,0,0-2.74.68,5.26,5.26,0,0,0-2,1.93,5.51,5.51,0,0,0-.74,2.86v10.38Z"></path><path class="cls-12" d="M673,366.17a8.87,8.87,0,0,1-4.76-1.25,8.3,8.3,0,0,1-3.1-3.36,10.75,10.75,0,0,1,0-9.39,8.4,8.4,0,0,1,3.1-3.35,9.78,9.78,0,0,1,9.53,0,8.43,8.43,0,0,1,3.08,3.35,10.75,10.75,0,0,1,0,9.39,8.32,8.32,0,0,1-3.08,3.36A8.85,8.85,0,0,1,673,366.17Zm0-2.45a5.75,5.75,0,0,0,5.51-3.44,8.08,8.08,0,0,0,.72-3.41,8,8,0,0,0-.72-3.42,6.09,6.09,0,0,0-2.11-2.49,6.09,6.09,0,0,0-8.92,2.49,8,8,0,0,0-.72,3.42,8.08,8.08,0,0,0,.72,3.41,5.89,5.89,0,0,0,2.13,2.5A6,6,0,0,0,673,363.72Z"></path><path class="cls-12" d="M693.23,366.17a8.61,8.61,0,0,1-4.68-1.25,8.46,8.46,0,0,1-3.08-3.36,10.57,10.57,0,0,1,0-9.39,8.38,8.38,0,0,1,7.76-4.59,9,9,0,0,1,5.46,1.65,8.15,8.15,0,0,1,3,4.29h-2.92a5.53,5.53,0,0,0-2-2.52,5.42,5.42,0,0,0-3.26-1,6.19,6.19,0,0,0-5.73,3.42,7.36,7.36,0,0,0-.79,3.42,7.44,7.44,0,0,0,.79,3.41,6.29,6.29,0,0,0,2.27,2.5,6.38,6.38,0,0,0,3.46.94,5.43,5.43,0,0,0,5.22-3.5h2.92a8.11,8.11,0,0,1-3,4.29A9,9,0,0,1,693.23,366.17Z"></path><path class="cls-12" d="M712.9,366.17a8.83,8.83,0,0,1-4.75-1.25,8.23,8.23,0,0,1-3.1-3.36,10.75,10.75,0,0,1,0-9.39,8.33,8.33,0,0,1,3.1-3.35,9.76,9.76,0,0,1,9.52,0,8.35,8.35,0,0,1,3.08,3.35,10.75,10.75,0,0,1,0,9.39,8.25,8.25,0,0,1-3.08,3.36A8.83,8.83,0,0,1,712.9,366.17Zm0-2.45a5.75,5.75,0,0,0,5.51-3.44,8.08,8.08,0,0,0,.72-3.41,8,8,0,0,0-.72-3.42,6.07,6.07,0,0,0-11,0,8,8,0,0,0-.72,3.42,8.08,8.08,0,0,0,.72,3.41,5.94,5.94,0,0,0,2.12,2.5A6,6,0,0,0,712.9,363.72Z"></path><path class="cls-12" d="M725.4,365.88V340.66h2.7v25.22Z"></path><path class="cls-12" d="M740.39,366.17a8.27,8.27,0,0,1-7.64-4.61,10.75,10.75,0,0,1,0-9.39,8.25,8.25,0,0,1,7.64-4.59,8.05,8.05,0,0,1,3.83.86,7.36,7.36,0,0,1,2.61,2.34v-2.91h2.71v18h-2.71V363a7.35,7.35,0,0,1-2.61,2.3A7.94,7.94,0,0,1,740.39,366.17Zm.36-2.45a5.75,5.75,0,0,0,5.51-3.44,8.08,8.08,0,0,0,.72-3.41,8,8,0,0,0-.72-3.42,6.09,6.09,0,0,0-2.11-2.49,6,6,0,0,0-3.4-.93,6,6,0,0,0-5.62,3.42,7.6,7.6,0,0,0-.76,3.42,7.68,7.68,0,0,0,.76,3.41,6,6,0,0,0,2.19,2.5A6.18,6.18,0,0,0,740.75,363.72Z"></path><path class="cls-12" d="M756.16,365.88V350.24h-3.67v-2.37h3.67v-6.45h2.71v6.45H763v2.37h-4.14v15.64Z"></path><path class="cls-12" d="M773.6,366.17a9,9,0,0,1-4.79-1.25,8.59,8.59,0,0,1-3.19-3.36,9.77,9.77,0,0,1-1.14-4.69,10.16,10.16,0,0,1,1.08-4.7,8.47,8.47,0,0,1,3.1-3.35,9.78,9.78,0,0,1,9.53,0,8.43,8.43,0,0,1,3.08,3.35,10.16,10.16,0,0,1,1.08,4.7V358H767.26a7.1,7.1,0,0,0,1,2.9,5.88,5.88,0,0,0,2.17,2.09,6.32,6.32,0,0,0,3.18.78,5.76,5.76,0,0,0,3.2-.85,5.86,5.86,0,0,0,2-2.18h2.95a8.84,8.84,0,0,1-3,3.95A8.49,8.49,0,0,1,773.6,366.17Zm-6.31-10.74h12.25a6.68,6.68,0,0,0-1.94-3.85,5.7,5.7,0,0,0-4.18-1.55,5.62,5.62,0,0,0-4.16,1.55A6.9,6.9,0,0,0,767.29,355.43Z"></path><path class="cls-12" d="M792.22,366.17a9.57,9.57,0,0,1-4.19-.83,6.41,6.41,0,0,1-2.62-2.18,6,6,0,0,1-1-2.94h2.82a4.21,4.21,0,0,0,.63,1.75,3.7,3.7,0,0,0,1.6,1.37,6.47,6.47,0,0,0,2.81.52,10.56,10.56,0,0,0,1.33-.11,6.61,6.61,0,0,0,1.53-.39,3.24,3.24,0,0,0,1.25-.87,2.16,2.16,0,0,0,.5-1.47,2,2,0,0,0-.87-1.73,6.57,6.57,0,0,0-2.23-1c-.91-.23-1.88-.45-2.9-.67a18.43,18.43,0,0,1-2.9-.84,5.63,5.63,0,0,1-2.23-1.48,3.74,3.74,0,0,1-.87-2.61,4.5,4.5,0,0,1,1.79-3.8,10.78,10.78,0,0,1,9.15-.61,5.72,5.72,0,0,1,2.27,1.89,5.46,5.46,0,0,1,.91,2.48h-2.73a3.08,3.08,0,0,0-1.14-2,5.09,5.09,0,0,0-3.26-.83c-2.86,0-4.28.87-4.28,2.6a1.84,1.84,0,0,0,.86,1.65,7.1,7.1,0,0,0,2.23.92c.92.23,1.88.45,2.9.65a17.44,17.44,0,0,1,2.9.85,5.66,5.66,0,0,1,2.24,1.53,4,4,0,0,1,.86,2.68,4.6,4.6,0,0,1-2,4A9.24,9.24,0,0,1,792.22,366.17Z"></path><path class="cls-12" d="M655.61,409.39a11.34,11.34,0,0,1-6.17-1.63,11,11,0,0,1-4-4.42,14.44,14.44,0,0,1,0-12.32,10.94,10.94,0,0,1,4-4.41,11.34,11.34,0,0,1,6.17-1.64,11.84,11.84,0,0,1,4.86,1,10.68,10.68,0,0,1,3.67,2.61,10.82,10.82,0,0,1,2.27,3.85h-2.84a7.52,7.52,0,0,0-2.85-3.49,8.62,8.62,0,0,0-4.9-1.3,9.1,9.1,0,0,0-4.92,1.28,8.26,8.26,0,0,0-3.08,3.44,11.85,11.85,0,0,0,0,9.71,8.31,8.31,0,0,0,3.08,3.46,9.1,9.1,0,0,0,4.92,1.28,8.7,8.7,0,0,0,4.9-1.3,7.54,7.54,0,0,0,2.85-3.5h2.84a11,11,0,0,1-2.27,3.84,10.73,10.73,0,0,1-3.67,2.63A11.84,11.84,0,0,1,655.61,409.39Z"></path><path class="cls-12" d="M677.47,409.39a8.25,8.25,0,0,1-7.64-4.61,10.72,10.72,0,0,1,0-9.38,8.5,8.5,0,0,1,3-3.35,8.39,8.39,0,0,1,4.59-1.24,8.06,8.06,0,0,1,3.84.86,7.36,7.36,0,0,1,2.61,2.34V391.1h2.7v18h-2.7v-2.88a7.44,7.44,0,0,1-2.61,2.3A8,8,0,0,1,677.47,409.39Zm.36-2.44a5.75,5.75,0,0,0,5.51-3.44,8.08,8.08,0,0,0,.72-3.41,8,8,0,0,0-.72-3.42,6,6,0,0,0-2.11-2.49,5.94,5.94,0,0,0-3.4-.93,6,6,0,0,0-5.62,3.42,7.73,7.73,0,0,0-.75,3.42,7.81,7.81,0,0,0,.75,3.41,6,6,0,0,0,5.62,3.44Z"></path><path class="cls-12" d="M691.3,409.11v-18H694v2.8a9,9,0,0,1,2.37-2.19,6.58,6.58,0,0,1,3.6-.9,7.32,7.32,0,0,1,3.52.88,6.78,6.78,0,0,1,2.66,2.63,8.3,8.3,0,0,1,1,4.3v10.49h-2.7V398.7a5.52,5.52,0,0,0-1.41-3.95,4.78,4.78,0,0,0-3.64-1.49,5.45,5.45,0,0,0-2.73.68,5.28,5.28,0,0,0-2,1.93,5.51,5.51,0,0,0-.73,2.86v10.38Z"></path><path class="cls-12" d="M719.29,409.39a8.22,8.22,0,0,1-7.63-4.61,10.72,10.72,0,0,1,0-9.38,8.25,8.25,0,0,1,7.63-4.59,8.06,8.06,0,0,1,3.84.86,7.36,7.36,0,0,1,2.61,2.34V383.89h2.7v25.22h-2.7v-2.88a7.44,7.44,0,0,1-2.61,2.3A8,8,0,0,1,719.29,409.39Zm.36-2.44a5.75,5.75,0,0,0,5.52-3.44,8.08,8.08,0,0,0,.72-3.41,8,8,0,0,0-.72-3.42,6.09,6.09,0,0,0-2.11-2.49,6,6,0,0,0-3.41-.93,6,6,0,0,0-5.62,3.42,7.73,7.73,0,0,0-.75,3.42,7.81,7.81,0,0,0,.75,3.41,6,6,0,0,0,5.62,3.44Z"></path><path class="cls-12" d="M733,388.07v-3.53h2.92v3.53Zm.11,21v-18h2.7v18Z"></path><path class="cls-12" d="M748.51,409.39a9,9,0,0,1-4.79-1.24,8.62,8.62,0,0,1-3.19-3.37,9.7,9.7,0,0,1-1.14-4.68,10,10,0,0,1,1.09-4.7,8.31,8.31,0,0,1,3.09-3.35,9.78,9.78,0,0,1,9.53,0,8.43,8.43,0,0,1,3.08,3.35,10.16,10.16,0,0,1,1.08,4.7v1.08H742.17a7.23,7.23,0,0,0,1,2.9,6,6,0,0,0,2.18,2.09,6.31,6.31,0,0,0,3.17.78,5.77,5.77,0,0,0,3.21-.85,6,6,0,0,0,2-2.18h3a8.75,8.75,0,0,1-3,3.94A8.42,8.42,0,0,1,748.51,409.39Zm-6.31-10.73h12.25a6.68,6.68,0,0,0-1.94-3.85,5.7,5.7,0,0,0-4.18-1.55,5.62,5.62,0,0,0-4.16,1.55A6.9,6.9,0,0,0,742.2,398.66Z"></path><path class="cls-12" d="M767.13,409.39a9.57,9.57,0,0,1-4.19-.82,6.34,6.34,0,0,1-2.62-2.18,6,6,0,0,1-1-2.94h2.81a4.57,4.57,0,0,0,.63,1.75,3.79,3.79,0,0,0,1.61,1.37,6.47,6.47,0,0,0,2.81.52,10.56,10.56,0,0,0,1.33-.11,6.61,6.61,0,0,0,1.53-.39,3.24,3.24,0,0,0,1.24-.87,2.15,2.15,0,0,0,.51-1.48,2,2,0,0,0-.87-1.72,6.57,6.57,0,0,0-2.23-1c-.91-.23-1.88-.45-2.9-.67a18.43,18.43,0,0,1-2.9-.84,5.63,5.63,0,0,1-2.23-1.48,3.74,3.74,0,0,1-.87-2.61,4.5,4.5,0,0,1,1.79-3.8,10.78,10.78,0,0,1,9.15-.61,5.72,5.72,0,0,1,2.27,1.89,5.42,5.42,0,0,1,.91,2.48h-2.73a3,3,0,0,0-1.14-2,5.11,5.11,0,0,0-3.26-.83q-4.29,0-4.29,2.6a1.85,1.85,0,0,0,.87,1.65,7.1,7.1,0,0,0,2.23.92c.91.23,1.88.45,2.9.65a16.53,16.53,0,0,1,2.9.85,5.66,5.66,0,0,1,2.24,1.53,4,4,0,0,1,.86,2.68,4.6,4.6,0,0,1-2,4A9.24,9.24,0,0,1,767.13,409.39Z"></path><rect class="cls-13" x="396.51" y="12.14" width="17.92" height="65.81" transform="translate(76.84 -196.7) rotate(30)"></rect><path class="cls-14" d="M503,56.74h13.83a2,2,0,0,1,2,2v47.51a0,0,0,0,1,0,0H501a0,0,0,0,1,0,0V58.78A2,2,0,0,1,503,56.74Z" transform="translate(855.45 -302.35) rotate(122.91)"></path><path class="cls-15" d="M492.43,71.56h13.84a2,2,0,0,1,2,2v42.57a0,0,0,0,1,0,0H490.39a0,0,0,0,1,0,0V73.61A2,2,0,0,1,492.43,71.56Z" transform="translate(849.45 -274.35) rotate(122.91)"></path><path class="cls-16" d="M482.89,84.36h13.84a2,2,0,0,1,2,2v39a0,0,0,0,1,0,0H480.85a0,0,0,0,1,0,0v-39A2,2,0,0,1,482.89,84.36Z" transform="translate(844 -249.31) rotate(122.91)"></path><path class="cls-17" d="M471.94,98.34h13.84a2,2,0,0,1,2,2v32.25a0,0,0,0,1,0,0H469.89a0,0,0,0,1,0,0V100.38A2,2,0,0,1,471.94,98.34Z" transform="translate(835.97 -223.79) rotate(122.91)"></path><rect class="cls-18" x="526.7" y="12.14" width="17.92" height="65.81" transform="translate(49.24 273.86) rotate(-30)"></rect><path class="cls-19" d="M401.67,69.54s13.86,24.37,57.92,44.16L494.68,61,456.33,28.23s-17.22,11.5-30.28-1.56C426.27,26.88,401.67,69.54,401.67,69.54Z"></path><path class="cls-20" d="M443.32,28.71h13.83a2,2,0,0,1,2,2v37.1a0,0,0,0,1,0,0H441.28a0,0,0,0,1,0,0V30.75a2,2,0,0,1,2-2Z" transform="translate(758.09 380.35) rotate(-138.95)"></path><path class="cls-21" d="M456.33,27.64s29.65-7.36,47.34,1.6c-.19,0,2.43,2.18,10.94-.83l1.92-1L542.85,72l-15.78,9.88s-57.15-36.71-60.3-39S456.33,27.64,456.33,27.64Z"></path><path class="cls-22" d="M411.42,75h13.83a2,2,0,0,1,2,2V98.79a1.11,1.11,0,0,1-1.11,1.11h-15.7a1.11,1.11,0,0,1-1.11-1.11V77a2,2,0,0,1,2-2Z" transform="translate(99.77 -197.45) rotate(30)"></path><path class="cls-23" d="M455.77,100.85H469.6a2,2,0,0,1,2,2v21.76a1.11,1.11,0,0,1-1.11,1.11h-15.7a1.11,1.11,0,0,1-1.11-1.11V102.89A2,2,0,0,1,455.77,100.85Z" transform="matrix(0.87, 0.5, -0.5, 0.87, 118.64, -216.16)"></path><path class="cls-24" d="M428.61,76h13.83a2,2,0,0,1,2,2v30.09a1.11,1.11,0,0,1-1.11,1.11h-15.7a1.11,1.11,0,0,1-1.11-1.11V78.07a2,2,0,0,1,2-2Z" transform="matrix(0.87, 0.5, -0.5, 0.87, 104.68, -205.35)"></path><path class="cls-25" d="M441.78,89.66h13.83a2,2,0,0,1,2,2v24.5a1.11,1.11,0,0,1-1.11,1.11h-15.7a1.11,1.11,0,0,1-1.11-1.11V91.7a2,2,0,0,1,2-2Z" transform="matrix(0.87, 0.5, -0.5, 0.87, 111.86, -210.48)"></path><path class="cls-26" d="M148.1,36.83v28.9a8.09,8.09,0,0,0,8.09,8.09h0a8.15,8.15,0,0,0,5.36-2,12.9,12.9,0,1,1,0,19.41,8,8,0,0,0-5.33-2h0a8.09,8.09,0,0,0-8.09,8.09V36.83Z"></path><path class="cls-27" d="M148.1,36.83v89.38H58.72V36.83H87.63a8.09,8.09,0,0,1,6.09,13.41,12.91,12.91,0,1,0,19.41,0,8.41,8.41,0,0,1-1.5-2.5,8.09,8.09,0,0,1,7.56-10.94Z"></path><path class="cls-28" d="M793.41,43.66h28.91a8.09,8.09,0,0,0,8.09-8.09h0a8.16,8.16,0,0,0-2-5.35,12.91,12.91,0,1,1,19.4,0,8.09,8.09,0,0,0-2,5.33h0a8.09,8.09,0,0,0,8.09,8.09H793.41Z"></path><path class="cls-29" d="M793.41,43.66h89.38V133H793.41V104.13A8.09,8.09,0,0,1,806.82,98a12.91,12.91,0,1,0,0-19.41,8,8,0,0,1-2.49,1.5,8.07,8.07,0,0,1-11-7.56Z"></path><polygon class="cls-30" points="213.13 0.25 357.45 0.25 213.13 144.17 213.13 0.25"></polygon><polygon class="cls-31" points="357.45 144.17 213.13 144.17 357.45 0.25 357.45 144.17"></polygon><polygon class="cls-32" points="727.99 144.17 583.68 144.17 727.99 0.25 727.99 144.17"></polygon><polygon class="cls-33" points="727.99 144.17 583.68 144.17 727.99 0.25 727.99 144.17"></polygon><path class="cls-34" d="M469.8,146.36v30.41a8.5,8.5,0,0,0,8.51,8.5h0a8.56,8.56,0,0,0,5.63-2.12,13.57,13.57,0,1,1,0,20.41,8.47,8.47,0,0,0-5.6-2.11h0A8.51,8.51,0,0,0,469.8,210v-63.6Z"></path></g></g></svg> 