<?xml version="1.0" encoding="UTF-8"?> <svg xmlns="http://www.w3.org/2000/svg" xmlns:xlink="http://www.w3.org/1999/xlink" viewBox="0 0 1010.56 875.82"><defs><style>.cls-1{fill:url(#linear-gradient);}.cls-2{fill:url(#linear-gradient-2);}.cls-3{fill:url(#linear-gradient-3);}.cls-4{fill:url(#linear-gradient-4);}.cls-5{fill:url(#linear-gradient-5);}.cls-6{fill:url(#linear-gradient-6);}.cls-7{fill:#fcdcda;}.cls-8{fill:url(#linear-gradient-7);}.cls-9{fill:url(#linear-gradient-8);}.cls-10{fill:url(#linear-gradient-9);}.cls-11{fill:#fff;}.cls-12{fill:url(#linear-gradient-10);}.cls-13{fill:url(#linear-gradient-11);}.cls-14{fill:url(#linear-gradient-12);}.cls-15{fill:url(#linear-gradient-13);}.cls-16{fill:url(#linear-gradient-14);}.cls-17{fill:url(#linear-gradient-15);}.cls-18{fill:url(#linear-gradient-16);}.cls-19{fill:url(#linear-gradient-17);}.cls-20{fill:url(#linear-gradient-18);}.cls-21{fill:url(#linear-gradient-19);}.cls-22{fill:url(#linear-gradient-20);}.cls-23{fill:url(#linear-gradient-21);}.cls-24{fill:url(#linear-gradient-22);}.cls-25{fill:url(#linear-gradient-23);}.cls-26{fill:url(#linear-gradient-24);}.cls-27{fill:url(#linear-gradient-25);}.cls-28{font-size:31.58px;font-family:Montserrat-Bold, Montserrat Bold;font-weight:700;letter-spacing:0.01em;}.cls-28,.cls-29{fill:#ee2741;}.cls-30{fill:url(#linear-gradient-26);}.cls-31{fill:url(#linear-gradient-27);}.cls-32{fill:url(#linear-gradient-28);}.cls-33{fill:url(#linear-gradient-29);}.cls-34{fill:url(#linear-gradient-30);}.cls-35{fill:url(#linear-gradient-31);}.cls-36{fill:url(#linear-gradient-32);}</style><linearGradient id="linear-gradient" x1="386.14" y1="510.13" x2="1711.45" y2="510.13" gradientUnits="userSpaceOnUse"><stop offset="0.21" stop-color="#eb2942"></stop><stop offset="1" stop-color="#fcdcda"></stop></linearGradient><linearGradient id="linear-gradient-2" x1="193.07" y1="779.28" x2="736.98" y2="779.28" gradientUnits="userSpaceOnUse"><stop offset="0.21" stop-color="#3d2b57"></stop><stop offset="1" stop-color="#fcdcda"></stop></linearGradient><linearGradient id="linear-gradient-3" x1="193.07" y1="779.28" x2="386.14" y2="779.28" gradientUnits="userSpaceOnUse"><stop offset="0" stop-color="#a03594"></stop><stop offset="1" stop-color="#fcdcda"></stop></linearGradient><linearGradient id="linear-gradient-4" x1="887.18" y1="814.13" x2="1239.86" y2="814.13" xlink:href="#linear-gradient-3"></linearGradient><linearGradient id="linear-gradient-5" x1="763.81" y1="814.13" x2="1444.4" y2="814.13" gradientUnits="userSpaceOnUse"><stop offset="0" stop-color="#a03594"></stop><stop offset="1" stop-color="#ee2741"></stop></linearGradient><linearGradient id="linear-gradient-6" x1="193.07" y1="589.38" x2="386.14" y2="589.38" gradientUnits="userSpaceOnUse"><stop offset="0.16" stop-color="#b8d6dd"></stop><stop offset="1" stop-color="#fcdcda"></stop></linearGradient><linearGradient id="linear-gradient-7" x1="0" y1="779.28" x2="479.79" y2="779.28" xlink:href="#linear-gradient-3"></linearGradient><linearGradient id="linear-gradient-8" x1="865.51" y1="72.52" x2="1010.56" y2="72.52" xlink:href="#linear-gradient-5"></linearGradient><linearGradient id="linear-gradient-9" x1="887.21" y1="689.41" x2="1359.76" y2="699.67" xlink:href="#linear-gradient-3"></linearGradient><linearGradient id="linear-gradient-10" x1="418.88" y1="366.46" x2="485.01" y2="366.46" xlink:href="#linear-gradient-6"></linearGradient><linearGradient id="linear-gradient-11" x1="430.17" y1="365.75" x2="512.12" y2="365.75" xlink:href="#linear-gradient"></linearGradient><linearGradient id="linear-gradient-12" x1="438.95" y1="354.18" x2="474.15" y2="354.18" xlink:href="#linear-gradient-6"></linearGradient><linearGradient id="linear-gradient-13" x1="438.95" y1="359.61" x2="474.15" y2="359.61" xlink:href="#linear-gradient-6"></linearGradient><linearGradient id="linear-gradient-14" x1="438.95" y1="365.05" x2="474.15" y2="365.05" xlink:href="#linear-gradient-6"></linearGradient><linearGradient id="linear-gradient-15" x1="438.95" y1="370.49" x2="474.15" y2="370.49" xlink:href="#linear-gradient-6"></linearGradient><linearGradient id="linear-gradient-16" x1="447.66" y1="375.93" x2="472.84" y2="375.93" xlink:href="#linear-gradient-6"></linearGradient><linearGradient id="linear-gradient-17" x1="451.73" y1="381.36" x2="472.23" y2="381.36" xlink:href="#linear-gradient-6"></linearGradient><linearGradient id="linear-gradient-18" x1="456.09" y1="343.99" x2="471.57" y2="343.99" xlink:href="#linear-gradient-6"></linearGradient><linearGradient id="linear-gradient-19" x1="444.18" y1="386.8" x2="473.37" y2="386.8" xlink:href="#linear-gradient-6"></linearGradient><linearGradient id="linear-gradient-20" x1="418.88" y1="260.43" x2="485.01" y2="260.43" xlink:href="#linear-gradient-6"></linearGradient><linearGradient id="linear-gradient-21" x1="-5215.32" y1="2960.79" x2="-5191.75" y2="2960.79" gradientTransform="translate(5649.06 -2020.83) scale(1 0.77)" xlink:href="#linear-gradient"></linearGradient><linearGradient id="linear-gradient-22" x1="-10262.36" y1="-8313.42" x2="-10238.79" y2="-8313.42" gradientTransform="translate(10713.85 8573.85)" xlink:href="#linear-gradient"></linearGradient><linearGradient id="linear-gradient-23" x1="418.88" y1="578.89" x2="485.01" y2="578.89" xlink:href="#linear-gradient-6"></linearGradient><linearGradient id="linear-gradient-24" x1="427.41" y1="578.89" x2="493.69" y2="578.89" xlink:href="#linear-gradient"></linearGradient><linearGradient id="linear-gradient-25" x1="400.69" y1="578.89" x2="440.46" y2="578.89" gradientUnits="userSpaceOnUse"><stop offset="0" stop-color="#bad8df"></stop><stop offset="1" stop-color="#fcdcda"></stop></linearGradient><linearGradient id="linear-gradient-26" x1="418.88" y1="686.06" x2="485.01" y2="686.06" xlink:href="#linear-gradient-6"></linearGradient><linearGradient id="linear-gradient-27" x1="-5320.08" y1="1551.06" x2="-5275.1" y2="1551.06" gradientTransform="translate(3097.92 -4168.03) rotate(-45)" xlink:href="#linear-gradient"></linearGradient><linearGradient id="linear-gradient-28" x1="-5306.77" y1="1578.25" x2="-5297.32" y2="1578.25" gradientTransform="translate(5767.21 -880.31)" xlink:href="#linear-gradient"></linearGradient><linearGradient id="linear-gradient-29" x1="418.88" y1="472.49" x2="485.01" y2="472.49" xlink:href="#linear-gradient-6"></linearGradient><linearGradient id="linear-gradient-30" x1="3231.93" y1="5705.18" x2="3258.16" y2="5705.18" gradientTransform="matrix(0.56, 0, 0, 0.56, -1349.19, -2697.85)" xlink:href="#linear-gradient"></linearGradient><linearGradient id="linear-gradient-31" x1="3231.36" y1="5678.9" x2="3260.03" y2="5678.9" gradientTransform="matrix(0.36, 0.42, -0.42, 0.36, 1670.73, -2965.25)" xlink:href="#linear-gradient"></linearGradient><linearGradient id="linear-gradient-32" x1="427.41" y1="472.48" x2="531.54" y2="472.48" xlink:href="#linear-gradient"></linearGradient></defs><g id="Layer_2" data-name="Layer 2"><g id="Copy"><path class="cls-1" d="M458.87,144.45h551.69a0,0,0,0,1,0,0v587.6A143.76,143.76,0,0,1,866.8,875.82H386.14a0,0,0,0,1,0,0V217.18A72.73,72.73,0,0,1,458.87,144.45Z"></path><rect class="cls-2" x="193.07" y="682.75" width="193.07" height="193.07"></rect><polygon class="cls-3" points="193.07 682.75 386.14 682.75 193.07 875.82 193.07 682.75"></polygon><path class="cls-4" d="M887.18,752.44h123.38a0,0,0,0,1,0,0v0A123.38,123.38,0,0,1,887.18,875.82h0a0,0,0,0,1,0,0V752.44A0,0,0,0,1,887.18,752.44Z"></path><path class="cls-5" d="M887.18,752.44h0a0,0,0,0,1,0,0V875.82a0,0,0,0,1,0,0H763.81a0,0,0,0,1,0,0v0A123.38,123.38,0,0,1,887.18,752.44Z"></path><path class="cls-6" d="M354.56,492.85h31.57a0,0,0,0,1,0,0V685.92a0,0,0,0,1,0,0H193.07a0,0,0,0,1,0,0V654.34A161.5,161.5,0,0,1,354.56,492.85Z"></path><path class="cls-7" d="M351.2,551.75h34.93a0,0,0,0,1,0,0V685.92a0,0,0,0,1,0,0H252a0,0,0,0,1,0,0V651A99.24,99.24,0,0,1,351.2,551.75Z"></path><path class="cls-8" d="M193.07,682.75V875.82H0a192.43,192.43,0,0,0,136.52-56.55A192.47,192.47,0,0,0,193.07,682.75Z"></path><path class="cls-9" d="M1010.56,0V145.05h-145a144.6,144.6,0,0,0,102.57-42.49A144.55,144.55,0,0,0,1010.56,0Z"></path><path class="cls-10" d="M1010.56,629.06V752.44H887.18a123.39,123.39,0,0,0,123.38-123.38Z"></path><path class="cls-11" d="M512.67,246.65V230.3l2.21,2.13h-5.59v-4h8.53v18.2Z"></path><path class="cls-11" d="M523.2,246.89a3,3,0,0,1-2.11-.83,2.83,2.83,0,0,1-.85-2.11,2.76,2.76,0,0,1,.85-2.12,3.21,3.21,0,0,1,4.22,0,2.76,2.76,0,0,1,.85,2.12,2.83,2.83,0,0,1-.85,2.11A3,3,0,0,1,523.2,246.89Z"></path><path class="cls-11" d="M536,246.65v-18.2h8.32a10.44,10.44,0,0,1,4.3.81,6.27,6.27,0,0,1,2.8,2.33,6.51,6.51,0,0,1,1,3.6,6,6,0,0,1-3.78,5.84,10.79,10.79,0,0,1-4.3.79h-5.46l2.29-2.16v7Zm5.15-6.44-2.29-2.37H544a3.53,3.53,0,0,0,2.4-.7,2.47,2.47,0,0,0,.79-1.95,2.5,2.5,0,0,0-.79-2,3.53,3.53,0,0,0-2.4-.7h-5.15l2.29-2.37Zm6.11,6.44L542.75,240h5.49l4.55,6.63Z"></path><path class="cls-11" d="M557.36,231a3.12,3.12,0,0,1-2.18-.75,2.53,2.53,0,0,1,0-3.75,3.12,3.12,0,0,1,2.18-.75,3.23,3.23,0,0,1,2.19.72,2.3,2.3,0,0,1,.83,1.83,2.51,2.51,0,0,1-.82,1.93A3,3,0,0,1,557.36,231Zm-2.47,15.65V232.56h4.94v14.09Z"></path><path class="cls-11" d="M568.93,245.93a7.21,7.21,0,0,1-3.44-.85,6.57,6.57,0,0,1-2.52-2.36,7.32,7.32,0,0,1,0-7.21,6.54,6.54,0,0,1,2.52-2.35,7.31,7.31,0,0,1,3.44-.83A6.25,6.25,0,0,1,572,233a4.55,4.55,0,0,1,1.94,2.23,11.53,11.53,0,0,1,0,7.69A4.62,4.62,0,0,1,572,245.2,6.14,6.14,0,0,1,568.93,245.93Zm.86,6a15.18,15.18,0,0,1-3.86-.47,9.55,9.55,0,0,1-3.13-1.37l1.79-3.46a6.58,6.58,0,0,0,2.2,1.1,8.65,8.65,0,0,0,2.56.41,4,4,0,0,0,2.88-.88,3.39,3.39,0,0,0,.89-2.53v-1.66l.26-4,0-4v-2.58h4.71v11.52q0,4-2.16,5.93A8.88,8.88,0,0,1,569.79,251.93Zm.31-9.93a3.38,3.38,0,0,0,1.58-.36,2.89,2.89,0,0,0,1.09-1,3,3,0,0,0,0-3,2.69,2.69,0,0,0-1.09-1,3.65,3.65,0,0,0-3.16,0,2.62,2.62,0,0,0-1.11,1,3,3,0,0,0,0,3,2.8,2.8,0,0,0,1.11,1A3.38,3.38,0,0,0,570.1,242Z"></path><path class="cls-11" d="M590.28,232.33a6.54,6.54,0,0,1,3,.66,4.86,4.86,0,0,1,2.1,2,7.31,7.31,0,0,1,.76,3.56v8.06h-4.94V239.4a3.27,3.27,0,0,0-.61-2.2,2.15,2.15,0,0,0-1.7-.69,3,3,0,0,0-1.43.35,2.54,2.54,0,0,0-1,1.08,4.32,4.32,0,0,0-.36,1.9v6.81H581.1V227.36H586v9.21l-1.14-1.17a5.37,5.37,0,0,1,2.21-2.31A6.49,6.49,0,0,1,590.28,232.33Z"></path><path class="cls-11" d="M597.58,236.77v-3.69H607.8v3.69Zm7.78,10.12a6.13,6.13,0,0,1-4.21-1.34,5.11,5.11,0,0,1-1.51-4V229.42h4.94v12a1.67,1.67,0,0,0,.41,1.19,1.46,1.46,0,0,0,1.07.43,2.52,2.52,0,0,0,1.51-.45l1.22,3.46a4.34,4.34,0,0,1-1.53.61A9.07,9.07,0,0,1,605.36,246.89Z"></path><path class="cls-11" d="M616.51,236.77v-3.69h10.22v3.69Zm7.78,10.12a6.16,6.16,0,0,1-4.22-1.34,5.14,5.14,0,0,1-1.5-4V229.42h4.94v12a1.63,1.63,0,0,0,.41,1.19,1.45,1.45,0,0,0,1.07.43,2.52,2.52,0,0,0,1.51-.45l1.22,3.46a4.42,4.42,0,0,1-1.53.61A9.07,9.07,0,0,1,624.29,246.89Z"></path><path class="cls-11" d="M636.14,246.89A8.64,8.64,0,0,1,632,246a6.94,6.94,0,0,1-3.85-6.37,7,7,0,0,1,1-3.77,7.16,7.16,0,0,1,2.83-2.56,9.64,9.64,0,0,1,8.22,0,6.87,6.87,0,0,1,3.84,6.33,7,7,0,0,1-1,3.78,6.86,6.86,0,0,1-2.82,2.59A8.72,8.72,0,0,1,636.14,246.89Zm0-3.93a2.94,2.94,0,0,0,1.52-.39,2.66,2.66,0,0,0,1.06-1.16,4,4,0,0,0,.39-1.83,3.8,3.8,0,0,0-.39-1.8,2.73,2.73,0,0,0-1.06-1.14,2.94,2.94,0,0,0-1.52-.39,2.8,2.8,0,0,0-2.56,1.53,3.68,3.68,0,0,0-.4,1.8,3.86,3.86,0,0,0,.4,1.83,2.81,2.81,0,0,0,1.07,1.16A2.88,2.88,0,0,0,636.14,243Z"></path><path class="cls-11" d="M657.62,246.65l-5.8-14.09h5.07l4.63,11.78H659l4.86-11.78h4.71l-5.83,14.09Z"></path><path class="cls-11" d="M676.36,246.89a8.64,8.64,0,0,1-4.1-.94,6.94,6.94,0,0,1-3.85-6.37,7,7,0,0,1,1-3.77,7.16,7.16,0,0,1,2.83-2.56,9.64,9.64,0,0,1,8.22,0,6.87,6.87,0,0,1,3.84,6.33,7,7,0,0,1-1,3.78,6.86,6.86,0,0,1-2.82,2.59A8.72,8.72,0,0,1,676.36,246.89Zm0-3.93a2.91,2.91,0,0,0,1.52-.39,2.66,2.66,0,0,0,1.06-1.16,4,4,0,0,0,.39-1.83,3.8,3.8,0,0,0-.39-1.8,2.73,2.73,0,0,0-1.06-1.14,2.91,2.91,0,0,0-1.52-.39,2.8,2.8,0,0,0-2.56,1.53,3.68,3.68,0,0,0-.4,1.8,3.86,3.86,0,0,0,.4,1.83,2.81,2.81,0,0,0,1.07,1.16A2.88,2.88,0,0,0,676.36,243Z"></path><path class="cls-11" d="M685,236.77v-3.69h10.22v3.69Zm7.78,10.12a6.13,6.13,0,0,1-4.21-1.34,5.11,5.11,0,0,1-1.51-4V229.42H692v12a1.67,1.67,0,0,0,.41,1.19,1.46,1.46,0,0,0,1.07.43,2.52,2.52,0,0,0,1.51-.45l1.22,3.46a4.34,4.34,0,0,1-1.53.61A9.07,9.07,0,0,1,692.77,246.89Z"></path><path class="cls-11" d="M704.94,246.89a9.5,9.5,0,0,1-4.36-.95,7.06,7.06,0,0,1-2.88-2.6,6.92,6.92,0,0,1-1-3.76,7.12,7.12,0,0,1,1-3.76,6.94,6.94,0,0,1,2.77-2.57,9,9,0,0,1,7.77-.08,6.5,6.5,0,0,1,2.73,2.49,7.35,7.35,0,0,1,1,4q0,.27,0,.6c0,.23,0,.43,0,.63H700.72v-2.6h8.53l-1.87.72a3.25,3.25,0,0,0-.35-1.66,2.73,2.73,0,0,0-1-1.09,3,3,0,0,0-1.55-.39,3,3,0,0,0-1.54.39,2.67,2.67,0,0,0-1,1.1,3.71,3.71,0,0,0-.36,1.68v.75a3.63,3.63,0,0,0,.42,1.8,2.9,2.9,0,0,0,1.24,1.16,4.38,4.38,0,0,0,1.92.4,4.79,4.79,0,0,0,1.79-.3,5.45,5.45,0,0,0,1.46-.92l2.6,2.7a6.43,6.43,0,0,1-2.49,1.7A9.55,9.55,0,0,1,704.94,246.89Z"></path><path class="cls-11" d="M728.62,246.89a8.64,8.64,0,0,1-4.1-.94,6.94,6.94,0,0,1-3.85-6.37,7,7,0,0,1,1-3.77,7.16,7.16,0,0,1,2.83-2.56,9.64,9.64,0,0,1,8.22,0,6.87,6.87,0,0,1,3.84,6.33,7,7,0,0,1-1,3.78,6.86,6.86,0,0,1-2.82,2.59A8.72,8.72,0,0,1,728.62,246.89Zm0-3.93a2.91,2.91,0,0,0,1.52-.39,2.66,2.66,0,0,0,1.06-1.16,4,4,0,0,0,.39-1.83,3.8,3.8,0,0,0-.39-1.8,2.73,2.73,0,0,0-1.06-1.14,2.91,2.91,0,0,0-1.52-.39,2.8,2.8,0,0,0-2.56,1.53,3.68,3.68,0,0,0-.4,1.8,3.86,3.86,0,0,0,.4,1.83,2.81,2.81,0,0,0,1.07,1.16A2.88,2.88,0,0,0,728.62,243Z"></path><path class="cls-11" d="M747.91,232.33a6.58,6.58,0,0,1,3,.66,4.83,4.83,0,0,1,2.09,2,7.31,7.31,0,0,1,.77,3.56v8.06H748.8V239.4a3.27,3.27,0,0,0-.61-2.2,2.17,2.17,0,0,0-1.71-.69,3,3,0,0,0-1.43.35,2.46,2.46,0,0,0-1,1.08,4.32,4.32,0,0,0-.36,1.9v6.81h-4.94V232.56h4.7v4l-.91-1.17a5.49,5.49,0,0,1,2.21-2.31A6.54,6.54,0,0,1,747.91,232.33Z"></path><path class="cls-11" d="M768.58,246.89a6.51,6.51,0,0,1-2.86-.57,4.33,4.33,0,0,1-1.78-1.56,4.2,4.2,0,0,1-.61-2.21,3.77,3.77,0,0,1,.67-2.25,4.09,4.09,0,0,1,2-1.46,10.41,10.41,0,0,1,3.56-.51h3.33v2.58h-2.66a2.71,2.71,0,0,0-1.67.39,1.36,1.36,0,0,0,0,2.08,2.13,2.13,0,0,0,1.35.39,2.76,2.76,0,0,0,1.47-.41,2.35,2.35,0,0,0,1-1.23l.67,1.82a3.68,3.68,0,0,1-1.52,2.2A5.39,5.39,0,0,1,768.58,246.89Zm4.16-.24V244l-.33-.65v-4.84a2.3,2.3,0,0,0-.72-1.81,3.38,3.38,0,0,0-2.27-.63,7.07,7.07,0,0,0-2.06.32,5.67,5.67,0,0,0-1.77.9L763.93,234a9.51,9.51,0,0,1,2.87-1.21,13.31,13.31,0,0,1,3.34-.43,8.06,8.06,0,0,1,5.32,1.57,6.05,6.05,0,0,1,1.89,4.93v7.82Z"></path><path class="cls-11" d="M780.34,246.65V227.36h4.94v19.29Z"></path><path class="cls-11" d="M788.34,246.65V227.36h4.94v19.29Z"></path><path class="cls-11" d="M822.14,232.33a6.35,6.35,0,0,1,2.93.66,4.76,4.76,0,0,1,2,2,7.56,7.56,0,0,1,.74,3.56v8.06H822.9V239.4a3.39,3.39,0,0,0-.58-2.2,1.91,1.91,0,0,0-1.55-.69,2.52,2.52,0,0,0-1.28.34,2.19,2.19,0,0,0-.88,1,4.31,4.31,0,0,0-.31,1.78v7h-4.94V239.4a3.52,3.52,0,0,0-.56-2.2,1.93,1.93,0,0,0-1.58-.69,2.47,2.47,0,0,0-1.28.34,2.32,2.32,0,0,0-.89,1,4.14,4.14,0,0,0-.32,1.78v7h-4.94V232.56h4.7v3.93l-.93-1.12a5.41,5.41,0,0,1,2.13-2.28,6,6,0,0,1,3-.76,5.85,5.85,0,0,1,3.34,1,4.84,4.84,0,0,1,1.93,3l-1.61-.34a5.94,5.94,0,0,1,2.28-2.69A6.32,6.32,0,0,1,822.14,232.33Z"></path><path class="cls-11" d="M835.27,246.89a6.51,6.51,0,0,1-2.86-.57,4.33,4.33,0,0,1-1.78-1.56,4.11,4.11,0,0,1-.61-2.21,3.83,3.83,0,0,1,.66-2.25,4.18,4.18,0,0,1,2-1.46,10.47,10.47,0,0,1,3.57-.51h3.33v2.58H837a2.71,2.71,0,0,0-1.67.39,1.24,1.24,0,0,0-.49,1,1.27,1.27,0,0,0,.5,1,2.13,2.13,0,0,0,1.35.39,2.76,2.76,0,0,0,1.47-.41,2.29,2.29,0,0,0,1-1.23l.68,1.82a3.68,3.68,0,0,1-1.52,2.2A5.39,5.39,0,0,1,835.27,246.89Zm4.16-.24V244l-.34-.65v-4.84a2.29,2.29,0,0,0-.71-1.81,3.4,3.4,0,0,0-2.27-.63,7.07,7.07,0,0,0-2.06.32,5.67,5.67,0,0,0-1.77.9L830.62,234a9.4,9.4,0,0,1,2.87-1.21,13.25,13.25,0,0,1,3.34-.43,8.08,8.08,0,0,1,5.32,1.57,6.05,6.05,0,0,1,1.89,4.93v7.82Z"></path><path class="cls-11" d="M845.54,236.77v-3.69h10.22v3.69Zm7.78,10.12a6.11,6.11,0,0,1-4.21-1.34,5.11,5.11,0,0,1-1.51-4V229.42h4.94v12a1.67,1.67,0,0,0,.41,1.19,1.46,1.46,0,0,0,1.07.43,2.52,2.52,0,0,0,1.51-.45l1.22,3.46a4.39,4.39,0,0,1-1.54.61A9,9,0,0,1,853.32,246.89Z"></path><path class="cls-11" d="M856.75,236.77v-3.69H867v3.69Zm7.77,10.12a6.15,6.15,0,0,1-4.21-1.34,5.14,5.14,0,0,1-1.51-4V229.42h4.94v12a1.63,1.63,0,0,0,.42,1.19,1.45,1.45,0,0,0,1.07.43,2.49,2.49,0,0,0,1.5-.45l1.23,3.46a4.39,4.39,0,0,1-1.54.61A9.07,9.07,0,0,1,864.52,246.89Z"></path><path class="cls-11" d="M876.69,246.89a9.48,9.48,0,0,1-4.35-.95,7.09,7.09,0,0,1-2.89-2.6,7,7,0,0,1-1-3.76,7.13,7.13,0,0,1,1-3.76,6.91,6.91,0,0,1,2.76-2.57,9,9,0,0,1,7.78-.08,6.62,6.62,0,0,1,2.73,2.49,7.34,7.34,0,0,1,1,4c0,.18,0,.38,0,.6s0,.43-.06.63H872.48v-2.6H881l-1.87.72a3.36,3.36,0,0,0-.35-1.66,2.8,2.8,0,0,0-1-1.09,3.28,3.28,0,0,0-3.1,0,2.65,2.65,0,0,0-1,1.1,3.59,3.59,0,0,0-.37,1.68v.75a3.53,3.53,0,0,0,.43,1.8,2.88,2.88,0,0,0,1.23,1.16,4.4,4.4,0,0,0,1.93.4,4.77,4.77,0,0,0,1.78-.3,5.65,5.65,0,0,0,1.47-.92l2.6,2.7a6.54,6.54,0,0,1-2.5,1.7A9.52,9.52,0,0,1,876.69,246.89Z"></path><path class="cls-11" d="M885.87,246.65V232.56h4.71v4.11l-.7-1.17a4.53,4.53,0,0,1,2-2.38,6.82,6.82,0,0,1,3.41-.79v4.44l-.59-.06h-.53a3.59,3.59,0,0,0-2.44.81,3.37,3.37,0,0,0-.94,2.67v6.47Z"></path><path class="cls-11" d="M902.38,246.89a14.58,14.58,0,0,1-3.5-.42,9.94,9.94,0,0,1-2.74-1l1.48-3.38a8.6,8.6,0,0,0,2.32.95,10.28,10.28,0,0,0,2.6.35,3.85,3.85,0,0,0,1.72-.26.79.79,0,0,0,.49-.7.65.65,0,0,0-.46-.61,4.74,4.74,0,0,0-1.2-.3l-1.62-.23c-.59-.09-1.18-.21-1.78-.35a6,6,0,0,1-1.64-.68,3.35,3.35,0,0,1-1.18-1.24,4.3,4.3,0,0,1,.35-4.38,5.26,5.26,0,0,1,2.33-1.66,10.07,10.07,0,0,1,3.74-.61,15.41,15.41,0,0,1,3,.3,8.52,8.52,0,0,1,2.56.89l-1.48,3.36a7.2,7.2,0,0,0-2.08-.82,9.31,9.31,0,0,0-2-.22,3.86,3.86,0,0,0-1.75.28.84.84,0,0,0-.51.71.68.68,0,0,0,.45.63,4,4,0,0,0,1.18.34c.49.08,1,.16,1.62.23a14,14,0,0,1,1.78.36,5.85,5.85,0,0,1,1.64.68,3.51,3.51,0,0,1,1.19,1.23,3.92,3.92,0,0,1,.44,2,3.75,3.75,0,0,1-.8,2.34,5.26,5.26,0,0,1-2.34,1.66A10.19,10.19,0,0,1,902.38,246.89Z"></path><path class="cls-11" d="M917.3,236.77v-3.69h10.22v3.69Zm7.78,10.12a6.11,6.11,0,0,1-4.21-1.34,5.11,5.11,0,0,1-1.51-4V229.42h4.94v12a1.67,1.67,0,0,0,.41,1.19,1.46,1.46,0,0,0,1.07.43,2.52,2.52,0,0,0,1.51-.45l1.22,3.46a4.39,4.39,0,0,1-1.54.61A9,9,0,0,1,925.08,246.89Z"></path><path class="cls-11" d="M939.46,232.33a6.54,6.54,0,0,1,3,.66,4.83,4.83,0,0,1,2.09,2,7.31,7.31,0,0,1,.77,3.56v8.06h-4.94V239.4a3.32,3.32,0,0,0-.61-2.2,2.16,2.16,0,0,0-1.7-.69,3,3,0,0,0-1.43.35,2.43,2.43,0,0,0-1,1.08,4.32,4.32,0,0,0-.36,1.9v6.81h-4.94V227.36h4.94v9.21l-1.15-1.17a5.49,5.49,0,0,1,2.21-2.31A6.56,6.56,0,0,1,939.46,232.33Z"></path><path class="cls-11" d="M952.69,246.89a6.48,6.48,0,0,1-2.86-.57,4.33,4.33,0,0,1-1.78-1.56,4.11,4.11,0,0,1-.61-2.21,3.83,3.83,0,0,1,.66-2.25,4.09,4.09,0,0,1,2-1.46,10.45,10.45,0,0,1,3.56-.51H957v2.58h-2.65a2.73,2.73,0,0,0-1.68.39,1.36,1.36,0,0,0,0,2.08,2.14,2.14,0,0,0,1.36.39,2.81,2.81,0,0,0,1.47-.41,2.33,2.33,0,0,0,1-1.23l.68,1.82a3.68,3.68,0,0,1-1.52,2.2A5.41,5.41,0,0,1,952.69,246.89Zm4.16-.24V244l-.34-.65v-4.84a2.33,2.33,0,0,0-.71-1.81,3.41,3.41,0,0,0-2.28-.63,7.06,7.06,0,0,0-2,.32,5.46,5.46,0,0,0-1.77.9L948,234a9.3,9.3,0,0,1,2.87-1.21,13.25,13.25,0,0,1,3.34-.43,8.08,8.08,0,0,1,5.32,1.57,6.08,6.08,0,0,1,1.88,4.93v7.82Z"></path><path class="cls-11" d="M963,236.77v-3.69h10.22v3.69Zm7.77,10.12a6.15,6.15,0,0,1-4.21-1.34,5.14,5.14,0,0,1-1.51-4V229.42H970v12a1.63,1.63,0,0,0,.42,1.19,1.45,1.45,0,0,0,1.07.43,2.49,2.49,0,0,0,1.5-.45l1.22,3.46a4.26,4.26,0,0,1-1.53.61A9.07,9.07,0,0,1,970.73,246.89Z"></path><path class="cls-11" d="M510.72,277.85V263.76h4.71v4.11l-.71-1.17a4.59,4.59,0,0,1,2-2.38,6.82,6.82,0,0,1,3.41-.79V268l-.59-.06H519a3.55,3.55,0,0,0-2.44.82,3.33,3.33,0,0,0-.94,2.66v6.47Z"></path><path class="cls-11" d="M529.31,278.09a9.48,9.48,0,0,1-4.35-.95,7.09,7.09,0,0,1-2.89-2.6,6.92,6.92,0,0,1-1-3.76,7.15,7.15,0,0,1,1-3.75,6.9,6.9,0,0,1,2.77-2.58,9,9,0,0,1,7.78-.08,6.62,6.62,0,0,1,2.73,2.49,7.43,7.43,0,0,1,1,4q0,.27,0,.6c0,.23,0,.44,0,.63H525.1v-2.6h8.53l-1.88.72a3.25,3.25,0,0,0-.35-1.66,2.73,2.73,0,0,0-1-1.09,3,3,0,0,0-1.54-.39,3,3,0,0,0-1.55.39,2.67,2.67,0,0,0-1,1.1,3.71,3.71,0,0,0-.36,1.68V271a3.53,3.53,0,0,0,.43,1.8,2.74,2.74,0,0,0,1.23,1.15,4.26,4.26,0,0,0,1.93.41,4.77,4.77,0,0,0,1.78-.3,5.65,5.65,0,0,0,1.47-.92l2.6,2.7a6.54,6.54,0,0,1-2.5,1.7A9.55,9.55,0,0,1,529.31,278.09Z"></path><path class="cls-11" d="M544.52,278.09a7,7,0,0,1-3.48-.89,6.4,6.4,0,0,1-2.51-2.52,8.58,8.58,0,0,1,0-7.73,6.49,6.49,0,0,1,2.51-2.53,7,7,0,0,1,3.48-.89,5.89,5.89,0,0,1,3.17.78,4.62,4.62,0,0,1,1.87,2.38,11.36,11.36,0,0,1,.63,4.12,10.8,10.8,0,0,1-.66,4.09,5,5,0,0,1-1.93,2.4A5.75,5.75,0,0,1,544.52,278.09Zm1-3.93a2.92,2.92,0,0,0,1.5-.39,2.86,2.86,0,0,0,1.06-1.14,4.24,4.24,0,0,0,0-3.64,2.82,2.82,0,0,0-1.06-1.15,2.92,2.92,0,0,0-1.5-.39,2.88,2.88,0,0,0-1.49.39A2.78,2.78,0,0,0,543,269a4.34,4.34,0,0,0,0,3.64,2.81,2.81,0,0,0,1.07,1.14A2.88,2.88,0,0,0,545.56,274.16Zm2.89,8.74v-7.41l.26-4.68,0-4.66v-2.39h4.71V282.9Z"></path><path class="cls-11" d="M562.36,278.09a6.84,6.84,0,0,1-3.08-.68,4.82,4.82,0,0,1-2.14-2.12,7.75,7.75,0,0,1-.76-3.65v-7.88h4.94v7.07a3.51,3.51,0,0,0,.61,2.34,2.15,2.15,0,0,0,1.73.71,2.7,2.7,0,0,0,1.32-.34,2.43,2.43,0,0,0,1-1.08,4.22,4.22,0,0,0,.37-1.91v-6.79h4.94v14.09h-4.71v-4l.91,1.11a4.94,4.94,0,0,1-2.1,2.33A6.08,6.08,0,0,1,562.36,278.09Z"></path><path class="cls-11" d="M576.76,262.2a3.12,3.12,0,0,1-2.18-.75,2.51,2.51,0,0,1,0-3.75,3.12,3.12,0,0,1,2.18-.75,3.25,3.25,0,0,1,2.18.71,2.31,2.31,0,0,1,.84,1.84,2.58,2.58,0,0,1-.82,1.94A3.1,3.1,0,0,1,576.76,262.2Zm-2.47,15.65V263.76h4.94v14.09Z"></path><path class="cls-11" d="M582.3,277.85V263.76H587v4.11l-.7-1.17a4.55,4.55,0,0,1,2-2.38,6.79,6.79,0,0,1,3.4-.79V268l-.58-.06h-.53a3.58,3.58,0,0,0-2.45.82,3.37,3.37,0,0,0-.93,2.66v6.47Z"></path><path class="cls-11" d="M600.89,278.09a9.5,9.5,0,0,1-4.36-.95,7.16,7.16,0,0,1-2.89-2.6,7.49,7.49,0,0,1,0-7.51,6.9,6.9,0,0,1,2.77-2.58,9,9,0,0,1,7.77-.08,6.5,6.5,0,0,1,2.73,2.49,7.35,7.35,0,0,1,1,4q0,.27,0,.6c0,.23,0,.44,0,.63H596.67v-2.6h8.53l-1.87.72a3.25,3.25,0,0,0-.35-1.66,2.73,2.73,0,0,0-1-1.09,3,3,0,0,0-1.55-.39,3,3,0,0,0-1.54.39,2.61,2.61,0,0,0-1,1.1,3.71,3.71,0,0,0-.36,1.68V271a3.63,3.63,0,0,0,.42,1.8,2.82,2.82,0,0,0,1.24,1.15,4.25,4.25,0,0,0,1.92.41,4.7,4.7,0,0,0,1.78-.3,5.34,5.34,0,0,0,1.47-.92l2.6,2.7a6.51,6.51,0,0,1-2.49,1.7A9.55,9.55,0,0,1,600.89,278.09Z"></path><path class="cls-11" d="M616,268v-3.69h10.22V268Zm7.77,10.12a6.15,6.15,0,0,1-4.21-1.34,5.11,5.11,0,0,1-1.51-4V260.62H623v12a1.63,1.63,0,0,0,.42,1.19,1.44,1.44,0,0,0,1.06.43,2.5,2.5,0,0,0,1.51-.45l1.22,3.46a4.26,4.26,0,0,1-1.53.61A9.07,9.07,0,0,1,623.79,278.09Z"></path><path class="cls-11" d="M638.17,263.53a6.54,6.54,0,0,1,3,.66,4.8,4.8,0,0,1,2.1,2,7.31,7.31,0,0,1,.76,3.56v8.06h-4.94V270.6a3.25,3.25,0,0,0-.61-2.2,2.14,2.14,0,0,0-1.7-.69,2.89,2.89,0,0,0-1.43.36,2.39,2.39,0,0,0-1,1.07,4.17,4.17,0,0,0-.37,1.9v6.81H629V258.56h4.94v9.21l-1.14-1.17a5.35,5.35,0,0,1,2.21-2.3A6.41,6.41,0,0,1,638.17,263.53Z"></path><path class="cls-11" d="M654.52,278.09a9.48,9.48,0,0,1-4.35-.95,7.16,7.16,0,0,1-2.89-2.6,7.49,7.49,0,0,1,0-7.51,6.83,6.83,0,0,1,2.77-2.58,9,9,0,0,1,7.77-.08,6.62,6.62,0,0,1,2.73,2.49,7.35,7.35,0,0,1,1,4q0,.27,0,.6c0,.23,0,.44,0,.63H650.31v-2.6h8.53l-1.87.72a3.36,3.36,0,0,0-.35-1.66,2.73,2.73,0,0,0-1-1.09,3.28,3.28,0,0,0-3.1,0,2.65,2.65,0,0,0-1,1.1,3.59,3.59,0,0,0-.37,1.68V271a3.53,3.53,0,0,0,.43,1.8,2.82,2.82,0,0,0,1.24,1.15,4.22,4.22,0,0,0,1.92.41,4.73,4.73,0,0,0,1.78-.3,5.34,5.34,0,0,0,1.47-.92l2.6,2.7a6.58,6.58,0,0,1-2.49,1.7A9.57,9.57,0,0,1,654.52,278.09Z"></path><path class="cls-11" d="M666.17,262.2a3.12,3.12,0,0,1-2.18-.75,2.53,2.53,0,0,1,0-3.75,3.12,3.12,0,0,1,2.18-.75,3.29,3.29,0,0,1,2.19.71,2.33,2.33,0,0,1,.83,1.84,2.55,2.55,0,0,1-.82,1.94A3.1,3.1,0,0,1,666.17,262.2Zm-2.47,15.65V263.76h4.94v14.09Z"></path><path class="cls-11" d="M671.71,277.85V263.76h4.71v4.11l-.71-1.17a4.59,4.59,0,0,1,2-2.38,6.82,6.82,0,0,1,3.41-.79V268l-.59-.06H680a3.55,3.55,0,0,0-2.44.82,3.33,3.33,0,0,0-.94,2.66v6.47Z"></path><path class="cls-11" d="M697.73,278.09a9,9,0,0,1-4.17-.94,7.11,7.11,0,0,1-2.87-2.58,7,7,0,0,1-1-3.79,6.91,6.91,0,0,1,1-3.77,7.14,7.14,0,0,1,2.87-2.56,9.2,9.2,0,0,1,4.17-.92,8.14,8.14,0,0,1,4.14,1,5.66,5.66,0,0,1,2.47,2.86l-3.82,2a3.47,3.47,0,0,0-1.22-1.44,3,3,0,0,0-1.59-.46,3.17,3.17,0,0,0-1.56.39A2.77,2.77,0,0,0,695,269a3.8,3.8,0,0,0-.4,1.8,4,4,0,0,0,.4,1.85,2.77,2.77,0,0,0,1.11,1.14,3.17,3.17,0,0,0,1.56.39,3,3,0,0,0,1.59-.45,3.57,3.57,0,0,0,1.22-1.45l3.82,1.95a5.62,5.62,0,0,1-2.47,2.86A8,8,0,0,1,697.73,278.09Z"></path><path class="cls-11" d="M713,278.09a8.65,8.65,0,0,1-4.11-.94,7,7,0,0,1-3.85-6.37,6.9,6.9,0,0,1,1-3.77,7.06,7.06,0,0,1,2.82-2.56,8.89,8.89,0,0,1,4.11-.92,9,9,0,0,1,4.12.92,7.06,7.06,0,0,1,2.82,2.56,7,7,0,0,1,1,3.77,6.89,6.89,0,0,1-3.83,6.37A8.78,8.78,0,0,1,713,278.09Zm0-3.93a2.94,2.94,0,0,0,1.52-.39,2.74,2.74,0,0,0,1.05-1.15,4.06,4.06,0,0,0,.39-1.84,3.8,3.8,0,0,0-.39-1.8,2.77,2.77,0,0,0-1.05-1.14,2.94,2.94,0,0,0-1.52-.39,2.89,2.89,0,0,0-1.5.39,2.79,2.79,0,0,0-1.06,1.14,3.68,3.68,0,0,0-.41,1.8,3.93,3.93,0,0,0,.41,1.84,2.76,2.76,0,0,0,1.06,1.15A2.89,2.89,0,0,0,713,274.16Z"></path><path class="cls-11" d="M732.29,263.53a6.54,6.54,0,0,1,3,.66,4.86,4.86,0,0,1,2.1,2,7.31,7.31,0,0,1,.76,3.56v8.06h-4.94V270.6a3.25,3.25,0,0,0-.61-2.2,2.15,2.15,0,0,0-1.7-.69,2.89,2.89,0,0,0-1.43.36,2.41,2.41,0,0,0-1,1.07,4.32,4.32,0,0,0-.36,1.9v6.81h-4.94V263.76h4.71v4l-.91-1.17a5.29,5.29,0,0,1,2.21-2.3A6.39,6.39,0,0,1,732.29,263.53Z"></path><path class="cls-11" d="M746.2,278.09a14.58,14.58,0,0,1-3.5-.42,9.52,9.52,0,0,1-2.74-1l1.48-3.38a8.66,8.66,0,0,0,2.31.95,9.91,9.91,0,0,0,2.6.35,3.87,3.87,0,0,0,1.73-.26.77.77,0,0,0,.48-.7.64.64,0,0,0-.45-.61,4.86,4.86,0,0,0-1.2-.3l-1.62-.23c-.59-.09-1.18-.21-1.78-.35a5.85,5.85,0,0,1-1.64-.68,3.35,3.35,0,0,1-1.18-1.24,4.24,4.24,0,0,1,.35-4.38,5.23,5.23,0,0,1,2.32-1.66,10.12,10.12,0,0,1,3.75-.61,15.41,15.41,0,0,1,3,.3,8.52,8.52,0,0,1,2.56.89l-1.48,3.36a7.2,7.2,0,0,0-2.08-.82,9.31,9.31,0,0,0-2-.22,3.86,3.86,0,0,0-1.75.28.84.84,0,0,0-.51.71.69.69,0,0,0,.44.63,4.15,4.15,0,0,0,1.19.34c.49.08,1,.16,1.62.23a14.4,14.4,0,0,1,1.78.36,5.58,5.58,0,0,1,1.64.69,3.29,3.29,0,0,1,1.18,1.22,3.82,3.82,0,0,1,.45,2,3.75,3.75,0,0,1-.8,2.34,5.38,5.38,0,0,1-2.34,1.66A10.19,10.19,0,0,1,746.2,278.09Z"></path><path class="cls-11" d="M762.55,278.09a9.48,9.48,0,0,1-4.35-.95,7.09,7.09,0,0,1-2.89-2.6,7.42,7.42,0,0,1,0-7.51,6.87,6.87,0,0,1,2.76-2.58,9,9,0,0,1,7.78-.08,6.62,6.62,0,0,1,2.73,2.49,7.43,7.43,0,0,1,1,4c0,.18,0,.38,0,.6s0,.44-.06.63H758.34v-2.6h8.53l-1.87.72a3.26,3.26,0,0,0-.36-1.66,2.71,2.71,0,0,0-1-1.09,3.28,3.28,0,0,0-3.1,0,2.73,2.73,0,0,0-1,1.1,3.71,3.71,0,0,0-.36,1.68V271a3.53,3.53,0,0,0,.43,1.8,2.8,2.8,0,0,0,1.23,1.15,4.26,4.26,0,0,0,1.93.41,4.77,4.77,0,0,0,1.78-.3,5.65,5.65,0,0,0,1.47-.92l2.6,2.7a6.54,6.54,0,0,1-2.5,1.7A9.55,9.55,0,0,1,762.55,278.09Z"></path><path class="cls-11" d="M780.91,263.53a6.54,6.54,0,0,1,3,.66,4.78,4.78,0,0,1,2.09,2,7.2,7.2,0,0,1,.77,3.56v8.06h-4.94V270.6a3.25,3.25,0,0,0-.61-2.2,2.15,2.15,0,0,0-1.7-.69,2.89,2.89,0,0,0-1.43.36,2.46,2.46,0,0,0-1,1.07,4.32,4.32,0,0,0-.36,1.9v6.81h-4.94V263.76h4.71v4l-.91-1.17a5.29,5.29,0,0,1,2.21-2.3A6.39,6.39,0,0,1,780.91,263.53Z"></path><path class="cls-11" d="M788.21,268v-3.69h10.22V268ZM796,278.09a6.13,6.13,0,0,1-4.21-1.34,5.11,5.11,0,0,1-1.51-4V260.62h4.94v12a1.67,1.67,0,0,0,.41,1.19,1.46,1.46,0,0,0,1.07.43,2.52,2.52,0,0,0,1.51-.45l1.22,3.46a4.42,4.42,0,0,1-1.53.61A9.07,9.07,0,0,1,796,278.09Z"></path><path class="cls-11" d="M815.7,278.09a8.65,8.65,0,0,1-4.11-.94,7,7,0,0,1-3.85-6.37,6.9,6.9,0,0,1,1-3.77,7.06,7.06,0,0,1,2.82-2.56,8.89,8.89,0,0,1,4.11-.92,9,9,0,0,1,4.12.92,6.83,6.83,0,0,1,3.83,6.33,7.18,7.18,0,0,1-1,3.79,7,7,0,0,1-2.82,2.58A8.78,8.78,0,0,1,815.7,278.09Zm0-3.93a2.9,2.9,0,0,0,1.51-.39,2.69,2.69,0,0,0,1.06-1.15,4.06,4.06,0,0,0,.39-1.84,3.8,3.8,0,0,0-.39-1.8,2.73,2.73,0,0,0-1.06-1.14,2.9,2.9,0,0,0-4.08,1.14,3.8,3.8,0,0,0-.4,1.8,4.06,4.06,0,0,0,.4,1.84,2.84,2.84,0,0,0,1.07,1.15A2.89,2.89,0,0,0,815.7,274.16Z"></path><path class="cls-11" d="M825.81,277.85V263.76h4.7v4.11l-.7-1.17a4.55,4.55,0,0,1,2-2.38,6.82,6.82,0,0,1,3.41-.79V268l-.59-.06h-.53a3.58,3.58,0,0,0-2.45.82,3.37,3.37,0,0,0-.93,2.66v6.47Z"></path><path class="cls-11" d="M849.08,278.09a6.48,6.48,0,0,1-2.86-.57,4.2,4.2,0,0,1-1.78-1.56,4.11,4.11,0,0,1-.61-2.21,3.83,3.83,0,0,1,.66-2.25,4.09,4.09,0,0,1,2-1.46,10.41,10.41,0,0,1,3.56-.51h3.33v2.58h-2.65a2.73,2.73,0,0,0-1.68.39,1.28,1.28,0,0,0-.48,1,1.26,1.26,0,0,0,.49,1,2.14,2.14,0,0,0,1.36.39,2.83,2.83,0,0,0,1.46-.4,2.33,2.33,0,0,0,1-1.24l.68,1.82a3.69,3.69,0,0,1-1.53,2.2A5.35,5.35,0,0,1,849.08,278.09Zm4.16-.24v-2.62l-.34-.65v-4.84a2.26,2.26,0,0,0-.72-1.8,3.31,3.31,0,0,0-2.27-.64,7,7,0,0,0-2,.32,5.46,5.46,0,0,0-1.77.9l-1.67-3.35A9.47,9.47,0,0,1,847.3,264a13.2,13.2,0,0,1,3.34-.43A8.08,8.08,0,0,1,856,265.1a6.08,6.08,0,0,1,1.88,4.93v7.82Z"></path><path class="cls-11" d="M860.83,282.9V263.76h4.71v2.39l0,4.66.26,4.68v7.41Zm8.87-4.81a5.77,5.77,0,0,1-3.07-.79,4.94,4.94,0,0,1-1.94-2.4,10.8,10.8,0,0,1-.66-4.09,11.61,11.61,0,0,1,.62-4.12,4.71,4.71,0,0,1,1.89-2.38,5.9,5.9,0,0,1,3.16-.78,7,7,0,0,1,3.49.89,6.61,6.61,0,0,1,2.5,2.53,8.58,8.58,0,0,1,0,7.73,6.51,6.51,0,0,1-2.5,2.52A7,7,0,0,1,869.7,278.09Zm-1-3.93a2.8,2.8,0,0,0,2.56-1.53,4.34,4.34,0,0,0,0-3.64,2.84,2.84,0,0,0-1.07-1.15,3.06,3.06,0,0,0-3,0,2.84,2.84,0,0,0-1.07,1.15,4.34,4.34,0,0,0,0,3.64,2.8,2.8,0,0,0,2.57,1.53Z"></path><path class="cls-11" d="M878.77,282.9V263.76h4.7v2.39l0,4.66.26,4.68v7.41Zm8.86-4.81a5.76,5.76,0,0,1-3.06-.79,4.94,4.94,0,0,1-1.94-2.4,10.8,10.8,0,0,1-.66-4.09,11.61,11.61,0,0,1,.62-4.12,4.66,4.66,0,0,1,1.89-2.38,5.89,5.89,0,0,1,3.15-.78,7,7,0,0,1,3.5.89,6.61,6.61,0,0,1,2.5,2.53,8.58,8.58,0,0,1,0,7.73,6.51,6.51,0,0,1-2.5,2.52A7,7,0,0,1,887.63,278.09Zm-1-3.93a2.8,2.8,0,0,0,2.56-1.53,4.34,4.34,0,0,0,0-3.64,2.84,2.84,0,0,0-1.07-1.15,3.06,3.06,0,0,0-3,0A2.84,2.84,0,0,0,884,269a4.34,4.34,0,0,0,0,3.64,2.8,2.8,0,0,0,2.57,1.53Z"></path><path class="cls-11" d="M896.71,277.85V263.76h4.7v4.11l-.7-1.17a4.55,4.55,0,0,1,2-2.38,6.82,6.82,0,0,1,3.41-.79V268l-.59-.06H905a3.58,3.58,0,0,0-2.45.82,3.37,3.37,0,0,0-.93,2.66v6.47Z"></path><path class="cls-11" d="M915,278.09a8.65,8.65,0,0,1-4.11-.94,7,7,0,0,1-3.85-6.37,6.9,6.9,0,0,1,1-3.77,7.06,7.06,0,0,1,2.82-2.56,8.89,8.89,0,0,1,4.11-.92,9,9,0,0,1,4.12.92,7.06,7.06,0,0,1,2.82,2.56,7,7,0,0,1,1,3.77,6.89,6.89,0,0,1-3.83,6.37A8.78,8.78,0,0,1,915,278.09Zm0-3.93a2.94,2.94,0,0,0,1.52-.39,2.74,2.74,0,0,0,1-1.15,4.06,4.06,0,0,0,.39-1.84,3.8,3.8,0,0,0-.39-1.8,2.77,2.77,0,0,0-1-1.14,2.94,2.94,0,0,0-1.52-.39,2.89,2.89,0,0,0-1.5.39,2.79,2.79,0,0,0-1.06,1.14,3.68,3.68,0,0,0-.41,1.8,3.93,3.93,0,0,0,.41,1.84,2.76,2.76,0,0,0,1.06,1.15A2.89,2.89,0,0,0,915,274.16Z"></path><path class="cls-11" d="M928.63,277.85l-5.79-14.09h5.07l4.63,11.78H930l4.86-11.78h4.7l-5.82,14.09Z"></path><path class="cls-11" d="M944.65,278.09a6.51,6.51,0,0,1-2.86-.57A4.26,4.26,0,0,1,940,276a4.11,4.11,0,0,1-.61-2.21,3.83,3.83,0,0,1,.66-2.25,4.14,4.14,0,0,1,2-1.46,10.47,10.47,0,0,1,3.57-.51H949v2.58h-2.65a2.75,2.75,0,0,0-1.68.39,1.35,1.35,0,0,0,0,2.08A2.13,2.13,0,0,0,946,275a2.84,2.84,0,0,0,1.47-.4,2.31,2.31,0,0,0,1-1.24l.68,1.82a3.68,3.68,0,0,1-1.52,2.2A5.39,5.39,0,0,1,944.65,278.09Zm4.16-.24v-2.62l-.34-.65v-4.84a2.29,2.29,0,0,0-.71-1.8,3.36,3.36,0,0,0-2.28-.64,7.06,7.06,0,0,0-2.05.32,5.67,5.67,0,0,0-1.77.9L940,265.17a9.4,9.4,0,0,1,2.87-1.21,13.25,13.25,0,0,1,3.34-.43,8.08,8.08,0,0,1,5.32,1.57c1.26,1,1.88,2.69,1.88,4.93v7.82Z"></path><path class="cls-11" d="M956.4,277.85V258.56h4.94v19.29Z"></path><path class="cls-11" d="M509.91,371.45v-3.22l6.82-6.37a7.11,7.11,0,0,0,1.07-1.2,2.94,2.94,0,0,0,.47-.94,3,3,0,0,0,.12-.8,1.68,1.68,0,0,0-.59-1.38,2.69,2.69,0,0,0-1.75-.49,4,4,0,0,0-1.84.44,3.53,3.53,0,0,0-1.41,1.33L509,356.69a7.27,7.27,0,0,1,2.94-2.76,9.56,9.56,0,0,1,4.6-1,9.38,9.38,0,0,1,3.69.68,5.68,5.68,0,0,1,2.48,1.92,4.88,4.88,0,0,1,.9,2.94,7,7,0,0,1-.23,1.75,6.39,6.39,0,0,1-.9,1.85,13.4,13.4,0,0,1-2,2.17l-5.41,5-.86-1.82h9.85v4.08Z"></path><path class="cls-11" d="M528.5,371.69a2.91,2.91,0,0,1-2.1-.83,2.83,2.83,0,0,1-.86-2.11,2.76,2.76,0,0,1,.86-2.12,3.2,3.2,0,0,1,4.21,0,2.76,2.76,0,0,1,.86,2.12,2.83,2.83,0,0,1-.86,2.11A2.92,2.92,0,0,1,528.5,371.69Z"></path><path class="cls-11" d="M541.32,371.45v-18.2h8.32a10.52,10.52,0,0,1,4.31.81,6.29,6.29,0,0,1,2.79,2.33,6.43,6.43,0,0,1,1,3.6,6,6,0,0,1-3.78,5.83,10.7,10.7,0,0,1-4.31.8h-5.46l2.29-2.16v7Zm5.15-6.44-2.29-2.37h5.15a3.51,3.51,0,0,0,2.4-.7,2.47,2.47,0,0,0,.8-1.95,2.51,2.51,0,0,0-.8-2,3.51,3.51,0,0,0-2.4-.7h-5.15l2.29-2.37Zm6.11,6.44-4.53-6.63h5.49l4.55,6.63Z"></path><path class="cls-11" d="M562.67,355.8a3.16,3.16,0,0,1-2.19-.75,2.53,2.53,0,0,1,0-3.75,3.16,3.16,0,0,1,2.19-.75,3.2,3.2,0,0,1,2.18.72,2.27,2.27,0,0,1,.83,1.83,2.55,2.55,0,0,1-.82,1.94A3.06,3.06,0,0,1,562.67,355.8Zm-2.47,15.65V357.36h4.94v14.09Z"></path><path class="cls-11" d="M574.24,370.73a7.22,7.22,0,0,1-3.45-.85,6.57,6.57,0,0,1-2.52-2.36,7.32,7.32,0,0,1,0-7.21,6.54,6.54,0,0,1,2.52-2.35,7.33,7.33,0,0,1,3.45-.83,6.21,6.21,0,0,1,3.06.71,4.55,4.55,0,0,1,1.94,2.23,11.53,11.53,0,0,1,0,7.69A4.62,4.62,0,0,1,577.3,370,6.1,6.1,0,0,1,574.24,370.73Zm.85,6a15.23,15.23,0,0,1-3.86-.47,9.64,9.64,0,0,1-3.13-1.37l1.79-3.46a6.58,6.58,0,0,0,2.2,1.1,8.65,8.65,0,0,0,2.56.41,4,4,0,0,0,2.89-.87,3.43,3.43,0,0,0,.88-2.54v-1.66l.26-4,0-4v-2.58h4.7v11.52q0,4-2.16,5.93A8.86,8.86,0,0,1,575.09,376.73Zm.32-9.93a3.36,3.36,0,0,0,1.57-.36,2.82,2.82,0,0,0,1.09-1,3,3,0,0,0,0-3,2.72,2.72,0,0,0-1.09-1,3.49,3.49,0,0,0-1.57-.35,3.57,3.57,0,0,0-1.59.35,2.71,2.71,0,0,0-1.11,1,3,3,0,0,0,0,3,2.8,2.8,0,0,0,1.11,1A3.45,3.45,0,0,0,575.41,366.8Z"></path><path class="cls-11" d="M595.58,357.13a6.61,6.61,0,0,1,3,.66,4.83,4.83,0,0,1,2.09,2,7.31,7.31,0,0,1,.77,3.56v8.06h-4.94V364.2a3.3,3.3,0,0,0-.61-2.2,2.17,2.17,0,0,0-1.71-.69,3,3,0,0,0-1.43.35,2.46,2.46,0,0,0-1,1.08,4.17,4.17,0,0,0-.37,1.9v6.81H586.4V352.16h4.94v9.21l-1.14-1.17a5.35,5.35,0,0,1,2.21-2.3A6.41,6.41,0,0,1,595.58,357.13Z"></path><path class="cls-11" d="M602.89,361.57v-3.69h10.22v3.69Zm7.77,10.12a6.15,6.15,0,0,1-4.21-1.34,5.11,5.11,0,0,1-1.51-4V354.22h4.94v12a1.63,1.63,0,0,0,.42,1.19,1.42,1.42,0,0,0,1.06.43,2.5,2.5,0,0,0,1.51-.45l1.22,3.46a4.26,4.26,0,0,1-1.53.61A9.07,9.07,0,0,1,610.66,371.69Z"></path><path class="cls-11" d="M621.81,361.57v-3.69H632v3.69Zm7.78,10.12a6.13,6.13,0,0,1-4.21-1.34,5.11,5.11,0,0,1-1.51-4V354.22h4.94v12a1.67,1.67,0,0,0,.41,1.19,1.46,1.46,0,0,0,1.07.43,2.52,2.52,0,0,0,1.51-.45l1.22,3.46a4.34,4.34,0,0,1-1.53.61A9.07,9.07,0,0,1,629.59,371.69Z"></path><path class="cls-11" d="M641.45,371.69a8.65,8.65,0,0,1-4.11-.94,7,7,0,0,1-3.85-6.37,6.9,6.9,0,0,1,1-3.77,7.06,7.06,0,0,1,2.82-2.56,8.89,8.89,0,0,1,4.11-.92,9,9,0,0,1,4.12.92,7.28,7.28,0,0,1,2.82,10.11,7,7,0,0,1-2.82,2.59A8.78,8.78,0,0,1,641.45,371.69Zm0-3.93a2.94,2.94,0,0,0,1.52-.39,2.74,2.74,0,0,0,1-1.15,4.06,4.06,0,0,0,.39-1.84,3.87,3.87,0,0,0-.39-1.81,2.8,2.8,0,0,0-1-1.13,2.94,2.94,0,0,0-1.52-.39,2.82,2.82,0,0,0-2.57,1.52,3.87,3.87,0,0,0-.4,1.81,4.06,4.06,0,0,0,.4,1.84,2.84,2.84,0,0,0,1.07,1.15A2.89,2.89,0,0,0,641.45,367.76Z"></path><path class="cls-11" d="M661.46,355.8a3.14,3.14,0,0,1-2.18-.75,2.53,2.53,0,0,1,0-3.75,3.14,3.14,0,0,1,2.18-.75,3.23,3.23,0,0,1,2.19.72,2.3,2.3,0,0,1,.83,1.83,2.55,2.55,0,0,1-.82,1.94A3.08,3.08,0,0,1,661.46,355.8ZM659,371.45V357.36h5v14.09Z"></path><path class="cls-11" d="M676.18,357.13a6.54,6.54,0,0,1,3,.66,4.86,4.86,0,0,1,2.1,2,7.31,7.31,0,0,1,.76,3.56v8.06h-4.94V364.2a3.25,3.25,0,0,0-.61-2.2,2.14,2.14,0,0,0-1.7-.69,3,3,0,0,0-1.43.35,2.54,2.54,0,0,0-1,1.08,4.32,4.32,0,0,0-.36,1.9v6.81H667V357.36h4.71v4l-.91-1.17a5.29,5.29,0,0,1,2.21-2.3A6.39,6.39,0,0,1,676.18,357.13Z"></path><path class="cls-11" d="M690.09,371.69a14.58,14.58,0,0,1-3.5-.42,9.94,9.94,0,0,1-2.74-1l1.48-3.38a8.66,8.66,0,0,0,2.31.95,10,10,0,0,0,2.61.35,3.85,3.85,0,0,0,1.72-.26.78.78,0,0,0,.49-.7.65.65,0,0,0-.46-.61,4.74,4.74,0,0,0-1.2-.3l-1.62-.23c-.59-.09-1.18-.21-1.78-.35a5.85,5.85,0,0,1-1.64-.68,3.35,3.35,0,0,1-1.18-1.24,3.88,3.88,0,0,1-.45-2,3.92,3.92,0,0,1,.8-2.41,5.26,5.26,0,0,1,2.33-1.66,10.07,10.07,0,0,1,3.74-.61,15.41,15.41,0,0,1,3,.3,8.52,8.52,0,0,1,2.56.89l-1.48,3.36a7.09,7.09,0,0,0-2.08-.82,9.29,9.29,0,0,0-2-.22,3.88,3.88,0,0,0-1.76.28.84.84,0,0,0-.51.71.68.68,0,0,0,.45.63,4,4,0,0,0,1.18.34c.49.08,1,.16,1.62.23a14.55,14.55,0,0,1,1.79.36,5.64,5.64,0,0,1,1.63.69,3.4,3.4,0,0,1,1.19,1.22,3.92,3.92,0,0,1,.44,2,3.75,3.75,0,0,1-.8,2.34,5.26,5.26,0,0,1-2.34,1.66A10.16,10.16,0,0,1,690.09,371.69Z"></path><path class="cls-11" d="M699.06,376.5V357.36h4.71v2.39l0,4.66.26,4.68v7.41Zm8.87-4.81a5.77,5.77,0,0,1-3.07-.79,4.94,4.94,0,0,1-1.94-2.4,10.8,10.8,0,0,1-.66-4.09,11.38,11.38,0,0,1,.62-4.12,4.71,4.71,0,0,1,1.89-2.38,5.9,5.9,0,0,1,3.16-.78,6.9,6.9,0,0,1,3.49.9,6.51,6.51,0,0,1,2.5,2.52,8.58,8.58,0,0,1,0,7.73,6.44,6.44,0,0,1-2.5,2.52A7,7,0,0,1,707.93,371.69Zm-1-3.93a2.8,2.8,0,0,0,2.57-1.53,4.34,4.34,0,0,0,0-3.64,2.88,2.88,0,0,0-5.13,0,4.34,4.34,0,0,0,0,3.64,2.8,2.8,0,0,0,2.56,1.53Z"></path><path class="cls-11" d="M724.38,371.69a9.48,9.48,0,0,1-4.35-.95,7.16,7.16,0,0,1-2.89-2.6,7.49,7.49,0,0,1,0-7.51,6.87,6.87,0,0,1,2.76-2.58,9,9,0,0,1,7.78-.08,6.62,6.62,0,0,1,2.73,2.49,7.43,7.43,0,0,1,1,4c0,.18,0,.38,0,.6s0,.44-.06.63H720.17v-2.6h8.53l-1.87.72a3.36,3.36,0,0,0-.35-1.66,2.8,2.8,0,0,0-1-1.09,3.28,3.28,0,0,0-3.1,0,2.73,2.73,0,0,0-1,1.1,3.71,3.71,0,0,0-.36,1.68v.75a3.53,3.53,0,0,0,.43,1.8,2.9,2.9,0,0,0,1.24,1.16,4.32,4.32,0,0,0,1.92.4,4.73,4.73,0,0,0,1.78-.3,5.65,5.65,0,0,0,1.47-.92l2.6,2.7a6.54,6.54,0,0,1-2.5,1.7A9.55,9.55,0,0,1,724.38,371.69Z"></path><path class="cls-11" d="M740.76,371.69a9,9,0,0,1-4.17-.94,7.06,7.06,0,0,1-2.87-2.59,7.37,7.37,0,0,1,0-7.55,7.14,7.14,0,0,1,2.87-2.56,9.2,9.2,0,0,1,4.17-.92,8.14,8.14,0,0,1,4.14,1,5.66,5.66,0,0,1,2.47,2.86L743.55,363a3.49,3.49,0,0,0-1.23-1.44,2.94,2.94,0,0,0-1.58-.46,3.14,3.14,0,0,0-1.56.39,2.81,2.81,0,0,0-1.11,1.13,3.75,3.75,0,0,0-.4,1.81,3.86,3.86,0,0,0,.4,1.85,2.77,2.77,0,0,0,1.11,1.14,3.14,3.14,0,0,0,1.56.39,2.93,2.93,0,0,0,1.58-.45,3.58,3.58,0,0,0,1.23-1.45l3.82,1.95a5.58,5.58,0,0,1-2.47,2.86A8,8,0,0,1,740.76,371.69Z"></path><path class="cls-11" d="M747.86,361.57v-3.69h10.22v3.69Zm7.77,10.12a6.15,6.15,0,0,1-4.21-1.34,5.14,5.14,0,0,1-1.5-4V354.22h4.94v12a1.63,1.63,0,0,0,.41,1.19,1.45,1.45,0,0,0,1.07.43,2.52,2.52,0,0,0,1.51-.45l1.22,3.46a4.39,4.39,0,0,1-1.54.61A9,9,0,0,1,755.63,371.69Z"></path><path class="cls-11" d="M775.47,371.69a9,9,0,0,1-4.17-.94,7.06,7.06,0,0,1-2.87-2.59,7.37,7.37,0,0,1,0-7.55,7.14,7.14,0,0,1,2.87-2.56,9.2,9.2,0,0,1,4.17-.92,8.14,8.14,0,0,1,4.14,1,5.66,5.66,0,0,1,2.47,2.86L778.26,363a3.42,3.42,0,0,0-1.23-1.44,2.94,2.94,0,0,0-1.58-.46,3.17,3.17,0,0,0-1.56.39,2.81,2.81,0,0,0-1.11,1.13,3.75,3.75,0,0,0-.4,1.81,3.86,3.86,0,0,0,.4,1.85,2.77,2.77,0,0,0,1.11,1.14,3.17,3.17,0,0,0,1.56.39,2.93,2.93,0,0,0,1.58-.45,3.51,3.51,0,0,0,1.23-1.45l3.82,1.95a5.58,5.58,0,0,1-2.47,2.86A8,8,0,0,1,775.47,371.69Z"></path><path class="cls-11" d="M790.73,371.69a8.64,8.64,0,0,1-4.1-.94,6.94,6.94,0,0,1-3.85-6.37,7,7,0,0,1,1-3.77,7.16,7.16,0,0,1,2.83-2.56,8.87,8.87,0,0,1,4.1-.92,9,9,0,0,1,4.13.92,7.28,7.28,0,0,1,2.82,10.11,7,7,0,0,1-2.82,2.59A8.79,8.79,0,0,1,790.73,371.69Zm0-3.93a2.91,2.91,0,0,0,1.52-.39,2.69,2.69,0,0,0,1.06-1.15,4.06,4.06,0,0,0,.39-1.84,3.87,3.87,0,0,0-.39-1.81,2.76,2.76,0,0,0-1.06-1.13,2.91,2.91,0,0,0-1.52-.39,2.88,2.88,0,0,0-1.49.39,2.92,2.92,0,0,0-1.07,1.13,3.75,3.75,0,0,0-.4,1.81,3.93,3.93,0,0,0,.4,1.84,2.84,2.84,0,0,0,1.07,1.15A2.88,2.88,0,0,0,790.73,367.76Z"></path><path class="cls-11" d="M800.85,371.45V357.36h4.7v4.11l-.7-1.17a4.55,4.55,0,0,1,2-2.38,6.8,6.8,0,0,1,3.41-.79v4.44l-.59-.06h-.53a3.58,3.58,0,0,0-2.45.82,3.37,3.37,0,0,0-.93,2.66v6.47Z"></path><path class="cls-11" d="M812.18,376.5V357.36h4.71v2.39l0,4.66.26,4.68v7.41Zm8.87-4.81a5.77,5.77,0,0,1-3.07-.79,4.92,4.92,0,0,1-1.93-2.4,10.59,10.59,0,0,1-.67-4.09,11.36,11.36,0,0,1,.63-4.12,4.64,4.64,0,0,1,1.88-2.38,5.9,5.9,0,0,1,3.16-.78,6.94,6.94,0,0,1,3.5.9,6.49,6.49,0,0,1,2.49,2.52,8.58,8.58,0,0,1,0,7.73,6.42,6.42,0,0,1-2.49,2.52A7,7,0,0,1,821.05,371.69Zm-1-3.93a2.88,2.88,0,0,0,1.49-.39,2.81,2.81,0,0,0,1.07-1.14,4.34,4.34,0,0,0,0-3.64,2.84,2.84,0,0,0-1.07-1.15,2.88,2.88,0,0,0-1.49-.39,2.94,2.94,0,0,0-1.5.39,2.89,2.89,0,0,0-1.06,1.15,4.34,4.34,0,0,0,0,3.64,2.86,2.86,0,0,0,1.06,1.14A2.94,2.94,0,0,0,820,367.76Z"></path><path class="cls-11" d="M837.2,371.69a8.65,8.65,0,0,1-4.11-.94,7,7,0,0,1-3.85-6.37,6.9,6.9,0,0,1,1-3.77,7.06,7.06,0,0,1,2.82-2.56,8.89,8.89,0,0,1,4.11-.92,9,9,0,0,1,4.12.92,7.28,7.28,0,0,1,2.82,10.11,7,7,0,0,1-2.82,2.59A8.78,8.78,0,0,1,837.2,371.69Zm0-3.93a2.9,2.9,0,0,0,1.51-.39,2.69,2.69,0,0,0,1.06-1.15,4.06,4.06,0,0,0,.39-1.84,3.87,3.87,0,0,0-.39-1.81,2.76,2.76,0,0,0-1.06-1.13,2.92,2.92,0,0,0-4.08,1.13,3.87,3.87,0,0,0-.4,1.81,4.06,4.06,0,0,0,.4,1.84,2.84,2.84,0,0,0,1.07,1.15A2.89,2.89,0,0,0,837.2,367.76Z"></path><path class="cls-11" d="M847.31,371.45V357.36H852v4.11l-.7-1.17a4.55,4.55,0,0,1,2-2.38,6.82,6.82,0,0,1,3.41-.79v4.44l-.59-.06h-.53a3.58,3.58,0,0,0-2.45.82,3.37,3.37,0,0,0-.93,2.66v6.47Z"></path><path class="cls-11" d="M862.23,371.69a6.51,6.51,0,0,1-2.86-.57,4.26,4.26,0,0,1-1.78-1.56,4.11,4.11,0,0,1-.61-2.21,3.83,3.83,0,0,1,.66-2.25,4.14,4.14,0,0,1,2-1.46,10.47,10.47,0,0,1,3.57-.51h3.32v2.58h-2.65a2.75,2.75,0,0,0-1.68.39,1.35,1.35,0,0,0,0,2.08,2.13,2.13,0,0,0,1.35.39,2.76,2.76,0,0,0,1.47-.41,2.29,2.29,0,0,0,1-1.23l.68,1.82a3.68,3.68,0,0,1-1.52,2.2A5.39,5.39,0,0,1,862.23,371.69Zm4.16-.24v-2.62l-.34-.65v-4.84a2.29,2.29,0,0,0-.71-1.8,3.36,3.36,0,0,0-2.28-.64,7.06,7.06,0,0,0-2,.32,5.67,5.67,0,0,0-1.77.9l-1.66-3.35a9.4,9.4,0,0,1,2.87-1.21,13.25,13.25,0,0,1,3.34-.43,8.08,8.08,0,0,1,5.32,1.57c1.26,1.05,1.88,2.69,1.88,4.93v7.82Z"></path><path class="cls-11" d="M872.5,361.57v-3.69h10.22v3.69Zm7.78,10.12a6.16,6.16,0,0,1-4.22-1.34,5.14,5.14,0,0,1-1.5-4V354.22h4.94v12a1.63,1.63,0,0,0,.41,1.19,1.46,1.46,0,0,0,1.07.43,2.52,2.52,0,0,0,1.51-.45l1.22,3.46a4.39,4.39,0,0,1-1.54.61A9,9,0,0,1,880.28,371.69Z"></path><path class="cls-11" d="M892.44,371.69a9.48,9.48,0,0,1-4.35-.95,7.16,7.16,0,0,1-2.89-2.6,7.49,7.49,0,0,1,0-7.51,6.83,6.83,0,0,1,2.77-2.58,9,9,0,0,1,7.77-.08,6.62,6.62,0,0,1,2.73,2.49,7.34,7.34,0,0,1,1,4c0,.18,0,.38,0,.6s0,.44-.05.63H888.23v-2.6h8.53l-1.87.72a3.36,3.36,0,0,0-.35-1.66,2.73,2.73,0,0,0-1-1.09,3.28,3.28,0,0,0-3.1,0,2.65,2.65,0,0,0-1,1.1,3.59,3.59,0,0,0-.37,1.68v.75a3.53,3.53,0,0,0,.43,1.8,2.9,2.9,0,0,0,1.24,1.16,4.35,4.35,0,0,0,1.92.4,4.73,4.73,0,0,0,1.78-.3,5.34,5.34,0,0,0,1.47-.92l2.6,2.7a6.58,6.58,0,0,1-2.49,1.7A9.57,9.57,0,0,1,892.44,371.69Z"></path><path class="cls-11" d="M510.72,402.65V383.36h4.94v7.57l-.26,4.65,0,4.66v2.41Zm8.87.24a5.9,5.9,0,0,1-3.16-.78,4.73,4.73,0,0,1-1.89-2.39,11.8,11.8,0,0,1-.62-4.14,10.85,10.85,0,0,1,.66-4.08,4.87,4.87,0,0,1,1.94-2.39,5.76,5.76,0,0,1,3.07-.78,7,7,0,0,1,3.49.88,6.55,6.55,0,0,1,2.5,2.51,8.62,8.62,0,0,1,0,7.75,6.65,6.65,0,0,1-2.5,2.52A6.87,6.87,0,0,1,519.59,402.89Zm-1-3.93a2.88,2.88,0,0,0,1.49-.39,2.81,2.81,0,0,0,1.07-1.16,3.86,3.86,0,0,0,.4-1.83,3.68,3.68,0,0,0-.4-1.8,2.89,2.89,0,0,0-5.13,0,3.8,3.8,0,0,0-.4,1.8,4,4,0,0,0,.4,1.83,2.81,2.81,0,0,0,1.07,1.16A2.89,2.89,0,0,0,518.55,399Z"></path><path class="cls-11" d="M535.73,402.89a8.71,8.71,0,0,1-4.11-.94,7.12,7.12,0,0,1-2.82-2.59,7.5,7.5,0,0,1,0-7.55,7.2,7.2,0,0,1,2.82-2.56,9.66,9.66,0,0,1,8.23,0,6.87,6.87,0,0,1,3.84,6.33,7,7,0,0,1-1,3.78,6.86,6.86,0,0,1-2.82,2.59A8.75,8.75,0,0,1,535.73,402.89Zm0-3.93a2.94,2.94,0,0,0,1.52-.39,2.66,2.66,0,0,0,1.06-1.16,4,4,0,0,0,.39-1.83,3.8,3.8,0,0,0-.39-1.8,2.73,2.73,0,0,0-1.06-1.14,2.94,2.94,0,0,0-1.52-.39,2.8,2.8,0,0,0-2.56,1.53,3.68,3.68,0,0,0-.4,1.8,3.86,3.86,0,0,0,.4,1.83,2.81,2.81,0,0,0,1.07,1.16A2.88,2.88,0,0,0,535.73,399Z"></path><path class="cls-11" d="M552.92,402.89a8.71,8.71,0,0,1-4.11-.94,7,7,0,0,1-3.85-6.37,6.9,6.9,0,0,1,1-3.77,7.06,7.06,0,0,1,2.82-2.56,9.66,9.66,0,0,1,8.23,0,7.06,7.06,0,0,1,2.82,2.56A7.15,7.15,0,0,1,557,402,8.78,8.78,0,0,1,552.92,402.89Zm0-3.93a2.94,2.94,0,0,0,1.52-.39,2.7,2.7,0,0,0,1-1.16,4,4,0,0,0,.39-1.83,3.8,3.8,0,0,0-.39-1.8,2.77,2.77,0,0,0-1-1.14,3.12,3.12,0,0,0-3,0,2.86,2.86,0,0,0-1.06,1.14,3.68,3.68,0,0,0-.41,1.8,3.86,3.86,0,0,0,.41,1.83,2.79,2.79,0,0,0,1.06,1.16A2.92,2.92,0,0,0,552.92,399Z"></path><path class="cls-11" d="M563,402.65V383.36H568v19.29Zm4.11-2.6.13-5.9,5.75-5.59h5.85l-6.38,6.58-2.52,2Zm6.24,2.6-4.32-5.4,3.07-3.8,7.23,9.2Z"></path><path class="cls-11" d="M585.37,402.89a14.52,14.52,0,0,1-3.5-.42,9.82,9.82,0,0,1-2.74-1l1.48-3.38a8.66,8.66,0,0,0,2.31.95,10.28,10.28,0,0,0,2.6.35,3.9,3.9,0,0,0,1.73-.26.78.78,0,0,0,.48-.7.64.64,0,0,0-.45-.61,5,5,0,0,0-1.2-.3l-1.62-.23c-.59-.09-1.19-.21-1.79-.35a5.91,5.91,0,0,1-1.63-.68,3.37,3.37,0,0,1-1.19-1.24,4,4,0,0,1-.44-2,3.91,3.91,0,0,1,.79-2.41,5.32,5.32,0,0,1,2.33-1.66,10.09,10.09,0,0,1,3.75-.61,15.57,15.57,0,0,1,3,.3,8.72,8.72,0,0,1,2.56.89l-1.48,3.36a7.31,7.31,0,0,0-2.08-.82,9.45,9.45,0,0,0-2-.22,3.83,3.83,0,0,0-1.75.28.84.84,0,0,0-.51.71.69.69,0,0,0,.44.63,4.17,4.17,0,0,0,1.18.34c.5.08,1,.16,1.63.23a14.4,14.4,0,0,1,1.78.36,6,6,0,0,1,1.64.68,3.48,3.48,0,0,1,1.18,1.23,3.82,3.82,0,0,1,.44,2,3.74,3.74,0,0,1-.79,2.34,5.38,5.38,0,0,1-2.34,1.66A10.19,10.19,0,0,1,585.37,402.89Z"></path><path class="cls-11" d="M606.21,402.89a6.43,6.43,0,0,1-2.85-.57,4.29,4.29,0,0,1-1.79-1.56,4.2,4.2,0,0,1-.61-2.21,3.77,3.77,0,0,1,.67-2.25,4.09,4.09,0,0,1,2-1.46,10.41,10.41,0,0,1,3.56-.51h3.33v2.58H607.9a2.71,2.71,0,0,0-1.67.39,1.36,1.36,0,0,0,0,2.08,2.13,2.13,0,0,0,1.35.39,2.76,2.76,0,0,0,1.47-.41,2.35,2.35,0,0,0,1-1.23l.67,1.82a3.64,3.64,0,0,1-1.52,2.2A5.37,5.37,0,0,1,606.21,402.89Zm4.17-.24V400l-.34-.65v-4.84a2.3,2.3,0,0,0-.72-1.81,3.36,3.36,0,0,0-2.27-.63,7.12,7.12,0,0,0-2.06.32,5.67,5.67,0,0,0-1.77.9L601.56,390a9.51,9.51,0,0,1,2.87-1.21,13.33,13.33,0,0,1,3.35-.43,8,8,0,0,1,5.31,1.57,6.05,6.05,0,0,1,1.89,4.93v7.82Z"></path><path class="cls-11" d="M627.14,388.33a6.58,6.58,0,0,1,3,.66,4.83,4.83,0,0,1,2.09,2,7.31,7.31,0,0,1,.77,3.56v8.06H628V395.4a3.27,3.27,0,0,0-.61-2.2,2.17,2.17,0,0,0-1.71-.69,3,3,0,0,0-1.42.35,2.43,2.43,0,0,0-1,1.08,4.32,4.32,0,0,0-.36,1.9v6.81H618V388.56h4.7v4l-.91-1.17a5.49,5.49,0,0,1,2.21-2.31A6.54,6.54,0,0,1,627.14,388.33Z"></path><path class="cls-11" d="M642.25,402.89a6.94,6.94,0,0,1-3.5-.9,6.82,6.82,0,0,1-2.51-2.52,8.54,8.54,0,0,1,0-7.75,6.72,6.72,0,0,1,2.51-2.51,7,7,0,0,1,3.5-.88,5.75,5.75,0,0,1,3.08.78,4.82,4.82,0,0,1,1.91,2.39,10.87,10.87,0,0,1,.65,4.08,11.58,11.58,0,0,1-.62,4.14,4.75,4.75,0,0,1-1.87,2.39A5.86,5.86,0,0,1,642.25,402.89Zm1-3.93a2.92,2.92,0,0,0,1.5-.39,2.7,2.7,0,0,0,1.05-1.16,4,4,0,0,0,.39-1.83,3.8,3.8,0,0,0-.39-1.8,2.77,2.77,0,0,0-1.05-1.14,3.12,3.12,0,0,0-3,0,2.77,2.77,0,0,0-1,1.14,3.8,3.8,0,0,0-.39,1.8,4,4,0,0,0,.39,1.83,2.7,2.7,0,0,0,1,1.16A2.94,2.94,0,0,0,643.29,399Zm3.09,3.69v-2.41l0-4.66-.26-4.65v-7.57h4.94v19.29Z"></path><path class="cls-11" d="M661.57,402.65V388.56h4.7v4.11l-.7-1.17a4.55,4.55,0,0,1,2-2.38,6.82,6.82,0,0,1,3.41-.79v4.44l-.59-.06h-.53a3.62,3.62,0,0,0-2.45.81,3.4,3.4,0,0,0-.93,2.67v6.47Z"></path><path class="cls-11" d="M680.16,402.89a9.5,9.5,0,0,1-4.36-.95,7.06,7.06,0,0,1-2.88-2.6,6.92,6.92,0,0,1-1-3.76,7.12,7.12,0,0,1,1-3.76,6.94,6.94,0,0,1,2.77-2.57,9,9,0,0,1,7.77-.08,6.5,6.5,0,0,1,2.73,2.49,7.35,7.35,0,0,1,1,4q0,.27,0,.6c0,.23,0,.43,0,.63H676v-2.6h8.52l-1.87.72a3.25,3.25,0,0,0-.35-1.66,2.73,2.73,0,0,0-1-1.09,3,3,0,0,0-1.55-.39,3,3,0,0,0-1.54.39,2.67,2.67,0,0,0-1,1.1,3.71,3.71,0,0,0-.36,1.68v.75a3.63,3.63,0,0,0,.42,1.8,2.9,2.9,0,0,0,1.24,1.16,4.38,4.38,0,0,0,1.92.4,4.79,4.79,0,0,0,1.79-.3,5.45,5.45,0,0,0,1.46-.92l2.6,2.7a6.43,6.43,0,0,1-2.49,1.7A9.55,9.55,0,0,1,680.16,402.89Z"></path><path class="cls-11" d="M696.54,402.89a9,9,0,0,1-4.17-.94,7.09,7.09,0,0,1-2.88-2.59,7.37,7.37,0,0,1,0-7.55,7.17,7.17,0,0,1,2.88-2.56,9.2,9.2,0,0,1,4.17-.92,8.13,8.13,0,0,1,4.13,1,5.61,5.61,0,0,1,2.47,2.86l-3.82,1.95a3.47,3.47,0,0,0-1.22-1.44,3,3,0,0,0-1.59-.46,3.17,3.17,0,0,0-1.56.39,2.75,2.75,0,0,0-1.1,1.14,3.68,3.68,0,0,0-.4,1.8,3.86,3.86,0,0,0,.4,1.85,2.75,2.75,0,0,0,1.1,1.14,3.17,3.17,0,0,0,1.56.39,3,3,0,0,0,1.59-.45,3.57,3.57,0,0,0,1.22-1.45l3.82,1.95a5.57,5.57,0,0,1-2.47,2.86A8,8,0,0,1,696.54,402.89Z"></path><path class="cls-11" d="M711.8,402.89a8.71,8.71,0,0,1-4.11-.94,7.26,7.26,0,0,1-2.82-10.14,7.13,7.13,0,0,1,2.82-2.56,9.66,9.66,0,0,1,8.23,0,6.87,6.87,0,0,1,3.84,6.33,7,7,0,0,1-1,3.78,6.86,6.86,0,0,1-2.82,2.59A8.75,8.75,0,0,1,711.8,402.89Zm0-3.93a2.94,2.94,0,0,0,1.52-.39,2.79,2.79,0,0,0,1.06-1.16,4.12,4.12,0,0,0,.38-1.83,3.93,3.93,0,0,0-.38-1.8,2.86,2.86,0,0,0-1.06-1.14,3.12,3.12,0,0,0-3,0,2.86,2.86,0,0,0-1.06,1.14,3.68,3.68,0,0,0-.4,1.8,3.86,3.86,0,0,0,.4,1.83,2.79,2.79,0,0,0,1.06,1.16A2.94,2.94,0,0,0,711.8,399Z"></path><path class="cls-11" d="M721.91,402.65V388.56h4.71v4.11l-.7-1.17a4.5,4.5,0,0,1,2-2.38,6.79,6.79,0,0,1,3.4-.79v4.44l-.58-.06h-.54a3.59,3.59,0,0,0-2.44.81,3.41,3.41,0,0,0-.94,2.67v6.47Z"></path><path class="cls-11" d="M739.26,402.89a6.91,6.91,0,0,1-3.5-.9,6.67,6.67,0,0,1-2.51-2.52,8.46,8.46,0,0,1,0-7.75,6.58,6.58,0,0,1,2.51-2.51,7,7,0,0,1,3.5-.88,5.75,5.75,0,0,1,3.08.78,4.87,4.87,0,0,1,1.91,2.39,11.07,11.07,0,0,1,.65,4.08,11.56,11.56,0,0,1-.63,4.14,4.7,4.7,0,0,1-1.87,2.39A5.82,5.82,0,0,1,739.26,402.89Zm1-3.93a2.88,2.88,0,0,0,1.49-.39,2.7,2.7,0,0,0,1.05-1.16,4,4,0,0,0,.39-1.83,3.8,3.8,0,0,0-.39-1.8,2.77,2.77,0,0,0-1.05-1.14,2.88,2.88,0,0,0-1.49-.39,2.91,2.91,0,0,0-1.52.39,2.73,2.73,0,0,0-1.06,1.14,3.8,3.8,0,0,0-.39,1.8,4,4,0,0,0,.39,1.83,2.66,2.66,0,0,0,1.06,1.16A2.91,2.91,0,0,0,740.3,399Zm3.09,3.69v-2.41l0-4.66-.26-4.65v-7.57h4.94v19.29Z"></path><path class="cls-11" d="M756.26,402.89a14.58,14.58,0,0,1-3.5-.42,9.94,9.94,0,0,1-2.74-1l1.48-3.38a8.66,8.66,0,0,0,2.31.95,10.34,10.34,0,0,0,2.6.35,3.87,3.87,0,0,0,1.73-.26.79.79,0,0,0,.49-.7.65.65,0,0,0-.46-.61,4.74,4.74,0,0,0-1.2-.3l-1.62-.23c-.59-.09-1.18-.21-1.78-.35a5.85,5.85,0,0,1-1.64-.68,3.35,3.35,0,0,1-1.18-1.24,3.88,3.88,0,0,1-.45-2,3.92,3.92,0,0,1,.8-2.41,5.29,5.29,0,0,1,2.32-1.66,10.16,10.16,0,0,1,3.75-.61,15.41,15.41,0,0,1,3,.3,8.52,8.52,0,0,1,2.56.89l-1.48,3.36a7.2,7.2,0,0,0-2.08-.82,9.31,9.31,0,0,0-2-.22,3.86,3.86,0,0,0-1.75.28.84.84,0,0,0-.51.71.68.68,0,0,0,.45.63,4,4,0,0,0,1.18.34c.49.08,1,.16,1.62.23a14,14,0,0,1,1.78.36,5.85,5.85,0,0,1,1.64.68,3.51,3.51,0,0,1,1.19,1.23,3.92,3.92,0,0,1,.44,2,3.75,3.75,0,0,1-.8,2.34,5.32,5.32,0,0,1-2.34,1.66A10.19,10.19,0,0,1,756.26,402.89Z"></path><path class="cls-11" d="M516.1,496.62a15.78,15.78,0,0,1-3.78-.47,11.39,11.39,0,0,1-3.29-1.33L510.9,491a8.7,8.7,0,0,0,2.43,1.12,9.4,9.4,0,0,0,2.62.39,3.88,3.88,0,0,0,2.1-.5,1.55,1.55,0,0,0,.78-1.4,1.51,1.51,0,0,0-.65-1.29,3.64,3.64,0,0,0-2.13-.48h-2.16v-3.25l4.89-5.28.49,1.77H510v-4h13.15v3.23l-4.89,5.28-2.52-1.43h1.41a7.64,7.64,0,0,1,5.16,1.52,4.93,4.93,0,0,1,1.75,3.91,5.56,5.56,0,0,1-.84,2.94,6.2,6.2,0,0,1-2.59,2.25A10.07,10.07,0,0,1,516.1,496.62Z"></path><path class="cls-11" d="M528.35,496.49a2.94,2.94,0,0,1-2.11-.83,2.83,2.83,0,0,1-.86-2.11,2.76,2.76,0,0,1,.86-2.12,3.21,3.21,0,0,1,4.22,0,2.76,2.76,0,0,1,.85,2.12,2.83,2.83,0,0,1-.85,2.11A3,3,0,0,1,528.35,496.49Z"></path><path class="cls-11" d="M541.17,496.25v-18.2h8.31a10.49,10.49,0,0,1,4.31.81,6.29,6.29,0,0,1,2.79,2.33,6.43,6.43,0,0,1,1,3.6,6.06,6.06,0,0,1-3.78,5.84,10.84,10.84,0,0,1-4.31.79H544l2.28-2.16v7Zm5.14-6.44L544,487.44h5.14a3.54,3.54,0,0,0,2.41-.7,2.47,2.47,0,0,0,.79-1.95,2.5,2.5,0,0,0-.79-2,3.54,3.54,0,0,0-2.41-.7H544l2.28-2.37Zm6.11,6.44-4.52-6.63h5.48l4.56,6.63Z"></path><path class="cls-11" d="M562.51,480.6a3.12,3.12,0,0,1-2.18-.75,2.51,2.51,0,0,1,0-3.75,3.12,3.12,0,0,1,2.18-.75,3.25,3.25,0,0,1,2.19.72,2.3,2.3,0,0,1,.83,1.83,2.55,2.55,0,0,1-.82,1.93A3.06,3.06,0,0,1,562.51,480.6ZM560,496.25V482.16H565v14.09Z"></path><path class="cls-11" d="M574.08,495.53a7.22,7.22,0,0,1-3.45-.85,6.64,6.64,0,0,1-2.52-2.36,7.32,7.32,0,0,1,0-7.21,6.62,6.62,0,0,1,2.52-2.35,7.33,7.33,0,0,1,3.45-.83,6.25,6.25,0,0,1,3.07.71,4.53,4.53,0,0,1,1.93,2.23,11.37,11.37,0,0,1,0,7.69,4.6,4.6,0,0,1-1.93,2.24A6.14,6.14,0,0,1,574.08,495.53Zm.86,6a15.18,15.18,0,0,1-3.86-.47,9.6,9.6,0,0,1-3.14-1.37l1.8-3.46a6.62,6.62,0,0,0,2.19,1.1,8.72,8.72,0,0,0,2.57.41,4,4,0,0,0,2.88-.88,3.39,3.39,0,0,0,.89-2.53v-1.66l.26-4,0-4v-2.58h4.71v11.52c0,2.67-.72,4.64-2.16,5.93A8.9,8.9,0,0,1,574.94,501.53Zm.31-9.93a3.33,3.33,0,0,0,1.57-.36,2.89,2.89,0,0,0,1.09-1,3,3,0,0,0,0-3,2.63,2.63,0,0,0-1.09-1,3.33,3.33,0,0,0-1.57-.36,3.45,3.45,0,0,0-1.59.36,2.65,2.65,0,0,0-1.1,1,3,3,0,0,0,0,3,2.92,2.92,0,0,0,1.1,1A3.45,3.45,0,0,0,575.25,491.6Z"></path><path class="cls-11" d="M595.43,481.93a6.54,6.54,0,0,1,3,.66,4.83,4.83,0,0,1,2.09,2,7.31,7.31,0,0,1,.77,3.56v8.06h-4.94V489a3.25,3.25,0,0,0-.61-2.2,2.16,2.16,0,0,0-1.7-.69,2.89,2.89,0,0,0-1.43.36,2.41,2.41,0,0,0-1,1.07,4.32,4.32,0,0,0-.36,1.9v6.81h-4.94V477h4.94v9.21L590,485a5.49,5.49,0,0,1,2.21-2.31A6.56,6.56,0,0,1,595.43,481.93Z"></path><path class="cls-11" d="M602.73,486.37v-3.69H613v3.69Zm7.78,10.12a6.16,6.16,0,0,1-4.22-1.34,5.14,5.14,0,0,1-1.5-4V479h4.93v12a1.63,1.63,0,0,0,.42,1.19,1.45,1.45,0,0,0,1.07.43,2.47,2.47,0,0,0,1.5-.45l1.23,3.46a4.39,4.39,0,0,1-1.54.61A9,9,0,0,1,610.51,496.49Z"></path><path class="cls-11" d="M621.66,486.37v-3.69h10.22v3.69Zm7.77,10.12a6.15,6.15,0,0,1-4.21-1.34,5.11,5.11,0,0,1-1.51-4V479h4.94v12a1.63,1.63,0,0,0,.42,1.19,1.44,1.44,0,0,0,1.06.43,2.5,2.5,0,0,0,1.51-.45l1.23,3.46a4.39,4.39,0,0,1-1.54.61A9.07,9.07,0,0,1,629.43,496.49Z"></path><path class="cls-11" d="M641.29,496.49a8.71,8.71,0,0,1-4.11-.94,7,7,0,0,1-3.85-6.37,7,7,0,0,1,1-3.77,7.13,7.13,0,0,1,2.82-2.56,9.66,9.66,0,0,1,8.23,0,6.87,6.87,0,0,1,3.84,6.33,7.1,7.1,0,0,1-1,3.79,7,7,0,0,1-2.82,2.58A8.75,8.75,0,0,1,641.29,496.49Zm0-3.93a2.94,2.94,0,0,0,1.52-.39,2.74,2.74,0,0,0,1.05-1.15,4.06,4.06,0,0,0,.39-1.84,3.8,3.8,0,0,0-.39-1.8,2.77,2.77,0,0,0-1.05-1.14,2.94,2.94,0,0,0-1.52-.39,2.86,2.86,0,0,0-1.49.39,2.81,2.81,0,0,0-1.07,1.14,3.68,3.68,0,0,0-.4,1.8,3.93,3.93,0,0,0,.4,1.84,2.78,2.78,0,0,0,1.07,1.15A2.86,2.86,0,0,0,641.29,492.56Z"></path><path class="cls-11" d="M661.31,480.6a3.12,3.12,0,0,1-2.18-.75,2.51,2.51,0,0,1,0-3.75,3.12,3.12,0,0,1,2.18-.75,3.2,3.2,0,0,1,2.18.72,2.27,2.27,0,0,1,.83,1.83,2.54,2.54,0,0,1-.81,1.93A3.06,3.06,0,0,1,661.31,480.6Zm-2.47,15.65V482.16h4.94v14.09Z"></path><path class="cls-11" d="M676,481.93a6.58,6.58,0,0,1,3,.66,4.83,4.83,0,0,1,2.09,2,7.31,7.31,0,0,1,.77,3.56v8.06h-4.94V489a3.3,3.3,0,0,0-.61-2.2,2.17,2.17,0,0,0-1.71-.69,2.92,2.92,0,0,0-1.43.36,2.39,2.39,0,0,0-1,1.07,4.32,4.32,0,0,0-.36,1.9v6.81h-4.94V482.16h4.7v4l-.91-1.17a5.49,5.49,0,0,1,2.21-2.31A6.52,6.52,0,0,1,676,481.93Z"></path><path class="cls-11" d="M683.33,486.37v-3.69h10.22v3.69Zm2,9.88V482.32a5.51,5.51,0,0,1,1.52-4.07,5.89,5.89,0,0,1,4.36-1.52,8.91,8.91,0,0,1,1.79.18,4.5,4.5,0,0,1,1.49.55l-1.23,3.48a3.21,3.21,0,0,0-.7-.3,2.64,2.64,0,0,0-.78-.12,1.6,1.6,0,0,0-1.21.46,2,2,0,0,0-.43,1.39v1l.13,2.06v10.81Z"></path><path class="cls-11" d="M702.15,496.49a8.64,8.64,0,0,1-4.1-.94,6.91,6.91,0,0,1-3.85-6.37,7,7,0,0,1,1-3.77,7.16,7.16,0,0,1,2.83-2.56,8.87,8.87,0,0,1,4.1-.92,9,9,0,0,1,4.13.92,6.83,6.83,0,0,1,3.83,6.33,7.18,7.18,0,0,1-1,3.79,7,7,0,0,1-2.82,2.58A8.79,8.79,0,0,1,702.15,496.49Zm0-3.93a2.91,2.91,0,0,0,1.52-.39,2.69,2.69,0,0,0,1.06-1.15,4.06,4.06,0,0,0,.39-1.84,3.8,3.8,0,0,0-.39-1.8,2.73,2.73,0,0,0-1.06-1.14,2.91,2.91,0,0,0-1.52-.39,2.8,2.8,0,0,0-2.56,1.53,3.68,3.68,0,0,0-.4,1.8,3.93,3.93,0,0,0,.4,1.84,2.84,2.84,0,0,0,1.07,1.15A2.88,2.88,0,0,0,702.15,492.56Z"></path><path class="cls-11" d="M712.27,496.25V482.16H717v4.11l-.7-1.17a4.55,4.55,0,0,1,2-2.38,6.8,6.8,0,0,1,3.41-.79v4.44l-.59-.06h-.53a3.62,3.62,0,0,0-2.45.81,3.4,3.4,0,0,0-.93,2.67v6.47Z"></path><path class="cls-11" d="M742,481.93a6.28,6.28,0,0,1,2.92.66,4.71,4.71,0,0,1,2,2,7.56,7.56,0,0,1,.74,3.56v8.06h-4.94V489a3.43,3.43,0,0,0-.57-2.2,1.92,1.92,0,0,0-1.56-.69,2.49,2.49,0,0,0-1.27.34,2.21,2.21,0,0,0-.89,1,4.31,4.31,0,0,0-.31,1.78v7h-4.94V489a3.5,3.5,0,0,0-.56-2.2,1.91,1.91,0,0,0-1.57-.69,2.48,2.48,0,0,0-1.29.34,2.3,2.3,0,0,0-.88,1,4.13,4.13,0,0,0-.33,1.78v7H723.6V482.16h4.71v3.93l-.94-1.12a5.47,5.47,0,0,1,2.13-2.28,6,6,0,0,1,3-.76,5.8,5.8,0,0,1,3.34,1,4.85,4.85,0,0,1,1.94,3l-1.61-.34a6,6,0,0,1,2.27-2.69A6.33,6.33,0,0,1,742,481.93Z"></path><path class="cls-11" d="M755.09,496.49a6.48,6.48,0,0,1-2.86-.57,4.27,4.27,0,0,1-1.78-1.56,4.11,4.11,0,0,1-.61-2.21,3.83,3.83,0,0,1,.66-2.25,4.09,4.09,0,0,1,2-1.46,10.45,10.45,0,0,1,3.56-.51h3.33v2.58h-2.65a2.73,2.73,0,0,0-1.68.39,1.26,1.26,0,0,0-.48,1,1.28,1.28,0,0,0,.49,1,2.14,2.14,0,0,0,1.36.39,2.9,2.9,0,0,0,1.47-.4,2.4,2.4,0,0,0,1-1.24l.68,1.82a3.65,3.65,0,0,1-1.53,2.2A5.35,5.35,0,0,1,755.09,496.49Zm4.16-.24v-2.62l-.34-.65v-4.84a2.33,2.33,0,0,0-.71-1.81,3.41,3.41,0,0,0-2.28-.63,7,7,0,0,0-2,.32,5.46,5.46,0,0,0-1.77.9l-1.67-3.35a9.47,9.47,0,0,1,2.88-1.21,13.25,13.25,0,0,1,3.34-.43A8,8,0,0,1,762,483.5a6.05,6.05,0,0,1,1.89,4.93v7.82Z"></path><path class="cls-11" d="M765.36,486.37v-3.69h10.22v3.69Zm7.77,10.12a6.15,6.15,0,0,1-4.21-1.34,5.11,5.11,0,0,1-1.51-4V479h4.94v12a1.63,1.63,0,0,0,.42,1.19,1.44,1.44,0,0,0,1.06.43,2.5,2.5,0,0,0,1.51-.45l1.22,3.46a4.26,4.26,0,0,1-1.53.61A9.07,9.07,0,0,1,773.13,496.49Z"></path><path class="cls-11" d="M780.8,480.6a3.12,3.12,0,0,1-2.18-.75,2.53,2.53,0,0,1,0-3.75,3.12,3.12,0,0,1,2.18-.75,3.25,3.25,0,0,1,2.19.72,2.3,2.3,0,0,1,.83,1.83,2.51,2.51,0,0,1-.82,1.93A3.06,3.06,0,0,1,780.8,480.6Zm-2.47,15.65V482.16h4.94v14.09Z"></path><path class="cls-11" d="M793.41,496.49a8.71,8.71,0,0,1-4.11-.94,6.93,6.93,0,0,1-3.84-6.37,7,7,0,0,1,1-3.77,7.2,7.2,0,0,1,2.82-2.56,9.66,9.66,0,0,1,8.23,0,6.87,6.87,0,0,1,3.84,6.33,7.1,7.1,0,0,1-1,3.79,6.91,6.91,0,0,1-2.82,2.58A8.75,8.75,0,0,1,793.41,496.49Zm0-3.93a2.94,2.94,0,0,0,1.52-.39A2.76,2.76,0,0,0,796,491a4.06,4.06,0,0,0,.39-1.84,3.8,3.8,0,0,0-.39-1.8,2.79,2.79,0,0,0-1.06-1.14,2.94,2.94,0,0,0-1.52-.39,2.88,2.88,0,0,0-1.49.39,2.81,2.81,0,0,0-1.07,1.14,3.68,3.68,0,0,0-.4,1.8,3.93,3.93,0,0,0,.4,1.84,2.78,2.78,0,0,0,1.07,1.15A2.88,2.88,0,0,0,793.41,492.56Z"></path><path class="cls-11" d="M812.7,481.93a6.58,6.58,0,0,1,3,.66,4.83,4.83,0,0,1,2.09,2,7.31,7.31,0,0,1,.77,3.56v8.06h-4.94V489a3.3,3.3,0,0,0-.61-2.2,2.17,2.17,0,0,0-1.71-.69,2.92,2.92,0,0,0-1.43.36,2.39,2.39,0,0,0-1,1.07,4.31,4.31,0,0,0-.37,1.9v6.81h-4.93V482.16h4.7v4l-.91-1.17a5.49,5.49,0,0,1,2.21-2.31A6.52,6.52,0,0,1,812.7,481.93Z"></path><path class="cls-11" d="M509.84,586.37V583L518,571.65h5.33L515.4,583l-2.44-.73h14.22v4.08Zm9.62,3.48v-3.48l.15-4.08v-3.1h4.86v10.66Z"></path><path class="cls-11" d="M531.39,590.09a3,3,0,0,1-2.11-.83,2.83,2.83,0,0,1-.85-2.11,2.76,2.76,0,0,1,.85-2.12,3.21,3.21,0,0,1,4.22,0,2.76,2.76,0,0,1,.85,2.12,2.83,2.83,0,0,1-.85,2.11A3,3,0,0,1,531.39,590.09Z"></path><path class="cls-11" d="M544.21,589.85v-18.2h8.32a10.44,10.44,0,0,1,4.3.81,6.27,6.27,0,0,1,2.8,2.33,6.51,6.51,0,0,1,1,3.6,6,6,0,0,1-3.78,5.84,10.79,10.79,0,0,1-4.3.79h-5.46l2.29-2.16v7Zm5.15-6.44L547.07,581h5.14a3.54,3.54,0,0,0,2.41-.7,2.47,2.47,0,0,0,.79-2,2.5,2.5,0,0,0-.79-2,3.54,3.54,0,0,0-2.41-.7h-5.14l2.29-2.37Zm6.1,6.44-4.52-6.63h5.49l4.55,6.63Z"></path><path class="cls-11" d="M565.55,574.2a3.12,3.12,0,0,1-2.18-.75,2.53,2.53,0,0,1,0-3.75,3.12,3.12,0,0,1,2.18-.75,3.28,3.28,0,0,1,2.19.71,2.33,2.33,0,0,1,.83,1.84,2.55,2.55,0,0,1-.82,1.94A3.08,3.08,0,0,1,565.55,574.2Zm-2.47,15.65V575.76H568v14.09Z"></path><path class="cls-11" d="M577.12,589.13a7.21,7.21,0,0,1-3.44-.85,6.52,6.52,0,0,1-3.47-6,6.63,6.63,0,0,1,.95-3.6,6.47,6.47,0,0,1,2.52-2.35,7.31,7.31,0,0,1,3.44-.83,6.25,6.25,0,0,1,3.07.71,4.55,4.55,0,0,1,1.94,2.23,11.53,11.53,0,0,1,0,7.69,4.62,4.62,0,0,1-1.94,2.24A6.14,6.14,0,0,1,577.12,589.13Zm.86,6a15.18,15.18,0,0,1-3.86-.47,9.55,9.55,0,0,1-3.13-1.37l1.79-3.46a6.58,6.58,0,0,0,2.2,1.1,8.65,8.65,0,0,0,2.56.41,4,4,0,0,0,2.88-.87,3.43,3.43,0,0,0,.89-2.54v-1.66l.26-4,0-4v-2.58h4.71v11.52q0,4-2.16,5.93A8.88,8.88,0,0,1,578,595.13Zm.31-9.93a3.38,3.38,0,0,0,1.58-.36,2.89,2.89,0,0,0,1.09-1,3,3,0,0,0,0-3,2.69,2.69,0,0,0-1.09-1,3.65,3.65,0,0,0-3.16,0,2.62,2.62,0,0,0-1.11,1,3,3,0,0,0,0,3,2.8,2.8,0,0,0,1.11,1A3.38,3.38,0,0,0,578.29,585.2Z"></path><path class="cls-11" d="M598.47,575.53a6.54,6.54,0,0,1,3,.66,4.86,4.86,0,0,1,2.1,2,7.31,7.31,0,0,1,.76,3.56v8.06h-4.94V582.6a3.25,3.25,0,0,0-.61-2.2,2.15,2.15,0,0,0-1.7-.69,2.89,2.89,0,0,0-1.43.36,2.46,2.46,0,0,0-1,1.07,4.32,4.32,0,0,0-.36,1.9v6.81h-4.94V570.56h4.94v9.21l-1.14-1.17a5.29,5.29,0,0,1,2.21-2.3A6.39,6.39,0,0,1,598.47,575.53Z"></path><path class="cls-11" d="M605.77,580v-3.69H616V580Zm7.78,10.12a6.13,6.13,0,0,1-4.21-1.34,5.11,5.11,0,0,1-1.51-4V572.62h4.94v12a1.67,1.67,0,0,0,.41,1.19,1.46,1.46,0,0,0,1.07.43,2.52,2.52,0,0,0,1.51-.45l1.22,3.46a4.42,4.42,0,0,1-1.53.61A9.07,9.07,0,0,1,613.55,590.09Z"></path><path class="cls-11" d="M624.7,580v-3.69h10.22V580Zm7.78,10.12a6.16,6.16,0,0,1-4.22-1.34,5.14,5.14,0,0,1-1.5-4V572.62h4.94v12a1.63,1.63,0,0,0,.41,1.19,1.45,1.45,0,0,0,1.07.43,2.52,2.52,0,0,0,1.51-.45l1.22,3.46a4.42,4.42,0,0,1-1.53.61A9.14,9.14,0,0,1,632.48,590.09Z"></path><path class="cls-11" d="M644.33,590.09a8.71,8.71,0,0,1-4.11-.94,6.93,6.93,0,0,1-3.84-6.37,7,7,0,0,1,1-3.77,7.2,7.2,0,0,1,2.82-2.56,9.66,9.66,0,0,1,8.23,0,6.87,6.87,0,0,1,3.84,6.33,7.1,7.1,0,0,1-1,3.79,6.91,6.91,0,0,1-2.82,2.58A8.72,8.72,0,0,1,644.33,590.09Zm0-3.93a2.94,2.94,0,0,0,1.52-.39,2.69,2.69,0,0,0,1.06-1.15,4.06,4.06,0,0,0,.39-1.84,3.8,3.8,0,0,0-.39-1.8,2.73,2.73,0,0,0-1.06-1.14,2.94,2.94,0,0,0-1.52-.39,2.88,2.88,0,0,0-1.49.39,2.81,2.81,0,0,0-1.07,1.14,3.68,3.68,0,0,0-.4,1.8,3.93,3.93,0,0,0,.4,1.84,2.78,2.78,0,0,0,1.07,1.15A2.88,2.88,0,0,0,644.33,586.16Z"></path><path class="cls-11" d="M668,590.09a6.91,6.91,0,0,1-3.5-.9,6.67,6.67,0,0,1-2.51-2.52,8.54,8.54,0,0,1,0-7.75,6.58,6.58,0,0,1,2.51-2.51,7,7,0,0,1,3.5-.88,5.75,5.75,0,0,1,3.08.78A4.82,4.82,0,0,1,673,578.7a11.11,11.11,0,0,1,.65,4.08,11.8,11.8,0,0,1-.62,4.14,4.72,4.72,0,0,1-1.88,2.39A5.82,5.82,0,0,1,668,590.09Zm1-3.93a2.88,2.88,0,0,0,1.49-.39,2.76,2.76,0,0,0,1.06-1.15,4.06,4.06,0,0,0,.39-1.84,3.8,3.8,0,0,0-.39-1.8,2.79,2.79,0,0,0-1.06-1.14,2.88,2.88,0,0,0-1.49-.39,2.94,2.94,0,0,0-1.52.39,2.73,2.73,0,0,0-1.06,1.14,3.8,3.8,0,0,0-.39,1.8,4.06,4.06,0,0,0,.39,1.84,2.69,2.69,0,0,0,1.06,1.15A2.94,2.94,0,0,0,669.06,586.16Zm3.09,3.69v-2.41l0-4.66-.26-4.65v-7.57h4.94v19.29Z"></path><path class="cls-11" d="M682.37,574.2a3.12,3.12,0,0,1-2.18-.75,2.51,2.51,0,0,1,0-3.75,3.12,3.12,0,0,1,2.18-.75,3.25,3.25,0,0,1,2.18.71,2.3,2.3,0,0,1,.83,1.84,2.57,2.57,0,0,1-.81,1.94A3.1,3.1,0,0,1,682.37,574.2Zm-2.47,15.65V575.76h4.94v14.09Z"></path><path class="cls-11" d="M691.83,589.85,686,575.76h5.07l4.62,11.78h-2.54l4.86-11.78h4.7l-5.82,14.09Z"></path><path class="cls-11" d="M706.37,574.2a3.15,3.15,0,0,1-2.19-.75,2.53,2.53,0,0,1,0-3.75,3.15,3.15,0,0,1,2.19-.75,3.25,3.25,0,0,1,2.18.71,2.3,2.3,0,0,1,.83,1.84,2.55,2.55,0,0,1-.82,1.94A3.06,3.06,0,0,1,706.37,574.2Zm-2.47,15.65V575.76h4.94v14.09Z"></path><path class="cls-11" d="M718,590.09a6.94,6.94,0,0,1-3.5-.9,6.65,6.65,0,0,1-2.5-2.52,8.46,8.46,0,0,1,0-7.75,6.55,6.55,0,0,1,2.5-2.51,7,7,0,0,1,3.5-.88,5.75,5.75,0,0,1,3.08.78A4.82,4.82,0,0,1,723,578.7a10.9,10.9,0,0,1,.65,4.08,11.8,11.8,0,0,1-.62,4.14,4.75,4.75,0,0,1-1.87,2.39A5.84,5.84,0,0,1,718,590.09Zm1-3.93a2.94,2.94,0,0,0,1.5-.39,2.74,2.74,0,0,0,1-1.15,4.06,4.06,0,0,0,.39-1.84,3.8,3.8,0,0,0-.39-1.8,2.77,2.77,0,0,0-1-1.14,3.12,3.12,0,0,0-3,0,2.77,2.77,0,0,0-1,1.14,3.8,3.8,0,0,0-.39,1.8,4.06,4.06,0,0,0,.39,1.84,2.74,2.74,0,0,0,1,1.15A2.94,2.94,0,0,0,719.08,586.16Zm3.1,3.69v-2.41l0-4.66-.26-4.65v-7.57h4.94v19.29Z"></path><path class="cls-11" d="M737.31,590.09a9.5,9.5,0,0,1-4.36-1,7.16,7.16,0,0,1-2.89-2.6,7.49,7.49,0,0,1,0-7.51,6.9,6.9,0,0,1,2.77-2.58,9,9,0,0,1,7.77-.08,6.5,6.5,0,0,1,2.73,2.49,7.35,7.35,0,0,1,1,4q0,.27,0,.6c0,.23,0,.44,0,.63H733.09v-2.6h8.53l-1.87.72a3.25,3.25,0,0,0-.35-1.66,2.73,2.73,0,0,0-1-1.09,3,3,0,0,0-1.55-.39,3,3,0,0,0-1.54.39,2.61,2.61,0,0,0-1,1.1,3.71,3.71,0,0,0-.36,1.68V583a3.63,3.63,0,0,0,.42,1.8,2.82,2.82,0,0,0,1.24,1.15,4.25,4.25,0,0,0,1.92.41,4.7,4.7,0,0,0,1.78-.3,5.34,5.34,0,0,0,1.47-.92l2.6,2.7a6.51,6.51,0,0,1-2.49,1.7A9.55,9.55,0,0,1,737.31,590.09Z"></path><path class="cls-11" d="M755.66,575.53a6.58,6.58,0,0,1,3,.66,4.83,4.83,0,0,1,2.09,2,7.31,7.31,0,0,1,.77,3.56v8.06h-4.94V582.6a3.3,3.3,0,0,0-.61-2.2,2.17,2.17,0,0,0-1.71-.69,2.92,2.92,0,0,0-1.43.36,2.39,2.39,0,0,0-1,1.07,4.32,4.32,0,0,0-.36,1.9v6.81h-4.95V575.76h4.71v4l-.91-1.17a5.35,5.35,0,0,1,2.21-2.3A6.41,6.41,0,0,1,755.66,575.53Z"></path><path class="cls-11" d="M770.77,590.09a6.94,6.94,0,0,1-3.5-.9,6.75,6.75,0,0,1-2.51-2.52,8.54,8.54,0,0,1,0-7.75,6.65,6.65,0,0,1,2.51-2.51,7,7,0,0,1,3.5-.88,5.75,5.75,0,0,1,3.08.78,4.82,4.82,0,0,1,1.91,2.39,10.9,10.9,0,0,1,.65,4.08,11.8,11.8,0,0,1-.62,4.14,4.75,4.75,0,0,1-1.87,2.39A5.86,5.86,0,0,1,770.77,590.09Zm1-3.93a2.88,2.88,0,0,0,1.49-.39,2.69,2.69,0,0,0,1.06-1.15,4.06,4.06,0,0,0,.39-1.84,3.8,3.8,0,0,0-.39-1.8,2.73,2.73,0,0,0-1.06-1.14,2.88,2.88,0,0,0-1.49-.39,2.94,2.94,0,0,0-1.52.39,2.77,2.77,0,0,0-1,1.14,3.69,3.69,0,0,0-.39,1.8,3.93,3.93,0,0,0,.39,1.84,2.74,2.74,0,0,0,1,1.15A2.94,2.94,0,0,0,771.81,586.16Zm3.09,3.69v-2.41l0-4.66-.26-4.65v-7.57h4.94v19.29Z"></path><path class="cls-11" d="M787.77,590.09a14.5,14.5,0,0,1-3.49-.42,9.59,9.59,0,0,1-2.75-1l1.48-3.38a8.6,8.6,0,0,0,2.32,1,9.85,9.85,0,0,0,2.6.35,3.9,3.9,0,0,0,1.73-.26.77.77,0,0,0,.48-.7.64.64,0,0,0-.46-.61,4.77,4.77,0,0,0-1.19-.3l-1.63-.23c-.59-.09-1.18-.21-1.78-.35a6,6,0,0,1-1.64-.68,3.35,3.35,0,0,1-1.18-1.24,4.3,4.3,0,0,1,.35-4.38,5.26,5.26,0,0,1,2.33-1.66,10.07,10.07,0,0,1,3.74-.61,15.59,15.59,0,0,1,3,.3,8.72,8.72,0,0,1,2.56.89l-1.49,3.36a7.09,7.09,0,0,0-2.08-.82,9.29,9.29,0,0,0-2-.22,3.91,3.91,0,0,0-1.76.28.85.85,0,0,0-.5.71.67.67,0,0,0,.44.63,4.08,4.08,0,0,0,1.18.34c.49.08,1,.16,1.63.23a14.4,14.4,0,0,1,1.78.36,5.82,5.82,0,0,1,1.64.69,3.45,3.45,0,0,1,1.18,1.22,3.92,3.92,0,0,1,.44,2,3.8,3.8,0,0,1-.79,2.34,5.38,5.38,0,0,1-2.34,1.66A10.21,10.21,0,0,1,787.77,590.09Z"></path><path class="cls-11" d="M516.39,683.82a15.76,15.76,0,0,1-3.77-.47,11,11,0,0,1-3.28-1.33l1.85-3.87a9,9,0,0,0,2.43,1.12,9.13,9.13,0,0,0,2.61.39,3.9,3.9,0,0,0,2.11-.51,1.58,1.58,0,0,0,.8-1.42,1.6,1.6,0,0,0-.31-1,1.9,1.9,0,0,0-1.06-.65,8,8,0,0,0-2.16-.22h-4.94l.91-10.64h11.59v4H513.4L516,667l-.59,7.18-2.63-2.27h4a10.35,10.35,0,0,1,4.34.77,5.21,5.21,0,0,1,2.39,2.06,5.52,5.52,0,0,1,.76,2.89,5.74,5.74,0,0,1-.85,3,6,6,0,0,1-2.58,2.3A10,10,0,0,1,516.39,683.82Z"></path><path class="cls-11" d="M528.45,683.69a2.91,2.91,0,0,1-2.1-.83,2.83,2.83,0,0,1-.86-2.11,2.76,2.76,0,0,1,.86-2.12,3.2,3.2,0,0,1,4.21,0,2.76,2.76,0,0,1,.86,2.12,2.83,2.83,0,0,1-.86,2.11A2.92,2.92,0,0,1,528.45,683.69Z"></path><path class="cls-11" d="M539.09,683.45l8-18.2h5.07l8.06,18.2h-5.36l-6.29-15.67h2l-6.29,15.67Zm4.39-3.53,1.33-3.8h8.89l1.32,3.8Z"></path><path class="cls-11" d="M561.34,688.5V669.36h4.71v2.39l0,4.66.26,4.68v7.41Zm8.87-4.81a5.77,5.77,0,0,1-3.07-.79,4.94,4.94,0,0,1-1.94-2.4,10.8,10.8,0,0,1-.66-4.09,11.61,11.61,0,0,1,.62-4.12,4.71,4.71,0,0,1,1.89-2.38,5.9,5.9,0,0,1,3.16-.78,6.94,6.94,0,0,1,3.5.9,6.56,6.56,0,0,1,2.49,2.52,8.58,8.58,0,0,1,0,7.73,6.49,6.49,0,0,1-2.49,2.52A7,7,0,0,1,570.21,683.69Zm-1-3.93a2.8,2.8,0,0,0,2.56-1.53,4.34,4.34,0,0,0,0-3.64,2.87,2.87,0,0,0-5.12,0,4.24,4.24,0,0,0,0,3.64,2.86,2.86,0,0,0,1.06,1.14A2.92,2.92,0,0,0,569.17,679.76Z"></path><path class="cls-11" d="M579.28,688.5V669.36H584v2.39l0,4.66.26,4.68v7.41Zm8.87-4.81a5.77,5.77,0,0,1-3.07-.79,4.94,4.94,0,0,1-1.94-2.4,10.8,10.8,0,0,1-.66-4.09,11.61,11.61,0,0,1,.62-4.12,4.71,4.71,0,0,1,1.89-2.38,5.9,5.9,0,0,1,3.16-.78,6.9,6.9,0,0,1,3.49.9,6.51,6.51,0,0,1,2.5,2.52,8.58,8.58,0,0,1,0,7.73,6.44,6.44,0,0,1-2.5,2.52A7,7,0,0,1,588.15,683.69Zm-1-3.93a2.8,2.8,0,0,0,2.56-1.53,4.34,4.34,0,0,0,0-3.64,3,3,0,0,0-4.06-1.15,2.82,2.82,0,0,0-1.06,1.15,4.24,4.24,0,0,0,0,3.64,2.79,2.79,0,0,0,1.06,1.14A2.89,2.89,0,0,0,587.11,679.76Z"></path><path class="cls-11" d="M597.22,683.45V669.36h4.71v4.11l-.71-1.17a4.55,4.55,0,0,1,2-2.38,6.82,6.82,0,0,1,3.41-.79v4.44l-.59-.06h-.53a3.53,3.53,0,0,0-2.44.82,3.33,3.33,0,0,0-.94,2.66v6.47Z"></path><path class="cls-11" d="M612.14,683.69a6.51,6.51,0,0,1-2.86-.57,4.26,4.26,0,0,1-1.78-1.56,4.11,4.11,0,0,1-.61-2.21,3.83,3.83,0,0,1,.66-2.25,4.17,4.17,0,0,1,2.05-1.46,10.37,10.37,0,0,1,3.56-.51h3.32v2.58h-2.65a2.71,2.71,0,0,0-1.67.39,1.36,1.36,0,0,0,0,2.08,2.13,2.13,0,0,0,1.35.39,2.76,2.76,0,0,0,1.47-.41,2.29,2.29,0,0,0,1-1.23l.68,1.82a3.68,3.68,0,0,1-1.52,2.2A5.39,5.39,0,0,1,612.14,683.69Zm4.16-.24v-2.62l-.34-.65v-4.84a2.26,2.26,0,0,0-.71-1.8,3.34,3.34,0,0,0-2.28-.64,7.06,7.06,0,0,0-2.05.32,5.67,5.67,0,0,0-1.77.9l-1.66-3.35a9.4,9.4,0,0,1,2.87-1.21,13.25,13.25,0,0,1,3.34-.43A8.08,8.08,0,0,1,619,670.7c1.26,1,1.88,2.69,1.88,4.93v7.82Z"></path><path class="cls-11" d="M626.37,667.8a3.15,3.15,0,0,1-2.19-.75,2.53,2.53,0,0,1,0-3.75,3.15,3.15,0,0,1,2.19-.75,3.22,3.22,0,0,1,2.18.72,2.3,2.3,0,0,1,.83,1.83,2.55,2.55,0,0,1-.82,1.94A3.07,3.07,0,0,1,626.37,667.8Zm-2.48,15.65V669.36h5v14.09Z"></path><path class="cls-11" d="M637,683.69a14.52,14.52,0,0,1-3.5-.42,9.82,9.82,0,0,1-2.74-1l1.48-3.38a8.66,8.66,0,0,0,2.31.95,9.85,9.85,0,0,0,2.6.35,3.9,3.9,0,0,0,1.73-.26.78.78,0,0,0,.48-.7.64.64,0,0,0-.45-.61,5,5,0,0,0-1.2-.3l-1.62-.23c-.59-.09-1.19-.21-1.79-.35a5.91,5.91,0,0,1-1.63-.68,3.37,3.37,0,0,1-1.19-1.24,4,4,0,0,1-.44-2,3.91,3.91,0,0,1,.79-2.41,5.32,5.32,0,0,1,2.33-1.66,10.09,10.09,0,0,1,3.75-.61,15.57,15.57,0,0,1,3,.3,8.72,8.72,0,0,1,2.56.89L642,673.68a7.31,7.31,0,0,0-2.08-.82,9.45,9.45,0,0,0-2-.22,3.83,3.83,0,0,0-1.75.28.84.84,0,0,0-.51.71.69.69,0,0,0,.44.63,4.17,4.17,0,0,0,1.18.34c.5.08,1,.16,1.63.23a14.4,14.4,0,0,1,1.78.36,5.7,5.7,0,0,1,1.64.69,3.37,3.37,0,0,1,1.18,1.22,3.82,3.82,0,0,1,.44,2,3.74,3.74,0,0,1-.79,2.34,5.38,5.38,0,0,1-2.34,1.66A10.19,10.19,0,0,1,637,683.69Z"></path><path class="cls-11" d="M650.44,683.69a6.48,6.48,0,0,1-2.86-.57,4.26,4.26,0,0,1-1.78-1.56,4.11,4.11,0,0,1-.61-2.21,3.83,3.83,0,0,1,.66-2.25,4.09,4.09,0,0,1,2-1.46,10.47,10.47,0,0,1,3.57-.51h3.32v2.58h-2.65a2.73,2.73,0,0,0-1.68.39,1.35,1.35,0,0,0,0,2.08,2.13,2.13,0,0,0,1.35.39,2.76,2.76,0,0,0,1.47-.41,2.33,2.33,0,0,0,1-1.23l.68,1.82a3.68,3.68,0,0,1-1.52,2.2A5.41,5.41,0,0,1,650.44,683.69Zm4.16-.24v-2.62l-.34-.65v-4.84a2.29,2.29,0,0,0-.71-1.8,3.36,3.36,0,0,0-2.28-.64,7.06,7.06,0,0,0-2,.32,5.67,5.67,0,0,0-1.77.9l-1.66-3.35a9.3,9.3,0,0,1,2.87-1.21,13.25,13.25,0,0,1,3.34-.43,8.08,8.08,0,0,1,5.32,1.57,6.08,6.08,0,0,1,1.88,4.93v7.82Z"></path><path class="cls-11" d="M662.19,683.45V664.16h4.94v19.29Z"></path><path class="cls-11" d="M677.63,683.45V669.36h4.71v4.11l-.7-1.17a4.5,4.5,0,0,1,2-2.38,6.79,6.79,0,0,1,3.4-.79v4.44l-.58-.06H686a3.56,3.56,0,0,0-2.45.82,3.37,3.37,0,0,0-.93,2.66v6.47Z"></path><path class="cls-11" d="M691.44,667.8a3.12,3.12,0,0,1-2.18-.75,2.53,2.53,0,0,1,0-3.75,3.12,3.12,0,0,1,2.18-.75,3.25,3.25,0,0,1,2.19.72,2.3,2.3,0,0,1,.83,1.83,2.58,2.58,0,0,1-.82,1.94A3.1,3.1,0,0,1,691.44,667.8ZM689,683.45V669.36h4.94v14.09Z"></path><path class="cls-11" d="M703,682.73a7.18,7.18,0,0,1-3.44-.85,6.57,6.57,0,0,1-2.52-2.36,7.32,7.32,0,0,1,0-7.21,6.54,6.54,0,0,1,2.52-2.35,7.29,7.29,0,0,1,3.44-.83,6.25,6.25,0,0,1,3.07.71,4.6,4.6,0,0,1,1.94,2.23,11.53,11.53,0,0,1,0,7.69,4.67,4.67,0,0,1-1.94,2.24A6.14,6.14,0,0,1,703,682.73Zm.86,6a15.18,15.18,0,0,1-3.86-.47,9.55,9.55,0,0,1-3.13-1.37l1.79-3.46a6.58,6.58,0,0,0,2.2,1.1,8.65,8.65,0,0,0,2.56.41,4,4,0,0,0,2.88-.87,3.43,3.43,0,0,0,.89-2.54v-1.66l.26-4,0-4v-2.58h4.71v11.52q0,4-2.16,5.93A8.9,8.9,0,0,1,703.87,688.73Zm.31-9.93a3.31,3.31,0,0,0,1.57-.36,2.84,2.84,0,0,0,1.1-1,2.83,2.83,0,0,0-1.1-4,3.43,3.43,0,0,0-1.57-.35,3.5,3.5,0,0,0-1.58.35,2.71,2.71,0,0,0-1.11,1,3,3,0,0,0,0,3,2.8,2.8,0,0,0,1.11,1A3.38,3.38,0,0,0,704.18,678.8Z"></path><path class="cls-11" d="M724.36,669.13a6.54,6.54,0,0,1,3,.66,4.78,4.78,0,0,1,2.09,2,7.2,7.2,0,0,1,.77,3.56v8.06h-4.94V676.2a3.25,3.25,0,0,0-.61-2.2,2.16,2.16,0,0,0-1.7-.69,3,3,0,0,0-1.43.35,2.48,2.48,0,0,0-1,1.08,4.32,4.32,0,0,0-.36,1.9v6.81h-4.94V664.16h4.94v9.21L719,672.2a5.37,5.37,0,0,1,2.22-2.3A6.39,6.39,0,0,1,724.36,669.13Z"></path><path class="cls-11" d="M731.66,673.57v-3.69h10.22v3.69Zm7.78,10.12a6.16,6.16,0,0,1-4.22-1.34,5.14,5.14,0,0,1-1.5-4V666.22h4.94v12a1.67,1.67,0,0,0,.41,1.19,1.46,1.46,0,0,0,1.07.43,2.52,2.52,0,0,0,1.51-.45l1.22,3.46a4.42,4.42,0,0,1-1.53.61A9.07,9.07,0,0,1,739.44,683.69Z"></path><rect class="cls-12" x="418.88" y="333.39" width="66.13" height="66.13" rx="8.53"></rect><polygon class="cls-13" points="473.72 340.12 473.72 391.38 430.17 391.38 430.17 350.62 440.36 340.12 473.72 340.12"></polygon><rect class="cls-14" x="434.34" y="352.3" width="35.21" height="3.76"></rect><rect class="cls-15" x="434.34" y="357.73" width="35.21" height="3.76"></rect><rect class="cls-16" x="434.34" y="363.17" width="35.21" height="3.76"></rect><rect class="cls-17" x="434.34" y="368.61" width="35.21" height="3.76"></rect><rect class="cls-18" x="444.36" y="374.05" width="25.18" height="3.76"></rect><rect class="cls-19" x="449.05" y="379.48" width="20.5" height="3.76"></rect><rect class="cls-20" x="454.06" y="342.11" width="15.48" height="3.76"></rect><rect class="cls-21" x="440.36" y="384.92" width="29.18" height="3.76"></rect><rect class="cls-22" x="418.88" y="227.36" width="66.13" height="66.13" rx="8.53"></rect><rect class="cls-23" x="433.74" y="255.13" width="11.11" height="25.07" transform="translate(-60.61 389.03) rotate(-45)"></rect><rect class="cls-24" x="451.48" y="237.2" width="11.11" height="46.45" transform="translate(596.06 767.75) rotate(-135)"></rect><rect class="cls-25" x="418.88" y="545.83" width="66.13" height="66.13" rx="8.53"></rect><circle class="cls-26" cx="451.94" cy="578.89" r="24.53"></circle><path class="cls-27" d="M472.43,578.9a19.89,19.89,0,1,1-19.88-20.47A20.47,20.47,0,0,1,472.43,578.9Z"></path><text class="cls-28" transform="translate(442.19 589.38)">P</text><rect class="cls-29" x="441.07" y="572.9" width="26.51" height="1.87"></rect><rect class="cls-29" x="441.07" y="575.58" width="26.51" height="1.87"></rect><rect class="cls-30" x="418.88" y="653" width="66.13" height="66.13" rx="8.53"></rect><path class="cls-31" d="M432.82,667.06a16.65,16.65,0,1,0,23.54,0A16.65,16.65,0,0,0,432.82,667.06Zm20.67,20.66a12.58,12.58,0,1,1,0-17.78A12.58,12.58,0,0,1,453.49,687.72Z"></path><rect class="cls-32" x="460.44" y="683.32" width="6.99" height="29.23" rx="1.93" transform="translate(-357.63 532.47) rotate(-45)"></rect><rect class="cls-33" x="418.88" y="439.42" width="66.13" height="66.13" rx="8.53"></rect><rect class="cls-34" x="448.95" y="467.64" width="6.88" height="17.62" rx="3.44"></rect><circle class="cls-35" cx="452.38" cy="461.83" r="3.76" transform="translate(-192.77 503.2) rotate(-49.26)"></circle><path class="cls-36" d="M451.94,448a24.53,24.53,0,1,0,24.53,24.53A24.53,24.53,0,0,0,451.94,448Zm0,44a19.49,19.49,0,1,1,19.49-19.48A19.48,19.48,0,0,1,451.94,492Z"></path></g></g></svg> 