<?xml version="1.0" encoding="UTF-8"?> <svg xmlns="http://www.w3.org/2000/svg" xmlns:xlink="http://www.w3.org/1999/xlink" viewBox="0 0 795.99 490.13"><defs><style>.cls-1{fill:url(#linear-gradient);}.cls-2{fill:url(#linear-gradient-2);}.cls-3{fill:#fff;}.cls-4{fill:url(#linear-gradient-3);}.cls-5{fill:url(#linear-gradient-4);}.cls-6{fill:url(#linear-gradient-5);}.cls-7{fill:url(#linear-gradient-6);}.cls-8{fill:url(#linear-gradient-7);}.cls-9{fill:url(#linear-gradient-8);}.cls-10{fill:url(#linear-gradient-9);}.cls-11{fill:url(#linear-gradient-10);}.cls-12{fill:url(#linear-gradient-11);}.cls-13{fill:url(#linear-gradient-12);}.cls-14{fill:url(#linear-gradient-13);}.cls-15{fill:url(#linear-gradient-14);}.cls-16{fill:url(#linear-gradient-15);}.cls-17{fill:url(#linear-gradient-16);}.cls-18{fill:url(#linear-gradient-17);}.cls-19{fill:url(#linear-gradient-18);}.cls-20{fill:url(#linear-gradient-19);}.cls-21{fill:url(#linear-gradient-20);}.cls-22{fill:url(#linear-gradient-21);}.cls-23{fill:url(#linear-gradient-22);}.cls-24{fill:url(#linear-gradient-23);}.cls-25{fill:url(#linear-gradient-24);}.cls-26{fill:url(#linear-gradient-25);}.cls-27{fill:url(#linear-gradient-26);}.cls-28{fill:url(#linear-gradient-27);}</style><linearGradient id="linear-gradient" x1="449.35" y1="182.23" x2="1073.78" y2="182.23" gradientUnits="userSpaceOnUse"><stop offset="0.21" stop-color="#eb2942"></stop><stop offset="1" stop-color="#fcdcda"></stop></linearGradient><linearGradient id="linear-gradient-2" x1="354.11" y1="426.85" x2="1150.1" y2="426.85" gradientUnits="userSpaceOnUse"><stop offset="0" stop-color="#a03594"></stop><stop offset="1" stop-color="#fcdcda"></stop></linearGradient><linearGradient id="linear-gradient-3" x1="209.08" y1="279.59" x2="287.58" y2="279.59" gradientUnits="userSpaceOnUse"><stop offset="0" stop-color="#bad8df"></stop><stop offset="1" stop-color="#fcdcda"></stop></linearGradient><linearGradient id="linear-gradient-4" x1="222.18" y1="311.29" x2="274.38" y2="311.29" xlink:href="#linear-gradient"></linearGradient><linearGradient id="linear-gradient-5" x1="239.85" y1="296.24" x2="250.58" y2="296.24" xlink:href="#linear-gradient"></linearGradient><linearGradient id="linear-gradient-6" x1="217.51" y1="263.9" x2="237.92" y2="263.9" xlink:href="#linear-gradient"></linearGradient><linearGradient id="linear-gradient-7" x1="225.56" y1="276.24" x2="230.79" y2="276.24" xlink:href="#linear-gradient"></linearGradient><linearGradient id="linear-gradient-8" x1="257.7" y1="263.9" x2="278.11" y2="263.9" xlink:href="#linear-gradient"></linearGradient><linearGradient id="linear-gradient-9" x1="264.83" y1="276.24" x2="270.06" y2="276.24" xlink:href="#linear-gradient"></linearGradient><linearGradient id="linear-gradient-10" x1="228.66" y1="268.16" x2="267.9" y2="268.16" xlink:href="#linear-gradient"></linearGradient><linearGradient id="linear-gradient-11" x1="240.8" y1="288.62" x2="332.94" y2="288.62" xlink:href="#linear-gradient"></linearGradient><linearGradient id="linear-gradient-12" x1="240.8" y1="303.87" x2="332.94" y2="303.87" xlink:href="#linear-gradient"></linearGradient><linearGradient id="linear-gradient-13" x1="225.6" y1="307.55" x2="270.95" y2="307.55" xlink:href="#linear-gradient"></linearGradient><linearGradient id="linear-gradient-14" x1="227.72" y1="251.26" x2="268.95" y2="251.26" xlink:href="#linear-gradient"></linearGradient><linearGradient id="linear-gradient-15" x1="209.08" y1="63.25" x2="287.58" y2="63.25" xlink:href="#linear-gradient-3"></linearGradient><linearGradient id="linear-gradient-16" x1="225.05" y1="63.25" x2="271.6" y2="63.25" xlink:href="#linear-gradient"></linearGradient><linearGradient id="linear-gradient-17" x1="209.08" y1="171.42" x2="287.58" y2="171.42" xlink:href="#linear-gradient-3"></linearGradient><linearGradient id="linear-gradient-18" x1="221.85" y1="153.4" x2="237.92" y2="153.4" xlink:href="#linear-gradient"></linearGradient><linearGradient id="linear-gradient-19" x1="243.59" y1="165.76" x2="282.45" y2="165.76" xlink:href="#linear-gradient"></linearGradient><linearGradient id="linear-gradient-20" x1="231.76" y1="169.13" x2="256.62" y2="169.13" xlink:href="#linear-gradient"></linearGradient><linearGradient id="linear-gradient-21" x1="-1438.57" y1="5144.68" x2="-1413.71" y2="5144.68" gradientTransform="matrix(-0.07, 1, -1, 0, 5256.78, 1603.82)" xlink:href="#linear-gradient"></linearGradient><linearGradient id="linear-gradient-22" x1="218.53" y1="183.61" x2="241.25" y2="183.61" xlink:href="#linear-gradient"></linearGradient><linearGradient id="linear-gradient-23" x1="251.73" y1="194.86" x2="262.66" y2="205.78" xlink:href="#linear-gradient"></linearGradient><linearGradient id="linear-gradient-24" x1="71.01" y1="314.18" x2="340.45" y2="314.18" xlink:href="#linear-gradient-2"></linearGradient><linearGradient id="linear-gradient-25" x1="71.01" y1="214.49" x2="171.57" y2="214.49" gradientUnits="userSpaceOnUse"><stop offset="0.16" stop-color="#b8d6dd"></stop><stop offset="1" stop-color="#fcdcda"></stop></linearGradient><linearGradient id="linear-gradient-26" x1="71.01" y1="214.49" x2="171.57" y2="214.49" xlink:href="#linear-gradient"></linearGradient><linearGradient id="linear-gradient-27" x1="83.82" y1="314.18" x2="163.29" y2="314.18" xlink:href="#linear-gradient"></linearGradient></defs><g id="Layer_2" data-name="Layer 2"><g id="Copy"><path class="cls-1" d="M237.33,0H796a0,0,0,0,1,0,0V364.46a0,0,0,0,1,0,0H171.57a0,0,0,0,1,0,0V65.76A65.76,65.76,0,0,1,237.33,0Z"></path><path class="cls-2" d="M65.76,363.57H796a0,0,0,0,1,0,0v39a87.53,87.53,0,0,1-87.53,87.53H0a0,0,0,0,1,0,0V429.34A65.76,65.76,0,0,1,65.76,363.57Z"></path><path class="cls-3" d="M317.11,77.88h-5.56V58.23h5.56Zm8-7.67h-8.37v-4.6h8.37Zm-.4-12h5.56V77.88h-5.56Z"></path><path class="cls-3" d="M341.76,78.13a10.11,10.11,0,0,1-4.7-1,7.65,7.65,0,0,1-3.12-2.8,7.52,7.52,0,0,1-1.11-4.06,7.62,7.62,0,0,1,1.09-4.06,7.35,7.35,0,0,1,3-2.77,9.7,9.7,0,0,1,8.39-.09A7.13,7.13,0,0,1,348.25,66a8,8,0,0,1,1.09,4.3c0,.18,0,.4,0,.64s0,.47-.05.68H337.21V68.81h9.21l-2,.79a3.52,3.52,0,0,0-.38-1.8,2.9,2.9,0,0,0-1.12-1.18,3.53,3.53,0,0,0-3.34,0,2.84,2.84,0,0,0-1.11,1.19,4,4,0,0,0-.39,1.81v.82a3.8,3.8,0,0,0,.46,1.93,3,3,0,0,0,1.33,1.25,4.62,4.62,0,0,0,2.08.44,5.21,5.21,0,0,0,1.92-.32,5.76,5.76,0,0,0,1.59-1l2.81,2.92a7.13,7.13,0,0,1-2.7,1.84A10.34,10.34,0,0,1,341.76,78.13Z"></path><path class="cls-3" d="M356.05,78.13a7.06,7.06,0,0,1-3.09-.62A4.52,4.52,0,0,1,351,75.83a4.45,4.45,0,0,1-.66-2.39A4.15,4.15,0,0,1,351.1,71a4.48,4.48,0,0,1,2.2-1.57,11.47,11.47,0,0,1,3.85-.55h3.59v2.78h-2.86a2.93,2.93,0,0,0-1.81.42,1.37,1.37,0,0,0-.52,1.13,1.35,1.35,0,0,0,.53,1.12,2.3,2.3,0,0,0,1.46.42,3,3,0,0,0,1.59-.43A2.61,2.61,0,0,0,360.18,73l.73,2a3.92,3.92,0,0,1-1.64,2.37A5.84,5.84,0,0,1,356.05,78.13Zm4.49-.25V75l-.36-.7V69.12a2.49,2.49,0,0,0-.77-2,3.65,3.65,0,0,0-2.46-.69,7.55,7.55,0,0,0-2.22.35,5.92,5.92,0,0,0-1.91,1L351,64.18a10.34,10.34,0,0,1,3.1-1.31,14.47,14.47,0,0,1,3.61-.46,8.68,8.68,0,0,1,5.74,1.7q2,1.69,2,5.32v8.45Z"></path><path class="cls-3" d="M368.74,77.88V57.05h5.34V77.88Z"></path><path class="cls-3" d="M377.3,67.21v-4h11v4Zm8.4,10.92a6.58,6.58,0,0,1-4.55-1.45,5.5,5.5,0,0,1-1.63-4.36V59.26h5.33v13a1.75,1.75,0,0,0,.45,1.28,1.54,1.54,0,0,0,1.16.46,2.79,2.79,0,0,0,1.62-.47l1.32,3.73a4.75,4.75,0,0,1-1.65.66A9.83,9.83,0,0,1,385.7,78.13Z"></path><path class="cls-3" d="M401.22,62.41a7.13,7.13,0,0,1,3.2.71,5.23,5.23,0,0,1,2.26,2.21,7.86,7.86,0,0,1,.83,3.84v8.71h-5.33V70a3.53,3.53,0,0,0-.66-2.37,2.36,2.36,0,0,0-1.84-.74,3.15,3.15,0,0,0-1.55.38A2.61,2.61,0,0,0,397,68.47a4.65,4.65,0,0,0-.39,2v7.36h-5.34V57.05h5.34V67l-1.24-1.26a5.85,5.85,0,0,1,2.39-2.48A6.93,6.93,0,0,1,401.22,62.41Z"></path><path class="cls-3" d="M410.12,82.28,412.23,75l.75,3a3.28,3.28,0,0,1-2.3-.83,2.89,2.89,0,0,1-.9-2.23,3,3,0,0,1,.92-2.3,3.47,3.47,0,0,1,4.56,0,3,3,0,0,1,.9,2.29,5.12,5.12,0,0,1-.06.78,5.48,5.48,0,0,1-.25,1c-.13.37-.34.87-.62,1.49l-1.77,4.09Z"></path><path class="cls-3" d="M432.07,78.13a15.75,15.75,0,0,1-3.77-.45,10.6,10.6,0,0,1-3-1.12l1.6-3.65a9.4,9.4,0,0,0,2.49,1,11.1,11.1,0,0,0,2.81.38,4.29,4.29,0,0,0,1.87-.28.86.86,0,0,0,.52-.76.7.7,0,0,0-.49-.66,5.47,5.47,0,0,0-1.3-.32L431.09,72c-.64-.1-1.28-.22-1.92-.38a6.06,6.06,0,0,1-1.77-.73,3.71,3.71,0,0,1-1.28-1.33,4.32,4.32,0,0,1-.48-2.14,4.23,4.23,0,0,1,.86-2.6A5.74,5.74,0,0,1,429,63.07a11,11,0,0,1,4.05-.66,17.27,17.27,0,0,1,3.24.32,9.2,9.2,0,0,1,2.76,1l-1.6,3.62a7.72,7.72,0,0,0-2.24-.88,10.24,10.24,0,0,0-2.14-.24,4.08,4.08,0,0,0-1.89.31.88.88,0,0,0-.55.76.75.75,0,0,0,.48.68,4.58,4.58,0,0,0,1.28.37c.53.08,1.11.17,1.75.25a14.48,14.48,0,0,1,1.92.38,6.67,6.67,0,0,1,1.77.74A3.68,3.68,0,0,1,439.12,71a4.21,4.21,0,0,1,.48,2.12,4.07,4.07,0,0,1-.86,2.53,5.79,5.79,0,0,1-2.53,1.8A11.28,11.28,0,0,1,432.07,78.13Z"></path><path class="cls-3" d="M446.56,78.13a7,7,0,0,1-3.09-.62,4.52,4.52,0,0,1-1.92-1.68,4.45,4.45,0,0,1-.66-2.39A4.21,4.21,0,0,1,441.6,71a4.55,4.55,0,0,1,2.21-1.57,11.4,11.4,0,0,1,3.84-.55h3.6v2.78h-2.87a3,3,0,0,0-1.81.42,1.4,1.4,0,0,0-.52,1.13,1.36,1.36,0,0,0,.54,1.12,2.29,2.29,0,0,0,1.46.42,3,3,0,0,0,1.58-.43A2.57,2.57,0,0,0,450.69,73l.73,2a3.93,3.93,0,0,1-1.65,2.37A5.78,5.78,0,0,1,446.56,78.13Zm4.49-.25V75l-.36-.7V69.12a2.47,2.47,0,0,0-.78-2,3.6,3.6,0,0,0-2.45-.69,7.55,7.55,0,0,0-2.22.35,5.82,5.82,0,0,0-1.91,1l-1.8-3.62a10.41,10.41,0,0,1,3.11-1.31,14.39,14.39,0,0,1,3.6-.46,8.66,8.66,0,0,1,5.74,1.7q2,1.69,2,5.32v8.45Z"></path><path class="cls-3" d="M457.65,67.21v-4h11v4Zm2.22,10.67v-15a5.91,5.91,0,0,1,1.64-4.39,6.33,6.33,0,0,1,4.7-1.65,9.68,9.68,0,0,1,1.94.2,5.09,5.09,0,0,1,1.6.59l-1.32,3.76a3.47,3.47,0,0,0-.76-.32,2.72,2.72,0,0,0-.84-.13,1.75,1.75,0,0,0-1.31.49,2.13,2.13,0,0,0-.46,1.51V64l.14,2.22V77.88Z"></path><path class="cls-3" d="M478.31,78.13a10.11,10.11,0,0,1-4.7-1,7.65,7.65,0,0,1-3.12-2.8,7.52,7.52,0,0,1-1.11-4.06,7.7,7.7,0,0,1,1.08-4.06,7.47,7.47,0,0,1,3-2.77,9.72,9.72,0,0,1,8.4-.09A7.1,7.1,0,0,1,484.79,66a8,8,0,0,1,1.1,4.3c0,.18,0,.4,0,.64s0,.47-.06.68h-12V68.81H483l-2,.79a3.52,3.52,0,0,0-.38-1.8,3,3,0,0,0-1.12-1.18,3.26,3.26,0,0,0-1.67-.42,3.21,3.21,0,0,0-1.67.42A2.84,2.84,0,0,0,475,67.81a3.86,3.86,0,0,0-.4,1.81v.82a3.81,3.81,0,0,0,.47,1.93,3,3,0,0,0,1.33,1.25,4.59,4.59,0,0,0,2.08.44,5.21,5.21,0,0,0,1.92-.32,6.06,6.06,0,0,0,1.59-1l2.8,2.92a7.1,7.1,0,0,1-2.69,1.84A10.34,10.34,0,0,1,478.31,78.13Z"></path><path class="cls-3" d="M486.62,67.21v-4h11v4ZM495,78.13a6.61,6.61,0,0,1-4.55-1.45,5.53,5.53,0,0,1-1.62-4.36V59.26h5.33v13a1.75,1.75,0,0,0,.45,1.28,1.52,1.52,0,0,0,1.15.46,2.8,2.8,0,0,0,1.63-.47l1.32,3.73a4.73,4.73,0,0,1-1.66.66A9.76,9.76,0,0,1,495,78.13Z"></path><path class="cls-3" d="M505,78.52l-6.71-15.86h5.47L508.74,75ZM503,83.58a8.21,8.21,0,0,1-2.43-.38,6.12,6.12,0,0,1-2-1l1.85-3.73a3.63,3.63,0,0,0,1.11.66,3.49,3.49,0,0,0,1.25.23,2.22,2.22,0,0,0,1.38-.39,3.19,3.19,0,0,0,.87-1.23l.7-1.77.42-.54,5.17-12.77h5.08l-6.57,15.83A10.18,10.18,0,0,1,508,81.57a5.76,5.76,0,0,1-2.28,1.56A8.07,8.07,0,0,1,503,83.58Z"></path><path class="cls-3" d="M516.15,82.28,518.26,75l.76,3a3.29,3.29,0,0,1-2.31-.83,2.91,2.91,0,0,1-.89-2.23,3,3,0,0,1,.91-2.3,3.21,3.21,0,0,1,2.29-.85,3.17,3.17,0,0,1,2.27.86,3,3,0,0,1,.9,2.29,5.12,5.12,0,0,1-.06.78,5.48,5.48,0,0,1-.25,1c-.13.37-.34.87-.62,1.49l-1.77,4.09Z"></path><path class="cls-3" d="M537.38,78.13a7,7,0,0,1-3.09-.62,4.55,4.55,0,0,1-1.93-1.68,4.45,4.45,0,0,1-.66-2.39,4.15,4.15,0,0,1,.72-2.43,4.52,4.52,0,0,1,2.2-1.57,11.51,11.51,0,0,1,3.85-.55h3.59v2.78H539.2a3,3,0,0,0-1.81.42,1.47,1.47,0,0,0,0,2.25,2.32,2.32,0,0,0,1.46.42,3,3,0,0,0,1.59-.43,2.51,2.51,0,0,0,1-1.34l.73,2a3.92,3.92,0,0,1-1.64,2.37A5.8,5.8,0,0,1,537.38,78.13Zm4.49-.25V75l-.37-.7V69.12a2.46,2.46,0,0,0-.77-2,3.63,3.63,0,0,0-2.46-.69,7.44,7.44,0,0,0-2.21.35,5.82,5.82,0,0,0-1.91,1l-1.8-3.62a10.46,10.46,0,0,1,3.1-1.31,14.47,14.47,0,0,1,3.61-.46,8.68,8.68,0,0,1,5.74,1.7q2,1.69,2,5.32v8.45Z"></path><path class="cls-3" d="M560,62.41a7.13,7.13,0,0,1,3.2.71,5.23,5.23,0,0,1,2.26,2.21,7.75,7.75,0,0,1,.83,3.84v8.71h-5.33V70a3.53,3.53,0,0,0-.66-2.37,2.34,2.34,0,0,0-1.84-.74,3.09,3.09,0,0,0-1.54.38,2.58,2.58,0,0,0-1.1,1.16,4.65,4.65,0,0,0-.39,2v7.36h-5.34V62.66h5.09V67l-1-1.26a5.85,5.85,0,0,1,2.39-2.48A6.93,6.93,0,0,1,560,62.41Z"></path><path class="cls-3" d="M576.29,78.13a7.44,7.44,0,0,1-3.78-1,7.15,7.15,0,0,1-2.71-2.72,9.18,9.18,0,0,1,0-8.37,7.12,7.12,0,0,1,2.71-2.71,7.63,7.63,0,0,1,3.78-1,6.23,6.23,0,0,1,3.32.84,5.13,5.13,0,0,1,2.06,2.58,11.83,11.83,0,0,1,.71,4.41,12.45,12.45,0,0,1-.68,4.46,5.05,5.05,0,0,1-2,2.59A6.31,6.31,0,0,1,576.29,78.13Zm1.12-4.24a3.09,3.09,0,0,0,1.61-.42,3,3,0,0,0,1.14-1.25,4.32,4.32,0,0,0,.42-2,4.13,4.13,0,0,0-.42-1.95A3,3,0,0,0,579,67.07a3.09,3.09,0,0,0-1.61-.42,3.15,3.15,0,0,0-1.64.42,3,3,0,0,0-1.14,1.22,4.13,4.13,0,0,0-.42,1.95,4.32,4.32,0,0,0,.42,2,3,3,0,0,0,1.14,1.25A3.15,3.15,0,0,0,577.41,73.89Zm3.34,4V75.27l0-5-.28-5V57.05h5.33V77.88Z"></path><path class="cls-3" d="M600.76,77.88l-5.41-15.22h5l4.3,12.72h-2.42l4.46-12.72h4.55l4.3,12.72h-2.36l4.44-12.72h4.68l-5.42,15.22h-5.16l-3.65-10.53h1.57l-3.76,10.53Z"></path><path class="cls-3" d="M631.39,78.13a10.14,10.14,0,0,1-4.7-1,7.45,7.45,0,0,1-4.22-6.86,7.7,7.7,0,0,1,1.08-4.06,7.41,7.41,0,0,1,3-2.77,9.7,9.7,0,0,1,8.39-.09,7.07,7.07,0,0,1,3,2.68A8,8,0,0,1,639,70.3c0,.18,0,.4,0,.64s0,.47-.06.68h-12V68.81h9.2l-2,.79a3.52,3.52,0,0,0-.38-1.8,2.9,2.9,0,0,0-1.12-1.18,3.53,3.53,0,0,0-3.34,0,2.84,2.84,0,0,0-1.11,1.19,4,4,0,0,0-.39,1.81v.82a3.8,3.8,0,0,0,.46,1.93,3,3,0,0,0,1.33,1.25,4.62,4.62,0,0,0,2.08.44,5.21,5.21,0,0,0,1.92-.32,5.76,5.76,0,0,0,1.59-1l2.81,2.92a7.13,7.13,0,0,1-2.7,1.84A10.3,10.3,0,0,1,631.39,78.13Z"></path><path class="cls-3" d="M641.3,77.88V57.05h5.34V77.88Z"></path><path class="cls-3" d="M648.35,67.21v-4h11v4Zm2.22,10.67v-15a6,6,0,0,1,1.64-4.39,6.33,6.33,0,0,1,4.7-1.65,9.68,9.68,0,0,1,1.94.2,5,5,0,0,1,1.6.59l-1.32,3.76a3.28,3.28,0,0,0-.76-.32,2.72,2.72,0,0,0-.84-.13,1.75,1.75,0,0,0-1.31.49,2.18,2.18,0,0,0-.46,1.51V64l.14,2.22V77.88Z"></path><path class="cls-3" d="M665.73,78.13a7,7,0,0,1-3.09-.62,4.52,4.52,0,0,1-1.92-1.68,4.45,4.45,0,0,1-.66-2.39,4.21,4.21,0,0,1,.71-2.43A4.51,4.51,0,0,1,663,69.44a11.4,11.4,0,0,1,3.84-.55h3.6v2.78h-2.87a3,3,0,0,0-1.81.42,1.47,1.47,0,0,0,0,2.25,2.32,2.32,0,0,0,1.46.42,3,3,0,0,0,1.59-.43A2.51,2.51,0,0,0,669.85,73l.73,2a3.88,3.88,0,0,1-1.64,2.37A5.78,5.78,0,0,1,665.73,78.13Zm4.49-.25V75l-.37-.7V69.12a2.46,2.46,0,0,0-.77-2,3.6,3.6,0,0,0-2.45-.69,7.55,7.55,0,0,0-2.22.35,5.82,5.82,0,0,0-1.91,1l-1.8-3.62a10.46,10.46,0,0,1,3.1-1.31,14.47,14.47,0,0,1,3.61-.46,8.66,8.66,0,0,1,5.74,1.7q2,1.69,2,5.32v8.45Z"></path><path class="cls-3" d="M678.42,77.88V62.66h5.08V67.1l-.76-1.27a5,5,0,0,1,2.19-2.57,7.39,7.39,0,0,1,3.68-.85v4.8a6.33,6.33,0,0,0-.63-.07l-.58,0a3.85,3.85,0,0,0-2.64.89,3.66,3.66,0,0,0-1,2.88v7Z"></path><path class="cls-3" d="M698.49,78.13a10.11,10.11,0,0,1-4.7-1,7.65,7.65,0,0,1-3.12-2.8,7.52,7.52,0,0,1-1.11-4.06,7.7,7.7,0,0,1,1.08-4.06,7.47,7.47,0,0,1,3-2.77,9.72,9.72,0,0,1,8.4-.09A7.1,7.1,0,0,1,705,66a8,8,0,0,1,1.1,4.3c0,.18,0,.4,0,.64s0,.47-.06.68h-12V68.81h9.21l-2,.79a3.52,3.52,0,0,0-.38-1.8,3,3,0,0,0-1.12-1.18A3.26,3.26,0,0,0,698,66.2a3.21,3.21,0,0,0-1.67.42,2.84,2.84,0,0,0-1.11,1.19,3.86,3.86,0,0,0-.4,1.81v.82a3.81,3.81,0,0,0,.47,1.93,3,3,0,0,0,1.33,1.25,4.59,4.59,0,0,0,2.08.44,5.21,5.21,0,0,0,1.92-.32,6.06,6.06,0,0,0,1.59-1l2.8,2.92a7.1,7.1,0,0,1-2.69,1.84A10.34,10.34,0,0,1,698.49,78.13Z"></path><path class="cls-3" d="M315.74,178.94V163.7h-6v-4.41h17.6v4.41h-6v15.24Z"></path><path class="cls-3" d="M328.68,178.94V163.73h5.08v4.43L333,166.9a4.92,4.92,0,0,1,2.19-2.57,7.39,7.39,0,0,1,3.68-.86v4.8l-.63-.07h-.58a3.88,3.88,0,0,0-2.64.88,3.66,3.66,0,0,0-1,2.88v7Z"></path><path class="cls-3" d="M344.79,179.19a7,7,0,0,1-3.08-.61,4.58,4.58,0,0,1-1.93-1.69,4.42,4.42,0,0,1-.66-2.38,4.1,4.1,0,0,1,.72-2.43,4.4,4.4,0,0,1,2.2-1.57,11.26,11.26,0,0,1,3.85-.55h3.59v2.78h-2.86a2.93,2.93,0,0,0-1.81.42,1.46,1.46,0,0,0,0,2.24,2.33,2.33,0,0,0,1.46.43,3,3,0,0,0,1.59-.44,2.49,2.49,0,0,0,1.05-1.33l.73,2a3.92,3.92,0,0,1-1.64,2.37A5.76,5.76,0,0,1,344.79,179.19Zm4.5-.25v-2.83l-.37-.71v-5.22a2.49,2.49,0,0,0-.77-2,3.63,3.63,0,0,0-2.46-.69,7.55,7.55,0,0,0-2.22.35,6.07,6.07,0,0,0-1.9,1l-1.8-3.62a10.34,10.34,0,0,1,3.1-1.3,14.49,14.49,0,0,1,3.61-.47,8.73,8.73,0,0,1,5.74,1.7c1.36,1.13,2,2.91,2,5.32v8.45Z"></path><path class="cls-3" d="M360.15,162a3.4,3.4,0,0,1-2.36-.81,2.73,2.73,0,0,1,0-4,3.4,3.4,0,0,1,2.36-.81,3.53,3.53,0,0,1,2.36.77,2.51,2.51,0,0,1,.9,2,2.74,2.74,0,0,1-.89,2.09A3.3,3.3,0,0,1,360.15,162Zm-2.67,16.9V163.73h5.34v15.21Z"></path><path class="cls-3" d="M376,163.47a7,7,0,0,1,3.2.72,5.26,5.26,0,0,1,2.26,2.2,7.9,7.9,0,0,1,.83,3.85v8.7H377v-7.83a3.5,3.5,0,0,0-.66-2.37,2.31,2.31,0,0,0-1.83-.75,3.23,3.23,0,0,0-1.55.38,2.54,2.54,0,0,0-1.09,1.17,4.45,4.45,0,0,0-.4,2.05v7.35h-5.33V163.73h5.08v4.32l-1-1.26a5.8,5.8,0,0,1,2.38-2.49A7.1,7.1,0,0,1,376,163.47Z"></path><path class="cls-3" d="M388.2,162a3.38,3.38,0,0,1-2.36-.81,2.73,2.73,0,0,1,0-4,3.38,3.38,0,0,1,2.36-.81,3.48,3.48,0,0,1,2.35.77,2.51,2.51,0,0,1,.9,2,2.73,2.73,0,0,1-.88,2.09A3.3,3.3,0,0,1,388.2,162Zm-2.67,16.9V163.73h5.33v15.21Z"></path><path class="cls-3" d="M404.09,163.47a7.06,7.06,0,0,1,3.2.72,5.32,5.32,0,0,1,2.26,2.2,7.91,7.91,0,0,1,.82,3.85v8.7H405v-7.83a3.5,3.5,0,0,0-.66-2.37,2.32,2.32,0,0,0-1.84-.75,3.19,3.19,0,0,0-1.54.38,2.56,2.56,0,0,0-1.1,1.17,4.59,4.59,0,0,0-.39,2.05v7.35h-5.33V163.73h5.08v4.32l-1-1.26a5.82,5.82,0,0,1,2.39-2.49A7,7,0,0,1,404.09,163.47Z"></path><path class="cls-3" d="M420.28,178.16a7.77,7.77,0,0,1-3.72-.92,7.57,7.57,0,0,1-2.72-10.33,7.06,7.06,0,0,1,2.72-2.54,7.87,7.87,0,0,1,3.72-.9,6.65,6.65,0,0,1,3.32.78,4.93,4.93,0,0,1,2.09,2.39,12.54,12.54,0,0,1,0,8.32,5,5,0,0,1-2.09,2.41A6.66,6.66,0,0,1,420.28,178.16Zm.93,6.48a16.66,16.66,0,0,1-4.17-.51,10.16,10.16,0,0,1-3.38-1.48l1.93-3.74a7.09,7.09,0,0,0,2.38,1.2,9.32,9.32,0,0,0,2.76.43,4.33,4.33,0,0,0,3.12-.94,3.71,3.71,0,0,0,.95-2.74v-1.79l.28-4.27,0-4.3v-2.77h5.08v12.43c0,2.88-.78,5-2.33,6.4A9.59,9.59,0,0,1,421.21,184.64Zm.34-10.72a3.53,3.53,0,0,0,1.7-.4,3,3,0,0,0,1.17-1.09,3.24,3.24,0,0,0,0-3.26,2.9,2.9,0,0,0-1.17-1.08,3.76,3.76,0,0,0-1.7-.38,3.85,3.85,0,0,0-1.72.38,2.89,2.89,0,0,0-1.19,1.08,3.3,3.3,0,0,0,0,3.26,3,3,0,0,0,1.19,1.09A3.61,3.61,0,0,0,421.55,173.92Z"></path><path class="cls-3" d="M446.25,179.19a7,7,0,0,1-3.09-.61,4.61,4.61,0,0,1-1.92-1.69,4.42,4.42,0,0,1-.66-2.38,4.1,4.1,0,0,1,.72-2.43,4.36,4.36,0,0,1,2.2-1.57,11.16,11.16,0,0,1,3.84-.55h3.6v2.78h-2.86a3,3,0,0,0-1.82.42,1.37,1.37,0,0,0-.51,1.12,1.33,1.33,0,0,0,.53,1.12,2.29,2.29,0,0,0,1.46.43,3,3,0,0,0,1.58-.44,2.55,2.55,0,0,0,1.06-1.33l.73,2a3.89,3.89,0,0,1-1.65,2.37A5.7,5.7,0,0,1,446.25,179.19Zm4.49-.25v-2.83l-.36-.71v-5.22a2.49,2.49,0,0,0-.77-2,3.65,3.65,0,0,0-2.46-.69,7.55,7.55,0,0,0-2.22.35,6.13,6.13,0,0,0-1.91,1l-1.79-3.62a10.34,10.34,0,0,1,3.1-1.3,14.41,14.41,0,0,1,3.6-.47,8.74,8.74,0,0,1,5.75,1.7c1.35,1.13,2,2.91,2,5.32v8.45Z"></path><path class="cls-3" d="M468.85,163.47a7,7,0,0,1,3.2.72,5.26,5.26,0,0,1,2.26,2.2,7.9,7.9,0,0,1,.83,3.85v8.7H469.8v-7.83a3.5,3.5,0,0,0-.66-2.37,2.32,2.32,0,0,0-1.84-.75,3.22,3.22,0,0,0-1.54.38,2.54,2.54,0,0,0-1.09,1.17,4.45,4.45,0,0,0-.4,2.05v7.35h-5.33V163.73H464v4.32l-1-1.26a5.8,5.8,0,0,1,2.38-2.49A7.08,7.08,0,0,1,468.85,163.47Z"></path><path class="cls-3" d="M485.16,179.19a7.56,7.56,0,0,1-3.78-1,7.32,7.32,0,0,1-2.71-2.73,9.15,9.15,0,0,1,0-8.36,7.12,7.12,0,0,1,2.71-2.71,7.56,7.56,0,0,1,3.78-1,6.24,6.24,0,0,1,3.33.84,5.31,5.31,0,0,1,2.06,2.59,11.85,11.85,0,0,1,.7,4.41,12.51,12.51,0,0,1-.67,4.46,5.12,5.12,0,0,1-2,2.58A6.32,6.32,0,0,1,485.16,179.19Zm1.12-4.23a3.16,3.16,0,0,0,1.62-.43,2.94,2.94,0,0,0,1.13-1.25,4.31,4.31,0,0,0,.42-2,4.2,4.2,0,0,0-.42-2,3,3,0,0,0-1.13-1.22,3.37,3.37,0,0,0-3.26,0,3,3,0,0,0-1.14,1.22,4.2,4.2,0,0,0-.42,2,4.31,4.31,0,0,0,.42,2,2.9,2.9,0,0,0,1.14,1.25A3.18,3.18,0,0,0,486.28,175Zm3.34,4v-2.61l0-5-.28-5v-8.17h5.33v20.83Z"></path><path class="cls-3" d="M512.64,179.19a7.52,7.52,0,0,1-3.77-1,7.18,7.18,0,0,1-2.71-2.73,9.15,9.15,0,0,1,0-8.36,7,7,0,0,1,2.71-2.71,7.52,7.52,0,0,1,3.77-1,6.24,6.24,0,0,1,3.33.84A5.25,5.25,0,0,1,518,166.9a11.85,11.85,0,0,1,.7,4.41,12.51,12.51,0,0,1-.67,4.46,5.07,5.07,0,0,1-2,2.58A6.32,6.32,0,0,1,512.64,179.19Zm1.13-4.23a3.15,3.15,0,0,0,1.61-.43,2.9,2.9,0,0,0,1.14-1.25,4.31,4.31,0,0,0,.42-2,4.2,4.2,0,0,0-.42-2,3,3,0,0,0-1.14-1.22,3.14,3.14,0,0,0-1.61-.42,3.21,3.21,0,0,0-1.65.42,3,3,0,0,0-1.13,1.22,4.2,4.2,0,0,0-.42,2,4.31,4.31,0,0,0,.42,2,2.94,2.94,0,0,0,1.13,1.25A3.22,3.22,0,0,0,513.77,175Zm3.34,4v-2.61l0-5-.28-5v-8.17h5.34v20.83Z"></path><path class="cls-3" d="M533.44,179.19a10.27,10.27,0,0,1-4.7-1,7.65,7.65,0,0,1-3.11-2.81,7.51,7.51,0,0,1-1.11-4.05,7.68,7.68,0,0,1,1.08-4.06,7.36,7.36,0,0,1,3-2.78,9.65,9.65,0,0,1,8.39-.08,7,7,0,0,1,2.95,2.68,8,8,0,0,1,1.09,4.29c0,.19,0,.4,0,.65s0,.47-.06.67h-12v-2.81h9.2l-2,.79a3.47,3.47,0,0,0-.38-1.8,3,3,0,0,0-1.12-1.18,3.53,3.53,0,0,0-3.34,0,2.81,2.81,0,0,0-1.11,1.2,4,4,0,0,0-.39,1.81v.81a3.84,3.84,0,0,0,.46,1.94,3.12,3.12,0,0,0,1.34,1.25,4.58,4.58,0,0,0,2.07.43,5.1,5.1,0,0,0,1.93-.32,5.63,5.63,0,0,0,1.58-1l2.81,2.92a7,7,0,0,1-2.7,1.84A10.3,10.3,0,0,1,533.44,179.19Z"></path><path class="cls-3" d="M547.31,178.94l-6.26-15.21h5.48l5,12.71h-2.75L554,163.73h5.08l-6.28,15.21Z"></path><path class="cls-3" d="M567.89,179.19a10.24,10.24,0,0,1-4.7-1,7.67,7.67,0,0,1-3.12-2.81,7.51,7.51,0,0,1-1.11-4.05,7.6,7.6,0,0,1,1.09-4.06,7.3,7.3,0,0,1,3-2.78,9.65,9.65,0,0,1,8.39-.08,7.06,7.06,0,0,1,3,2.68,8,8,0,0,1,1.09,4.29c0,.19,0,.4,0,.65s0,.47-.05.67h-12v-2.81h9.21l-2,.79a3.57,3.57,0,0,0-.38-1.8,3,3,0,0,0-1.12-1.18,3.53,3.53,0,0,0-3.34,0,2.81,2.81,0,0,0-1.11,1.2,4,4,0,0,0-.39,1.81v.81a3.84,3.84,0,0,0,.46,1.94,3.09,3.09,0,0,0,1.33,1.25,4.6,4.6,0,0,0,2.08.43,5,5,0,0,0,1.92-.32,5.53,5.53,0,0,0,1.59-1l2.81,2.92a7,7,0,0,1-2.7,1.84A10.34,10.34,0,0,1,567.89,179.19Z"></path><path class="cls-3" d="M577.8,178.94V158.11h5.34v20.83Z"></path><path class="cls-3" d="M594.08,179.19a9.36,9.36,0,0,1-4.43-1,7.69,7.69,0,0,1-3-2.79,8.05,8.05,0,0,1,0-8.16,7.69,7.69,0,0,1,3-2.76,10.36,10.36,0,0,1,8.88,0,7.36,7.36,0,0,1,4.14,6.84,7.64,7.64,0,0,1-1.09,4.08,7.56,7.56,0,0,1-3.05,2.79A9.45,9.45,0,0,1,594.08,179.19Zm0-4.23a3.22,3.22,0,0,0,1.65-.43,2.94,2.94,0,0,0,1.13-1.25,4.31,4.31,0,0,0,.42-2,4.2,4.2,0,0,0-.42-2,3,3,0,0,0-1.13-1.22,3.21,3.21,0,0,0-1.65-.42,3.12,3.12,0,0,0-1.61.42,3.08,3.08,0,0,0-1.15,1.22,4.08,4.08,0,0,0-.44,2,4.18,4.18,0,0,0,.44,2,3,3,0,0,0,1.15,1.25A3.13,3.13,0,0,0,594.08,175Z"></path><path class="cls-3" d="M605,184.39V163.73h5.09v2.58l0,5,.28,5.06v8Zm9.58-5.2a6.19,6.19,0,0,1-3.32-.85,5.36,5.36,0,0,1-2.09-2.59,11.78,11.78,0,0,1-.71-4.42,12.41,12.41,0,0,1,.67-4.45,5.11,5.11,0,0,1,2-2.57,6.36,6.36,0,0,1,3.41-.84,7.53,7.53,0,0,1,3.77,1,7.27,7.27,0,0,1,2.7,2.72,8.35,8.35,0,0,1,1,4.17,8.46,8.46,0,0,1-1,4.19,7.06,7.06,0,0,1-2.7,2.72A7.52,7.52,0,0,1,614.58,179.19ZM613.45,175a3.16,3.16,0,0,0,1.62-.43,3,3,0,0,0,1.15-1.23,4.7,4.7,0,0,0,0-3.93,3.07,3.07,0,0,0-1.15-1.24,3.16,3.16,0,0,0-1.62-.42,3.12,3.12,0,0,0-1.61.42,3.07,3.07,0,0,0-1.15,1.24,4.61,4.61,0,0,0,0,3.93,3,3,0,0,0,1.15,1.23A3.13,3.13,0,0,0,613.45,175Z"></path><path class="cls-3" d="M644.19,163.47a6.75,6.75,0,0,1,3.16.72,5.11,5.11,0,0,1,2.19,2.2,8,8,0,0,1,.8,3.85v8.7H645v-7.83a3.68,3.68,0,0,0-.62-2.37,2.06,2.06,0,0,0-1.68-.75,2.59,2.59,0,0,0-1.38.37,2.33,2.33,0,0,0-1,1.11,4.56,4.56,0,0,0-.34,1.92v7.55h-5.33v-7.83a3.74,3.74,0,0,0-.61-2.37,2.06,2.06,0,0,0-1.7-.75,2.6,2.6,0,0,0-1.39.37,2.44,2.44,0,0,0-1,1.11,4.54,4.54,0,0,0-.35,1.92v7.55h-5.33V163.73h5.08V168l-1-1.2a5.72,5.72,0,0,1,2.3-2.46,6.49,6.49,0,0,1,3.25-.83,6.24,6.24,0,0,1,3.61,1.06,5.19,5.19,0,0,1,2.09,3.27l-1.74-.37a6.41,6.41,0,0,1,2.46-2.9A6.76,6.76,0,0,1,644.19,163.47Z"></path><path class="cls-3" d="M661.74,179.19a10.24,10.24,0,0,1-4.7-1,7.67,7.67,0,0,1-3.12-2.81,7.51,7.51,0,0,1-1.11-4.05,7.68,7.68,0,0,1,1.08-4.06,7.43,7.43,0,0,1,3-2.78,9.24,9.24,0,0,1,4.3-1,9.14,9.14,0,0,1,4.1.92,7,7,0,0,1,2.94,2.68,7.91,7.91,0,0,1,1.1,4.29c0,.19,0,.4,0,.65s0,.47,0,.67h-12v-2.81h9.21l-2,.79a3.57,3.57,0,0,0-.38-1.8,3,3,0,0,0-1.12-1.18,3.26,3.26,0,0,0-1.67-.42,3.21,3.21,0,0,0-1.67.42,2.81,2.81,0,0,0-1.11,1.2,4,4,0,0,0-.4,1.81v.81a3.84,3.84,0,0,0,.47,1.94,3.09,3.09,0,0,0,1.33,1.25,4.6,4.6,0,0,0,2.08.43,5,5,0,0,0,1.92-.32,5.67,5.67,0,0,0,1.59-1l2.8,2.92a6.91,6.91,0,0,1-2.69,1.84A10.34,10.34,0,0,1,661.74,179.19Z"></path><path class="cls-3" d="M681.56,163.47a7,7,0,0,1,3.2.72,5.26,5.26,0,0,1,2.26,2.2,7.9,7.9,0,0,1,.83,3.85v8.7h-5.34v-7.83a3.5,3.5,0,0,0-.66-2.37A2.3,2.3,0,0,0,680,168a3.23,3.23,0,0,0-1.55.38,2.54,2.54,0,0,0-1.09,1.17,4.45,4.45,0,0,0-.4,2.05v7.35h-5.33V163.73h5.08v4.32l-1-1.26a5.8,5.8,0,0,1,2.38-2.49A7.1,7.1,0,0,1,681.56,163.47Z"></path><path class="cls-3" d="M689.45,168.27v-4h11v4Zm8.39,10.92a6.61,6.61,0,0,1-4.54-1.44,5.54,5.54,0,0,1-1.63-4.37v-13H697v13a1.73,1.73,0,0,0,.45,1.27,1.53,1.53,0,0,0,1.15.47,2.73,2.73,0,0,0,1.63-.48l1.32,3.73a4.73,4.73,0,0,1-1.66.66A9.76,9.76,0,0,1,697.84,179.19Z"></path><path class="cls-3" d="M311.55,280V260.35h9a11.3,11.3,0,0,1,4.64.87,6.79,6.79,0,0,1,3,2.52,7,7,0,0,1,1.07,3.89,6.82,6.82,0,0,1-1.07,3.83,6.75,6.75,0,0,1-3,2.47,11.48,11.48,0,0,1-4.64.85h-5.9l2.47-2.33V280Zm5.56-7-2.47-2.55h5.56a3.81,3.81,0,0,0,2.6-.76,2.66,2.66,0,0,0,.85-2.1,2.72,2.72,0,0,0-.85-2.14,3.86,3.86,0,0,0-2.6-.76h-5.56l2.47-2.55Zm6.6,7-4.88-7.16h5.92l4.91,7.16Z"></path><path class="cls-3" d="M339.91,280.26a10.11,10.11,0,0,1-4.7-1,7.65,7.65,0,0,1-3.12-2.8,7.52,7.52,0,0,1-1.11-4.06,7.68,7.68,0,0,1,1.08-4.06,7.5,7.5,0,0,1,3-2.78,9.23,9.23,0,0,1,4.3-1,9.14,9.14,0,0,1,4.1.91,7,7,0,0,1,2.94,2.68,7.92,7.92,0,0,1,1.1,4.3c0,.18,0,.4,0,.64s0,.47,0,.68H335.36v-2.81h9.21l-2,.78a3.51,3.51,0,0,0-.38-1.79,3,3,0,0,0-1.12-1.18,3.26,3.26,0,0,0-1.67-.42,3.21,3.21,0,0,0-1.67.42,2.84,2.84,0,0,0-1.11,1.19,4,4,0,0,0-.4,1.81v.82a3.83,3.83,0,0,0,.47,1.93,3,3,0,0,0,1.33,1.25,4.59,4.59,0,0,0,2.08.44,5.21,5.21,0,0,0,1.92-.32,5.91,5.91,0,0,0,1.59-1l2.8,2.92a7,7,0,0,1-2.69,1.84A10.34,10.34,0,0,1,339.91,280.26Z"></path><path class="cls-3" d="M353.16,280l-5.42-15.22h5.06l4.29,12.72h-2.41l4.46-12.72h4.55L368,277.51h-2.35l4.43-12.72h4.69L369.33,280h-5.16l-3.65-10.53h1.57L358.33,280Z"></path><path class="cls-3" d="M380.5,280.26a7,7,0,0,1-3.08-.62,4.37,4.37,0,0,1-2.59-4.07,4.13,4.13,0,0,1,.72-2.43,4.46,4.46,0,0,1,2.2-1.57,11.26,11.26,0,0,1,3.85-.55h3.59v2.78h-2.86a2.93,2.93,0,0,0-1.81.42,1.47,1.47,0,0,0,0,2.25,2.32,2.32,0,0,0,1.46.42,2.93,2.93,0,0,0,1.59-.44,2.49,2.49,0,0,0,1.05-1.33l.73,2a4,4,0,0,1-1.64,2.37A5.84,5.84,0,0,1,380.5,280.26ZM385,280v-2.84l-.37-.7v-5.22a2.47,2.47,0,0,0-.77-1.95,3.63,3.63,0,0,0-2.46-.69,7.55,7.55,0,0,0-2.22.35,5.87,5.87,0,0,0-1.9,1l-1.8-3.62a10.09,10.09,0,0,1,3.1-1.31,14.47,14.47,0,0,1,3.61-.46,8.68,8.68,0,0,1,5.74,1.7c1.36,1.13,2,2.9,2,5.32V280Z"></path><path class="cls-3" d="M393.19,280V264.79h5.08v4.44l-.75-1.27a4.92,4.92,0,0,1,2.19-2.57,7.35,7.35,0,0,1,3.67-.85v4.8a5.75,5.75,0,0,0-.63-.07l-.57,0a3.85,3.85,0,0,0-2.64.89,3.63,3.63,0,0,0-1,2.88v7Z"></path><path class="cls-3" d="M411.92,280.26a7.47,7.47,0,0,1-3.78-1,7.29,7.29,0,0,1-2.71-2.72,9.18,9.18,0,0,1,0-8.37,7.19,7.19,0,0,1,2.71-2.71,7.66,7.66,0,0,1,3.78-.95,6.24,6.24,0,0,1,3.33.84,5.24,5.24,0,0,1,2.06,2.58,11.85,11.85,0,0,1,.7,4.41,12.47,12.47,0,0,1-.67,4.46,5.19,5.19,0,0,1-2,2.59A6.32,6.32,0,0,1,411.92,280.26ZM413,276a3.16,3.16,0,0,0,1.62-.42,3,3,0,0,0,1.13-1.25,4.32,4.32,0,0,0,.42-2,4.13,4.13,0,0,0-.42-1.95,3,3,0,0,0-1.13-1.22,3.37,3.37,0,0,0-3.26,0,3,3,0,0,0-1.14,1.22,4.13,4.13,0,0,0-.42,1.95,4.32,4.32,0,0,0,.42,2,3,3,0,0,0,1.14,1.25A3.18,3.18,0,0,0,413,276Zm3.34,4v-2.62l0-5-.28-5v-8.16h5.33V280Z"></path><path class="cls-3" d="M437.58,280.26a7,7,0,0,1-3.09-.62,4.52,4.52,0,0,1-1.92-1.68,4.45,4.45,0,0,1-.66-2.39,4.19,4.19,0,0,1,.71-2.43,4.45,4.45,0,0,1,2.21-1.57,11.16,11.16,0,0,1,3.84-.55h3.6v2.78H439.4a3,3,0,0,0-1.81.42,1.4,1.4,0,0,0-.52,1.13,1.36,1.36,0,0,0,.54,1.12,2.29,2.29,0,0,0,1.46.42,2.9,2.9,0,0,0,1.58-.44,2.49,2.49,0,0,0,1.05-1.33l.73,2a3.93,3.93,0,0,1-1.64,2.37A5.78,5.78,0,0,1,437.58,280.26Zm4.49-.25v-2.84l-.37-.7v-5.22a2.43,2.43,0,0,0-.77-1.95,3.6,3.6,0,0,0-2.45-.69,7.55,7.55,0,0,0-2.22.35,5.82,5.82,0,0,0-1.91,1l-1.8-3.62a10.2,10.2,0,0,1,3.1-1.31,14.47,14.47,0,0,1,3.61-.46,8.66,8.66,0,0,1,5.74,1.7q2,1.69,2,5.32V280Z"></path><path class="cls-3" d="M460.18,264.54a7.16,7.16,0,0,1,3.2.71,5.29,5.29,0,0,1,2.26,2.21,7.86,7.86,0,0,1,.83,3.84V280h-5.34v-7.84a3.53,3.53,0,0,0-.66-2.37,2.34,2.34,0,0,0-1.84-.74,3.11,3.11,0,0,0-1.54.38,2.63,2.63,0,0,0-1.1,1.16,4.65,4.65,0,0,0-.39,2V280h-5.33V264.79h5.08v4.32l-1-1.26a5.83,5.83,0,0,1,2.38-2.48A6.94,6.94,0,0,1,460.18,264.54Z"></path><path class="cls-3" d="M476.49,280.26a7.44,7.44,0,0,1-3.78-1,7.29,7.29,0,0,1-2.71-2.72,9.18,9.18,0,0,1,0-8.37,7.19,7.19,0,0,1,2.71-2.71,7.63,7.63,0,0,1,3.78-.95,6.18,6.18,0,0,1,3.32.84,5.2,5.2,0,0,1,2.07,2.58,12.06,12.06,0,0,1,.7,4.41,12.7,12.7,0,0,1-.67,4.46,5.15,5.15,0,0,1-2,2.59A6.29,6.29,0,0,1,476.49,280.26Zm1.12-4.24a3.09,3.09,0,0,0,1.61-.42,3,3,0,0,0,1.14-1.25,4.32,4.32,0,0,0,.42-2,4.13,4.13,0,0,0-.42-1.95,3,3,0,0,0-1.14-1.22,3.09,3.09,0,0,0-1.61-.42,3.18,3.18,0,0,0-1.64.42,3,3,0,0,0-1.14,1.22,4.13,4.13,0,0,0-.42,1.95,4.32,4.32,0,0,0,.42,2A3,3,0,0,0,476,275.6,3.18,3.18,0,0,0,477.61,276Zm3.34,4v-2.62l0-5-.28-5v-8.16H486V280Z"></path><path class="cls-3" d="M505.12,280.26a9.81,9.81,0,0,1-4.5-1,7.82,7.82,0,0,1-3.11-2.8,8,8,0,0,1,0-8.15,7.75,7.75,0,0,1,3.11-2.77,9.93,9.93,0,0,1,4.5-1,8.76,8.76,0,0,1,4.47,1.09,6,6,0,0,1,2.66,3.09l-4.12,2.11a3.77,3.77,0,0,0-1.32-1.56,3.18,3.18,0,0,0-1.72-.49,3.41,3.41,0,0,0-1.68.42,3,3,0,0,0-1.19,1.22,4,4,0,0,0-.44,1.95,4.15,4.15,0,0,0,.44,2,2.91,2.91,0,0,0,1.19,1.24,3.41,3.41,0,0,0,1.68.42,3.18,3.18,0,0,0,1.72-.49,3.84,3.84,0,0,0,1.32-1.56l4.12,2.11a6.06,6.06,0,0,1-2.66,3.08A8.76,8.76,0,0,1,505.12,280.26Z"></path><path class="cls-3" d="M521.6,280.26a9.45,9.45,0,0,1-4.43-1,7.71,7.71,0,0,1-3-2.8,8,8,0,0,1,0-8.15,7.64,7.64,0,0,1,3-2.77,9.57,9.57,0,0,1,4.43-1,9.68,9.68,0,0,1,4.45,1,7.7,7.7,0,0,1,0,13.72A9.57,9.57,0,0,1,521.6,280.26Zm0-4.24a3.15,3.15,0,0,0,1.64-.42,3,3,0,0,0,1.14-1.25,4.32,4.32,0,0,0,.42-2,4.13,4.13,0,0,0-.42-1.95,3,3,0,0,0-1.14-1.22,3.15,3.15,0,0,0-1.64-.42,3,3,0,0,0-2.76,1.64,4,4,0,0,0-.44,1.95,4.19,4.19,0,0,0,.44,2A3,3,0,0,0,520,275.6,3.09,3.09,0,0,0,521.6,276Z"></path><path class="cls-3" d="M552.34,264.54a6.9,6.9,0,0,1,3.16.71,5.25,5.25,0,0,1,2.19,2.21,8.11,8.11,0,0,1,.8,3.84V280h-5.34v-7.84a3.72,3.72,0,0,0-.61-2.37,2.1,2.1,0,0,0-1.69-.74,2.67,2.67,0,0,0-1.37.36,2.44,2.44,0,0,0-1,1.11,4.8,4.8,0,0,0-.33,1.92V280h-5.34v-7.84a3.79,3.79,0,0,0-.6-2.37,2.09,2.09,0,0,0-1.7-.74,2.67,2.67,0,0,0-1.39.36,2.54,2.54,0,0,0-.95,1.11,4.44,4.44,0,0,0-.36,1.92V280h-5.33V264.79h5.08V269l-1-1.21a5.81,5.81,0,0,1,2.3-2.45,6.43,6.43,0,0,1,3.26-.83,6.3,6.3,0,0,1,3.61,1,5.23,5.23,0,0,1,2.09,3.27l-1.74-.36a6.42,6.42,0,0,1,2.45-2.91A6.89,6.89,0,0,1,552.34,264.54Z"></path><path class="cls-3" d="M561.72,285.45V264.79h5.08v2.58l0,5,.28,5.05v8Zm9.57-5.19a6.13,6.13,0,0,1-3.31-.86,5.27,5.27,0,0,1-2.09-2.58,11.6,11.6,0,0,1-.72-4.42,12.37,12.37,0,0,1,.67-4.45,5.06,5.06,0,0,1,2-2.57,6.38,6.38,0,0,1,3.41-.84,7.49,7.49,0,0,1,3.78,1,7,7,0,0,1,2.69,2.72,9.22,9.22,0,0,1,0,8.35,6.9,6.9,0,0,1-2.69,2.72A7.59,7.59,0,0,1,571.29,280.26ZM570.17,276a3.12,3.12,0,0,0,1.61-.42,3,3,0,0,0,1.15-1.24,4.08,4.08,0,0,0,.44-2,4.15,4.15,0,0,0-.44-2,3,3,0,0,0-1.15-1.23,3.12,3.12,0,0,0-1.61-.42,3.16,3.16,0,0,0-1.62.42,3.11,3.11,0,0,0-1.15,1.23,4.15,4.15,0,0,0-.43,2,4.08,4.08,0,0,0,.43,2,3.08,3.08,0,0,0,1.15,1.24A3.16,3.16,0,0,0,570.17,276Z"></path><path class="cls-3" d="M589.06,280.26a10.11,10.11,0,0,1-4.7-1,7.65,7.65,0,0,1-3.12-2.8,7.52,7.52,0,0,1-1.11-4.06,7.68,7.68,0,0,1,1.08-4.06,7.5,7.5,0,0,1,3-2.78,9.23,9.23,0,0,1,4.3-1,9.14,9.14,0,0,1,4.1.91,7.1,7.1,0,0,1,2.94,2.68,8,8,0,0,1,1.1,4.3c0,.18,0,.4,0,.64s0,.47-.06.68h-12v-2.81h9.21l-2,.78a3.51,3.51,0,0,0-.38-1.79,3,3,0,0,0-1.12-1.18,3.26,3.26,0,0,0-1.67-.42,3.21,3.21,0,0,0-1.67.42,2.84,2.84,0,0,0-1.11,1.19,3.86,3.86,0,0,0-.4,1.81v.82a3.83,3.83,0,0,0,.47,1.93,3,3,0,0,0,1.33,1.25,4.59,4.59,0,0,0,2.08.44,5.21,5.21,0,0,0,1.92-.32,6.06,6.06,0,0,0,1.59-1l2.8,2.92a7.1,7.1,0,0,1-2.69,1.84A10.34,10.34,0,0,1,589.06,280.26Z"></path><path class="cls-3" d="M608.88,264.54a7.13,7.13,0,0,1,3.2.71,5.23,5.23,0,0,1,2.26,2.21,7.86,7.86,0,0,1,.83,3.84V280h-5.33v-7.84a3.53,3.53,0,0,0-.67-2.37,2.32,2.32,0,0,0-1.83-.74,3.12,3.12,0,0,0-1.55.38,2.56,2.56,0,0,0-1.09,1.16,4.51,4.51,0,0,0-.4,2V280H599V264.79h5.08v4.32l-1-1.26a5.79,5.79,0,0,1,2.39-2.48A6.93,6.93,0,0,1,608.88,264.54Z"></path><path class="cls-3" d="M623.9,280.26a15.89,15.89,0,0,1-3.78-.45,10.86,10.86,0,0,1-3-1.12l1.6-3.65a9.47,9.47,0,0,0,2.5,1,11,11,0,0,0,2.81.38,4.21,4.21,0,0,0,1.86-.28.84.84,0,0,0,.52-.76.69.69,0,0,0-.49-.66,4.94,4.94,0,0,0-1.29-.32l-1.75-.25c-.64-.1-1.28-.22-1.93-.38a6.29,6.29,0,0,1-1.77-.73,3.64,3.64,0,0,1-1.27-1.34,4.61,4.61,0,0,1,.38-4.73,5.68,5.68,0,0,1,2.51-1.79,10.92,10.92,0,0,1,4-.66,17.11,17.11,0,0,1,3.24.32,9.17,9.17,0,0,1,2.77,1l-1.6,3.62a7.78,7.78,0,0,0-2.25-.88,10.15,10.15,0,0,0-2.13-.24,4.13,4.13,0,0,0-1.9.31.87.87,0,0,0-.54.75.75.75,0,0,0,.47.69,4.69,4.69,0,0,0,1.28.37c.54.08,1.12.17,1.76.25a15.14,15.14,0,0,1,1.92.38,6.82,6.82,0,0,1,1.77.74,3.77,3.77,0,0,1,1.28,1.32,4.29,4.29,0,0,1,.47,2.12,4.06,4.06,0,0,1-.85,2.53,5.75,5.75,0,0,1-2.53,1.79A11.06,11.06,0,0,1,623.9,280.26Z"></path><path class="cls-3" d="M638.38,280.26a7,7,0,0,1-3.08-.62,4.55,4.55,0,0,1-1.93-1.68,4.45,4.45,0,0,1-.66-2.39,4.13,4.13,0,0,1,.72-2.43,4.46,4.46,0,0,1,2.2-1.57,11.26,11.26,0,0,1,3.85-.55h3.59v2.78h-2.86a3,3,0,0,0-1.81.42,1.47,1.47,0,0,0,0,2.25,2.32,2.32,0,0,0,1.46.42,2.93,2.93,0,0,0,1.59-.44,2.49,2.49,0,0,0,1-1.33l.73,2a4,4,0,0,1-1.64,2.37A5.82,5.82,0,0,1,638.38,280.26Zm4.5-.25v-2.84l-.37-.7v-5.22a2.47,2.47,0,0,0-.77-1.95,3.63,3.63,0,0,0-2.46-.69,7.44,7.44,0,0,0-2.21.35,5.82,5.82,0,0,0-1.91,1l-1.8-3.62a10.09,10.09,0,0,1,3.1-1.31,14.47,14.47,0,0,1,3.61-.46,8.68,8.68,0,0,1,5.74,1.7q2,1.69,2,5.32V280Z"></path><path class="cls-3" d="M649.47,269.34v-4h11v4Zm8.4,10.92a6.59,6.59,0,0,1-4.55-1.45,5.51,5.51,0,0,1-1.63-4.36V261.39H657v13a1.76,1.76,0,0,0,.44,1.28,1.54,1.54,0,0,0,1.16.46,2.72,2.72,0,0,0,1.62-.48l1.32,3.74a4.75,4.75,0,0,1-1.65.66A9.83,9.83,0,0,1,657.87,280.26Z"></path><path class="cls-3" d="M666.15,263.11a3.4,3.4,0,0,1-2.36-.82,2.72,2.72,0,0,1,0-4,3.4,3.4,0,0,1,2.36-.82,3.48,3.48,0,0,1,2.36.78,2.48,2.48,0,0,1,.9,2,2.74,2.74,0,0,1-.89,2.09A3.34,3.34,0,0,1,666.15,263.11ZM663.48,280V264.79h5.34V280Z"></path><path class="cls-3" d="M679.77,280.26a9.5,9.5,0,0,1-4.44-1,7.78,7.78,0,0,1-3.05-2.8,8,8,0,0,1,0-8.15,7.71,7.71,0,0,1,3.05-2.77,10.45,10.45,0,0,1,8.88,0,7.42,7.42,0,0,1,4.15,6.84,7.51,7.51,0,0,1-4.15,6.88A9.55,9.55,0,0,1,679.77,280.26Zm0-4.24a3.2,3.2,0,0,0,1.64-.42,3.08,3.08,0,0,0,1.14-1.25,4.32,4.32,0,0,0,.42-2,4.13,4.13,0,0,0-.42-1.95,3.13,3.13,0,0,0-1.14-1.22,3.2,3.2,0,0,0-1.64-.42,3.16,3.16,0,0,0-1.62.42,3.08,3.08,0,0,0-1.15,1.22,4,4,0,0,0-.43,1.95,4.19,4.19,0,0,0,.43,2,3,3,0,0,0,1.15,1.25A3.16,3.16,0,0,0,679.77,276Z"></path><path class="cls-3" d="M700.59,264.54a7.2,7.2,0,0,1,3.21.71,5.34,5.34,0,0,1,2.26,2.21,7.87,7.87,0,0,1,.82,3.84V280h-5.33v-7.84a3.53,3.53,0,0,0-.66-2.37,2.34,2.34,0,0,0-1.84-.74,3.09,3.09,0,0,0-1.54.38,2.58,2.58,0,0,0-1.1,1.16,4.65,4.65,0,0,0-.39,2V280h-5.33V264.79h5.08v4.32l-1-1.26a5.85,5.85,0,0,1,2.39-2.48A6.93,6.93,0,0,1,700.59,264.54Z"></path><rect class="cls-4" x="209.08" y="240.34" width="78.5" height="78.5" rx="11.67"></rect><path class="cls-5" d="M225.21,309.77h46.14a3,3,0,0,1,3,3v0a0,0,0,0,1,0,0h-52.2a0,0,0,0,1,0,0v0A3,3,0,0,1,225.21,309.77Z"></path><polygon class="cls-6" points="251.66 287.17 244.9 287.17 242.92 305.32 253.64 305.32 251.66 287.17"></polygon><path class="cls-7" d="M237.92,264.63a10.22,10.22,0,0,1-20.38,0c0-.24,0-.48,0-.73V253.68h10.22a10.18,10.18,0,0,1,7.11,2.88H220.39v7.86h0c0,.07,0,.14,0,.21a7.34,7.34,0,0,0,14.6,0Z"></path><circle class="cls-8" cx="228.17" cy="276.24" r="2.62"></circle><path class="cls-9" d="M257.7,264.63a10.22,10.22,0,0,0,20.38,0c0-.24,0-.48,0-.73V253.68H267.89a10.18,10.18,0,0,0-7.11,2.88h14.44v7.86h0c0,.07,0,.14,0,.21a7.34,7.34,0,0,1-14.6,0Z"></path><circle class="cls-10" cx="267.45" cy="276.24" r="2.62"></circle><path class="cls-11" d="M228.66,248.83H267.9a0,0,0,0,1,0,0v19a19.62,19.62,0,0,1-19.62,19.62h0a19.62,19.62,0,0,1-19.62-19.62v-19a0,0,0,0,1,0,0Z"></path><rect class="cls-12" x="240.8" y="287.17" width="14.96" height="2.9" rx="1.45"></rect><path class="cls-13" d="M243.06,302.42H253.5a2.26,2.26,0,0,1,2.26,2.26v.64a0,0,0,0,1,0,0h-15a0,0,0,0,1,0,0v-.64A2.26,2.26,0,0,1,243.06,302.42Z"></path><polygon class="cls-14" points="255.76 305.32 240.8 305.32 225.6 309.77 270.95 309.77 255.76 305.32"></polygon><rect class="cls-15" x="227.72" y="248.83" width="41.23" height="4.85"></rect><rect class="cls-16" x="209.08" y="24" width="78.5" height="78.5" rx="11.67"></rect><polygon class="cls-17" points="271.6 54.06 271.6 70.44 256.56 70.44 256.56 86.53 240.16 86.53 240.16 70.44 225.05 70.44 225.05 54.06 240.16 54.06 240.16 39.98 256.56 39.98 256.56 54.06 271.6 54.06"></polygon><rect class="cls-18" x="209.08" y="132.17" width="78.5" height="78.5" rx="11.67"></rect><circle class="cls-19" cx="229.89" cy="153.4" r="8.03"></circle><path class="cls-20" d="M282.45,147.17v37.17c0,2.8-2,5.07-4.46,5.07h-34.4v-4.88h29.73c2.46,0,4.46-2.27,4.46-5.07v-27.4c0-2.8-2-5.07-4.46-5.07H243.59V142.1H278C280.46,142.1,282.45,144.37,282.45,147.17Z"></path><path class="cls-21" d="M231.76,165.24h21a3.88,3.88,0,0,1,3.88,3.88v0a3.88,3.88,0,0,1-3.88,3.88h-21a0,0,0,0,1,0,0v-7.77a0,0,0,0,1,0,0Z"></path><path class="cls-22" d="M214.38,186.22l1-13.21a8.52,8.52,0,0,1,8.35-7.77h0l-1.57,21a4.27,4.27,0,0,1-4.18,3.89h0A3.55,3.55,0,0,1,214.38,186.22Z"></path><path class="cls-23" d="M237.92,202H221.86l-3.24-26.38c-.67-5.42,2.43-10.35,6.5-10.35h9.54c4.07,0,7.16,4.93,6.5,10.35Z"></path><path class="cls-24" d="M267,201.42a1.55,1.55,0,0,1-2.2,0l-7.62-7.61-7.61,7.61a1.56,1.56,0,0,1-2.21-2.2l8.65-8.65a1.55,1.55,0,0,1,1.17-.45h.07a1.56,1.56,0,0,1,1.11.45l8.64,8.65A1.55,1.55,0,0,1,267,201.42Z"></path><rect class="cls-25" x="71.01" y="263.9" width="100.56" height="100.56"></rect><path class="cls-26" d="M140.18,164.21h31.39a0,0,0,0,1,0,0V264.77a0,0,0,0,1,0,0H71a0,0,0,0,1,0,0V233.38A69.17,69.17,0,0,1,140.18,164.21Z"></path><path class="cls-27" d="M171.57,164.21V264.77H71A100.57,100.57,0,0,0,171.57,164.21Z"></path><circle class="cls-28" cx="123.56" cy="314.18" r="39.73"></circle></g></g></svg> 