<?xml version="1.0" encoding="UTF-8"?> <svg xmlns="http://www.w3.org/2000/svg" xmlns:xlink="http://www.w3.org/1999/xlink" viewBox="0 0 563.02 446.31"><defs><style>.cls-1{fill:url(#linear-gradient);}.cls-2{fill:url(#linear-gradient-2);}.cls-3{fill:url(#linear-gradient-3);}.cls-4{fill:url(#linear-gradient-4);}.cls-5{fill:url(#linear-gradient-5);}.cls-6{fill:url(#linear-gradient-6);}.cls-7{fill:url(#linear-gradient-7);}.cls-8{fill:url(#linear-gradient-8);}.cls-9{fill:#ee2741;}.cls-10{fill:url(#linear-gradient-9);}.cls-11{fill:url(#linear-gradient-10);}.cls-12{fill:url(#linear-gradient-11);}.cls-13{fill:url(#linear-gradient-12);}.cls-14{fill:url(#linear-gradient-13);}.cls-15{fill:url(#linear-gradient-14);}.cls-16{fill:url(#linear-gradient-15);}.cls-17{fill:url(#linear-gradient-16);}.cls-18{fill:url(#linear-gradient-17);}.cls-19{fill:url(#linear-gradient-18);}.cls-20{fill:url(#linear-gradient-20);}.cls-21{fill:url(#linear-gradient-21);}.cls-22{fill:url(#linear-gradient-22);}.cls-23{fill:url(#linear-gradient-23);}.cls-24{fill:url(#linear-gradient-24);}.cls-25{fill:url(#linear-gradient-25);}.cls-26{fill:url(#linear-gradient-26);}.cls-27{fill:url(#linear-gradient-27);}.cls-28{fill:url(#linear-gradient-28);}.cls-29{fill:url(#linear-gradient-29);}.cls-30{fill:url(#linear-gradient-30);}.cls-31{fill:url(#linear-gradient-31);}.cls-32{fill:url(#linear-gradient-32);}.cls-33{fill:url(#linear-gradient-33);}.cls-34{fill:url(#linear-gradient-34);}.cls-35{fill:url(#linear-gradient-35);}.cls-36{fill:url(#linear-gradient-36);}.cls-37{fill:url(#linear-gradient-37);}.cls-38{fill:url(#linear-gradient-38);}.cls-39{fill:url(#linear-gradient-39);}.cls-40{fill:url(#linear-gradient-40);}.cls-41{fill:url(#linear-gradient-41);}.cls-42{fill:url(#linear-gradient-42);}.cls-43{fill:url(#linear-gradient-43);}.cls-44{fill:url(#linear-gradient-44);}.cls-45{fill:url(#linear-gradient-45);}.cls-46{fill:url(#linear-gradient-46);}.cls-47{fill:url(#linear-gradient-47);}.cls-48{fill:url(#linear-gradient-48);}.cls-49{fill:url(#linear-gradient-49);}.cls-50{fill:url(#linear-gradient-50);}.cls-51{fill:url(#linear-gradient-51);}.cls-52{fill:url(#linear-gradient-52);}.cls-53{fill:url(#linear-gradient-53);}.cls-54{fill:url(#linear-gradient-54);}.cls-55{fill:url(#linear-gradient-55);}</style><linearGradient id="linear-gradient" y1="106.36" x2="606.27" y2="106.36" gradientUnits="userSpaceOnUse"><stop offset="0" stop-color="#ed2741"></stop><stop offset="1" stop-color="#fcdcda"></stop></linearGradient><linearGradient id="linear-gradient-2" x1="319.1" y1="159.55" x2="425.46" y2="159.55" gradientUnits="userSpaceOnUse"><stop offset="0.21" stop-color="#ed2741"></stop><stop offset="1" stop-color="#fcdcda"></stop></linearGradient><linearGradient id="linear-gradient-3" x1="212.73" y1="159.55" x2="319.1" y2="159.55" gradientUnits="userSpaceOnUse"><stop offset="0" stop-color="#a03594"></stop><stop offset="1" stop-color="#fcdcda"></stop></linearGradient><linearGradient id="linear-gradient-4" x1="425.46" y1="68.78" x2="563.02" y2="68.78" xlink:href="#linear-gradient-2"></linearGradient><linearGradient id="linear-gradient-5" x1="425.46" y1="175.15" x2="668.93" y2="175.15" xlink:href="#linear-gradient-3"></linearGradient><linearGradient id="linear-gradient-6" x1="2939.1" y1="757.85" x2="2939.1" y2="921.62" gradientTransform="translate(-2620 -786.36)" gradientUnits="userSpaceOnUse"><stop offset="0" stop-color="#3e2b58"></stop><stop offset="0.98" stop-color="#3e2b58"></stop><stop offset="1" stop-color="#3e2b58"></stop></linearGradient><linearGradient id="linear-gradient-7" x1="328" y1="159.89" x2="447.64" y2="159.89" gradientUnits="userSpaceOnUse"><stop offset="0" stop-color="#bad8df"></stop><stop offset="1" stop-color="#fcdcda"></stop></linearGradient><linearGradient id="linear-gradient-8" x1="279.78" y1="159.89" x2="351.55" y2="159.89" xlink:href="#linear-gradient-7"></linearGradient><linearGradient id="linear-gradient-9" x1="103.62" y1="47.06" x2="109.12" y2="47.06" gradientUnits="userSpaceOnUse"><stop offset="0" stop-color="#3e2b58"></stop><stop offset="0.15" stop-color="#422f5b"></stop><stop offset="0.3" stop-color="#4d3963"></stop><stop offset="0.44" stop-color="#614b70"></stop><stop offset="0.58" stop-color="#7c6582"></stop><stop offset="0.72" stop-color="#9f859a"></stop><stop offset="0.86" stop-color="#caadb7"></stop><stop offset="1" stop-color="#fbdbda"></stop><stop offset="1" stop-color="#fcdcda"></stop></linearGradient><linearGradient id="linear-gradient-10" x1="39.29" y1="91.29" x2="183.74" y2="91.29" xlink:href="#linear-gradient-9"></linearGradient><linearGradient id="linear-gradient-11" x1="35.67" y1="167.46" x2="208.21" y2="167.46" xlink:href="#linear-gradient-9"></linearGradient><linearGradient id="linear-gradient-12" x1="81.4" y1="162.66" x2="131.34" y2="162.66" xlink:href="#linear-gradient-9"></linearGradient><linearGradient id="linear-gradient-13" x1="103.62" y1="47.06" x2="109.12" y2="47.06" gradientUnits="userSpaceOnUse"><stop offset="0.42" stop-color="#bad8df"></stop><stop offset="1" stop-color="#fcdcda"></stop></linearGradient><linearGradient id="linear-gradient-14" x1="24.87" y1="149.59" x2="208.21" y2="149.59" gradientUnits="userSpaceOnUse"><stop offset="0" stop-color="#3e2b58"></stop><stop offset="0.22" stop-color="#412e5a"></stop><stop offset="0.37" stop-color="#4a3660"></stop><stop offset="0.49" stop-color="#59446b"></stop><stop offset="0.61" stop-color="#6f5979"></stop><stop offset="0.72" stop-color="#8b738d"></stop><stop offset="0.82" stop-color="#ad93a4"></stop><stop offset="0.92" stop-color="#d6b8c0"></stop><stop offset="1" stop-color="#fcdcda"></stop></linearGradient><linearGradient id="linear-gradient-15" x1="24.87" y1="148.77" x2="187.87" y2="148.77" gradientUnits="userSpaceOnUse"><stop offset="0.23" stop-color="#bad8df"></stop><stop offset="0.32" stop-color="#d0d9dd"></stop><stop offset="0.43" stop-color="#e3dbdc"></stop><stop offset="0.56" stop-color="#f1dbdb"></stop><stop offset="0.72" stop-color="#fadcda"></stop><stop offset="1" stop-color="#fcdcda"></stop></linearGradient><linearGradient id="linear-gradient-16" x1="24.87" y1="155.54" x2="187.87" y2="155.54" gradientUnits="userSpaceOnUse"><stop offset="0.16" stop-color="#bad8df"></stop><stop offset="0.57" stop-color="#bcd8df"></stop><stop offset="0.72" stop-color="#c3d9de"></stop><stop offset="0.82" stop-color="#ced9dd"></stop><stop offset="0.91" stop-color="#dfdadc"></stop><stop offset="0.98" stop-color="#f5dcdb"></stop><stop offset="1" stop-color="#fcdcda"></stop></linearGradient><linearGradient id="linear-gradient-17" x1="39.29" y1="93.32" x2="173.45" y2="93.32" xlink:href="#linear-gradient-13"></linearGradient><linearGradient id="linear-gradient-18" x1="28.99" y1="91.29" x2="171.46" y2="91.29" xlink:href="#linear-gradient"></linearGradient><linearGradient id="linear-gradient-20" x1="39.29" y1="93.32" x2="160.37" y2="93.32" xlink:href="#linear-gradient-13"></linearGradient><linearGradient id="linear-gradient-21" x1="4.53" y1="149.59" x2="71.42" y2="149.59" xlink:href="#linear-gradient"></linearGradient><linearGradient id="linear-gradient-22" x1="24.87" y1="150.04" x2="69.46" y2="150.04" xlink:href="#linear-gradient-15"></linearGradient><linearGradient id="linear-gradient-23" x1="4.53" y1="167.46" x2="54.87" y2="167.46" xlink:href="#linear-gradient"></linearGradient><linearGradient id="linear-gradient-24" x1="0" y1="106.36" x2="212.73" y2="106.36" xlink:href="#linear-gradient-13"></linearGradient><linearGradient id="linear-gradient-25" x1="2205.92" y1="3418.7" x2="2205.92" y2="3500.59" gradientTransform="translate(2471.83 3619.1) rotate(180)" xlink:href="#linear-gradient-13"></linearGradient><linearGradient id="linear-gradient-26" x1="431.14" y1="146.27" x2="431.14" y2="204.15" xlink:href="#linear-gradient-13"></linearGradient><linearGradient id="linear-gradient-27" x1="452.17" y1="146.27" x2="452.17" y2="204.15" xlink:href="#linear-gradient-13"></linearGradient><linearGradient id="linear-gradient-28" x1="473.21" y1="146.27" x2="473.21" y2="204.15" xlink:href="#linear-gradient-13"></linearGradient><linearGradient id="linear-gradient-29" x1="494.24" y1="146.27" x2="494.24" y2="204.15" xlink:href="#linear-gradient-13"></linearGradient><linearGradient id="linear-gradient-30" x1="515.27" y1="146.27" x2="515.27" y2="204.15" xlink:href="#linear-gradient-13"></linearGradient><linearGradient id="linear-gradient-31" x1="536.3" y1="146.27" x2="536.3" y2="204.15" xlink:href="#linear-gradient-13"></linearGradient><linearGradient id="linear-gradient-32" x1="557.34" y1="146.27" x2="557.34" y2="204.15" xlink:href="#linear-gradient-13"></linearGradient><linearGradient id="linear-gradient-33" x1="321.5" y1="20.06" x2="321.5" y2="110.93" xlink:href="#linear-gradient-13"></linearGradient><linearGradient id="linear-gradient-34" x1="321.5" y1="25.03" x2="321.5" y2="34.46" gradientTransform="matrix(1, 0, 0, 1, 0, 0)" xlink:href="#linear-gradient-6"></linearGradient><linearGradient id="linear-gradient-35" x1="321.5" y1="44.55" x2="321.5" y2="53.99" gradientTransform="matrix(1, 0, 0, 1, 0, 0)" xlink:href="#linear-gradient-6"></linearGradient><linearGradient id="linear-gradient-36" x1="321.5" y1="64.07" x2="321.5" y2="73.51" gradientTransform="matrix(1, 0, 0, 1, 0, 0)" xlink:href="#linear-gradient-6"></linearGradient><linearGradient id="linear-gradient-37" x1="404.72" y1="72.39" x2="404.72" y2="98.35" xlink:href="#linear-gradient-2"></linearGradient><linearGradient id="linear-gradient-38" x1="426.7" y1="66.83" x2="711.08" y2="66.83" xlink:href="#linear-gradient-13"></linearGradient><linearGradient id="linear-gradient-39" x1="425.46" y1="385.73" x2="563.02" y2="385.73" xlink:href="#linear-gradient-14"></linearGradient><linearGradient id="linear-gradient-40" x1="441.86" y1="396.99" x2="494.65" y2="396.99" xlink:href="#linear-gradient-2"></linearGradient><linearGradient id="linear-gradient-41" x1="494.65" y1="421.74" x2="539.93" y2="421.74" xlink:href="#linear-gradient-3"></linearGradient><linearGradient id="linear-gradient-42" x1="453.84" y1="374.53" x2="547.45" y2="374.53" xlink:href="#linear-gradient-13"></linearGradient><linearGradient id="linear-gradient-43" x1="257.96" y1="268.94" x2="683.42" y2="268.94" xlink:href="#linear-gradient"></linearGradient><linearGradient id="linear-gradient-44" x1="137.49" y1="281.7" x2="176.42" y2="281.7" xlink:href="#linear-gradient-13"></linearGradient><linearGradient id="linear-gradient-45" x1="192.76" y1="294.5" x2="231.68" y2="294.5" xlink:href="#linear-gradient-13"></linearGradient><linearGradient id="linear-gradient-46" x1="248.03" y1="273.95" x2="286.95" y2="273.95" xlink:href="#linear-gradient-13"></linearGradient><linearGradient id="linear-gradient-47" x1="303.29" y1="285.31" x2="342.22" y2="285.31" xlink:href="#linear-gradient-13"></linearGradient><linearGradient id="linear-gradient-48" x1="358.56" y1="303.42" x2="397.48" y2="303.42" xlink:href="#linear-gradient-13"></linearGradient><linearGradient id="linear-gradient-49" x1="413.83" y1="284.86" x2="452.75" y2="284.86" xlink:href="#linear-gradient-13"></linearGradient><linearGradient id="linear-gradient-50" x1="469.09" y1="274.34" x2="508.02" y2="274.34" xlink:href="#linear-gradient-13"></linearGradient><linearGradient id="linear-gradient-51" x1="524.36" y1="268.94" x2="562.91" y2="268.94" xlink:href="#linear-gradient-13"></linearGradient><linearGradient id="linear-gradient-52" x1="2077.12" y1="3685.73" x2="2365.9" y2="3685.73" gradientTransform="translate(-1940 -3300)" gradientUnits="userSpaceOnUse"><stop offset="0" stop-color="#fcdcda"></stop><stop offset="1" stop-color="#a03594"></stop></linearGradient><linearGradient id="linear-gradient-53" x1="2083.69" y1="3685.33" x2="2359.99" y2="3685.33" gradientTransform="translate(2503.02 4071.46) rotate(180)" xlink:href="#linear-gradient"></linearGradient><linearGradient id="linear-gradient-54" x1="0.68" y1="328.97" x2="276.36" y2="328.97" xlink:href="#linear-gradient-14"></linearGradient><linearGradient id="linear-gradient-55" x1="1.92" y1="330.95" x2="276.06" y2="330.95" xlink:href="#linear-gradient-13"></linearGradient></defs><g id="Layer_2" data-name="Layer 2"><g id="Design"><path class="cls-1" d="M212.73,0V212.73H0l35.67-35.67H12.17a7.64,7.64,0,0,1-7.64-7.65V157.86L29,141.31h0V49.4a8.13,8.13,0,0,1,8.14-8.13H171.46Z"></path><rect class="cls-2" x="319.1" y="106.37" width="106.36" height="106.36"></rect><rect class="cls-3" x="212.73" y="106.37" width="106.36" height="106.36"></rect><rect class="cls-4" x="425.46" width="137.55" height="137.55"></rect><rect class="cls-5" x="425.46" y="137.56" width="137.55" height="75.18"></rect><rect class="cls-6" x="265.92" y="-53.18" width="106.36" height="212.73" transform="translate(265.91 372.28) rotate(-90)"></rect><circle class="cls-7" cx="372.28" cy="159.89" r="44.28"></circle><path class="cls-8" d="M409.25,159.9a35.9,35.9,0,1,1-35.87-37A36.95,36.95,0,0,1,409.25,159.9Z"></path><path class="cls-9" d="M359.41,178.82v-39.9h17.28a22.39,22.39,0,0,1,9.23,1.74,13.55,13.55,0,0,1,6,5,13.84,13.84,0,0,1-6,20.41,22.06,22.06,0,0,1-9.23,1.77h-12.2l4.21-4.16v15.16Zm9.29-14.14-4.21-4.39h11.68c2.81,0,4.94-.6,6.39-1.82a6.36,6.36,0,0,0,2.16-5.13,6.27,6.27,0,0,0-2.16-5.1q-2.18-1.8-6.39-1.8H364.49l4.21-4.39Z"></path><rect class="cls-9" x="352.65" y="149.07" width="47.84" height="3.38"></rect><rect class="cls-9" x="352.65" y="153.91" width="47.84" height="3.38"></rect><circle class="cls-10" cx="106.37" cy="47.06" r="2.75"></circle><path class="cls-11" d="M183.74,49.4v91.91H71.42l7-7H44a4.69,4.69,0,0,1-4.7-4.7V57.07A4.7,4.7,0,0,1,44,52.36H160.37l11.09-11.09h4.15A8.13,8.13,0,0,1,183.74,49.4Z"></path><path class="cls-12" d="M208.21,157.86v11.55a7.64,7.64,0,0,1-7.64,7.65H35.67l19.2-19.2Z"></path><path class="cls-13" d="M81.4,157.86h49.94a0,0,0,0,1,0,0v5.77a3.82,3.82,0,0,1-3.82,3.82H85.22a3.82,3.82,0,0,1-3.82-3.82v-5.77a0,0,0,0,1,0,0Z"></path><circle class="cls-14" cx="106.37" cy="47.06" r="2.75"></circle><polygon class="cls-15" points="208.21 157.86 54.87 157.86 55.92 156.81 24.87 156.81 24.87 154.26 39.18 143.27 69.46 143.27 71.42 141.31 183.71 141.31 208.21 157.86"></polygon><polygon class="cls-16" points="187.87 154.26 24.87 154.26 39.18 143.27 173.55 143.27 187.87 154.26"></polygon><rect class="cls-17" x="24.87" y="154.26" width="163" height="2.55"></rect><path class="cls-18" d="M173.45,57.07v72.5a4.7,4.7,0,0,1-4.71,4.7H44a4.69,4.69,0,0,1-4.7-4.7V57.07A4.7,4.7,0,0,1,44,52.36H168.74A4.71,4.71,0,0,1,173.45,57.07Z"></path><path class="cls-19" d="M44,52.36H160.37l11.09-11.09H37.13A8.13,8.13,0,0,0,29,49.4v91.91H71.42l7-7H44a4.69,4.69,0,0,1-4.7-4.7V57.07A4.7,4.7,0,0,1,44,52.36Zm62.38-8a2.75,2.75,0,1,1-2.75,2.75A2.75,2.75,0,0,1,106.37,44.31Z"></path><circle class="cls-14" cx="106.37" cy="47.06" r="2.75"></circle><path class="cls-20" d="M44,52.36H160.37L78.46,134.27H44a4.69,4.69,0,0,1-4.7-4.7V57.07A4.7,4.7,0,0,1,44,52.36Z"></path><polygon class="cls-21" points="24.87 154.26 24.87 156.81 55.92 156.81 54.87 157.86 4.53 157.86 29.03 141.31 71.42 141.31 69.46 143.27 39.18 143.27 24.87 154.26"></polygon><polygon class="cls-22" points="39.18 143.27 69.46 143.27 58.47 154.26 55.92 156.81 24.87 156.81 24.87 154.26 39.18 143.27"></polygon><path class="cls-23" d="M54.87,157.86l-19.2,19.2H12.17a7.64,7.64,0,0,1-7.64-7.65V157.86Z"></path><path class="cls-24" d="M212.73,0,171.46,41.27H37.13A8.13,8.13,0,0,0,29,49.4v91.91h0L4.53,157.86v11.55a7.64,7.64,0,0,0,7.64,7.65h23.5L0,212.73v-179A33.73,33.73,0,0,1,33.73,0Z"></path><polygon class="cls-25" points="319.1 212.74 212.73 106.37 212.73 212.74 319.1 212.74"></polygon><rect class="cls-26" x="425.46" y="137.56" width="11.36" height="75.18"></rect><rect class="cls-27" x="446.49" y="137.56" width="11.36" height="75.18"></rect><rect class="cls-28" x="467.53" y="137.56" width="11.36" height="75.18"></rect><rect class="cls-29" x="488.56" y="137.56" width="11.36" height="75.18"></rect><rect class="cls-30" x="509.59" y="137.56" width="11.36" height="75.18"></rect><rect class="cls-31" x="530.62" y="137.56" width="11.36" height="75.18"></rect><rect class="cls-32" x="551.66" y="137.56" width="11.36" height="75.18"></rect><polygon class="cls-33" points="416.56 10.45 416.56 69.65 404.72 81.48 392.89 93.32 226.44 93.32 226.44 10.45 416.56 10.45"></polygon><rect class="cls-34" x="240.69" y="23.61" width="161.62" height="12.26"></rect><rect class="cls-35" x="240.69" y="43.13" width="161.62" height="12.26"></rect><rect class="cls-36" x="270.71" y="62.65" width="101.57" height="12.26"></rect><polygon class="cls-37" points="416.56 69.65 404.72 81.48 392.89 93.32 392.89 69.65 416.56 69.65"></polygon><polygon class="cls-38" points="562.91 0 562.91 106.37 523.59 67.05 456.99 133.65 426.7 103.36 493.3 36.76 456.54 0 562.91 0"></polygon><path class="cls-39" d="M425.46,325.14H563a0,0,0,0,1,0,0v87.44a33.73,33.73,0,0,1-33.73,33.73H425.46a0,0,0,0,1,0,0V325.14A0,0,0,0,1,425.46,325.14Z"></path><path class="cls-40" d="M463.57,387.34a31,31,0,0,1,7.06-19.72l-16.79-13.79a52.81,52.81,0,0,0,40.81,86.31V418.42A31.08,31.08,0,0,1,463.57,387.34Z"></path><path class="cls-41" d="M539.93,414.51a52.76,52.76,0,0,1-45.28,25.63V418.42a31,31,0,0,0,26.65-15.09Z"></path><path class="cls-42" d="M547.45,387.34a52.58,52.58,0,0,1-7.52,27.17L521.3,403.33a31.08,31.08,0,0,0-50.67-35.71l-16.79-13.79a52.8,52.8,0,0,1,93.61,33.51Z"></path><rect class="cls-43" x="137.45" y="212.73" width="425.46" height="112.41"></rect><rect class="cls-44" x="137.49" y="238.25" width="38.92" height="86.89"></rect><rect class="cls-45" x="192.76" y="263.86" width="38.92" height="61.28"></rect><rect class="cls-46" x="248.03" y="222.76" width="38.92" height="102.38"></rect><rect class="cls-47" x="303.29" y="245.48" width="38.92" height="79.66"></rect><rect class="cls-48" x="358.56" y="281.7" width="38.92" height="43.44"></rect><rect class="cls-49" x="413.83" y="244.58" width="38.92" height="80.56"></rect><rect class="cls-50" x="469.09" y="223.53" width="38.92" height="101.61"></rect><rect class="cls-51" x="524.36" y="212.73" width="38.55" height="112.41"></rect><rect class="cls-52" x="137.12" y="325.14" width="288.78" height="121.17" transform="translate(563.02 771.46) rotate(180)"></rect><polygon class="cls-53" points="425.9 446.31 425.9 325.95 138.03 446.31 425.9 446.31"></polygon><rect class="cls-54" x="0.68" y="211.62" width="137.56" height="234.69"></rect><polygon class="cls-55" points="138.24 291.64 96.17 291.64 96.17 445.26 41.94 445.26 41.94 291.64 1.92 291.64 70.08 216.64 138.24 291.64"></polygon></g></g></svg> 