<?xml version="1.0" encoding="UTF-8"?> <svg xmlns="http://www.w3.org/2000/svg" xmlns:xlink="http://www.w3.org/1999/xlink" viewBox="0 0 1214.64 717.88"><defs><style>.cls-1{fill:url(#linear-gradient);}.cls-2,.cls-77,.cls-78,.cls-79,.cls-80,.cls-81,.cls-82,.cls-83{fill:none;stroke-miterlimit:10;}.cls-2{stroke:#fff;stroke-linecap:square;stroke-width:15px;}.cls-3{fill:url(#linear-gradient-2);}.cls-4{fill:#ee2741;}.cls-5{fill:#3e2b58;}.cls-6{fill:url(#linear-gradient-3);}.cls-7{fill:#fff;}.cls-8{fill:url(#linear-gradient-4);}.cls-9{fill:url(#linear-gradient-5);}.cls-10{fill:url(#linear-gradient-6);}.cls-11,.cls-21{fill:#fcdcda;}.cls-12{fill:url(#linear-gradient-7);}.cls-13{fill:url(#linear-gradient-8);}.cls-14{fill:url(#linear-gradient-9);}.cls-15{fill:url(#linear-gradient-10);}.cls-16{fill:url(#linear-gradient-11);}.cls-17{fill:url(#linear-gradient-12);}.cls-18{fill:url(#linear-gradient-13);}.cls-19{fill:url(#linear-gradient-14);}.cls-20{fill:url(#linear-gradient-15);}.cls-21{opacity:0.48;}.cls-22{fill:url(#linear-gradient-16);}.cls-23{fill:url(#linear-gradient-17);}.cls-24{fill:url(#linear-gradient-18);}.cls-25{fill:url(#linear-gradient-19);}.cls-26{fill:url(#linear-gradient-20);}.cls-27{fill:url(#linear-gradient-21);}.cls-28{fill:url(#linear-gradient-22);}.cls-29{fill:url(#linear-gradient-23);}.cls-30{fill:url(#linear-gradient-24);}.cls-31{fill:url(#linear-gradient-25);}.cls-32{fill:url(#linear-gradient-26);}.cls-33{fill:url(#linear-gradient-27);}.cls-34{fill:url(#linear-gradient-28);}.cls-35{fill:url(#linear-gradient-29);}.cls-36{fill:url(#linear-gradient-30);}.cls-37{fill:url(#linear-gradient-31);}.cls-38{fill:url(#linear-gradient-32);}.cls-39{fill:url(#linear-gradient-33);}.cls-40{fill:url(#linear-gradient-34);}.cls-41{fill:url(#linear-gradient-35);}.cls-42{fill:url(#linear-gradient-36);}.cls-43{fill:url(#linear-gradient-37);}.cls-44{fill:url(#linear-gradient-38);}.cls-45{fill:url(#linear-gradient-39);}.cls-46{fill:url(#linear-gradient-40);}.cls-47{fill:url(#linear-gradient-41);}.cls-48{fill:url(#linear-gradient-42);}.cls-49{fill:url(#linear-gradient-43);}.cls-50{fill:url(#linear-gradient-44);}.cls-51{fill:url(#linear-gradient-45);}.cls-52{fill:url(#linear-gradient-46);}.cls-53{fill:url(#linear-gradient-47);}.cls-54{fill:url(#linear-gradient-48);}.cls-55{fill:url(#linear-gradient-49);}.cls-56{fill:url(#linear-gradient-50);}.cls-57{fill:url(#linear-gradient-51);}.cls-58{fill:url(#linear-gradient-52);}.cls-59{fill:url(#linear-gradient-53);}.cls-60{fill:url(#linear-gradient-54);}.cls-61{fill:url(#linear-gradient-55);}.cls-62{fill:url(#linear-gradient-56);}.cls-63{fill:url(#linear-gradient-57);}.cls-64{fill:url(#linear-gradient-58);}.cls-65{fill:url(#linear-gradient-59);}.cls-66{fill:url(#linear-gradient-60);}.cls-67{fill:url(#linear-gradient-61);}.cls-68{fill:url(#linear-gradient-62);}.cls-69{fill:url(#linear-gradient-63);}.cls-70{fill:url(#linear-gradient-64);}.cls-71{fill:url(#linear-gradient-65);}.cls-72{fill:url(#linear-gradient-66);}.cls-73{fill:url(#linear-gradient-67);}.cls-74{fill:url(#linear-gradient-68);}.cls-75{fill:url(#linear-gradient-69);}.cls-76{fill:url(#linear-gradient-70);}.cls-77,.cls-78,.cls-79,.cls-80,.cls-81,.cls-82,.cls-83{stroke-width:5px;}.cls-77{stroke:url(#linear-gradient-71);}.cls-78{stroke:url(#linear-gradient-72);}.cls-79{stroke:url(#linear-gradient-73);}.cls-80{stroke:url(#linear-gradient-74);}.cls-81{stroke:url(#linear-gradient-75);}.cls-82{stroke:url(#linear-gradient-76);}.cls-83{stroke:url(#linear-gradient-77);}.cls-84{fill:#df2127;}.cls-85{fill:url(#linear-gradient-78);}.cls-86{fill:url(#linear-gradient-79);}.cls-87{fill:#231f20;}</style><linearGradient id="linear-gradient" x1="662.93" y1="456.07" x2="1081.32" y2="456.07" gradientUnits="userSpaceOnUse"><stop offset="0" stop-color="#ee2741"></stop><stop offset="0.15" stop-color="#ee2b44"></stop><stop offset="0.3" stop-color="#ef364e"></stop><stop offset="0.45" stop-color="#f14a5f"></stop><stop offset="0.6" stop-color="#f36576"></stop><stop offset="0.74" stop-color="#f68893"></stop><stop offset="0.88" stop-color="#f9b3b7"></stop><stop offset="1" stop-color="#fcdcda"></stop></linearGradient><linearGradient id="linear-gradient-2" x1="-144.59" y1="454.59" x2="870.24" y2="454.59" xlink:href="#linear-gradient"></linearGradient><linearGradient id="linear-gradient-3" x1="85.38" y1="454.18" x2="1184.52" y2="454.18" gradientUnits="userSpaceOnUse"><stop offset="0" stop-color="#3e2b58"></stop><stop offset="1" stop-color="#fcdcda"></stop></linearGradient><linearGradient id="linear-gradient-4" x1="823.25" y1="277.57" x2="921" y2="277.57" xlink:href="#linear-gradient-3"></linearGradient><linearGradient id="linear-gradient-5" x1="826.25" y1="276.16" x2="904.01" y2="276.16" gradientUnits="userSpaceOnUse"><stop offset="0" stop-color="#221730"></stop><stop offset="0.51" stop-color="#bad8df"></stop><stop offset="1" stop-color="#fcdcda"></stop></linearGradient><linearGradient id="linear-gradient-6" x1="858.06" y1="289.62" x2="871.83" y2="289.62" gradientUnits="userSpaceOnUse"><stop offset="0" stop-color="#221730"></stop><stop offset="0.68" stop-color="#bad8df"></stop><stop offset="1" stop-color="#fcdcda"></stop></linearGradient><linearGradient id="linear-gradient-7" x1="843.37" y1="286.48" x2="932.95" y2="286.48" xlink:href="#linear-gradient-6"></linearGradient><linearGradient id="linear-gradient-8" x1="856.29" y1="299.62" x2="889.52" y2="299.62" gradientUnits="userSpaceOnUse"><stop offset="0" stop-color="#221730"></stop><stop offset="0.68" stop-color="#3e2c57"></stop><stop offset="1" stop-color="#fcdcda"></stop></linearGradient><linearGradient id="linear-gradient-9" x1="856.29" y1="300.58" x2="889.52" y2="300.58" xlink:href="#linear-gradient-8"></linearGradient><linearGradient id="linear-gradient-10" x1="841.48" y1="300.1" x2="874.71" y2="300.1" xlink:href="#linear-gradient-8"></linearGradient><linearGradient id="linear-gradient-11" x1="837.32" y1="301.05" x2="870.55" y2="301.05" xlink:href="#linear-gradient-8"></linearGradient><linearGradient id="linear-gradient-12" x1="856.79" y1="259.39" x2="889.02" y2="259.39" xlink:href="#linear-gradient-8"></linearGradient><linearGradient id="linear-gradient-13" x1="856.79" y1="260.34" x2="889.02" y2="260.34" xlink:href="#linear-gradient-8"></linearGradient><linearGradient id="linear-gradient-14" x1="849.69" y1="259.86" x2="881.92" y2="259.86" xlink:href="#linear-gradient-8"></linearGradient><linearGradient id="linear-gradient-15" x1="849.27" y1="260.82" x2="881.49" y2="260.82" xlink:href="#linear-gradient-8"></linearGradient><linearGradient id="linear-gradient-16" x1="891.58" y1="261.87" x2="908.28" y2="261.87" gradientUnits="userSpaceOnUse"><stop offset="0" stop-color="#3e2c57"></stop><stop offset="0.42" stop-color="#bad8df"></stop><stop offset="1" stop-color="#fcdcda"></stop></linearGradient><linearGradient id="linear-gradient-17" x1="891.58" y1="18970.31" x2="908.28" y2="18970.31" gradientTransform="matrix(1, 0, 0, -1, 0, 19251.46)" gradientUnits="userSpaceOnUse"><stop offset="0" stop-color="#3e2c57"></stop><stop offset="0.32" stop-color="#bad8df"></stop><stop offset="0.94" stop-color="#fcdcda"></stop></linearGradient><linearGradient id="linear-gradient-18" x1="891.58" y1="18951.7" x2="908.28" y2="18951.7" gradientTransform="matrix(1, 0, 0, -1, 0, 19251.46)" gradientUnits="userSpaceOnUse"><stop offset="0" stop-color="#3e2c57"></stop><stop offset="0.34" stop-color="#bad8df"></stop><stop offset="1" stop-color="#fcdcda"></stop></linearGradient><linearGradient id="linear-gradient-19" x1="891.58" y1="322.13" x2="908.28" y2="322.13" gradientTransform="translate(0 -37.38)" gradientUnits="userSpaceOnUse"><stop offset="0" stop-color="#3e2c57"></stop><stop offset="0.32" stop-color="#bad8df"></stop></linearGradient><linearGradient id="linear-gradient-20" x1="891.54" y1="265.17" x2="908.34" y2="265.17" gradientUnits="userSpaceOnUse"><stop offset="0" stop-color="#3e2c57"></stop><stop offset="0.32" stop-color="#bad8df"></stop><stop offset="1" stop-color="#fcdcda"></stop></linearGradient><linearGradient id="linear-gradient-21" x1="891.54" y1="271.49" x2="908.34" y2="271.49" xlink:href="#linear-gradient-8"></linearGradient><linearGradient id="linear-gradient-22" x1="890.35" y1="292.24" x2="907.05" y2="292.24" xlink:href="#linear-gradient-20"></linearGradient><linearGradient id="linear-gradient-23" x1="891.58" y1="278.17" x2="908.28" y2="278.17" xlink:href="#linear-gradient-20"></linearGradient><linearGradient id="linear-gradient-24" x1="894.6" y1="255.37" x2="901.87" y2="255.37" gradientUnits="userSpaceOnUse"><stop offset="0" stop-color="#3e2c57"></stop><stop offset="0.84" stop-color="#fcdcda"></stop></linearGradient><linearGradient id="linear-gradient-25" x1="895.02" y1="258.34" x2="901.48" y2="258.34" xlink:href="#linear-gradient-20"></linearGradient><linearGradient id="linear-gradient-26" x1="818.76" y1="285.84" x2="878.96" y2="285.84" xlink:href="#linear-gradient-5"></linearGradient><linearGradient id="linear-gradient-27" x1="833.83" y1="300.43" x2="869.08" y2="300.43" xlink:href="#linear-gradient-6"></linearGradient><linearGradient id="linear-gradient-28" x1="845.37" y1="271.13" x2="868.77" y2="271.13" gradientUnits="userSpaceOnUse"><stop offset="0.32" stop-color="#bad8df"></stop><stop offset="1" stop-color="#fcdcda"></stop></linearGradient><linearGradient id="linear-gradient-29" x1="821.95" y1="268.73" x2="872.95" y2="268.73" xlink:href="#linear-gradient-6"></linearGradient><linearGradient id="linear-gradient-30" x1="847.94" y1="267.41" x2="869.95" y2="267.41" xlink:href="#linear-gradient-28"></linearGradient><linearGradient id="linear-gradient-31" x1="823.83" y1="632.1" x2="921.58" y2="632.1" xlink:href="#linear-gradient-3"></linearGradient><linearGradient id="linear-gradient-32" x1="71.81" y1="2252.02" x2="80.9" y2="2252.02" gradientTransform="translate(763.03 -1058.01) scale(1 0.75)" gradientUnits="userSpaceOnUse"><stop offset="0.36" stop-color="#e7dbdc"></stop><stop offset="0.47" stop-color="#b8aab7"></stop><stop offset="0.6" stop-color="#8d7d96"></stop><stop offset="0.71" stop-color="#6b597b"></stop><stop offset="0.82" stop-color="#524068"></stop><stop offset="0.92" stop-color="#43305c"></stop><stop offset="1" stop-color="#3e2b58"></stop></linearGradient><linearGradient id="linear-gradient-33" x1="3506.36" y1="9587.95" x2="3525.53" y2="9587.95" gradientTransform="translate(-2631.53 -4754.05) scale(1 0.56)" xlink:href="#linear-gradient"></linearGradient><linearGradient id="linear-gradient-34" x1="3518.85" y1="10328.73" x2="3533.96" y2="10328.73" gradientTransform="matrix(1, 0, 0, 0.51, -2643.16, -4586.58)" xlink:href="#linear-gradient"></linearGradient><linearGradient id="linear-gradient-35" x1="3517.02" y1="10966.33" x2="3536.23" y2="10966.33" gradientTransform="matrix(1, 0, 0, 0.47, -2652.87, -4466.28)" xlink:href="#linear-gradient"></linearGradient><linearGradient id="linear-gradient-36" x1="3515.75" y1="12565.57" x2="3544.01" y2="12565.57" gradientTransform="matrix(1, 0, 0, 0.39, -2663.18, -4238.11)" xlink:href="#linear-gradient"></linearGradient><linearGradient id="linear-gradient-37" x1="2447.03" y1="-1750.06" x2="2456.12" y2="-1750.06" gradientTransform="translate(-1551.79 1931.62) scale(1 0.75)" gradientUnits="userSpaceOnUse"><stop offset="0" stop-color="#bad8df"></stop><stop offset="1" stop-color="#fcdcda"></stop></linearGradient><linearGradient id="linear-gradient-38" x1="879.79" y1="606.12" x2="849.46" y2="652.99" xlink:href="#linear-gradient"></linearGradient><linearGradient id="linear-gradient-39" x1="7606.09" y1="2451.94" x2="7615.18" y2="2451.94" gradientTransform="translate(-6745.47 -463.69) scale(1 0.44)" xlink:href="#linear-gradient-37"></linearGradient><linearGradient id="linear-gradient-40" x1="866.72" y1="627.66" x2="901.78" y2="627.66" gradientTransform="matrix(1, 0, 0, 1, 0, 0)" xlink:href="#linear-gradient-37"></linearGradient><linearGradient id="linear-gradient-41" x1="92.56" y1="1136.5" x2="101.65" y2="1136.5" gradientTransform="translate(755.13 320.13) scale(1 0.28)" xlink:href="#linear-gradient-37"></linearGradient><linearGradient id="linear-gradient-42" x1="113.36" y1="1136.81" x2="122.45" y2="1136.81" gradientTransform="translate(752.3 330.52) scale(1 0.28)" xlink:href="#linear-gradient-37"></linearGradient><linearGradient id="linear-gradient-43" x1="99.65" y1="1588.94" x2="108.74" y2="1588.94" gradientTransform="translate(755.01 43.98) scale(1 0.38)" xlink:href="#linear-gradient-37"></linearGradient><linearGradient id="linear-gradient-44" x1="106.47" y1="1315.84" x2="115.55" y2="1315.84" gradientTransform="translate(753.53 234.89) scale(1 0.31)" xlink:href="#linear-gradient-37"></linearGradient><linearGradient id="linear-gradient-45" x1="647.64" y1="465.18" x2="745.39" y2="465.18" xlink:href="#linear-gradient-3"></linearGradient><linearGradient id="linear-gradient-46" x1="708.93" y1="463.31" x2="729.83" y2="463.31" gradientUnits="userSpaceOnUse"><stop offset="0" stop-color="#fcdcda"></stop><stop offset="1" stop-color="#bad8df"></stop></linearGradient><linearGradient id="linear-gradient-47" x1="693.78" y1="448.76" x2="714.67" y2="448.76" xlink:href="#linear-gradient-46"></linearGradient><linearGradient id="linear-gradient-48" x1="676.76" y1="474.89" x2="711.02" y2="474.89" xlink:href="#linear-gradient-46"></linearGradient><linearGradient id="linear-gradient-49" x1="676.76" y1="473.37" x2="711.02" y2="473.37" xlink:href="#linear-gradient-46"></linearGradient><linearGradient id="linear-gradient-50" x1="660.97" y1="482.37" x2="676.76" y2="482.37" gradientUnits="userSpaceOnUse"><stop offset="0" stop-color="#fcdcda"></stop><stop offset="0.53" stop-color="#bad8df"></stop></linearGradient><linearGradient id="linear-gradient-51" x1="665.44" y1="486.75" x2="705.31" y2="486.75" xlink:href="#linear-gradient-6"></linearGradient><linearGradient id="linear-gradient-52" x1="667.74" y1="486.75" x2="673.33" y2="486.75" xlink:href="#linear-gradient-46"></linearGradient><linearGradient id="linear-gradient-53" x1="711.02" y1="486.27" x2="713.21" y2="486.27" xlink:href="#linear-gradient-46"></linearGradient><linearGradient id="linear-gradient-54" x1="660.97" y1="471.41" x2="676.76" y2="471.41" gradientUnits="userSpaceOnUse"><stop offset="0" stop-color="#fcdcda"></stop><stop offset="0.5" stop-color="#bad8df"></stop></linearGradient><linearGradient id="linear-gradient-55" x1="652.64" y1="471.41" x2="690.55" y2="471.41" xlink:href="#linear-gradient-6"></linearGradient><linearGradient id="linear-gradient-56" x1="716.61" y1="449.85" x2="724.86" y2="449.85" xlink:href="#linear-gradient-6"></linearGradient><linearGradient id="linear-gradient-57" x1="716.61" y1="454.24" x2="724.86" y2="454.24" xlink:href="#linear-gradient-6"></linearGradient><linearGradient id="linear-gradient-58" x1="716.61" y1="458.81" x2="724.86" y2="458.81" xlink:href="#linear-gradient-6"></linearGradient><linearGradient id="linear-gradient-59" x1="716.61" y1="463.45" x2="724.86" y2="463.45" xlink:href="#linear-gradient-6"></linearGradient><linearGradient id="linear-gradient-60" x1="716.61" y1="467.84" x2="724.86" y2="467.84" xlink:href="#linear-gradient-6"></linearGradient><linearGradient id="linear-gradient-61" x1="716.61" y1="472.41" x2="724.86" y2="472.41" xlink:href="#linear-gradient-6"></linearGradient><linearGradient id="linear-gradient-62" x1="716.61" y1="476.98" x2="724.86" y2="476.98" xlink:href="#linear-gradient-6"></linearGradient><linearGradient id="linear-gradient-63" x1="716.61" y1="481.38" x2="724.86" y2="481.38" xlink:href="#linear-gradient-6"></linearGradient><linearGradient id="linear-gradient-64" x1="701.35" y1="449.85" x2="709.6" y2="449.85" xlink:href="#linear-gradient-6"></linearGradient><linearGradient id="linear-gradient-65" x1="701.35" y1="454.24" x2="709.6" y2="454.24" xlink:href="#linear-gradient-6"></linearGradient><linearGradient id="linear-gradient-66" x1="660.72" y1="486.27" x2="694.98" y2="486.27" xlink:href="#linear-gradient-46"></linearGradient><linearGradient id="linear-gradient-67" x1="695.28" y1="486.75" x2="742.26" y2="486.75" xlink:href="#linear-gradient-6"></linearGradient><linearGradient id="linear-gradient-68" x1="697.57" y1="486.75" x2="703.17" y2="486.75" xlink:href="#linear-gradient-46"></linearGradient><linearGradient id="linear-gradient-69" x1="680.09" y1="471.85" x2="753.06" y2="471.85" xlink:href="#linear-gradient-6"></linearGradient><linearGradient id="linear-gradient-70" x1="1003.21" y1="464.48" x2="1100.99" y2="464.48" xlink:href="#linear-gradient-3"></linearGradient><linearGradient id="linear-gradient-71" x1="1017.94" y1="464.39" x2="1086.82" y2="464.39" gradientTransform="matrix(1, 0, 0, 1, 0, 0)" xlink:href="#linear-gradient-37"></linearGradient><linearGradient id="linear-gradient-72" x1="1026.36" y1="488.33" x2="1078.4" y2="488.33" gradientTransform="matrix(1, 0, 0, 1, 0, 0)" xlink:href="#linear-gradient-37"></linearGradient><linearGradient id="linear-gradient-73" x1="1026.35" y1="440.46" x2="1078.4" y2="440.46" gradientTransform="matrix(1, 0, 0, 1, 0, 0)" xlink:href="#linear-gradient-37"></linearGradient><linearGradient id="linear-gradient-74" x1="1017.94" y1="464.39" x2="1072.04" y2="464.39" gradientTransform="matrix(1, 0, 0, 1, 0, 0)" xlink:href="#linear-gradient-37"></linearGradient><linearGradient id="linear-gradient-75" x1="1032.38" y1="464.39" x2="1086.82" y2="464.39" gradientTransform="matrix(1, 0, 0, 1, 0, 0)" xlink:href="#linear-gradient-37"></linearGradient><linearGradient id="linear-gradient-76" x1="1049.88" y1="464.39" x2="1054.88" y2="464.39" gradientTransform="matrix(1, 0, 0, 1, 0, 0)" xlink:href="#linear-gradient-37"></linearGradient><linearGradient id="linear-gradient-77" x1="1020.44" y1="464.39" x2="1084.32" y2="464.39" gradientTransform="matrix(1, 0, 0, 1, 0, 0)" xlink:href="#linear-gradient-37"></linearGradient><linearGradient id="linear-gradient-78" x1="52.45" y1="55.72" x2="418.1" y2="55.72" xlink:href="#linear-gradient-46"></linearGradient><linearGradient id="linear-gradient-79" x1="709.98" y1="55.72" x2="1034.88" y2="55.72" xlink:href="#linear-gradient-46"></linearGradient></defs><g id="Layer_2" data-name="Layer 2"><g id="Copy"><path class="cls-1" d="M1081.32,456.07c0,115.53-93.66,209.19-209.2,209.19S662.93,571.6,662.93,456.07s93.66-209.2,209.19-209.2c108.32,0,197.4,82.32,208.12,187.81"></path><polyline class="cls-2" points="726.37 297.65 726.37 343.08 767.43 343.08"></polyline><polyline class="cls-2" points="993.83 366.06 993.83 320.62 1034.89 320.62"></polyline><polyline class="cls-2" points="1004.58 623.99 1004.58 578.56 963.52 578.56"></polyline><polyline class="cls-2" points="754.75 552.41 754.75 597.85 713.7 597.85"></polyline><circle class="cls-3" cx="235.27" cy="454.59" r="233.07"></circle><path class="cls-4" d="M472.85,454.59a236.55,236.55,0,0,1-451,99.82A234.47,234.47,0,0,1,441.31,345a231.78,231.78,0,0,1,25.83,85.72,231.34,231.34,0,0,0-26.33-85.45,234.62,234.62,0,0,0-56.51-69.17,231.51,231.51,0,1,0-143.15,408,228.95,228.95,0,0,0,222.7-229.55h0a4.5,4.5,0,1,1,9,0Z"></path><path class="cls-5" d="M403.88,454.18A168.36,168.36,0,0,1,302.44,607.92,166.63,166.63,0,0,1,161.34,306.1a164.76,164.76,0,0,1,237.2,131.3,163.08,163.08,0,0,0-18.62-60.13,165,165,0,0,0-39.82-48.61A162.39,162.39,0,0,0,125.7,572.51,160.32,160.32,0,0,0,394.88,454.18h0a4.5,4.5,0,0,1,9,0Z"></path><circle class="cls-6" cx="235.27" cy="454.18" r="158.79"></circle><circle class="cls-7" cx="870.6" cy="455.51" r="156.5"></circle><circle class="cls-8" cx="872.12" cy="277.57" r="48.88"></circle><path class="cls-9" d="M889,261.06l-2.18,14.24-.36,2.33v-1.78c-.55.79-2,2.19-5.93,3.53-4.9,1.7-13.76,6.59-21.22,11.89V277.63l-2.54-16.57Z"></path><path class="cls-10" d="M859.33,287.06v4.21l-1.27.91Z"></path><path class="cls-11" d="M889.52,299.38H856.29l.42-1.69a3.68,3.68,0,0,0,2.62-.6,11.2,11.2,0,0,0,2.95-2.6c2.11-2.53,11.55-8.31,18.81-12.26,4-2.06,4.51-2.7,5.39-3.75v8.58Z"></path><path class="cls-12" d="M886.48,278.48c-.41,1.3-1.44,1.68-5.39,3.74-7.26,4-16.7,9.74-18.82,12.27a10.83,10.83,0,0,1-2.95,2.59,3.63,3.63,0,0,1-2.61.61l1.35-5.51,1.26-.91c7.47-5.29,16.33-10.19,21.23-11.89,3.9-1.34,5.37-2.74,5.93-3.53a1.72,1.72,0,0,0,.32-.63.48.48,0,0,1,0,.08A17.16,17.16,0,0,1,886.48,278.48Z"></path><rect class="cls-13" x="856.29" y="299.38" width="33.23" height="0.48"></rect><rect class="cls-14" x="856.29" y="300.34" width="33.23" height="0.48"></rect><rect class="cls-15" x="856.29" y="299.86" width="33.23" height="0.48"></rect><rect class="cls-16" x="856.29" y="300.82" width="33.23" height="0.48"></rect><rect class="cls-17" x="856.79" y="259.15" width="32.23" height="0.48"></rect><rect class="cls-18" x="856.79" y="260.1" width="32.23" height="0.48"></rect><rect class="cls-19" x="856.79" y="259.62" width="32.23" height="0.48"></rect><rect class="cls-20" x="856.79" y="260.58" width="32.23" height="0.48"></rect><path class="cls-11" d="M863.87,275.92a5.06,5.06,0,0,1,3.92-5.2,7.66,7.66,0,0,1,2.65-.25.46.46,0,0,0,.47-.23,6.57,6.57,0,0,1,3.43-2.69,5,5,0,0,1,4.39.7,6,6,0,0,1,2.71,3.63,2.54,2.54,0,0,1-1.85,3.26,2.51,2.51,0,0,1-1.51-.09,5.21,5.21,0,0,0-5.16.84,7.1,7.1,0,0,0-2,2.3,6.76,6.76,0,0,1-1.53,2.1,2.62,2.62,0,0,1-2.58.69,3.42,3.42,0,0,1-1.69-1.33A6.51,6.51,0,0,1,863.87,275.92ZM875,273.34l-.15-.1a13.77,13.77,0,0,0-3.31-1.13,6.7,6.7,0,0,0-3.84.23,3.36,3.36,0,0,0-2,1.88,4.69,4.69,0,0,0,.15,3.6,3.4,3.4,0,0,0,1.2,1.58.84.84,0,0,0,1,.05,2.69,2.69,0,0,0,1-.95c.23-.36.44-.74.66-1.11A8,8,0,0,1,875,273.34Zm-2.56-2.61c.67.23,1.33.44,2,.69a26.84,26.84,0,0,1,4.05,2.11,1.17,1.17,0,0,0,.73.15,1,1,0,0,0,.81-1.41,4.53,4.53,0,0,0-1.83-2.6C876,268.1,873.87,268.84,872.43,270.73Z"></path><path class="cls-11" d="M876.73,273.69s-5-2.83-7.4-2.44-4.93,1.35-4.35,4.66.19,4.69,2.25,4.42,6-6.63,8.06-6.31S876.73,273.69,876.73,273.69Z"></path><path class="cls-21" d="M880.26,273.69s1.69-2.71-.22-4-4.06-2.37-5.85-1.29a9.41,9.41,0,0,0-2.7,2.43s6.32,2.23,7,3.14S880.26,273.69,880.26,273.69Z"></path><polygon class="cls-22" points="901.46 259.27 895.02 259.27 890.92 264.47 905.55 264.47 901.46 259.27"></polygon><polygon class="cls-23" points="904.21 283.06 892.27 283.06 890.92 279.24 905.55 279.24 904.21 283.06"></polygon><path class="cls-24" d="M902.24,301.68h-8a2.8,2.8,0,0,1-2.62-1.86l-.69-2h14.63l-.69,2A2.78,2.78,0,0,1,902.24,301.68Z"></path><polygon class="cls-25" points="904.21 282.85 892.27 282.85 890.92 286.67 905.55 286.67 904.21 282.85"></polygon><rect class="cls-26" x="890.87" y="264.47" width="14.73" height="1.4"></rect><rect class="cls-27" x="890.87" y="265.87" width="14.73" height="11.24"></rect><rect class="cls-28" x="890.92" y="286.62" width="14.63" height="11.24"></rect><rect class="cls-29" x="890.92" y="277.09" width="14.63" height="2.15"></rect><path class="cls-30" d="M895,253.33h6.38a.45.45,0,0,1,.45.45v3.63a0,0,0,0,1,0,0H894.6a0,0,0,0,1,0,0v-3.63a.45.45,0,0,1,.45-.45Z"></path><rect class="cls-31" x="895.02" y="257.41" width="6.47" height="1.86"></rect><rect class="cls-11" x="895.82" y="266.98" width="8.9" height="1.34"></rect><rect class="cls-11" x="892.04" y="275.09" width="8.9" height="1.34"></rect><rect class="cls-11" x="892.04" y="273.02" width="6.67" height="1.34"></rect><rect class="cls-32" x="838.64" y="272.63" width="23.4" height="26.42"></rect><polygon class="cls-33" points="861.1 301.81 839.58 301.81 838.64 299.06 862.04 299.06 861.1 301.81"></polygon><polygon class="cls-34" points="860.57 269.63 840.12 269.63 838.64 272.63 862.04 272.63 860.57 269.63"></polygon><polygon class="cls-35" points="861.35 267.84 839.34 267.84 840.1 269.63 860.59 269.63 861.35 267.84"></polygon><rect class="cls-36" x="839.34" y="266.98" width="22.01" height="0.85"></rect><circle class="cls-11" cx="850.34" cy="282" r="6.23"></circle><rect class="cls-11" x="840.69" y="296.53" width="19.3" height="1.58"></rect><rect class="cls-11" x="840.69" y="294.01" width="19.3" height="1.58"></rect><rect class="cls-11" x="840.69" y="291.59" width="19.3" height="1.58"></rect><circle class="cls-37" cx="872.7" cy="632.1" r="48.88"></circle><rect class="cls-38" x="842.48" y="610.96" width="7.26" height="26.67" transform="matrix(0.87, 0.5, -0.5, 0.87, 425.5, -339.42)"></rect><path class="cls-39" d="M886.87,629H890a2,2,0,0,1,2,2v18a0,0,0,0,1,0,0h-7.26a0,0,0,0,1,0,0v-18a2,2,0,0,1,2-2Z" transform="translate(1907.66 240.34) rotate(122.91)"></path><path class="cls-40" d="M882.56,635h3.18a2,2,0,0,1,2,2v16a0,0,0,0,1,0,0h-7.26a0,0,0,0,1,0,0v-16A2,2,0,0,1,882.56,635Z" transform="translate(1905.24 251.72) rotate(122.91)"></path><path class="cls-41" d="M878.7,640.22h3.18a2,2,0,0,1,2,2v14.61a0,0,0,0,1,0,0h-7.26a0,0,0,0,1,0,0V642.27A2,2,0,0,1,878.7,640.22Z" transform="translate(1903.03 261.86) rotate(122.91)"></path><path class="cls-42" d="M874.26,645.89h3.18a2,2,0,0,1,2,2v11.85a0,0,0,0,1,0,0h-7.26a0,0,0,0,1,0,0V647.93A2,2,0,0,1,874.26,645.89Z" transform="translate(1899.77 272.19) rotate(122.91)"></path><rect class="cls-43" x="895.24" y="610.96" width="7.26" height="26.67" transform="translate(-191.72 533.07) rotate(-30)"></rect><path class="cls-44" d="M844.57,634.22s5.62,9.87,23.47,17.89l14.22-21.37-15.54-13.26s-7,4.66-12.27-.64C854.54,616.93,844.57,634.22,844.57,634.22Z"></path><path class="cls-45" d="M862.66,617.67h3.18a2,2,0,0,1,2,2v13.82a0,0,0,0,1,0,0h-7.26a0,0,0,0,1,0,0V619.71A2,2,0,0,1,862.66,617.67Z" transform="translate(1105.23 1664.95) rotate(-138.95)"></path><path class="cls-46" d="M866.72,617.24s12-3,19.19.65c-.08,0,1,.88,4.43-.34l.78-.41,10.66,18.08-6.39,4S872.23,624.35,871,623.44,866.72,617.24,866.72,617.24Z"></path><path class="cls-47" d="M849.74,636.42h3.18a2,2,0,0,1,2,2v6.94a1.11,1.11,0,0,1-1.11,1.11h-5a1.11,1.11,0,0,1-1.11-1.11v-6.94a2,2,0,0,1,2-2Z" transform="translate(434.79 -339.72) rotate(30)"></path><path class="cls-48" d="M867.71,646.9h3.18a2,2,0,0,1,2,2v6.94a1.11,1.11,0,0,1-1.11,1.11h-5a1.11,1.11,0,0,1-1.11-1.11v-6.94a2,2,0,0,1,2-2Z" transform="translate(442.44 -347.3) rotate(30)"></path><path class="cls-49" d="M856.7,636.85h3.18a2,2,0,0,1,2,2v10.32a1.11,1.11,0,0,1-1.11,1.11h-5a1.11,1.11,0,0,1-1.11-1.11V638.89a2,2,0,0,1,2-2Z" transform="matrix(0.87, 0.5, -0.5, 0.87, 436.78, -342.92)"></path><path class="cls-50" d="M862,642.37h3.18a2,2,0,0,1,2,2v8.05a1.11,1.11,0,0,1-1.11,1.11h-5a1.11,1.11,0,0,1-1.11-1.11v-8.05a2,2,0,0,1,2-2Z" transform="matrix(0.87, 0.5, -0.5, 0.87, 439.69, -345)"></path><circle class="cls-51" cx="696.51" cy="465.18" r="48.88"></circle><polygon class="cls-52" points="714.42 446.15 727.16 438.7 727.16 487.92 714.42 487.92 714.42 446.15"></polygon><polygon class="cls-53" points="712 438.7 712 458.81 699.27 458.81 699.27 445.88 712 438.7"></polygon><path class="cls-54" d="M711,464.63v23.29H676.76V464.63a2.78,2.78,0,0,1,2.78-2.77h28.7A2.78,2.78,0,0,1,711,464.63Z"></path><path class="cls-55" d="M711,464.63v20.25H676.76V464.63a2.78,2.78,0,0,1,2.78-2.77h28.7A2.78,2.78,0,0,1,711,464.63Z"></path><rect class="cls-56" x="660.97" y="476.83" width="15.8" height="11.09"></rect><circle class="cls-57" cx="670.53" cy="486.75" r="5.09"></circle><circle class="cls-58" cx="670.53" cy="486.75" r="2.8"></circle><rect class="cls-59" x="711.02" y="484.62" width="2.2" height="3.3"></rect><polygon class="cls-60" points="676.76 465.99 667.36 465.99 660.97 476.83 676.76 476.83 676.76 465.99"></polygon><polygon class="cls-61" points="674.3 467.68 667.83 467.68 663.43 475.14 674.3 475.14 674.3 467.68"></polygon><rect class="cls-62" x="716.61" y="448.76" width="8.25" height="2.19"></rect><rect class="cls-63" x="716.61" y="453.15" width="8.25" height="2.19"></rect><rect class="cls-64" x="716.61" y="457.72" width="8.25" height="2.19"></rect><rect class="cls-65" x="716.61" y="462.35" width="8.25" height="2.19"></rect><rect class="cls-66" x="716.61" y="466.75" width="8.25" height="2.19"></rect><rect class="cls-67" x="716.61" y="471.32" width="8.25" height="2.19"></rect><rect class="cls-68" x="716.61" y="475.89" width="8.25" height="2.19"></rect><rect class="cls-69" x="716.61" y="480.28" width="8.25" height="2.19"></rect><rect class="cls-70" x="701.35" y="448.76" width="8.25" height="2.19"></rect><rect class="cls-71" x="701.35" y="453.15" width="8.25" height="2.19"></rect><rect class="cls-72" x="676.76" y="484.62" width="34.26" height="3.3"></rect><circle class="cls-73" cx="700.37" cy="486.75" r="5.09"></circle><circle class="cls-74" cx="700.37" cy="486.75" r="2.8"></circle><path class="cls-75" d="M700.08,471.93c0-.19,0-.38,0-.56l1.24-.33-.56-2.12-1.26.33a5.85,5.85,0,0,0-1-1.51l.81-1.06-1.73-1.34-.83,1.07a5.86,5.86,0,0,0-1.71-.58v-1.35h-2.2v1.35a5.68,5.68,0,0,0-1.63.54l-.81-1.08-1.76,1.32.8,1.06a6.38,6.38,0,0,0-.81,1.05l-1.23-.45-.76,2.06,1.21.45a6.15,6.15,0,0,0-.11,1.15c0,.13,0,.27,0,.4l-1.23.32.56,2.13,1.2-.32a6.38,6.38,0,0,0,1,1.58l-.74,1,1.74,1.34.73-1a5.91,5.91,0,0,0,1.8.62v1.2H695V478a6,6,0,0,0,1.72-.58l.72,1,1.76-1.32-.73-1a6.31,6.31,0,0,0,.81-1.11l1.16.43.76-2.07-1.19-.43A5.55,5.55,0,0,0,700.08,471.93Zm-6.19,4.14a4.22,4.22,0,1,1,4.22-4.22A4.22,4.22,0,0,1,693.89,476.07Z"></path><circle class="cls-76" cx="1052.1" cy="464.48" r="48.88"></circle><path class="cls-77" d="M1084.32,464.39a31.94,31.94,0,0,1-31.94,31.94h-.25a31.94,31.94,0,0,1,0-63.87h.25a32,32,0,0,1,31.94,31.94Z"></path><path class="cls-78" d="M1074.5,487.43a31.85,31.85,0,0,1-22.12,8.9h-.25a31.83,31.83,0,0,1-21.88-8.9,37.9,37.9,0,0,1,44.25,0Z"></path><path class="cls-79" d="M1074.5,441.36a38.06,38.06,0,0,1-35,4.86,38.15,38.15,0,0,1-9.25-4.86,31.81,31.81,0,0,1,21.88-8.9h.25A31.8,31.8,0,0,1,1074.5,441.36Z"></path><path class="cls-80" d="M1069.54,464.39a37.82,37.82,0,0,1-4.56,18.07,38.22,38.22,0,0,1-12.6,13.71l-.17.11-.08.05a31.94,31.94,0,0,1,0-63.87l.08.05.17.11a37.91,37.91,0,0,1,17.16,31.77Z"></path><path class="cls-81" d="M1084.32,464.39a31.94,31.94,0,0,1-31.94,31.94h-.08l-.09-.05a38.21,38.21,0,0,1-12.71-13.72,38,38,0,0,1,12.71-50.05l.09-.06h.08a32,32,0,0,1,31.94,31.94Z"></path><line class="cls-82" x1="1052.38" y1="432.45" x2="1052.38" y2="496.33"></line><line class="cls-83" x1="1020.44" y1="464.39" x2="1084.32" y2="464.39"></line><path class="cls-84" d="M855.08,455.78v-11.5a2.45,2.45,0,0,1,.67-1.84,2.65,2.65,0,0,1,3.49,0,2.5,2.5,0,0,1,.67,1.85v11.25a6,6,0,0,0,.59,2.7,4.65,4.65,0,0,0,1.74,1.91,4.9,4.9,0,0,0,2.62.71,4.52,4.52,0,0,0,3.55-1.57,5.47,5.47,0,0,0,1.4-3.75V444.28a2.45,2.45,0,0,1,.67-1.84,2.65,2.65,0,0,1,3.49,0,2.49,2.49,0,0,1,.66,1.85v11.5a9.25,9.25,0,0,1-2.86,6.77,9.66,9.66,0,0,1-3.13,2,9.93,9.93,0,0,1-3.78.72,10.08,10.08,0,0,1-4.91-1.23,9.28,9.28,0,0,1-3.56-3.42A9.19,9.19,0,0,1,855.08,455.78Z"></path><path class="cls-84" d="M877.22,462.52V450.15a2.65,2.65,0,0,1,.64-1.86,2.11,2.11,0,0,1,1.67-.72A2.25,2.25,0,0,1,881,448a2,2,0,0,1,.68,1.26q1.35-1.9,4.47-1.9a7,7,0,0,1,3.28.75,5.45,5.45,0,0,1,2.26,2.15,6.52,6.52,0,0,1,.82,3.35v8.89a2.91,2.91,0,0,1-.3,1.34,2.25,2.25,0,0,1-.83.92,2.34,2.34,0,0,1-1.2.32,2.11,2.11,0,0,1-1.67-.72,2.65,2.65,0,0,1-.64-1.86v-8.09a3.11,3.11,0,0,0-.85-2.37,3,3,0,0,0-2.19-.81,3,3,0,0,0-1.59.42,2.69,2.69,0,0,0-1,1.12,3.73,3.73,0,0,0-.35,1.64v8.09a2.91,2.91,0,0,1-.3,1.34,2.25,2.25,0,0,1-.83.92,2.34,2.34,0,0,1-1.2.32,2.11,2.11,0,0,1-1.67-.72A2.65,2.65,0,0,1,877.22,462.52Z"></path><path class="cls-84" d="M897.39,440.61a2.41,2.41,0,0,1,1.29.36,2.84,2.84,0,0,1,1,1,2.24,2.24,0,0,1,.37,1.23,2.61,2.61,0,0,1-.77,1.88,2.47,2.47,0,0,1-3.66,0,2.62,2.62,0,0,1-.8-1.86,2.43,2.43,0,0,1,.8-1.77A2.49,2.49,0,0,1,897.39,440.61Zm-2.31,21.91V450.15a2.65,2.65,0,0,1,.64-1.86,2.11,2.11,0,0,1,1.67-.72,2.33,2.33,0,0,1,1.21.32,2.29,2.29,0,0,1,.83.91,3.11,3.11,0,0,1,.29,1.35v12.37a3,3,0,0,1-.29,1.34,2.2,2.2,0,0,1-.84.92,2.32,2.32,0,0,1-1.2.32,2.11,2.11,0,0,1-1.67-.72A2.65,2.65,0,0,1,895.08,462.52Z"></path><path class="cls-84" d="M905.91,463.16l-4.68-12a4.17,4.17,0,0,1-.28-1.36,2.06,2.06,0,0,1,.71-1.66,2.56,2.56,0,0,1,1.72-.6,2.08,2.08,0,0,1,2.06,1.65l3,9.14h.06l3-9.14a2.05,2.05,0,0,1,2.06-1.65,2.59,2.59,0,0,1,1.71.59,2,2,0,0,1,.7,1.67,3.93,3.93,0,0,1-.28,1.36l-4.68,12a3.61,3.61,0,0,1-.9,1.48,2.44,2.44,0,0,1-1.61.46,2.37,2.37,0,0,1-1.6-.45A3.93,3.93,0,0,1,905.91,463.16Z"></path><path class="cls-84" d="M930.82,457.89h-9.88a3.49,3.49,0,0,0,1.45,2.5,4.92,4.92,0,0,0,2.92.86,4.3,4.3,0,0,0,1.79-.34q.75-.33,1.86-.93a4.09,4.09,0,0,1,1.61-.61,1.72,1.72,0,0,1,.92.29,2.34,2.34,0,0,1,.72.75,2,2,0,0,1,.26,1,2.08,2.08,0,0,1-.67,1.43,6.2,6.2,0,0,1-1.77,1.27,12.23,12.23,0,0,1-2.5.9,11.48,11.48,0,0,1-2.64.33,8.93,8.93,0,0,1-4.54-1.15,8,8,0,0,1-3.08-3.2,9.59,9.59,0,0,1-1.08-4.58,9.27,9.27,0,0,1,.62-3.37,9.65,9.65,0,0,1,1.73-2.92,7.89,7.89,0,0,1,2.66-2,8,8,0,0,1,6.69,0,8.2,8.2,0,0,1,2.65,2,9.69,9.69,0,0,1,1.7,2.73,7.87,7.87,0,0,1,.61,3A1.81,1.81,0,0,1,930.82,457.89Zm-10-3.1h7.38a4.22,4.22,0,0,0-1.17-2.56,3.69,3.69,0,0,0-5,0A4.23,4.23,0,0,0,920.83,454.79Z"></path><path class="cls-84" d="M934.44,462.52V449.9a2.14,2.14,0,0,1,.72-1.72,2.45,2.45,0,0,1,1.66-.61c1.51,0,2.26.64,2.26,1.93h.07A5.12,5.12,0,0,1,940.6,448a3.39,3.39,0,0,1,1.8-.45,2.21,2.21,0,0,1,1.58.64,2.46,2.46,0,0,1,.67,1.85,1.42,1.42,0,0,1-.35,1.05,2.94,2.94,0,0,1-1,.61l-1.45.59a8.18,8.18,0,0,0-2.09,1.25,2.33,2.33,0,0,0-.71,1.85v7.11a2.9,2.9,0,0,1-.29,1.34,2.27,2.27,0,0,1-.84.92,2.31,2.31,0,0,1-1.19.32,2.12,2.12,0,0,1-1.68-.72A2.65,2.65,0,0,1,934.44,462.52Z"></path><path class="cls-84" d="M956.9,450.73a2.11,2.11,0,0,1-.54,1.43,1.72,1.72,0,0,1-1.35.63,4.42,4.42,0,0,1-1.38-.45c-.67-.31-1.2-.53-1.56-.68a3.24,3.24,0,0,0-1.23-.22,1.82,1.82,0,0,0-1.12.33,1.12,1.12,0,0,0-.45,1c0,.45.46.88,1.38,1.28s1.9.82,2.93,1.25a8,8,0,0,1,2.65,1.71,3.83,3.83,0,0,1,1.09,2.88,5,5,0,0,1-.81,2.79,5.66,5.66,0,0,1-2.34,1.95,8,8,0,0,1-3.46.71,9.51,9.51,0,0,1-2.88-.47,7.61,7.61,0,0,1-2.56-1.3,2.36,2.36,0,0,1-1-1.81,2.27,2.27,0,0,1,.56-1.35,1.74,1.74,0,0,1,1.44-.72,2.84,2.84,0,0,1,1.1.2,12.5,12.5,0,0,1,1.19.61,9,9,0,0,0,1.24.6,4,4,0,0,0,1.29.19,2.29,2.29,0,0,0,1.42-.33,1.19,1.19,0,0,0,.4-1c0-.45-.45-.87-1.34-1.26s-1.87-.8-2.94-1.24a8,8,0,0,1-2.69-1.75,3.86,3.86,0,0,1-1.09-2.88,5,5,0,0,1,.8-2.81,5.47,5.47,0,0,1,2.24-1.92,7.54,7.54,0,0,1,3.26-.68,9.64,9.64,0,0,1,2.61.38,5.89,5.89,0,0,1,2.26,1.15A2.32,2.32,0,0,1,956.9,450.73Z"></path><path class="cls-84" d="M974.82,450.6v11.48a5.43,5.43,0,0,1-.37,2.19c-.25.55-.87.83-1.86.83a2,2,0,0,1-1.45-.49,3,3,0,0,1-.77-1.47A5.63,5.63,0,0,1,966,465.3a6.94,6.94,0,0,1-3.9-1.15,7.76,7.76,0,0,1-2.77-3.18,10.39,10.39,0,0,1-1-4.6,10.1,10.1,0,0,1,1-4.54,8.17,8.17,0,0,1,2.78-3.26,6.79,6.79,0,0,1,3.86-1.19,5.94,5.94,0,0,1,2.49.54,4.71,4.71,0,0,1,1.93,1.58,2,2,0,0,1,.73-1.39,2.24,2.24,0,0,1,1.49-.54q1.49,0,1.86.84A5.43,5.43,0,0,1,974.82,450.6Zm-11.89,5.77a6.43,6.43,0,0,0,.41,2.27,4.08,4.08,0,0,0,1.25,1.75,3.11,3.11,0,0,0,2,.67,3,3,0,0,0,2.65-1.42,5.73,5.73,0,0,0,.94-3.27,6.49,6.49,0,0,0-.4-2.26,4.23,4.23,0,0,0-1.23-1.79,3,3,0,0,0-2-.69,3.06,3.06,0,0,0-2,.69,4,4,0,0,0-1.25,1.78A6.37,6.37,0,0,0,962.93,456.37Z"></path><path class="cls-84" d="M977.41,462.52V442.67a2.72,2.72,0,0,1,.63-1.86,2.15,2.15,0,0,1,1.68-.72,2.29,2.29,0,0,1,1.2.32,2.18,2.18,0,0,1,.83.92,2.91,2.91,0,0,1,.3,1.34v19.85a2.91,2.91,0,0,1-.3,1.34,2.2,2.2,0,0,1-.84.92,2.28,2.28,0,0,1-1.19.32,2.15,2.15,0,0,1-1.68-.72A2.69,2.69,0,0,1,977.41,462.52Z"></path><path class="cls-84" d="M855.27,489.56V471.44a2.59,2.59,0,0,1,.63-1.85,2.46,2.46,0,0,1,1.85-.67h5.67a8.87,8.87,0,0,1,5.94,1.79q2.08,1.79,2.08,5.5a6,6,0,0,1-.45,2.36,5.38,5.38,0,0,1-1.29,1.82,6.7,6.7,0,0,1-1.89,1.23,9.6,9.6,0,0,1-2.33.68l5.49,5.86a2.1,2.1,0,0,1,.63,1.43,2.41,2.41,0,0,1-.7,1.72,2.26,2.26,0,0,1-1.71.75,2.34,2.34,0,0,1-1.87-.83l-7.16-8.68h-.07v7a2.47,2.47,0,0,1-.66,1.84,2.38,2.38,0,0,1-1.74.66,2.35,2.35,0,0,1-1.74-.67A2.44,2.44,0,0,1,855.27,489.56Zm4.82-16.18v5.7h3.33a3.06,3.06,0,0,0,2.17-.78,3.06,3.06,0,0,0,0-4.19,3.11,3.11,0,0,0-2.17-.73Z"></path><path class="cls-84" d="M880.7,474.34a7.69,7.69,0,0,1,3.34.73,8.19,8.19,0,0,1,2.66,2,9.37,9.37,0,0,1,1.72,2.87,9.6,9.6,0,0,1,.6,3.39,9.84,9.84,0,0,1-.6,3.44,9,9,0,0,1-1.69,2.85,7.81,7.81,0,0,1-2.64,1.94,8.21,8.21,0,0,1-3.39.71,7.93,7.93,0,0,1-4.32-1.2,8.23,8.23,0,0,1-3-3.26,9.81,9.81,0,0,1-1-4.48A9.58,9.58,0,0,1,873,480a9.29,9.29,0,0,1,1.73-2.91,7.94,7.94,0,0,1,2.66-2A7.74,7.74,0,0,1,880.7,474.34Zm0,4.25a3.07,3.07,0,0,0-2,.69,4,4,0,0,0-1.25,1.78,6.33,6.33,0,0,0-.41,2.27,6.17,6.17,0,0,0,.42,2.26,4,4,0,0,0,1.24,1.75,3.37,3.37,0,0,0,4,0,4,4,0,0,0,1.24-1.75,6.17,6.17,0,0,0,.42-2.26,6.46,6.46,0,0,0-.41-2.26,4.19,4.19,0,0,0-1.24-1.79A3.1,3.1,0,0,0,880.7,478.59Z"></path><path class="cls-84" d="M891,489.48V469.63a2.68,2.68,0,0,1,.64-1.86,2.11,2.11,0,0,1,1.67-.72,2.33,2.33,0,0,1,1.21.32,2.23,2.23,0,0,1,.82.92,2.91,2.91,0,0,1,.3,1.34V476a6.26,6.26,0,0,1,2-1.2,7.1,7.1,0,0,1,2.36-.41,6.48,6.48,0,0,1,4.07,1.3,8.23,8.23,0,0,1,2.55,3.42,11.64,11.64,0,0,1,.87,4.47,9.89,9.89,0,0,1-.95,4.23,8.24,8.24,0,0,1-2.72,3.26,6.71,6.71,0,0,1-4,1.24,5.65,5.65,0,0,1-2.45-.55,4.15,4.15,0,0,1-1.8-1.58,2.23,2.23,0,0,1-2.33,1.93,2.11,2.11,0,0,1-1.67-.72A2.65,2.65,0,0,1,891,489.48Zm4.64-6.3a6.09,6.09,0,0,0,.94,3.35,3.17,3.17,0,0,0,4.66.79,4.23,4.23,0,0,0,1.25-1.76,6.21,6.21,0,0,0,.41-2.23,6.4,6.4,0,0,0-.41-2.25,4.34,4.34,0,0,0-1.24-1.79,2.93,2.93,0,0,0-2-.7,3.11,3.11,0,0,0-2,.65,3.94,3.94,0,0,0-1.23,1.7A6.1,6.1,0,0,0,895.63,483.18Z"></path><path class="cls-84" d="M911.75,467.57a2.46,2.46,0,0,1,1.29.36,2.91,2.91,0,0,1,1,.95,2.37,2.37,0,0,1,.36,1.24,2.66,2.66,0,0,1-.76,1.88,2.48,2.48,0,0,1-3.67,0,2.62,2.62,0,0,1-.8-1.86,2.43,2.43,0,0,1,.8-1.77A2.52,2.52,0,0,1,911.75,467.57Zm-2.31,21.91V477.11a2.73,2.73,0,0,1,.63-1.87,2.13,2.13,0,0,1,1.68-.71,2.2,2.2,0,0,1,2,1.23,3,3,0,0,1,.3,1.35v12.37a2.91,2.91,0,0,1-.3,1.34,2.12,2.12,0,0,1-.84.91,2.2,2.2,0,0,1-1.19.33,2.14,2.14,0,0,1-1.68-.72A2.69,2.69,0,0,1,909.44,489.48Z"></path><path class="cls-84" d="M916.66,489.48V477.11a2.69,2.69,0,0,1,.64-1.87,2.11,2.11,0,0,1,1.67-.71,2.25,2.25,0,0,1,1.46.45,2,2,0,0,1,.68,1.26c.9-1.27,2.4-1.9,4.47-1.9a7,7,0,0,1,3.28.75,5.38,5.38,0,0,1,2.26,2.15,6.52,6.52,0,0,1,.82,3.35v8.89a2.91,2.91,0,0,1-.3,1.34,2.12,2.12,0,0,1-.84.91,2.2,2.2,0,0,1-1.19.33,2.15,2.15,0,0,1-1.68-.72,2.69,2.69,0,0,1-.63-1.86v-8.09a3.11,3.11,0,0,0-.85-2.37,3,3,0,0,0-2.19-.81,3,3,0,0,0-1.59.42,2.63,2.63,0,0,0-1,1.12,3.57,3.57,0,0,0-.35,1.64v8.09a2.91,2.91,0,0,1-.3,1.34,2.16,2.16,0,0,1-.83.91,2.26,2.26,0,0,1-1.2.33,2.11,2.11,0,0,1-1.67-.72A2.65,2.65,0,0,1,916.66,489.48Z"></path><path class="cls-84" d="M950.45,477.57V489a5.43,5.43,0,0,1-.38,2.2c-.25.55-.87.83-1.86.83a2.08,2.08,0,0,1-1.46-.49,3.09,3.09,0,0,1-.76-1.47,5.63,5.63,0,0,1-4.42,2.16,7,7,0,0,1-3.9-1.14,7.82,7.82,0,0,1-2.76-3.19,10.27,10.27,0,0,1-1-4.61,10.08,10.08,0,0,1,1-4.53,8.17,8.17,0,0,1,2.78-3.26,6.74,6.74,0,0,1,3.86-1.19,6.09,6.09,0,0,1,2.49.53,4.81,4.81,0,0,1,1.93,1.59,2,2,0,0,1,.74-1.39,2.21,2.21,0,0,1,1.48-.54q1.49,0,1.86.84A5.43,5.43,0,0,1,950.45,477.57Zm-11.9,5.76a6.17,6.17,0,0,0,.42,2.26,3.94,3.94,0,0,0,1.24,1.75,3.06,3.06,0,0,0,2,.67,3,3,0,0,0,2.65-1.41,5.74,5.74,0,0,0,.95-3.27,6.46,6.46,0,0,0-.41-2.26,4.15,4.15,0,0,0-1.22-1.79,3,3,0,0,0-2-.69,3.06,3.06,0,0,0-2,.69,4,4,0,0,0-1.25,1.78A6.55,6.55,0,0,0,938.55,483.33Z"></path><path class="cls-84" d="M849.09,481.48,833.76,463a23.14,23.14,0,0,0,12.62-20.65,23.56,23.56,0,0,0-23.66-23.56c-12.49,0-23.44,10.53-23.44,23.35,0,1.27-.08,21.9-.07,24.59a10.73,10.73,0,0,1-10.82,10.81,11,11,0,0,1-11.17-10.81c0-.83.15-38.87.15-38.87a6.32,6.32,0,0,0-6.32-6.36,6.39,6.39,0,0,0-6.39,6.36V466.7c0,13.8,10.92,23.39,23.75,23.39S812,479.18,812,465.44V442.25a10.89,10.89,0,1,1,21.78,0c-.09,6.25-4.63,11.13-10.68,11.1a6.3,6.3,0,0,0-5.27,10.1c2.21,2.73,21.47,26.17,21.47,26.17a6.36,6.36,0,1,0,9.8-8.11"></path><rect class="cls-85" x="52.45" width="365.65" height="111.44"></rect><rect class="cls-86" x="709.98" width="324.89" height="111.44"></rect><path class="cls-4" d="M52.45,65.71H379.83A38.27,38.27,0,0,1,418.1,104v53.19a0,0,0,0,1,0,0H90.72A38.27,38.27,0,0,1,52.45,118.9V65.71A0,0,0,0,1,52.45,65.71Z"></path><path class="cls-4" d="M710,62.23H996.61a38.27,38.27,0,0,1,38.27,38.27v60.16a0,0,0,0,1,0,0H748.25A38.27,38.27,0,0,1,710,122.39V62.23A0,0,0,0,1,710,62.23Z"></path><path class="cls-7" d="M92,124.31,83.44,97.85h7.71l7.22,22.9H94.48l7.6-22.9H109l7.18,22.9h-3.74l7.45-22.9H127l-8.58,26.46h-8l-6.12-19.47h2.15L100,124.31Z"></path><path class="cls-7" d="M143.23,103.48a9.42,9.42,0,0,1,4.31,1,7.05,7.05,0,0,1,3,3,10.63,10.63,0,0,1,1.12,5.18v11.72h-7.19V113.76a4.75,4.75,0,0,0-.88-3.19,3.15,3.15,0,0,0-2.48-1,4.33,4.33,0,0,0-2.08.51,3.46,3.46,0,0,0-1.47,1.57,6.19,6.19,0,0,0-.53,2.76v9.9h-7.18v-28h7.18v13.38l-1.66-1.7a7.86,7.86,0,0,1,3.21-3.34A9.5,9.5,0,0,1,143.23,103.48Z"></path><path class="cls-7" d="M167.19,124.65a13.73,13.73,0,0,1-6.33-1.38,10.42,10.42,0,0,1-4.2-3.78,10.17,10.17,0,0,1-1.49-5.46,10.33,10.33,0,0,1,1.46-5.46,10,10,0,0,1,4-3.74,13,13,0,0,1,11.3-.12,9.54,9.54,0,0,1,4,3.61,10.82,10.82,0,0,1,1.47,5.78c0,.26,0,.54,0,.87s-.06.63-.08.91H161.07V112.1h12.39l-2.72,1.06a4.68,4.68,0,0,0-.51-2.42,4,4,0,0,0-1.51-1.59,4.8,4.8,0,0,0-4.5,0,3.87,3.87,0,0,0-1.49,1.61,5.32,5.32,0,0,0-.53,2.44v1.09a5.25,5.25,0,0,0,.62,2.61,4.18,4.18,0,0,0,1.8,1.68,6.19,6.19,0,0,0,2.8.59,6.86,6.86,0,0,0,2.58-.44,7.72,7.72,0,0,0,2.14-1.34l3.78,3.93a9.59,9.59,0,0,1-3.63,2.48A14,14,0,0,1,167.19,124.65Z"></path><path class="cls-7" d="M180.72,124.31V103.82h6.84v6l-1-1.71a6.61,6.61,0,0,1,3-3.45,9.9,9.9,0,0,1,4.95-1.16V110a8.31,8.31,0,0,0-.85-.1l-.78,0a5.22,5.22,0,0,0-3.55,1.19,4.91,4.91,0,0,0-1.36,3.88v9.41Z"></path><path class="cls-7" d="M207.93,124.65a13.73,13.73,0,0,1-6.33-1.38,10.42,10.42,0,0,1-4.2-3.78,10.17,10.17,0,0,1-1.49-5.46,10.33,10.33,0,0,1,1.46-5.46,10,10,0,0,1,4-3.74,13,13,0,0,1,11.3-.12,9.54,9.54,0,0,1,4,3.61,10.82,10.82,0,0,1,1.47,5.78c0,.26,0,.54,0,.87s-.06.63-.08.91H201.81V112.1H214.2l-2.72,1.06a4.68,4.68,0,0,0-.51-2.42,4,4,0,0,0-1.51-1.59,4.8,4.8,0,0,0-4.5,0,3.87,3.87,0,0,0-1.49,1.61,5.32,5.32,0,0,0-.53,2.44v1.09a5.25,5.25,0,0,0,.62,2.61,4.18,4.18,0,0,0,1.8,1.68,6.19,6.19,0,0,0,2.8.59,6.86,6.86,0,0,0,2.58-.44,7.72,7.72,0,0,0,2.14-1.34l3.78,3.93A9.59,9.59,0,0,1,213,123.8,14,14,0,0,1,207.93,124.65Z"></path><path class="cls-7" d="M221.34,116.3v-5.52h11v5.52Z"></path><path class="cls-7" d="M234.72,110v-5.37h14.85V110Zm11.3,14.7a8.89,8.89,0,0,1-6.12-2q-2.19-2-2.19-5.88V99.25h7.18v17.5a2.39,2.39,0,0,0,.6,1.72,2.09,2.09,0,0,0,1.55.62,3.66,3.66,0,0,0,2.19-.64l1.78,5a6.27,6.27,0,0,1-2.23.88A13,13,0,0,1,246,124.65Z"></path><path class="cls-7" d="M263.44,124.65a12.81,12.81,0,0,1-6-1.36,10.42,10.42,0,0,1-4.1-3.76,10.26,10.26,0,0,1-1.49-5.5,10.14,10.14,0,0,1,1.49-5.48,10.25,10.25,0,0,1,4.1-3.72,13.92,13.92,0,0,1,12,0A10,10,0,0,1,275,114a10.08,10.08,0,0,1-5.58,9.26A12.89,12.89,0,0,1,263.44,124.65Zm0-5.71a4.23,4.23,0,0,0,2.21-.57,3.94,3.94,0,0,0,1.54-1.68,5.9,5.9,0,0,0,.56-2.66,5.68,5.68,0,0,0-.56-2.63,4,4,0,0,0-1.54-1.64,4.23,4.23,0,0,0-2.21-.57,4.09,4.09,0,0,0-3.72,2.21,5.44,5.44,0,0,0-.58,2.63,5.65,5.65,0,0,0,.58,2.66,4.08,4.08,0,0,0,1.55,1.68A4.19,4.19,0,0,0,263.44,118.94Z"></path><path class="cls-7" d="M278.22,116.3v-5.52h11v5.52Z"></path><path class="cls-7" d="M293.71,124.31V97.85h12.1A15.26,15.26,0,0,1,312.06,99a9.07,9.07,0,0,1,4.06,3.39,9.37,9.37,0,0,1,1.44,5.23,8.94,8.94,0,0,1-5.5,8.56,15.09,15.09,0,0,1-6.25,1.19h-7.94l3.33-3.25v10.17Zm7.49-9.38-3.33-3.43h7.48a5.1,5.1,0,0,0,3.5-1,3.56,3.56,0,0,0,1.15-2.83,3.63,3.63,0,0,0-1.15-2.87,5.15,5.15,0,0,0-3.5-1h-7.48l3.33-3.44Z"></path><path class="cls-7" d="M321.23,124.31v-28h7.18v28.05Z"></path><path class="cls-7" d="M339.52,124.65a9.46,9.46,0,0,1-4.16-.83,6.14,6.14,0,0,1-2.59-2.27,6,6,0,0,1-.89-3.21,5.52,5.52,0,0,1,1-3.27,6,6,0,0,1,3-2.12,15.29,15.29,0,0,1,5.18-.74h4.84V116H342a3.91,3.91,0,0,0-2.43.56,1.84,1.84,0,0,0-.7,1.51,1.86,1.86,0,0,0,.71,1.52,3.16,3.16,0,0,0,2,.56,4.07,4.07,0,0,0,2.14-.58,3.4,3.4,0,0,0,1.41-1.8l1,2.65a5.24,5.24,0,0,1-2.21,3.19A7.72,7.72,0,0,1,339.52,124.65Zm6-.34v-3.82l-.49-.94v-7a3.31,3.31,0,0,0-1-2.63,4.85,4.85,0,0,0-3.3-.93,9.83,9.83,0,0,0-3,.48,8,8,0,0,0-2.57,1.3l-2.42-4.88a13.88,13.88,0,0,1,4.18-1.75,19.28,19.28,0,0,1,4.85-.63c3.33,0,5.91.77,7.73,2.29s2.74,3.91,2.74,7.16v11.38Z"></path><path class="cls-7" d="M362.72,125.18l-9-21.36h7.37l6.65,16.56Zm-2.8,6.8a10.91,10.91,0,0,1-3.26-.51,7.94,7.94,0,0,1-2.67-1.34l2.5-5A4.72,4.72,0,0,0,358,126a4.81,4.81,0,0,0,1.68.32,3,3,0,0,0,1.85-.53,4,4,0,0,0,1.17-1.66l.95-2.38.56-.72,7-17.2H378l-8.84,21.32a13.59,13.59,0,0,1-2.44,4.14,7.73,7.73,0,0,1-3.06,2.09A10.81,10.81,0,0,1,359.92,132Z"></path><path class="cls-7" d="M752.6,125.29h-8.05V96.82h8.05Zm11.55-11.11H752v-6.67h12.12Zm-.57-17.36h8v28.47h-8Z"></path><path class="cls-7" d="M788,125.65a13.62,13.62,0,0,1-6.42-1.46,11.16,11.16,0,0,1-4.42-4,11.7,11.7,0,0,1,0-11.81,11.14,11.14,0,0,1,4.42-4,13.86,13.86,0,0,1,6.42-1.44,14,14,0,0,1,6.45,1.44,10.74,10.74,0,0,1,6,9.91,10.86,10.86,0,0,1-6,10A13.77,13.77,0,0,1,788,125.65Zm0-6.14a4.56,4.56,0,0,0,2.38-.61,4.28,4.28,0,0,0,1.65-1.81,6.19,6.19,0,0,0,.61-2.86,6,6,0,0,0-.61-2.83,4.42,4.42,0,0,0-1.65-1.77,4.87,4.87,0,0,0-4.72,0A4.51,4.51,0,0,0,784,111.4a5.83,5.83,0,0,0-.63,2.83,6.07,6.07,0,0,0,.63,2.86,4.37,4.37,0,0,0,1.66,1.81A4.54,4.54,0,0,0,788,119.51Z"></path><path class="cls-7" d="M808.68,125.29l-7.85-22.05h7.32l6.23,18.43h-3.5l6.47-18.43h6.59l6.22,18.43h-3.42l6.43-18.43H840l-7.85,22.05h-7.48L819.34,110h2.28l-5.45,15.25Z"></path><path class="cls-7" d="M841.06,116.67v-5.94h11.87v5.94Z"></path><path class="cls-7" d="M855.45,109.83v-5.77h16v5.77Zm12.17,15.82a9.56,9.56,0,0,1-6.59-2.09c-1.58-1.4-2.36-3.5-2.36-6.32V98.32h7.73v18.83a2.5,2.5,0,0,0,.65,1.85,2.21,2.21,0,0,0,1.66.68,3.9,3.9,0,0,0,2.36-.7l1.91,5.41a6.71,6.71,0,0,1-2.4,1A14.22,14.22,0,0,1,867.62,125.65Z"></path><path class="cls-7" d="M886.37,125.65a13.64,13.64,0,0,1-6.43-1.46,11.13,11.13,0,0,1-4.41-4,11.63,11.63,0,0,1,0-11.81,11.11,11.11,0,0,1,4.41-4,15.1,15.1,0,0,1,12.87,0,10.74,10.74,0,0,1,6,9.91,11,11,0,0,1-1.59,5.91,10.87,10.87,0,0,1-4.41,4A13.73,13.73,0,0,1,886.37,125.65Zm0-6.14a4.55,4.55,0,0,0,2.37-.61,4.16,4.16,0,0,0,1.65-1.81,6.19,6.19,0,0,0,.61-2.86,6,6,0,0,0-.61-2.83,4.28,4.28,0,0,0-1.65-1.77,4.55,4.55,0,0,0-2.37-.61,4.39,4.39,0,0,0-4,2.38,5.83,5.83,0,0,0-.63,2.83,6.07,6.07,0,0,0,.63,2.86A4.39,4.39,0,0,0,884,118.9,4.49,4.49,0,0,0,886.37,119.51Z"></path><path class="cls-7" d="M902.27,116.67v-5.94h11.87v5.94Z"></path><path class="cls-7" d="M924.84,125.29l-9.23-28.47h8.29l7.77,24.65h-4.19l8.18-24.65h7.4l7.73,24.65h-4l8-24.65h7.69l-9.23,28.47h-8.62l-6.59-21h2.31l-6.87,21Z"></path><path class="cls-7" d="M969.46,100.8A4.87,4.87,0,0,1,966,99.62a3.94,3.94,0,0,1,0-5.85,4.87,4.87,0,0,1,3.42-1.18,5,5,0,0,1,3.41,1.12,3.59,3.59,0,0,1,1.3,2.86,4,4,0,0,1-1.28,3A4.81,4.81,0,0,1,969.46,100.8Zm-3.87,24.49V103.24h7.73v22.05Z"></path><path class="cls-7" d="M992.68,102.88a10.07,10.07,0,0,1,4.63,1,7.53,7.53,0,0,1,3.28,3.19,11.38,11.38,0,0,1,1.2,5.57v12.61h-7.73V113.94a5.16,5.16,0,0,0-.95-3.44,3.41,3.41,0,0,0-2.67-1.07,4.62,4.62,0,0,0-2.24.55,3.74,3.74,0,0,0-1.58,1.68,6.66,6.66,0,0,0-.57,3v10.66h-7.73V103.24h7.36v6.27l-1.42-1.83a8.43,8.43,0,0,1,3.46-3.6A10.14,10.14,0,0,1,992.68,102.88Z"></path><path class="cls-7" d="M187.05,414.94a21.81,21.81,0,0,1-7.68-1.32,17.72,17.72,0,0,1-6.11-3.77,17.31,17.31,0,0,1-4-5.76,19.13,19.13,0,0,1,0-14.61,17.31,17.31,0,0,1,4-5.76,18,18,0,0,1,6.15-3.76,24.17,24.17,0,0,1,16.63.32,16.55,16.55,0,0,1,6.44,4.74l-6.29,5.69a12.44,12.44,0,0,0-3.86-2.92,10.69,10.69,0,0,0-4.61-1,11.58,11.58,0,0,0-4.09.69,8.63,8.63,0,0,0-3.14,2,9.21,9.21,0,0,0-2,3.15,11.74,11.74,0,0,0,0,8.15,9.16,9.16,0,0,0,2,3.16,8.74,8.74,0,0,0,3.11,2.05,10.85,10.85,0,0,0,4,.72,13.14,13.14,0,0,0,4.29-.72,14.16,14.16,0,0,0,4.23-2.47l5.54,6.93a22.67,22.67,0,0,1-6.93,3.29A27.39,27.39,0,0,1,187.05,414.94Zm5.93-5.73V396h8.73V410.5Z"></path><path class="cls-7" d="M207.54,414.24v-27h9v7.88l-1.35-2.24a8.73,8.73,0,0,1,3.89-4.56,13,13,0,0,1,6.53-1.52v8.52c-.43-.06-.8-.1-1.12-.12s-.65,0-1,0a6.9,6.9,0,0,0-4.69,1.57q-1.78,1.57-1.79,5.12v12.41Z"></path><path class="cls-7" d="M242.85,414.69A16.85,16.85,0,0,1,235,412.9a13.67,13.67,0,0,1-5.41-5,13.47,13.47,0,0,1-2-7.25,13.33,13.33,0,0,1,2-7.23,13.53,13.53,0,0,1,5.41-4.91,18.47,18.47,0,0,1,15.78,0,13.15,13.15,0,0,1,7.36,12.14,13.55,13.55,0,0,1-1.95,7.25,13.41,13.41,0,0,1-5.41,5A17,17,0,0,1,242.85,414.69Zm0-7.53a5.64,5.64,0,0,0,2.92-.75,5.27,5.27,0,0,0,2-2.22,7.77,7.77,0,0,0,.74-3.51,7.51,7.51,0,0,0-.74-3.47,5.44,5.44,0,0,0-2-2.17,5.64,5.64,0,0,0-2.92-.74,5.34,5.34,0,0,0-4.91,2.91,7.15,7.15,0,0,0-.78,3.47,7.39,7.39,0,0,0,.78,3.51,5.31,5.31,0,0,0,2,2.22A5.54,5.54,0,0,0,242.85,407.16Z"></path><path class="cls-7" d="M268.18,414.24l-9.62-27h9l7.63,22.59h-4.29l7.93-22.59h8.08l7.63,22.59h-4.19l7.88-22.59h8.33l-9.63,27h-9.17l-6.49-18.7H284l-6.68,18.7Z"></path><path class="cls-7" d="M191.76,455.13v-7.08h19.6v7.08Zm14.91,19.4q-5.19,0-8.08-2.57t-2.89-7.75V441h9.48v23.09a3.14,3.14,0,0,0,.79,2.27,2.73,2.73,0,0,0,2.05.82,4.84,4.84,0,0,0,2.89-.85l2.34,6.63a8.27,8.27,0,0,1-2.94,1.18A17.28,17.28,0,0,1,206.67,474.53Z"></path><path class="cls-7" d="M234.5,446.61a12.48,12.48,0,0,1,5.68,1.27,9.22,9.22,0,0,1,4,3.91,13.86,13.86,0,0,1,1.48,6.83v15.46h-9.48V460.17A6.29,6.29,0,0,0,235,456a4.14,4.14,0,0,0-3.27-1.32,5.68,5.68,0,0,0-2.74.68,4.59,4.59,0,0,0-1.94,2.07,8.08,8.08,0,0,0-.7,3.64v13.06h-9.48v-37h9.48v17.65l-2.2-2.24a10.39,10.39,0,0,1,4.24-4.41A12.5,12.5,0,0,1,234.5,446.61Z"></path><path class="cls-7" d="M266.11,474.53a18.16,18.16,0,0,1-8.35-1.82,13.7,13.7,0,0,1-5.54-5,13.37,13.37,0,0,1-2-7.2,13.64,13.64,0,0,1,1.92-7.21,13.23,13.23,0,0,1,5.31-4.93,17.25,17.25,0,0,1,14.91-.15,12.54,12.54,0,0,1,5.24,4.76,14.18,14.18,0,0,1,1.94,7.63c0,.33,0,.71-.05,1.14s-.06.84-.1,1.2H258v-5h16.36l-3.59,1.4a6.24,6.24,0,0,0-.68-3.19,5.14,5.14,0,0,0-2-2.09,5.75,5.75,0,0,0-3-.75,5.69,5.69,0,0,0-3,.75,5,5,0,0,0-2,2.11,7,7,0,0,0-.7,3.22v1.45a6.84,6.84,0,0,0,.82,3.44,5.54,5.54,0,0,0,2.37,2.22,8.24,8.24,0,0,0,3.69.77,9.2,9.2,0,0,0,3.42-.57,10.74,10.74,0,0,0,2.81-1.77l5,5.18a12.63,12.63,0,0,1-4.79,3.27A18.24,18.24,0,0,1,266.11,474.53Z"></path><path class="cls-7" d="M182.81,534.62a21.56,21.56,0,0,1-7.65-1.32,17.73,17.73,0,0,1-6.09-3.77,17.52,17.52,0,0,1-4-5.76,19.13,19.13,0,0,1,0-14.61,17.52,17.52,0,0,1,4-5.76,17.7,17.7,0,0,1,6.09-3.76,21.56,21.56,0,0,1,7.65-1.32,21.09,21.09,0,0,1,8.65,1.69,16.61,16.61,0,0,1,6.36,4.89l-6.28,5.68a12.37,12.37,0,0,0-3.72-3,9.61,9.61,0,0,0-4.51-1.05,10.91,10.91,0,0,0-3.94.7,8.51,8.51,0,0,0-3.07,2,9.6,9.6,0,0,0-2,3.17,12,12,0,0,0,0,8.18,9.55,9.55,0,0,0,2,3.16,8.39,8.39,0,0,0,3.07,2,10.7,10.7,0,0,0,3.94.7,9.61,9.61,0,0,0,4.51-1.05,12.22,12.22,0,0,0,3.72-3l6.28,5.69a17.14,17.14,0,0,1-6.36,4.86A20.94,20.94,0,0,1,182.81,534.62Z"></path><path class="cls-7" d="M219.06,534.62a21.53,21.53,0,0,1-7.73-1.35,18.58,18.58,0,0,1-6.16-3.81,17.63,17.63,0,0,1-4.06-5.76,18.75,18.75,0,0,1,0-14.46,17.42,17.42,0,0,1,4.06-5.76,18.44,18.44,0,0,1,6.16-3.82,23.05,23.05,0,0,1,15.49,0,18.22,18.22,0,0,1,6.11,3.82,18,18,0,0,1,4.06,5.76,17.5,17.5,0,0,1,1.47,7.23,17.57,17.57,0,0,1-5.53,13,18.47,18.47,0,0,1-6.11,3.79A21.51,21.51,0,0,1,219.06,534.62Zm0-8.18a9.74,9.74,0,0,0,3.72-.7,8.6,8.6,0,0,0,3-2,9.39,9.39,0,0,0,2-3.16,11.91,11.91,0,0,0,0-8.21,9.51,9.51,0,0,0-2-3.14,8.74,8.74,0,0,0-3-2,10.21,10.21,0,0,0-7.43,0,8.55,8.55,0,0,0-3,2,9.53,9.53,0,0,0-2,3.14,12.06,12.06,0,0,0,0,8.21,9.42,9.42,0,0,0,2,3.16,8.42,8.42,0,0,0,3,2A9.65,9.65,0,0,0,219.06,526.44Z"></path><path class="cls-7" d="M243.65,533.92V499h16a20.19,20.19,0,0,1,8.26,1.55,12.13,12.13,0,0,1,5.36,4.46,12.44,12.44,0,0,1,1.89,6.91,11.56,11.56,0,0,1-7.25,11.19,20.37,20.37,0,0,1-8.26,1.53H249.13l4.39-4.14v13.41Zm9.87-12.37L249.13,517H259a6.8,6.8,0,0,0,4.62-1.35,4.74,4.74,0,0,0,1.52-3.74,4.81,4.81,0,0,0-1.52-3.79,6.8,6.8,0,0,0-4.62-1.35h-9.87l4.39-4.53Zm11.72,12.37-8.68-12.72h10.52l8.73,12.72Z"></path><path class="cls-7" d="M290.32,526.29h18.25v7.63h-28V499h27.37v7.63h-17.6Zm-.7-13.76h16.21v7.38H289.62Z"></path><path class="cls-7" d="M60.75,565.48l8.89,13.71-5.59,3.63L50.4,561.77,76,545.18l13.34,20.55-5.59,3.63-8.57-13.22Zm9.74-7.06,7.9,12.16L73,574.09l-7.89-12.17Z"></path><path class="cls-7" d="M66.71,586.37l18-1.16-3.63,3,3.42-17.32L90.87,578l-2.24,10-2.5-2.55,10.56-.91,6,6.7-17.38,1.18,3.39-3-3.44,17.76L78.78,600l2.49-10.58,2,3-10.46.88Z"></path><path class="cls-7" d="M83.85,617.45l20.44-24.7,6.22,5.15L108,601l-5,6-4.65,6.32-7.92,9.56Zm16.86,3.49a10,10,0,0,1-3.21-4.38,8.25,8.25,0,0,1,0-5.2,17.76,17.76,0,0,1,3.49-6,19,19,0,0,1,5.23-4.63,7.89,7.89,0,0,1,5-1,10.36,10.36,0,0,1,5,2.45,12.18,12.18,0,0,1,3.67,5,11.19,11.19,0,0,1,.61,6,12.64,12.64,0,0,1-2.9,6,12.88,12.88,0,0,1-5.36,4,11,11,0,0,1-6,.52A12.3,12.3,0,0,1,100.71,620.94Zm2.82-6.2a5,5,0,0,0,2.39,1.13,4.77,4.77,0,0,0,2.64-.31,7.08,7.08,0,0,0,3.88-4.7,4.79,4.79,0,0,0-.18-2.64,5.35,5.35,0,0,0-4-3.27,4.74,4.74,0,0,0-2.63.31,6.23,6.23,0,0,0-2.48,1.91,6.16,6.16,0,0,0-1.41,2.79,4.79,4.79,0,0,0,.19,2.64A5.13,5.13,0,0,0,103.53,614.74Z"></path><path class="cls-7" d="M121.68,635.91a11.22,11.22,0,0,1-3.71-3.35,7.15,7.15,0,0,1-1.28-3.82,6.81,6.81,0,0,1,1-3.71,6.38,6.38,0,0,1,2.92-2.64,7.06,7.06,0,0,1,4.26-.28,18.09,18.09,0,0,1,5.68,2.42l4.9,3-2.23,3.69-3.9-2.34a4.74,4.74,0,0,0-2.8-.93,2.13,2.13,0,0,0-1.61,1.07,2.1,2.1,0,0,0-.17,1.93,3.7,3.7,0,0,0,1.65,1.75,4.87,4.87,0,0,0,2.51.73,4,4,0,0,0,2.5-.91l-.58,3.21a6.09,6.09,0,0,1-4.13,1.8A9.28,9.28,0,0,1,121.68,635.91Zm6.32,3.35,2.27-3.77.06-1.23,4.18-6.94a3.83,3.83,0,0,0,.51-3.23,5.87,5.87,0,0,0-2.8-2.93,11.8,11.8,0,0,0-3.3-1.35,9.72,9.72,0,0,0-3.37-.28l.45-6.28a16.33,16.33,0,0,1,5.27.8,23.27,23.27,0,0,1,5.28,2.35q5.05,3,6.46,7t-1.48,8.74l-6.76,11.23Z"></path><path class="cls-7" d="M165.8,630.93a11.41,11.41,0,0,1,4.29,3,8.26,8.26,0,0,1,2,4.52,11.88,11.88,0,0,1-1.05,6l-5.13,12.49-7.85-3.22,4.62-11.24a5.34,5.34,0,0,0,.43-3.8,3.73,3.73,0,0,0-2.26-2.18,5.2,5.2,0,0,0-2.5-.39,4.09,4.09,0,0,0-2.29,1,6.9,6.9,0,0,0-1.79,2.7L150,650.37l-7.84-3.23,9-21.83,7.47,3.07-2.55,6.2-.7-2.4a9.23,9.23,0,0,1,5-2.13A11.5,11.5,0,0,1,165.8,630.93Z"></path><path class="cls-7" d="M184.38,662.35a12.29,12.29,0,0,1-5.51-2.83,11.36,11.36,0,0,1-3.23-5.1,13.88,13.88,0,0,1,3-12.64,11.15,11.15,0,0,1,5.14-3.11,12.33,12.33,0,0,1,6.19-.08,10,10,0,0,1,4.85,2.48,8.1,8.1,0,0,1,2.29,4.64,18.12,18.12,0,0,1-.47,6.92,18.9,18.9,0,0,1-2.62,6.5,7.88,7.88,0,0,1-4,3.17A10.26,10.26,0,0,1,184.38,662.35Zm3.23-6a5.15,5.15,0,0,0,2.65-.06,4.62,4.62,0,0,0,2.2-1.47,6.6,6.6,0,0,0,1.35-2.84,6.26,6.26,0,0,0,0-3.1,4.66,4.66,0,0,0-1.33-2.26,5.42,5.42,0,0,0-5-1.17,4.68,4.68,0,0,0-2.19,1.43,6.32,6.32,0,0,0-1.34,2.8,6.57,6.57,0,0,0-.05,3.14,4.68,4.68,0,0,0,1.32,2.3A5.28,5.28,0,0,0,187.61,656.35Zm3.77,7.23.92-4,1.81-7.58,1.34-7.7L198.33,632l8.26,1.93-7.35,31.47Z"></path><path class="cls-7" d="M219.27,651.1l.24-6.18,17.53.69-.24,6.18Zm2.87,16.67.92-23.32a9.06,9.06,0,0,1,2.88-6.71c1.8-1.63,4.33-2.38,7.57-2.25a15.14,15.14,0,0,1,3.07.43,8.11,8.11,0,0,1,2.5,1l-2.33,5.75a5.36,5.36,0,0,0-1.18-.55,4.73,4.73,0,0,0-1.33-.25,2.76,2.76,0,0,0-2.1.68,3.21,3.21,0,0,0-.83,2.3l-.07,1.7.09,3.44-.72,18.11Z"></path><path class="cls-7" d="M253.35,667.89a15.43,15.43,0,0,1-7.15-1,12.11,12.11,0,0,1-5.16-3.94,12.27,12.27,0,0,1-1-12.62,12.08,12.08,0,0,1,4.5-4.65,15.54,15.54,0,0,1,6.91-2.09,15.87,15.87,0,0,1,7.18,1,11.86,11.86,0,0,1,5.16,3.91,11.45,11.45,0,0,1,2.22,6.16,11.63,11.63,0,0,1-1.24,6.45,12,12,0,0,1-4.5,4.7A15.55,15.55,0,0,1,253.35,667.89Zm-.51-6.56a5.17,5.17,0,0,0,2.56-.85,4.74,4.74,0,0,0,1.65-2.07,6.6,6.6,0,0,0,.43-3.12,6.38,6.38,0,0,0-.9-3,4.61,4.61,0,0,0-1.95-1.75,5.47,5.47,0,0,0-5.17.4,4.79,4.79,0,0,0-1.67,2,6.1,6.1,0,0,0-.46,3.07,6.33,6.33,0,0,0,.93,3,4.75,4.75,0,0,0,2,1.79A5.05,5.05,0,0,0,252.84,661.33Z"></path><path class="cls-7" d="M273.11,665.16,268.37,642l7.91-1.63,1.38,6.75-1.57-1.68a7.67,7.67,0,0,1,2.61-4.61,11.94,11.94,0,0,1,5.46-2.47l1.5,7.29c-.39,0-.73.06-1,.1l-.9.16a6.24,6.24,0,0,0-3.83,2.19c-.87,1.11-1.09,2.68-.68,4.7l2.18,10.62Z"></path><path class="cls-7" d="M309.53,656.29l-12.66-27.73,6.62-3L323.87,639l-3.49,1.59,2.84-24.09,6.62-3,12.75,27.7-7.39,3.37-7.74-16.72,1.26-.57-2.16,17.93L323,646.85l-15.21-10,1.54-.7L317,652.9Z"></path><path class="cls-7" d="M364.34,626.94a19.92,19.92,0,0,1-6.27,3.16,16.57,16.57,0,0,1-6.41.58A15,15,0,0,1,341,624.47a15.09,15.09,0,0,1-2.7-5.85,15.46,15.46,0,0,1-.06-6.21,16.63,16.63,0,0,1,2.47-5.95,21,21,0,0,1,11.15-8.22,16.4,16.4,0,0,1,6.38-.56,15.76,15.76,0,0,1,5.91,1.89,15,15,0,0,1,4.81,4.3,15.18,15.18,0,0,1,2.7,5.89,15.42,15.42,0,0,1,.06,6.2,16.67,16.67,0,0,1-2.44,5.91A19.84,19.84,0,0,1,364.34,626.94Zm-4.24-5.75a9,9,0,0,0,2.32-2.47,7.84,7.84,0,0,0,1.11-3,8.35,8.35,0,0,0-.21-3.28,10.27,10.27,0,0,0-4.25-5.77,8.28,8.28,0,0,0-3.06-1.15,7.75,7.75,0,0,0-3.21.17,9,9,0,0,0-3,1.48,9.15,9.15,0,0,0-2.32,2.46,7.9,7.9,0,0,0-1.11,3,8.45,8.45,0,0,0,.19,3.27,9.52,9.52,0,0,0,1.61,3.28,9.68,9.68,0,0,0,2.64,2.49,8.31,8.31,0,0,0,3.08,1.17,7.7,7.7,0,0,0,3.2-.17A9,9,0,0,0,360.1,621.19Z"></path><path class="cls-7" d="M383.82,610.45l-22.27-20.83,9.76-10.43a18.55,18.55,0,0,1,6-4.47,10.86,10.86,0,0,1,6.13-.84,10.69,10.69,0,0,1,5.56,2.88,10.37,10.37,0,0,1,3.19,5.31,10.82,10.82,0,0,1-.48,6.12,18.87,18.87,0,0,1-4.08,6.3l-6.4,6.84,0-5.33,8.55,8ZM382,596.62l-5.58.16,6-6.45a6.2,6.2,0,0,0,2-3.82,4.65,4.65,0,0,0-4.8-4.49,6.11,6.11,0,0,0-3.68,2.21l-6,6.45-.21-5.57Zm15-.28-13.42-1.92,6.44-6.87,13.45,1.88Z"></path><path class="cls-7" d="M407.16,572.45l9-13.61,5.55,3.69-13.87,20.9-25.4-16.86L396,546.15l5.55,3.69L392.86,563Zm-10.36-6.12,8-12.09,5.37,3.57-8,12.08Z"></path><path class="cls-87" d="M588.75,451.27V442h4.17a3.26,3.26,0,0,1,2.34.8,3.21,3.21,0,0,1,0,4.35,3.26,3.26,0,0,1-2.34.81H589.8v3.3Zm1-4.28h3.05a2.32,2.32,0,0,0,1.65-.53,1.92,1.92,0,0,0,.56-1.47,1.9,1.9,0,0,0-.56-1.46,2.32,2.32,0,0,0-1.65-.53H589.8Z"></path><path class="cls-87" d="M597.32,451.27v-7h1V446a2.8,2.8,0,0,1,.21-.48,3,3,0,0,1,.47-.61,2.79,2.79,0,0,1,.78-.52,2.53,2.53,0,0,1,1.11-.22H601v1h-.12a2.12,2.12,0,0,0-1.35.43,2.7,2.7,0,0,0-.87,1.1,3.59,3.59,0,0,0-.3,1.45v3.08Z"></path><path class="cls-87" d="M605,451.39a3.5,3.5,0,0,1-1.85-.49,3.23,3.23,0,0,1-1.2-1.31,4.15,4.15,0,0,1,0-3.64,3.29,3.29,0,0,1,1.2-1.31,3.82,3.82,0,0,1,3.71,0,3.27,3.27,0,0,1,1.19,1.31,4.15,4.15,0,0,1,0,3.64,3.2,3.2,0,0,1-1.19,1.31A3.48,3.48,0,0,1,605,451.39Zm0-1a2.2,2.2,0,0,0,2.14-1.33,3.11,3.11,0,0,0,.28-1.33,3.08,3.08,0,0,0-.28-1.33,2.3,2.3,0,0,0-.81-1,2.38,2.38,0,0,0-3.47,1,3.08,3.08,0,0,0-.28,1.33,3.11,3.11,0,0,0,.28,1.33,2.25,2.25,0,0,0,2.14,1.33Z"></path><path class="cls-87" d="M612.81,451.39a3.22,3.22,0,0,1-3-1.8,4.15,4.15,0,0,1,0-3.64,3.32,3.32,0,0,1,1.18-1.31,3.27,3.27,0,0,1,1.78-.48,3.08,3.08,0,0,1,1.5.34,2.76,2.76,0,0,1,1,.91v-3.94h1v9.8h-1v-1.12a2.92,2.92,0,0,1-1,.9A3.19,3.19,0,0,1,612.81,451.39Zm.14-1a2.22,2.22,0,0,0,2.15-1.33,3.27,3.27,0,0,0,.28-1.33,3.23,3.23,0,0,0-.28-1.33,2.32,2.32,0,0,0-.82-1,2.27,2.27,0,0,0-1.33-.37,2.35,2.35,0,0,0-1.33.37,2.39,2.39,0,0,0-.85,1,3.19,3.19,0,0,0,0,2.66,2.31,2.31,0,0,0,2.18,1.33Z"></path><path class="cls-87" d="M620.92,451.39a2.84,2.84,0,0,1-1.36-.35,2.61,2.61,0,0,1-1-1,3.2,3.2,0,0,1-.4-1.67v-4.08h1v4.05a2.13,2.13,0,0,0,.55,1.53,1.86,1.86,0,0,0,1.41.58,2.09,2.09,0,0,0,1.06-.27,2.05,2.05,0,0,0,.77-.75,2.13,2.13,0,0,0,.28-1.11v-4h1v7h-1v-1.09a3.39,3.39,0,0,1-.92.85A2.49,2.49,0,0,1,620.92,451.39Z"></path><path class="cls-87" d="M629.12,451.39a3.39,3.39,0,0,1-1.82-.49,3.27,3.27,0,0,1-1.19-1.31,4.07,4.07,0,0,1,0-3.64,3.34,3.34,0,0,1,1.19-1.31,3.39,3.39,0,0,1,1.82-.48,3.58,3.58,0,0,1,2.13.64,3.21,3.21,0,0,1,1.18,1.67h-1.14a2.1,2.1,0,0,0-.76-1,2.12,2.12,0,0,0-1.27-.38,2.44,2.44,0,0,0-2.22,1.33,2.83,2.83,0,0,0-.31,1.33,2.86,2.86,0,0,0,.31,1.33,2.42,2.42,0,0,0,.88,1,2.46,2.46,0,0,0,1.34.36,2.1,2.1,0,0,0,2-1.36h1.14a3.17,3.17,0,0,1-1.18,1.67A3.52,3.52,0,0,1,629.12,451.39Z"></path><path class="cls-87" d="M634.49,451.27V445.2h-1.43v-.93h1.43v-2.5h1v2.5h1.61v.93h-1.61v6.07Z"></path><path class="cls-87" d="M559.13,468.18a5.61,5.61,0,0,1-2.23-.37,2.72,2.72,0,0,1-1.28-1,3.11,3.11,0,0,1-.5-1.48h1.09a1.67,1.67,0,0,0,.45,1.09,2.48,2.48,0,0,0,1.07.6,4.89,4.89,0,0,0,1.47.2,3.66,3.66,0,0,0,1.86-.41,1.36,1.36,0,0,0,.68-1.23,1,1,0,0,0-.34-.79,2.89,2.89,0,0,0-.91-.5,11.55,11.55,0,0,0-1.24-.35c-.45-.11-.9-.22-1.35-.35a6.59,6.59,0,0,1-1.25-.46,2.51,2.51,0,0,1-.91-.72,1.83,1.83,0,0,1-.34-1.13,2.25,2.25,0,0,1,.88-1.84,4,4,0,0,1,2.61-.72,4.94,4.94,0,0,1,2,.37,2.8,2.8,0,0,1,1.19,1,2.57,2.57,0,0,1,.45,1.3h-1.08a1.73,1.73,0,0,0-.7-1.18,3,3,0,0,0-1.89-.49,4.12,4.12,0,0,0-1.28.16,1.9,1.9,0,0,0-.75.4,1.37,1.37,0,0,0-.35.51,1.51,1.51,0,0,0-.09.5.93.93,0,0,0,.35.75,2.77,2.77,0,0,0,.91.48c.37.12.79.24,1.25.34s.91.22,1.36.34a7.07,7.07,0,0,1,1.25.48,2.56,2.56,0,0,1,.91.73,1.83,1.83,0,0,1,.34,1.15,2.26,2.26,0,0,1-1,2A4.58,4.58,0,0,1,559.13,468.18Z"></path><path class="cls-87" d="M566.92,468.18a2.79,2.79,0,0,1-1.35-.34,2.7,2.7,0,0,1-1.05-1,3.3,3.3,0,0,1-.4-1.67v-4.08h1v4.05a2.13,2.13,0,0,0,.56,1.53,1.82,1.82,0,0,0,1.4.58,2.13,2.13,0,0,0,1.07-.27,2.1,2.1,0,0,0,.76-.75,2.14,2.14,0,0,0,.29-1.11v-4h1v7h-1V467a3.29,3.29,0,0,1-.93.85A2.49,2.49,0,0,1,566.92,468.18Z"></path><path class="cls-87" d="M572.12,470.85v-9.78h1v1.12a2.82,2.82,0,0,1,1-.9,3.15,3.15,0,0,1,1.49-.33,3.19,3.19,0,0,1,3,1.79,4.15,4.15,0,0,1,0,3.64,3.25,3.25,0,0,1-1.18,1.31,3.3,3.3,0,0,1-1.79.48,2.89,2.89,0,0,1-2.5-1.24v3.91Zm3.41-3.62a2.39,2.39,0,0,0,1.34-.36,2.42,2.42,0,0,0,.85-1,3.12,3.12,0,0,0,.29-1.33,3.08,3.08,0,0,0-.29-1.33,2.39,2.39,0,0,0-.85-1,2.32,2.32,0,0,0-1.34-.37,2.24,2.24,0,0,0-1.31.37,2.27,2.27,0,0,0-.83,1,3.08,3.08,0,0,0-.28,1.33,3.11,3.11,0,0,0,.28,1.33,2.25,2.25,0,0,0,2.14,1.33Z"></path><path class="cls-87" d="M580.45,470.85v-9.78h1v1.12a2.82,2.82,0,0,1,1-.9A3.15,3.15,0,0,1,584,461a3.19,3.19,0,0,1,3,1.79,4.15,4.15,0,0,1,0,3.64,3.25,3.25,0,0,1-1.18,1.31,3.3,3.3,0,0,1-1.79.48,2.89,2.89,0,0,1-2.5-1.24v3.91Zm3.41-3.62a2.39,2.39,0,0,0,1.34-.36,2.42,2.42,0,0,0,.85-1,3.12,3.12,0,0,0,.29-1.33,3.08,3.08,0,0,0-.29-1.33,2.39,2.39,0,0,0-.85-1,2.32,2.32,0,0,0-1.34-.37,2.24,2.24,0,0,0-1.31.37,2.27,2.27,0,0,0-.83,1,3.08,3.08,0,0,0-.28,1.33,3.11,3.11,0,0,0,.28,1.33,2.25,2.25,0,0,0,2.14,1.33Z"></path><path class="cls-87" d="M588.78,468.07v-9.8h1.05v9.8Z"></path><path class="cls-87" d="M592.37,470.85l1.28-2.88-2.86-6.9H592l2.26,5.74,2.29-5.74h1.15l-4.14,9.78Z"></path><path class="cls-87" d="M605.7,468.18a4.42,4.42,0,0,1-2.39-.63,4.29,4.29,0,0,1-1.55-1.72,5.58,5.58,0,0,1,0-4.79,4.26,4.26,0,0,1,1.55-1.71,4.33,4.33,0,0,1,2.39-.64,4.75,4.75,0,0,1,1.89.37,4.24,4.24,0,0,1,1.43,1,4.19,4.19,0,0,1,.88,1.5h-1.1a3,3,0,0,0-1.11-1.36,3.32,3.32,0,0,0-1.9-.51,3.5,3.5,0,0,0-1.91.5,3.17,3.17,0,0,0-1.2,1.34,4.54,4.54,0,0,0,0,3.77,3.2,3.2,0,0,0,1.2,1.35,3.5,3.5,0,0,0,1.91.49,3.4,3.4,0,0,0,1.9-.5,3,3,0,0,0,1.11-1.36h1.1a4.23,4.23,0,0,1-.88,1.49,4,4,0,0,1-1.43,1A4.59,4.59,0,0,1,605.7,468.18Z"></path><path class="cls-87" d="M611.25,468.07v-9.8h1v3.89a3.56,3.56,0,0,1,.92-.85,2.57,2.57,0,0,1,1.4-.35,2.84,2.84,0,0,1,1.37.34,2.61,2.61,0,0,1,1,1,3.2,3.2,0,0,1,.4,1.67v4.07h-1v-4a2.14,2.14,0,0,0-.55-1.54,1.86,1.86,0,0,0-1.41-.58,2.09,2.09,0,0,0-1.06.27,2.05,2.05,0,0,0-.77.75,2.13,2.13,0,0,0-.28,1.11v4Z"></path><path class="cls-87" d="M622.12,468.18a3.18,3.18,0,0,1-3-1.79,4.15,4.15,0,0,1,0-3.64,3.32,3.32,0,0,1,1.18-1.31,3.27,3.27,0,0,1,1.78-.48,3.08,3.08,0,0,1,1.5.34,2.76,2.76,0,0,1,1,.91v-1.14h1v7h-1V467a2.92,2.92,0,0,1-1,.9A3.19,3.19,0,0,1,622.12,468.18Zm.14-.95a2.22,2.22,0,0,0,2.15-1.33,3.27,3.27,0,0,0,.28-1.33,3.23,3.23,0,0,0-.28-1.33,2.32,2.32,0,0,0-.82-1,2.27,2.27,0,0,0-1.33-.37,2.35,2.35,0,0,0-1.33.37,2.39,2.39,0,0,0-.85,1,3.19,3.19,0,0,0,0,2.66,2.31,2.31,0,0,0,2.18,1.33Z"></path><path class="cls-87" d="M627.46,459.9v-1.38h1.13v1.38Zm0,8.17v-7h1v7Z"></path><path class="cls-87" d="M630.37,468.07v-7h1v1.09a3.56,3.56,0,0,1,.92-.85,2.59,2.59,0,0,1,1.4-.35,2.84,2.84,0,0,1,1.37.34,2.61,2.61,0,0,1,1,1,3.2,3.2,0,0,1,.4,1.67v4.07h-1v-4a2.18,2.18,0,0,0-.54-1.54,1.9,1.9,0,0,0-1.42-.58,2.12,2.12,0,0,0-1.06.27,2,2,0,0,0-.76.75,2.14,2.14,0,0,0-.29,1.11v4Z"></path><path class="cls-87" d="M545.59,484.87V476.6h-3.24v-1h7.52v1h-3.23v8.27Z"></path><path class="cls-87" d="M550,484.87v-7h1.05v1.72a2.18,2.18,0,0,1,.21-.48,3,3,0,0,1,.47-.61,2.79,2.79,0,0,1,.78-.52,2.53,2.53,0,0,1,1.11-.22h.07v1.05h-.12a2.17,2.17,0,0,0-1.36.43,2.77,2.77,0,0,0-.86,1.1,3.59,3.59,0,0,0-.3,1.45v3.08Z"></path><path class="cls-87" d="M557.63,485a3.3,3.3,0,0,1-1.79-.48,3.25,3.25,0,0,1-1.18-1.31,4.15,4.15,0,0,1,0-3.64,3.19,3.19,0,0,1,3-1.79,3,3,0,0,1,1.49.34,2.76,2.76,0,0,1,1,.91v-1.14h1v7h-1v-1.12a2.92,2.92,0,0,1-1,.9A3.15,3.15,0,0,1,557.63,485Zm.14-1a2.33,2.33,0,0,0,1.32-.36,2.35,2.35,0,0,0,.82-1,3.11,3.11,0,0,0,.28-1.33,3.08,3.08,0,0,0-.28-1.33,2.32,2.32,0,0,0-.82-1,2.25,2.25,0,0,0-1.32-.37,2.31,2.31,0,0,0-1.33.37,2.34,2.34,0,0,0-.86,1,3.08,3.08,0,0,0-.29,1.33,3.12,3.12,0,0,0,.29,1.33,2.33,2.33,0,0,0,2.19,1.33Z"></path><path class="cls-87" d="M563,484.87v-7h1V479a3.45,3.45,0,0,1,.93-.85,2.57,2.57,0,0,1,1.4-.35,2.8,2.8,0,0,1,1.36.34,2.64,2.64,0,0,1,1,1,3.3,3.3,0,0,1,.4,1.67v4.07h-1v-4a2.14,2.14,0,0,0-.55-1.54,1.86,1.86,0,0,0-1.41-.58,2.13,2.13,0,0,0-1.07.27,2.1,2.1,0,0,0-.76.75,2.14,2.14,0,0,0-.29,1.11v4Z"></path><path class="cls-87" d="M573.47,485a3.68,3.68,0,0,1-1.63-.32,2.42,2.42,0,0,1-1-.84,2.26,2.26,0,0,1-.39-1.15h1.09a1.74,1.74,0,0,0,.24.68,1.54,1.54,0,0,0,.63.54,2.59,2.59,0,0,0,1.09.2c.14,0,.31,0,.52,0a2.46,2.46,0,0,0,.59-.16,1.25,1.25,0,0,0,.49-.33.85.85,0,0,0,.19-.58.76.76,0,0,0-.34-.67,2.53,2.53,0,0,0-.86-.37c-.36-.09-.73-.18-1.13-.26a6.73,6.73,0,0,1-1.13-.33,2.31,2.31,0,0,1-.87-.57,1.49,1.49,0,0,1-.33-1,1.74,1.74,0,0,1,.69-1.47,3.37,3.37,0,0,1,2.05-.53,3.44,3.44,0,0,1,1.51.29,2.11,2.11,0,0,1,1.24,1.7H575a1.12,1.12,0,0,0-.44-.77,1.93,1.93,0,0,0-1.26-.32c-1.12,0-1.67.33-1.67,1a.74.74,0,0,0,.33.65,2.92,2.92,0,0,0,.87.36l1.13.25a6.73,6.73,0,0,1,1.13.33,2.24,2.24,0,0,1,.86.59,1.52,1.52,0,0,1,.34,1,1.79,1.79,0,0,1-.78,1.57A3.64,3.64,0,0,1,573.47,485Z"></path><path class="cls-87" d="M578.15,484.87V478.8H577v-.93h1.2v-.61a2.13,2.13,0,0,1,.69-1.73,2.93,2.93,0,0,1,1.9-.57h.09v1h-.15a1.62,1.62,0,0,0-1.1.33,1.34,1.34,0,0,0-.38,1.06v.53h1.63v.93H579.2v6.07Z"></path><path class="cls-87" d="M584.87,485a3.49,3.49,0,0,1-1.85-.48,3.23,3.23,0,0,1-1.2-1.31,4.15,4.15,0,0,1,0-3.64,3.29,3.29,0,0,1,1.2-1.31,3.82,3.82,0,0,1,3.71,0,3.34,3.34,0,0,1,1.19,1.31,4.15,4.15,0,0,1,0,3.64,3.27,3.27,0,0,1-1.19,1.31A3.48,3.48,0,0,1,584.87,485Zm0-1a2.33,2.33,0,0,0,1.32-.36,2.28,2.28,0,0,0,.82-1,3.11,3.11,0,0,0,.28-1.33A3.08,3.08,0,0,0,587,480a2.26,2.26,0,0,0-2.14-1.33,2.3,2.3,0,0,0-1.32.37,2.32,2.32,0,0,0-.82,1,3.08,3.08,0,0,0-.28,1.33,3.11,3.11,0,0,0,.28,1.33,2.22,2.22,0,0,0,2.14,1.33Z"></path><path class="cls-87" d="M589.73,484.87v-7h1v1.72a3,3,0,0,1,.22-.48,2.64,2.64,0,0,1,.46-.61,2.79,2.79,0,0,1,.78-.52,2.56,2.56,0,0,1,1.11-.22h.07v1.05h-.12a2.16,2.16,0,0,0-1.35.43,2.7,2.7,0,0,0-.87,1.1,3.59,3.59,0,0,0-.3,1.45v3.08Z"></path><path class="cls-87" d="M594.56,484.87v-7h1.05v1.07a2.66,2.66,0,0,1,.75-.8,2.32,2.32,0,0,1,1.38-.38,2.39,2.39,0,0,1,1.29.37,2.54,2.54,0,0,1,.93,1,4.69,4.69,0,0,1,.44-.57,2.91,2.91,0,0,1,.79-.59,2.54,2.54,0,0,1,1.18-.25,2.44,2.44,0,0,1,1.26.35,2.72,2.72,0,0,1,1,1,3,3,0,0,1,.37,1.53v4.23h-1.05v-4.2a2,2,0,0,0-.5-1.42,1.61,1.61,0,0,0-1.24-.54,1.94,1.94,0,0,0-1.33.52,1.91,1.91,0,0,0-.56,1.46v4.18h-1v-4.2a2,2,0,0,0-.49-1.42,1.62,1.62,0,0,0-1.24-.54,1.92,1.92,0,0,0-1.33.52,1.87,1.87,0,0,0-.56,1.46v4.18Z"></path><path class="cls-87" d="M609.66,485a3.18,3.18,0,0,1-3-1.79,4.15,4.15,0,0,1,0-3.64,3.32,3.32,0,0,1,1.18-1.31,3.27,3.27,0,0,1,1.78-.48,3.08,3.08,0,0,1,1.5.34,2.76,2.76,0,0,1,1,.91v-1.14h1.05v7h-1.05v-1.12a2.92,2.92,0,0,1-1,.9A3.19,3.19,0,0,1,609.66,485Zm.14-1A2.22,2.22,0,0,0,612,482.7a3.27,3.27,0,0,0,.28-1.33A3.23,3.23,0,0,0,612,480a2.32,2.32,0,0,0-.82-1,2.27,2.27,0,0,0-1.33-.37,2.35,2.35,0,0,0-1.33.37,2.39,2.39,0,0,0-.85,1,3.19,3.19,0,0,0,0,2.66A2.31,2.31,0,0,0,609.8,484Z"></path><path class="cls-87" d="M615.8,484.87V478.8h-1.43v-.93h1.43v-2.5h1.05v2.5h1.61v.93h-1.61v6.07Z"></path><path class="cls-87" d="M619.56,476.7v-1.38h1.14v1.38Zm0,8.17v-7h1v7Z"></path><path class="cls-87" d="M625.51,485a3.49,3.49,0,0,1-1.85-.48,3.23,3.23,0,0,1-1.2-1.31,4.15,4.15,0,0,1,0-3.64,3.29,3.29,0,0,1,1.2-1.31,3.82,3.82,0,0,1,3.71,0,3.27,3.27,0,0,1,1.19,1.31,4.15,4.15,0,0,1,0,3.64,3.2,3.2,0,0,1-1.19,1.31A3.48,3.48,0,0,1,625.51,485Zm0-1a2.36,2.36,0,0,0,1.33-.36,2.33,2.33,0,0,0,.81-1,3.11,3.11,0,0,0,.28-1.33,3.08,3.08,0,0,0-.28-1.33,2.24,2.24,0,0,0-2.14-1.33,2.24,2.24,0,0,0-1.31.37,2.27,2.27,0,0,0-.83,1,3.08,3.08,0,0,0-.28,1.33,3.11,3.11,0,0,0,.28,1.33,2.25,2.25,0,0,0,2.14,1.33Z"></path><path class="cls-87" d="M630.37,484.87v-7h1V479a3.56,3.56,0,0,1,.92-.85,2.59,2.59,0,0,1,1.4-.35,2.84,2.84,0,0,1,1.37.34,2.61,2.61,0,0,1,1,1,3.2,3.2,0,0,1,.4,1.67v4.07h-1v-4a2.18,2.18,0,0,0-.54-1.54,1.9,1.9,0,0,0-1.42-.58,2.12,2.12,0,0,0-1.06.27,2,2,0,0,0-.76.75,2.14,2.14,0,0,0-.29,1.11v4Z"></path><path class="cls-87" d="M1112.07,451.27V442h4.17a3.26,3.26,0,0,1,2.34.8,3.21,3.21,0,0,1,0,4.35,3.26,3.26,0,0,1-2.34.81h-3.12v3.3Zm1-4.28h3.05a2.32,2.32,0,0,0,1.65-.53,2,2,0,0,0,.56-1.47,1.94,1.94,0,0,0-.56-1.46,2.32,2.32,0,0,0-1.65-.53h-3.05Z"></path><path class="cls-87" d="M1123.74,451.39a3.53,3.53,0,0,1-1.86-.49,3.4,3.4,0,0,1-1.24-1.31,3.83,3.83,0,0,1-.44-1.82,3.9,3.9,0,0,1,.42-1.82,3.29,3.29,0,0,1,1.2-1.31,3.82,3.82,0,0,1,3.71,0,3.27,3.27,0,0,1,1.19,1.31,3.9,3.9,0,0,1,.42,1.82v.42h-5.86a2.78,2.78,0,0,0,.4,1.13,2.33,2.33,0,0,0,.84.81,2.5,2.5,0,0,0,1.24.3,2.2,2.2,0,0,0,1.24-.33,2.35,2.35,0,0,0,.79-.84h1.14a3.42,3.42,0,0,1-1.15,1.53A3.29,3.29,0,0,1,1123.74,451.39Zm-2.45-4.18h4.76a2.57,2.57,0,0,0-.75-1.49,2.21,2.21,0,0,0-1.63-.61,2.15,2.15,0,0,0-1.61.61A2.72,2.72,0,0,0,1121.29,447.21Z"></path><path class="cls-87" d="M1131.47,451.39a3.5,3.5,0,0,1-1.85-.49,3.23,3.23,0,0,1-1.2-1.31,4.15,4.15,0,0,1,0-3.64,3.29,3.29,0,0,1,1.2-1.31,3.82,3.82,0,0,1,3.71,0,3.34,3.34,0,0,1,1.19,1.31,4.15,4.15,0,0,1,0,3.64,3.27,3.27,0,0,1-1.19,1.31A3.48,3.48,0,0,1,1131.47,451.39Zm0-1a2.33,2.33,0,0,0,1.32-.36,2.28,2.28,0,0,0,.82-1,3.11,3.11,0,0,0,.28-1.33,3.08,3.08,0,0,0-.28-1.33,2.26,2.26,0,0,0-2.14-1.33,2.3,2.3,0,0,0-1.32.37,2.32,2.32,0,0,0-.82,1,3.08,3.08,0,0,0-.28,1.33,3.11,3.11,0,0,0,.28,1.33,2.22,2.22,0,0,0,2.14,1.33Z"></path><path class="cls-87" d="M1136.33,454.05v-9.78h1.05v1.12a2.82,2.82,0,0,1,1-.9,3.18,3.18,0,0,1,1.49-.33,3.28,3.28,0,0,1,1.79.48,3.32,3.32,0,0,1,1.18,1.31,4.15,4.15,0,0,1,0,3.64,3.25,3.25,0,0,1-1.18,1.31,3.29,3.29,0,0,1-1.79.49,3.07,3.07,0,0,1-1.49-.35,3,3,0,0,1-1-.9v3.91Zm3.41-3.62a2.39,2.39,0,0,0,1.34-.36,2.42,2.42,0,0,0,.85-1,3.12,3.12,0,0,0,.29-1.33,3.08,3.08,0,0,0-.29-1.33,2.39,2.39,0,0,0-.85-1,2.32,2.32,0,0,0-1.34-.37,2.24,2.24,0,0,0-1.31.37,2.27,2.27,0,0,0-.83,1,3.23,3.23,0,0,0-.28,1.33,3.27,3.27,0,0,0,.28,1.33,2.25,2.25,0,0,0,2.14,1.33Z"></path><path class="cls-87" d="M1144.66,451.27v-9.8h1v9.8Z"></path><path class="cls-87" d="M1150.64,451.39a3.59,3.59,0,0,1-1.87-.49,3.4,3.4,0,0,1-1.24-1.31,3.83,3.83,0,0,1-.44-1.82,3.9,3.9,0,0,1,.42-1.82,3.32,3.32,0,0,1,1.21-1.31,3.81,3.81,0,0,1,3.7,0,3.29,3.29,0,0,1,1.2,1.31,3.9,3.9,0,0,1,.42,1.82v.42h-5.87a2.94,2.94,0,0,0,.4,1.13,2.28,2.28,0,0,0,.85.81,2.44,2.44,0,0,0,1.23.3,2.26,2.26,0,0,0,1.25-.33,2.41,2.41,0,0,0,.78-.84h1.15a3.44,3.44,0,0,1-1.16,1.53A3.24,3.24,0,0,1,1150.64,451.39Zm-2.45-4.18H1153a2.64,2.64,0,0,0-.76-1.49,2.19,2.19,0,0,0-1.62-.61,2.16,2.16,0,0,0-1.62.61A2.64,2.64,0,0,0,1148.19,447.21Z"></path><path class="cls-87" d="M1114.7,468.18a3.61,3.61,0,0,1-1.61-.35,2.92,2.92,0,0,1-1.19-1,2.4,2.4,0,0,1-.45-1.45,2.14,2.14,0,0,1,.45-1.33,2.78,2.78,0,0,1,1.26-.91,1.74,1.74,0,0,1-.64-.38,2.3,2.3,0,0,1-.54-.69,1.81,1.81,0,0,1-.22-.87,2.38,2.38,0,0,1,.78-1.81,3.31,3.31,0,0,1,2.3-.73,3.76,3.76,0,0,1,1.57.29,2.36,2.36,0,0,1,1.37,1.64h-1.11a1.27,1.27,0,0,0-.56-.65,2.25,2.25,0,0,0-1.3-.33,2.13,2.13,0,0,0-1.52.47,1.54,1.54,0,0,0-.48,1.13,1.32,1.32,0,0,0,.54,1.16,2.22,2.22,0,0,0,1.28.38h2.25v-.62h1v.62h.91v.94h-.91v1.78a2.49,2.49,0,0,1-.84,1.94A3.4,3.4,0,0,1,1114.7,468.18Zm0-.93a2.3,2.3,0,0,0,1.64-.51,1.58,1.58,0,0,0,.54-1.16v-1.86h-2.38a2.19,2.19,0,0,0-1,.24,1.87,1.87,0,0,0-.71.62,1.52,1.52,0,0,0-.25.86,1.6,1.6,0,0,0,.27.89,2,2,0,0,0,.77.66A2.51,2.51,0,0,0,1114.7,467.25Z"></path><path class="cls-87" d="M1123.17,468.07V458.8h4.17a3.26,3.26,0,0,1,2.34.81,3.21,3.21,0,0,1,0,4.35,3.26,3.26,0,0,1-2.34.81h-3.12v3.3Zm1-4.28h3a2.32,2.32,0,0,0,1.65-.53,1.92,1.92,0,0,0,.56-1.47,1.9,1.9,0,0,0-.56-1.46,2.32,2.32,0,0,0-1.65-.53h-3Z"></path><path class="cls-87" d="M1131.74,468.07v-9.8h1v9.8Z"></path><path class="cls-87" d="M1137.56,468.18a3.21,3.21,0,0,1-3-1.79,4.15,4.15,0,0,1,0-3.64,3.34,3.34,0,0,1,1.19-1.31,3.25,3.25,0,0,1,1.78-.48,3,3,0,0,1,1.49.34,2.79,2.79,0,0,1,1,.91v-1.14h1v7h-1V467a3,3,0,0,1-1,.9A3.12,3.12,0,0,1,1137.56,468.18Zm.14-.95a2.33,2.33,0,0,0,1.32-.36,2.28,2.28,0,0,0,.82-1,3.11,3.11,0,0,0,.28-1.33,3.08,3.08,0,0,0-.28-1.33,2.26,2.26,0,0,0-2.14-1.33,2.35,2.35,0,0,0-2.18,1.33,3,3,0,0,0-.3,1.33,3,3,0,0,0,.3,1.33,2.35,2.35,0,0,0,.85,1A2.41,2.41,0,0,0,1137.7,467.23Z"></path><path class="cls-87" d="M1142.94,468.07v-7h1v1.09a3.56,3.56,0,0,1,.92-.85,2.57,2.57,0,0,1,1.4-.35,2.84,2.84,0,0,1,1.37.34,2.68,2.68,0,0,1,1,1,3.2,3.2,0,0,1,.4,1.67v4.07h-1v-4a2.14,2.14,0,0,0-.55-1.54,1.86,1.86,0,0,0-1.41-.58,2.09,2.09,0,0,0-1.06.27,2.05,2.05,0,0,0-.77.75A2.13,2.13,0,0,0,1144,464v4Z"></path><path class="cls-87" d="M1154,468.18a3.53,3.53,0,0,1-1.86-.48,3.26,3.26,0,0,1-1.24-1.31,3.71,3.71,0,0,1-.44-1.82,3.9,3.9,0,0,1,.42-1.82,3.29,3.29,0,0,1,1.2-1.31,3.81,3.81,0,0,1,3.7,0,3.29,3.29,0,0,1,1.2,1.31,3.9,3.9,0,0,1,.42,1.82V465h-5.87a2.94,2.94,0,0,0,.4,1.13,2.28,2.28,0,0,0,.85.81,2.44,2.44,0,0,0,1.23.3,2.24,2.24,0,0,0,1.25-.33,2.41,2.41,0,0,0,.78-.84h1.15a3.5,3.5,0,0,1-1.15,1.53A3.29,3.29,0,0,1,1154,468.18Zm-2.45-4.17h4.76a2.7,2.7,0,0,0-.76-1.5,2.49,2.49,0,0,0-3.24,0A2.7,2.7,0,0,0,1151.52,464Z"></path><path class="cls-87" d="M1159.41,468.07V462H1158v-.93h1.42v-2.5h1v2.5h1.61V462h-1.61v6.07Z"></path><path class="cls-87" d="M1166.43,468.07V458.8h6.69v1h-5.64V463h5v1h-5v4Z"></path><path class="cls-87" d="M1174,468.07v-7h1v1.72a2.8,2.8,0,0,1,.21-.48,3,3,0,0,1,.47-.61,2.79,2.79,0,0,1,.78-.52,2.53,2.53,0,0,1,1.11-.22h.07V462h-.12a2.17,2.17,0,0,0-1.36.43,2.77,2.77,0,0,0-.86,1.1,3.59,3.59,0,0,0-.3,1.45v3.08Z"></path><path class="cls-87" d="M1178.8,459.9v-1.38h1.14v1.38Zm0,8.17v-7h1.05v7Z"></path><path class="cls-87" d="M1184.82,468.18a3.53,3.53,0,0,1-1.86-.48,3.4,3.4,0,0,1-1.24-1.31,3.83,3.83,0,0,1-.44-1.82,3.9,3.9,0,0,1,.42-1.82,3.25,3.25,0,0,1,1.21-1.31,3.43,3.43,0,0,1,1.84-.48,3.48,3.48,0,0,1,1.86.48,3.2,3.2,0,0,1,1.19,1.31,3.9,3.9,0,0,1,.42,1.82V465h-5.86a2.78,2.78,0,0,0,.4,1.13,2.33,2.33,0,0,0,.84.81,2.5,2.5,0,0,0,1.24.3,2.2,2.2,0,0,0,1.24-.33,2.35,2.35,0,0,0,.79-.84H1188a3.42,3.42,0,0,1-1.15,1.53A3.29,3.29,0,0,1,1184.82,468.18Zm-2.45-4.17h4.76a2.63,2.63,0,0,0-.75-1.5,2.23,2.23,0,0,0-1.63-.6,2.18,2.18,0,0,0-1.61.6A2.78,2.78,0,0,0,1182.37,464Z"></path><path class="cls-87" d="M1189.51,468.07v-7h1v1.09a3.45,3.45,0,0,1,.93-.85,2.57,2.57,0,0,1,1.4-.35,2.8,2.8,0,0,1,1.36.34,2.64,2.64,0,0,1,1,1,3.3,3.3,0,0,1,.4,1.67v4.07h-1v-4a2.18,2.18,0,0,0-.55-1.54,1.86,1.86,0,0,0-1.41-.58,2.13,2.13,0,0,0-1.07.27,2.1,2.1,0,0,0-.76.75,2.14,2.14,0,0,0-.29,1.11v4Z"></path><path class="cls-87" d="M1200.39,468.18a3.21,3.21,0,0,1-3-1.79,4.15,4.15,0,0,1,0-3.64,3.34,3.34,0,0,1,1.19-1.31,3.25,3.25,0,0,1,1.78-.48,3,3,0,0,1,1.49.34,2.71,2.71,0,0,1,1,.91v-3.94h1v9.8h-1V467a2.87,2.87,0,0,1-1,.9A3.12,3.12,0,0,1,1200.39,468.18Zm.14-.95a2.33,2.33,0,0,0,1.32-.36,2.28,2.28,0,0,0,.82-1,3.11,3.11,0,0,0,.28-1.33,3.08,3.08,0,0,0-.28-1.33,2.26,2.26,0,0,0-2.14-1.33,2.35,2.35,0,0,0-2.18,1.33,3,3,0,0,0-.3,1.33,3,3,0,0,0,.3,1.33,2.35,2.35,0,0,0,.85,1A2.41,2.41,0,0,0,1200.53,467.23Z"></path><path class="cls-87" d="M1205.77,468.07v-9.8h1v9.8Z"></path><path class="cls-87" d="M1209.36,470.85l1.28-2.88-2.86-6.9h1.16l2.26,5.74,2.29-5.74h1.15l-4.14,9.78Z"></path><path class="cls-87" d="M1116,485a4.45,4.45,0,0,1-2.4-.63,4.27,4.27,0,0,1-1.54-1.72,5.58,5.58,0,0,1,0-4.79,4.24,4.24,0,0,1,1.54-1.71,4.37,4.37,0,0,1,2.4-.64,4.75,4.75,0,0,1,1.89.37,4.19,4.19,0,0,1,2.31,2.52h-1.11A2.89,2.89,0,0,0,1118,477a3.36,3.36,0,0,0-1.91-.51,3.55,3.55,0,0,0-1.91.5,3.24,3.24,0,0,0-1.2,1.34,4.64,4.64,0,0,0,0,3.77,3.27,3.27,0,0,0,1.2,1.35,3.55,3.55,0,0,0,1.91.49,3.43,3.43,0,0,0,1.91-.5,2.94,2.94,0,0,0,1.1-1.36h1.11a4.39,4.39,0,0,1-.88,1.49,4.07,4.07,0,0,1-1.43,1A4.59,4.59,0,0,1,1116,485Z"></path><path class="cls-87" d="M1124.23,485a2.86,2.86,0,0,1-1.36-.34,2.75,2.75,0,0,1-1-1,3.3,3.3,0,0,1-.4-1.67v-4.08h1v4.05a2.13,2.13,0,0,0,.56,1.53,1.82,1.82,0,0,0,1.4.58,2.15,2.15,0,0,0,1.07-.27,2.1,2.1,0,0,0,.76-.75,2.14,2.14,0,0,0,.29-1.11v-4h1v7h-1v-1.09a3.43,3.43,0,0,1-.93.85A2.49,2.49,0,0,1,1124.23,485Z"></path><path class="cls-87" d="M1129.43,484.87v-9.8h1v9.8Z"></path><path class="cls-87" d="M1133.05,484.87V478.8h-1.43v-.93h1.43v-2.5h1v2.5h1.61v.93h-1.61v6.07Z"></path><path class="cls-87" d="M1139.59,485a2.83,2.83,0,0,1-1.36-.34,2.61,2.61,0,0,1-1-1,3.2,3.2,0,0,1-.4-1.67v-4.08h1v4.05a2.13,2.13,0,0,0,.55,1.53,1.86,1.86,0,0,0,1.41.58,2.09,2.09,0,0,0,1.06-.27,2.05,2.05,0,0,0,.77-.75,2.13,2.13,0,0,0,.28-1.11v-4h1v7h-1v-1.09a3.39,3.39,0,0,1-.92.85A2.49,2.49,0,0,1,1139.59,485Z"></path><path class="cls-87" d="M1144.78,484.87v-7h1v1.72a3,3,0,0,1,.22-.48,2.71,2.71,0,0,1,.47-.61,2.65,2.65,0,0,1,1.89-.74h.07v1.05h-.13a2.16,2.16,0,0,0-1.35.43,2.77,2.77,0,0,0-.86,1.1,3.44,3.44,0,0,0-.31,1.45v3.08Z"></path><path class="cls-87" d="M1152.54,485a3.53,3.53,0,0,1-1.86-.48,3.33,3.33,0,0,1-1.24-1.31,3.71,3.71,0,0,1-.44-1.82,3.9,3.9,0,0,1,.42-1.82,3.29,3.29,0,0,1,1.2-1.31,3.82,3.82,0,0,1,3.71,0,3.34,3.34,0,0,1,1.19,1.31,3.9,3.9,0,0,1,.42,1.82v.42h-5.86a2.77,2.77,0,0,0,.39,1.13,2.36,2.36,0,0,0,.85.81,2.49,2.49,0,0,0,1.23.3,2.19,2.19,0,0,0,2-1.17h1.15a3.5,3.5,0,0,1-1.15,1.53A3.29,3.29,0,0,1,1152.54,485Zm-2.45-4.17h4.76a2.64,2.64,0,0,0-.76-1.5,2.49,2.49,0,0,0-3.24,0A2.77,2.77,0,0,0,1150.09,480.81Z"></path><path class="cls-87" d="M817,701V691.7h4.17a3.26,3.26,0,0,1,2.34.8,3.21,3.21,0,0,1,0,4.35,3.26,3.26,0,0,1-2.34.81H818V701Zm1-4.28h3a2.32,2.32,0,0,0,1.65-.53,1.92,1.92,0,0,0,.56-1.47,1.9,1.9,0,0,0-.56-1.46,2.32,2.32,0,0,0-1.65-.53h-3Z"></path><path class="cls-87" d="M825.53,701v-7h1.05v1.73a2.54,2.54,0,0,1,.21-.49,3,3,0,0,1,.47-.61,2.79,2.79,0,0,1,.78-.52,2.53,2.53,0,0,1,1.11-.22h.07v1h-.12a2.12,2.12,0,0,0-1.35.43,2.7,2.7,0,0,0-.87,1.1,3.59,3.59,0,0,0-.3,1.45V701Z"></path><path class="cls-87" d="M833.28,701.08a3.44,3.44,0,0,1-1.86-.49,3.33,3.33,0,0,1-1.24-1.31,3.83,3.83,0,0,1-.44-1.82,3.9,3.9,0,0,1,.42-1.82,3.16,3.16,0,0,1,1.21-1.3,3.35,3.35,0,0,1,1.84-.49,3.4,3.4,0,0,1,1.86.49,3.18,3.18,0,0,1,1.19,1.3,3.9,3.9,0,0,1,.42,1.82v.42h-5.86a2.88,2.88,0,0,0,.4,1.13,2.33,2.33,0,0,0,.84.81,2.5,2.5,0,0,0,1.24.3,2.28,2.28,0,0,0,1.24-.32,2.38,2.38,0,0,0,.79-.85h1.14a3.42,3.42,0,0,1-1.15,1.53A3.29,3.29,0,0,1,833.28,701.08Zm-2.45-4.18h4.76a2.57,2.57,0,0,0-.75-1.49,2.23,2.23,0,0,0-1.63-.61,2.19,2.19,0,0,0-1.61.61A2.72,2.72,0,0,0,830.83,696.9Z"></path><path class="cls-87" d="M838.45,701v-6.07h-1.21V694h1.21v-.61a2.1,2.1,0,0,1,.69-1.72,2.86,2.86,0,0,1,1.9-.58h.08v1H841a1.62,1.62,0,0,0-1.1.33,1.3,1.3,0,0,0-.38,1V694h1.62v.93H839.5V701Z"></path><path class="cls-87" d="M845.24,701.08a3.44,3.44,0,0,1-1.86-.49,3.19,3.19,0,0,1-1.24-1.31,3.71,3.71,0,0,1-.44-1.82,3.9,3.9,0,0,1,.42-1.82,3.2,3.2,0,0,1,1.2-1.3,3.38,3.38,0,0,1,1.85-.49,3.34,3.34,0,0,1,1.85.49,3.2,3.2,0,0,1,1.2,1.3,3.9,3.9,0,0,1,.42,1.82v.42h-5.87a2.88,2.88,0,0,0,.4,1.13,2.36,2.36,0,0,0,.85.81,2.49,2.49,0,0,0,1.23.3,2.32,2.32,0,0,0,1.25-.32,2.35,2.35,0,0,0,.78-.85h1.15a3.5,3.5,0,0,1-1.15,1.53A3.29,3.29,0,0,1,845.24,701.08Zm-2.45-4.18h4.76a2.58,2.58,0,0,0-.76-1.49,2.46,2.46,0,0,0-3.24,0A2.7,2.7,0,0,0,842.79,696.9Z"></path><path class="cls-87" d="M849.93,701v-7H851v1.73a2.69,2.69,0,0,1,.22-.49,2.64,2.64,0,0,1,.46-.61,2.79,2.79,0,0,1,.78-.52,2.56,2.56,0,0,1,1.11-.22h.07v1h-.12a2.16,2.16,0,0,0-1.35.43,2.7,2.7,0,0,0-.87,1.1,3.59,3.59,0,0,0-.3,1.45V701Z"></path><path class="cls-87" d="M854.76,701v-7h1v1.73a2.69,2.69,0,0,1,.22-.49,2.64,2.64,0,0,1,.46-.61,2.79,2.79,0,0,1,.78-.52,2.56,2.56,0,0,1,1.11-.22h.07v1h-.12a2.16,2.16,0,0,0-1.35.43,2.7,2.7,0,0,0-.87,1.1,3.59,3.59,0,0,0-.3,1.45V701Z"></path><path class="cls-87" d="M862.51,701.08a3.44,3.44,0,0,1-1.86-.49,3.33,3.33,0,0,1-1.24-1.31,3.83,3.83,0,0,1-.44-1.82,3.9,3.9,0,0,1,.42-1.82,3.16,3.16,0,0,1,1.21-1.3,3.35,3.35,0,0,1,1.84-.49,3.4,3.4,0,0,1,1.86.49,3.2,3.2,0,0,1,1.2,1.3,3.9,3.9,0,0,1,.42,1.82v.42h-5.87a2.88,2.88,0,0,0,.4,1.13,2.28,2.28,0,0,0,.85.81,2.44,2.44,0,0,0,1.23.3,2.28,2.28,0,0,0,1.24-.32,2.38,2.38,0,0,0,.79-.85h1.15a3.52,3.52,0,0,1-1.16,1.53A3.27,3.27,0,0,1,862.51,701.08Zm-2.45-4.18h4.76a2.57,2.57,0,0,0-.75-1.49,2.23,2.23,0,0,0-1.63-.61,2.19,2.19,0,0,0-1.61.61A2.72,2.72,0,0,0,860.06,696.9Z"></path><path class="cls-87" d="M870.16,701.08a3.23,3.23,0,0,1-1.79-.49,3.19,3.19,0,0,1-1.18-1.31,4.15,4.15,0,0,1,0-3.64,3.23,3.23,0,0,1,3-1.79,3,3,0,0,1,1.49.34,2.85,2.85,0,0,1,1,.91v-3.94h1.05V701h-1.05v-1.12a2.82,2.82,0,0,1-1,.9A3.15,3.15,0,0,1,870.16,701.08Zm.14-1a2.33,2.33,0,0,0,1.32-.36,2.35,2.35,0,0,0,.82-1,3.3,3.3,0,0,0,0-2.66,2.26,2.26,0,0,0-2.14-1.33,2.39,2.39,0,0,0-1.33.37,2.34,2.34,0,0,0-.86,1,3.19,3.19,0,0,0,0,2.66,2.33,2.33,0,0,0,2.19,1.33Z"></path><path class="cls-87" d="M878.74,701V691.7h4.17a3.26,3.26,0,0,1,2.34.8,3.21,3.21,0,0,1,0,4.35,3.26,3.26,0,0,1-2.34.81h-3.12V701Zm1-4.28h3.05a2.32,2.32,0,0,0,1.65-.53,1.92,1.92,0,0,0,.56-1.47,1.9,1.9,0,0,0-.56-1.46,2.32,2.32,0,0,0-1.65-.53h-3.05Z"></path><path class="cls-87" d="M890.26,701.08a3.24,3.24,0,0,1-3-1.8,4.15,4.15,0,0,1,0-3.64,3.25,3.25,0,0,1,1.19-1.3,3.19,3.19,0,0,1,1.78-.49,3,3,0,0,1,1.49.34,2.8,2.8,0,0,1,1,.91V694h1.05v7h-1.05v-1.12a2.77,2.77,0,0,1-1,.9A3.12,3.12,0,0,1,890.26,701.08Zm.14-1a2.3,2.3,0,0,0,1.32-.36,2.28,2.28,0,0,0,.82-1,3.3,3.3,0,0,0,0-2.66,2.25,2.25,0,0,0-.82-1,2.31,2.31,0,0,0-1.32-.37,2.44,2.44,0,0,0-1.33.37,2.32,2.32,0,0,0-.85,1,3.1,3.1,0,0,0,0,2.66,2.35,2.35,0,0,0,.85,1A2.43,2.43,0,0,0,890.4,700.12Z"></path><path class="cls-87" d="M895.64,701v-7h1.05v1.73a2.54,2.54,0,0,1,.21-.49,3,3,0,0,1,.47-.61,2.79,2.79,0,0,1,.78-.52,2.53,2.53,0,0,1,1.11-.22h.07v1h-.12a2.14,2.14,0,0,0-1.35.43,2.7,2.7,0,0,0-.87,1.1,3.59,3.59,0,0,0-.3,1.45V701Z"></path><path class="cls-87" d="M901.22,701v-6.07H899.8V694h1.42v-2.5h1V694h1.61v.93h-1.61V701Z"></path><path class="cls-87" d="M905,701v-7h1.05v1.1a3.48,3.48,0,0,1,.93-.86,2.57,2.57,0,0,1,1.4-.35,2.81,2.81,0,0,1,1.36.35,2.61,2.61,0,0,1,1,1,3.3,3.3,0,0,1,.4,1.67V701h-1.05v-4a2.14,2.14,0,0,0-.55-1.53,1.85,1.85,0,0,0-1.41-.59,2.13,2.13,0,0,0-1.07.27,2,2,0,0,0-.76.75,2.14,2.14,0,0,0-.29,1.11v4Z"></path><path class="cls-87" d="M916.06,701.08a3.44,3.44,0,0,1-1.86-.49,3.33,3.33,0,0,1-1.24-1.31,3.83,3.83,0,0,1-.44-1.82,3.9,3.9,0,0,1,.42-1.82,3.16,3.16,0,0,1,1.21-1.3,3.35,3.35,0,0,1,1.84-.49,3.4,3.4,0,0,1,1.86.49,3.2,3.2,0,0,1,1.2,1.3,3.9,3.9,0,0,1,.42,1.82v.42H913.6A2.88,2.88,0,0,0,914,699a2.28,2.28,0,0,0,.85.81,2.44,2.44,0,0,0,1.23.3,2.28,2.28,0,0,0,1.24-.32,2.38,2.38,0,0,0,.79-.85h1.15a3.52,3.52,0,0,1-1.16,1.53A3.29,3.29,0,0,1,916.06,701.08Zm-2.45-4.18h4.76a2.57,2.57,0,0,0-.75-1.49,2.23,2.23,0,0,0-1.63-.61,2.19,2.19,0,0,0-1.61.61A2.72,2.72,0,0,0,913.61,696.9Z"></path><path class="cls-87" d="M920.75,701v-7h1v1.73a2.79,2.79,0,0,1,.69-1.1,2.65,2.65,0,0,1,1.89-.74h.07v1h-.13a2.16,2.16,0,0,0-1.35.43,2.7,2.7,0,0,0-.87,1.1,3.59,3.59,0,0,0-.3,1.45V701Z"></path><path class="cls-87" d="M844.73,717.88a3.38,3.38,0,0,1-1.85-.49,3.17,3.17,0,0,1-1.2-1.31,4.15,4.15,0,0,1,0-3.64,3.2,3.2,0,0,1,1.2-1.3,3.74,3.74,0,0,1,3.7,0,3.2,3.2,0,0,1,1.2,1.3,4.15,4.15,0,0,1,0,3.64,3.17,3.17,0,0,1-1.2,1.31A3.36,3.36,0,0,1,844.73,717.88Zm0-1a2.33,2.33,0,0,0,1.32-.36,2.35,2.35,0,0,0,.82-1,3.3,3.3,0,0,0,0-2.66,2.32,2.32,0,0,0-.82-1,2.36,2.36,0,0,0-3.46,1,3.3,3.3,0,0,0,0,2.66,2.28,2.28,0,0,0,.82,1A2.35,2.35,0,0,0,844.73,716.92Z"></path><path class="cls-87" d="M850.06,717.76v-6.07h-1.2v-.93h1.2v-.61a2.1,2.1,0,0,1,.69-1.72,2.88,2.88,0,0,1,1.9-.58h.09v1h-.14a1.64,1.64,0,0,0-1.11.33,1.32,1.32,0,0,0-.38,1.05v.53h1.63v.93h-1.63v6.07Z"></path><path class="cls-87" d="M861,717.88a4.42,4.42,0,0,1-2.39-.64,4.29,4.29,0,0,1-1.55-1.72,5.56,5.56,0,0,1,0-4.78,4.29,4.29,0,0,1,1.55-1.72,4.42,4.42,0,0,1,2.39-.64,4.59,4.59,0,0,1,1.89.38,4.08,4.08,0,0,1,1.43,1,4.19,4.19,0,0,1,.88,1.5h-1.1a3,3,0,0,0-1.11-1.36,3.32,3.32,0,0,0-1.9-.5,3.56,3.56,0,0,0-1.92.49,3.22,3.22,0,0,0-1.19,1.34,4.54,4.54,0,0,0,0,3.77,3.18,3.18,0,0,0,1.19,1.35,3.56,3.56,0,0,0,1.92.49,3.32,3.32,0,0,0,1.9-.5,3,3,0,0,0,1.11-1.36h1.1a4.23,4.23,0,0,1-.88,1.49,4.13,4.13,0,0,1-1.43,1A4.75,4.75,0,0,1,861,717.88Z"></path><path class="cls-87" d="M866.53,717.76V708h1.05v3.9a3.6,3.6,0,0,1,.92-.86,2.57,2.57,0,0,1,1.4-.35,2.81,2.81,0,0,1,1.36.35,2.55,2.55,0,0,1,1,1,3.2,3.2,0,0,1,.4,1.67v4.07h-1.05v-4a2.14,2.14,0,0,0-.55-1.54,1.86,1.86,0,0,0-1.41-.58,2.09,2.09,0,0,0-1.06.27,2.05,2.05,0,0,0-.77.75,2.13,2.13,0,0,0-.28,1.11v4Z"></path><path class="cls-87" d="M877.49,717.88a3.38,3.38,0,0,1-1.85-.49,3.17,3.17,0,0,1-1.2-1.31,4.15,4.15,0,0,1,0-3.64,3.2,3.2,0,0,1,1.2-1.3,3.74,3.74,0,0,1,3.7,0,3.2,3.2,0,0,1,1.2,1.3,4.15,4.15,0,0,1,0,3.64,3.17,3.17,0,0,1-1.2,1.31A3.36,3.36,0,0,1,877.49,717.88Zm0-1a2.33,2.33,0,0,0,1.32-.36,2.35,2.35,0,0,0,.82-1,3.3,3.3,0,0,0,0-2.66,2.32,2.32,0,0,0-.82-1,2.36,2.36,0,0,0-3.46,1,3.19,3.19,0,0,0,0,2.66,2.28,2.28,0,0,0,.82,1A2.35,2.35,0,0,0,877.49,716.92Z"></path><path class="cls-87" d="M882.3,709.59v-1.37h1.14v1.37Zm.05,8.17v-7h1v7Z"></path><path class="cls-87" d="M888.22,717.88a3.25,3.25,0,0,1-1.81-.49,3.17,3.17,0,0,1-1.2-1.31,4.07,4.07,0,0,1,0-3.64,3.2,3.2,0,0,1,1.2-1.3,3.25,3.25,0,0,1,1.81-.49,3.5,3.5,0,0,1,2.13.65,3.14,3.14,0,0,1,1.18,1.66H890.4a2.18,2.18,0,0,0-.77-1,2.11,2.11,0,0,0-1.26-.38,2.44,2.44,0,0,0-2.23,1.33,3,3,0,0,0,0,2.66,2.42,2.42,0,0,0,.88,1,2.47,2.47,0,0,0,1.35.36,2.11,2.11,0,0,0,1.26-.37,2.24,2.24,0,0,0,.77-1h1.13a3.18,3.18,0,0,1-1.18,1.66A3.5,3.5,0,0,1,888.22,717.88Z"></path><path class="cls-87" d="M895.94,717.88a3.44,3.44,0,0,1-1.86-.49,3.19,3.19,0,0,1-1.24-1.31,3.71,3.71,0,0,1-.44-1.82,3.9,3.9,0,0,1,.42-1.82,3.2,3.2,0,0,1,1.2-1.3,3.38,3.38,0,0,1,1.85-.49,3.34,3.34,0,0,1,1.85.49,3.2,3.2,0,0,1,1.2,1.3,3.9,3.9,0,0,1,.42,1.82v.42h-5.87a2.88,2.88,0,0,0,.4,1.13,2.36,2.36,0,0,0,.85.81,2.49,2.49,0,0,0,1.23.3,2.32,2.32,0,0,0,1.25-.32,2.35,2.35,0,0,0,.78-.85h1.15a3.5,3.5,0,0,1-1.15,1.53A3.29,3.29,0,0,1,895.94,717.88Zm-2.45-4.18h4.76a2.58,2.58,0,0,0-.76-1.49,2.46,2.46,0,0,0-3.24,0A2.7,2.7,0,0,0,893.49,713.7Z"></path><path class="cls-87" d="M814.07,203.19v-9.27h4.17a3.3,3.3,0,0,1,2.34.8,3.19,3.19,0,0,1,0,4.36,3.3,3.3,0,0,1-2.34.8h-3.12v3.31Zm1-4.29h3a2.32,2.32,0,0,0,1.66-.53,2.2,2.2,0,0,0,0-2.93,2.36,2.36,0,0,0-1.66-.53h-3Z"></path><path class="cls-87" d="M822.64,203.19v-7h1.05v1.72a3,3,0,0,1,.22-.48,2.13,2.13,0,0,1,.47-.61,2.62,2.62,0,0,1,.77-.53,2.73,2.73,0,0,1,1.12-.22h.07v1.06h-.13a2.21,2.21,0,0,0-1.35.42,2.8,2.8,0,0,0-.87,1.11,3.52,3.52,0,0,0-.3,1.45v3.08Z"></path><path class="cls-87" d="M830.33,203.3a3.47,3.47,0,0,1-1.85-.48,3.25,3.25,0,0,1-1.21-1.31,4.18,4.18,0,0,1,0-3.65,3.16,3.16,0,0,1,1.21-1.3,3.74,3.74,0,0,1,3.7,0,3.2,3.2,0,0,1,1.2,1.3,4.18,4.18,0,0,1,0,3.65,3.29,3.29,0,0,1-1.2,1.31A3.47,3.47,0,0,1,830.33,203.3Zm0-1a2.25,2.25,0,0,0,1.32-.37,2.29,2.29,0,0,0,.82-1,3.25,3.25,0,0,0,.28-1.32,3.2,3.2,0,0,0-.28-1.33,2.35,2.35,0,0,0-.82-1,2.6,2.6,0,0,0-2.64,0,2.37,2.37,0,0,0-.83,1,3.2,3.2,0,0,0-.28,1.33,3.25,3.25,0,0,0,.28,1.32,2.31,2.31,0,0,0,.83,1A2.25,2.25,0,0,0,830.33,202.35Z"></path><path class="cls-87" d="M838.14,203.3a3.19,3.19,0,0,1-3-1.79,4.18,4.18,0,0,1,0-3.65,3.22,3.22,0,0,1,1.18-1.3,3.31,3.31,0,0,1,1.79-.49,3.15,3.15,0,0,1,1.49.34,3,3,0,0,1,1,.91v-3.93h1.05v9.8h-1.05v-1.12a2.89,2.89,0,0,1-1,.89A3,3,0,0,1,838.14,203.3Zm.14-1a2.25,2.25,0,0,0,1.32-.37,2.29,2.29,0,0,0,.82-1,3.1,3.1,0,0,0,.28-1.32,3,3,0,0,0-.28-1.33,2.35,2.35,0,0,0-.82-1,2.33,2.33,0,0,0-1.32-.36,2.33,2.33,0,0,0-2.19,1.33,3.05,3.05,0,0,0-.29,1.33,3.1,3.1,0,0,0,.29,1.32,2.36,2.36,0,0,0,2.19,1.34Z"></path><path class="cls-87" d="M846.24,203.3a3,3,0,0,1-1.36-.34,2.7,2.7,0,0,1-1-1,3.3,3.3,0,0,1-.4-1.67v-4.07h1v4a2.14,2.14,0,0,0,.56,1.54,1.85,1.85,0,0,0,1.4.58,2.06,2.06,0,0,0,1.07-.28,2.1,2.1,0,0,0,.76-.75,2.07,2.07,0,0,0,.29-1.1v-4h1v7h-1V202.1a3.6,3.6,0,0,1-.93.85A2.57,2.57,0,0,1,846.24,203.3Z"></path><path class="cls-87" d="M854.45,203.3a3.36,3.36,0,0,1-1.82-.48,3.29,3.29,0,0,1-1.2-1.31,4.09,4.09,0,0,1,0-3.65,3.2,3.2,0,0,1,1.2-1.3,3.37,3.37,0,0,1,1.82-.49,3.49,3.49,0,0,1,2.12.65,3.11,3.11,0,0,1,1.18,1.67h-1.13a2.21,2.21,0,0,0-.77-1,2.11,2.11,0,0,0-1.26-.37,2.39,2.39,0,0,0-2.23,1.33,2.93,2.93,0,0,0-.31,1.33,3,3,0,0,0,.31,1.32,2.42,2.42,0,0,0,2.23,1.34,2.11,2.11,0,0,0,1.26-.38,2.18,2.18,0,0,0,.77-1h1.13a3.09,3.09,0,0,1-1.18,1.66A3.49,3.49,0,0,1,854.45,203.3Z"></path><path class="cls-87" d="M859.81,203.19v-6.08h-1.43v-.92h1.43v-2.51h1.05v2.51h1.61v.92h-1.61v6.08Z"></path><path class="cls-87" d="M866.16,203.3a3.82,3.82,0,0,1-1.63-.32,2.51,2.51,0,0,1-1-.85,2.26,2.26,0,0,1-.39-1.14h1.09a1.79,1.79,0,0,0,.24.68,1.52,1.52,0,0,0,.63.53,2.44,2.44,0,0,0,1.09.2,3.66,3.66,0,0,0,.52,0,3,3,0,0,0,.59-.15,1.27,1.27,0,0,0,.48-.34.8.8,0,0,0,.2-.57.75.75,0,0,0-.34-.67,2.54,2.54,0,0,0-.86-.38l-1.13-.26a7.8,7.8,0,0,1-1.13-.32,2.33,2.33,0,0,1-.87-.58,1.45,1.45,0,0,1-.33-1,1.75,1.75,0,0,1,.69-1.48,3.37,3.37,0,0,1,2-.53,3.44,3.44,0,0,1,1.51.29,2.24,2.24,0,0,1,.88.74,2.17,2.17,0,0,1,.36,1h-1.07a1.14,1.14,0,0,0-.44-.77A2,2,0,0,0,866,197c-1.11,0-1.66.34-1.66,1a.73.73,0,0,0,.33.64,2.92,2.92,0,0,0,.87.36c.36.09.73.17,1.13.25a6.73,6.73,0,0,1,1.13.33,2.15,2.15,0,0,1,.86.6,1.48,1.48,0,0,1,.34,1,1.78,1.78,0,0,1-.78,1.56A3.56,3.56,0,0,1,866.16,203.3Z"></path><path class="cls-87" d="M876.2,203.3a3.79,3.79,0,0,1-1.61-.35,3.07,3.07,0,0,1-1.19-1,2.42,2.42,0,0,1-.45-1.45,2.17,2.17,0,0,1,.45-1.34,2.7,2.7,0,0,1,1.26-.9,1.9,1.9,0,0,1-.63-.39,2.33,2.33,0,0,1-.55-.69,1.76,1.76,0,0,1-.22-.87,2.36,2.36,0,0,1,.79-1.81,3.26,3.26,0,0,1,2.29-.72,3.74,3.74,0,0,1,1.57.28,2.58,2.58,0,0,1,1,.73,2.38,2.38,0,0,1,.42.92h-1.1a1.36,1.36,0,0,0-.57-.66,2.29,2.29,0,0,0-1.3-.32,2.1,2.1,0,0,0-1.51.47,1.49,1.49,0,0,0-.49,1.12,1.32,1.32,0,0,0,.55,1.17,2.18,2.18,0,0,0,1.27.37h2.26v-.61h1v.61h.91v.94h-.91v1.78a2.49,2.49,0,0,1-.84,1.94A3.38,3.38,0,0,1,876.2,203.3Zm0-.94a2.33,2.33,0,0,0,1.65-.51,1.56,1.56,0,0,0,.54-1.16v-1.86H876a2.23,2.23,0,0,0-1,.24,1.85,1.85,0,0,0-.7.62,1.55,1.55,0,0,0-.26.86,1.59,1.59,0,0,0,.28.89,2,2,0,0,0,.77.67A2.47,2.47,0,0,0,876.2,202.36Z"></path><path class="cls-87" d="M884.67,203.19v-9.27h4.16a3.41,3.41,0,0,1,1.73.38,2.3,2.3,0,0,1,.92.94,2.65,2.65,0,0,1,.28,1.13,2.08,2.08,0,0,1-1.25,2.08,3.27,3.27,0,0,1,.79.4,2.28,2.28,0,0,1,.67.74,2.37,2.37,0,0,1,.26,1.16,2.23,2.23,0,0,1-.79,1.74,3.53,3.53,0,0,1-2.37.7Zm1.05-5.13h3.11a2.35,2.35,0,0,0,.92-.17,1.55,1.55,0,0,0,.69-.52,1.48,1.48,0,0,0,.27-.92,1.59,1.59,0,0,0-.18-.74,1.39,1.39,0,0,0-.56-.57,2,2,0,0,0-1-.23h-3.22Zm0,4.13h3.46a2.39,2.39,0,0,0,1.48-.4,1.32,1.32,0,0,0,.52-1.12,1.6,1.6,0,0,0-.5-1.16,2.23,2.23,0,0,0-1.61-.5h-3.35Z"></path><path class="cls-87" d="M893.72,203.19v-7h1v1.72a2.8,2.8,0,0,1,.21-.48,2.56,2.56,0,0,1,.47-.61,2.82,2.82,0,0,1,.78-.53,2.68,2.68,0,0,1,1.11-.22h.07v1.06h-.12a2.22,2.22,0,0,0-1.36.42,2.87,2.87,0,0,0-.86,1.11,3.52,3.52,0,0,0-.3,1.45v3.08Z"></path><path class="cls-87" d="M901.32,203.3a3.19,3.19,0,0,1-3-1.79,4.18,4.18,0,0,1,0-3.65,3.22,3.22,0,0,1,1.18-1.3,3.31,3.31,0,0,1,1.79-.49,3.15,3.15,0,0,1,1.49.34,3,3,0,0,1,1,.91v-1.13h1v7h-1v-1.12a2.89,2.89,0,0,1-1,.89A3,3,0,0,1,901.32,203.3Zm.14-1a2.25,2.25,0,0,0,1.32-.37,2.29,2.29,0,0,0,.82-1,3.1,3.1,0,0,0,.28-1.32,3,3,0,0,0-.28-1.33,2.35,2.35,0,0,0-.82-1,2.33,2.33,0,0,0-1.32-.36,2.33,2.33,0,0,0-2.19,1.33,3.05,3.05,0,0,0-.29,1.33,3.1,3.1,0,0,0,.29,1.32,2.36,2.36,0,0,0,2.19,1.34Z"></path><path class="cls-87" d="M906.69,203.19v-7h1v1.09a3.43,3.43,0,0,1,.93-.85,2.49,2.49,0,0,1,1.4-.36,2.81,2.81,0,0,1,1.36.35,2.68,2.68,0,0,1,1,1,3.3,3.3,0,0,1,.4,1.67v4.08h-1v-4.05a2.13,2.13,0,0,0-.55-1.53,1.83,1.83,0,0,0-1.41-.58,2.26,2.26,0,0,0-1.07.26,2.1,2.1,0,0,0-.76.75,2.14,2.14,0,0,0-.29,1.11v4Z"></path><path class="cls-87" d="M917.57,203.3a3.27,3.27,0,0,1-1.78-.48,3.34,3.34,0,0,1-1.19-1.31,4.18,4.18,0,0,1,0-3.65,3.26,3.26,0,0,1,3-1.79,3.12,3.12,0,0,1,1.49.34,2.89,2.89,0,0,1,1,.91v-3.93h1v9.8h-1v-1.12a2.84,2.84,0,0,1-1,.89A3,3,0,0,1,917.57,203.3Zm.14-1a2.25,2.25,0,0,0,2.14-1.34,3.1,3.1,0,0,0,.28-1.32,3,3,0,0,0-.28-1.33,2.28,2.28,0,0,0-.82-1,2.3,2.3,0,0,0-1.32-.36,2.41,2.41,0,0,0-1.33.36,2.35,2.35,0,0,0-.85,1,2.92,2.92,0,0,0-.3,1.33,3,3,0,0,0,.3,1.32,2.29,2.29,0,0,0,.85,1A2.33,2.33,0,0,0,917.71,202.35Z"></path><path class="cls-87" d="M925.5,203.3a3.84,3.84,0,0,1-1.64-.32,2.51,2.51,0,0,1-1-.85,2.36,2.36,0,0,1-.39-1.14h1.09a1.79,1.79,0,0,0,.24.68,1.52,1.52,0,0,0,.63.53,2.44,2.44,0,0,0,1.09.2,3.66,3.66,0,0,0,.52,0,3,3,0,0,0,.59-.15,1.39,1.39,0,0,0,.49-.34.84.84,0,0,0,.19-.57.77.77,0,0,0-.33-.67,2.69,2.69,0,0,0-.87-.38L925,200a7.8,7.8,0,0,1-1.13-.32,2.22,2.22,0,0,1-.86-.58,1.4,1.4,0,0,1-.34-1,1.75,1.75,0,0,1,.69-1.48,3.37,3.37,0,0,1,2-.53,3.44,3.44,0,0,1,1.51.29,2.14,2.14,0,0,1,1.24,1.7h-1.07a1.14,1.14,0,0,0-.44-.77,2,2,0,0,0-1.26-.32c-1.12,0-1.67.34-1.67,1a.71.71,0,0,0,.34.64,2.75,2.75,0,0,0,.86.36c.36.09.73.17,1.13.25a6.73,6.73,0,0,1,1.13.33,2.26,2.26,0,0,1,.87.6,1.53,1.53,0,0,1,.33,1,1.78,1.78,0,0,1-.78,1.56A3.55,3.55,0,0,1,925.5,203.3Z"></path><path class="cls-87" d="M834,220v-9.27h4.17a3.3,3.3,0,0,1,2.34.8,3.22,3.22,0,0,1,0,4.36,3.3,3.3,0,0,1-2.34.8H835V220Zm1-4.29h3.05a2.27,2.27,0,0,0,1.65-.53,2.2,2.2,0,0,0,0-2.93,2.32,2.32,0,0,0-1.65-.53H835Z"></path><path class="cls-87" d="M845.65,220.1a3.55,3.55,0,0,1-1.86-.48,3.47,3.47,0,0,1-1.24-1.31,3.85,3.85,0,0,1-.44-1.82,4,4,0,0,1,.42-1.83,3.16,3.16,0,0,1,1.21-1.3,3.74,3.74,0,0,1,3.7,0,3.2,3.2,0,0,1,1.2,1.3,4,4,0,0,1,.42,1.83v.42h-5.87a2.89,2.89,0,0,0,.4,1.12,2.39,2.39,0,0,0,.85.82,2.44,2.44,0,0,0,1.23.3,2.2,2.2,0,0,0,1.24-.33,2.3,2.3,0,0,0,.79-.85h1.15a3.41,3.41,0,0,1-1.16,1.53A3.27,3.27,0,0,1,845.65,220.1Zm-2.45-4.17H848a2.57,2.57,0,0,0-.75-1.5,2.23,2.23,0,0,0-1.63-.6,2.18,2.18,0,0,0-1.61.6A2.71,2.71,0,0,0,843.2,215.93Z"></path><path class="cls-87" d="M853.38,220.1a3.49,3.49,0,0,1-1.85-.48,3.29,3.29,0,0,1-1.2-1.31,4.18,4.18,0,0,1,0-3.65,3.2,3.2,0,0,1,1.2-1.3,3.76,3.76,0,0,1,3.71,0,3.18,3.18,0,0,1,1.19,1.3,4.18,4.18,0,0,1,0,3.65,3.27,3.27,0,0,1-1.19,1.31A3.48,3.48,0,0,1,853.38,220.1Zm0-.95a2.22,2.22,0,0,0,2.14-1.34,3.1,3.1,0,0,0,.28-1.32,3,3,0,0,0-.28-1.33,2.44,2.44,0,0,0-3.45-1,2.3,2.3,0,0,0-.83,1,3,3,0,0,0-.28,1.33,3.1,3.1,0,0,0,.28,1.32,2.28,2.28,0,0,0,2.14,1.34Z"></path><path class="cls-87" d="M858.24,222.76V213h1v1.12a2.71,2.71,0,0,1,1-.91,3.12,3.12,0,0,1,1.49-.33,3.28,3.28,0,0,1,1.78.49,3.22,3.22,0,0,1,1.18,1.3,4.18,4.18,0,0,1,0,3.65,3.32,3.32,0,0,1-1.18,1.31,3.27,3.27,0,0,1-1.78.48,3.12,3.12,0,0,1-1.49-.34,2.89,2.89,0,0,1-1-.91v3.91Zm3.42-3.61a2.31,2.31,0,0,0,1.33-.37,2.36,2.36,0,0,0,.85-1,3,3,0,0,0,.29-1.32,2.92,2.92,0,0,0-.29-1.33,2.42,2.42,0,0,0-.85-1,2.38,2.38,0,0,0-1.33-.36,2.33,2.33,0,0,0-1.32.36,2.37,2.37,0,0,0-.83,1,3.2,3.2,0,0,0-.28,1.33,3.25,3.25,0,0,0,.28,1.32,2.31,2.31,0,0,0,.83,1A2.25,2.25,0,0,0,861.66,219.15Z"></path><path class="cls-87" d="M866.57,220v-9.8h1V220Z"></path><path class="cls-87" d="M872.55,220.1a3.53,3.53,0,0,1-1.86-.48,3.32,3.32,0,0,1-1.24-1.31,3.74,3.74,0,0,1-.44-1.82,4,4,0,0,1,.42-1.83,3.2,3.2,0,0,1,1.2-1.3,3.74,3.74,0,0,1,3.7,0,3.2,3.2,0,0,1,1.2,1.3,4,4,0,0,1,.42,1.83v.42h-5.87a2.89,2.89,0,0,0,.4,1.12,2.34,2.34,0,0,0,2.08,1.12,2.24,2.24,0,0,0,1.25-.33,2.27,2.27,0,0,0,.78-.85h1.15a3.39,3.39,0,0,1-1.15,1.53A3.29,3.29,0,0,1,872.55,220.1Zm-2.45-4.17h4.76a2.64,2.64,0,0,0-.76-1.5,2.49,2.49,0,0,0-3.24,0A2.7,2.7,0,0,0,870.1,215.93Z"></path><path class="cls-87" d="M880.44,220v-9.27h1V219h5.06v1Z"></path><path class="cls-87" d="M890.57,220.1a3.47,3.47,0,0,1-1.85-.48,3.32,3.32,0,0,1-1.21-1.31,4.18,4.18,0,0,1,0-3.65,3.23,3.23,0,0,1,1.21-1.3,3.74,3.74,0,0,1,3.7,0,3.2,3.2,0,0,1,1.2,1.3,4.18,4.18,0,0,1,0,3.65,3.29,3.29,0,0,1-1.2,1.31A3.47,3.47,0,0,1,890.57,220.1Zm0-.95a2.25,2.25,0,0,0,1.32-.37,2.29,2.29,0,0,0,.82-1,3.25,3.25,0,0,0,.28-1.32,3.2,3.2,0,0,0-.28-1.33,2.35,2.35,0,0,0-.82-1,2.6,2.6,0,0,0-2.64,0,2.37,2.37,0,0,0-.83,1,3.2,3.2,0,0,0-.28,1.33,3.25,3.25,0,0,0,.28,1.32,2.31,2.31,0,0,0,.83,1A2.25,2.25,0,0,0,890.57,219.15Z"></path><path class="cls-87" d="M897.19,220l-2.75-7h1.15l2.21,5.88L900,213h1.15l-2.73,7Z"></path><path class="cls-87" d="M905.1,220.1a3.53,3.53,0,0,1-1.86-.48,3.32,3.32,0,0,1-1.24-1.31,3.74,3.74,0,0,1-.44-1.82,4,4,0,0,1,.42-1.83,3.2,3.2,0,0,1,1.2-1.3,3.47,3.47,0,0,1,1.85-.49,3.42,3.42,0,0,1,1.85.49,3.2,3.2,0,0,1,1.2,1.3,4,4,0,0,1,.42,1.83v.42h-5.87A2.89,2.89,0,0,0,903,218a2.34,2.34,0,0,0,2.08,1.12,2.24,2.24,0,0,0,1.25-.33,2.27,2.27,0,0,0,.78-.85h1.15a3.39,3.39,0,0,1-1.15,1.53A3.29,3.29,0,0,1,905.1,220.1Zm-2.45-4.17h4.76a2.64,2.64,0,0,0-.76-1.5,2.49,2.49,0,0,0-3.24,0A2.7,2.7,0,0,0,902.65,215.93Z"></path></g></g></svg> 