<?xml version="1.0" encoding="UTF-8"?> <svg xmlns="http://www.w3.org/2000/svg" xmlns:xlink="http://www.w3.org/1999/xlink" viewBox="0 0 1202.11 739.51"><defs><style>.cls-1{fill:url(#linear-gradient);}.cls-2,.cls-77,.cls-78,.cls-79,.cls-80,.cls-81,.cls-82,.cls-83{fill:none;stroke-miterlimit:10;}.cls-2{stroke:#fff;stroke-linecap:square;stroke-width:15px;}.cls-3{fill:url(#linear-gradient-2);}.cls-4{fill:#ee2741;}.cls-5{fill:#3e2b58;}.cls-6{fill:url(#linear-gradient-3);}.cls-101,.cls-105,.cls-7,.cls-87,.cls-94{fill:#fff;}.cls-8{fill:url(#linear-gradient-4);}.cls-9{fill:url(#linear-gradient-5);}.cls-10{fill:url(#linear-gradient-6);}.cls-11,.cls-21{fill:#fcdcda;}.cls-12{fill:url(#linear-gradient-7);}.cls-13{fill:url(#linear-gradient-8);}.cls-14{fill:url(#linear-gradient-9);}.cls-15{fill:url(#linear-gradient-10);}.cls-16{fill:url(#linear-gradient-11);}.cls-17{fill:url(#linear-gradient-12);}.cls-18{fill:url(#linear-gradient-13);}.cls-19{fill:url(#linear-gradient-14);}.cls-20{fill:url(#linear-gradient-15);}.cls-21{opacity:0.48;}.cls-22{fill:url(#linear-gradient-16);}.cls-23{fill:url(#linear-gradient-17);}.cls-24{fill:url(#linear-gradient-18);}.cls-25{fill:url(#linear-gradient-19);}.cls-26{fill:url(#linear-gradient-20);}.cls-27{fill:url(#linear-gradient-21);}.cls-28{fill:url(#linear-gradient-22);}.cls-29{fill:url(#linear-gradient-23);}.cls-30{fill:url(#linear-gradient-24);}.cls-31{fill:url(#linear-gradient-25);}.cls-32{fill:url(#linear-gradient-26);}.cls-33{fill:url(#linear-gradient-27);}.cls-34{fill:url(#linear-gradient-28);}.cls-35{fill:url(#linear-gradient-29);}.cls-36{fill:url(#linear-gradient-30);}.cls-37{fill:url(#linear-gradient-31);}.cls-38{fill:url(#linear-gradient-32);}.cls-39{fill:url(#linear-gradient-33);}.cls-40{fill:url(#linear-gradient-34);}.cls-41{fill:url(#linear-gradient-35);}.cls-42{fill:url(#linear-gradient-36);}.cls-43{fill:url(#linear-gradient-37);}.cls-44{fill:url(#linear-gradient-38);}.cls-45{fill:url(#linear-gradient-39);}.cls-46{fill:url(#linear-gradient-40);}.cls-47{fill:url(#linear-gradient-41);}.cls-48{fill:url(#linear-gradient-42);}.cls-49{fill:url(#linear-gradient-43);}.cls-50{fill:url(#linear-gradient-44);}.cls-51{fill:url(#linear-gradient-45);}.cls-52{fill:url(#linear-gradient-46);}.cls-53{fill:url(#linear-gradient-47);}.cls-54{fill:url(#linear-gradient-48);}.cls-55{fill:url(#linear-gradient-49);}.cls-56{fill:url(#linear-gradient-50);}.cls-57{fill:url(#linear-gradient-51);}.cls-58{fill:url(#linear-gradient-52);}.cls-59{fill:url(#linear-gradient-53);}.cls-60{fill:url(#linear-gradient-54);}.cls-61{fill:url(#linear-gradient-55);}.cls-62{fill:url(#linear-gradient-56);}.cls-63{fill:url(#linear-gradient-57);}.cls-64{fill:url(#linear-gradient-58);}.cls-65{fill:url(#linear-gradient-59);}.cls-66{fill:url(#linear-gradient-60);}.cls-67{fill:url(#linear-gradient-61);}.cls-68{fill:url(#linear-gradient-62);}.cls-69{fill:url(#linear-gradient-63);}.cls-70{fill:url(#linear-gradient-64);}.cls-71{fill:url(#linear-gradient-65);}.cls-72{fill:url(#linear-gradient-66);}.cls-73{fill:url(#linear-gradient-67);}.cls-74{fill:url(#linear-gradient-68);}.cls-75{fill:url(#linear-gradient-69);}.cls-76{fill:url(#linear-gradient-70);}.cls-77,.cls-78,.cls-79,.cls-80,.cls-81,.cls-82,.cls-83{stroke-width:5px;}.cls-77{stroke:url(#linear-gradient-71);}.cls-78{stroke:url(#linear-gradient-72);}.cls-79{stroke:url(#linear-gradient-73);}.cls-80{stroke:url(#linear-gradient-74);}.cls-81{stroke:url(#linear-gradient-75);}.cls-82{stroke:url(#linear-gradient-76);}.cls-83{stroke:url(#linear-gradient-77);}.cls-84{fill:#df2127;}.cls-85{fill:url(#linear-gradient-78);}.cls-86{fill:url(#linear-gradient-79);}.cls-87{font-size:37.79px;}.cls-101,.cls-105,.cls-87,.cls-94{font-family:Montserrat-ExtraBold, Montserrat;font-weight:800;}.cls-88{letter-spacing:0.01em;}.cls-89{letter-spacing:-0.01em;}.cls-90{letter-spacing:0.01em;}.cls-91{letter-spacing:-0.02em;}.cls-92{letter-spacing:-0.01em;}.cls-93{letter-spacing:0em;}.cls-94{font-size:40.67px;}.cls-95{letter-spacing:-0.02em;}.cls-96{letter-spacing:-0.02em;}.cls-97{letter-spacing:0.01em;}.cls-98{letter-spacing:-0.02em;}.cls-99{letter-spacing:0.01em;}.cls-100{letter-spacing:-0.03em;}.cls-101{font-size:49.87px;}.cls-102{letter-spacing:-0.01em;}.cls-103{letter-spacing:-0.02em;}.cls-104{letter-spacing:0.01em;}.cls-105{font-size:43.56px;}.cls-106{font-size:12.3px;}.cls-106,.cls-113{fill:#231f20;font-family:Questrial-Regular, Questrial;}.cls-107{letter-spacing:-0.01em;}.cls-108{letter-spacing:-0.07em;}.cls-109{letter-spacing:0em;}.cls-110{letter-spacing:-0.01em;}.cls-111{letter-spacing:-0.03em;}.cls-112{letter-spacing:-0.01em;}.cls-113{font-size:10.45px;}.cls-114{letter-spacing:-0.01em;}.cls-115{letter-spacing:-0.01em;}.cls-116{letter-spacing:-0.01em;}.cls-117{letter-spacing:-0.01em;}.cls-118{letter-spacing:0em;}</style><linearGradient id="linear-gradient" x1="662.93" y1="474.45" x2="1081.32" y2="474.45" gradientUnits="userSpaceOnUse"><stop offset="0" stop-color="#ee2741"></stop><stop offset="0.15" stop-color="#ee2b44"></stop><stop offset="0.3" stop-color="#ef364e"></stop><stop offset="0.45" stop-color="#f14a5f"></stop><stop offset="0.6" stop-color="#f36576"></stop><stop offset="0.74" stop-color="#f68893"></stop><stop offset="0.88" stop-color="#f9b3b7"></stop><stop offset="1" stop-color="#fcdcda"></stop></linearGradient><linearGradient id="linear-gradient-2" x1="-144.59" y1="472.97" x2="870.24" y2="472.97" xlink:href="#linear-gradient"></linearGradient><linearGradient id="linear-gradient-3" x1="85.38" y1="472.56" x2="1184.52" y2="472.56" gradientUnits="userSpaceOnUse"><stop offset="0" stop-color="#3e2b58"></stop><stop offset="1" stop-color="#fcdcda"></stop></linearGradient><linearGradient id="linear-gradient-4" x1="823.25" y1="295.95" x2="921" y2="295.95" xlink:href="#linear-gradient-3"></linearGradient><linearGradient id="linear-gradient-5" x1="826.25" y1="294.55" x2="904.01" y2="294.55" gradientUnits="userSpaceOnUse"><stop offset="0" stop-color="#221730"></stop><stop offset="0.51" stop-color="#bad8df"></stop><stop offset="1" stop-color="#fcdcda"></stop></linearGradient><linearGradient id="linear-gradient-6" x1="858.06" y1="308" x2="871.83" y2="308" gradientUnits="userSpaceOnUse"><stop offset="0" stop-color="#221730"></stop><stop offset="0.68" stop-color="#bad8df"></stop><stop offset="1" stop-color="#fcdcda"></stop></linearGradient><linearGradient id="linear-gradient-7" x1="843.37" y1="304.86" x2="932.95" y2="304.86" xlink:href="#linear-gradient-6"></linearGradient><linearGradient id="linear-gradient-8" x1="856.29" y1="318" x2="889.52" y2="318" gradientUnits="userSpaceOnUse"><stop offset="0" stop-color="#221730"></stop><stop offset="0.68" stop-color="#3e2c57"></stop><stop offset="1" stop-color="#fcdcda"></stop></linearGradient><linearGradient id="linear-gradient-9" x1="856.29" y1="318.96" x2="889.52" y2="318.96" xlink:href="#linear-gradient-8"></linearGradient><linearGradient id="linear-gradient-10" x1="841.48" y1="318.48" x2="874.71" y2="318.48" xlink:href="#linear-gradient-8"></linearGradient><linearGradient id="linear-gradient-11" x1="837.32" y1="319.44" x2="870.55" y2="319.44" xlink:href="#linear-gradient-8"></linearGradient><linearGradient id="linear-gradient-12" x1="856.79" y1="277.77" x2="889.02" y2="277.77" xlink:href="#linear-gradient-8"></linearGradient><linearGradient id="linear-gradient-13" x1="856.79" y1="278.72" x2="889.02" y2="278.72" xlink:href="#linear-gradient-8"></linearGradient><linearGradient id="linear-gradient-14" x1="849.69" y1="278.25" x2="881.92" y2="278.25" xlink:href="#linear-gradient-8"></linearGradient><linearGradient id="linear-gradient-15" x1="849.27" y1="279.2" x2="881.49" y2="279.2" xlink:href="#linear-gradient-8"></linearGradient><linearGradient id="linear-gradient-16" x1="891.58" y1="280.25" x2="908.28" y2="280.25" gradientUnits="userSpaceOnUse"><stop offset="0" stop-color="#3e2c57"></stop><stop offset="0.42" stop-color="#bad8df"></stop><stop offset="1" stop-color="#fcdcda"></stop></linearGradient><linearGradient id="linear-gradient-17" x1="891.58" y1="17178.99" x2="908.28" y2="17178.99" gradientTransform="matrix(1, 0, 0, -1, 0, 17478.53)" gradientUnits="userSpaceOnUse"><stop offset="0" stop-color="#3e2c57"></stop><stop offset="0.32" stop-color="#bad8df"></stop><stop offset="0.94" stop-color="#fcdcda"></stop></linearGradient><linearGradient id="linear-gradient-18" x1="891.58" y1="17160.38" x2="908.28" y2="17160.38" gradientTransform="matrix(1, 0, 0, -1, 0, 17478.53)" gradientUnits="userSpaceOnUse"><stop offset="0" stop-color="#3e2c57"></stop><stop offset="0.34" stop-color="#bad8df"></stop><stop offset="1" stop-color="#fcdcda"></stop></linearGradient><linearGradient id="linear-gradient-19" x1="891.58" y1="340.52" x2="908.28" y2="340.52" gradientTransform="translate(0 -37.38)" gradientUnits="userSpaceOnUse"><stop offset="0" stop-color="#3e2c57"></stop><stop offset="0.32" stop-color="#bad8df"></stop></linearGradient><linearGradient id="linear-gradient-20" x1="891.54" y1="283.55" x2="908.34" y2="283.55" gradientUnits="userSpaceOnUse"><stop offset="0" stop-color="#3e2c57"></stop><stop offset="0.32" stop-color="#bad8df"></stop><stop offset="1" stop-color="#fcdcda"></stop></linearGradient><linearGradient id="linear-gradient-21" x1="891.54" y1="289.87" x2="908.34" y2="289.87" xlink:href="#linear-gradient-8"></linearGradient><linearGradient id="linear-gradient-22" x1="890.35" y1="310.62" x2="907.05" y2="310.62" xlink:href="#linear-gradient-20"></linearGradient><linearGradient id="linear-gradient-23" x1="891.58" y1="296.55" x2="908.28" y2="296.55" xlink:href="#linear-gradient-20"></linearGradient><linearGradient id="linear-gradient-24" x1="894.6" y1="273.75" x2="901.87" y2="273.75" gradientUnits="userSpaceOnUse"><stop offset="0" stop-color="#3e2c57"></stop><stop offset="0.84" stop-color="#fcdcda"></stop></linearGradient><linearGradient id="linear-gradient-25" x1="895.02" y1="276.73" x2="901.48" y2="276.73" xlink:href="#linear-gradient-20"></linearGradient><linearGradient id="linear-gradient-26" x1="818.76" y1="304.23" x2="878.96" y2="304.23" xlink:href="#linear-gradient-5"></linearGradient><linearGradient id="linear-gradient-27" x1="833.83" y1="318.82" x2="869.08" y2="318.82" xlink:href="#linear-gradient-6"></linearGradient><linearGradient id="linear-gradient-28" x1="845.37" y1="289.51" x2="868.77" y2="289.51" gradientUnits="userSpaceOnUse"><stop offset="0.32" stop-color="#bad8df"></stop><stop offset="1" stop-color="#fcdcda"></stop></linearGradient><linearGradient id="linear-gradient-29" x1="821.95" y1="287.12" x2="872.95" y2="287.12" xlink:href="#linear-gradient-6"></linearGradient><linearGradient id="linear-gradient-30" x1="847.94" y1="285.79" x2="869.95" y2="285.79" xlink:href="#linear-gradient-28"></linearGradient><linearGradient id="linear-gradient-31" x1="823.83" y1="650.48" x2="921.58" y2="650.48" xlink:href="#linear-gradient-3"></linearGradient><linearGradient id="linear-gradient-32" x1="524.24" y1="2414.56" x2="533.33" y2="2414.56" gradientTransform="translate(310.6 -1161.04) scale(1 0.75)" gradientUnits="userSpaceOnUse"><stop offset="0.36" stop-color="#e7dbdc"></stop><stop offset="0.47" stop-color="#b8aab7"></stop><stop offset="0.6" stop-color="#8d7d96"></stop><stop offset="0.71" stop-color="#6b597b"></stop><stop offset="0.82" stop-color="#524068"></stop><stop offset="0.92" stop-color="#43305c"></stop><stop offset="1" stop-color="#3e2b58"></stop></linearGradient><linearGradient id="linear-gradient-33" x1="4266.04" y1="7827.55" x2="4285.21" y2="7827.55" gradientTransform="translate(-3391.21 -3745.46) scale(1 0.56)" xlink:href="#linear-gradient"></linearGradient><linearGradient id="linear-gradient-34" x1="4278.47" y1="8471.52" x2="4293.59" y2="8471.52" gradientTransform="matrix(1, 0, 0, 0.51, -3402.77, -3627.67)" xlink:href="#linear-gradient"></linearGradient><linearGradient id="linear-gradient-35" x1="4276.65" y1="9025.85" x2="4295.86" y2="9025.85" gradientTransform="matrix(1, 0, 0, 0.47, -3412.48, -3542.84)" xlink:href="#linear-gradient"></linearGradient><linearGradient id="linear-gradient-36" x1="4275.4" y1="10416.13" x2="4303.66" y2="10416.13" gradientTransform="matrix(1, 0, 0, 0.39, -3422.8, -3383.09)" xlink:href="#linear-gradient"></linearGradient><linearGradient id="linear-gradient-37" x1="1994.61" y1="-1587.53" x2="2003.69" y2="-1587.53" gradientTransform="translate(-1099.37 1828.58) scale(1 0.75)" gradientUnits="userSpaceOnUse"><stop offset="0" stop-color="#bad8df"></stop><stop offset="1" stop-color="#fcdcda"></stop></linearGradient><linearGradient id="linear-gradient-38" x1="879.79" y1="624.5" x2="849.46" y2="671.38" xlink:href="#linear-gradient"></linearGradient><linearGradient id="linear-gradient-39" x1="7011.9" y1="29.39" x2="7020.99" y2="29.39" gradientTransform="translate(-6151.28 630.93) scale(1 0.44)" xlink:href="#linear-gradient-37"></linearGradient><linearGradient id="linear-gradient-40" x1="866.72" y1="646.04" x2="901.78" y2="646.04" gradientTransform="matrix(1, 0, 0, 1, 0, 0)" xlink:href="#linear-gradient-37"></linearGradient><linearGradient id="linear-gradient-41" x1="544.98" y1="3021.51" x2="554.07" y2="3021.51" gradientTransform="translate(302.71 -194.47) scale(1 0.28)" xlink:href="#linear-gradient-37"></linearGradient><linearGradient id="linear-gradient-42" x1="565.79" y1="3021.82" x2="574.88" y2="3021.82" gradientTransform="translate(299.88 -184.08) scale(1 0.28)" xlink:href="#linear-gradient-37"></linearGradient><linearGradient id="linear-gradient-43" x1="552.07" y1="2779.04" x2="561.16" y2="2779.04" gradientTransform="translate(302.59 -386.74) scale(1 0.38)" xlink:href="#linear-gradient-37"></linearGradient><linearGradient id="linear-gradient-44" x1="558.89" y1="2925.51" x2="567.98" y2="2925.51" gradientTransform="translate(301.11 -252.06) scale(1 0.31)" xlink:href="#linear-gradient-37"></linearGradient><linearGradient id="linear-gradient-45" x1="647.64" y1="483.57" x2="745.39" y2="483.57" xlink:href="#linear-gradient-3"></linearGradient><linearGradient id="linear-gradient-46" x1="708.93" y1="481.69" x2="729.83" y2="481.69" gradientUnits="userSpaceOnUse"><stop offset="0" stop-color="#fcdcda"></stop><stop offset="1" stop-color="#bad8df"></stop></linearGradient><linearGradient id="linear-gradient-47" x1="693.78" y1="467.14" x2="714.67" y2="467.14" xlink:href="#linear-gradient-46"></linearGradient><linearGradient id="linear-gradient-48" x1="676.76" y1="493.27" x2="711.02" y2="493.27" xlink:href="#linear-gradient-46"></linearGradient><linearGradient id="linear-gradient-49" x1="676.76" y1="491.75" x2="711.02" y2="491.75" xlink:href="#linear-gradient-46"></linearGradient><linearGradient id="linear-gradient-50" x1="660.97" y1="500.76" x2="676.76" y2="500.76" gradientUnits="userSpaceOnUse"><stop offset="0" stop-color="#fcdcda"></stop><stop offset="0.53" stop-color="#bad8df"></stop></linearGradient><linearGradient id="linear-gradient-51" x1="665.44" y1="505.13" x2="705.31" y2="505.13" xlink:href="#linear-gradient-6"></linearGradient><linearGradient id="linear-gradient-52" x1="667.74" y1="505.13" x2="673.33" y2="505.13" xlink:href="#linear-gradient-46"></linearGradient><linearGradient id="linear-gradient-53" x1="711.02" y1="504.65" x2="713.21" y2="504.65" xlink:href="#linear-gradient-46"></linearGradient><linearGradient id="linear-gradient-54" x1="660.97" y1="489.79" x2="676.76" y2="489.79" gradientUnits="userSpaceOnUse"><stop offset="0" stop-color="#fcdcda"></stop><stop offset="0.5" stop-color="#bad8df"></stop></linearGradient><linearGradient id="linear-gradient-55" x1="652.64" y1="489.79" x2="690.55" y2="489.79" xlink:href="#linear-gradient-6"></linearGradient><linearGradient id="linear-gradient-56" x1="716.61" y1="468.23" x2="724.86" y2="468.23" xlink:href="#linear-gradient-6"></linearGradient><linearGradient id="linear-gradient-57" x1="716.61" y1="472.63" x2="724.86" y2="472.63" xlink:href="#linear-gradient-6"></linearGradient><linearGradient id="linear-gradient-58" x1="716.61" y1="477.2" x2="724.86" y2="477.2" xlink:href="#linear-gradient-6"></linearGradient><linearGradient id="linear-gradient-59" x1="716.61" y1="481.83" x2="724.86" y2="481.83" xlink:href="#linear-gradient-6"></linearGradient><linearGradient id="linear-gradient-60" x1="716.61" y1="486.22" x2="724.86" y2="486.22" xlink:href="#linear-gradient-6"></linearGradient><linearGradient id="linear-gradient-61" x1="716.61" y1="490.8" x2="724.86" y2="490.8" xlink:href="#linear-gradient-6"></linearGradient><linearGradient id="linear-gradient-62" x1="716.61" y1="495.37" x2="724.86" y2="495.37" xlink:href="#linear-gradient-6"></linearGradient><linearGradient id="linear-gradient-63" x1="716.61" y1="499.76" x2="724.86" y2="499.76" xlink:href="#linear-gradient-6"></linearGradient><linearGradient id="linear-gradient-64" x1="701.35" y1="468.23" x2="709.6" y2="468.23" xlink:href="#linear-gradient-6"></linearGradient><linearGradient id="linear-gradient-65" x1="701.35" y1="472.63" x2="709.6" y2="472.63" xlink:href="#linear-gradient-6"></linearGradient><linearGradient id="linear-gradient-66" x1="660.72" y1="504.65" x2="694.98" y2="504.65" xlink:href="#linear-gradient-46"></linearGradient><linearGradient id="linear-gradient-67" x1="695.28" y1="505.13" x2="742.26" y2="505.13" xlink:href="#linear-gradient-6"></linearGradient><linearGradient id="linear-gradient-68" x1="697.57" y1="505.13" x2="703.17" y2="505.13" xlink:href="#linear-gradient-46"></linearGradient><linearGradient id="linear-gradient-69" x1="680.09" y1="490.23" x2="753.06" y2="490.23" xlink:href="#linear-gradient-6"></linearGradient><linearGradient id="linear-gradient-70" x1="1003.21" y1="482.86" x2="1100.99" y2="482.86" xlink:href="#linear-gradient-3"></linearGradient><linearGradient id="linear-gradient-71" x1="1017.94" y1="482.78" x2="1086.82" y2="482.78" gradientTransform="matrix(1, 0, 0, 1, 0, 0)" xlink:href="#linear-gradient-37"></linearGradient><linearGradient id="linear-gradient-72" x1="1026.36" y1="506.71" x2="1078.4" y2="506.71" gradientTransform="matrix(1, 0, 0, 1, 0, 0)" xlink:href="#linear-gradient-37"></linearGradient><linearGradient id="linear-gradient-73" x1="1026.35" y1="458.84" x2="1078.4" y2="458.84" gradientTransform="matrix(1, 0, 0, 1, 0, 0)" xlink:href="#linear-gradient-37"></linearGradient><linearGradient id="linear-gradient-74" x1="1017.94" y1="482.78" x2="1072.04" y2="482.78" gradientTransform="matrix(1, 0, 0, 1, 0, 0)" xlink:href="#linear-gradient-37"></linearGradient><linearGradient id="linear-gradient-75" x1="1032.38" y1="482.78" x2="1086.82" y2="482.78" gradientTransform="matrix(1, 0, 0, 1, 0, 0)" xlink:href="#linear-gradient-37"></linearGradient><linearGradient id="linear-gradient-76" x1="1049.88" y1="482.77" x2="1054.88" y2="482.77" gradientTransform="matrix(1, 0, 0, 1, 0, 0)" xlink:href="#linear-gradient-37"></linearGradient><linearGradient id="linear-gradient-77" x1="1020.44" y1="482.77" x2="1084.32" y2="482.77" gradientTransform="matrix(1, 0, 0, 1, 0, 0)" xlink:href="#linear-gradient-37"></linearGradient><linearGradient id="linear-gradient-78" x1="52.45" y1="55.72" x2="418.1" y2="55.72" xlink:href="#linear-gradient-46"></linearGradient><linearGradient id="linear-gradient-79" x1="709.98" y1="55.72" x2="1034.88" y2="55.72" xlink:href="#linear-gradient-46"></linearGradient></defs><g id="Layer_2" data-name="Layer 2"><g id="Copy"><path class="cls-1" d="M1081.32,474.45c0,115.53-93.66,209.19-209.2,209.19S662.93,590,662.93,474.45s93.66-209.19,209.19-209.19c108.32,0,197.4,82.31,208.12,187.8"></path><polyline class="cls-2" points="726.37 316.03 726.37 361.47 767.43 361.47"></polyline><polyline class="cls-2" points="993.83 384.44 993.83 339 1034.89 339"></polyline><polyline class="cls-2" points="1004.58 642.38 1004.58 596.94 963.52 596.94"></polyline><polyline class="cls-2" points="754.75 570.8 754.75 616.23 713.7 616.23"></polyline><circle class="cls-3" cx="235.27" cy="472.97" r="233.07"></circle><path class="cls-4" d="M472.85,473a236.55,236.55,0,0,1-451,99.83A234.47,234.47,0,0,1,441.31,363.43a231.78,231.78,0,0,1,25.83,85.71,231.45,231.45,0,0,0-26.33-85.45,234.62,234.62,0,0,0-56.51-69.17,231.51,231.51,0,1,0-143.15,408A228.95,228.95,0,0,0,463.85,473h0a4.5,4.5,0,1,1,9,0Z"></path><path class="cls-5" d="M403.88,472.56A168.32,168.32,0,0,1,302.44,626.3a166.63,166.63,0,0,1-141.1-301.82,164.76,164.76,0,0,1,237.2,131.31,163,163,0,0,0-18.62-60.13A165,165,0,0,0,340.1,347,162.39,162.39,0,0,0,125.7,590.89,160.32,160.32,0,0,0,394.88,472.56h0a4.5,4.5,0,1,1,9,0Z"></path><circle class="cls-6" cx="235.27" cy="472.56" r="158.79"></circle><circle class="cls-7" cx="870.6" cy="473.89" r="156.5"></circle><circle class="cls-8" cx="872.12" cy="295.95" r="48.88"></circle><path class="cls-9" d="M889,279.44l-2.18,14.24-.36,2.33v-1.78c-.55.79-2,2.19-5.93,3.54-4.9,1.69-13.76,6.58-21.22,11.88V296l-2.54-16.57Z"></path><path class="cls-10" d="M859.33,305.44v4.21l-1.27.91Z"></path><path class="cls-11" d="M889.52,317.76H856.29l.42-1.69a3.68,3.68,0,0,0,2.62-.6,11.13,11.13,0,0,0,2.95-2.59c2.11-2.54,11.55-8.32,18.81-12.27,4-2.06,4.51-2.7,5.39-3.74v8.57Z"></path><path class="cls-12" d="M886.48,296.87c-.41,1.3-1.44,1.68-5.39,3.74-7.26,3.95-16.7,9.74-18.82,12.27a10.83,10.83,0,0,1-2.95,2.59,3.65,3.65,0,0,1-2.61.6l1.35-5.51,1.26-.91c7.47-5.29,16.33-10.19,21.23-11.88,3.9-1.34,5.37-2.75,5.93-3.54a1.72,1.72,0,0,0,.32-.63.48.48,0,0,1,0,.08A17.37,17.37,0,0,1,886.48,296.87Z"></path><rect class="cls-13" x="856.29" y="317.76" width="33.23" height="0.48"></rect><rect class="cls-14" x="856.29" y="318.72" width="33.23" height="0.48"></rect><rect class="cls-15" x="856.29" y="318.24" width="33.23" height="0.48"></rect><rect class="cls-16" x="856.29" y="319.2" width="33.23" height="0.48"></rect><rect class="cls-17" x="856.79" y="277.53" width="32.23" height="0.48"></rect><rect class="cls-18" x="856.79" y="278.49" width="32.23" height="0.48"></rect><rect class="cls-19" x="856.79" y="278.01" width="32.23" height="0.48"></rect><rect class="cls-20" x="856.79" y="278.96" width="32.23" height="0.48"></rect><path class="cls-11" d="M863.87,294.3a5,5,0,0,1,3.92-5.19,7.67,7.67,0,0,1,2.65-.26.47.47,0,0,0,.47-.22,6.64,6.64,0,0,1,3.43-2.7,5,5,0,0,1,4.39.71,6,6,0,0,1,2.71,3.62,2.53,2.53,0,0,1-1.85,3.26,2.43,2.43,0,0,1-1.51-.09,5.24,5.24,0,0,0-5.16.84,7.1,7.1,0,0,0-2,2.3,6.76,6.76,0,0,1-1.53,2.1,2.62,2.62,0,0,1-2.58.69,3.37,3.37,0,0,1-1.69-1.33A6.51,6.51,0,0,1,863.87,294.3ZM875,291.72a.71.71,0,0,0-.15-.09,13.8,13.8,0,0,0-3.31-1.14,6.79,6.79,0,0,0-3.84.23,3.36,3.36,0,0,0-2,1.88,4.68,4.68,0,0,0,.15,3.6,3.36,3.36,0,0,0,1.2,1.58.86.86,0,0,0,1,.06,2.85,2.85,0,0,0,1-.95c.23-.37.44-.74.66-1.11A8,8,0,0,1,875,291.72Zm-2.56-2.6c.67.23,1.33.43,2,.68a26.84,26.84,0,0,1,4.05,2.11,1.17,1.17,0,0,0,.73.16,1,1,0,0,0,.81-1.41,4.55,4.55,0,0,0-1.83-2.61C876,286.48,873.87,287.22,872.43,289.12Z"></path><path class="cls-11" d="M876.73,292.08s-5-2.83-7.4-2.44S864.4,291,865,294.29s.19,4.7,2.25,4.43,6-6.63,8.06-6.32S876.73,292.08,876.73,292.08Z"></path><path class="cls-21" d="M880.26,292.08s1.69-2.72-.22-4-4.06-2.37-5.85-1.29a9.3,9.3,0,0,0-2.7,2.42s6.32,2.23,7,3.15S880.26,292.08,880.26,292.08Z"></path><polygon class="cls-22" points="901.46 277.66 895.02 277.66 890.92 282.85 905.55 282.85 901.46 277.66"></polygon><polygon class="cls-23" points="904.21 301.45 892.27 301.45 890.92 297.63 905.55 297.63 904.21 301.45"></polygon><path class="cls-24" d="M902.24,320.06h-8a2.79,2.79,0,0,1-2.62-1.85l-.69-2h14.63l-.69,2A2.77,2.77,0,0,1,902.24,320.06Z"></path><polygon class="cls-25" points="904.21 301.23 892.27 301.23 890.92 305.05 905.55 305.05 904.21 301.23"></polygon><rect class="cls-26" x="890.87" y="282.85" width="14.73" height="1.4"></rect><rect class="cls-27" x="890.87" y="284.25" width="14.73" height="11.24"></rect><rect class="cls-28" x="890.92" y="305" width="14.63" height="11.24"></rect><rect class="cls-29" x="890.92" y="295.48" width="14.63" height="2.15"></rect><path class="cls-30" d="M895,271.71h6.38a.45.45,0,0,1,.45.45v3.63a0,0,0,0,1,0,0H894.6a0,0,0,0,1,0,0v-3.63a.45.45,0,0,1,.45-.45Z"></path><rect class="cls-31" x="895.02" y="275.79" width="6.47" height="1.86"></rect><rect class="cls-11" x="895.82" y="285.37" width="8.9" height="1.34"></rect><rect class="cls-11" x="892.04" y="293.47" width="8.9" height="1.34"></rect><rect class="cls-11" x="892.04" y="291.41" width="6.67" height="1.34"></rect><rect class="cls-32" x="838.64" y="291.02" width="23.4" height="26.42"></rect><polygon class="cls-33" points="861.1 320.2 839.58 320.2 838.64 317.44 862.04 317.44 861.1 320.2"></polygon><polygon class="cls-34" points="860.57 288.01 840.12 288.01 838.64 291.01 862.04 291.01 860.57 288.01"></polygon><polygon class="cls-35" points="861.35 286.22 839.34 286.22 840.1 288.01 860.59 288.01 861.35 286.22"></polygon><rect class="cls-36" x="839.34" y="285.37" width="22.01" height="0.85"></rect><circle class="cls-11" cx="850.34" cy="300.38" r="6.23"></circle><rect class="cls-11" x="840.69" y="314.92" width="19.3" height="1.58"></rect><rect class="cls-11" x="840.69" y="312.4" width="19.3" height="1.58"></rect><rect class="cls-11" x="840.69" y="309.98" width="19.3" height="1.58"></rect><circle class="cls-37" cx="872.7" cy="650.48" r="48.88"></circle><rect class="cls-38" x="842.48" y="629.34" width="7.26" height="26.67" transform="matrix(0.87, 0.5, -0.5, 0.87, 434.69, -336.95)"></rect><path class="cls-39" d="M886.87,647.41H890a2,2,0,0,1,2,2v18a0,0,0,0,1,0,0h-7.26a0,0,0,0,1,0,0v-18a2,2,0,0,1,2-2Z" transform="translate(1923.1 268.71) rotate(122.91)"></path><path class="cls-40" d="M882.56,653.42h3.18a2,2,0,0,1,2,2v16a0,0,0,0,1,0,0h-7.26a0,0,0,0,1,0,0v-16a2,2,0,0,1,2-2Z" transform="translate(1920.67 280.09) rotate(122.91)"></path><path class="cls-41" d="M878.7,658.61h3.18a2,2,0,0,1,2,2v14.61a0,0,0,0,1,0,0h-7.26a0,0,0,0,1,0,0V660.65A2,2,0,0,1,878.7,658.61Z" transform="translate(1918.46 290.23) rotate(122.91)"></path><path class="cls-42" d="M874.26,664.27h3.18a2,2,0,0,1,2,2v11.85a0,0,0,0,1,0,0h-7.26a0,0,0,0,1,0,0V666.31a2,2,0,0,1,2-2Z" transform="translate(1915.21 300.56) rotate(122.91)"></path><rect class="cls-43" x="895.24" y="629.34" width="7.26" height="26.67" transform="translate(-200.91 535.54) rotate(-30)"></rect><path class="cls-44" d="M844.57,652.6s5.62,9.88,23.47,17.89l14.22-21.37-15.54-13.26s-7,4.66-12.27-.63C854.54,635.31,844.57,652.6,844.57,652.6Z"></path><path class="cls-45" d="M862.66,636.05h3.18a2,2,0,0,1,2,2v13.82a0,0,0,0,1,0,0h-7.26a0,0,0,0,1,0,0V638.1A2,2,0,0,1,862.66,636.05Z" transform="translate(1093.16 1697.19) rotate(-138.95)"></path><path class="cls-46" d="M866.72,635.62s12-3,19.19.65c-.08,0,1,.88,4.43-.34l.78-.41,10.66,18.09-6.39,4S872.23,642.74,871,641.82,866.72,635.62,866.72,635.62Z"></path><path class="cls-47" d="M849.74,654.81h3.18a2,2,0,0,1,2,2v6.94a1.11,1.11,0,0,1-1.11,1.11h-5a1.11,1.11,0,0,1-1.11-1.11v-6.94a2,2,0,0,1,2-2Z" transform="translate(443.98 -337.26) rotate(30)"></path><path class="cls-48" d="M867.71,665.29h3.18a2,2,0,0,1,2,2v6.94a1.11,1.11,0,0,1-1.11,1.11h-5a1.11,1.11,0,0,1-1.11-1.11v-6.94a2,2,0,0,1,2-2Z" transform="translate(451.63 -344.84) rotate(30)"></path><path class="cls-49" d="M856.7,655.23h3.18a2,2,0,0,1,2,2v10.32a1.11,1.11,0,0,1-1.11,1.11h-5a1.11,1.11,0,0,1-1.11-1.11V657.27a2,2,0,0,1,2-2Z" transform="matrix(0.87, 0.5, -0.5, 0.87, 445.97, -340.46)"></path><path class="cls-50" d="M862,660.75h3.18a2,2,0,0,1,2,2v8.05a1.11,1.11,0,0,1-1.11,1.11h-5a1.11,1.11,0,0,1-1.11-1.11v-8.05a2,2,0,0,1,2-2Z" transform="matrix(0.87, 0.5, -0.5, 0.87, 448.88, -342.54)"></path><circle class="cls-51" cx="696.51" cy="483.57" r="48.88"></circle><polygon class="cls-52" points="714.42 464.54 727.16 457.08 727.16 506.3 714.42 506.3 714.42 464.54"></polygon><polygon class="cls-53" points="712 457.08 712 477.2 699.27 477.2 699.27 464.27 712 457.08"></polygon><path class="cls-54" d="M711,483V506.3H676.76V483a2.78,2.78,0,0,1,2.78-2.77h28.7A2.78,2.78,0,0,1,711,483Z"></path><path class="cls-55" d="M711,483v20.25H676.76V483a2.78,2.78,0,0,1,2.78-2.77h28.7A2.78,2.78,0,0,1,711,483Z"></path><rect class="cls-56" x="660.97" y="495.21" width="15.8" height="11.09"></rect><circle class="cls-57" cx="670.53" cy="505.13" r="5.09"></circle><circle class="cls-58" cx="670.53" cy="505.13" r="2.8"></circle><rect class="cls-59" x="711.02" y="503.01" width="2.2" height="3.3"></rect><polygon class="cls-60" points="676.76 484.37 667.36 484.37 660.97 495.21 676.76 495.21 676.76 484.37"></polygon><polygon class="cls-61" points="674.3 486.06 667.83 486.06 663.43 493.52 674.3 493.52 674.3 486.06"></polygon><rect class="cls-62" x="716.61" y="467.14" width="8.25" height="2.19"></rect><rect class="cls-63" x="716.61" y="471.53" width="8.25" height="2.19"></rect><rect class="cls-64" x="716.61" y="476.1" width="8.25" height="2.19"></rect><rect class="cls-65" x="716.61" y="480.74" width="8.25" height="2.19"></rect><rect class="cls-66" x="716.61" y="485.13" width="8.25" height="2.19"></rect><rect class="cls-67" x="716.61" y="489.7" width="8.25" height="2.19"></rect><rect class="cls-68" x="716.61" y="494.27" width="8.25" height="2.19"></rect><rect class="cls-69" x="716.61" y="498.67" width="8.25" height="2.19"></rect><rect class="cls-70" x="701.35" y="467.14" width="8.25" height="2.19"></rect><rect class="cls-71" x="701.35" y="471.53" width="8.25" height="2.19"></rect><rect class="cls-72" x="676.76" y="503.01" width="34.26" height="3.3"></rect><circle class="cls-73" cx="700.37" cy="505.13" r="5.09"></circle><circle class="cls-74" cx="700.37" cy="505.13" r="2.8"></circle><path class="cls-75" d="M700.08,490.31c0-.19,0-.37,0-.56l1.24-.32-.56-2.13-1.26.33a6.21,6.21,0,0,0-1-1.51l.81-1.05-1.73-1.35-.83,1.07a6.17,6.17,0,0,0-1.71-.58v-1.35h-2.2v1.35a6.37,6.37,0,0,0-1.63.54l-.81-1.08L688.59,485l.8,1.06a6.46,6.46,0,0,0-.81,1.06l-1.23-.46-.76,2.06,1.21.45a6.23,6.23,0,0,0-.11,1.15c0,.13,0,.27,0,.4l-1.23.32.56,2.13,1.2-.31a6.38,6.38,0,0,0,1,1.58l-.74,1,1.74,1.34.73-1a5.91,5.91,0,0,0,1.8.62v1.2H695v-1.2a6,6,0,0,0,1.72-.57l.72,1,1.76-1.32-.73-1a6,6,0,0,0,.81-1.11l1.16.43.76-2.06-1.19-.44A5.55,5.55,0,0,0,700.08,490.31Zm-6.19,4.14a4.22,4.22,0,1,1,4.22-4.22A4.22,4.22,0,0,1,693.89,494.45Z"></path><circle class="cls-76" cx="1052.1" cy="482.86" r="48.88"></circle><path class="cls-77" d="M1084.32,482.77a31.94,31.94,0,0,1-31.94,31.94h-.25a31.94,31.94,0,0,1,0-63.87h.25a31.94,31.94,0,0,1,31.94,31.93Z"></path><path class="cls-78" d="M1074.5,505.81a31.81,31.81,0,0,1-22.12,8.9h-.25a31.83,31.83,0,0,1-21.88-8.9,38,38,0,0,1,44.25,0Z"></path><path class="cls-79" d="M1074.5,459.74a38,38,0,0,1-35,4.87,38.18,38.18,0,0,1-9.25-4.87,31.81,31.81,0,0,1,21.88-8.9h.25A31.83,31.83,0,0,1,1074.5,459.74Z"></path><path class="cls-80" d="M1069.54,482.77a37.86,37.86,0,0,1-4.56,18.08,38.27,38.27,0,0,1-12.6,13.7l-.17.11-.08.05a31.94,31.94,0,0,1,0-63.87l.08.05.17.11a38.27,38.27,0,0,1,12.6,13.7A37.85,37.85,0,0,1,1069.54,482.77Z"></path><path class="cls-81" d="M1084.32,482.77a31.94,31.94,0,0,1-31.94,31.94h-.08l-.09-.05A38.18,38.18,0,0,1,1039.5,501a38,38,0,0,1,0-36.34,38.21,38.21,0,0,1,12.71-13.72l.09-.05h.08a31.94,31.94,0,0,1,31.94,31.93Z"></path><line class="cls-82" x1="1052.38" y1="450.83" x2="1052.38" y2="514.71"></line><line class="cls-83" x1="1020.44" y1="482.77" x2="1084.32" y2="482.77"></line><path class="cls-84" d="M855.08,474.17V462.66a2.46,2.46,0,0,1,.67-1.84,2.38,2.38,0,0,1,1.73-.66,2.43,2.43,0,0,1,1.76.65,2.51,2.51,0,0,1,.67,1.85v11.25a6,6,0,0,0,.59,2.7,4.74,4.74,0,0,0,1.74,1.92,4.9,4.9,0,0,0,2.62.71,4.53,4.53,0,0,0,3.55-1.58,5.47,5.47,0,0,0,1.4-3.75V462.66a2.46,2.46,0,0,1,.67-1.84,2.38,2.38,0,0,1,1.74-.66,2.43,2.43,0,0,1,1.75.65,2.51,2.51,0,0,1,.66,1.85v11.51a9.25,9.25,0,0,1-2.86,6.76,9.49,9.49,0,0,1-3.13,2,9.75,9.75,0,0,1-3.78.73,10,10,0,0,1-4.91-1.24,9.33,9.33,0,0,1-3.56-3.41A9.24,9.24,0,0,1,855.08,474.17Z"></path><path class="cls-84" d="M877.22,480.9V468.53a2.66,2.66,0,0,1,.64-1.86,2.11,2.11,0,0,1,1.67-.72,2.2,2.2,0,0,1,1.46.46,1.92,1.92,0,0,1,.68,1.26,5.1,5.1,0,0,1,4.47-1.91,7,7,0,0,1,3.28.75,5.47,5.47,0,0,1,2.26,2.16,6.46,6.46,0,0,1,.82,3.34v8.89a3,3,0,0,1-.3,1.35,2.22,2.22,0,0,1-.83.91,2.25,2.25,0,0,1-1.2.32,2.14,2.14,0,0,1-1.67-.71,2.69,2.69,0,0,1-.64-1.87v-8.09a3.12,3.12,0,0,0-.85-2.37,3,3,0,0,0-2.19-.81,3,3,0,0,0-1.59.42,2.75,2.75,0,0,0-1,1.12,3.73,3.73,0,0,0-.35,1.64v8.09a3,3,0,0,1-.3,1.35,2.22,2.22,0,0,1-.83.91,2.25,2.25,0,0,1-1.2.32,2.14,2.14,0,0,1-1.67-.71A2.69,2.69,0,0,1,877.22,480.9Z"></path><path class="cls-84" d="M897.39,459a2.41,2.41,0,0,1,1.29.36,2.82,2.82,0,0,1,1,.95,2.27,2.27,0,0,1,.37,1.24,2.65,2.65,0,0,1-.77,1.88,2.46,2.46,0,0,1-1.85.79,2.43,2.43,0,0,1-1.81-.82,2.58,2.58,0,0,1-.8-1.85,2.43,2.43,0,0,1,.8-1.78A2.52,2.52,0,0,1,897.39,459Zm-2.31,21.9V468.53a2.66,2.66,0,0,1,.64-1.86,2.11,2.11,0,0,1,1.67-.72,2.33,2.33,0,0,1,1.21.32,2.25,2.25,0,0,1,.83.92,3,3,0,0,1,.29,1.34V480.9a3.08,3.08,0,0,1-.29,1.35,2.18,2.18,0,0,1-.84.91,2.22,2.22,0,0,1-1.2.32,2.14,2.14,0,0,1-1.67-.71A2.69,2.69,0,0,1,895.08,480.9Z"></path><path class="cls-84" d="M905.91,481.55l-4.68-12a4.07,4.07,0,0,1-.28-1.35,2.08,2.08,0,0,1,.71-1.67,2.56,2.56,0,0,1,1.72-.6,2.08,2.08,0,0,1,2.06,1.65l3,9.15h.06l3-9.15a2.05,2.05,0,0,1,2.06-1.65,2.59,2.59,0,0,1,1.71.59,2.06,2.06,0,0,1,.7,1.68,3.83,3.83,0,0,1-.28,1.35l-4.68,12A3.63,3.63,0,0,1,910,483a3.06,3.06,0,0,1-3.21,0A4,4,0,0,1,905.91,481.55Z"></path><path class="cls-84" d="M930.82,476.27h-9.88a3.51,3.51,0,0,0,1.45,2.51,5,5,0,0,0,2.92.85,4.3,4.3,0,0,0,1.79-.33c.5-.22,1.12-.54,1.86-.94a4.09,4.09,0,0,1,1.61-.61,1.65,1.65,0,0,1,.92.3,2.21,2.21,0,0,1,.72.74,2,2,0,0,1,.26,1,2.1,2.1,0,0,1-.67,1.44,6.18,6.18,0,0,1-1.77,1.26,11.67,11.67,0,0,1-2.5.9,11,11,0,0,1-2.64.34,8.94,8.94,0,0,1-4.54-1.16,8,8,0,0,1-3.08-3.19,9.66,9.66,0,0,1-1.08-4.59,9.27,9.27,0,0,1,.62-3.37,9.48,9.48,0,0,1,1.73-2.91,8,8,0,0,1,9.35-2,8.35,8.35,0,0,1,2.65,2,9.6,9.6,0,0,1,1.7,2.74,7.79,7.79,0,0,1,.61,3A1.81,1.81,0,0,1,930.82,476.27Zm-10-3.1h7.38a4.25,4.25,0,0,0-1.17-2.56,3.41,3.41,0,0,0-2.53-1,3.35,3.35,0,0,0-2.49,1A4.23,4.23,0,0,0,920.83,473.17Z"></path><path class="cls-84" d="M934.44,480.9V468.28a2.13,2.13,0,0,1,.72-1.71,2.41,2.41,0,0,1,1.66-.62c1.51,0,2.26.65,2.26,1.94h.07a4.88,4.88,0,0,1,1.45-1.48,3.3,3.3,0,0,1,1.8-.46,2.22,2.22,0,0,1,1.58.65,2.42,2.42,0,0,1,.67,1.84,1.42,1.42,0,0,1-.35,1.05,3,3,0,0,1-1,.62l-1.45.58a8.8,8.8,0,0,0-2.09,1.25,2.35,2.35,0,0,0-.71,1.85v7.11a2.94,2.94,0,0,1-.29,1.35,2.24,2.24,0,0,1-.84.91,2.21,2.21,0,0,1-1.19.32,2.15,2.15,0,0,1-1.68-.71A2.69,2.69,0,0,1,934.44,480.9Z"></path><path class="cls-84" d="M956.9,469.12a2.14,2.14,0,0,1-.54,1.43,1.71,1.71,0,0,1-1.35.62,4.16,4.16,0,0,1-1.38-.45c-.67-.31-1.2-.53-1.56-.68a3.24,3.24,0,0,0-1.23-.22,1.82,1.82,0,0,0-1.12.33,1.12,1.12,0,0,0-.45,1q0,.67,1.38,1.29c.92.4,1.9.82,2.93,1.24a8,8,0,0,1,2.65,1.71,3.83,3.83,0,0,1,1.09,2.88,5,5,0,0,1-.81,2.79,5.59,5.59,0,0,1-2.34,2,8,8,0,0,1-3.46.72,9.83,9.83,0,0,1-2.88-.47,7.62,7.62,0,0,1-2.56-1.31,2.36,2.36,0,0,1-1-1.81,2.27,2.27,0,0,1,.56-1.35,1.75,1.75,0,0,1,1.44-.71,2.67,2.67,0,0,1,1.1.2,10.17,10.17,0,0,1,1.19.6,9,9,0,0,0,1.24.6,3.74,3.74,0,0,0,1.29.19,2.29,2.29,0,0,0,1.42-.33,1.17,1.17,0,0,0,.4-1c0-.46-.45-.88-1.34-1.26s-1.87-.81-2.94-1.25a8.12,8.12,0,0,1-2.69-1.74,3.9,3.9,0,0,1-1.09-2.89,5.07,5.07,0,0,1,.8-2.81,5.38,5.38,0,0,1,2.24-1.91,7.4,7.4,0,0,1,3.26-.69,9.64,9.64,0,0,1,2.61.38,6,6,0,0,1,2.26,1.15A2.32,2.32,0,0,1,956.9,469.12Z"></path><path class="cls-84" d="M974.82,469v11.47a5.4,5.4,0,0,1-.37,2.19c-.25.56-.87.83-1.86.83a2,2,0,0,1-1.45-.49,3,3,0,0,1-.77-1.46,5.63,5.63,0,0,1-4.42,2.16,6.94,6.94,0,0,1-3.9-1.15,7.85,7.85,0,0,1-2.77-3.19,10.39,10.39,0,0,1-1-4.6,10.13,10.13,0,0,1,1-4.54,8.23,8.23,0,0,1,2.78-3.26,6.79,6.79,0,0,1,3.86-1.19,5.94,5.94,0,0,1,2.49.54,4.66,4.66,0,0,1,1.93,1.59,2,2,0,0,1,.73-1.39,2.2,2.2,0,0,1,1.49-.55q1.49,0,1.86.84A5.48,5.48,0,0,1,974.82,469Zm-11.89,5.77a6.37,6.37,0,0,0,.41,2.26,4.08,4.08,0,0,0,1.25,1.75,3.06,3.06,0,0,0,2,.67,3,3,0,0,0,2.65-1.41,5.73,5.73,0,0,0,.94-3.27,6.5,6.5,0,0,0-.4-2.27,4.2,4.2,0,0,0-1.23-1.78,2.91,2.91,0,0,0-2-.7,3.06,3.06,0,0,0-2,.69,4,4,0,0,0-1.25,1.79A6.29,6.29,0,0,0,962.93,474.76Z"></path><path class="cls-84" d="M977.41,480.9V461.05a2.72,2.72,0,0,1,.63-1.86,2.18,2.18,0,0,1,1.68-.71,2.2,2.2,0,0,1,1.2.32,2.16,2.16,0,0,1,.83.91,2.91,2.91,0,0,1,.3,1.34V480.9a3,3,0,0,1-.3,1.35,2.31,2.31,0,0,1-3.71.52A2.73,2.73,0,0,1,977.41,480.9Z"></path><path class="cls-84" d="M855.27,507.94V489.82a2.57,2.57,0,0,1,.63-1.84,2.43,2.43,0,0,1,1.85-.67h5.67a8.87,8.87,0,0,1,5.94,1.78q2.08,1.8,2.08,5.5A6,6,0,0,1,871,497a5.44,5.44,0,0,1-1.29,1.81,6.7,6.7,0,0,1-1.89,1.23,10.07,10.07,0,0,1-2.33.69l5.49,5.85a2.12,2.12,0,0,1,.63,1.43,2.45,2.45,0,0,1-.7,1.73,2.44,2.44,0,0,1-3.58-.09l-7.16-8.67h-.07v7a2.49,2.49,0,0,1-.66,1.85,2.42,2.42,0,0,1-1.74.65,2.35,2.35,0,0,1-1.74-.67A2.41,2.41,0,0,1,855.27,507.94Zm4.82-16.18v5.7h3.33a3.1,3.1,0,0,0,2.17-.77,2.72,2.72,0,0,0,.83-2.09,2.64,2.64,0,0,0-.83-2.1,3.12,3.12,0,0,0-2.17-.74Z"></path><path class="cls-84" d="M880.7,492.72a7.69,7.69,0,0,1,3.34.73,8.33,8.33,0,0,1,2.66,2,9.37,9.37,0,0,1,1.72,2.87,9.62,9.62,0,0,1,.6,3.4,9.78,9.78,0,0,1-.6,3.43,8.9,8.9,0,0,1-1.69,2.85,7.81,7.81,0,0,1-2.64,1.94,8.21,8.21,0,0,1-3.39.72,7.94,7.94,0,0,1-4.32-1.21,8.23,8.23,0,0,1-3-3.26,9.8,9.8,0,0,1-1-4.47,9.6,9.6,0,0,1,.6-3.36,9.29,9.29,0,0,1,1.73-2.91,8.08,8.08,0,0,1,2.66-2A7.74,7.74,0,0,1,880.7,492.72Zm0,4.25a3.07,3.07,0,0,0-2,.69,4,4,0,0,0-1.25,1.79,6.27,6.27,0,0,0-.41,2.26,6.18,6.18,0,0,0,.42,2.27,4.14,4.14,0,0,0,1.24,1.75,3.37,3.37,0,0,0,4,0A4.14,4.14,0,0,0,884,504a6.18,6.18,0,0,0,.42-2.27,6.54,6.54,0,0,0-.41-2.26,4.15,4.15,0,0,0-1.24-1.78A3.06,3.06,0,0,0,880.7,497Z"></path><path class="cls-84" d="M891,507.86V488a2.68,2.68,0,0,1,.64-1.86,2.11,2.11,0,0,1,1.67-.71,2.24,2.24,0,0,1,1.21.32,2.2,2.2,0,0,1,.82.91,2.91,2.91,0,0,1,.3,1.34v6.32a6.24,6.24,0,0,1,2-1.19,6.87,6.87,0,0,1,2.36-.42,6.48,6.48,0,0,1,4.07,1.31,8.2,8.2,0,0,1,2.55,3.41,11.64,11.64,0,0,1,.87,4.47,9.89,9.89,0,0,1-.95,4.23,8.17,8.17,0,0,1-2.72,3.26,6.72,6.72,0,0,1-4,1.25,5.67,5.67,0,0,1-2.45-.56,4.19,4.19,0,0,1-1.8-1.57,2.23,2.23,0,0,1-2.33,1.92,2.11,2.11,0,0,1-1.67-.72A2.65,2.65,0,0,1,891,507.86Zm4.64-6.3a6.12,6.12,0,0,0,.94,3.36,3,3,0,0,0,2.7,1.48,2.93,2.93,0,0,0,2-.7,4.2,4.2,0,0,0,1.25-1.75,6.27,6.27,0,0,0,.41-2.24,6.44,6.44,0,0,0-.41-2.25,4.41,4.41,0,0,0-1.24-1.79,2.93,2.93,0,0,0-2-.7,3.17,3.17,0,0,0-2,.65,4,4,0,0,0-1.23,1.7A6.1,6.1,0,0,0,895.63,501.56Z"></path><path class="cls-84" d="M911.75,486a2.47,2.47,0,0,1,1.29.37,2.81,2.81,0,0,1,1,.95,2.31,2.31,0,0,1,.36,1.23,2.65,2.65,0,0,1-.76,1.88,2.48,2.48,0,0,1-1.85.8,2.45,2.45,0,0,1-1.82-.82,2.6,2.6,0,0,1-.8-1.86,2.43,2.43,0,0,1,.8-1.77A2.52,2.52,0,0,1,911.75,486Zm-2.31,21.91V495.49a2.69,2.69,0,0,1,.63-1.86,2.14,2.14,0,0,1,1.68-.72,2.29,2.29,0,0,1,1.2.32,2.25,2.25,0,0,1,.83.92,2.91,2.91,0,0,1,.3,1.34v12.37a3,3,0,0,1-.3,1.35,2.24,2.24,0,0,1-.84.91,2.28,2.28,0,0,1-1.19.32,2.14,2.14,0,0,1-1.68-.72A2.69,2.69,0,0,1,909.44,507.86Z"></path><path class="cls-84" d="M916.66,507.86V495.49a2.65,2.65,0,0,1,.64-1.86,2.11,2.11,0,0,1,1.67-.72,2.25,2.25,0,0,1,1.46.45,2,2,0,0,1,.68,1.27,5.11,5.11,0,0,1,4.47-1.91,7,7,0,0,1,3.28.75,5.45,5.45,0,0,1,2.26,2.15,6.52,6.52,0,0,1,.82,3.35v8.89a3,3,0,0,1-.3,1.35,2.24,2.24,0,0,1-.84.91,2.28,2.28,0,0,1-1.19.32,2.15,2.15,0,0,1-1.68-.72,2.69,2.69,0,0,1-.63-1.86v-8.09a3.11,3.11,0,0,0-.85-2.37,3,3,0,0,0-2.19-.81,3,3,0,0,0-1.59.42,2.69,2.69,0,0,0-1,1.12,3.6,3.6,0,0,0-.35,1.64v8.09a3,3,0,0,1-.3,1.35,2.29,2.29,0,0,1-.83.91,2.34,2.34,0,0,1-1.2.32,2.11,2.11,0,0,1-1.67-.72A2.65,2.65,0,0,1,916.66,507.86Z"></path><path class="cls-84" d="M950.45,496v11.47a5.35,5.35,0,0,1-.38,2.19c-.25.56-.87.83-1.86.83a2,2,0,0,1-1.46-.49,3.09,3.09,0,0,1-.76-1.47,5.61,5.61,0,0,1-4.42,2.17,7,7,0,0,1-3.9-1.15,7.75,7.75,0,0,1-2.76-3.19,10.26,10.26,0,0,1-1-4.6,10.12,10.12,0,0,1,1-4.54,8.23,8.23,0,0,1,2.78-3.26,6.81,6.81,0,0,1,3.86-1.19,5.94,5.94,0,0,1,2.49.54,4.71,4.71,0,0,1,1.93,1.58,2.07,2.07,0,0,1,.74-1.39,2.21,2.21,0,0,1,1.48-.54q1.49,0,1.86.84A5.43,5.43,0,0,1,950.45,496Zm-11.9,5.76A6.18,6.18,0,0,0,939,504a4.06,4.06,0,0,0,1.24,1.75,3.11,3.11,0,0,0,2,.67,3,3,0,0,0,2.65-1.41,5.75,5.75,0,0,0,.95-3.28,6.54,6.54,0,0,0-.41-2.26,4.12,4.12,0,0,0-1.22-1.78,3,3,0,0,0-2-.7,3.06,3.06,0,0,0-2,.69,4,4,0,0,0-1.25,1.79A6.5,6.5,0,0,0,938.55,501.71Z"></path><path class="cls-84" d="M849.09,499.86l-15.33-18.51a23.12,23.12,0,0,0,12.62-20.64,23.57,23.57,0,0,0-23.66-23.57c-12.49,0-23.44,10.53-23.44,23.36,0,1.26-.08,21.89-.07,24.58a10.73,10.73,0,0,1-10.82,10.81,11,11,0,0,1-11.17-10.81c0-.82.15-38.87.15-38.87a6.36,6.36,0,1,0-12.71,0v38.87c0,13.81,10.92,23.39,23.75,23.39S812,497.57,812,483.82V460.63a10.89,10.89,0,1,1,21.78,0c-.09,6.26-4.63,11.13-10.68,11.1a6.3,6.3,0,0,0-5.27,10.11C820,484.53,839.29,508,839.29,508a6.36,6.36,0,0,0,9.8-8.12"></path><rect class="cls-85" x="52.45" width="365.65" height="111.44"></rect><rect class="cls-86" x="709.98" width="324.89" height="111.44"></rect><path class="cls-4" d="M52.45,65.71H379.83A38.27,38.27,0,0,1,418.1,104v53.19a0,0,0,0,1,0,0H90.72A38.27,38.27,0,0,1,52.45,118.9V65.71a0,0,0,0,1,0,0Z"></path><path class="cls-4" d="M710,62.23H996.61a38.27,38.27,0,0,1,38.27,38.27v60.16a0,0,0,0,1,0,0H748.25A38.27,38.27,0,0,1,710,122.39V62.23a0,0,0,0,1,0,0Z"></path><text class="cls-87" transform="translate(82.84 124.31)">W<tspan class="cls-88" x="44.75" y="0">h</tspan><tspan x="71.31" y="0">e</tspan><tspan class="cls-89" x="95.57" y="0">r</tspan><tspan class="cls-90" x="112.05" y="0">e-</tspan><tspan class="cls-91" x="151.73" y="0">t</tspan><tspan class="cls-90" x="168.02" y="0">o</tspan><tspan x="193.57" y="0">-Pl</tspan><tspan class="cls-92" x="247.91" y="0">a</tspan><tspan class="cls-93" x="271.27" y="0">y</tspan></text><text class="cls-94" transform="translate(741.7 125.29)">H<tspan class="cls-95" x="32.78" y="0">o</tspan><tspan class="cls-96" x="59.26" y="0">w</tspan><tspan class="cls-97" x="97.41" y="0">-</tspan><tspan class="cls-98" x="113.59" y="0">t</tspan><tspan class="cls-99" x="131.12" y="0">o</tspan><tspan class="cls-100" x="158.62" y="0">-</tspan><tspan x="173.26" y="0">Win</tspan></text><text class="cls-101" transform="translate(166.11 432.63)">G<tspan class="cls-102" x="38.4" y="0">r</tspan><tspan class="cls-103" x="60.14" y="0">o</tspan><tspan x="92.6" y="0">w</tspan><tspan x="25.46" y="59.84">t</tspan><tspan class="cls-104" x="47.75" y="59.84">h</tspan><tspan x="82.8" y="59.84">e</tspan><tspan class="cls-103" x="-4.19" y="119.68">C</tspan><tspan x="31.86" y="119.68">ORE</tspan></text><text class="cls-105" transform="translate(48.7 577.53) rotate(57.02) scale(1.02 1)">E</text><text class="cls-105" transform="translate(66.77 604.82) rotate(48.35) scale(1.02 1)">x</text><text class="cls-105" transform="matrix(0.79, 0.65, -0.64, 0.77, 87.14, 627.58)">p</text><text class="cls-105" transform="matrix(0.88, 0.53, -0.52, 0.86, 113.01, 648.62)">a</text><text class="cls-105" transform="matrix(0.95, 0.39, -0.38, 0.92, 139.59, 664.49)">n</text><text class="cls-105" transform="translate(171.55 677.33) rotate(13.13) scale(1.02 1)">d</text><text class="cls-105" transform="translate(204.06 684.27) rotate(6.73) scale(1.02 1)"> </text><text class="cls-105" transform="translate(218.43 686.01) rotate(2.27) scale(1.02 1)">f</text><text class="cls-105" transform="translate(238.5 687.03) rotate(-4.45) scale(1.02 1)">o</text><text class="cls-105" transform="translate(270.45 684.09) rotate(-11.6) scale(1.02 1)">r</text><text class="cls-105" transform="translate(291.31 679.6) rotate(-16.38) scale(1.02 1)"> </text><text class="cls-105" transform="translate(306.69 675.97) rotate(-24.54) scale(1.02 1)">M</text><text class="cls-105" transform="translate(348.78 656.03) rotate(-36.39) scale(1.02 1)">O</text><text class="cls-105" transform="translate(381.68 631.12) rotate(-46.9) scale(1.02 1)">R</text><text class="cls-105" transform="translate(406.14 604.42) rotate(-56.42) scale(1.02 1)">E</text><text class="cls-106" transform="translate(593.65 469.66)">P<tspan class="cls-107" x="7.73" y="0">r</tspan><tspan x="11.81" y="0">oduct</tspan><tspan x="-28.95" y="14.76">Supply Chain</tspan><tspan class="cls-108" x="-39.95" y="29.53">T</tspan><tspan class="cls-107" x="-33.83" y="29.53">r</tspan><tspan class="cls-109" x="-29.75" y="29.53">ans</tspan><tspan class="cls-110" x="-9.53" y="29.53">f</tspan><tspan x="-5.88" y="29.53">ormation</tspan></text><text class="cls-106" transform="translate(1110.93 469.66)">People<tspan x="0" y="14.76">&amp; Planet </tspan><tspan class="cls-111" x="47.77" y="14.76">F</tspan><tspan x="54.64" y="14.76">riendly</tspan><tspan x="0" y="29.53">Cultu</tspan><tspan class="cls-112" x="28.95" y="29.53">r</tspan><tspan x="33.03" y="29.53">e</tspan></text><text class="cls-106" transform="translate(822.42 719.35)">P<tspan class="cls-107" x="7.73" y="0">r</tspan><tspan x="11.81" y="0">e</tspan><tspan class="cls-110" x="18.66" y="0">f</tspan><tspan x="22.32" y="0">er</tspan><tspan class="cls-107" x="33.41" y="0">r</tspan><tspan x="37.5" y="0">ed Partner</tspan><tspan x="21.93" y="14.76">of Choice</tspan></text><text class="cls-113" transform="translate(827.63 221.57)">P<tspan class="cls-114" x="6.56" y="0">r</tspan><tspan x="10.03" y="0">oducts &amp; B</tspan><tspan class="cls-115" x="59.61" y="0">r</tspan><tspan x="63.08" y="0">ands</tspan><tspan x="14.86" y="12.54">People </tspan><tspan class="cls-116" x="49.54" y="12.54">L</tspan><tspan class="cls-117" x="54.99" y="12.54">ov</tspan><tspan class="cls-118" x="65.78" y="12.54">e</tspan></text></g></g></svg> 