<?xml version="1.0" encoding="UTF-8"?> <svg xmlns="http://www.w3.org/2000/svg" xmlns:xlink="http://www.w3.org/1999/xlink" viewBox="0 0 181 409.07"><defs><style>.cls-1{fill:url(#linear-gradient);}.cls-2{fill:url(#linear-gradient-2);}.cls-3{fill:url(#linear-gradient-3);}.cls-4{fill:url(#linear-gradient-4);}.cls-5{fill:url(#linear-gradient-5);}.cls-6{fill:url(#linear-gradient-6);}.cls-7{fill:url(#linear-gradient-7);}.cls-8{fill:url(#linear-gradient-8);}.cls-9{fill:url(#linear-gradient-9);}.cls-10{fill:url(#linear-gradient-10);}.cls-11{fill:url(#linear-gradient-11);}.cls-12{fill:url(#linear-gradient-12);}.cls-13,.cls-15{fill:#3e2c57;}.cls-13{stroke:#bad8df;stroke-miterlimit:10;stroke-width:2px;}.cls-14{fill:#bad8df;}.cls-16{fill:url(#linear-gradient-13);}.cls-17{fill:url(#linear-gradient-14);}</style><linearGradient id="linear-gradient" x1="2727.09" y1="9814.71" x2="2727.09" y2="9934.35" gradientTransform="translate(2789.09 9961.8) rotate(180)" gradientUnits="userSpaceOnUse"><stop offset="0" stop-color="#3e2b58"></stop><stop offset="0.11" stop-color="#4b3761"></stop><stop offset="0.33" stop-color="#6e5779"></stop><stop offset="0.61" stop-color="#a58b9f"></stop><stop offset="0.96" stop-color="#f2d2d3"></stop><stop offset="1" stop-color="#fcdcda"></stop></linearGradient><linearGradient id="linear-gradient-2" x1="3005.09" y1="5477.24" x2="3005.09" y2="5596.88" gradientTransform="translate(-5396.73 3336.16) rotate(-90)" gradientUnits="userSpaceOnUse"><stop offset="0" stop-color="#bad8df"></stop><stop offset="1" stop-color="#fcdcda"></stop></linearGradient><linearGradient id="linear-gradient-3" x1="5148.97" y1="2033.94" x2="5272.06" y2="2033.94" gradientTransform="matrix(1, 0, 0, -1, -5105.44, 2053.97)" gradientUnits="userSpaceOnUse"><stop offset="0" stop-color="#fcdcda"></stop><stop offset="0.4" stop-color="#ee2741"></stop><stop offset="1" stop-color="#3e2c57"></stop></linearGradient><linearGradient id="linear-gradient-4" x1="5156.03" y1="2062.43" x2="5292.64" y2="2062.43" gradientTransform="matrix(1, 0, 0, -1, -5105.44, 2110.94)" gradientUnits="userSpaceOnUse"><stop offset="0" stop-color="#fcdcda"></stop><stop offset="0.89" stop-color="#221730"></stop></linearGradient><linearGradient id="linear-gradient-5" x1="5130.18" y1="2093.99" x2="5315.96" y2="2093.99" gradientTransform="matrix(-1, 0, 0, 1, 5265.84, -2013.92)" gradientUnits="userSpaceOnUse"><stop offset="0.39" stop-color="#fcdcda"></stop><stop offset="0.89" stop-color="#221730"></stop></linearGradient><linearGradient id="linear-gradient-6" x1="5130.18" y1="2159.03" x2="5310.91" y2="2159.03" gradientTransform="matrix(1, 0, 0, -1, -5105.44, 2304.14)" xlink:href="#linear-gradient-3"></linearGradient><linearGradient id="linear-gradient-7" x1="5130.18" y1="2293.48" x2="5313.84" y2="2293.48" gradientTransform="matrix(1, 0, 0, -1, -5105.44, 2573.04)" xlink:href="#linear-gradient-3"></linearGradient><linearGradient id="linear-gradient-8" x1="5130.18" y1="2396.53" x2="5289.96" y2="2396.53" gradientTransform="matrix(-1, 0, 0, 1, 5265.84, -2013.92)" xlink:href="#linear-gradient-3"></linearGradient><linearGradient id="linear-gradient-9" x1="5133.45" y1="2416.72" x2="5323.86" y2="2416.72" gradientTransform="matrix(-1, 0, 0, 1, 5265.84, -2013.92)" gradientUnits="userSpaceOnUse"><stop offset="0.29" stop-color="#fcdcda"></stop><stop offset="0.89" stop-color="#221730"></stop></linearGradient><linearGradient id="linear-gradient-10" x1="5140.56" y1="2305.37" x2="5268.5" y2="2305.37" gradientTransform="matrix(1, 0, 0, -1, -5105.44, 2596.83)" gradientUnits="userSpaceOnUse"><stop offset="0.46" stop-color="#fcdcda"></stop><stop offset="0.89" stop-color="#3e2c57"></stop></linearGradient><linearGradient id="linear-gradient-11" x1="5140.56" y1="2326.4" x2="5276.29" y2="2326.4" gradientTransform="matrix(1, 0, 0, -1, -5105.44, 2638.88)" xlink:href="#linear-gradient-10"></linearGradient><linearGradient id="linear-gradient-12" x1="5140.56" y1="2347.43" x2="5267.37" y2="2347.43" gradientTransform="matrix(1, 0, 0, -1, -5105.44, 2680.93)" xlink:href="#linear-gradient-10"></linearGradient><linearGradient id="linear-gradient-13" x1="39.77" y1="185.28" x2="84.54" y2="185.28" gradientTransform="matrix(1, 0, 0, 1, 0, 0)" xlink:href="#linear-gradient-2"></linearGradient><linearGradient id="linear-gradient-14" x1="79.85" y1="197.16" x2="124.07" y2="197.16" gradientTransform="matrix(1, 0, 0, 1, 0, 0)" xlink:href="#linear-gradient-2"></linearGradient></defs><g id="Layer_2" data-name="Layer 2"><g id="Design"><path class="cls-1" d="M124,170.6h0A124,124,0,0,0,0,46.6H0v124Z"></path><path class="cls-2" d="M57,393.07h0a124,124,0,0,0,124-124H57Z"></path><path class="cls-3" d="M43.53,0h73.33a0,0,0,0,1,0,0V29.34A10.69,10.69,0,0,1,106.17,40H54.23A10.69,10.69,0,0,1,43.53,29.34V0A0,0,0,0,1,43.53,0Z" transform="translate(160.4 40.03) rotate(-180)"></path><rect class="cls-4" x="50.6" y="40.03" width="59.21" height="16.94" transform="translate(160.4 97.01) rotate(-180)"></rect><polygon class="cls-5" points="24.75 103.17 135.65 103.17 109.8 56.97 50.59 56.97 24.75 103.17"></polygon><path class="cls-6" d="M37.82,103.17h84.77a13.07,13.07,0,0,1,13.07,13.07V187a0,0,0,0,1,0,0H24.75a0,0,0,0,1,0,0V116.24a13.07,13.07,0,0,1,13.07-13.07Z" transform="matrix(-1, 0, 0, -1, 160.4, 290.21)"></path><path class="cls-7" d="M24.75,190.41H135.65a0,0,0,0,1,0,0V355.63a13.07,13.07,0,0,1-13.07,13.07H37.82a13.07,13.07,0,0,1-13.07-13.07V190.41a0,0,0,0,1,0,0Z" transform="translate(160.4 559.11) rotate(-180)"></path><path class="cls-8" d="M24.75,368.7v15.48A24.82,24.82,0,0,0,28,396.51H132.38a24.72,24.72,0,0,0,3.27-12.33V368.7Z"></path><path class="cls-9" d="M28,396.51a24.88,24.88,0,0,0,21.63,12.56h61.12a24.85,24.85,0,0,0,21.62-12.56Z"></path><rect class="cls-10" x="35.12" y="284.22" width="90.16" height="14.47" transform="translate(160.4 582.9) rotate(-180)"></rect><rect class="cls-11" x="35.12" y="305.24" width="90.16" height="14.47" transform="translate(160.4 624.95) rotate(-180)"></rect><rect class="cls-12" x="35.12" y="326.27" width="90.16" height="14.47" transform="translate(160.4 667) rotate(-180)"></rect><path class="cls-13" d="M44.12,168.56s-3.11-11,.52-15.07c4.09-4.61,8.07-4.61,8.07-4.61l49.41-6.56s12.57-3.49,12.57,10.54-7.12,73.78-7.12,73.78-1,5-10.89,7-23.66,4-23.66,4-9.43,3.56-12.15-6.28S44.12,168.56,44.12,168.56Z"></path><path class="cls-14" d="M82.56,169.23l0-.15c.92-2.92,3.1-10.42,3.17-13.17l-.07.16h-.32c-1,0-5.49-1.15-8.82-6.48a12.54,12.54,0,0,1-1.06-2.72c-.26-1-.38-1.39-2.41-3l-.22-.18.1-.25c.09-.2.13-.31,1.56-.31,2.06,0,11.87.49,12.9,9.71.16-.52.33-1.13.47-1.71-.32-1-2.23-7.86,5.38-12.34l.08-.07.17,0h1.38l-1.17.69c-.51.59-4.06,7-3.92,11.82.1.24,0,.78-1.22,4.32-.27.81-.57,1.7-.83,2.5,2.84-4.11,5.89-5.66,8.07-6.23a66.23,66.23,0,0,0,17.27-7.49l.25-.17.37.37-.06.26c0,.14-5.07,14.77-15.73,18.33-4.73.84-9.57,1.16-9.62,1.17l-.5,0,.11-.49A13.87,13.87,0,0,1,92.27,157,12,12,0,0,0,89,160.78a31.12,31.12,0,0,0-3.83,11.58L85,173.61Z"></path><path class="cls-15" d="M93.54,139h0m0,0c-.4.35-4.26,7-4.05,12.24.31,0-2.62,7.85-2.73,9.11.11,0,3.14-6.7,9.22-8.27a67.66,67.66,0,0,0,17.38-7.54c.1.1-5.13,14.65-15.5,18.11-4.71.84-9.53,1.15-9.53,1.15a13.88,13.88,0,0,1,6.39-8.16c2.72-1.26,6-2.41,6-2.41s-8.48.73-12,7.33a31.4,31.4,0,0,0-3.88,11.72L83,169.19s3.67-11.62,3.14-14S86,150,81.39,147.83a8.86,8.86,0,0,1,4.07,7.86s0,0-.07,0c-.64,0-5.15-1-8.5-6.31-1.8-3.49-.21-3.14-3.56-5.86a5.81,5.81,0,0,1,1.21-.07c3.37,0,12.61,1.06,12.61,11,.32,0,1.15-3.35,1.15-3.35s-2.82-7.32,5.21-12m0-.76h-.29l-.17.15c-7.58,4.48-6,11.3-5.56,12.66v0c-1.54-6.14-7.42-8.41-13-8.41-1.34,0-1.71.06-1.9.53l-.19.46.35.36,0,0,0,0c1.94,1.58,2,2,2.29,2.86a12.5,12.5,0,0,0,1.07,2.77l0,0,0,0c3.4,5.44,8.09,6.65,9.11,6.66A86.16,86.16,0,0,1,82.25,169l-.1.31.16.28,1.78,3.14,1.24,2.19.16-2.51a27.84,27.84,0,0,1,2.05-7.73l.81-.05c.05,0,4.91-.33,9.61-1.16H98l0,0c10.85-3.61,16-18.45,16-18.6a.78.78,0,0,0-.19-.75l-.44-.44-.51.34a66.28,66.28,0,0,1-17.15,7.44A13.67,13.67,0,0,0,88.83,156l.13-.41c1.19-3.58,1.38-4.21,1.24-4.55-.08-4.62,3.18-10.58,3.8-11.42l2.28-1.34Z"></path><path class="cls-16" d="M58,218.07c-8,0-12.78-6-15.09-8.88l-.43-.53,0-.13c-10.07-23.61,11.67-46.33,14.19-48.84,7.12-7.12,12.72-7.2,13-7.2h.21l.19.08c.05,0,5.1,2.23,8.39,4l.14.07.1.11c4.91,4.9.82,15.48.27,16.83C78.67,174.83,77.15,184,71.6,184a5.8,5.8,0,0,1-4.7-2.13c-2.66-3.2-2.37-9.28-2-12.32-1.35,1-3.85,3.76-7.47,10.92-4.06,8-5.45,15.2-3.82,19.7a6.86,6.86,0,0,0,3.74,4.15,8.81,8.81,0,0,0,2.51.36c5.65,0,12.49-5.22,19.25-14.7.16-.24.28-.4.35-.49a2.92,2.92,0,0,1,2.34-1.27,2.28,2.28,0,0,1,.78.13l.27.11.17.22a9.45,9.45,0,0,1,1.53,4.78v.11c-.35,6.78-10.23,20.37-21.29,23.68A18.24,18.24,0,0,1,58,218.07Z"></path><path class="cls-15" d="M69.56,153.49s5,2.2,8.33,3.92c4.71,4.71,0,15.86,0,15.86S76.63,183,71.6,183c-8.32,0-5.47-15.07-5.47-15.07h-.07c-.53,0-3.68.53-9.53,12.1-6.44,12.72-6,22.45.47,25.25a10,10,0,0,0,2.85.41c10,0,19.53-14.46,20.39-15.58a2,2,0,0,1,1.55-.88,1.38,1.38,0,0,1,.42.06,8.41,8.41,0,0,1,1.33,4.24C83.23,199.66,74,213,63,216.3a17.19,17.19,0,0,1-5,.77c-7.87,0-12.42-6.17-14.65-8.93-8.64-20.26,7.06-40.83,14-47.74s12.25-6.91,12.25-6.91m.42-2h-.42c-.25,0-6.25.08-13.66,7.49-2.56,2.56-24.73,25.73-14.4,49.94l.11.26.17.22.34.42c2.41,3,7.42,9.25,15.87,9.25a19.21,19.21,0,0,0,5.55-.85c11.63-3.49,21.63-17.37,22-24.58v-.22a10.41,10.41,0,0,0-1.73-5.33l-.34-.45-.53-.21a3.33,3.33,0,0,0-1.15-.2,3.89,3.89,0,0,0-3.13,1.66l-.38.51c-6.56,9.21-13.11,14.29-18.43,14.29a7.77,7.77,0,0,1-2.16-.3,5.87,5.87,0,0,1-3.15-3.55c-1.54-4.24-.16-11.14,3.77-18.91a48.36,48.36,0,0,1,5.36-8.72c-.12,3.33.24,7.63,2.46,10.31A6.86,6.86,0,0,0,71.6,185c6.24,0,7.94-9.21,8.23-11.21.85-2.09,4.71-12.56-.53-17.8l-.22-.22-.27-.14c-3.32-1.74-8.24-3.9-8.45-4l-.38-.16Z"></path><path class="cls-17" d="M87.21,232.15A3.51,3.51,0,0,1,85,231l-.4-.33c-2.23-1.79-9-7.24-.73-21.58,3.58-7.94,21.21-26.23,22-27,1.37-1.41,4.88-5.57,4.73-8a1.33,1.33,0,0,0-.53-1,.88.88,0,0,0-.55-.15c-3.77,0-14,10.53-15.24,12.78a6.5,6.5,0,0,1-5.67,3.66,6.68,6.68,0,0,1-1.53-.19l-.21-.06-.17-.13a8.84,8.84,0,0,1-2.09-10.38c2.45-5.93,11.54-15,20.79-16.31a17.52,17.52,0,0,1,2.5-.18c8.29,0,15.42,5.94,16.23,13.52v.14a18.53,18.53,0,0,1-2.8,8.26,36,36,0,0,1-7.42,9c-10.57,9.37-17.74,17.38-19.92,22.14,4-1.87,12.08-5.62,16.08-5.62a5.94,5.94,0,0,1,.76,0,11.07,11.07,0,0,1,7.86,5.32l.23.33a1.72,1.72,0,0,1,.26,1.59c-.51,1.56-3.27,2.59-4.11,2.87-.22,0-14.46,3.61-23.41,9.72-2.3,1.91-3.3,2.66-4.38,2.66Z"></path><path class="cls-15" d="M107.83,163.16c7.8,0,14.47,5.49,15.23,12.63a17.91,17.91,0,0,1-2.67,7.8,35.09,35.09,0,0,1-7.22,8.75c-5.87,5.21-19.9,18.24-20.89,24.73h0c.32,0,12.74-6.47,17.71-6.47a4,4,0,0,1,.62,0c4.49.63,6.37,3.77,7.42,5.24s-3.35,2.93-3.35,2.93-14.45,3.56-23.66,9.84c-2.15,1.79-3.09,2.49-3.82,2.49-.55,0-1-.4-1.75-1-1.76-1.47-8.95-6.29-.75-20.53,3.59-7.95,21.81-26.8,21.81-26.8s7.57-7.75,4.1-10.47a1.83,1.83,0,0,0-1.17-.36c-4.51,0-15,11.19-16.12,13.31a5.49,5.49,0,0,1-4.79,3.13,5.68,5.68,0,0,1-1.28-.16S83,184.9,85.46,179s11.25-14.46,20-15.7a17.37,17.37,0,0,1,2.36-.17m0-2a18.13,18.13,0,0,0-2.64.19c-10,1.41-19.09,10.9-21.58,16.92A9.85,9.85,0,0,0,86,189.81l.34.27.42.11a7.66,7.66,0,0,0,1.77.22,7.5,7.5,0,0,0,6.55-4.18c1.12-2.08,11.08-12.26,14.36-12.26h0a.37.37,0,0,1,.08.24c.11,1.69-2.58,5.29-4.44,7.2-.76.78-18.38,19.05-22.16,27.28-3.58,6.24-4.8,11.64-3.64,16a12.57,12.57,0,0,0,4.65,6.74l.24.19.15.12a4.37,4.37,0,0,0,2.88,1.37c1.47,0,2.67-.94,5-2.89,8.81-6,22.8-9.47,22.94-9.5l.07,0,.08,0c1.51-.51,4.13-1.63,4.74-3.51a2.78,2.78,0,0,0-.39-2.49l-.23-.31a12.12,12.12,0,0,0-8.54-5.74,6.37,6.37,0,0,0-.9-.06c-3.2,0-8.44,2-13.68,4.41,3.12-4.7,9.57-11.55,18.18-19.18a37,37,0,0,0,7.63-9.26,19.46,19.46,0,0,0,2.93-8.73v-.14l0-.13c-.86-8.09-8.42-14.42-17.22-14.42Z"></path></g></g></svg> 