<?xml version="1.0" encoding="UTF-8"?> <svg xmlns="http://www.w3.org/2000/svg" xmlns:xlink="http://www.w3.org/1999/xlink" viewBox="0 0 874.61 1268"><defs><style>.cls-1,.cls-10,.cls-11,.cls-12,.cls-6,.cls-63,.cls-64,.cls-7,.cls-8,.cls-9{fill:none;}.cls-2{fill:url(#linear-gradient);}.cls-3{clip-path:url(#clip-path);}.cls-4{fill:url(#linear-gradient-2);}.cls-5{fill:url(#linear-gradient-3);}.cls-10,.cls-11,.cls-12,.cls-6,.cls-63,.cls-64,.cls-7,.cls-8,.cls-9{stroke-miterlimit:10;}.cls-10,.cls-11,.cls-12,.cls-6,.cls-7,.cls-8,.cls-9{stroke-width:10px;}.cls-6{stroke:url(#linear-gradient-4);}.cls-7{stroke:url(#linear-gradient-5);}.cls-8{stroke:url(#linear-gradient-6);}.cls-9{stroke:url(#linear-gradient-7);}.cls-10{stroke:url(#linear-gradient-8);}.cls-11{stroke:url(#linear-gradient-9);}.cls-12{stroke:url(#linear-gradient-10);}.cls-13{fill:url(#linear-gradient-11);}.cls-14{fill:url(#linear-gradient-12);}.cls-15{fill:url(#linear-gradient-13);}.cls-16{fill:url(#linear-gradient-14);}.cls-17{fill:url(#linear-gradient-15);}.cls-18{fill:url(#linear-gradient-16);}.cls-19{fill:url(#linear-gradient-17);}.cls-20{fill:url(#linear-gradient-18);}.cls-21{fill:url(#linear-gradient-19);}.cls-22{fill:url(#linear-gradient-20);}.cls-23{fill:url(#linear-gradient-21);}.cls-24{fill:url(#linear-gradient-22);}.cls-25{fill:url(#linear-gradient-23);}.cls-26{fill:url(#linear-gradient-24);}.cls-27{fill:url(#linear-gradient-25);}.cls-28{fill:url(#linear-gradient-26);}.cls-29{fill:url(#linear-gradient-27);}.cls-30{fill:url(#linear-gradient-28);}.cls-31{fill:url(#linear-gradient-29);}.cls-32{fill:url(#linear-gradient-30);}.cls-33{fill:url(#linear-gradient-31);}.cls-34{fill:url(#linear-gradient-32);}.cls-35{fill:url(#linear-gradient-33);}.cls-36{fill:url(#linear-gradient-34);}.cls-37{fill:url(#linear-gradient-35);}.cls-38{fill:url(#linear-gradient-36);}.cls-39{fill:url(#linear-gradient-37);}.cls-40{fill:url(#linear-gradient-38);}.cls-41{fill:url(#linear-gradient-39);}.cls-42{fill:url(#linear-gradient-40);}.cls-43{fill:url(#linear-gradient-41);}.cls-44{fill:url(#linear-gradient-42);}.cls-45{fill:url(#linear-gradient-43);}.cls-46{fill:url(#linear-gradient-44);}.cls-47{fill:url(#linear-gradient-45);}.cls-48{fill:url(#linear-gradient-46);}.cls-49{fill:url(#linear-gradient-47);}.cls-50{fill:url(#linear-gradient-48);}.cls-51{fill:url(#linear-gradient-49);}.cls-52{fill:url(#linear-gradient-50);}.cls-53{fill:url(#linear-gradient-51);}.cls-54{fill:url(#linear-gradient-52);}.cls-55{fill:url(#linear-gradient-53);}.cls-56{fill:url(#linear-gradient-54);}.cls-57{fill:url(#linear-gradient-55);}.cls-58{fill:#fcdcda;}.cls-59{fill:url(#linear-gradient-56);}.cls-60{fill:url(#linear-gradient-57);}.cls-61{fill:url(#linear-gradient-58);}.cls-62{fill:url(#linear-gradient-59);}.cls-63,.cls-64{stroke-width:6px;}.cls-63{stroke:url(#linear-gradient-60);}.cls-64{stroke:url(#linear-gradient-61);}.cls-65{fill:url(#linear-gradient-62);}.cls-66{fill:url(#linear-gradient-63);}.cls-67{fill:url(#linear-gradient-64);}.cls-68{fill:url(#linear-gradient-65);}.cls-69{fill:url(#linear-gradient-66);}.cls-70{fill:url(#linear-gradient-67);}.cls-71{fill:url(#linear-gradient-68);}.cls-72{fill:url(#linear-gradient-69);}.cls-73{fill:url(#linear-gradient-70);}.cls-74{fill:url(#linear-gradient-71);}.cls-75{fill:url(#linear-gradient-72);}.cls-76{fill:url(#linear-gradient-73);}.cls-77{fill:url(#linear-gradient-74);}.cls-78{fill:url(#linear-gradient-75);}.cls-79{fill:url(#linear-gradient-76);}.cls-80{fill:url(#linear-gradient-77);}.cls-81{fill:url(#linear-gradient-78);}.cls-82{fill:url(#linear-gradient-79);}</style><linearGradient id="linear-gradient" x1="257" y1="540" x2="726" y2="540" gradientUnits="userSpaceOnUse"><stop offset="0" stop-color="#fcdcda"></stop><stop offset="0.05" stop-color="#fabcbf"></stop><stop offset="0.14" stop-color="#f68f99"></stop><stop offset="0.23" stop-color="#f36979"></stop><stop offset="0.31" stop-color="#f14c61"></stop><stop offset="0.4" stop-color="#ef384f"></stop><stop offset="0.48" stop-color="#ee2b45"></stop><stop offset="0.56" stop-color="#ee2741"></stop><stop offset="0.61" stop-color="#e52742"></stop><stop offset="0.69" stop-color="#cd2845"></stop><stop offset="0.79" stop-color="#a5294a"></stop><stop offset="0.91" stop-color="#6e2b51"></stop><stop offset="1" stop-color="#3e2c57"></stop></linearGradient><clipPath id="clip-path" transform="translate(257)"><rect class="cls-1" width="469" height="1080"></rect></clipPath><linearGradient id="linear-gradient-2" x1="480.03" y1="349.5" x2="-715.99" y2="349.5" gradientUnits="userSpaceOnUse"><stop offset="0" stop-color="#3e2b58"></stop><stop offset="1" stop-color="#fcdcda"></stop></linearGradient><linearGradient id="linear-gradient-3" x1="17" y1="349.5" x2="500" y2="349.5" gradientUnits="userSpaceOnUse"><stop offset="0" stop-color="#3e2b58"></stop><stop offset="1" stop-color="#a03594"></stop></linearGradient><linearGradient id="linear-gradient-4" x1="-226.49" y1="347.45" x2="194" y2="347.45" gradientUnits="userSpaceOnUse"><stop offset="0" stop-color="#b8d6dd"></stop><stop offset="0.33" stop-color="#bbd6dd"></stop><stop offset="0.54" stop-color="#c3d7dc"></stop><stop offset="0.72" stop-color="#d2d8dc"></stop><stop offset="0.88" stop-color="#e7dadb"></stop><stop offset="1" stop-color="#fcdcda"></stop></linearGradient><linearGradient id="linear-gradient-5" x1="-166.19" y1="501.25" x2="133.7" y2="501.25" xlink:href="#linear-gradient-4"></linearGradient><linearGradient id="linear-gradient-6" x1="-166.23" y1="193.65" x2="133.73" y2="193.65" xlink:href="#linear-gradient-4"></linearGradient><linearGradient id="linear-gradient-7" x1="-226.49" y1="347.45" x2="99.05" y2="347.45" xlink:href="#linear-gradient-4"></linearGradient><linearGradient id="linear-gradient-8" x1="-133.68" y1="347.45" y2="347.45" xlink:href="#linear-gradient-4"></linearGradient><linearGradient id="linear-gradient-9" x1="235.76" y1="347.44" x2="245.76" y2="347.44" xlink:href="#linear-gradient-4"></linearGradient><linearGradient id="linear-gradient-10" x1="35.51" y1="347.44" x2="446" y2="347.44" xlink:href="#linear-gradient-4"></linearGradient><linearGradient id="linear-gradient-11" x1="-26.15" y1="404.56" x2="353.3" y2="526.76" gradientUnits="userSpaceOnUse"><stop offset="0.3" stop-color="#fcdcda"></stop><stop offset="1" stop-color="#3e2b58"></stop></linearGradient><linearGradient id="linear-gradient-12" x1="-15632.33" y1="1189.42" x2="-15389.39" y2="1189.42" gradientTransform="matrix(1, 0, 0, -1, 15810.71, 2378.84)" gradientUnits="userSpaceOnUse"><stop offset="0" stop-color="#3e2b58"></stop><stop offset="0.54" stop-color="#fcdcda"></stop></linearGradient><linearGradient id="linear-gradient-13" x1="-15430.98" y1="1209.82" x2="-15375.77" y2="1209.82" gradientTransform="matrix(-1, 0, 0, 1, -14876.97, 0)" xlink:href="#linear-gradient-2"></linearGradient><linearGradient id="linear-gradient-14" x1="-15460.58" y1="1209.82" x2="-15430.98" y2="1209.82" gradientTransform="matrix(-1, 0, 0, 1, -15133.97, 0)" xlink:href="#linear-gradient-2"></linearGradient><linearGradient id="linear-gradient-15" x1="2587.21" y1="1211.24" x2="2616.81" y2="1211.24" gradientTransform="translate(-2197.42)" xlink:href="#linear-gradient-2"></linearGradient><linearGradient id="linear-gradient-16" x1="-15513.69" y1="1246.31" x2="-15349.49" y2="1246.31" gradientTransform="matrix(1, 0, 0, -1, 15729.22, 2492.62)" xlink:href="#linear-gradient-2"></linearGradient><linearGradient id="linear-gradient-17" x1="827.27" y1="-796.46" x2="704.59" y2="-796.46" gradientTransform="translate(-271.09 1001.12) scale(1 0.69)" gradientUnits="userSpaceOnUse"><stop offset="0" stop-color="#ed2741"></stop><stop offset="1" stop-color="#fcdcda"></stop></linearGradient><linearGradient id="linear-gradient-18" x1="-688.22" y1="-4919.07" x2="-810.9" y2="-4919.07" gradientTransform="matrix(1, 0, 0, -0.68, 916.34, -2807.23)" xlink:href="#linear-gradient-17"></linearGradient><linearGradient id="linear-gradient-19" x1="923.25" y1="1043.54" x2="662.27" y2="1043.54" gradientTransform="translate(-270.38)" xlink:href="#linear-gradient-2"></linearGradient><linearGradient id="linear-gradient-20" x1="287.43" y1="-1753.86" x2="15.64" y2="-1753.86" gradientTransform="translate(369.72 1979.66) scale(1 0.65)" xlink:href="#linear-gradient-2"></linearGradient><linearGradient id="linear-gradient-21" x1="-15752.89" y1="1189.42" x2="-15509.95" y2="1189.42" gradientTransform="matrix(1, 0, 0, -1, 16051.83, 2378.84)" xlink:href="#linear-gradient-12"></linearGradient><linearGradient id="linear-gradient-22" x1="-15551.54" y1="1209.82" x2="-15496.33" y2="1209.82" gradientTransform="matrix(-1, 0, 0, 1, -14876.97, 0)" xlink:href="#linear-gradient-2"></linearGradient><linearGradient id="linear-gradient-23" x1="-15581.14" y1="1209.82" x2="-15551.54" y2="1209.82" gradientTransform="matrix(-1, 0, 0, 1, -15133.97, 0)" xlink:href="#linear-gradient-2"></linearGradient><linearGradient id="linear-gradient-24" x1="2707.77" y1="1211.24" x2="2737.37" y2="1211.24" gradientTransform="translate(-2197.42)" xlink:href="#linear-gradient-2"></linearGradient><linearGradient id="linear-gradient-25" x1="-15634.25" y1="1246.31" x2="-15470.06" y2="1246.31" gradientTransform="matrix(1, 0, 0, -1, 15970.34, 2492.62)" xlink:href="#linear-gradient-2"></linearGradient><linearGradient id="linear-gradient-26" x1="1043.81" y1="1043.54" x2="782.83" y2="1043.54" gradientTransform="translate(-270.38)" xlink:href="#linear-gradient-2"></linearGradient><linearGradient id="linear-gradient-27" x1="408.53" y1="-1753.86" x2="135.4" y2="-1753.86" gradientTransform="translate(369.72 1979.66) scale(1 0.65)" xlink:href="#linear-gradient-2"></linearGradient><linearGradient id="linear-gradient-28" x1="1328.85" y1="2103.26" x2="1067.86" y2="2103.26" gradientTransform="translate(-823.8 -1573.94) scale(1 1.12)" xlink:href="#linear-gradient-2"></linearGradient><linearGradient id="linear-gradient-29" x1="-15542.39" y1="531.27" x2="-15356.64" y2="531.27" gradientTransform="matrix(-1, 0, 0, 1, -15133.97, 0)" xlink:href="#linear-gradient-17"></linearGradient><linearGradient id="linear-gradient-30" x1="-15668.95" y1="531.27" x2="-15497.65" y2="531.27" gradientTransform="matrix(-1, 0, 0, 1, -15133.97, 0)" gradientUnits="userSpaceOnUse"><stop offset="0" stop-color="#ed2741"></stop><stop offset="0.91" stop-color="#fcdcda"></stop></linearGradient><linearGradient id="linear-gradient-31" x1="-15615.86" y1="409.36" x2="-15469.69" y2="409.36" gradientTransform="matrix(-1, 0, 0, 1, -15133.97, 0)" gradientUnits="userSpaceOnUse"><stop offset="0.5" stop-color="#bad8df"></stop><stop offset="0.95" stop-color="#fcdcda"></stop></linearGradient><linearGradient id="linear-gradient-32" x1="-15568.15" y1="421.19" x2="-15516.28" y2="421.19" gradientTransform="matrix(-1, 0, 0, 1, -14876.97, 0)" gradientUnits="userSpaceOnUse"><stop offset="0" stop-color="#ed2741"></stop><stop offset="0.4" stop-color="#ed2943"></stop><stop offset="0.54" stop-color="#ee3048"></stop><stop offset="0.65" stop-color="#ef3b52"></stop><stop offset="0.73" stop-color="#f04c61"></stop><stop offset="0.8" stop-color="#f26273"></stop><stop offset="0.86" stop-color="#f47e8a"></stop><stop offset="0.92" stop-color="#f79ea6"></stop><stop offset="0.97" stop-color="#fac2c4"></stop><stop offset="1" stop-color="#fcdcda"></stop></linearGradient><linearGradient id="linear-gradient-33" x1="-6683.82" y1="11825.9" x2="-6620.92" y2="11825.9" gradientTransform="matrix(1, 0, 0, -1, 7317.69, 12185.4)" gradientUnits="userSpaceOnUse"><stop offset="0" stop-color="#fcdcda"></stop><stop offset="1" stop-color="#ed2741"></stop></linearGradient><linearGradient id="linear-gradient-34" x1="-15542.37" y1="411.63" x2="-15653.72" y2="411.63" gradientTransform="matrix(-1, 0, 0, 1, -14876.97, 0)" gradientUnits="userSpaceOnUse"><stop offset="0" stop-color="#fcdcda"></stop><stop offset="0.62" stop-color="#ed2741"></stop></linearGradient><linearGradient id="linear-gradient-35" x1="1036.17" y1="411.63" x2="924.81" y2="411.63" gradientTransform="translate(-370.92)" gradientUnits="userSpaceOnUse"><stop offset="0.47" stop-color="#ed2741"></stop><stop offset="1" stop-color="#fcdcda"></stop></linearGradient><linearGradient id="linear-gradient-36" x1="5481.44" y1="178.57" x2="5588.11" y2="178.57" gradientTransform="translate(-4775.33)" gradientUnits="userSpaceOnUse"><stop offset="0" stop-color="#3e2b58"></stop><stop offset="0.08" stop-color="#644f72"></stop><stop offset="0.18" stop-color="#8d748e"></stop><stop offset="0.28" stop-color="#af94a5"></stop><stop offset="0.39" stop-color="#cbaeb9"></stop><stop offset="0.51" stop-color="#e1c3c7"></stop><stop offset="0.63" stop-color="#f0d1d2"></stop><stop offset="0.78" stop-color="#f9d9d8"></stop><stop offset="1" stop-color="#fcdcda"></stop></linearGradient><linearGradient id="linear-gradient-37" x1="5359.31" y1="178.57" x2="5465.99" y2="178.57" xlink:href="#linear-gradient-36"></linearGradient><linearGradient id="linear-gradient-38" x1="5367.42" y1="180.55" x2="5367.46" y2="180.55" gradientTransform="translate(-5032.33)" gradientUnits="userSpaceOnUse"><stop offset="0.12" stop-color="#fcdcda"></stop><stop offset="0.83" stop-color="#3e2b58"></stop></linearGradient><linearGradient id="linear-gradient-39" x1="5402.18" y1="300.45" x2="5403.06" y2="300.45" xlink:href="#linear-gradient-38"></linearGradient><linearGradient id="linear-gradient-40" x1="5402.57" y1="299.47" x2="5453.89" y2="299.47" xlink:href="#linear-gradient-38"></linearGradient><linearGradient id="linear-gradient-41" x1="5429.28" y1="310.12" x2="5430.83" y2="310.12" xlink:href="#linear-gradient-38"></linearGradient><linearGradient id="linear-gradient-42" x1="5430.85" y1="308.62" x2="5432.9" y2="308.62" xlink:href="#linear-gradient-38"></linearGradient><linearGradient id="linear-gradient-43" x1="5434.19" y1="304.69" x2="5437.65" y2="304.69" xlink:href="#linear-gradient-38"></linearGradient><linearGradient id="linear-gradient-44" x1="5437.25" y1="301.24" x2="5438.52" y2="301.24" xlink:href="#linear-gradient-38"></linearGradient><linearGradient id="linear-gradient-45" x1="5443.78" y1="282.88" x2="5445.13" y2="282.88" xlink:href="#linear-gradient-38"></linearGradient><linearGradient id="linear-gradient-46" x1="5401.58" y1="301.32" x2="5444.38" y2="301.32" gradientTransform="translate(-5032.33)" gradientUnits="userSpaceOnUse"><stop offset="0.53" stop-color="#3e2b58"></stop><stop offset="1" stop-color="#fcdcda"></stop></linearGradient><linearGradient id="linear-gradient-47" x1="5402.51" y1="320.05" x2="5406.9" y2="320.05" gradientTransform="translate(-5032.33)" xlink:href="#linear-gradient-2"></linearGradient><linearGradient id="linear-gradient-48" x1="5402.96" y1="299.47" x2="5425.21" y2="299.47" gradientTransform="translate(-5032.33)" gradientUnits="userSpaceOnUse"><stop offset="0" stop-color="#fcdcda"></stop><stop offset="0.54" stop-color="#3e2b58"></stop></linearGradient><linearGradient id="linear-gradient-49" x1="5429.28" y1="310.13" x2="5429.93" y2="310.13" xlink:href="#linear-gradient-48"></linearGradient><linearGradient id="linear-gradient-50" x1="5430.85" y1="308.64" x2="5431.71" y2="308.64" xlink:href="#linear-gradient-48"></linearGradient><linearGradient id="linear-gradient-51" x1="5434.19" y1="305.16" x2="5434.96" y2="305.16" xlink:href="#linear-gradient-48"></linearGradient><linearGradient id="linear-gradient-52" x1="5434.96" y1="304.23" x2="5435.72" y2="304.23" xlink:href="#linear-gradient-48"></linearGradient><linearGradient id="linear-gradient-53" x1="5437.25" y1="301.24" x2="5437.81" y2="301.24" xlink:href="#linear-gradient-48"></linearGradient><linearGradient id="linear-gradient-54" x1="5443.92" y1="285.23" x2="5444.02" y2="285.23" xlink:href="#linear-gradient-48"></linearGradient><linearGradient id="linear-gradient-55" x1="5443.78" y1="282.88" x2="5444.38" y2="282.88" xlink:href="#linear-gradient-48"></linearGradient><linearGradient id="linear-gradient-56" x1="5464.89" y1="178.57" x2="5571.56" y2="178.57" gradientTransform="translate(-4775.33)" xlink:href="#linear-gradient-2"></linearGradient><linearGradient id="linear-gradient-57" x1="5357.57" y1="210.1" x2="5397.92" y2="210.1" gradientTransform="translate(-4775.33)" gradientUnits="userSpaceOnUse"><stop offset="0.02" stop-color="#bad8df"></stop><stop offset="1" stop-color="#fcdcda"></stop></linearGradient><linearGradient id="linear-gradient-58" x1="5409.41" y1="210.1" x2="5447.94" y2="210.1" gradientTransform="translate(-4775.33)" gradientUnits="userSpaceOnUse"><stop offset="0" stop-color="#bad8df"></stop><stop offset="1" stop-color="#fcdcda"></stop></linearGradient><linearGradient id="linear-gradient-59" x1="5397.5" y1="202.45" x2="5420.63" y2="202.45" gradientTransform="translate(-4775.33)" xlink:href="#linear-gradient-46"></linearGradient><linearGradient id="linear-gradient-60" x1="5352.79" y1="210.1" x2="5400.04" y2="210.1" gradientTransform="translate(-4775.33)" xlink:href="#linear-gradient-46"></linearGradient><linearGradient id="linear-gradient-61" x1="5404.63" y1="210.1" x2="5451.88" y2="210.1" gradientTransform="translate(-4775.33)" xlink:href="#linear-gradient-46"></linearGradient><linearGradient id="linear-gradient-62" x1="5448.88" y1="198.98" x2="5461.24" y2="198.98" gradientTransform="translate(-4775.33)" xlink:href="#linear-gradient-46"></linearGradient><linearGradient id="linear-gradient-63" x1="5462.56" y1="197.25" x2="5529.66" y2="197.25" gradientTransform="translate(-4775.33)" gradientUnits="userSpaceOnUse"><stop offset="0.17" stop-color="#3e2b58"></stop><stop offset="1" stop-color="#fcdcda"></stop></linearGradient><linearGradient id="linear-gradient-64" x1="5359.26" y1="132.39" x2="5878.8" y2="132.39" gradientTransform="translate(-4775.33)" xlink:href="#linear-gradient-2"></linearGradient><linearGradient id="linear-gradient-65" x1="-15602.93" y1="342.68" x2="-15546.28" y2="342.68" gradientTransform="matrix(-1, 0, 0, 1, -14876.97, 0)" gradientUnits="userSpaceOnUse"><stop offset="0" stop-color="#bad8df"></stop><stop offset="0.95" stop-color="#fcdcda"></stop></linearGradient><linearGradient id="linear-gradient-66" x1="960.65" y1="341.85" x2="1015.01" y2="341.85" gradientTransform="translate(-356.01)" gradientUnits="userSpaceOnUse"><stop offset="0" stop-color="#fcdcda"></stop><stop offset="1" stop-color="#bad8df"></stop></linearGradient><linearGradient id="linear-gradient-67" x1="-15644.21" y1="662.07" x2="-15477.55" y2="662.07" gradientTransform="matrix(1, 0, 0, -1, 16084.71, 1324.14)" xlink:href="#linear-gradient-30"></linearGradient><linearGradient id="linear-gradient-68" x1="966.46" y1="662.07" x2="1070.72" y2="662.07" gradientTransform="translate(-437.94)" gradientUnits="userSpaceOnUse"><stop offset="0" stop-color="#fcdcda"></stop><stop offset="0.04" stop-color="#fbcfcf"></stop><stop offset="0.22" stop-color="#f79ca4"></stop><stop offset="0.39" stop-color="#f37281"></stop><stop offset="0.56" stop-color="#f15165"></stop><stop offset="0.72" stop-color="#ef3a51"></stop><stop offset="0.87" stop-color="#ed2c45"></stop><stop offset="1" stop-color="#ed2741"></stop></linearGradient><linearGradient id="linear-gradient-69" x1="-15503.96" y1="495.02" x2="-15434.33" y2="495.02" gradientTransform="matrix(1, 0, 0, -1, 15804.32, 990.05)" xlink:href="#linear-gradient-17"></linearGradient><linearGradient id="linear-gradient-70" x1="-15503.96" y1="475.52" x2="-15434.33" y2="475.52" gradientTransform="matrix(1, 0, 0, -1, 15804.32, 951.05)" xlink:href="#linear-gradient-31"></linearGradient><linearGradient id="linear-gradient-71" x1="-14456.95" y1="-9.14" x2="-14244.14" y2="-9.14" gradientTransform="matrix(-1, -0.05, -0.06, 1.06, -13814.18, -138.38)" xlink:href="#linear-gradient-11"></linearGradient><linearGradient id="linear-gradient-72" x1="-17403.35" y1="2162.33" x2="-17530.13" y2="2162.33" gradientTransform="matrix(-0.99, 0.16, 0.02, 0.67, -16668.85, 1834.77)" xlink:href="#linear-gradient-30"></linearGradient><linearGradient id="linear-gradient-73" x1="-14250.04" y1="-1532.81" x2="-14028.3" y2="-1532.81" gradientTransform="matrix(-1.03, -0.05, -0.04, 0.79, -14102.68, 1022.52)" xlink:href="#linear-gradient-17"></linearGradient><linearGradient id="linear-gradient-74" x1="287" y1="319.74" x2="359.79" y2="319.74" xlink:href="#linear-gradient"></linearGradient><linearGradient id="linear-gradient-75" x1="66.4" y1="433.22" x2="222.84" y2="433.22" gradientUnits="userSpaceOnUse"><stop offset="0.24" stop-color="#fcdcda"></stop><stop offset="1" stop-color="#3e2b58"></stop></linearGradient><linearGradient id="linear-gradient-76" x1="233" y1="906.5" x2="412.72" y2="906.5" gradientUnits="userSpaceOnUse"><stop offset="0" stop-color="#fcdcda"></stop><stop offset="0.4" stop-color="#ee2741"></stop><stop offset="1" stop-color="#3e2c57"></stop></linearGradient><linearGradient id="linear-gradient-77" y1="721.5" x2="491" y2="721.5" xlink:href="#linear-gradient-76"></linearGradient><linearGradient id="linear-gradient-78" x1="356.92" y1="790" x2="356.92" y2="1128" gradientUnits="userSpaceOnUse"><stop offset="0" stop-color="#221730"></stop><stop offset="0.04" stop-color="#2b1937"></stop><stop offset="0.31" stop-color="#5a255d"></stop><stop offset="0.54" stop-color="#7c2d78"></stop><stop offset="0.74" stop-color="#903289"></stop><stop offset="0.86" stop-color="#98348f"></stop></linearGradient><linearGradient id="linear-gradient-79" x1="302.08" x2="302.08" xlink:href="#linear-gradient-78"></linearGradient></defs><g id="Layer_2" data-name="Layer 2"><g id="Design"><path class="cls-2" d="M257,0H605.9A120.1,120.1,0,0,1,726,120.1V1080a0,0,0,0,1,0,0H257a0,0,0,0,1,0,0V0A0,0,0,0,1,257,0Z"></path><g class="cls-3"><rect class="cls-4" y="62" width="519" height="575" rx="29.63"></rect><rect class="cls-5" x="17" y="81.94" width="483" height="535.12" rx="14.88"></rect><path class="cls-6" d="M189,347.44a204.55,204.55,0,0,1-63.1,148A204.4,204.4,0,0,1-16.25,552.68h-1.59A204.33,204.33,0,0,1-158.4,495.46a204.58,204.58,0,0,1-63.09-148,204.62,204.62,0,0,1,63.06-148A204.45,204.45,0,0,1-17.84,142.22h1.59a204.52,204.52,0,0,1,142.18,57.22A204.59,204.59,0,0,1,189,347.44Z" transform="translate(257)"></path><path class="cls-7" d="M125.9,495.46A204.4,204.4,0,0,1-16.25,552.68h-1.59A204.33,204.33,0,0,1-158.4,495.46,242.39,242.39,0,0,1-99,464.21a243.45,243.45,0,0,1,82.75-14.4,243.64,243.64,0,0,1,81,13.76A242.78,242.78,0,0,1,125.9,495.46Z" transform="translate(257)"></path><path class="cls-8" d="M125.93,199.43a243,243,0,0,1-61.21,31.89,243.39,243.39,0,0,1-81,13.76A243.5,243.5,0,0,1-99,230.69a244.27,244.27,0,0,1-59.42-31.26A204.45,204.45,0,0,1-17.84,142.22h1.59A204.52,204.52,0,0,1,125.93,199.43Z" transform="translate(257)"></path><path class="cls-9" d="M94.05,347.44A243.18,243.18,0,0,1,64.72,463.57a245.23,245.23,0,0,1-81,88.07l-1.05.69-.54.34A204.33,204.33,0,0,1-158.4,495.46a204.58,204.58,0,0,1-63.09-148,204.62,204.62,0,0,1,63.06-148A204.45,204.45,0,0,1-17.84,142.22l.54.34,1.05.69a245.31,245.31,0,0,1,81,88.07A243.11,243.11,0,0,1,94.05,347.44Z" transform="translate(257)"></path><path class="cls-10" d="M189,347.44a204.55,204.55,0,0,1-63.1,148A204.4,204.4,0,0,1-16.25,552.68h-.52c-.18-.1-.35-.23-.53-.35A245.19,245.19,0,0,1-99,464.21a244.54,244.54,0,0,1,0-233.52A245.33,245.33,0,0,1-17.3,142.56c.18-.12.35-.25.53-.35h.52a204.52,204.52,0,0,1,142.18,57.22A204.59,204.59,0,0,1,189,347.44Z" transform="translate(257)"></path><line class="cls-11" x1="240.76" y1="142.2" x2="240.76" y2="552.69"></line><line class="cls-12" x1="35.51" y1="347.44" x2="446" y2="347.44"></line><path class="cls-13" d="M137.8,424.34l-14.89-36.73a17.54,17.54,0,0,0-6.08-7.72L80.34,353.76l10.37,26.59L99.27,387a17.7,17.7,0,0,1,5.33,6.79l4.59,10.32h0L88.27,389.27l-20.55,29a41.92,41.92,0,0,0,10,58.44l120.1,85,44.78-63.23Z" transform="translate(257)"></path><rect class="cls-14" x="297.02" y="1154.22" width="82.71" height="70.4" transform="translate(933.74 2378.84) rotate(-180)"></rect><polygon class="cls-15" points="498.8 1224.62 554.02 1224.62 554.02 1195.03 498.8 1224.62"></polygon><path class="cls-16" d="M297,1195v29.59h29.6A29.59,29.59,0,0,1,297,1195Z" transform="translate(257)"></path><path class="cls-17" d="M379.72,1196.45V1226h-29.6A29.59,29.59,0,0,0,379.72,1196.45Z" transform="translate(257)"></path><path class="cls-18" d="M232.6,1224.62H379.72a0,0,0,0,1,0,0v24.73A18.65,18.65,0,0,1,361.07,1268H215.53a0,0,0,0,1,0,0v-26.31A17.07,17.07,0,0,1,232.6,1224.62Z" transform="translate(852.25 2492.62) rotate(-180)"></path><path class="cls-19" d="M529.48,345.21H570.1a0,0,0,0,1,0,0v217a0,0,0,0,1,0,0H492.62a0,0,0,0,1,0,0V382.07A36.86,36.86,0,0,1,529.48,345.21Z"></path><path class="cls-20" d="M164.56,411.29H242a0,0,0,0,1,0,0V624.75a0,0,0,0,1,0,0H201.42a36.86,36.86,0,0,1-36.86-36.86V411.29A0,0,0,0,1,164.56,411.29Z" transform="translate(-79.94 384.56) rotate(-54.7)"></path><path class="cls-21" d="M559.55,918H661.38a0,0,0,0,1,0,0v251.13a0,0,0,0,1,0,0H548.13a0,0,0,0,1,0,0V929.4A11.42,11.42,0,0,1,559.55,918Z"></path><path class="cls-22" d="M548.06,713.75H666a0,0,0,0,1,0,0V913.11a62.73,62.73,0,0,1-62.73,62.73H568.74a20.68,20.68,0,0,1-20.68-20.68V713.75A0,0,0,0,1,548.06,713.75Z"></path><rect class="cls-23" x="417.58" y="1154.22" width="82.71" height="70.4" transform="translate(1174.86 2378.84) rotate(-180)"></rect><polygon class="cls-24" points="619.36 1224.62 674.58 1224.62 674.58 1195.03 619.36 1224.62"></polygon><path class="cls-25" d="M417.58,1195v29.59h29.6A29.59,29.59,0,0,1,417.58,1195Z" transform="translate(257)"></path><path class="cls-26" d="M500.28,1196.45V1226h-29.6A29.59,29.59,0,0,0,500.28,1196.45Z" transform="translate(257)"></path><path class="cls-27" d="M353.16,1224.62H500.28a0,0,0,0,1,0,0v24.73A18.65,18.65,0,0,1,481.63,1268H336.09a0,0,0,0,1,0,0v-26.31A17.07,17.07,0,0,1,353.16,1224.62Z" transform="translate(1093.37 2492.62) rotate(-180)"></path><path class="cls-28" d="M680.11,918H781.94a0,0,0,0,1,0,0v251.13a0,0,0,0,1,0,0H668.69a0,0,0,0,1,0,0V929.4A11.42,11.42,0,0,1,680.11,918Z"></path><path class="cls-29" d="M668.62,713.75H787.14a0,0,0,0,1,0,0V913.11a62.73,62.73,0,0,1-62.73,62.73H689.3a20.68,20.68,0,0,1-20.68-20.68V713.75a0,0,0,0,1,0,0Z"></path><path class="cls-30" d="M400.3,673.53H513.55a0,0,0,0,1,0,0V900.88a0,0,0,0,1,0,0H441A40.68,40.68,0,0,1,400.3,860.2V673.53A0,0,0,0,1,400.3,673.53Z" transform="translate(155.32 68.57) rotate(-7.73)"></path><path class="cls-31" d="M281.87,342.27V744h61.79a64.77,64.77,0,0,0,64.77-64.77V318.57H371.59l-35.87,10Z" transform="translate(257)"></path><path class="cls-32" d="M408.43,318.57V679.21A64.77,64.77,0,0,0,473.2,744H535V342.27l-53.1-14.79-25.37-8.91Z" transform="translate(257)"></path><path class="cls-33" d="M335.72,328.05l46.59,110.29L408.4,500.1l0,.06.08-.2,25.68-60.77,47.7-112.95-25.37-7.67a41.85,41.85,0,0,1-.94,8.87,42.23,42.23,0,0,1-4.38-.25,39.62,39.62,0,0,0,4.38.26c-4.09,19.18-21.47,26.31-41.86,26.31-23.43,0-42.12-11.73-42.12-35.18h0Z" transform="translate(257)"></path><polygon class="cls-34" points="691.19 450.55 665.17 342.27 639.31 449.86 665.4 500.11 665.51 500 691.19 450.55"></polygon><polygon class="cls-35" points="665.32 376.74 633.87 342.27 696.77 342.27 665.32 376.74"></polygon><polygon class="cls-36" points="665.4 500.11 776.75 389.13 758.18 353.76 776.75 337.67 728.71 323.16 665.4 500.11"></polygon><polygon class="cls-37" points="665.25 500.11 553.9 389.13 572.47 353.76 553.9 337.67 601.95 323.16 665.25 500.11"></polygon><path class="cls-38" d="M706.11,137.68h19.45a7.63,7.63,0,0,1,7.63,7.63v65.1a9,9,0,0,1-9,9h-8a10,10,0,0,1-10-10V137.68A0,0,0,0,1,706.11,137.68Z"></path><path class="cls-39" d="M584,137.68h19.45a7.63,7.63,0,0,1,7.63,7.63v65.1a9,9,0,0,1-9,9h-8a10,10,0,0,1-10-10V137.68A0,0,0,0,1,584,137.68Z"></path><path class="cls-40" d="M335.13,179.48c0,.71,0,1.42,0,2.15v-2.15Z" transform="translate(257)"></path><path class="cls-41" d="M370.24,300.48l-.39-.05h0Z" transform="translate(257)"></path><path class="cls-42" d="M392.88,297.92a42.55,42.55,0,0,1-22.25,2.63l-.39-.07a2.44,2.44,0,0,0,.39.06,42.64,42.64,0,0,0,22.25-2.62Z" transform="translate(257)"></path><path class="cls-43" d="M397.63,309.83l0,0-.66.55.66-.56A0,0,0,0,1,397.63,309.83Z" transform="translate(257)"></path><path class="cls-44" d="M399.43,308.19l-.05.05-.86.8c.29-.26.58-.54.86-.81Z" transform="translate(257)"></path><path class="cls-45" d="M403.39,303.76c-.14.2-.3.4-.46.59l-.29.35,0,.05-.05.06-.37.44-.32.37c.27-.31.52-.62.77-.92S403.14,304.07,403.39,303.76Z" transform="translate(257)"></path><path class="cls-46" d="M405.48,300.81c-.08.13-.16.28-.25.41l-.31.44Z" transform="translate(257)"></path><path class="cls-47" d="M412.05,282.45v0c-.2.28-.39.56-.6.83C411.66,283,411.85,282.73,412.05,282.45Z" transform="translate(257)"></path><path class="cls-48" d="M412.05,282.48c-.06.41-.11.82-.16,1.24s-.13.82-.2,1.23c0,.19-.07.39-.1.57v0c0,.2-.08.41-.13.61s-.1.55-.17.82c-.11.55-.25,1.1-.4,1.63-.08.3-.16.6-.25.89s-.1.38-.16.57-.12.41-.19.6-.07.25-.12.37c-.11.35-.24.71-.36,1.06l-.28.76c0,.13-.1.27-.16.4l-.07.18c0,.09-.07.17-.1.25-.25.62-.51,1.21-.78,1.81h0c-.1.22-.22.45-.32.66s-.14.29-.22.43-.08.16-.12.24l-.05.1c0,.09-.09.19-.14.28l-.24.45a1,1,0,0,1-.08.15l-.29.54-.21.38h0l-.09.14c-.19.33-.38.65-.58,1s-.27.44-.41.66l-.12.19-.07.09-.56.85c0,.06-.07.1-.1.15a3,3,0,0,1-.2.29l-.28.39a3.3,3.3,0,0,1-.22.3c-.24.33-.48.65-.73,1s-.5.63-.76.94-.5.61-.77.92l-.17.19-.63.7-.7.75-.13.12-.8.81-.05,0c-.28.27-.57.55-.86.81s-.6.54-.89.79a0,0,0,0,0,0,0l-.66.56-.16.14-.28.22-.66.53h0l-.09.08a.18.18,0,0,0-.07.05l-.9.67-.84.59-.32.23-.47.31-.47.3-.33.21-.58.36h0l-.22.13c-.31.2-.63.37-.95.55s-.7.39-1.06.57-.93.48-1.41.71-.81.37-1.22.56c-.72.32-1.47.61-2.23.9l-.82.3-.21.07c-.56.2-1.14.38-1.72.54l-.86.25-1,.27-1.18.26c-.48.11-1,.2-1.43.29l-1.25.2-.47.06c-.37.06-.75.1-1.13.15a39.68,39.68,0,0,1-4.39.24,42.4,42.4,0,0,1-.33-15.94v-3.79l.39.05.39.07a42.55,42.55,0,0,0,22.25-2.63c.33-.13.66-.26,1-.41l1-.46c.36-.17.73-.34,1.08-.52a42.69,42.69,0,0,0,11.25-8.2c.48-.49.95-1,1.4-1.49.31-.34.61-.7.91-1h0l.66-.8s0,0,0,0c.22-.26.44-.54.64-.81h0c.21-.27.42-.55.62-.83,0,0,0,0,0,0C411.66,283,411.85,282.76,412.05,282.48Z" transform="translate(257)"></path><path class="cls-49" d="M374.57,319.92a42.25,42.25,0,0,1-4.39.26v0A39.68,39.68,0,0,0,374.57,319.92Z" transform="translate(257)"></path><path class="cls-50" d="M392.88,297.92a42.55,42.55,0,0,1-22.25,2.63h0a42.64,42.64,0,0,0,22.25-2.62Z" transform="translate(257)"></path><path class="cls-51" d="M397.61,309.85h0l-.66.55Z" transform="translate(257)"></path><path class="cls-52" d="M399.38,308.23h0l-.86.8C398.81,308.78,399.1,308.5,399.38,308.23Z" transform="translate(257)"></path><path class="cls-53" d="M402.63,304.7l0,.05-.05.06-.37.44-.32.37C402.13,305.31,402.38,305,402.63,304.7Z" transform="translate(257)"></path><path class="cls-54" d="M403.39,303.76c-.14.2-.3.4-.46.59l-.29.35h0C402.89,304.39,403.14,304.07,403.39,303.76Z" transform="translate(257)"></path><path class="cls-55" d="M405.48,300.81c-.08.13-.16.28-.25.41l-.31.44Z" transform="translate(257)"></path><path class="cls-56" d="M411.69,285c0,.12,0,.24-.05.36a1.6,1.6,0,0,1-.05.21C411.62,285.34,411.66,285.14,411.69,285Z" transform="translate(257)"></path><path class="cls-57" d="M412.05,282.45v0c-.2.28-.39.56-.6.83C411.66,283,411.85,282.73,412.05,282.45Z" transform="translate(257)"></path><path class="cls-58" d="M470.72,215.48a16.07,16.07,0,0,1-16.07,16.08c-.36,0-.72,0-1.08-.05v72.71a40.27,40.27,0,0,1,.6,7.08h0a42.46,42.46,0,0,1-84,8.87,42.25,42.25,0,0,0,4.39-.26c.38,0,.76-.08,1.13-.15l.47-.06,1.25-.2c.47-.09.95-.18,1.43-.29L380,319l1-.27.86-.25c.58-.16,1.16-.34,1.72-.54l.21-.07.82-.3c.76-.29,1.51-.58,2.23-.9.41-.19.82-.36,1.22-.56s.95-.46,1.41-.71.71-.37,1.06-.57.64-.35.95-.55l.22-.13h0l.58-.36.33-.21.47-.3.47-.31.32-.23.84-.59.9-.67a.18.18,0,0,1,.07-.05l.09-.08h0l.66-.53.28-.22.16-.14.66-.55,0,0c.29-.25.6-.52.89-.79l.86-.8.05-.05.8-.81.13-.12.7-.75.63-.7.17-.19.32-.37.37-.44.05-.06,0-.05.29-.35c.16-.19.32-.39.46-.59s.49-.64.73-1a3.3,3.3,0,0,0,.22-.3l.28-.39a3,3,0,0,0,.2-.29c0-.05.07-.09.1-.15l.31-.44c.09-.13.17-.28.25-.41l.07-.09.12-.19c.14-.22.28-.44.41-.66s.39-.64.58-1l.09-.14h0l.21-.38.29-.54a1,1,0,0,0,.08-.15l.24-.45c.05-.09.1-.19.14-.28l.05-.1c0-.08.09-.16.12-.24s.15-.29.22-.43.22-.44.32-.66h0c.27-.6.53-1.19.78-1.81,0-.08.07-.16.1-.25l.07-.18c.06-.13.11-.27.16-.4l.28-.76c.12-.35.25-.71.36-1.06.05-.12.08-.24.12-.37s.13-.4.19-.6.11-.37.16-.57.17-.59.25-.89c.15-.53.29-1.08.4-1.63s.21-.95.3-1.43v0a1.6,1.6,0,0,0,.05-.21c.1-.52.18-1.06.25-1.59s.12-.83.17-1.26c0,0,0,0,0,0v0c-.2.28-.39.58-.6.86,0,0,0,0,0,0-.2.28-.41.56-.62.83h0c-.2.27-.42.55-.64.81,0,0,0,0,0,0l-.66.8h0c-.3.35-.6.71-.91,1-.45.5-.92,1-1.4,1.49a42.69,42.69,0,0,1-11.25,8.2c-.35.18-.72.35-1.08.52l-1,.46c-.32.15-.65.28-1,.41a42.64,42.64,0,0,1-22.25,2.62,2.44,2.44,0,0,1-.39-.06l-.39-.06h0a42.48,42.48,0,0,1-35.35-41.87c0-1.6.59-76.93.59-76.93,0-.73,0-1.44,0-2.15h0A59.47,59.47,0,0,1,454,181.63a55.31,55.31,0,0,1-.46,7.22v10.62a7.81,7.81,0,0,1,1.08-.05A16.06,16.06,0,0,1,470.72,215.48Z" transform="translate(257)"></path><path class="cls-58" d="M370.24,300.48l-.39-.05h0Z" transform="translate(257)"></path><path class="cls-58" d="M374.57,319.92a42.25,42.25,0,0,1-4.39.26v0A39.68,39.68,0,0,0,374.57,319.92Z" transform="translate(257)"></path><path class="cls-58" d="M392.88,297.92a42.55,42.55,0,0,1-22.25,2.63l-.39-.07a2.44,2.44,0,0,0,.39.06,42.64,42.64,0,0,0,22.25-2.62Z" transform="translate(257)"></path><path class="cls-58" d="M397.63,309.83l0,0-.66.55.66-.56A0,0,0,0,1,397.63,309.83Z" transform="translate(257)"></path><path class="cls-58" d="M399.43,308.19l-.05.05-.86.8c.29-.26.58-.54.86-.81Z" transform="translate(257)"></path><path class="cls-58" d="M403.39,303.76c-.14.2-.3.4-.46.59l-.29.35,0,.05-.05.06-.37.44-.32.37c.27-.31.52-.62.77-.92S403.14,304.07,403.39,303.76Z" transform="translate(257)"></path><path class="cls-58" d="M405.48,300.81c-.08.13-.16.28-.25.41l-.31.44Z" transform="translate(257)"></path><path class="cls-58" d="M412.05,282.45v0c-.2.28-.39.56-.6.83C411.66,283,411.85,282.73,412.05,282.45Z" transform="translate(257)"></path><path class="cls-59" d="M689.56,137.68h27.08a0,0,0,0,1,0,0v81.78a0,0,0,0,1,0,0H705.58a16,16,0,0,1-16-16V137.68A0,0,0,0,1,689.56,137.68Z"></path><path class="cls-60" d="M580.46,195.52h41.25a0,0,0,0,1,0,0v16.27a12.89,12.89,0,0,1-12.89,12.89H596.6a16.13,16.13,0,0,1-16.13-16.13v-13A0,0,0,0,1,580.46,195.52Z"></path><path class="cls-61" d="M632.31,195.52h41.25a0,0,0,0,1,0,0v18.31a10.85,10.85,0,0,1-10.85,10.85H647.23a14.92,14.92,0,0,1-14.92-14.92V195.52A0,0,0,0,1,632.31,195.52Z"></path><rect class="cls-62" x="621.71" y="198.98" width="10.59" height="6.93"></rect><path class="cls-63" d="M580.46,195.52h41.25a0,0,0,0,1,0,0v16.27a12.89,12.89,0,0,1-12.89,12.89H596.6a16.13,16.13,0,0,1-16.13-16.13v-13A0,0,0,0,1,580.46,195.52Z"></path><path class="cls-64" d="M632.31,195.52h41.25a0,0,0,0,1,0,0v18.31a10.85,10.85,0,0,1-10.85,10.85H647.23a14.92,14.92,0,0,1-14.92-14.92V195.52A0,0,0,0,1,632.31,195.52Z"></path><rect class="cls-65" x="673.55" y="195.52" width="12.35" height="6.93"></rect><rect class="cls-66" x="685.91" y="195.52" width="30.73" height="3.46"></rect><path class="cls-67" d="M607.63,102.45h87.16a21,21,0,0,1,21,21v38.84a0,0,0,0,1,0,0H602.37a18.43,18.43,0,0,1-18.43-18.43V126.15A23.7,23.7,0,0,1,607.63,102.45Z"></path><polygon class="cls-68" points="665.17 342.27 713.17 313.16 728.71 323.16 711.16 372.2 665.17 342.27"></polygon><polygon class="cls-69" points="665.43 342.27 629.2 311.49 601.89 323.16 619.44 372.2 665.43 342.27"></polygon><path class="cls-70" d="M437.2,642.53H486a27.5,27.5,0,0,1,27.5,27.5v11.58a0,0,0,0,1,0,0H437.2a0,0,0,0,1,0,0V642.53A0,0,0,0,1,437.2,642.53Z" transform="translate(1207.74 1324.14) rotate(-180)"></path><path class="cls-71" d="M557.88,642.53h76.34a0,0,0,0,1,0,0v11.58a27.5,27.5,0,0,1-27.5,27.5H557.88a0,0,0,0,1,0,0V642.53A0,0,0,0,1,557.88,642.53Z"></path><path class="cls-72" d="M316.89,482.35h36.58A16.52,16.52,0,0,1,370,498.87v8.83a0,0,0,0,1,0,0H300.37a0,0,0,0,1,0,0v-8.83A16.52,16.52,0,0,1,316.89,482.35Z" transform="translate(927.36 990.05) rotate(-180)"></path><rect class="cls-73" x="300.37" y="468.29" width="69.62" height="14.47" transform="translate(927.36 951.05) rotate(-180)"></rect><path class="cls-74" d="M549.9,740.94l34.36,6.26c19.78,3.6,34.65-10,33.21-30.47L606.34,558.35c-2.16-30.73-28-60-57.77-65.46l-16.31-3Z" transform="translate(257)"></path><path class="cls-75" d="M567.49,554.14l-38.66,6.39-5.78-218.82,45.62-7.54c18.44-3,33.76,8.87,34.23,26.62l3.91,147.87C607.37,530.1,589.77,550.46,567.49,554.14Z" transform="translate(257)"></path><path class="cls-76" d="M545.31,683.43l72.3,13.17L606.05,535.82c-1.36-19.41-22.15-46.11-46.73-50.59l-35.25.41Z" transform="translate(257)"></path><polygon class="cls-77" points="349.56 414.71 287 224.77 359.79 411.3 349.56 414.71"></polygon><path class="cls-78" d="M110.75,463.62,66.4,409l15.29-5.1a21.66,21.66,0,0,1,19.21,2.76L138.05,425Z" transform="translate(257)"></path><rect class="cls-79" x="233" y="733" width="179.72" height="347"></rect><rect class="cls-80" x="233" y="687" width="258" height="69" rx="7.97"></rect><path class="cls-81" d="M356.92,790h0A17.08,17.08,0,0,1,374,807.08V1128a0,0,0,0,1,0,0H339.84a0,0,0,0,1,0,0V807.08A17.08,17.08,0,0,1,356.92,790Z"></path><path class="cls-82" d="M302.08,790h0a17.08,17.08,0,0,1,17.08,17.08V1128a0,0,0,0,1,0,0H285a0,0,0,0,1,0,0V807.08A17.08,17.08,0,0,1,302.08,790Z"></path></g></g></g></svg> 