<?xml version="1.0" encoding="UTF-8"?> <svg xmlns="http://www.w3.org/2000/svg" xmlns:xlink="http://www.w3.org/1999/xlink" viewBox="0 0 503 102"><defs><style>.cls-1{fill:url(#linear-gradient);}.cls-2{fill:url(#linear-gradient-2);}.cls-3{fill:url(#linear-gradient-3);}.cls-4{fill:#fff;}</style><linearGradient id="linear-gradient" x1="41" y1="51" x2="503" y2="51" gradientUnits="userSpaceOnUse"><stop offset="0" stop-color="#bad8df"></stop><stop offset="1" stop-color="#fcdcda"></stop></linearGradient><linearGradient id="linear-gradient-2" x1="41" y1="51" x2="494" y2="51" gradientUnits="userSpaceOnUse"><stop offset="0" stop-color="#3e2b58"></stop><stop offset="0.5" stop-color="#a03594"></stop><stop offset="0.58" stop-color="#a23996"></stop><stop offset="0.66" stop-color="#a9459b"></stop><stop offset="0.73" stop-color="#b358a3"></stop><stop offset="0.81" stop-color="#c374ae"></stop><stop offset="0.89" stop-color="#d697bd"></stop><stop offset="0.96" stop-color="#eec2cf"></stop><stop offset="1" stop-color="#fcdcda"></stop></linearGradient><linearGradient id="linear-gradient-3" y1="51" x2="82" y2="51" gradientUnits="userSpaceOnUse"><stop offset="0" stop-color="#fcdcda"></stop><stop offset="0.4" stop-color="#ee2741"></stop><stop offset="1" stop-color="#3e2c57"></stop></linearGradient></defs><g id="Layer_2" data-name="Layer 2"><g id="Copy"><rect class="cls-1" x="41" width="462" height="102" rx="10.17"></rect><rect class="cls-2" x="41" y="13.5" width="453" height="75" rx="10.17"></rect><circle class="cls-3" cx="41" cy="51" r="41"></circle><path class="cls-4" d="M60.58,45.44c0,9.71-7.33,15.76-19,15.76H34.13V72.39H22V29.61H41.58C53.25,29.61,60.58,35.66,60.58,45.44Zm-12.22,0c0-4-2.5-6.29-7.51-6.29H34.13V51.67h6.72C45.86,51.67,48.36,49.35,48.36,45.44Z"></path><rect class="cls-4" x="15.38" y="41.1" width="51.23" height="2.8"></rect><rect class="cls-4" x="15.38" y="46.32" width="51.23" height="2.8"></rect><path class="cls-4" d="M103.76,58.33V39.43h8.64a11,11,0,0,1,4.47.83,6.55,6.55,0,0,1,2.9,2.42,6.66,6.66,0,0,1,1,3.74,6.38,6.38,0,0,1-3.93,6.11,10.7,10.7,0,0,1-4.47.86h-5.67l2.38-2.33v7.27Zm5.35-6.7-2.38-2.46h5.35a3.68,3.68,0,0,0,2.5-.73,2.58,2.58,0,0,0,.82-2,2.61,2.61,0,0,0-.82-2.05,3.68,3.68,0,0,0-2.5-.73h-5.35l2.38-2.46Z"></path><path class="cls-4" d="M123.15,58.33V43.69H128V48l-.73-1.22a4.74,4.74,0,0,1,2.1-2.47,7.1,7.1,0,0,1,3.54-.82v4.62a5.44,5.44,0,0,0-.61-.07h-.55a3.71,3.71,0,0,0-2.54.85,3.48,3.48,0,0,0-1,2.76v6.73Z"></path><path class="cls-4" d="M142.13,58.57a9.11,9.11,0,0,1-4.27-1,7.44,7.44,0,0,1-2.92-2.69,7.72,7.72,0,0,1,0-7.84,7.29,7.29,0,0,1,2.92-2.66,10,10,0,0,1,8.55,0,7.19,7.19,0,0,1,2.93,2.66,7.42,7.42,0,0,1-2.93,10.53A9.15,9.15,0,0,1,142.13,58.57Zm0-4.08a3,3,0,0,0,1.58-.4,2.83,2.83,0,0,0,1.09-1.2,4.17,4.17,0,0,0,.41-1.91,4,4,0,0,0-.41-1.87,2.84,2.84,0,0,0-1.09-1.18,3,3,0,0,0-1.58-.4,3,3,0,0,0-1.55.4,3,3,0,0,0-1.11,1.18,3.83,3.83,0,0,0-.42,1.87,4,4,0,0,0,.42,1.91,2.94,2.94,0,0,0,1.11,1.2A3,3,0,0,0,142.13,54.49Z"></path><path class="cls-4" d="M160.11,58.57a9.36,9.36,0,0,1-4.33-1,7.5,7.5,0,0,1-3-2.69,7.65,7.65,0,0,1,0-7.84,7.36,7.36,0,0,1,3-2.66,9.48,9.48,0,0,1,4.33-1,8.37,8.37,0,0,1,4.29,1,5.78,5.78,0,0,1,2.57,3l-4,2a3.49,3.49,0,0,0-1.27-1.5,3,3,0,0,0-1.65-.47,3.3,3.3,0,0,0-1.62.4,2.88,2.88,0,0,0-1.14,1.18A3.83,3.83,0,0,0,156.9,51a4,4,0,0,0,.42,1.92,2.91,2.91,0,0,0,1.14,1.19,3.3,3.3,0,0,0,1.62.4,3,3,0,0,0,1.65-.47,3.49,3.49,0,0,0,1.27-1.5l4,2a5.86,5.86,0,0,1-2.57,3A8.37,8.37,0,0,1,160.11,58.57Z"></path><path class="cls-4" d="M174.94,58.57a7.07,7.07,0,0,1-3.2-.7,5,5,0,0,1-2.22-2.2,8.08,8.08,0,0,1-.79-3.8V43.69h5.12V51a3.72,3.72,0,0,0,.64,2.43,2.27,2.27,0,0,0,1.8.73,2.67,2.67,0,0,0,1.37-.36,2.4,2.4,0,0,0,1-1.12,4.51,4.51,0,0,0,.38-2V43.69h5.13V58.33h-4.89V54.2l.95,1.16A5.21,5.21,0,0,1,178,57.77,6.28,6.28,0,0,1,174.94,58.57Z"></path><path class="cls-4" d="M187.33,58.33V43.69h4.89V48l-.73-1.22a4.74,4.74,0,0,1,2.1-2.47,7.07,7.07,0,0,1,3.54-.82v4.62a5.44,5.44,0,0,0-.61-.07H196a3.7,3.7,0,0,0-2.54.85,3.48,3.48,0,0,0-1,2.76v6.73Z"></path><path class="cls-4" d="M206.63,58.57a9.81,9.81,0,0,1-4.52-1,7.35,7.35,0,0,1-3-2.7,7.22,7.22,0,0,1-1.06-3.9,7.29,7.29,0,0,1,1-3.9A7.18,7.18,0,0,1,202,44.41a9.34,9.34,0,0,1,8.08-.08,6.77,6.77,0,0,1,2.83,2.58,7.7,7.7,0,0,1,1,4.13c0,.18,0,.38,0,.62s0,.45-.06.65H202.26v-2.7h8.86l-2,.75a3.42,3.42,0,0,0-.36-1.73,2.87,2.87,0,0,0-1.08-1.13,3.37,3.37,0,0,0-3.22,0,2.75,2.75,0,0,0-1.06,1.15,3.78,3.78,0,0,0-.38,1.74v.78a3.66,3.66,0,0,0,.45,1.86,2.89,2.89,0,0,0,1.28,1.21,4.41,4.41,0,0,0,2,.41,4.91,4.91,0,0,0,1.85-.31,5.37,5.37,0,0,0,1.52-1l2.7,2.8A6.65,6.65,0,0,1,210.28,58,9.82,9.82,0,0,1,206.63,58.57Z"></path><path class="cls-4" d="M235.23,43.45a6.5,6.5,0,0,1,3,.69,4.91,4.91,0,0,1,2.11,2.12,7.79,7.79,0,0,1,.77,3.7v8.37H236V50.79a3.6,3.6,0,0,0-.59-2.28,2,2,0,0,0-1.62-.71,2.52,2.52,0,0,0-1.33.35,2.35,2.35,0,0,0-.92,1.06,4.65,4.65,0,0,0-.32,1.85v7.27H226.1V50.79a3.6,3.6,0,0,0-.58-2.28,2,2,0,0,0-1.63-.71,2.48,2.48,0,0,0-1.34.35,2.41,2.41,0,0,0-.92,1.06,4.46,4.46,0,0,0-.34,1.85v7.27h-5.13V43.69h4.89v4.08l-1-1.16a5.56,5.56,0,0,1,2.21-2.36,6.17,6.17,0,0,1,3.14-.8,6.1,6.1,0,0,1,3.47,1,5.13,5.13,0,0,1,2,3.15l-1.68-.35a6.23,6.23,0,0,1,2.36-2.8A6.66,6.66,0,0,1,235.23,43.45Z"></path><path class="cls-4" d="M252.1,58.57a9.75,9.75,0,0,1-4.52-1,7.18,7.18,0,0,1-4.07-6.6,7.39,7.39,0,0,1,1-3.9,7.27,7.27,0,0,1,2.88-2.67,9.31,9.31,0,0,1,8.07-.08,6.74,6.74,0,0,1,2.84,2.58A7.7,7.7,0,0,1,259.39,51c0,.18,0,.38,0,.62s0,.45-.05.65H247.73v-2.7h8.85l-1.94.75a3.42,3.42,0,0,0-.37-1.73,2.87,2.87,0,0,0-1.08-1.13,3.1,3.1,0,0,0-1.6-.41,3.13,3.13,0,0,0-1.61.41,2.77,2.77,0,0,0-1.07,1.15,3.78,3.78,0,0,0-.37,1.74v.78A3.76,3.76,0,0,0,249,53a3,3,0,0,0,1.28,1.21,4.44,4.44,0,0,0,2,.41,4.87,4.87,0,0,0,1.85-.31,5.41,5.41,0,0,0,1.53-1l2.7,2.8A6.73,6.73,0,0,1,255.75,58,9.86,9.86,0,0,1,252.1,58.57Z"></path><path class="cls-4" d="M271.16,43.45a6.77,6.77,0,0,1,3.08.69,5,5,0,0,1,2.17,2.12,7.54,7.54,0,0,1,.8,3.7v8.37h-5.13V50.79a3.41,3.41,0,0,0-.63-2.28,2.28,2.28,0,0,0-1.77-.71,3.13,3.13,0,0,0-1.49.36,2.49,2.49,0,0,0-1.05,1.12,4.46,4.46,0,0,0-.38,2v7.08h-5.13V43.69h4.89v4.16l-.95-1.21a5.6,5.6,0,0,1,2.3-2.39A6.65,6.65,0,0,1,271.16,43.45Z"></path><path class="cls-4" d="M278.75,48.07V44.23h10.61v3.84Zm8.07,10.5a6.33,6.33,0,0,1-4.37-1.39,5.32,5.32,0,0,1-1.57-4.2V40.43H286v12.5a1.69,1.69,0,0,0,.43,1.22,1.48,1.48,0,0,0,1.11.45,2.62,2.62,0,0,0,1.57-.46l1.27,3.59a4.66,4.66,0,0,1-1.6.64A9.68,9.68,0,0,1,286.82,58.57Z"></path><path class="cls-4" d="M305.48,54.2h9.88v4.13H300.19V39.43H315v4.13h-9.53Zm-.38-7.46h8.78v4H305.1Z"></path><path class="cls-4" d="M316.41,48.07V44.23H327v3.84Zm2.14,10.26V43.85a5.67,5.67,0,0,1,1.58-4.22,6.12,6.12,0,0,1,4.52-1.58,8.9,8.9,0,0,1,1.86.19,4.5,4.5,0,0,1,1.54.57l-1.27,3.61a3.73,3.73,0,0,0-.73-.31,2.84,2.84,0,0,0-.81-.12,1.64,1.64,0,0,0-1.25.47,2,2,0,0,0-.45,1.45V45l.14,2.13V58.33Z"></path><path class="cls-4" d="M327.24,48.07V44.23h10.61v3.84Zm2.13,10.26V43.85A5.71,5.71,0,0,1,331,39.63a6.15,6.15,0,0,1,4.53-1.58,9,9,0,0,1,1.86.19,4.58,4.58,0,0,1,1.54.57l-1.27,3.61a3.73,3.73,0,0,0-.73-.31,2.84,2.84,0,0,0-.81-.12,1.67,1.67,0,0,0-1.26.47,2.09,2.09,0,0,0-.44,1.45V45l.13,2.13V58.33Zm13.4-16.26a3.24,3.24,0,0,1-2.27-.78,2.61,2.61,0,0,1,0-3.89,3.24,3.24,0,0,1,2.27-.78,3.36,3.36,0,0,1,2.26.74,2.4,2.4,0,0,1,.87,1.9,2.68,2.68,0,0,1-.85,2A3.21,3.21,0,0,1,342.77,42.07ZM340.2,58.33V43.69h5.13V58.33Z"></path><path class="cls-4" d="M356,58.57a9.36,9.36,0,0,1-4.33-1,7.47,7.47,0,0,1-3-2.69,7.65,7.65,0,0,1,0-7.84,7.33,7.33,0,0,1,3-2.66,9.48,9.48,0,0,1,4.33-1,8.43,8.43,0,0,1,4.3,1,5.81,5.81,0,0,1,2.56,3l-4,2a3.49,3.49,0,0,0-1.27-1.5,3,3,0,0,0-1.64-.47,3.24,3.24,0,0,0-1.62.4,2.85,2.85,0,0,0-1.15,1.18,3.83,3.83,0,0,0-.42,1.87,4,4,0,0,0,.42,1.92,2.87,2.87,0,0,0,1.15,1.19,3.24,3.24,0,0,0,1.62.4,3,3,0,0,0,1.64-.47,3.49,3.49,0,0,0,1.27-1.5l4,2a5.89,5.89,0,0,1-2.56,3A8.43,8.43,0,0,1,356,58.57Z"></path><path class="cls-4" d="M367.17,42.07a3.23,3.23,0,0,1-2.26-.78,2.61,2.61,0,0,1,0-3.89,3.23,3.23,0,0,1,2.26-.78,3.39,3.39,0,0,1,2.27.74,2.4,2.4,0,0,1,.87,1.9,2.65,2.65,0,0,1-.86,2A3.18,3.18,0,0,1,367.17,42.07Zm-2.56,16.26V43.69h5.13V58.33Z"></path><path class="cls-4" d="M380.59,58.57a9.78,9.78,0,0,1-4.52-1,7.53,7.53,0,0,1-3-10.5,7.18,7.18,0,0,1,2.87-2.67,8.79,8.79,0,0,1,4.13-1,8.7,8.7,0,0,1,3.94.88,6.74,6.74,0,0,1,2.84,2.58A7.7,7.7,0,0,1,387.88,51c0,.18,0,.38,0,.62s0,.45-.06.65H376.22v-2.7h8.85l-1.94.75a3.42,3.42,0,0,0-.36-1.73,2.87,2.87,0,0,0-1.08-1.13,3.37,3.37,0,0,0-3.22,0,2.69,2.69,0,0,0-1.06,1.15,3.66,3.66,0,0,0-.38,1.74v.78a3.76,3.76,0,0,0,.44,1.86,3,3,0,0,0,1.29,1.21,4.36,4.36,0,0,0,2,.41,4.87,4.87,0,0,0,1.85-.31,5.28,5.28,0,0,0,1.53-1l2.7,2.8A6.73,6.73,0,0,1,384.24,58,9.82,9.82,0,0,1,380.59,58.57Z"></path><path class="cls-4" d="M399.65,43.45a6.77,6.77,0,0,1,3.08.69,5,5,0,0,1,2.18,2.12,7.55,7.55,0,0,1,.79,3.7v8.37h-5.13V50.79a3.41,3.41,0,0,0-.63-2.28,2.25,2.25,0,0,0-1.77-.71,3.09,3.09,0,0,0-1.48.36,2.45,2.45,0,0,0-1.06,1.12,4.46,4.46,0,0,0-.38,2v7.08h-5.13V43.69H395v4.16l-.94-1.21a5.52,5.52,0,0,1,2.29-2.39A6.65,6.65,0,0,1,399.65,43.45Z"></path><path class="cls-4" d="M416.45,58.57a9.4,9.4,0,0,1-4.34-1,7.54,7.54,0,0,1-3-2.69,7.65,7.65,0,0,1,0-7.84,7.4,7.4,0,0,1,3-2.66,9.52,9.52,0,0,1,4.34-1,8.42,8.42,0,0,1,4.29,1,5.83,5.83,0,0,1,2.57,3l-4,2a3.63,3.63,0,0,0-1.27-1.5,3,3,0,0,0-1.65-.47,3.3,3.3,0,0,0-1.62.4,2.85,2.85,0,0,0-1.15,1.18,3.83,3.83,0,0,0-.42,1.87,4,4,0,0,0,.42,1.92,2.87,2.87,0,0,0,1.15,1.19,3.3,3.3,0,0,0,1.62.4,3,3,0,0,0,1.65-.47,3.63,3.63,0,0,0,1.27-1.5l4,2a5.91,5.91,0,0,1-2.57,3A8.42,8.42,0,0,1,416.45,58.57Z"></path><path class="cls-4" d="M427.63,42.07a3.24,3.24,0,0,1-2.27-.78,2.61,2.61,0,0,1,0-3.89,3.24,3.24,0,0,1,2.27-.78,3.41,3.41,0,0,1,2.27.74,2.42,2.42,0,0,1,.86,1.9,2.64,2.64,0,0,1-.85,2A3.21,3.21,0,0,1,427.63,42.07Zm-2.57,16.26V43.69h5.13V58.33Z"></path><path class="cls-4" d="M441.05,58.57a9.82,9.82,0,0,1-4.53-1,7.26,7.26,0,0,1-3-2.7,7.14,7.14,0,0,1-1.07-3.9,7.39,7.39,0,0,1,1-3.9,7.18,7.18,0,0,1,2.87-2.67,9.33,9.33,0,0,1,8.08-.08,6.71,6.71,0,0,1,2.83,2.58A7.71,7.71,0,0,1,448.34,51c0,.18,0,.38,0,.62s0,.45-.06.65H436.67v-2.7h8.86l-1.95.75a3.42,3.42,0,0,0-.36-1.73,2.87,2.87,0,0,0-1.08-1.13,3.13,3.13,0,0,0-1.61-.41,3.07,3.07,0,0,0-1.6.41,2.71,2.71,0,0,0-1.07,1.15,3.78,3.78,0,0,0-.38,1.74v.78a3.66,3.66,0,0,0,.45,1.86,2.89,2.89,0,0,0,1.28,1.21,4.41,4.41,0,0,0,2,.41,4.91,4.91,0,0,0,1.85-.31,5.37,5.37,0,0,0,1.52-1l2.7,2.8A6.65,6.65,0,0,1,444.69,58,9.81,9.81,0,0,1,441.05,58.57Z"></path><path class="cls-4" d="M455.9,58.57a15.7,15.7,0,0,1-3.64-.43,10.42,10.42,0,0,1-2.84-1.08L451,53.55a9.27,9.27,0,0,0,2.41,1,10.2,10.2,0,0,0,2.7.37,4.12,4.12,0,0,0,1.79-.27.81.81,0,0,0,.5-.73.68.68,0,0,0-.47-.64,5.72,5.72,0,0,0-1.24-.31L455,52.71c-.61-.09-1.23-.21-1.85-.36a6,6,0,0,1-1.7-.71,3.52,3.52,0,0,1-1.23-1.28,4.43,4.43,0,0,1,.37-4.55A5.45,5.45,0,0,1,453,44.08a10.6,10.6,0,0,1,3.89-.63,15.87,15.87,0,0,1,3.12.31,8.91,8.91,0,0,1,2.66.93l-1.54,3.48a7.76,7.76,0,0,0-2.16-.85,10.06,10.06,0,0,0-2.05-.23,4,4,0,0,0-1.83.3.85.85,0,0,0-.52.73.71.71,0,0,0,.46.66,4.24,4.24,0,0,0,1.23.35l1.68.25a15.09,15.09,0,0,1,1.85.36,6,6,0,0,1,1.7.72,3.38,3.38,0,0,1,1.23,1.26,4.05,4.05,0,0,1,.46,2,3.9,3.9,0,0,1-.82,2.43,5.59,5.59,0,0,1-2.43,1.73A10.73,10.73,0,0,1,455.9,58.57Z"></path></g></g></svg> 