<?xml version="1.0" encoding="UTF-8"?> <svg xmlns="http://www.w3.org/2000/svg" xmlns:xlink="http://www.w3.org/1999/xlink" viewBox="0 0 204.57 246.9"><defs><style>.cls-1{fill:url(#linear-gradient);}.cls-2{fill:url(#linear-gradient-2);}.cls-3{fill:url(#linear-gradient-3);}.cls-4{fill:url(#linear-gradient-4);}</style><linearGradient id="linear-gradient" x1="39.09" y1="122.04" x2="243.62" y2="122.04" gradientTransform="translate(0.45 1.4) rotate(0.01)" gradientUnits="userSpaceOnUse"><stop offset="0" stop-color="#bad8df"></stop><stop offset="0.22" stop-color="#bfd8df"></stop><stop offset="0.5" stop-color="#ced9dd"></stop><stop offset="0.8" stop-color="#e7dbdc"></stop><stop offset="1" stop-color="#fcdcda"></stop></linearGradient><linearGradient id="linear-gradient-2" x1="-3969.65" y1="5549.2" x2="-3812.32" y2="5549.2" gradientTransform="translate(-3785.97 5715.74) rotate(180)" gradientUnits="userSpaceOnUse"><stop offset="0" stop-color="#3e2b58"></stop><stop offset="0.33" stop-color="#402d59"></stop><stop offset="0.48" stop-color="#47345e"></stop><stop offset="0.59" stop-color="#544067"></stop><stop offset="0.68" stop-color="#665073"></stop><stop offset="0.76" stop-color="#7d6683"></stop><stop offset="0.84" stop-color="#9a8197"></stop><stop offset="0.91" stop-color="#bda1af"></stop><stop offset="0.97" stop-color="#e3c5c9"></stop><stop offset="1" stop-color="#fcdcda"></stop></linearGradient><linearGradient id="linear-gradient-3" x1="-3965.94" y1="5644.67" x2="-3818.25" y2="5644.67" xlink:href="#linear-gradient-2"></linearGradient><linearGradient id="linear-gradient-4" x1="79.67" y1="121.96" x2="134.37" y2="121.96" gradientUnits="userSpaceOnUse"><stop offset="0.16" stop-color="#a03694"></stop><stop offset="1" stop-color="#ee2842"></stop></linearGradient></defs><g id="Layer_2" data-name="Layer 2"><g id="Design"><rect class="cls-1" x="0.02" y="0.01" width="204.54" height="246.88" rx="33.31"></rect><path class="cls-2" d="M180.54,133a75,75,0,0,1-65.67,63.44,66.86,66.86,0,0,1-12.25.33l-3.07-.14-3-.42-3-.41c-1-.11-2-.43-3-.63a74.47,74.47,0,0,1-41.32-24.84c-1.32-1.56-2.5-3.23-3.75-4.84a27,27,0,0,1-1.71-2.55L42,160.34c-.26-.44-.56-.86-.8-1.31l-.7-1.36-.7-1.36-.33-.62,10.33-5.22a65.22,65.22,0,0,1-18.9-15.61,78.39,78.39,0,0,0-4.58,27.47l10.32-5.21.34.65.73,1.41.74,1.42c.24.47.55.91.83,1.36L41,164.67a31.43,31.43,0,0,0,1.78,2.65c1.31,1.68,2.54,3.43,3.92,5.05A76.8,76.8,0,0,0,66.12,188.9a77.8,77.8,0,0,0,23.68,9.36c1,.21,2.07.54,3.13.66l3.17.43,3.17.43,3.19.14a70.76,70.76,0,0,0,12.77-.33,78.17,78.17,0,0,0,68.45-66.14Z"></path><path class="cls-3" d="M35.29,98.22A74.55,74.55,0,0,1,97.75,47.58a77.25,77.25,0,0,1,21.15.51A73.17,73.17,0,0,1,139,54.54a75.61,75.61,0,0,1,17.53,11.82l2,1.79c.67.58,1.23,1.27,1.85,1.9,1.19,1.3,2.48,2.53,3.54,3.94l2.52,3.11.4.58-9.33,6.85a64.44,64.44,0,0,1,21.2,12.29,77.15,77.15,0,0,0,0-27.87l-9.32,6.85-.42-.6L166.35,72c-1.12-1.47-2.45-2.76-3.7-4.11-.64-.66-1.23-1.37-1.93-2l-2-1.86a78.41,78.41,0,0,0-18.27-12.32,76.38,76.38,0,0,0-21-6.73,80.5,80.5,0,0,0-22-.53A78.29,78.29,0,0,0,32.28,97.21Z"></path><circle class="cls-4" cx="107.02" cy="121.96" r="27.35"></circle></g></g></svg> 