<?xml version="1.0" encoding="UTF-8"?> <svg xmlns="http://www.w3.org/2000/svg" xmlns:xlink="http://www.w3.org/1999/xlink" viewBox="0 0 204.57 246.9"><defs><style>.cls-1{fill:url(#linear-gradient);}.cls-2{fill:url(#linear-gradient-2);}.cls-3{fill:url(#linear-gradient-3);}</style><linearGradient id="linear-gradient" y1="123.45" x2="234.75" y2="123.45" gradientUnits="userSpaceOnUse"><stop offset="0" stop-color="#ed2741"></stop><stop offset="0.14" stop-color="#ed2c45"></stop><stop offset="0.28" stop-color="#ee3950"></stop><stop offset="0.44" stop-color="#f04f63"></stop><stop offset="0.6" stop-color="#f36e7d"></stop><stop offset="0.77" stop-color="#f6969e"></stop><stop offset="0.93" stop-color="#fac5c7"></stop><stop offset="1" stop-color="#fcdcda"></stop></linearGradient><linearGradient id="linear-gradient-2" x1="27.93" y1="94.62" x2="134.3" y2="94.62" gradientTransform="translate(0.5 1.4) rotate(0.01)" gradientUnits="userSpaceOnUse"><stop offset="0" stop-color="#fcdcda"></stop><stop offset="1" stop-color="#bad8df"></stop></linearGradient><linearGradient id="linear-gradient-3" x1="109.03" y1="169.32" x2="175.67" y2="169.32" gradientTransform="translate(0.5 1.4) rotate(0.01)" gradientUnits="userSpaceOnUse"><stop offset="0" stop-color="#3e2b58"></stop><stop offset="0.33" stop-color="#402d59"></stop><stop offset="0.48" stop-color="#47345e"></stop><stop offset="0.59" stop-color="#544067"></stop><stop offset="0.68" stop-color="#665073"></stop><stop offset="0.76" stop-color="#7d6683"></stop><stop offset="0.84" stop-color="#9a8197"></stop><stop offset="0.91" stop-color="#bda1af"></stop><stop offset="0.97" stop-color="#e3c5c9"></stop><stop offset="1" stop-color="#fcdcda"></stop></linearGradient></defs><g id="Layer_2" data-name="Layer 2"><g id="Design"><rect class="cls-1" x="0.02" y="0.01" width="204.54" height="246.88" rx="33.31"></rect><path class="cls-2" d="M133.1,107.84h1.69v-23H119.72a39.94,39.94,0,0,0-3.2-7.78L126,67.57l1.19-1.19L126,65.19,112.06,51.28l-1.19-1.2-1.19,1.19-9.49,9.49a39.17,39.17,0,0,0-7.34-3V42.85h-23V57.71a40,40,0,0,0-7,2.85l-9.29-9.29-1.19-1.2-1.19,1.2L37.25,65.17l-1.2,1.19,1.2,1.2,9.08,9.08a40.13,40.13,0,0,0-3.24,7.58H28.42v23H42.93a38.93,38.93,0,0,0,3.4,8.14l-9.09,9.09L36,125.68l1.2,1.19,13.9,13.91,1.19,1.2,1.2-1.19,9.29-9.29a39.64,39.64,0,0,0,7.54,3v14.71H93.4V134.17a39.92,39.92,0,0,0,6.78-2.86l9.49,9.48,1.19,1.2,1.19-1.2L126,126.89l1.19-1.19L126,124.5l-9.45-9.45a39.94,39.94,0,0,0,3-7.21ZM105.21,96A23.89,23.89,0,1,1,81.33,72.15,23.92,23.92,0,0,1,105.21,96Z"></path><path class="cls-3" d="M175.09,178.14h1V163.7H166.7a24.58,24.58,0,0,0-2-4.87l5.92-5.92.75-.75-.75-.74-8.71-8.72-.75-.74-.74.74-5.95,5.94a25.62,25.62,0,0,0-4.6-1.9v-9.32H135.44v9.32a24.42,24.42,0,0,0-4.37,1.78l-5.82-5.82-.75-.75-.75.75L115,151.41l-.75.74.75.75,5.69,5.7a25.07,25.07,0,0,0-2,4.74h-9.19v14.44h9.09a24.46,24.46,0,0,0,2.13,5.1l-5.7,5.69-.75.75.75.74,8.71,8.72.75.74.75-.74,5.82-5.82a24.08,24.08,0,0,0,4.72,1.88v9.22h14.43v-9.42a25.92,25.92,0,0,0,4.25-1.8l5.94,5.94.74.75.75-.75,8.72-8.71.74-.75-.74-.74-5.92-5.92a25.17,25.17,0,0,0,1.9-4.52Zm-17.48-7.4a15,15,0,1,1-15-15A15,15,0,0,1,157.61,170.74Z"></path></g></g></svg> 