<?xml version="1.0" encoding="UTF-8"?> <svg xmlns="http://www.w3.org/2000/svg" xmlns:xlink="http://www.w3.org/1999/xlink" viewBox="0 0 624.06 769.27"><defs><style>.cls-1{fill:url(#linear-gradient);}.cls-2{fill:url(#linear-gradient-2);}.cls-3{fill:url(#linear-gradient-3);}.cls-4{fill:url(#linear-gradient-4);}.cls-5{fill:url(#linear-gradient-5);}.cls-6{fill:url(#linear-gradient-6);}.cls-7{fill:url(#linear-gradient-7);}.cls-8{fill:url(#linear-gradient-8);}.cls-9{fill:url(#linear-gradient-9);}.cls-10{fill:url(#linear-gradient-10);}.cls-11{fill:url(#linear-gradient-11);}.cls-12{fill:url(#linear-gradient-12);}.cls-13{fill:url(#linear-gradient-13);}.cls-14{fill:url(#linear-gradient-14);}.cls-15{fill:url(#linear-gradient-15);}.cls-16{fill:url(#linear-gradient-16);}.cls-17{fill:url(#linear-gradient-17);}.cls-18{fill:url(#linear-gradient-18);}.cls-19{fill:#e7e7e7;}.cls-20{fill:url(#linear-gradient-19);}.cls-21{fill:url(#linear-gradient-20);}.cls-22{fill:url(#linear-gradient-21);}.cls-23{fill:url(#linear-gradient-22);}.cls-24{fill:url(#linear-gradient-23);}.cls-25{fill:url(#linear-gradient-24);}.cls-26{fill:url(#linear-gradient-25);}.cls-27{fill:url(#linear-gradient-26);}.cls-28{fill:url(#linear-gradient-27);}.cls-29{fill:url(#linear-gradient-28);}.cls-30{fill:url(#linear-gradient-29);}.cls-31{fill:url(#linear-gradient-30);}.cls-32{fill:url(#linear-gradient-31);}.cls-33{fill:url(#linear-gradient-32);}.cls-34{fill:url(#linear-gradient-33);}.cls-35{fill:url(#linear-gradient-34);}.cls-36{fill:#fcdcda;}.cls-37{fill:url(#linear-gradient-35);}.cls-38{fill:url(#linear-gradient-36);}.cls-39{fill:url(#linear-gradient-37);}.cls-40{fill:url(#linear-gradient-38);}.cls-41{fill:url(#linear-gradient-39);}.cls-42{fill:url(#linear-gradient-40);}.cls-43{fill:url(#linear-gradient-41);}.cls-44{fill:url(#linear-gradient-42);}.cls-45{fill:url(#linear-gradient-43);}.cls-46{fill:url(#linear-gradient-44);}.cls-47{fill:url(#linear-gradient-45);}.cls-48{fill:url(#linear-gradient-46);}.cls-49{fill:#fff;}.cls-50{fill:url(#linear-gradient-47);}.cls-51{fill:none;stroke:#3e2b58;stroke-miterlimit:10;stroke-width:7.72px;}.cls-52{opacity:0.15;fill:url(#linear-gradient-48);}</style><linearGradient id="linear-gradient" y1="384.63" x2="624.06" y2="384.63" gradientUnits="userSpaceOnUse"><stop offset="0.42" stop-color="#bad8df"></stop><stop offset="1" stop-color="#fcdcda"></stop></linearGradient><linearGradient id="linear-gradient-2" x1="-2203.22" y1="9787.67" x2="-2153.03" y2="9787.67" gradientTransform="translate(2763.59 -9561.72)" gradientUnits="userSpaceOnUse"><stop offset="0" stop-color="#3e2b58"></stop><stop offset="0.97" stop-color="#a03594"></stop></linearGradient><linearGradient id="linear-gradient-3" x1="171.86" y1="391.91" x2="1507.23" y2="391.91" gradientTransform="matrix(1, 0, 0, 1, 0, 0)" xlink:href="#linear-gradient-2"></linearGradient><linearGradient id="linear-gradient-4" x1="-741.03" y1="377.58" x2="463.36" y2="377.58" gradientUnits="userSpaceOnUse"><stop offset="0.16" stop-color="#bad8df"></stop><stop offset="1" stop-color="#fcdcda"></stop></linearGradient><linearGradient id="linear-gradient-5" x1="62.9" y1="178.11" x2="97.45" y2="178.11" gradientTransform="matrix(1, 0, 0, 1, 0, 0)" xlink:href="#linear-gradient-2"></linearGradient><linearGradient id="linear-gradient-6" x1="62.9" y1="262.18" x2="97.45" y2="262.18" gradientTransform="matrix(1, 0, 0, 1, 0, 0)" xlink:href="#linear-gradient-2"></linearGradient><linearGradient id="linear-gradient-7" x1="244.3" y1="691.33" x2="394.28" y2="691.33" gradientUnits="userSpaceOnUse"><stop offset="0.21" stop-color="#ea2b44"></stop><stop offset="1" stop-color="#fcdcda"></stop></linearGradient><linearGradient id="linear-gradient-8" x1="250.32" y1="691.33" x2="352.61" y2="691.33" xlink:href="#linear-gradient-7"></linearGradient><linearGradient id="linear-gradient-9" x1="173.7" y1="77.17" x2="586.55" y2="77.17" xlink:href="#linear-gradient-7"></linearGradient><linearGradient id="linear-gradient-10" x1="209.57" y1="77.17" x2="260.4" y2="77.17" xlink:href="#linear-gradient-7"></linearGradient><linearGradient id="linear-gradient-11" x1="-200.14" y1="125.91" x2="778.23" y2="125.91" xlink:href="#linear-gradient-4"></linearGradient><linearGradient id="linear-gradient-12" x1="169.86" y1="125.91" x2="189.04" y2="125.91" gradientUnits="userSpaceOnUse"><stop offset="0" stop-color="#a03594"></stop><stop offset="1" stop-color="#ee2741"></stop></linearGradient><linearGradient id="linear-gradient-13" x1="111.72" y1="125.91" x2="130.91" y2="125.91" xlink:href="#linear-gradient-12"></linearGradient><linearGradient id="linear-gradient-14" x1="139.63" y1="125.91" x2="158.81" y2="125.91" xlink:href="#linear-gradient-12"></linearGradient><linearGradient id="linear-gradient-15" x1="29.17" y1="300.79" x2="940.3" y2="300.79" xlink:href="#linear-gradient-7"></linearGradient><linearGradient id="linear-gradient-16" x1="96.46" y1="426.35" x2="532.93" y2="426.35" xlink:href="#linear-gradient-12"></linearGradient><linearGradient id="linear-gradient-17" x1="133.14" y1="304.88" x2="367.12" y2="304.88" gradientTransform="matrix(1, 0, 0, 1, 0, 0)" xlink:href="#linear-gradient-2"></linearGradient><linearGradient id="linear-gradient-18" x1="140.52" y1="305.6" x2="359.74" y2="305.6" gradientUnits="userSpaceOnUse"><stop offset="0" stop-color="#fcdcda"></stop><stop offset="0.86" stop-color="#bad8df"></stop></linearGradient><linearGradient id="linear-gradient-19" x1="142.47" y1="252.81" x2="146.24" y2="252.81" xlink:href="#linear-gradient-7"></linearGradient><linearGradient id="linear-gradient-20" x1="148.75" y1="252.81" x2="152.52" y2="252.81" xlink:href="#linear-gradient-7"></linearGradient><linearGradient id="linear-gradient-21" x1="155.04" y1="252.81" x2="158.81" y2="252.81" xlink:href="#linear-gradient-7"></linearGradient><linearGradient id="linear-gradient-22" x1="303.56" y1="387.44" x2="643.12" y2="387.44" gradientTransform="matrix(1, 0, 0, 1, 0, 0)" xlink:href="#linear-gradient-2"></linearGradient><linearGradient id="linear-gradient-23" x1="371.51" y1="326.63" x2="497.33" y2="326.63" gradientTransform="matrix(1, 0, 0, 1, 0, 0)" xlink:href="#linear-gradient-2"></linearGradient><linearGradient id="linear-gradient-24" x1="449.99" y1="268.1" x2="449.99" y2="268.1" gradientTransform="matrix(1, 0, 0, 1, 0, 0)" xlink:href="#linear-gradient-2"></linearGradient><linearGradient id="linear-gradient-25" x1="446.13" y1="301.55" x2="478.38" y2="301.55" xlink:href="#linear-gradient-18"></linearGradient><linearGradient id="linear-gradient-26" x1="384.91" y1="404.05" x2="671.07" y2="404.05" gradientTransform="matrix(1, 0, 0, 1, 0, 0)" xlink:href="#linear-gradient-2"></linearGradient><linearGradient id="linear-gradient-27" x1="371.51" y1="321.09" x2="388.29" y2="321.09" gradientTransform="matrix(1, 0, 0, 1, 0, 0)" xlink:href="#linear-gradient-2"></linearGradient><linearGradient id="linear-gradient-28" x1="347.83" y1="404.05" x2="481.72" y2="404.05" xlink:href="#linear-gradient-18"></linearGradient><linearGradient id="linear-gradient-29" x1="186.67" y1="404.05" x2="472.83" y2="404.05" gradientTransform="matrix(1, 0, 0, 1, 0, 0)" xlink:href="#linear-gradient-2"></linearGradient><linearGradient id="linear-gradient-30" x1="149.59" y1="404.05" x2="283.48" y2="404.05" xlink:href="#linear-gradient-18"></linearGradient><linearGradient id="linear-gradient-31" x1="150.64" y1="379.63" x2="175.77" y2="379.63" gradientTransform="matrix(1, 0, 0, 1, 0, 0)" xlink:href="#linear-gradient-2"></linearGradient><linearGradient id="linear-gradient-32" x1="394.51" y1="301.55" x2="446.13" y2="301.55" xlink:href="#linear-gradient-18"></linearGradient><linearGradient id="linear-gradient-33" x1="479.95" y1="358.06" x2="497.33" y2="358.06" xlink:href="#linear-gradient-18"></linearGradient><linearGradient id="linear-gradient-34" x1="394.51" y1="341.26" x2="541.29" y2="341.26" gradientTransform="matrix(1, 0, 0, 1, 0, 0)" xlink:href="#linear-gradient-2"></linearGradient><linearGradient id="linear-gradient-35" x1="251.99" y1="333.26" x2="389.91" y2="333.26" gradientUnits="userSpaceOnUse"><stop offset="0" stop-color="#3e2b58"></stop><stop offset="1" stop-color="#fcdcda"></stop></linearGradient><linearGradient id="linear-gradient-36" x1="252" y1="282.77" x2="395.67" y2="282.77" xlink:href="#linear-gradient-35"></linearGradient><linearGradient id="linear-gradient-37" x1="180.4" y1="308.85" x2="316.88" y2="308.85" gradientUnits="userSpaceOnUse"><stop offset="0" stop-color="#3d2b57"></stop><stop offset="1" stop-color="#a03594"></stop></linearGradient><linearGradient id="linear-gradient-38" x1="173.6" y1="308.85" x2="180.4" y2="308.85" xlink:href="#linear-gradient-37"></linearGradient><linearGradient id="linear-gradient-39" x1="164.82" y1="308.83" x2="173.6" y2="308.83" xlink:href="#linear-gradient-37"></linearGradient><linearGradient id="linear-gradient-40" x1="-10982.83" y1="6708.34" x2="-10976.03" y2="6708.34" gradientTransform="translate(-10659.16 7017.19) rotate(180)" xlink:href="#linear-gradient-37"></linearGradient><linearGradient id="linear-gradient-41" x1="-10991.62" y1="6708.33" x2="-10982.83" y2="6708.33" gradientTransform="translate(11315.29 -6399.46)" xlink:href="#linear-gradient-37"></linearGradient><linearGradient id="linear-gradient-42" x1="237.2" y1="332.92" x2="383.55" y2="332.92" xlink:href="#linear-gradient-35"></linearGradient><linearGradient id="linear-gradient-43" x1="288.51" y1="335.32" x2="401.01" y2="335.32" xlink:href="#linear-gradient-35"></linearGradient><linearGradient id="linear-gradient-44" x1="271.24" y1="341.26" x2="395.49" y2="341.26" gradientTransform="translate(27.69 -21.41) rotate(4.51)" xlink:href="#linear-gradient-35"></linearGradient><linearGradient id="linear-gradient-45" x1="177.12" y1="275.91" x2="216.77" y2="275.91" gradientUnits="userSpaceOnUse"><stop offset="0" stop-color="#ec2942"></stop><stop offset="0.4" stop-color="#ec2b44"></stop><stop offset="0.54" stop-color="#ed3249"></stop><stop offset="0.65" stop-color="#ee3d53"></stop><stop offset="0.73" stop-color="#ef4e62"></stop><stop offset="0.8" stop-color="#f16474"></stop><stop offset="0.86" stop-color="#f4808b"></stop><stop offset="0.92" stop-color="#f7a0a7"></stop><stop offset="0.97" stop-color="#fac4c6"></stop><stop offset="1" stop-color="#fcdcda"></stop></linearGradient><linearGradient id="linear-gradient-46" x1="164.82" y1="308.82" x2="333.17" y2="308.82" xlink:href="#linear-gradient-37"></linearGradient><linearGradient id="linear-gradient-47" x1="112.65" y1="517.08" x2="486.23" y2="517.08" xlink:href="#linear-gradient-7"></linearGradient><linearGradient id="linear-gradient-48" x1="-745.78" y1="376.33" x2="464.03" y2="376.33" xlink:href="#linear-gradient-4"></linearGradient></defs><g id="Layer_2" data-name="Layer 2"><g id="Design"><rect class="cls-1" width="624.06" height="769.27" rx="68.29"></rect><path class="cls-2" d="M567.63,169.86h7.2a0,0,0,0,1,0,0V282a0,0,0,0,1,0,0h-7.2a11,11,0,0,1-11-11V180.84a11,11,0,0,1,11-11Z" transform="translate(1131.49 451.9) rotate(180)"></path><rect class="cls-3" x="72.86" y="55.1" width="483.8" height="673.62" rx="39.36"></rect><rect class="cls-4" x="96.58" y="99.52" width="436.34" height="556.12"></rect><path class="cls-5" d="M70.82,139.49h2a0,0,0,0,1,0,0v77.23a0,0,0,0,1,0,0h-2a10.48,10.48,0,0,1-10.48-10.48V150A10.48,10.48,0,0,1,70.82,139.49Z"></path><path class="cls-6" d="M70.82,223.56h2a0,0,0,0,1,0,0v77.23a0,0,0,0,1,0,0h-2A10.48,10.48,0,0,1,60.34,290.3V234a10.48,10.48,0,0,1,10.48-10.48Z"></path><rect class="cls-7" x="284.17" y="664.16" width="54.34" height="54.34" rx="8.16"></rect><rect class="cls-8" x="292.81" y="672.8" width="37.06" height="37.06" rx="8.16"></rect><rect class="cls-9" x="239.97" y="71.51" width="149.57" height="11.33" rx="4.75"></rect><circle class="cls-10" cx="215.01" cy="77.17" r="9.21"></circle><rect class="cls-11" x="96.46" y="97.02" width="436.47" height="57.79"></rect><path class="cls-12" d="M189,125.91a9.59,9.59,0,1,1-9.59-9.59A9.59,9.59,0,0,1,189,125.91Z"></path><path class="cls-13" d="M130.91,125.91a9.6,9.6,0,1,1-9.59-9.59A9.59,9.59,0,0,1,130.91,125.91Z"></path><path class="cls-14" d="M158.81,125.91a9.59,9.59,0,1,1-9.59-9.59A9.59,9.59,0,0,1,158.81,125.91Z"></path><rect class="cls-15" x="96.46" y="152.71" width="436.47" height="296.15"></rect><rect class="cls-16" x="96.46" y="404.05" width="436.47" height="44.59"></rect><rect class="cls-17" x="133.14" y="235.67" width="233.98" height="138.4" rx="14.02"></rect><rect class="cls-18" x="140.52" y="248.81" width="219.22" height="113.58"></rect><rect class="cls-19" x="140.42" y="248.81" width="216.37" height="8"></rect><circle class="cls-20" cx="144.35" cy="252.81" r="1.89"></circle><circle class="cls-21" cx="150.64" cy="252.81" r="1.89"></circle><circle class="cls-22" cx="156.92" cy="252.81" r="1.89"></circle><path class="cls-23" d="M165.56,374.09H493.95a11.18,11.18,0,0,1,11.18,11.18v4.34a11.18,11.18,0,0,1-11.18,11.18H173.37a7.82,7.82,0,0,1-7.82-7.82V374.09A0,0,0,0,1,165.56,374.09Z"></path><path class="cls-24" d="M497.33,316.79v68.38H450l-19.66-11.09H371.51V277.7a9.6,9.6,0,0,1,9.6-9.61H450L497,316.49Z"></path><polygon class="cls-25" points="449.99 268.09 449.99 268.09 449.99 268.1 449.99 268.09"></polygon><polygon class="cls-26" points="478.38 313.78 478.38 326.63 446.13 326.63 446.13 276.48 478.38 313.78"></polygon><circle class="cls-27" cx="412.33" cy="404.05" r="27.42"></circle><path class="cls-28" d="M381.08,268.09h7.22a0,0,0,0,1,0,0v106a0,0,0,0,1,0,0H371.51a0,0,0,0,1,0,0V277.66A9.57,9.57,0,0,1,381.08,268.09Z"></path><circle class="cls-29" cx="412.33" cy="404.05" r="12.83"></circle><circle class="cls-30" cx="214.09" cy="404.05" r="27.42"></circle><circle class="cls-31" cx="214.09" cy="404.05" r="12.83"></circle><rect class="cls-32" x="140.42" y="374.09" width="25.13" height="11.07"></rect><rect class="cls-33" x="394.51" y="276.48" width="51.62" height="50.15"></rect><rect class="cls-34" x="479.95" y="347.88" width="17.38" height="20.37"></rect><rect class="cls-35" x="394.51" y="338.47" width="28.69" height="5.57"></rect><path class="cls-36" d="M285.31,318.53l-29.12,29.13a3.3,3.3,0,0,1-4.28.32c-.13-.1-.25-.21-.37-.32l-.87-.87,27.41-27.41H223.27l-.85-.85Z"></path><path class="cls-36" d="M221.13,298.14l29.54-29.54.12-.11.75-.76a3.68,3.68,0,0,1,.37-.32,3.3,3.3,0,0,1,4.28.32l30.4,30.41Z"></path><path class="cls-37" d="M282.49,318.53,254,347a3.24,3.24,0,0,1-4.58,0l-28.5-28.51Z"></path><path class="cls-38" d="M219.63,298.14l29.78-29.79a3.28,3.28,0,0,1,.71-.53,3.22,3.22,0,0,1,1.79-.41,3.27,3.27,0,0,1,2.08.94l29.79,29.79Z"></path><rect class="cls-39" x="180.4" y="263.57" width="136.48" height="90.56"></rect><polygon class="cls-40" points="180.4 263.57 180.4 354.13 173.6 350.96 173.6 266.74 177.43 264.96 180.4 263.57"></polygon><rect class="cls-41" x="164.82" y="266.74" width="8.79" height="84.18"></rect><polygon class="cls-42" points="316.88 354.13 316.88 263.57 323.68 266.74 323.68 350.96 319.85 352.74 316.88 354.13"></polygon><rect class="cls-43" x="323.67" y="266.77" width="8.79" height="84.18" transform="translate(656.14 617.73) rotate(180)"></rect><path class="cls-44" d="M277.82,318.53l-27,27-.85.86a3.25,3.25,0,0,1-4.58,0l-27.83-27.84Z"></path><path class="cls-36" d="M280.44,298.14H215l30.45-30.46a3.25,3.25,0,0,1,4.58,0Z"></path><path class="cls-45" d="M230,318.53s-1,8.92,1.79,9.52,8.38-6.33,13.77-2.23,7.3,6.5,7.3,11.38-5.25,14.19-1.23,14.87,4.45-9.06,3.59-12.48,1.12-18.56,9-18,7.48,1.58,9.92-.09,2-2.93,2-2.93Z"></path><rect class="cls-46" x="271.32" y="333.03" width="29.25" height="16.46" rx="6.89" transform="translate(-25.92 23.52) rotate(-4.51)"></rect><path class="cls-47" d="M216.77,268.43A19.83,19.83,0,1,1,177.43,265l3-1.39h35.76A19.43,19.43,0,0,1,216.77,268.43Z"></path><rect class="cls-36" x="164.82" y="296.6" width="168.35" height="24.44"></rect><rect class="cls-48" x="164.82" y="298.14" width="168.35" height="21.36"></rect><path class="cls-49" d="M184.56,271.83v-1.72a1.73,1.73,0,0,1,1.53-1.36s.76-.09.76.39.15.72.62.72.59-.29.59-.72.62-.39.62-.39a1.57,1.57,0,0,1,1.25.57,1.93,1.93,0,0,1,.45,1.27v1.2a.43.43,0,0,1-.45.32.39.39,0,0,1-.42-.32v-1.38a.79.79,0,0,0-.8-.79c-.79,0-.79.52-.79.52v1.55a.49.49,0,0,1-.47.42.44.44,0,0,1-.45-.37v-1.57s-.07-.55-.79-.55a.75.75,0,0,0-.79.62v1.41a.45.45,0,0,1-.46.46S184.56,272.09,184.56,271.83Z"></path><path class="cls-49" d="M191,268.77a.4.4,0,0,0-.4.4v1.24a1.84,1.84,0,0,0,.3,1,1.53,1.53,0,0,0,.87.64,1.84,1.84,0,0,0,.41.05,4.91,4.91,0,0,0,.52,0s.21,0,.21-.56a.53.53,0,0,1,.6-.54.4.4,0,0,0,.44-.43V269.1a.4.4,0,0,0-.43-.33c-.4,0-.41.33-.41.51v1.44a.8.8,0,0,1-.77.54.84.84,0,0,1-.91-.81v-1.4S191.41,268.77,191,268.77Z"></path><path class="cls-49" d="M194.82,272.13a.47.47,0,0,1-.45-.46v-1.48a.44.44,0,0,1,.45-.32.54.54,0,0,0,.6-.56c0-.33,0-.54.56-.54s1.72.47,1.72,1.45v1.61a.36.36,0,0,1-.36.3c-.32,0-.47-.15-.47-.43v-1.42a.78.78,0,0,0-.84-.65.73.73,0,0,0-.81.63s0,1.44,0,1.52S195.21,272.13,194.82,272.13Z"></path><path class="cls-49" d="M200.14,269.2a.39.39,0,0,0-.44-.43,1.72,1.72,0,0,0-1.83,1.68,1.76,1.76,0,0,0,1.82,1.68.46.46,0,0,0,.37-.18.52.52,0,0,0,.11-.36.57.57,0,0,1,.63-.63s.42.07.42-.51a.81.81,0,0,1,.85-.87.89.89,0,0,1,.8.72v1.18s0,.3.41.3.41-.27.41-.35v-1.25s-.3-1.41-1.54-1.41c-.88,0-1,.23-1,.23v-.85s.05-.34-.39-.34a.39.39,0,0,0-.43.4v2.41s0,.6-.87.6-.73-1-.73-1,0-.6.91-.6C200.11,269.61,200.14,269.32,200.14,269.2Z"></path><path class="cls-49" d="M204.74,269.2a.48.48,0,0,0-.1-.31.44.44,0,0,0-.34-.15.39.39,0,0,0-.4.36v1.24a1.65,1.65,0,0,0,1.49,1.41,1.9,1.9,0,0,0,1-.23s-.07.68-.58.79-.55,0-.55,0a.39.39,0,0,0-.31.4.47.47,0,0,0,.28.45h.68s1.31-.34,1.31-1.54v-1.87a.46.46,0,0,0-.41-.21c-.31,0-.45.15-.45.31s0,1.1-.81,1.1a.86.86,0,0,1-.84-.85Z"></path><circle class="cls-49" cx="207.93" cy="269.15" r="0.48"></circle><path class="cls-49" d="M210.8,269.15a.39.39,0,0,0-.44-.44H210a1.68,1.68,0,0,0-.93.27,1,1,0,0,0-.42.59c-.07.34,0,.76.47.76s.59.19.59.53-.2.45-.87.45h-1s-.28,0-.28.43a.35.35,0,0,0,.35.39h1.26s1.25-.14,1.48-1.12c.05-.42-.14-.53-.49-.53s-.58-.11-.58-.51.29-.45.5-.45h.43A.33.33,0,0,0,210.8,269.15Z"></path><path class="cls-49" d="M213.86,299.93v16.48h8.65a5.26,5.26,0,0,0,3.74-1.55l1.35-1.34a.37.37,0,0,0-.26-.63h-9.25V302.18S217.33,299.93,213.86,299.93Z"></path><path class="cls-49" d="M229.45,301v15.39h9.49s3.24-.32,3.24-3.23h-8.56v-3.05h5.77s2.74-.61,2.74-2.74h-8.51v-3.61h6.28s2.63-.51,2.63-2.63Z"></path><path class="cls-49" d="M246.87,301.06l4.16,4.16,2.59-2.59c2.6-2.6,5.37,0,5.37,0l-6.07,6.07s10.58,10.49,10.5,10.49c-3.64,1.67-5.69-.3-5.69-.3l-6.67-6.67-2.61,2.61c-2.76,2.76-5.43,1.58-5.43,1.58l5.82-7.91-4.62-5.43V301Z"></path><path class="cls-49" d="M260.29,301v12s.77,3.8,6.46,3.8,6.8-2.31,6.8-4.1v-9.62s-.43-2.65-4-2.65c.05,0,0,11.63,0,11.63a2.37,2.37,0,0,1-2.65,1.92c-2.44,0-2.95-1.5-2.95-1.88v-8.89S263.62,301,260.29,301Z"></path><path class="cls-49" d="M288.73,304.87s-1.07-4.4-6.67-4.4c-2.44,0-6.12.81-6.12,3.89s1.59,5.08,5.82,5.85c2.65.65,3.33,1,3.33,2.53,0,.64-1.28,1.62-3.2,1.62s-5.95-1.37-5.95-2.69c0,0,.09,5.17,6.4,5.17s7.2-3.29,7.2-5.39-1.33-4.4-6.8-4.4-3.63-4.19,0-4.19A9.87,9.87,0,0,1,288.73,304.87Z"></path><rect class="cls-36" x="187.47" y="334.03" width="31.17" height="2.69"></rect><rect class="cls-36" x="187.47" y="337.95" width="28.09" height="2.69"></rect><rect class="cls-36" x="187.47" y="341.87" width="23.9" height="2.69"></rect><rect class="cls-36" x="187.47" y="345.79" width="23.9" height="2.69"></rect><rect class="cls-50" x="112.65" y="466.07" width="113.39" height="102.02" rx="13.69"></rect><line class="cls-51" x1="245.02" y1="475.25" x2="505.12" y2="475.25"></line><line class="cls-51" x1="245.02" y1="509.19" x2="305.88" y2="509.19"></line><line class="cls-51" x1="329.87" y1="509.19" x2="505.12" y2="509.19"></line><line class="cls-51" x1="245.02" y1="491.13" x2="344.66" y2="491.13"></line><line class="cls-51" x1="372.31" y1="491.13" x2="505.12" y2="491.13"></line><line class="cls-51" x1="245.02" y1="526.45" x2="505.12" y2="526.45"></line><line class="cls-51" x1="245.02" y1="560.4" x2="305.88" y2="560.4"></line><line class="cls-51" x1="329.87" y1="560.4" x2="505.12" y2="560.4"></line><line class="cls-51" x1="111.79" y1="589.69" x2="505.12" y2="589.69"></line><line class="cls-51" x1="111.79" y1="607.12" x2="505.12" y2="607.12"></line><line class="cls-51" x1="245.02" y1="542.34" x2="344.66" y2="542.34"></line><line class="cls-51" x1="372.31" y1="542.34" x2="505.12" y2="542.34"></line><polygon class="cls-52" points="95.6 97.02 533.91 97.02 95.6 655.64 95.6 97.02"></polygon><path class="cls-49" d="M122.21,522.28V516a6.37,6.37,0,0,1,5.61-5s2.78-.34,2.78,1.42.57,2.67,2.27,2.67S135,514,135,512.41,137.3,511,137.3,511a5.8,5.8,0,0,1,4.57,2.08,7.11,7.11,0,0,1,1.67,4.66v4.38a1.58,1.58,0,0,1-1.65,1.2,1.4,1.4,0,0,1-1.53-1.2v-5.05a2.9,2.9,0,0,0-3-2.89c-2.89,0-2.89,1.93-2.89,1.93v5.67a1.79,1.79,0,0,1-1.71,1.54,1.6,1.6,0,0,1-1.64-1.37v-5.73s-.28-2-2.89-2a2.78,2.78,0,0,0-2.93,2.27v5.19a1.64,1.64,0,0,1-1.67,1.68S122.21,523.22,122.21,522.28Z"></path><path class="cls-49" d="M145.72,511.08a1.44,1.44,0,0,0-1.44,1.44v4.56a6.66,6.66,0,0,0,1.08,3.73,5.6,5.6,0,0,0,3.17,2.33,6.48,6.48,0,0,0,1.52.21c1,0,1.89,0,1.89,0s.79-.06.79-2a1.94,1.94,0,0,1,2.18-2,1.49,1.49,0,0,0,1.62-1.56v-5.45a1.45,1.45,0,0,0-1.59-1.19c-1.44,0-1.5,1.19-1.5,1.87v5.25a2.89,2.89,0,0,1-2.81,2,3,3,0,0,1-3.32-3V512.1S147.28,511.08,145.72,511.08Z"></path><path class="cls-49" d="M159.78,523.36a1.69,1.69,0,0,1-1.65-1.66v-5.43a1.62,1.62,0,0,1,1.65-1.17A2,2,0,0,0,162,513c0-1.22.09-2,2-2s6.3,1.71,6.3,5.3v5.9a1.31,1.31,0,0,1-1.32,1.08c-1.16,0-1.71-.55-1.71-1.57v-5.2a2.85,2.85,0,0,0-3.06-2.38,2.69,2.69,0,0,0-3,2.31s0,5.27,0,5.57S161.22,523.36,159.78,523.36Z"></path><path class="cls-49" d="M179.26,512.64a1.41,1.41,0,0,0-1.59-1.56c-1.76,0-6.73,1-6.73,6.14s5.22,6.14,6.67,6.14a1.7,1.7,0,0,0,1.36-.65,2,2,0,0,0,.42-1.31,2.06,2.06,0,0,1,2.31-2.29s1.53.25,1.53-1.89a3,3,0,0,1,3.09-3.19,3.23,3.23,0,0,1,2.92,2.64V521s.06,1.08,1.53,1.08,1.48-1,1.48-1.28v-4.57s-1.08-5.16-5.65-5.16c-3.2.14-3.57.85-3.57.85v-3.12s.17-1.25-1.43-1.25A1.46,1.46,0,0,0,180,509v8.79s.09,2.21-3.18,2.21-2.66-3.69-2.66-3.69.14-2.21,3.32-2.21C179.14,514.14,179.26,513.09,179.26,512.64Z"></path><path class="cls-49" d="M196.1,512.63a1.64,1.64,0,0,0-.38-1.12,1.51,1.51,0,0,0-1.23-.55,1.41,1.41,0,0,0-1.45,1.31v4.54a6,6,0,0,0,5.45,5.16,7.1,7.1,0,0,0,3.72-.82s-.26,2.47-2.13,2.89c-2,.09-2,0-2,0a1.39,1.39,0,0,0-1.13,1.45,1.71,1.71,0,0,0,1,1.65h2.47s4.79-1.22,4.79-5.65v-6.84a1.67,1.67,0,0,0-1.5-.76c-1.11,0-1.65.54-1.65,1.13s0,4-3,4-3.09-3.09-3.09-3.09Z"></path><circle class="cls-49" cx="207.8" cy="512.47" r="1.76"></circle><path class="cls-49" d="M218.29,512.47a1.47,1.47,0,0,0-1.63-1.63h-1.28a5.83,5.83,0,0,0-3.39,1,3.43,3.43,0,0,0-1.53,2.14c-.25,1.25-.2,2.78,1.7,2.78s2.16.71,2.16,1.93-.71,1.67-3.18,1.67h-3.63s-1,.09-1,1.56a1.27,1.27,0,0,0,1.31,1.42h4.59s4.6-.51,5.42-4.08c.2-1.54-.51-1.93-1.79-1.93s-2.13-.41-2.13-1.89,1.08-1.66,1.82-1.66h1.59A1.18,1.18,0,0,0,218.29,512.47Z"></path></g></g></svg> 