<?xml version="1.0" encoding="UTF-8"?> <svg xmlns="http://www.w3.org/2000/svg" xmlns:xlink="http://www.w3.org/1999/xlink" viewBox="0 0 337.1 436.09"><defs><style>.cls-1{fill:url(#linear-gradient);}.cls-2{fill:url(#linear-gradient-2);}.cls-3{fill:url(#linear-gradient-3);}.cls-4{fill:url(#linear-gradient-4);}.cls-5{fill:url(#linear-gradient-5);}.cls-6{fill:url(#linear-gradient-6);}.cls-7{fill:url(#linear-gradient-7);}.cls-8{fill:url(#linear-gradient-8);}.cls-9{fill:url(#linear-gradient-9);}.cls-10{fill:#3e2b58;}.cls-11{fill:#fcdcda;}.cls-12{fill:#ec1c24;}.cls-12,.cls-15,.cls-18{stroke:#fcdcda;}.cls-12,.cls-15,.cls-16{stroke-miterlimit:10;}.cls-13{fill:url(#linear-gradient-10);}.cls-14{fill:#bad8df;}.cls-15,.cls-16,.cls-17,.cls-18{fill:none;}.cls-16,.cls-17{stroke:#ee2741;}.cls-17,.cls-18{stroke-linecap:round;stroke-linejoin:round;}.cls-17{stroke-width:3px;}</style><linearGradient id="linear-gradient" x1="2615.43" y1="2789.63" x2="2615.43" y2="2902.52" gradientTransform="translate(2940.33 -2237.85) rotate(90)" gradientUnits="userSpaceOnUse"><stop offset="0" stop-color="#a03594"></stop><stop offset="1" stop-color="#fcdcda"></stop></linearGradient><linearGradient id="linear-gradient-2" x1="-6558.74" y1="-1755.33" x2="-6558.74" y2="-1642.44" gradientTransform="translate(1777.52 -6181.16) rotate(-90)" gradientUnits="userSpaceOnUse"><stop offset="0" stop-color="#bad8df"></stop><stop offset="1" stop-color="#fcdcda"></stop></linearGradient><linearGradient id="linear-gradient-3" x1="4127.46" y1="6621.52" x2="4127.46" y2="6767.28" gradientTransform="translate(-6439.68 4203) rotate(-90)" gradientUnits="userSpaceOnUse"><stop offset="0" stop-color="#ee2741"></stop><stop offset="1" stop-color="#fcdcda"></stop></linearGradient><linearGradient id="linear-gradient-4" x1="46.83" y1="397.46" x2="293.57" y2="397.46" gradientUnits="userSpaceOnUse"><stop offset="0" stop-color="#3e2b58"></stop><stop offset="1" stop-color="#fcdcda"></stop></linearGradient><linearGradient id="linear-gradient-5" x1="32.22" y1="230.84" x2="419.42" y2="230.84" xlink:href="#linear-gradient-4"></linearGradient><linearGradient id="linear-gradient-6" x1="19.27" y1="397.46" x2="463.68" y2="397.46" xlink:href="#linear-gradient-4"></linearGradient><linearGradient id="linear-gradient-7" x1="8.33" y1="65.88" x2="414.13" y2="65.88" xlink:href="#linear-gradient-4"></linearGradient><linearGradient id="linear-gradient-8" x1="8.33" y1="100.98" x2="500.19" y2="100.98" xlink:href="#linear-gradient-4"></linearGradient><linearGradient id="linear-gradient-9" x1="19.23" y1="339.77" x2="436.69" y2="339.77" gradientTransform="matrix(1, 0, 0, 1, 0, 0)" xlink:href="#linear-gradient"></linearGradient><linearGradient id="linear-gradient-10" x1="102.82" y1="230.51" x2="241.38" y2="230.51" gradientTransform="matrix(1, 0, 0, 1, 0, 0)" xlink:href="#linear-gradient-2"></linearGradient></defs><g id="Layer_2" data-name="Layer 2"><g id="Design"><path class="cls-1" d="M117,319.08h0a117,117,0,0,0-117,117H117Z"></path><path class="cls-2" d="M0,436.09H0a117,117,0,0,0,117-117H0Z"></path><polygon class="cls-3" points="186.02 0 186.02 151.08 337.1 151.08 186.02 0"></polygon><polygon class="cls-4" points="293.57 389.27 292.66 405.66 47.75 405.66 46.83 389.27 293.57 389.27"></polygon><polygon class="cls-5" points="308.19 126.52 306.06 164.5 298.66 297.46 285.91 290.27 255.73 306.46 255.73 312.15 217.08 308.51 201.76 328.27 186.5 325.93 157.59 335.17 145.53 324.47 128.96 332.03 102.66 305.62 43.19 323.58 42.27 307.33 32.22 126.52 308.19 126.52"></polygon><rect class="cls-6" x="19.27" y="389.26" width="301.96" height="16.38"></rect><rect class="cls-7" x="8.33" y="56.33" width="323.74" height="19.12"></rect><polygon class="cls-8" points="308.19 126.52 32.22 126.52 8.33 75.44 332.07 75.44 308.19 126.52"></polygon><polygon class="cls-9" points="19.23 389.27 43.24 324.51 43.19 323.58 102.66 305.62 128.96 332.03 145.53 324.47 157.59 335.17 186.5 325.93 201.76 328.27 217.08 308.51 255.73 312.15 255.73 306.46 285.91 290.27 298.66 297.46 297.16 324.51 321.18 389.27 19.23 389.27"></polygon><polygon class="cls-10" points="257.7 414.83 252.4 405.65 263 405.65 257.7 414.83"></polygon><polygon class="cls-10" points="247.98 414.83 242.68 405.65 253.28 405.65 247.98 414.83"></polygon><polygon class="cls-10" points="277.13 414.83 271.83 405.65 282.43 405.65 277.13 414.83"></polygon><polygon class="cls-10" points="267.41 414.83 262.11 405.65 272.71 405.65 267.41 414.83"></polygon><polygon class="cls-10" points="296.56 414.83 291.26 405.65 301.86 405.65 296.56 414.83"></polygon><polygon class="cls-10" points="286.84 414.83 281.54 405.65 292.14 405.65 286.84 414.83"></polygon><polygon class="cls-10" points="315.99 414.83 310.69 405.65 321.29 405.65 315.99 414.83"></polygon><polygon class="cls-10" points="306.27 414.83 300.98 405.65 311.57 405.65 306.27 414.83"></polygon><polygon class="cls-10" points="179.97 414.83 174.67 405.65 185.27 405.65 179.97 414.83"></polygon><polygon class="cls-10" points="170.26 414.83 164.96 405.65 175.56 405.65 170.26 414.83"></polygon><polygon class="cls-10" points="199.4 414.83 194.1 405.65 204.7 405.65 199.4 414.83"></polygon><polygon class="cls-10" points="189.69 414.83 184.39 405.65 194.99 405.65 189.69 414.83"></polygon><polygon class="cls-10" points="218.84 414.83 213.53 405.65 224.13 405.65 218.84 414.83"></polygon><polygon class="cls-10" points="209.12 414.83 203.82 405.65 214.42 405.65 209.12 414.83"></polygon><polygon class="cls-10" points="238.27 414.83 232.97 405.65 243.56 405.65 238.27 414.83"></polygon><polygon class="cls-10" points="228.55 414.83 223.25 405.65 233.85 405.65 228.55 414.83"></polygon><polygon class="cls-10" points="111.96 414.83 106.67 405.65 117.26 405.65 111.96 414.83"></polygon><polygon class="cls-10" points="102.25 414.83 96.95 405.65 107.55 405.65 102.25 414.83"></polygon><polygon class="cls-10" points="131.4 414.83 126.1 405.65 136.69 405.65 131.4 414.83"></polygon><polygon class="cls-10" points="121.68 414.83 116.38 405.65 126.98 405.65 121.68 414.83"></polygon><polygon class="cls-10" points="150.83 414.83 145.53 405.65 156.13 405.65 150.83 414.83"></polygon><polygon class="cls-10" points="141.11 414.83 135.81 405.65 146.41 405.65 141.11 414.83"></polygon><polygon class="cls-10" points="160.54 414.83 155.24 405.65 165.84 405.65 160.54 414.83"></polygon><polygon class="cls-10" points="34.24 414.83 28.94 405.65 39.54 405.65 34.24 414.83"></polygon><polygon class="cls-10" points="24.52 414.83 19.23 405.65 29.82 405.65 24.52 414.83"></polygon><polygon class="cls-10" points="53.67 414.83 48.37 405.65 58.97 405.65 53.67 414.83"></polygon><polygon class="cls-10" points="43.96 414.83 38.66 405.65 49.26 405.65 43.96 414.83"></polygon><polygon class="cls-10" points="73.1 414.83 67.8 405.65 78.4 405.65 73.1 414.83"></polygon><polygon class="cls-10" points="63.39 414.83 58.09 405.65 68.69 405.65 63.39 414.83"></polygon><polygon class="cls-10" points="92.53 414.83 87.23 405.65 97.83 405.65 92.53 414.83"></polygon><polygon class="cls-10" points="82.82 414.83 77.52 405.65 88.12 405.65 82.82 414.83"></polygon><polygon class="cls-10" points="247.45 46.83 242.15 56.01 252.75 56.01 247.45 46.83"></polygon><polygon class="cls-10" points="237.74 46.83 232.44 56.01 243.04 56.01 237.74 46.83"></polygon><polygon class="cls-10" points="266.88 46.83 261.58 56.01 272.18 56.01 266.88 46.83"></polygon><polygon class="cls-10" points="257.17 46.83 251.87 56.01 262.47 56.01 257.17 46.83"></polygon><polygon class="cls-10" points="286.31 46.83 281.02 56.01 291.61 56.01 286.31 46.83"></polygon><polygon class="cls-10" points="276.6 46.83 271.3 56.01 281.9 56.01 276.6 46.83"></polygon><polygon class="cls-10" points="305.75 46.83 300.45 56.01 311.05 56.01 305.75 46.83"></polygon><polygon class="cls-10" points="296.03 46.83 290.73 56.01 301.33 56.01 296.03 46.83"></polygon><polygon class="cls-10" points="326.77 46.83 321.48 56.01 332.07 56.01 326.77 46.83"></polygon><polygon class="cls-10" points="317.06 46.83 311.76 56.01 322.36 56.01 317.06 46.83"></polygon><polygon class="cls-10" points="169.73 46.83 164.43 56.01 175.03 56.01 169.73 46.83"></polygon><polygon class="cls-10" points="160.01 46.83 154.71 56.01 165.31 56.01 160.01 46.83"></polygon><polygon class="cls-10" points="189.16 46.83 183.86 56.01 194.46 56.01 189.16 46.83"></polygon><polygon class="cls-10" points="179.44 46.83 174.15 56.01 184.74 56.01 179.44 46.83"></polygon><polygon class="cls-10" points="208.59 46.83 203.29 56.01 213.89 56.01 208.59 46.83"></polygon><polygon class="cls-10" points="198.88 46.83 193.58 56.01 204.18 56.01 198.88 46.83"></polygon><polygon class="cls-10" points="228.02 46.83 222.72 56.01 233.32 56.01 228.02 46.83"></polygon><polygon class="cls-10" points="218.31 46.83 213.01 56.01 223.61 56.01 218.31 46.83"></polygon><polygon class="cls-10" points="101.72 46.83 96.42 56.01 107.02 56.01 101.72 46.83"></polygon><polygon class="cls-10" points="92 46.83 86.71 56.01 97.3 56.01 92 46.83"></polygon><polygon class="cls-10" points="121.15 46.83 115.85 56.01 126.45 56.01 121.15 46.83"></polygon><polygon class="cls-10" points="111.44 46.83 106.14 56.01 116.73 56.01 111.44 46.83"></polygon><polygon class="cls-10" points="140.58 46.83 135.28 56.01 145.88 56.01 140.58 46.83"></polygon><polygon class="cls-10" points="130.87 46.83 125.57 56.01 136.17 56.01 130.87 46.83"></polygon><polygon class="cls-10" points="150.3 46.83 145 56.01 155.6 56.01 150.3 46.83"></polygon><polygon class="cls-10" points="24 46.83 18.7 56.01 29.3 56.01 24 46.83"></polygon><polygon class="cls-10" points="14.28 46.83 8.98 56.01 19.58 56.01 14.28 46.83"></polygon><polygon class="cls-10" points="43.43 46.83 38.13 56.01 48.73 56.01 43.43 46.83"></polygon><polygon class="cls-10" points="33.71 46.83 28.41 56.01 39.01 56.01 33.71 46.83"></polygon><polygon class="cls-10" points="62.86 46.83 57.56 56.01 68.16 56.01 62.86 46.83"></polygon><polygon class="cls-10" points="53.14 46.83 47.84 56.01 58.44 56.01 53.14 46.83"></polygon><polygon class="cls-10" points="82.29 46.83 76.99 56.01 87.59 56.01 82.29 46.83"></polygon><polygon class="cls-10" points="72.57 46.83 67.28 56.01 77.87 56.01 72.57 46.83"></polygon><rect class="cls-11" x="97.55" y="365.57" width="145.3" height="12.75"></rect><rect class="cls-11" x="97.55" y="344" width="145.3" height="12.75"></rect><path class="cls-12" d="M86.63,73.5H251.15a0,0,0,0,1,0,0v35.2a4.21,4.21,0,0,1-4.21,4.21H82.42a0,0,0,0,1,0,0V77.7A4.21,4.21,0,0,1,86.63,73.5Z"></path><path class="cls-11" d="M91.57,104a2.9,2.9,0,0,0,1,2.15c.55.45,1.18.48,2.44.56a9.92,9.92,0,0,0,3-.18,9.63,9.63,0,0,0,3.09-1.35,8.43,8.43,0,0,0,2.18-1.84,8.31,8.31,0,0,0,1.74-3.92,9.46,9.46,0,0,0,.16-1.62V82.5s-.27-2.83-2.83-2.83-2.78,2.78-2.78,2.78V96.79a4.75,4.75,0,0,1-1.13,3,5.16,5.16,0,0,1-2.8,1.47c-1.65.39-2.28-.13-3.08.49A2.85,2.85,0,0,0,91.57,104Z"></path><path class="cls-11" d="M185.63,104a2.9,2.9,0,0,0,1,2.15c.55.45,1.18.48,2.44.56a9.84,9.84,0,0,0,2.94-.18,9.7,9.7,0,0,0,3.1-1.35,8.77,8.77,0,0,0,2.18-1.84A8.42,8.42,0,0,0,199,99.37a9.27,9.27,0,0,0,.15-1.62V82.5s-.26-2.83-2.83-2.83-2.77,2.78-2.77,2.78V96.79a4.75,4.75,0,0,1-1.13,3,5.19,5.19,0,0,1-2.8,1.47c-1.66.39-2.29-.13-3.08.49A2.81,2.81,0,0,0,185.63,104Z"></path><rect class="cls-11" x="201.49" y="79.67" width="5.5" height="27.09" rx="0.59"></rect><path class="cls-11" d="M113.69,99.32h0a2.28,2.28,0,0,1,.23-3.19l5.31-3.7a2.32,2.32,0,0,1,3.1.86h0a2.28,2.28,0,0,1-.23,3.19l-5.31,3.7A2.31,2.31,0,0,1,113.69,99.32Z"></path><rect class="cls-11" x="209.51" y="79.67" width="5.5" height="27.09" rx="0.59"></rect><rect class="cls-11" x="214.46" y="96.24" width="5.5" height="15.41" rx="0.59" transform="matrix(0, -1, 1, 0, 113.27, 321.16)"></rect><rect class="cls-11" x="226.59" y="79.67" width="5.5" height="27.09" rx="0.59"></rect><rect class="cls-11" x="231.55" y="96.24" width="5.5" height="15.41" rx="0.59" transform="translate(130.35 338.24) rotate(-90)"></rect><path class="cls-11" d="M112.91,98.38v5.53a2.81,2.81,0,0,1-1.85,2.72,2.77,2.77,0,0,1-3.65-2.62V90.23a.49.49,0,0,1,0-.12A9.61,9.61,0,0,0,112.91,98.38Z"></path><path class="cls-11" d="M128.6,90.11a.49.49,0,0,1,0,.12V103.9a2.81,2.81,0,0,1-1.86,2.72A2.76,2.76,0,0,1,123.1,104V91.68a5.11,5.11,0,1,0-10.19,0v6.7a9.61,9.61,0,0,1-5.49-8.27h0a1.48,1.48,0,0,1,0-.21c0-5.35,4.74-9.69,10.6-9.69s10.6,4.34,10.6,9.69a1.48,1.48,0,0,1,0,.21Z"></path><path class="cls-11" d="M152.1,101.32a2.83,2.83,0,0,1,0,2.42,2.71,2.71,0,0,1-1.31,1.22,14.8,14.8,0,0,1-2,.93,14.33,14.33,0,0,1-3.67.82c-.4,0-.82.05-1.24.05a13.29,13.29,0,1,1,0-26.56,13.69,13.69,0,0,1,1.58.09,16.45,16.45,0,0,1,4.93,1.48c-.05.07,1.41.8,1.73,2.15a3,3,0,0,1-.52,2.25,3.7,3.7,0,0,1-3.16,1.36,8.11,8.11,0,0,0-1.74-.93,7.58,7.58,0,0,0-2.75-.52h-.07a7.4,7.4,0,1,0,0,14.8h.24a10.3,10.3,0,0,0,4.75-1.33A3.35,3.35,0,0,1,152.1,101.32Z"></path><rect class="cls-11" x="153.39" y="79.64" width="5.97" height="27.09" rx="0.64"></rect><rect class="cls-11" x="172.15" y="83.45" width="4.47" height="6.96" rx="0.48"></rect><path class="cls-11" d="M172.41,105.88h0a2.88,2.88,0,0,1-4.21-.2L158.09,94.5a3.25,3.25,0,0,1,0-4.43h0a2.88,2.88,0,0,1,4.21.2l10.11,11.18A3.24,3.24,0,0,1,172.41,105.88Z"></path><path class="cls-11" d="M170.62,81.29h0a3.07,3.07,0,0,1,.4,4.08l-8.27,9.5a2.59,2.59,0,0,1-3.83-.14h0a3.07,3.07,0,0,1-.4-4.08l8.27-9.5A2.6,2.6,0,0,1,170.62,81.29Z"></path><path class="cls-11" d="M188.76,93.24c0,.18,0,.28,0,.42v4.72a2.54,2.54,0,0,1-2.23,2.57,2.45,2.45,0,0,1-2.69-2.44h0V93.65c0-.07,0-.41,0-.63a1.21,1.21,0,0,0-.19-.38,1.81,1.81,0,0,0-1.48-.79,1.7,1.7,0,0,0-1.7,1.65v5a2.47,2.47,0,0,1-2.91,2.39,2.55,2.55,0,0,1-2-2.56V93.66c0-.54,0-1,0-1.27,0-3.37,2.86-5.86,6.54-5.86a6.41,6.41,0,0,1,6.68,6.1C188.76,92.84,188.77,92.88,188.76,93.24Z"></path><polygon class="cls-13" points="102.82 188.32 102.82 272.69 172.1 314.88 241.38 272.69 241.38 188.32 172.1 146.13 102.82 188.32"></polygon><polygon class="cls-14" points="63.14 344.56 63.14 359.68 73.86 367.25 84.59 359.68 84.59 344.56 73.86 337 63.14 344.56"></polygon><polygon class="cls-15" points="111.63 192.94 111.63 266.57 172.1 303.39 232.56 266.57 232.56 192.94 172.1 156.12 111.63 192.94"></polygon><polygon class="cls-16" points="106.94 190.42 106.94 269.77 172.1 309.45 237.26 269.77 237.26 190.42 172.1 150.74 106.94 190.42"></polygon><circle class="cls-14" cx="129.23" cy="223.76" r="3.73"></circle><path class="cls-17" d="M73.52,252.38s-28-29.19,5.42-43.65c22.87-9.9,49.54,12.48,19.81,37.44"></path><line class="cls-17" x1="92.41" y1="219.22" x2="81.06" y2="273.51"></line><path class="cls-17" d="M121.34,233.2l-5.15,28.42s2.38,9.91,12.28,0"></path><path class="cls-17" d="M153.44,223.19S116.19,244.71,136.8,260c6.34,3.17,10.69-5.55,10.69-5.55"></path><path class="cls-17" d="M154.63,233.2s-9.91,37.54,11.49,16.74"></path><path class="cls-17" d="M176,206.35s-6.74,40.22-5.55,43.59,7.92,4.16,12.28-3.57"></path><line class="cls-17" x1="159.23" y1="223.19" x2="185.54" y2="219.22"></line><path class="cls-17" d="M193.35,203.59s-7.36,40.5-5.55,43.58c4.08,6.93,13.19,0,17.55-7.74"></path><line class="cls-17" x1="176.55" y1="220.42" x2="202.86" y2="216.46"></line><path class="cls-17" d="M218.78,208.19s-9.07,4-9.07,18.61,9.9,13.82,11.89,13,10.69-3.79,10.69-16.56S227.11,205.43,218.78,208.19Z"></path><path class="cls-17" d="M232.29,229.37s10.31-4.91,10.7-5.54-4.35,18.07,42.4,0"></path><path class="cls-17" d="M248.15,211.69c-.4.2-.07-5.05.35-10.35s.95-10.65.95-10.65-2.89,6.35,2.66,10.51,17.43,9.92,10.29,29.63"></path><circle class="cls-17" cx="125.47" cy="215.3" r="3.14"></circle><path class="cls-18" d="M73.56,252s-28-29.19,5.42-43.65c22.87-9.9,49.54,12.48,19.81,37.45"></path><line class="cls-18" x1="92.45" y1="218.84" x2="81.1" y2="273.13"></line><path class="cls-18" d="M121.38,232.81l-5.15,28.43s2.38,9.91,12.28,0"></path><path class="cls-18" d="M153.48,222.8s-37.25,21.52-16.65,36.86c6.34,3.17,10.7-5.55,10.7-5.55"></path><path class="cls-18" d="M154.67,232.81s-9.91,37.55,11.49,16.74"></path><path class="cls-18" d="M176.06,206s-6.73,40.22-5.54,43.58,7.92,4.16,12.28-3.57"></path><line class="cls-18" x1="159.27" y1="222.8" x2="185.58" y2="218.84"></line><path class="cls-18" d="M193.39,203.2s-7.36,40.51-5.55,43.59c4.08,6.92,13.19,0,17.55-7.74"></path><line class="cls-18" x1="176.59" y1="220.04" x2="202.9" y2="216.07"></line><path class="cls-18" d="M218.82,207.81s-9.07,4-9.07,18.61,9.9,13.82,11.89,13,10.69-3.8,10.69-16.56S227.14,205,218.82,207.81Z"></path><path class="cls-18" d="M232.33,229s10.31-4.9,10.7-5.54-4.36,18.08,42.4,0"></path><path class="cls-18" d="M248.18,211.31c-.39.2-.07-5.05.36-10.35s1-10.65,1-10.65-2.89,6.34,2.66,10.5,17.42,9.93,10.29,29.64"></path><circle class="cls-18" cx="125.51" cy="214.91" r="3.14"></circle><rect class="cls-11" x="243.8" y="122.16" width="34.44" height="44.92" rx="2.89"></rect></g></g></svg> 