<?xml version="1.0" encoding="UTF-8"?> <svg xmlns="http://www.w3.org/2000/svg" xmlns:xlink="http://www.w3.org/1999/xlink" viewBox="0 0 243.15 271.26"><defs><style>.cls-1{fill:url(#linear-gradient);}.cls-2{fill:url(#linear-gradient-2);}.cls-3{fill:url(#linear-gradient-3);}.cls-4{fill:url(#linear-gradient-4);}.cls-5{fill:url(#linear-gradient-5);}.cls-6{fill:url(#linear-gradient-6);}.cls-7{fill:url(#linear-gradient-7);}.cls-8{fill:url(#linear-gradient-8);}.cls-9{fill:url(#linear-gradient-9);}.cls-10{fill:url(#linear-gradient-10);}.cls-11{fill:url(#linear-gradient-11);}.cls-12{fill:url(#linear-gradient-12);}.cls-13{fill:url(#linear-gradient-13);}.cls-14{fill:url(#linear-gradient-14);}.cls-15{fill:url(#linear-gradient-15);}.cls-16{fill:url(#linear-gradient-16);}.cls-17{fill:url(#linear-gradient-17);}.cls-18{fill:url(#linear-gradient-18);}.cls-19{fill:url(#linear-gradient-19);}.cls-20{fill:url(#linear-gradient-20);}.cls-21{fill:url(#linear-gradient-21);}.cls-22{fill:url(#linear-gradient-22);}.cls-23{fill:url(#linear-gradient-23);}.cls-24{fill:url(#linear-gradient-24);}.cls-25{fill:url(#linear-gradient-25);}.cls-26{fill:url(#linear-gradient-26);}.cls-27{fill:url(#linear-gradient-27);}.cls-28{fill:url(#linear-gradient-28);}.cls-29{fill:url(#linear-gradient-29);}.cls-30{fill:url(#linear-gradient-30);}.cls-31{fill:url(#linear-gradient-31);}.cls-32{fill:url(#linear-gradient-32);}.cls-33{fill:url(#linear-gradient-33);}.cls-34{fill:url(#linear-gradient-34);}.cls-35{fill:url(#linear-gradient-35);}.cls-36{fill:url(#linear-gradient-36);}.cls-37{fill:url(#linear-gradient-37);}.cls-38{fill:url(#linear-gradient-38);}.cls-39{fill:url(#linear-gradient-39);}.cls-40{fill:url(#linear-gradient-40);}.cls-41{fill:url(#linear-gradient-41);}.cls-42{fill:url(#linear-gradient-42);}.cls-43{fill:url(#linear-gradient-43);}.cls-44{fill:url(#linear-gradient-44);}.cls-45{fill:url(#linear-gradient-45);}.cls-46{fill:url(#linear-gradient-46);}.cls-47{fill:url(#linear-gradient-47);}.cls-48{fill:url(#linear-gradient-48);}.cls-49{fill:url(#linear-gradient-49);}.cls-50{fill:url(#linear-gradient-50);}.cls-51{fill:url(#linear-gradient-51);}.cls-52{fill:url(#linear-gradient-52);}.cls-53{fill:url(#linear-gradient-53);}.cls-54{fill:url(#linear-gradient-54);}.cls-55{fill:url(#linear-gradient-55);}.cls-56{fill:url(#linear-gradient-56);}.cls-57{fill:url(#linear-gradient-57);}.cls-58{fill:url(#linear-gradient-58);}.cls-59{fill:url(#linear-gradient-59);}.cls-60{fill:url(#linear-gradient-60);}.cls-61{fill:url(#linear-gradient-61);}.cls-62{fill:url(#linear-gradient-62);}.cls-63{fill:url(#linear-gradient-63);}.cls-64{fill:url(#linear-gradient-64);}.cls-65{fill:url(#linear-gradient-65);}.cls-66{fill:url(#linear-gradient-66);}.cls-67{fill:url(#linear-gradient-67);}.cls-68{fill:url(#linear-gradient-68);}.cls-69{fill:url(#linear-gradient-69);}.cls-70{fill:url(#linear-gradient-70);}.cls-71{fill:url(#linear-gradient-71);}.cls-72{fill:url(#linear-gradient-72);}.cls-73{fill:url(#linear-gradient-73);}.cls-74{fill:#fcdcda;}.cls-75,.cls-90{fill:#ec1c24;stroke:#fcdcda;stroke-miterlimit:10;}.cls-75{stroke-width:0.75px;}.cls-76{fill:url(#linear-gradient-74);}.cls-77{fill:url(#linear-gradient-75);}.cls-78{fill:url(#linear-gradient-76);}.cls-79{fill:url(#linear-gradient-77);}.cls-80{fill:url(#linear-gradient-78);}.cls-81{fill:url(#linear-gradient-79);}.cls-82{fill:url(#linear-gradient-80);}.cls-83{fill:url(#linear-gradient-81);}.cls-84{fill:url(#linear-gradient-82);}.cls-85{fill:url(#linear-gradient-83);}.cls-86{fill:url(#linear-gradient-84);}.cls-87{fill:url(#linear-gradient-85);}.cls-88{fill:url(#linear-gradient-86);}.cls-89{fill:url(#linear-gradient-87);}.cls-91{fill:url(#linear-gradient-88);}.cls-92{fill:url(#linear-gradient-89);}.cls-93{fill:url(#linear-gradient-90);}.cls-94{fill:url(#linear-gradient-91);}.cls-95{fill:url(#linear-gradient-92);}.cls-96{fill:url(#linear-gradient-93);}.cls-97{fill:url(#linear-gradient-94);}.cls-98{fill:url(#linear-gradient-95);}.cls-99{fill:url(#linear-gradient-96);}.cls-100{fill:url(#linear-gradient-97);}.cls-101{fill:url(#linear-gradient-98);}.cls-102{fill:url(#linear-gradient-99);}.cls-103{fill:url(#linear-gradient-100);}.cls-104{fill:url(#linear-gradient-101);}.cls-105{fill:url(#linear-gradient-102);}.cls-106{fill:url(#linear-gradient-103);}.cls-107{fill:url(#linear-gradient-104);}.cls-108{fill:url(#linear-gradient-105);}.cls-109{fill:url(#linear-gradient-106);}.cls-110{fill:url(#linear-gradient-107);}.cls-111{fill:url(#linear-gradient-108);}.cls-112{fill:url(#linear-gradient-109);}.cls-113{fill:url(#linear-gradient-110);}.cls-114{fill:url(#linear-gradient-111);}.cls-115{fill:url(#linear-gradient-112);}.cls-116{fill:url(#linear-gradient-113);}.cls-117{fill:url(#linear-gradient-114);}.cls-118{fill:url(#linear-gradient-115);}.cls-119{fill:url(#linear-gradient-116);}.cls-120{fill:url(#linear-gradient-117);}.cls-121{fill:url(#linear-gradient-118);}.cls-122{fill:url(#linear-gradient-119);}.cls-123{fill:url(#linear-gradient-120);}.cls-124{fill:url(#linear-gradient-121);}.cls-125{fill:url(#linear-gradient-122);}.cls-126{fill:url(#linear-gradient-123);}.cls-127{fill:url(#linear-gradient-124);}.cls-128{fill:url(#linear-gradient-125);}.cls-129{fill:url(#linear-gradient-126);}.cls-130{fill:url(#linear-gradient-127);}.cls-131{fill:url(#linear-gradient-128);}.cls-132{fill:url(#linear-gradient-129);}.cls-133{fill:url(#linear-gradient-130);}.cls-134{fill:url(#linear-gradient-131);}.cls-135{fill:url(#linear-gradient-132);}.cls-136{fill:url(#linear-gradient-133);}.cls-137{fill:url(#linear-gradient-134);}.cls-138{fill:url(#linear-gradient-135);}.cls-139{fill:url(#linear-gradient-136);}.cls-140{fill:url(#linear-gradient-137);}.cls-141{fill:url(#linear-gradient-138);}.cls-142{fill:url(#linear-gradient-139);}.cls-143{fill:url(#linear-gradient-140);}.cls-144{fill:url(#linear-gradient-141);}.cls-145{fill:url(#linear-gradient-142);}.cls-146{fill:url(#linear-gradient-143);}.cls-147{fill:#642e63;}.cls-148{fill:#fff;}.cls-149{fill:#ab4265;}</style><linearGradient id="linear-gradient" x1="58.59" y1="144.67" x2="316.03" y2="144.67" gradientUnits="userSpaceOnUse"><stop offset="0" stop-color="#a03594"></stop><stop offset="1" stop-color="#fcdcda"></stop></linearGradient><linearGradient id="linear-gradient-2" x1="10849.48" y1="7013.56" x2="10849.48" y2="7143.03" gradientTransform="translate(-6953.97 10994.09) rotate(-90)" gradientUnits="userSpaceOnUse"><stop offset="0" stop-color="#bad8df"></stop><stop offset="1" stop-color="#fcdcda"></stop></linearGradient><linearGradient id="linear-gradient-3" x1="-877.91" y1="697.1" x2="-836.97" y2="697.1" gradientTransform="translate(882.07 -475.54) rotate(-0.62)" gradientUnits="userSpaceOnUse"><stop offset="0" stop-color="#3e2c57"></stop><stop offset="1" stop-color="#221730"></stop></linearGradient><linearGradient id="linear-gradient-4" x1="18717.05" y1="696.91" x2="18757.99" y2="696.91" gradientTransform="matrix(-1, 0.01, 0.01, 1, 18940.27, -671.91)" gradientUnits="userSpaceOnUse"><stop offset="0" stop-color="#fcdcda"></stop><stop offset="0.29" stop-color="#3e2c57"></stop><stop offset="1" stop-color="#221730"></stop></linearGradient><linearGradient id="linear-gradient-5" x1="10990.39" y1="-6528.08" x2="10997.53" y2="-6528.08" gradientTransform="matrix(-0.01, -1.01, 1, -0.01, 6650.13, 11249.76)" xlink:href="#linear-gradient-3"></linearGradient><linearGradient id="linear-gradient-6" x1="10987.99" y1="-6528.08" x2="10995.13" y2="-6528.08" gradientTransform="matrix(-0.01, -1.01, 1, -0.01, 6650.13, 11249.76)" xlink:href="#linear-gradient-3"></linearGradient><linearGradient id="linear-gradient-7" x1="10995.17" y1="-6528.08" x2="11002.32" y2="-6528.08" gradientTransform="matrix(-0.01, -1.01, 1, -0.01, 6650.13, 11249.76)" xlink:href="#linear-gradient-3"></linearGradient><linearGradient id="linear-gradient-8" x1="10992.78" y1="-6528.08" x2="10999.92" y2="-6528.08" gradientTransform="matrix(-0.01, -1.01, 1, -0.01, 6650.13, 11249.76)" xlink:href="#linear-gradient-3"></linearGradient><linearGradient id="linear-gradient-9" x1="10999.96" y1="-6528.08" x2="11007.1" y2="-6528.08" gradientTransform="matrix(-0.01, -1.01, 1, -0.01, 6650.13, 11249.76)" xlink:href="#linear-gradient-3"></linearGradient><linearGradient id="linear-gradient-10" x1="10997.57" y1="-6528.08" x2="11004.71" y2="-6528.08" gradientTransform="matrix(-0.01, -1.01, 1, -0.01, 6650.13, 11249.76)" xlink:href="#linear-gradient-3"></linearGradient><linearGradient id="linear-gradient-11" x1="11004.75" y1="-6528.08" x2="11011.89" y2="-6528.08" gradientTransform="matrix(-0.01, -1.01, 1, -0.01, 6650.13, 11249.76)" xlink:href="#linear-gradient-3"></linearGradient><linearGradient id="linear-gradient-12" x1="11002.35" y1="-6528.08" x2="11009.5" y2="-6528.08" gradientTransform="matrix(-0.01, -1.01, 1, -0.01, 6650.13, 11249.76)" xlink:href="#linear-gradient-3"></linearGradient><linearGradient id="linear-gradient-13" x1="11009.93" y1="-6528.08" x2="11017.07" y2="-6528.08" gradientTransform="matrix(-0.01, -1.01, 1, -0.01, 6650.13, 11249.76)" xlink:href="#linear-gradient-3"></linearGradient><linearGradient id="linear-gradient-14" x1="11007.54" y1="-6528.08" x2="11014.68" y2="-6528.08" gradientTransform="matrix(-0.01, -1.01, 1, -0.01, 6650.13, 11249.76)" xlink:href="#linear-gradient-3"></linearGradient><linearGradient id="linear-gradient-15" x1="10971.24" y1="-6528.08" x2="10978.38" y2="-6528.08" gradientTransform="matrix(-0.01, -1.01, 1, -0.01, 6650.13, 11249.76)" xlink:href="#linear-gradient-3"></linearGradient><linearGradient id="linear-gradient-16" x1="10968.84" y1="-6528.08" x2="10975.98" y2="-6528.08" gradientTransform="matrix(-0.01, -1.01, 1, -0.01, 6650.13, 11249.76)" xlink:href="#linear-gradient-3"></linearGradient><linearGradient id="linear-gradient-17" x1="10976.02" y1="-6528.08" x2="10983.17" y2="-6528.08" gradientTransform="matrix(-0.01, -1.01, 1, -0.01, 6650.13, 11249.76)" xlink:href="#linear-gradient-3"></linearGradient><linearGradient id="linear-gradient-18" x1="10973.63" y1="-6528.08" x2="10980.77" y2="-6528.08" gradientTransform="matrix(-0.01, -1.01, 1, -0.01, 6650.13, 11249.76)" xlink:href="#linear-gradient-3"></linearGradient><linearGradient id="linear-gradient-19" x1="10980.81" y1="-6528.08" x2="10987.95" y2="-6528.08" gradientTransform="matrix(-0.01, -1.01, 1, -0.01, 6650.13, 11249.76)" xlink:href="#linear-gradient-3"></linearGradient><linearGradient id="linear-gradient-20" x1="10978.42" y1="-6528.08" x2="10985.56" y2="-6528.08" gradientTransform="matrix(-0.01, -1.01, 1, -0.01, 6650.13, 11249.76)" xlink:href="#linear-gradient-3"></linearGradient><linearGradient id="linear-gradient-21" x1="10985.6" y1="-6528.08" x2="10992.74" y2="-6528.08" gradientTransform="matrix(-0.01, -1.01, 1, -0.01, 6650.13, 11249.76)" xlink:href="#linear-gradient-3"></linearGradient><linearGradient id="linear-gradient-22" x1="10983.21" y1="-6528.08" x2="10990.35" y2="-6528.08" gradientTransform="matrix(-0.01, -1.01, 1, -0.01, 6650.13, 11249.76)" xlink:href="#linear-gradient-3"></linearGradient><linearGradient id="linear-gradient-23" x1="10954.48" y1="-6528.08" x2="10961.62" y2="-6528.08" gradientTransform="matrix(-0.01, -1.01, 1, -0.01, 6650.13, 11249.76)" xlink:href="#linear-gradient-3"></linearGradient><linearGradient id="linear-gradient-24" x1="10952.09" y1="-6528.08" x2="10959.23" y2="-6528.08" gradientTransform="matrix(-0.01, -1.01, 1, -0.01, 6650.13, 11249.76)" xlink:href="#linear-gradient-3"></linearGradient><linearGradient id="linear-gradient-25" x1="10959.27" y1="-6528.08" x2="10966.41" y2="-6528.08" gradientTransform="matrix(-0.01, -1.01, 1, -0.01, 6650.13, 11249.76)" xlink:href="#linear-gradient-3"></linearGradient><linearGradient id="linear-gradient-26" x1="10956.88" y1="-6528.08" x2="10964.02" y2="-6528.08" gradientTransform="matrix(-0.01, -1.01, 1, -0.01, 6650.13, 11249.76)" xlink:href="#linear-gradient-3"></linearGradient><linearGradient id="linear-gradient-27" x1="10964.06" y1="-6528.08" x2="10971.2" y2="-6528.08" gradientTransform="matrix(-0.01, -1.01, 1, -0.01, 6650.13, 11249.76)" xlink:href="#linear-gradient-3"></linearGradient><linearGradient id="linear-gradient-28" x1="10961.66" y1="-6528.08" x2="10968.8" y2="-6528.08" gradientTransform="matrix(-0.01, -1.01, 1, -0.01, 6650.13, 11249.76)" xlink:href="#linear-gradient-3"></linearGradient><linearGradient id="linear-gradient-29" x1="10966.45" y1="-6528.08" x2="10973.59" y2="-6528.08" gradientTransform="matrix(-0.01, -1.01, 1, -0.01, 6650.13, 11249.76)" xlink:href="#linear-gradient-3"></linearGradient><linearGradient id="linear-gradient-30" x1="10935.33" y1="-6528.08" x2="10942.47" y2="-6528.08" gradientTransform="matrix(-0.01, -1.01, 1, -0.01, 6650.13, 11249.76)" xlink:href="#linear-gradient-3"></linearGradient><linearGradient id="linear-gradient-31" x1="10932.94" y1="-6528.08" x2="10940.08" y2="-6528.08" gradientTransform="matrix(-0.01, -1.01, 1, -0.01, 6650.13, 11249.76)" xlink:href="#linear-gradient-3"></linearGradient><linearGradient id="linear-gradient-32" x1="10940.12" y1="-6528.08" x2="10947.26" y2="-6528.08" gradientTransform="matrix(-0.01, -1.01, 1, -0.01, 6650.13, 11249.76)" xlink:href="#linear-gradient-3"></linearGradient><linearGradient id="linear-gradient-33" x1="10937.73" y1="-6528.08" x2="10944.87" y2="-6528.08" gradientTransform="matrix(-0.01, -1.01, 1, -0.01, 6650.13, 11249.76)" xlink:href="#linear-gradient-3"></linearGradient><linearGradient id="linear-gradient-34" x1="10944.91" y1="-6528.08" x2="10952.05" y2="-6528.08" gradientTransform="matrix(-0.01, -1.01, 1, -0.01, 6650.13, 11249.76)" xlink:href="#linear-gradient-3"></linearGradient><linearGradient id="linear-gradient-35" x1="10942.51" y1="-6528.08" x2="10949.65" y2="-6528.08" gradientTransform="matrix(-0.01, -1.01, 1, -0.01, 6650.13, 11249.76)" xlink:href="#linear-gradient-3"></linearGradient><linearGradient id="linear-gradient-36" x1="10949.69" y1="-6528.08" x2="10956.84" y2="-6528.08" gradientTransform="matrix(-0.01, -1.01, 1, -0.01, 6650.13, 11249.76)" xlink:href="#linear-gradient-3"></linearGradient><linearGradient id="linear-gradient-37" x1="10947.3" y1="-6528.08" x2="10954.44" y2="-6528.08" gradientTransform="matrix(-0.01, -1.01, 1, -0.01, 6650.13, 11249.76)" xlink:href="#linear-gradient-3"></linearGradient><linearGradient id="linear-gradient-38" x1="10990.39" y1="13075" x2="10997.53" y2="13075" gradientTransform="matrix(-0.01, -1.01, -1, 0.01, 13436.13, 11175.97)" gradientUnits="userSpaceOnUse"><stop offset="0" stop-color="#3e2c57"></stop><stop offset="1" stop-color="#fcdcda"></stop></linearGradient><linearGradient id="linear-gradient-39" x1="10987.99" y1="13075" x2="10995.13" y2="13075" xlink:href="#linear-gradient-38"></linearGradient><linearGradient id="linear-gradient-40" x1="10995.17" y1="13075" x2="11002.32" y2="13075" xlink:href="#linear-gradient-38"></linearGradient><linearGradient id="linear-gradient-41" x1="10992.78" y1="13075" x2="10999.92" y2="13075" xlink:href="#linear-gradient-38"></linearGradient><linearGradient id="linear-gradient-42" x1="10999.96" y1="13075" x2="11007.1" y2="13075" xlink:href="#linear-gradient-38"></linearGradient><linearGradient id="linear-gradient-43" x1="10997.57" y1="13075" x2="11004.71" y2="13075" xlink:href="#linear-gradient-38"></linearGradient><linearGradient id="linear-gradient-44" x1="11004.75" y1="13075" x2="11011.89" y2="13075" xlink:href="#linear-gradient-38"></linearGradient><linearGradient id="linear-gradient-45" x1="11002.35" y1="13075" x2="11009.5" y2="13075" xlink:href="#linear-gradient-38"></linearGradient><linearGradient id="linear-gradient-46" x1="11009.93" y1="13075" x2="11017.07" y2="13075" xlink:href="#linear-gradient-38"></linearGradient><linearGradient id="linear-gradient-47" x1="11007.54" y1="13075" x2="11014.68" y2="13075" xlink:href="#linear-gradient-38"></linearGradient><linearGradient id="linear-gradient-48" x1="10971.24" y1="13075" x2="10978.38" y2="13075" xlink:href="#linear-gradient-38"></linearGradient><linearGradient id="linear-gradient-49" x1="10968.84" y1="13075" x2="10975.99" y2="13075" xlink:href="#linear-gradient-38"></linearGradient><linearGradient id="linear-gradient-50" x1="10976.02" y1="13075" x2="10983.17" y2="13075" xlink:href="#linear-gradient-38"></linearGradient><linearGradient id="linear-gradient-51" x1="10973.63" y1="13075" x2="10980.77" y2="13075" xlink:href="#linear-gradient-38"></linearGradient><linearGradient id="linear-gradient-52" x1="10980.81" y1="13075" x2="10987.95" y2="13075" xlink:href="#linear-gradient-38"></linearGradient><linearGradient id="linear-gradient-53" x1="10978.42" y1="13075" x2="10985.56" y2="13075" xlink:href="#linear-gradient-38"></linearGradient><linearGradient id="linear-gradient-54" x1="10985.6" y1="13075" x2="10992.74" y2="13075" xlink:href="#linear-gradient-38"></linearGradient><linearGradient id="linear-gradient-55" x1="10983.21" y1="13075" x2="10990.35" y2="13075" xlink:href="#linear-gradient-38"></linearGradient><linearGradient id="linear-gradient-56" x1="10954.48" y1="13075" x2="10961.62" y2="13075" xlink:href="#linear-gradient-38"></linearGradient><linearGradient id="linear-gradient-57" x1="10952.09" y1="13075" x2="10959.23" y2="13075" xlink:href="#linear-gradient-38"></linearGradient><linearGradient id="linear-gradient-58" x1="10959.27" y1="13075" x2="10966.41" y2="13075" xlink:href="#linear-gradient-38"></linearGradient><linearGradient id="linear-gradient-59" x1="10956.88" y1="13075" x2="10964.02" y2="13075" xlink:href="#linear-gradient-38"></linearGradient><linearGradient id="linear-gradient-60" x1="10964.06" y1="13075" x2="10971.2" y2="13075" xlink:href="#linear-gradient-38"></linearGradient><linearGradient id="linear-gradient-61" x1="10961.66" y1="13075" x2="10968.8" y2="13075" xlink:href="#linear-gradient-38"></linearGradient><linearGradient id="linear-gradient-62" x1="10966.45" y1="13075" x2="10973.59" y2="13075" xlink:href="#linear-gradient-38"></linearGradient><linearGradient id="linear-gradient-63" x1="10935.33" y1="13075" x2="10942.47" y2="13075" xlink:href="#linear-gradient-38"></linearGradient><linearGradient id="linear-gradient-64" x1="10932.94" y1="13075" x2="10940.08" y2="13075" xlink:href="#linear-gradient-38"></linearGradient><linearGradient id="linear-gradient-65" x1="10940.12" y1="13075" x2="10947.26" y2="13075" xlink:href="#linear-gradient-38"></linearGradient><linearGradient id="linear-gradient-66" x1="10937.73" y1="13075" x2="10944.87" y2="13075" xlink:href="#linear-gradient-38"></linearGradient><linearGradient id="linear-gradient-67" x1="10944.91" y1="13075" x2="10952.05" y2="13075" xlink:href="#linear-gradient-38"></linearGradient><linearGradient id="linear-gradient-68" x1="10942.51" y1="13075" x2="10949.65" y2="13075" xlink:href="#linear-gradient-38"></linearGradient><linearGradient id="linear-gradient-69" x1="10949.69" y1="13075" x2="10956.84" y2="13075" xlink:href="#linear-gradient-38"></linearGradient><linearGradient id="linear-gradient-70" x1="10947.3" y1="13075" x2="10954.44" y2="13075" xlink:href="#linear-gradient-38"></linearGradient><linearGradient id="linear-gradient-71" x1="-963.52" y1="2100.32" x2="-776.95" y2="2100.32" gradientTransform="translate(2222.48 -640.11) rotate(45)" gradientUnits="userSpaceOnUse"><stop offset="0" stop-color="#221730"></stop><stop offset="0.52" stop-color="#3e2c57"></stop><stop offset="0.97" stop-color="#fcdcda"></stop></linearGradient><linearGradient id="linear-gradient-72" x1="-886.33" y1="696.91" x2="-863.31" y2="696.91" gradientTransform="translate(889.7 -465.99)" xlink:href="#linear-gradient-3"></linearGradient><linearGradient id="linear-gradient-73" x1="-658.32" y1="696.91" x2="-635.3" y2="696.91" gradientTransform="translate(889.68 -468.47)" xlink:href="#linear-gradient-38"></linearGradient><linearGradient id="linear-gradient-74" x1="-855.59" y1="783.07" x2="-713.43" y2="595.79" gradientTransform="translate(882.07 -475.54) rotate(-0.62)" gradientUnits="userSpaceOnUse"><stop offset="0" stop-color="#221730"></stop><stop offset="0.47" stop-color="#3e2c57"></stop><stop offset="1" stop-color="#fcdcda"></stop></linearGradient><linearGradient id="linear-gradient-75" x1="649.4" y1="306.64" x2="691.35" y2="306.64" gradientTransform="translate(-520.01 55.17) rotate(-9.55)" gradientUnits="userSpaceOnUse"><stop offset="0" stop-color="#3e2c57"></stop><stop offset="1" stop-color="#a03594"></stop></linearGradient><linearGradient id="linear-gradient-76" x1="649.4" y1="301.23" x2="731.34" y2="301.23" gradientTransform="translate(-520.01 55.17) rotate(-9.55)" gradientUnits="userSpaceOnUse"><stop offset="0.55" stop-color="#fcdcda"></stop><stop offset="0.89" stop-color="#3e2c57"></stop></linearGradient><linearGradient id="linear-gradient-77" x1="649.4" y1="295.87" x2="691.35" y2="295.87" xlink:href="#linear-gradient-75"></linearGradient><linearGradient id="linear-gradient-78" x1="649.4" y1="301.44" x2="691.35" y2="301.44" gradientTransform="translate(-520.01 55.17) rotate(-9.55)" gradientUnits="userSpaceOnUse"><stop offset="0" stop-color="#20162d"></stop><stop offset="1" stop-color="#a03594"></stop></linearGradient><linearGradient id="linear-gradient-79" x1="1212.27" y1="-525.88" x2="1246.98" y2="-525.88" gradientTransform="matrix(0.95, -0.3, 0.3, 0.95, -849.63, 1100.07)" xlink:href="#linear-gradient-75"></linearGradient><linearGradient id="linear-gradient-80" x1="1212.27" y1="-530.35" x2="1280.07" y2="-530.35" gradientTransform="matrix(0.95, -0.3, 0.3, 0.95, -849.63, 1100.07)" gradientUnits="userSpaceOnUse"><stop offset="0.75" stop-color="#fcdcda"></stop><stop offset="0.89" stop-color="#3e2c57"></stop></linearGradient><linearGradient id="linear-gradient-81" x1="1212.27" y1="-534.79" x2="1246.98" y2="-534.79" gradientTransform="matrix(0.95, -0.3, 0.3, 0.95, -849.63, 1100.07)" xlink:href="#linear-gradient-75"></linearGradient><linearGradient id="linear-gradient-82" x1="1212.27" y1="-530.18" x2="1246.98" y2="-530.18" gradientTransform="matrix(0.95, -0.3, 0.3, 0.95, -849.63, 1100.07)" gradientUnits="userSpaceOnUse"><stop offset="0" stop-color="#20162d"></stop><stop offset="0.97" stop-color="#a03594"></stop></linearGradient><linearGradient id="linear-gradient-83" x1="3095.23" y1="-2156.54" x2="3137.18" y2="-2156.54" gradientTransform="matrix(0.8, -0.6, 0.6, 0.8, -1019.42, 3847.71)" xlink:href="#linear-gradient-75"></linearGradient><linearGradient id="linear-gradient-84" x1="3095.23" y1="-2161.95" x2="3232.88" y2="-2161.95" gradientTransform="matrix(0.8, -0.6, 0.6, 0.8, -1019.42, 3847.71)" gradientUnits="userSpaceOnUse"><stop offset="0.5" stop-color="#fcdcda"></stop><stop offset="0.98" stop-color="#3e2c57"></stop></linearGradient><linearGradient id="linear-gradient-85" x1="317.2" y1="1223.81" x2="534.81" y2="1223.81" gradientTransform="translate(-304.2 -1154.42)" gradientUnits="userSpaceOnUse"><stop offset="0.08" stop-color="#45325d"></stop><stop offset="0.51" stop-color="#fcdcda"></stop><stop offset="0.92" stop-color="#45325d"></stop></linearGradient><linearGradient id="linear-gradient-86" x1="317.2" y1="1162.97" x2="334.5" y2="1162.97" gradientTransform="translate(-309.8 -1152.46) rotate(-0.26)" gradientUnits="userSpaceOnUse"><stop offset="0" stop-color="#45325d"></stop><stop offset="1" stop-color="#fcdcda"></stop></linearGradient><linearGradient id="linear-gradient-87" x1="317.2" y1="6707.41" x2="334.5" y2="6707.41" gradientTransform="matrix(1, 0, 0, -1, -273.16, 6842.53)" xlink:href="#linear-gradient-86"></linearGradient><linearGradient id="linear-gradient-88" x1="311.43" y1="1226.83" x2="317.2" y2="1226.83" gradientTransform="translate(-304.18 -1153.91)" gradientUnits="userSpaceOnUse"><stop offset="0" stop-color="#3e2c57"></stop><stop offset="0.6" stop-color="#fbd3d2"></stop></linearGradient><linearGradient id="linear-gradient-89" x1="306.81" y1="1157.71" x2="311.43" y2="1157.71" gradientTransform="translate(-309.8 -1152.46) rotate(-0.26)" xlink:href="#linear-gradient-88"></linearGradient><linearGradient id="linear-gradient-90" x1="306.81" y1="1163.21" x2="311.43" y2="1163.21" gradientTransform="translate(-309.8 -1152.46) rotate(-0.26)" xlink:href="#linear-gradient-88"></linearGradient><linearGradient id="linear-gradient-91" x1="306.81" y1="1168.72" x2="311.43" y2="1168.72" gradientTransform="translate(-309.8 -1152.46) rotate(-0.26)" xlink:href="#linear-gradient-88"></linearGradient><linearGradient id="linear-gradient-92" x1="306.81" y1="1174.23" x2="311.43" y2="1174.23" gradientTransform="translate(-309.8 -1152.46) rotate(-0.26)" xlink:href="#linear-gradient-88"></linearGradient><linearGradient id="linear-gradient-93" x1="306.81" y1="1179.74" x2="311.43" y2="1179.74" gradientTransform="translate(-309.8 -1152.46) rotate(-0.26)" xlink:href="#linear-gradient-88"></linearGradient><linearGradient id="linear-gradient-94" x1="306.81" y1="1185.25" x2="311.43" y2="1185.25" gradientTransform="translate(-309.8 -1152.46) rotate(-0.26)" xlink:href="#linear-gradient-88"></linearGradient><linearGradient id="linear-gradient-95" x1="306.81" y1="1190.76" x2="311.43" y2="1190.76" gradientTransform="translate(-309.8 -1152.46) rotate(-0.26)" xlink:href="#linear-gradient-88"></linearGradient><linearGradient id="linear-gradient-96" x1="306.81" y1="1196.27" x2="311.43" y2="1196.27" gradientTransform="translate(-309.8 -1152.46) rotate(-0.26)" xlink:href="#linear-gradient-88"></linearGradient><linearGradient id="linear-gradient-97" x1="306.81" y1="1201.78" x2="311.43" y2="1201.78" gradientTransform="translate(-309.8 -1152.46) rotate(-0.26)" xlink:href="#linear-gradient-88"></linearGradient><linearGradient id="linear-gradient-98" x1="306.81" y1="1207.29" x2="311.43" y2="1207.29" gradientTransform="translate(-309.8 -1152.46) rotate(-0.26)" xlink:href="#linear-gradient-88"></linearGradient><linearGradient id="linear-gradient-99" x1="306.81" y1="1212.8" x2="311.43" y2="1212.8" gradientTransform="translate(-309.8 -1152.46) rotate(-0.26)" xlink:href="#linear-gradient-88"></linearGradient><linearGradient id="linear-gradient-100" x1="306.81" y1="1218.31" x2="311.43" y2="1218.31" gradientTransform="translate(-309.8 -1152.46) rotate(-0.26)" xlink:href="#linear-gradient-88"></linearGradient><linearGradient id="linear-gradient-101" x1="306.81" y1="1223.82" x2="311.43" y2="1223.82" gradientTransform="translate(-309.8 -1152.46) rotate(-0.26)" xlink:href="#linear-gradient-88"></linearGradient><linearGradient id="linear-gradient-102" x1="306.81" y1="1229.32" x2="311.43" y2="1229.32" gradientTransform="translate(-309.8 -1152.46) rotate(-0.26)" xlink:href="#linear-gradient-88"></linearGradient><linearGradient id="linear-gradient-103" x1="306.81" y1="1234.83" x2="311.43" y2="1234.83" gradientTransform="translate(-309.8 -1152.46) rotate(-0.26)" xlink:href="#linear-gradient-88"></linearGradient><linearGradient id="linear-gradient-104" x1="306.81" y1="1240.34" x2="311.43" y2="1240.34" gradientTransform="translate(-309.8 -1152.46) rotate(-0.26)" xlink:href="#linear-gradient-88"></linearGradient><linearGradient id="linear-gradient-105" x1="306.81" y1="1245.85" x2="311.43" y2="1245.85" gradientTransform="translate(-309.8 -1152.46) rotate(-0.26)" xlink:href="#linear-gradient-88"></linearGradient><linearGradient id="linear-gradient-106" x1="306.81" y1="1251.36" x2="311.43" y2="1251.36" gradientTransform="translate(-309.8 -1152.46) rotate(-0.26)" xlink:href="#linear-gradient-88"></linearGradient><linearGradient id="linear-gradient-107" x1="306.81" y1="1256.87" x2="311.43" y2="1256.87" gradientTransform="translate(-309.8 -1152.46) rotate(-0.26)" xlink:href="#linear-gradient-88"></linearGradient><linearGradient id="linear-gradient-108" x1="306.81" y1="1262.38" x2="311.43" y2="1262.38" gradientTransform="translate(-309.8 -1152.46) rotate(-0.26)" xlink:href="#linear-gradient-88"></linearGradient><linearGradient id="linear-gradient-109" x1="306.81" y1="1267.89" x2="311.43" y2="1267.89" gradientTransform="translate(-309.8 -1152.46) rotate(-0.26)" xlink:href="#linear-gradient-88"></linearGradient><linearGradient id="linear-gradient-110" x1="306.81" y1="1273.4" x2="311.43" y2="1273.4" gradientTransform="translate(-309.8 -1152.46) rotate(-0.26)" xlink:href="#linear-gradient-88"></linearGradient><linearGradient id="linear-gradient-111" x1="306.81" y1="1278.91" x2="311.43" y2="1278.91" gradientTransform="translate(-309.8 -1152.46) rotate(-0.26)" xlink:href="#linear-gradient-88"></linearGradient><linearGradient id="linear-gradient-112" x1="306.81" y1="1284.42" x2="311.43" y2="1284.42" gradientTransform="translate(-309.8 -1152.46) rotate(-0.26)" xlink:href="#linear-gradient-88"></linearGradient><linearGradient id="linear-gradient-113" x1="306.81" y1="1289.93" x2="311.43" y2="1289.93" gradientTransform="translate(-309.8 -1152.46) rotate(-0.26)" xlink:href="#linear-gradient-88"></linearGradient><linearGradient id="linear-gradient-114" x1="306.81" y1="1295.7" x2="311.43" y2="1295.7" gradientTransform="translate(-309.8 -1152.46) rotate(-0.26)" xlink:href="#linear-gradient-88"></linearGradient><linearGradient id="linear-gradient-115" x1="10305.85" y1="6466.84" x2="10310.47" y2="6466.84" gradientTransform="translate(10576.7 6560.52) rotate(179.74)" xlink:href="#linear-gradient-88"></linearGradient><linearGradient id="linear-gradient-116" x1="10305.85" y1="6472.35" x2="10310.47" y2="6472.35" gradientTransform="translate(10576.7 6560.52) rotate(179.74)" xlink:href="#linear-gradient-88"></linearGradient><linearGradient id="linear-gradient-117" x1="10305.85" y1="6477.86" x2="10310.47" y2="6477.86" gradientTransform="translate(10576.7 6560.52) rotate(179.74)" xlink:href="#linear-gradient-88"></linearGradient><linearGradient id="linear-gradient-118" x1="10305.85" y1="6483.37" x2="10310.47" y2="6483.37" gradientTransform="translate(10576.7 6560.52) rotate(179.74)" xlink:href="#linear-gradient-88"></linearGradient><linearGradient id="linear-gradient-119" x1="10305.85" y1="6488.88" x2="10310.47" y2="6488.88" gradientTransform="translate(10576.7 6560.52) rotate(179.74)" xlink:href="#linear-gradient-88"></linearGradient><linearGradient id="linear-gradient-120" x1="10305.85" y1="6494.39" x2="10310.47" y2="6494.39" gradientTransform="translate(10576.7 6560.52) rotate(179.74)" xlink:href="#linear-gradient-88"></linearGradient><linearGradient id="linear-gradient-121" x1="10305.85" y1="6499.9" x2="10310.47" y2="6499.9" gradientTransform="translate(10576.7 6560.52) rotate(179.74)" xlink:href="#linear-gradient-88"></linearGradient><linearGradient id="linear-gradient-122" x1="10305.85" y1="6505.4" x2="10310.47" y2="6505.4" gradientTransform="translate(10576.7 6560.52) rotate(179.74)" xlink:href="#linear-gradient-88"></linearGradient><linearGradient id="linear-gradient-123" x1="10305.85" y1="6510.91" x2="10310.47" y2="6510.91" gradientTransform="translate(10576.7 6560.52) rotate(179.74)" xlink:href="#linear-gradient-88"></linearGradient><linearGradient id="linear-gradient-124" x1="10305.85" y1="6516.42" x2="10310.47" y2="6516.42" gradientTransform="translate(10576.7 6560.52) rotate(179.74)" xlink:href="#linear-gradient-88"></linearGradient><linearGradient id="linear-gradient-125" x1="10305.85" y1="6521.93" x2="10310.47" y2="6521.93" gradientTransform="translate(10576.7 6560.52) rotate(179.74)" xlink:href="#linear-gradient-88"></linearGradient><linearGradient id="linear-gradient-126" x1="10305.85" y1="6527.44" x2="10310.47" y2="6527.44" gradientTransform="translate(10576.7 6560.52) rotate(179.74)" xlink:href="#linear-gradient-88"></linearGradient><linearGradient id="linear-gradient-127" x1="10305.85" y1="6532.95" x2="10310.47" y2="6532.95" gradientTransform="translate(10576.7 6560.52) rotate(179.74)" xlink:href="#linear-gradient-88"></linearGradient><linearGradient id="linear-gradient-128" x1="10305.85" y1="6538.46" x2="10310.47" y2="6538.46" gradientTransform="translate(10576.7 6560.52) rotate(179.74)" xlink:href="#linear-gradient-88"></linearGradient><linearGradient id="linear-gradient-129" x1="10305.85" y1="6543.97" x2="10310.47" y2="6543.97" gradientTransform="translate(10576.7 6560.52) rotate(179.74)" xlink:href="#linear-gradient-88"></linearGradient><linearGradient id="linear-gradient-130" x1="10305.85" y1="6549.48" x2="10310.47" y2="6549.48" gradientTransform="translate(10576.7 6560.52) rotate(179.74)" xlink:href="#linear-gradient-88"></linearGradient><linearGradient id="linear-gradient-131" x1="10305.85" y1="6554.99" x2="10310.47" y2="6554.99" gradientTransform="translate(10576.7 6560.52) rotate(179.74)" xlink:href="#linear-gradient-88"></linearGradient><linearGradient id="linear-gradient-132" x1="10305.85" y1="6560.5" x2="10310.47" y2="6560.5" gradientTransform="translate(10576.7 6560.52) rotate(179.74)" xlink:href="#linear-gradient-88"></linearGradient><linearGradient id="linear-gradient-133" x1="10305.85" y1="6566.01" x2="10310.47" y2="6566.01" gradientTransform="translate(10576.7 6560.52) rotate(179.74)" xlink:href="#linear-gradient-88"></linearGradient><linearGradient id="linear-gradient-134" x1="10305.85" y1="6571.52" x2="10310.47" y2="6571.52" gradientTransform="translate(10576.7 6560.52) rotate(179.74)" xlink:href="#linear-gradient-88"></linearGradient><linearGradient id="linear-gradient-135" x1="10305.85" y1="6577.02" x2="10310.47" y2="6577.02" gradientTransform="translate(10576.7 6560.52) rotate(179.74)" xlink:href="#linear-gradient-88"></linearGradient><linearGradient id="linear-gradient-136" x1="10305.85" y1="6582.53" x2="10310.47" y2="6582.53" gradientTransform="translate(10576.7 6560.52) rotate(179.74)" xlink:href="#linear-gradient-88"></linearGradient><linearGradient id="linear-gradient-137" x1="10305.85" y1="6588.04" x2="10310.47" y2="6588.04" gradientTransform="translate(10576.7 6560.52) rotate(179.74)" xlink:href="#linear-gradient-88"></linearGradient><linearGradient id="linear-gradient-138" x1="10305.85" y1="6593.55" x2="10310.47" y2="6593.55" gradientTransform="translate(10576.7 6560.52) rotate(179.74)" xlink:href="#linear-gradient-88"></linearGradient><linearGradient id="linear-gradient-139" x1="10305.85" y1="6599.06" x2="10310.47" y2="6599.06" gradientTransform="translate(10576.7 6560.52) rotate(179.74)" xlink:href="#linear-gradient-88"></linearGradient><linearGradient id="linear-gradient-140" x1="10305.85" y1="6604.83" x2="10310.47" y2="6604.83" gradientTransform="translate(10576.7 6560.52) rotate(179.74)" xlink:href="#linear-gradient-88"></linearGradient><linearGradient id="linear-gradient-141" x1="9760.4" y1="1162.97" x2="9777.7" y2="1162.97" gradientTransform="matrix(-1, 0, 0, 1, 9985.3, -1199.65)" xlink:href="#linear-gradient-86"></linearGradient><linearGradient id="linear-gradient-142" x1="9760.4" y1="6707.41" x2="9777.7" y2="6707.41" gradientTransform="translate(10021.95 6795.35) rotate(179.74)" xlink:href="#linear-gradient-86"></linearGradient><linearGradient id="linear-gradient-143" x1="9754.64" y1="1226.83" x2="9760.4" y2="1226.83" gradientTransform="matrix(1, 0, 0, -1, -9524.01, 1298.72)" xlink:href="#linear-gradient-88"></linearGradient></defs><g id="Layer_2" data-name="Layer 2"><g id="Design"><rect class="cls-1" x="58.59" y="80.26" width="128.79" height="128.84"></rect><polygon class="cls-2" points="58.06 79.89 58.06 79.89 58.06 209.35 187.66 209.35 58.06 79.89"></polygon><polygon class="cls-3" points="27.16 268.23 12.22 271.26 11.35 190.87 26.35 193.58 27.16 268.23"></polygon><polygon class="cls-4" points="217.34 265.96 232.34 268.67 231.47 188.28 216.53 191.31 217.34 265.96"></polygon><polygon class="cls-5" points="0.21 211.84 3.18 213.12 3.15 210.48 0.21 211.84"></polygon><polygon class="cls-6" points="0.24 214.25 3.2 215.54 3.17 212.9 0.24 214.25"></polygon><polygon class="cls-7" points="0.16 207 3.12 208.28 3.1 205.65 0.16 207"></polygon><polygon class="cls-8" points="0.19 209.42 3.15 210.7 3.12 208.06 0.19 209.42"></polygon><polygon class="cls-9" points="0.11 202.16 3.07 203.45 3.04 200.81 0.11 202.16"></polygon><polygon class="cls-10" points="0.14 204.58 3.1 205.87 3.07 203.23 0.14 204.58"></polygon><polygon class="cls-11" points="0.06 197.32 3.02 198.61 2.99 195.97 0.06 197.32"></polygon><polygon class="cls-12" points="0.08 199.74 3.04 201.03 3.02 198.39 0.08 199.74"></polygon><polygon class="cls-13" points="0 192.09 2.96 193.37 2.93 190.73 0 192.09"></polygon><polygon class="cls-14" points="0.03 194.5 2.99 195.79 2.96 193.15 0.03 194.5"></polygon><polygon class="cls-15" points="0.42 231.19 3.39 232.48 3.36 229.84 0.42 231.19"></polygon><polygon class="cls-16" points="0.45 233.61 3.41 234.9 3.38 232.26 0.45 233.61"></polygon><polygon class="cls-17" points="0.37 226.35 3.33 227.64 3.31 225 0.37 226.35"></polygon><polygon class="cls-18" points="0.4 228.77 3.36 230.06 3.33 227.42 0.4 228.77"></polygon><polygon class="cls-19" points="0.32 221.51 3.28 222.8 3.25 220.16 0.32 221.51"></polygon><polygon class="cls-20" points="0.35 223.93 3.31 225.22 3.28 222.58 0.35 223.93"></polygon><polygon class="cls-21" points="0.27 216.67 3.23 217.96 3.2 215.32 0.27 216.67"></polygon><polygon class="cls-22" points="0.29 219.09 3.25 220.38 3.23 217.74 0.29 219.09"></polygon><polygon class="cls-23" points="0.61 248.12 3.57 249.41 3.54 246.77 0.61 248.12"></polygon><polygon class="cls-24" points="0.64 250.54 3.6 251.83 3.57 249.19 0.64 250.54"></polygon><polygon class="cls-25" points="0.56 243.28 3.52 244.57 3.49 241.93 0.56 243.28"></polygon><polygon class="cls-26" points="0.58 245.7 3.54 246.99 3.52 244.35 0.58 245.7"></polygon><polygon class="cls-27" points="0.5 238.45 3.47 239.73 3.44 237.09 0.5 238.45"></polygon><polygon class="cls-28" points="0.53 240.87 3.49 242.15 3.46 239.51 0.53 240.87"></polygon><polygon class="cls-29" points="0.48 236.03 3.44 237.31 3.41 234.68 0.48 236.03"></polygon><polygon class="cls-30" points="0.82 267.48 3.78 268.76 3.75 266.13 0.82 267.48"></polygon><polygon class="cls-31" points="0.85 269.9 3.81 271.18 3.78 268.55 0.85 269.9"></polygon><polygon class="cls-32" points="0.77 262.64 3.73 263.93 3.7 261.29 0.77 262.64"></polygon><polygon class="cls-33" points="0.79 265.06 3.75 266.35 3.73 263.71 0.79 265.06"></polygon><polygon class="cls-34" points="0.71 257.8 3.68 259.09 3.65 256.45 0.71 257.8"></polygon><polygon class="cls-35" points="0.74 260.22 3.7 261.51 3.67 258.87 0.74 260.22"></polygon><polygon class="cls-36" points="0.66 252.96 3.62 254.25 3.6 251.61 0.66 252.96"></polygon><polygon class="cls-37" points="0.69 255.38 3.65 256.67 3.62 254.03 0.69 255.38"></polygon><polygon class="cls-38" points="242.52 209.2 239.59 210.55 239.56 207.91 242.52 209.2"></polygon><polygon class="cls-39" points="242.55 211.62 239.61 212.97 239.59 210.33 242.55 211.62"></polygon><polygon class="cls-40" points="242.47 204.36 239.53 205.71 239.51 203.07 242.47 204.36"></polygon><polygon class="cls-41" points="242.5 206.78 239.56 208.13 239.53 205.49 242.5 206.78"></polygon><polygon class="cls-42" points="242.42 199.52 239.48 200.88 239.45 198.24 242.42 199.52"></polygon><polygon class="cls-43" points="242.44 201.94 239.51 203.29 239.48 200.66 242.44 201.94"></polygon><polygon class="cls-44" points="242.36 194.69 239.43 196.04 239.4 193.4 242.36 194.69"></polygon><polygon class="cls-45" points="242.39 197.1 239.46 198.46 239.43 195.82 242.39 197.1"></polygon><polygon class="cls-46" points="242.31 189.45 239.37 190.8 239.34 188.16 242.31 189.45"></polygon><polygon class="cls-47" points="242.33 191.87 239.4 193.22 239.37 190.58 242.33 191.87"></polygon><polygon class="cls-48" points="242.73 228.55 239.8 229.91 239.77 227.27 242.73 228.55"></polygon><polygon class="cls-49" points="242.76 230.97 239.82 232.32 239.8 229.69 242.76 230.97"></polygon><polygon class="cls-50" points="242.68 223.72 239.75 225.07 239.72 222.43 242.68 223.72"></polygon><polygon class="cls-51" points="242.71 226.13 239.77 227.49 239.74 224.85 242.71 226.13"></polygon><polygon class="cls-52" points="242.63 218.88 239.69 220.23 239.66 217.59 242.63 218.88"></polygon><polygon class="cls-53" points="242.65 221.3 239.72 222.65 239.69 220.01 242.65 221.3"></polygon><polygon class="cls-54" points="242.57 214.04 239.64 215.39 239.61 212.75 242.57 214.04"></polygon><polygon class="cls-55" points="242.6 216.46 239.67 217.81 239.64 215.17 242.6 216.46"></polygon><polygon class="cls-56" points="242.92 245.49 239.98 246.84 239.95 244.2 242.92 245.49"></polygon><polygon class="cls-57" points="242.94 247.91 240.01 249.26 239.98 246.62 242.94 247.91"></polygon><polygon class="cls-58" points="242.86 240.65 239.93 242 239.9 239.36 242.86 240.65"></polygon><polygon class="cls-59" points="242.89 243.07 239.96 244.42 239.93 241.78 242.89 243.07"></polygon><polygon class="cls-60" points="242.81 235.81 239.88 237.16 239.85 234.52 242.81 235.81"></polygon><polygon class="cls-61" points="242.84 238.23 239.9 239.58 239.88 236.94 242.84 238.23"></polygon><polygon class="cls-62" points="242.78 233.39 239.85 234.74 239.82 232.1 242.78 233.39"></polygon><polygon class="cls-63" points="243.13 264.84 240.19 266.19 240.16 263.56 243.13 264.84"></polygon><polygon class="cls-64" points="243.15 267.26 240.22 268.61 240.19 265.97 243.15 267.26"></polygon><polygon class="cls-65" points="243.07 260 240.14 261.36 240.11 258.72 243.07 260"></polygon><polygon class="cls-66" points="243.1 262.42 240.17 263.77 240.14 261.13 243.1 262.42"></polygon><polygon class="cls-67" points="243.02 255.16 240.09 256.52 240.06 253.88 243.02 255.16"></polygon><polygon class="cls-68" points="243.05 257.58 240.11 258.94 240.09 256.3 243.05 257.58"></polygon><polygon class="cls-69" points="242.97 250.33 240.04 251.68 240.01 249.04 242.97 250.33"></polygon><polygon class="cls-70" points="243 252.75 240.06 254.1 240.03 251.46 243 252.75"></polygon><path class="cls-71" d="M217.3,243.34l.07,0-.56-52L26.35,193.41l.81,74.64L217.62,266l-.15-14.06-.06,0-.17.07c-.15.07-.37.16-.65.26l.8-.74ZM101.06,258l1,.07,2.84.21Z"></path><rect class="cls-72" x="3.37" y="190.68" width="8.41" height="80.46" transform="translate(-2.51 0.1) rotate(-0.62)"></rect><rect class="cls-73" x="231.37" y="188.21" width="8.41" height="80.46" transform="translate(-2.47 2.58) rotate(-0.62)"></rect><polygon class="cls-74" points="96.33 247.38 96.37 251.07 136.4 245.26 136.37 242.21 96.33 247.38"></polygon><polygon class="cls-74" points="79.95 256.39 79.99 260.09 136.47 251.4 136.43 248.35 79.95 256.39"></polygon><path class="cls-75" d="M89.58,198.26H134a0,0,0,0,1,0,0v6.24a5.4,5.4,0,0,1-5.4,5.4H84.17a0,0,0,0,1,0,0v-6.24a5.4,5.4,0,0,1,5.4-5.4Z" transform="translate(-2.21 1.2) rotate(-0.62)"></path><path class="cls-74" d="M86.91,207.5a.88.88,0,0,0,.29.63c.16.13.35.14.72.16a3.11,3.11,0,0,0,.87-.06,3,3,0,0,0,.91-.41,2.73,2.73,0,0,0,.64-.55,2.48,2.48,0,0,0,.5-1.17,2.25,2.25,0,0,0,0-.48l0-4.5s-.08-.84-.84-.83-.81.83-.81.83l0,4.24a1.38,1.38,0,0,1-.32.9,1.61,1.61,0,0,1-.82.45c-.49.12-.68,0-.91.15A.84.84,0,0,0,86.91,207.5Z"></path><path class="cls-74" d="M114.7,207.2a.86.86,0,0,0,.28.63,1.23,1.23,0,0,0,.73.16,2.84,2.84,0,0,0,.87-.07,2.7,2.7,0,0,0,.91-.41,2.81,2.81,0,0,0,.64-.54,2.6,2.6,0,0,0,.5-1.17,3.28,3.28,0,0,0,0-.48l0-4.5s-.09-.84-.85-.83-.81.83-.81.83l.05,4.24a1.38,1.38,0,0,1-.32.9,1.56,1.56,0,0,1-.83.44c-.49.12-.67,0-.91.16A.86.86,0,0,0,114.7,207.2Z"></path><rect class="cls-74" x="119.35" y="199.96" width="1.63" height="8" rx="0.75" transform="matrix(1, -0.01, 0.01, 1, -2.21, 1.32)"></rect><path class="cls-74" d="M93.43,206.06h0a.67.67,0,0,1,.06-.94L95.05,204a.67.67,0,0,1,.92.24h0a.67.67,0,0,1-.06.94l-1.56,1.11A.67.67,0,0,1,93.43,206.06Z"></path><rect class="cls-74" x="121.72" y="199.94" width="1.63" height="8" rx="0.75" transform="translate(-2.21 1.34) rotate(-0.62)"></rect><rect class="cls-74" x="123.22" y="204.82" width="1.63" height="4.55" rx="0.75" transform="translate(-81.7 333.37) rotate(-90.62)"></rect><rect class="cls-74" x="126.77" y="199.88" width="1.63" height="8" rx="0.75" transform="translate(-2.21 1.4) rotate(-0.62)"></rect><rect class="cls-74" x="128.26" y="204.76" width="1.63" height="4.55" rx="0.75" transform="translate(-76.55 338.36) rotate(-90.62)"></rect><path class="cls-74" d="M93.2,205.78l0,1.64a.85.85,0,0,1-.54.81.82.82,0,0,1-1.09-.76l0-4.07v0A2.84,2.84,0,0,0,93.2,205.78Z"></path><path class="cls-74" d="M97.81,203.29v0l0,4a.84.84,0,0,1-.54.82.81.81,0,0,1-1.08-.76l0-3.65a1.51,1.51,0,1,0-3,0l0,2a2.84,2.84,0,0,1-1.65-2.42h0v-.07a3.14,3.14,0,0,1,6.26-.06v.06Z"></path><path class="cls-74" d="M104.79,206.53a.85.85,0,0,1,0,.71.79.79,0,0,1-.38.37,4.83,4.83,0,0,1-.58.28,4.64,4.64,0,0,1-1.09.25l-.36,0a3.93,3.93,0,1,1-.09-7.85,3.59,3.59,0,0,1,.47,0,4.51,4.51,0,0,1,1.46.42s.42.23.52.63a.89.89,0,0,1-.15.66,1.12,1.12,0,0,1-.93.42,2.91,2.91,0,0,0-.51-.28,2.37,2.37,0,0,0-.82-.14h0a2.19,2.19,0,1,0,0,4.37h.07a3.08,3.08,0,0,0,1.4-.4A1,1,0,0,1,104.79,206.53Z"></path><rect class="cls-74" x="105.14" y="200.11" width="1.76" height="8" rx="0.81" transform="translate(-2.21 1.16) rotate(-0.62)"></rect><rect class="cls-74" x="110.66" y="201.18" width="1.32" height="2.06" rx="0.61" transform="translate(-2.19 1.22) rotate(-0.62)"></rect><path class="cls-74" d="M110.8,207.81h0a.84.84,0,0,1-1.24-.05l-3-3.27a1,1,0,0,1,0-1.31h0a.87.87,0,0,1,1.25,0l3,3.27A1,1,0,0,1,110.8,207.81Z"></path><path class="cls-74" d="M110.19,200.55h0a.91.91,0,0,1,.13,1.21l-2.41,2.83a.77.77,0,0,1-1.13,0h0a.91.91,0,0,1-.13-1.21l2.41-2.83A.77.77,0,0,1,110.19,200.55Z"></path><path class="cls-74" d="M115.59,204v.13l0,1.39a.76.76,0,0,1-.66.77.73.73,0,0,1-.8-.71h0v-1.43s0-.12,0-.19a.58.58,0,0,0-.05-.11.55.55,0,0,0-.44-.23.51.51,0,0,0-.5.5v0l0,1.45a.74.74,0,0,1-.86.71.75.75,0,0,1-.6-.75l0-1.39c0-.16,0-.29,0-.38a1.8,1.8,0,0,1,1.91-1.75,1.9,1.9,0,0,1,2,1.78Z"></path><path class="cls-76" d="M57.73,253.76c-5.94-.22-10.45-2.1-13.4-5.59-4.6-5.43-4.14-13.34-3.73-16.49.93-7.13,8.72-21.93,26.84-22.12H68c7.23,0,12.25,1.59,14.9,4.71a7.81,7.81,0,0,1,1.92,5.18c1.23,0,3.53.27,4.68,1.59l.25-.21c1.23-1,3.78-3.17,6.3-3.2h0c2.12,0,3,.79,3.46,1.45a9.15,9.15,0,0,1,6-2.47,8.75,8.75,0,0,1,6.25,2.92,8.11,8.11,0,0,1,7-4.3c5.05-.05,17.71-1.61,17.84-1.62h0a3.16,3.16,0,0,1,.47,0A5.32,5.32,0,0,1,141,215.2c.32-4.41,2.21-13.6,12.32-13.71h.16c1.4,0,5.83.21,6.27,2.83a11.14,11.14,0,0,1,6.36,4.26c3.62,5.14.88,11.09.76,11.34-.37,1.17-2.65,7.44-9.23,9.86a14.54,14.54,0,0,1-5,.89,16.06,16.06,0,0,1-4.81-.76c-.93-.1-2.49-1.51-3.44-2.51-.59,2.19-3.06,4.5-4.14,5.33-1.7,1.3-18.52,4.47-20.38,4.79l-.15.18a5.35,5.35,0,0,1-4.52,2.05h0a6.33,6.33,0,0,1-4.73-1.89c-1,1.61-3.93,5.41-10.38,5.48h0a6.79,6.79,0,0,1-5.19-2.12c-2.05-2.2-2.64-5.57-2.8-7.56-1.19,2.25-1.44,5.08-1.65,7.42-.09,1-.17,1.94-.32,2.74-.67,3.67-8.77,4.51-10.9,4.53h0a2.46,2.46,0,0,1-2.07-.85,2.7,2.7,0,0,1-.51-1.49c-2.68,2-10.86,7.42-18.85,7.75h0Z"></path><path class="cls-74" d="M153.49,202c2.23,0,5.78.51,5.8,2.74a10.62,10.62,0,0,1,6.42,4.13c3.42,4.86.83,10.61.72,10.85-.26.82-2.4,7.19-9,9.6a14.12,14.12,0,0,1-4.87.86,15,15,0,0,1-4.71-.76h0c-1,0-3.69-2.81-3.93-3.22v-.06s0,0,0,.06c.29,2.08-2.5,5-4,6.15s-19.89,4.71-20.25,4.71-1.08,2.16-4.5,2.2h-.08a5.52,5.52,0,0,1-4.74-2.29s-2.38,5.79-10.29,5.88H100c-7.74,0-7.46-10.66-7.45-10.77h0c-2.7,3.35-2.35,8.63-2.9,11.66s-7.68,4.09-10.41,4.12h0c-2.68,0-1.94-2.91-1.94-2.91s-10,7.93-19.46,8.33C39.37,252.59,40.54,236,41.1,231.75a26.56,26.56,0,0,1,26.35-21.69H68c17.9,0,16.28,9.89,16.28,9.89h.25c.89,0,3.89.12,4.85,1.77h0c.3,0,3.59-3.56,6.66-3.59h.08c3,0,3.2,1.85,3.2,1.85a8.72,8.72,0,0,1,6.22-2.87h.08c3.86,0,6.28,3.32,6.28,3.32a7.69,7.69,0,0,1,6.92-4.7c5.15-.05,17.9-1.63,17.9-1.63a3.44,3.44,0,0,1,.41,0,4.71,4.71,0,0,1,4.31,2.64c.07,0-.61-14.59,11.9-14.72h.15m0-1h-.17c-9.81.11-12.18,8.37-12.72,13.18a6,6,0,0,0-3.47-1.1c-.31,0-.5,0-.54,0s-12.75,1.57-17.78,1.62a8.4,8.4,0,0,0-7.13,4,8.94,8.94,0,0,0-6.06-2.61h-.09a9.57,9.57,0,0,0-6,2.24,4.53,4.53,0,0,0-3.45-1.22H96c-2.63,0-5.21,2.14-6.51,3.23A7.48,7.48,0,0,0,85.3,219a8.44,8.44,0,0,0-2-5c-2.75-3.23-7.89-4.88-15.28-4.88h-.55c-18.45.2-26.38,15.28-27.33,22.56-.42,3.21-.89,11.28,3.83,16.87,3.05,3.61,7.69,5.55,13.78,5.77h.07c7.55-.31,15.24-5.12,18.47-7.38a3,3,0,0,0,.47.92,2.89,2.89,0,0,0,2.42,1h.06c.1,0,10.54-.32,11.38-4.94.15-.82.24-1.77.33-2.78a26.19,26.19,0,0,1,.9-5.55,11.94,11.94,0,0,0,2.68,6,7.2,7.2,0,0,0,5.46,2.28h.11c6.14-.07,9.21-3.31,10.47-5.19a6.82,6.82,0,0,0,4.55,1.6h.09a5.87,5.87,0,0,0,4.89-2.23l0,0c2.82-.51,18.65-3.5,20.42-4.85a15.23,15.23,0,0,0,4-4.82,7.42,7.42,0,0,0,3.14,2.09,16.36,16.36,0,0,0,4.91.77,15,15,0,0,0,5.21-.92c6.7-2.46,9.09-8.78,9.54-10.18.32-.72,2.79-6.63-.83-11.78a11.63,11.63,0,0,0-6.35-4.38c-.55-1.84-3-2.92-6.69-2.92Z"></path><path class="cls-74" d="M157.76,207c-4.24,0-5.9,3.06-5.88,5.34s.77,4.49,3.7,4.45,3.2-4.79,1.25-4.76-2.27.54-2.27.54a2.3,2.3,0,0,1,2.38-2.7c2.74,0,3.49,3.81,3.5,4.66,0,3.51.29,8.6-2.63,9.61-2.18.74-4.62-1.2-5-1.53a8.19,8.19,0,0,1-2.72-4.58,11.7,11.7,0,0,1,.35-6.34,12.57,12.57,0,0,1,3.3-4.64c.26,0,3-.76,3-1.35a1.07,1.07,0,0,0-.11-.54c-.5-.9-2.32-.78-3.16-.72a9.9,9.9,0,0,0-5.15,1.62c-3.7,2.54-4.14,7-4.2,7.74l0,4.55s-3.35.14-4.55,1.36c0,0,.43-2.55.1-2.74s-2.88-1.34-4.72,2.72c-.52.66-.42-2.47-.42-2.47a4.44,4.44,0,0,0-5.12,2.47c-.13.06-.64,1.18-.84.59a6.11,6.11,0,0,1,0-2s-3.07,0-3.19.36-.55,9.92-.94,10.37-1.68,1.49-1.69.3.41-10.38.41-10.38-8.54-.43-11.4,6.31a15.78,15.78,0,0,0-1.18,5s-4.19,4.73-6.73,4.76-2.77-3-1.53-3a8.62,8.62,0,0,0,8-6.08,5.32,5.32,0,0,0,0-3.06,3.78,3.78,0,0,0-.85-1.55c-1-1.07-2.6-1-3.87-1A7.55,7.55,0,0,0,99,223.82s-.22-2.74-2.5-2.71-6.48,3.46-8,5.95c-.13,0,.08-4.43-1.87-4.41s-4.16,1.15-5.75,4.82-9,15.28-16.25,15.36c-6.19.07-9.62-4.3-6.92-13.69a17.89,17.89,0,0,1,6.67-9.77,13.12,13.12,0,0,1,7.79-2.55c3.38.48,1.69-.09,3.59.93,0,0-2.29,4.85,2.43,4.8s3.83-4.22,3.36-4.86c-2-2.84-6.1-4.15-8.58-4.6a25.1,25.1,0,0,0-5.54-.33,32,32,0,0,0-4.23.43A23.41,23.41,0,0,0,55.61,216,24.94,24.94,0,0,0,46,226.38a18.75,18.75,0,0,0-1.48,13.92c1.53,5,5.34,9.79,13,9.71,12.62-.14,20.69-6.66,22.78-13.26-.13.55-1.32,9.31-1.32,9.31a14,14,0,0,0,4.62-.68,14.17,14.17,0,0,0,3.56-1.75c-.1.1,1.54-14.68,5.18-14.72a2.83,2.83,0,0,1,2,.46,2.49,2.49,0,0,1,.59,1.86c0,.38.15,4.69,1.72,7.1a6.35,6.35,0,0,0,2.56,2.19,6.49,6.49,0,0,0,3.23.55,7.74,7.74,0,0,0,5.53-3.14c.71-1,1.68-2.37,3-4.47,0,0,1,3.25,3.49,3.23s4.84-4.16,4.84-4.16.22,2.67,2.76,2.64a2.16,2.16,0,0,0,2.18-2,.76.76,0,0,0,.8.73c1.24,0,3.27,0,3.26-.56s-.35-8,2.55-11c0,.35-1.82,10.11-.28,10.09s3.25-.23,3.25-.23.18-8,1.92-10c0,0-1,8.54.61,8.53s4.71.33,4.67-3.83c-.21-.2-2,1.19-2,.31s-.51-5.63,5-5.69c0,.33,3.14,6.62,7.37,6.57s8,.3,9-.36,3.76-8.51,3.76-8.51a11.17,11.17,0,0,0,.52-4.5,11.46,11.46,0,0,0-.59-2.67C162.85,209.11,160.4,206.93,157.76,207Zm-54.48,18.41c.75-1.08,1.73-1.69,2.19-1.36s.21,1.44-.54,2.52-1.74,1.68-2.19,1.36S102.52,226.44,103.28,225.37Zm15.81,1.8c-.54,2.83-1.63,5-2.43,4.91s-1-2.48-.49-5.3,1.63-5,2.43-4.9S119.63,224.36,119.09,227.17Z"></path><path class="cls-77" d="M211.75,237.47l.89,5.33a3.68,3.68,0,0,1-.19,1.9c-1.43,4.07-9.22,8.25-19.09,9.91s-18.61.27-21.29-3.12a3.8,3.8,0,0,1-.8-1.73l-.9-5.32a4.44,4.44,0,0,1,.9-3.24l38.58-6.49A4.41,4.41,0,0,1,211.75,237.47Z"></path><path class="cls-78" d="M211.75,237.47c.77,4.61-7.87,9.89-19.29,11.81s-21.31-.24-22.09-4.84a4.44,4.44,0,0,1,.9-3.24c2.46-3.61,9.6-7.09,18.39-8.57s16.68-.53,20.19,2.08A4.41,4.41,0,0,1,211.75,237.47Z"></path><path class="cls-79" d="M210.86,232.18a3.77,3.77,0,0,1,0,1.38,4.84,4.84,0,0,1-.61,1.47c-2.19,3.76-9.53,7.43-18.64,9s-17.24.47-20.55-2.36a5.09,5.09,0,0,1-1.05-1.2,3.56,3.56,0,0,1-.48-1.28,4.39,4.39,0,0,1,.89-3.24c2.46-3.61,9.6-7.09,18.39-8.57s16.68-.53,20.19,2.08A4.41,4.41,0,0,1,210.86,232.18Z"></path><path class="cls-80" d="M210.86,232.18l.44,2.67c.78,4.6-7.86,9.88-19.28,11.8s-21.31-.24-22.09-4.84l-.44-2.66a3.56,3.56,0,0,0,.48,1.28,5.09,5.09,0,0,0,1.05,1.2c3.31,2.83,11.44,3.89,20.55,2.36s16.45-5.2,18.64-9a4.84,4.84,0,0,0,.61-1.47A3.77,3.77,0,0,0,210.86,232.18Z"></path><path class="cls-81" d="M183,222.61l1.33,4.27a3,3,0,0,1,.06,1.57c-.71,3.5-6.63,7.8-14.54,10.27s-15.22,2.29-17.8-.18a3.13,3.13,0,0,1-.85-1.33l-1.33-4.27a3.56,3.56,0,0,1,.37-2.75l30.9-9.63A3.58,3.58,0,0,1,183,222.61Z"></path><path class="cls-82" d="M183,222.61c1.15,3.69-5.34,9-14.48,11.84s-17.5,2.18-18.65-1.51a3.56,3.56,0,0,1,.37-2.75c1.61-3.24,7.08-6.89,14.12-9.08s13.61-2.3,16.78-.55A3.58,3.58,0,0,1,183,222.61Z"></path><path class="cls-83" d="M181.67,218.37a2.93,2.93,0,0,1,.13,1.14,4.12,4.12,0,0,1-.33,1.27c-1.38,3.33-7,7.15-14.28,9.43s-14.09,2.31-17.11.36a4.23,4.23,0,0,1-1-.86,3,3,0,0,1-.54-1,3.59,3.59,0,0,1,.37-2.76c1.61-3.23,7.08-6.88,14.12-9.08s13.61-2.3,16.78-.55A3.61,3.61,0,0,1,181.67,218.37Z"></path><path class="cls-84" d="M181.67,218.37l.67,2.14c1.15,3.69-5.34,9-14.49,11.83s-17.5,2.19-18.65-1.5l-.66-2.13a3,3,0,0,0,.54,1,4.23,4.23,0,0,0,1,.86c3,2,9.81,1.91,17.11-.36s12.9-6.1,14.28-9.43a4.12,4.12,0,0,0,.33-1.27A2.93,2.93,0,0,0,181.67,218.37Z"></path><path class="cls-85" d="M176.77,230.74l3.26,4.32a3.85,3.85,0,0,1,.71,1.77c.62,4.28-4.35,11.59-12.33,17.61s-16.36,8.81-20.3,7a3.74,3.74,0,0,1-1.51-1.16L143.34,256a4.39,4.39,0,0,1-.7-3.28l31.17-23.56A4.36,4.36,0,0,1,176.77,230.74Z"></path><path class="cls-86" d="M176.77,230.74c2.82,3.73-2.39,12.41-11.62,19.38s-19,9.61-21.81,5.88a4.39,4.39,0,0,1-.7-3.28c.51-4.35,5.23-10.73,12.33-16.1s14.53-8.16,18.84-7.46A4.36,4.36,0,0,1,176.77,230.74Z"></path><rect class="cls-87" x="13" y="16.57" width="217.61" height="105.64" transform="translate(-0.32 0.56) rotate(-0.26)"></rect><polygon class="cls-88" points="12.69 1.02 30.06 16.99 12.76 17.07 12.69 1.02"></polygon><polygon class="cls-89" points="13.35 144.78 30.55 122.63 13.25 122.71 13.35 144.78"></polygon><path class="cls-90" d="M52,23h39.3a0,0,0,0,1,0,0v7a2.78,2.78,0,0,1-2.78,2.78H49.25a0,0,0,0,1,0,0v-7A2.78,2.78,0,0,1,52,23Z" transform="translate(-0.13 0.32) rotate(-0.26)"></path><path class="cls-74" d="M51.54,30.66a.73.73,0,0,0,.24.54c.14.11.29.12.61.13a2.39,2.39,0,0,0,.73,0,2.33,2.33,0,0,0,.77-.35,1.91,1.91,0,0,0,.54-.46,2,2,0,0,0,.43-1,2.23,2.23,0,0,0,0-.4l0-3.8s-.07-.71-.71-.71-.68.7-.68.7v3.58a1.17,1.17,0,0,1-.28.76,1.34,1.34,0,0,1-.69.37c-.42.1-.57,0-.77.12A.72.72,0,0,0,51.54,30.66Z"></path><path class="cls-74" d="M75,30.55a.73.73,0,0,0,.24.54c.13.11.29.12.61.14a2.48,2.48,0,0,0,.73-.05,2.59,2.59,0,0,0,.77-.34,2.32,2.32,0,0,0,.54-.46,2.08,2.08,0,0,0,.43-1,2.41,2.41,0,0,0,0-.41l0-3.8s-.07-.71-.71-.7-.69.69-.69.69l0,3.58a1.23,1.23,0,0,1-.28.76,1.26,1.26,0,0,1-.7.37c-.41.1-.57,0-.76.13A.7.7,0,0,0,75,30.55Z"></path><rect class="cls-74" x="78.94" y="24.48" width="1.37" height="6.76" rx="0.19" transform="translate(-0.13 0.37) rotate(-0.26)"></rect><path class="cls-74" d="M57.05,29.48h0a.56.56,0,0,1,.06-.79l1.32-.93a.57.57,0,0,1,.77.21h0a.56.56,0,0,1-.06.79l-1.32.93A.57.57,0,0,1,57.05,29.48Z"></path><rect class="cls-74" x="80.94" y="24.47" width="1.37" height="6.76" rx="0.19" transform="matrix(1, 0, 0, 1, -0.13, 0.37)"></rect><rect class="cls-74" x="82.19" y="28.6" width="1.37" height="3.84" rx="0.19" transform="translate(52.74 113.53) rotate(-90.26)"></rect><rect class="cls-74" x="85.2" y="24.45" width="1.37" height="6.76" rx="0.19" transform="translate(-0.13 0.39) rotate(-0.26)"></rect><rect class="cls-74" x="86.45" y="28.58" width="1.37" height="3.84" rx="0.19" transform="translate(57.04 117.77) rotate(-90.26)"></rect><path class="cls-74" d="M56.86,29.25v1.4a.69.69,0,0,1-1.37,0V27.19A2.38,2.38,0,0,0,56.86,29.25Z"></path><path class="cls-74" d="M60.76,27.17v0l0,3.43a.69.69,0,0,1-.69.69.68.68,0,0,1-.69-.68V27.57a1.27,1.27,0,1,0-2.54,0v1.67a2.38,2.38,0,0,1-1.38-2.06h0a.11.11,0,0,1,0-.05,2.66,2.66,0,0,1,5.29,0v.05Z"></path><path class="cls-74" d="M66.63,29.94a.67.67,0,0,1,0,.6.74.74,0,0,1-.33.31,3.92,3.92,0,0,1-.49.23,3.38,3.38,0,0,1-.92.21h-.31a3.31,3.31,0,1,1,0-6.62,2.42,2.42,0,0,1,.39,0,4.24,4.24,0,0,1,1.23.36s.36.2.44.54a.76.76,0,0,1-.13.56.91.91,0,0,1-.78.34,2.52,2.52,0,0,0-.44-.23,2,2,0,0,0-.68-.13h0a1.85,1.85,0,1,0,0,3.7h.06a2.72,2.72,0,0,0,1.18-.34A.84.84,0,0,1,66.63,29.94Z"></path><rect class="cls-74" x="66.94" y="24.52" width="1.49" height="6.76" rx="0.21" transform="translate(-0.13 0.31) rotate(-0.26)"></rect><rect class="cls-74" x="71.62" y="25.45" width="1.11" height="1.74" rx="0.16" transform="translate(-0.12 0.33) rotate(-0.26)"></rect><path class="cls-74" d="M71.7,31.05h0a.72.72,0,0,1-1-.05l-2.53-2.77a.82.82,0,0,1,0-1.11h0a.72.72,0,0,1,1,.05L71.7,30A.8.8,0,0,1,71.7,31.05Z"></path><path class="cls-74" d="M71.23,24.92h0a.76.76,0,0,1,.1,1l-2,2.38a.64.64,0,0,1-1,0h0a.77.77,0,0,1-.11-1l2-2.38A.65.65,0,0,1,71.23,24.92Z"></path><path class="cls-74" d="M75.77,27.88v1.28a.65.65,0,0,1-.55.65.62.62,0,0,1-.68-.61h0V28s0-.1,0-.16a.19.19,0,0,0,0-.09.44.44,0,0,0-.37-.2.42.42,0,0,0-.42.41v1.26a.61.61,0,0,1-.72.6.63.63,0,0,1-.5-.64V28c0-.14,0-.24,0-.32a1.52,1.52,0,0,1,1.62-1.47,1.6,1.6,0,0,1,1.67,1.52A.58.58,0,0,1,75.77,27.88Z"></path><rect class="cls-91" x="7.25" y="1.04" width="5.77" height="143.76" transform="matrix(1, 0, 0, 1, -0.33, 0.05)"></rect><polygon class="cls-92" points="2.31 3.83 6.95 6.56 6.92 1.05 2.31 3.83"></polygon><polygon class="cls-93" points="2.34 9.34 6.97 12.07 6.95 6.56 2.34 9.34"></polygon><polygon class="cls-94" points="2.36 14.84 7 17.58 6.97 12.07 2.36 14.84"></polygon><polygon class="cls-95" points="2.39 20.35 7.02 23.09 7 17.58 2.39 20.35"></polygon><polygon class="cls-96" points="2.41 25.86 7.05 28.6 7.02 23.09 2.41 25.86"></polygon><polygon class="cls-97" points="2.44 31.37 7.07 34.11 7.05 28.6 2.44 31.37"></polygon><polygon class="cls-98" points="2.46 36.88 7.1 39.62 7.07 34.11 2.46 36.88"></polygon><polygon class="cls-99" points="2.49 42.39 7.12 45.13 7.1 39.62 2.49 42.39"></polygon><polygon class="cls-100" points="2.52 47.9 7.15 50.63 7.12 45.13 2.52 47.9"></polygon><polygon class="cls-101" points="2.54 53.41 7.17 56.14 7.15 50.63 2.54 53.41"></polygon><polygon class="cls-102" points="2.57 58.92 7.2 61.65 7.17 56.14 2.57 58.92"></polygon><polygon class="cls-103" points="2.59 64.43 7.22 67.16 7.2 61.65 2.59 64.43"></polygon><polygon class="cls-104" points="2.62 69.94 7.25 72.67 7.22 67.16 2.62 69.94"></polygon><polygon class="cls-105" points="2.64 75.44 7.28 78.18 7.25 72.67 2.64 75.44"></polygon><polygon class="cls-106" points="2.67 80.95 7.3 83.69 7.28 78.18 2.67 80.95"></polygon><polygon class="cls-107" points="2.69 86.46 7.33 89.2 7.3 83.69 2.69 86.46"></polygon><polygon class="cls-108" points="2.72 91.97 7.35 94.71 7.33 89.2 2.72 91.97"></polygon><polygon class="cls-109" points="2.74 97.48 7.38 100.22 7.35 94.71 2.74 97.48"></polygon><polygon class="cls-110" points="2.77 102.99 7.4 105.72 7.38 100.22 2.77 102.99"></polygon><polygon class="cls-111" points="2.79 108.5 7.43 111.23 7.4 105.72 2.79 108.5"></polygon><polygon class="cls-112" points="2.82 114.01 7.45 116.74 7.43 111.23 2.82 114.01"></polygon><polygon class="cls-113" points="2.84 119.52 7.48 122.25 7.45 116.74 2.84 119.52"></polygon><polygon class="cls-114" points="2.87 125.03 7.5 127.76 7.48 122.25 2.87 125.03"></polygon><polygon class="cls-115" points="2.89 130.53 7.53 133.27 7.5 127.76 2.89 130.53"></polygon><polygon class="cls-116" points="2.92 136.04 7.55 138.78 7.53 133.27 2.92 136.04"></polygon><polygon class="cls-117" points="2.95 141.81 7.58 144.81 7.55 138.78 2.95 141.81"></polygon><polygon class="cls-118" points="241.31 140.99 236.68 138.25 236.71 143.76 241.31 140.99"></polygon><polygon class="cls-119" points="241.29 135.48 236.65 132.74 236.68 138.25 241.29 135.48"></polygon><polygon class="cls-120" points="241.26 129.97 236.63 127.23 236.65 132.74 241.26 129.97"></polygon><polygon class="cls-121" points="241.24 124.46 236.6 121.72 236.63 127.23 241.24 124.46"></polygon><polygon class="cls-122" points="241.21 118.95 236.58 116.21 236.6 121.72 241.21 118.95"></polygon><polygon class="cls-123" points="241.19 113.44 236.55 110.7 236.58 116.21 241.19 113.44"></polygon><polygon class="cls-124" points="241.16 107.93 236.53 105.2 236.55 110.7 241.16 107.93"></polygon><polygon class="cls-125" points="241.14 102.42 236.5 99.69 236.53 105.2 241.14 102.42"></polygon><polygon class="cls-126" points="241.11 96.91 236.48 94.18 236.5 99.69 241.11 96.91"></polygon><polygon class="cls-127" points="241.09 91.4 236.45 88.67 236.48 94.18 241.09 91.4"></polygon><polygon class="cls-128" points="241.06 85.89 236.43 83.16 236.45 88.67 241.06 85.89"></polygon><polygon class="cls-129" points="241.03 80.39 236.4 77.65 236.43 83.16 241.03 80.39"></polygon><polygon class="cls-130" points="241.01 74.88 236.38 72.14 236.4 77.65 241.01 74.88"></polygon><polygon class="cls-131" points="240.99 69.37 236.35 66.63 236.38 72.14 240.99 69.37"></polygon><polygon class="cls-132" points="240.96 63.86 236.33 61.12 236.35 66.63 240.96 63.86"></polygon><polygon class="cls-133" points="240.93 58.35 236.3 55.61 236.33 61.12 240.93 58.35"></polygon><polygon class="cls-134" points="240.91 52.84 236.28 50.1 236.3 55.61 240.91 52.84"></polygon><polygon class="cls-135" points="240.88 47.33 236.25 44.6 236.28 50.1 240.88 47.33"></polygon><polygon class="cls-136" points="240.86 41.82 236.22 39.09 236.25 44.6 240.86 41.82"></polygon><polygon class="cls-137" points="240.83 36.31 236.2 33.58 236.22 39.09 240.83 36.31"></polygon><polygon class="cls-138" points="240.81 30.8 236.18 28.07 236.2 33.58 240.81 30.8"></polygon><polygon class="cls-139" points="240.78 25.3 236.15 22.56 236.18 28.07 240.78 25.3"></polygon><polygon class="cls-140" points="240.76 19.79 236.12 17.05 236.15 22.56 240.76 19.79"></polygon><polygon class="cls-141" points="240.73 14.28 236.1 11.54 236.12 17.05 240.73 14.28"></polygon><polygon class="cls-142" points="240.71 8.77 236.07 6.03 236.1 11.54 240.71 8.77"></polygon><polygon class="cls-143" points="240.68 3 236.05 0 236.07 6.03 240.68 3"></polygon><polygon class="cls-144" points="230.3 0.03 213.07 16.15 230.37 16.07 230.3 0.03"></polygon><polygon class="cls-145" points="230.96 143.79 213.56 121.79 230.86 121.71 230.96 143.79"></polygon><rect class="cls-146" x="230.63" y="0.01" width="5.77" height="143.76" transform="translate(467.35 142.72) rotate(179.74)"></rect><path class="cls-147" d="M173.32,41c4.8,10.44-3.54,23.66-6.84,28.88-16.82,26.63-51,29-65.44,30-23.19,1.63-34.11-5.22-38.48-8.53-3.43-2.6-5.92-4.49-7.08-7.8-5-14.28,19.9-39.54,46.19-49.84S165.59,24.21,173.32,41Z"></path><path class="cls-148" d="M174.28,36.44c4.8,10.44-3.54,23.66-6.84,28.88-16.82,26.63-51,29-65.44,30C78.81,97,67.89,90.13,63.52,86.83c-3.43-2.61-5.92-4.49-7.08-7.81-5-14.28,19.9-39.53,46.19-49.83S166.55,19.65,174.28,36.44Z"></path><path class="cls-147" d="M69.44,97.18,67.91,77.07s9.44,14.78,16.15,13.72a67.47,67.47,0,0,0,9.47-2,97.07,97.07,0,0,0-.08-17.53c-.91-10-1.8-16.9-3-18.26s-3.29-4.48-12,.05c0,0,1.84,14,1.35,17.93a71.17,71.17,0,0,1-4.67-6.18c-2.42-3.61-3.67-8.47-14.25-6.16l-6.61,1.94.86,21.88s-.3,14.14,4.5,15.84S69.44,97.18,69.44,97.18Z"></path><path class="cls-148" d="M63,99.34a10.65,10.65,0,0,1-3.53-.58c-5.07-1.8-4.84-15.7-4.83-16.3l-.87-22.22,7-2.05c9.63-2.1,11.91,1.66,13.93,5,.28.48.56.93.85,1.37,1.54,2.28,3,4.16,3.87,5.21C79.53,64.83,78,53.25,78,53.12l0-.33.29-.16c8.61-4.49,11.06-1.66,12.38-.15l.18.21c1.16,1.3,2,6.5,3.13,18.54A99,99,0,0,1,94,88.86l0,.3-.3.1a67,67,0,0,1-9.54,2c-5.7.9-12.94-8.59-15.61-12.4L70,97.44l-.27.16A15,15,0,0,1,63,99.34ZM54.78,61l.85,21.51c-.08,3.86.51,14.09,4.18,15.39,3.93,1.39,8.06-.42,9.13-.95L67.29,75.2l1,1.62c.09.14,9.34,14.5,15.67,13.49a77.46,77.46,0,0,0,9.09-1.87A99.94,99.94,0,0,0,93,71.31c-.69-7.64-1.65-16.59-2.89-18l-.19-.22c-1.21-1.39-3.22-3.7-10.9.22.28,2.21,1.77,14,1.31,17.72l-.13,1.07-.71-.81a72.7,72.7,0,0,1-4.71-6.23c-.3-.46-.6-.94-.88-1.41-2-3.34-3.93-6.49-12.86-4.55Z"></path><path class="cls-147" d="M96.78,45.75s-1.45,22.86,1.35,32,9.68,5.47,9.68,5.47l4-1.36a188.83,188.83,0,0,0-.1-23.45c-.91-10.32-1.16-14.62-7.51-15.11Z"></path><path class="cls-148" d="M104.71,84.45a6.29,6.29,0,0,1-2.4-.46c-2.11-.87-3.67-2.92-4.64-6.09-2.79-9.13-1.43-31.24-1.37-32.18l0-.32,7.77-2.58h.1c6.63.51,7,5,7.89,14.91l.06.64a194,194,0,0,1,.11,23.52l0,.32L108,83.67A7.75,7.75,0,0,1,104.71,84.45ZM97.24,46.11c-.16,2.81-1.21,23.14,1.35,31.51.88,2.88,2.25,4.72,4.08,5.47a6.3,6.3,0,0,0,4.91-.29l.07,0,3.65-1.25a190,190,0,0,0-.12-23.06l-.06-.64c-.86-9.83-1.19-13.54-6.91-14Z"></path><path class="cls-147" d="M138.77,33.5S132,32,115,40.85c0,0-1.13,16,1.16,27.73s7.28,9.07,7.28,9.07l6.2-1.55s-.38-6.72-.75-12.58c0,0,15.15-4.59,17.86-13.11S148.26,35.87,138.77,33.5Zm-3.38,13.79c-.49,5.68-7.56,5.54-7.56,5.54l0-6.7S135.88,41.61,135.39,47.29Z"></path><path class="cls-148" d="M122.26,78.38A3.69,3.69,0,0,1,120.6,78c-2.24-1.07-3.89-4.21-4.89-9.32C113.43,57,114.53,41,114.54,40.81l0-.27.24-.12c17-8.85,23.79-7.45,24.07-7.39h0c4.23,1.05,7,2.83,8.45,5.45,1.63,2.92,1.6,6.76-.1,12.07-2.56,8-15.42,12.53-17.81,13.31.36,5.7.72,12.14.72,12.2l0,.4-6.53,1.63A3.36,3.36,0,0,1,122.26,78.38Zm-6.78-37.23c-.13,2.14-.92,16.65,1.18,27.34,1.16,6,3,8,4.33,8.63a2.64,2.64,0,0,0,2.25.1l.11,0,5.8-1.45c-.08-1.53-.4-7.2-.72-12.18l0-.38.36-.11c.15,0,14.93-4.62,17.54-12.8,1.59-5,1.64-8.66.17-11.3-1.32-2.37-3.88-4-7.82-5C138.46,33.93,131.73,32.73,115.48,41.15Zm12.39,12.17h-.52l0-7.47.24-.13c.51-.29,5-2.74,7.23-1.33a2.94,2.94,0,0,1,1.08,2.95h0C135.36,53.14,128.49,53.31,127.87,53.32Zm.41-6.91,0,5.93c1.53-.08,6.22-.69,6.6-5.09.08-1-.13-1.73-.65-2.06C132.91,44.31,129.7,45.67,128.28,46.41Z"></path><path class="cls-147" d="M181.83,30.75s-1.08-11.06-14-7.38-17,10.59-17.5,16.8,2.63,8.94,9,8.74,15-2,11,2.71-12.9,4.71-15.32,3-3.11-1.88-3.45-1-.82,7.92,2.63,9.81,8.47,5.3,21.52-3.37,7.85-17.1,7.85-17.1-1.58-6.37-13.46-4.07-5.44-4.28-2.73-4.81,8.91-1.59,10.46-.74S183.07,36.29,181.83,30.75Z"></path><path class="cls-148" d="M161.48,66.17a13.55,13.55,0,0,1-7.06-2.11l-.41-.23c-3.66-2-3.3-9.26-2.85-10.41a1.22,1.22,0,0,1,.75-.76c.65-.2,1.48.19,3.43,1.57s10.84,1.62,14.68-2.92c1-1.17.91-1.64.84-1.78-.47-.91-4.34-.62-7.46-.38-1.35.1-2.74.2-4,.25-3.49.1-6.06-.67-7.63-2.32s-2.11-3.89-1.87-6.95c.45-5.66,3.91-13.25,17.85-17.22,4.38-1.25,7.92-1,10.53.8a10.31,10.31,0,0,1,4.07,7c.45,2.06.3,3.35-.48,3.93-1.11.83-3-.18-4.06-.79l-.12-.06c-1-.54-5-.23-10.14.78-1.45.28-4,2.51-3.79,3.59.05.24.58,1.39,6.34.28,11.67-2.26,13.78,3.6,14,4.36.46.84,4.64,9.26-8,17.68C169.46,64.8,164.87,66.15,161.48,66.17Zm-9.23-12.6h-.07s-.07.06-.12.2c-.34.87-.68,7.52,2.41,9.2l.42.23c3.31,1.83,8.31,4.6,20.61-3.57,12.48-8.3,7.9-16.12,7.7-16.44l-.06-.14c-.06-.24-1.66-5.89-12.89-3.72-4.72.91-7.16.57-7.47-1-.37-1.9,2.9-4.39,4.55-4.72,3.31-.64,9.12-1.59,10.78-.68l.12.07c.78.43,2.41,1.32,3,.86.2-.15.61-.74.11-3V30.8a9.44,9.44,0,0,0-3.66-6.3c-2.37-1.6-5.63-1.83-9.72-.66-13.41,3.82-16.72,11-17.15,16.36-.21,2.78.32,4.87,1.6,6.21s3.7,2.13,6.91,2c1.28,0,2.66-.14,4-.25,4.73-.35,7.66-.5,8.39.91.36.71,0,1.64-1,2.84-4,4.74-13.28,5-16,3.08A7.59,7.59,0,0,0,152.25,53.57Z"></path><ellipse class="cls-147" cx="104.15" cy="33.49" rx="8.98" ry="5.56" transform="translate(43.19 124.33) rotate(-73.96)"></ellipse><path class="cls-149" d="M215.86,90.7c-4.56-2.61-9.56-2.68-12-.39h0s-3.94,3.17-.76,10.19,11.63,6,11.63,6a10.18,10.18,0,0,0,6.58-3.81h0a4.24,4.24,0,0,0,.46-.65C223.69,98.74,221,93.66,215.86,90.7Z"></path><ellipse class="cls-148" cx="212.57" cy="96.46" rx="6.09" ry="9.91" transform="translate(23.38 233.19) rotate(-60.26)"></ellipse><path class="cls-149" d="M188.27,92.34c4.78-2.79,10-2.92,12.58-.53h0s4.17,3.29.9,10.7S189.58,109,189.58,109a10.67,10.67,0,0,1-7-3.95h0a4.79,4.79,0,0,1-.49-.69C180.12,100.86,182.87,95.49,188.27,92.34Z"></path><ellipse class="cls-148" cx="191.79" cy="98.36" rx="10.42" ry="6.4" transform="translate(-23.43 110.06) rotate(-30.26)"></ellipse><path class="cls-149" d="M134.41,98.52l4,10.72s3.25-7.7,17.71-9.51,24.71-2.27,32-8.61l1.67-7-5.8-4s-17.33,6.25-24.16,6.81S139.09,86.58,134.41,98.52Z"></path><path class="cls-149" d="M132.39,106.94s3.22,1.56,5,.94c0,0-1.58,4.65-.77,8.27,0,0,2.74-4.05,5.76-4.64l-4.25-9.14A6.28,6.28,0,0,0,132.39,106.94Z"></path></g></g></svg> 