<?xml version="1.0" encoding="UTF-8"?> <svg xmlns="http://www.w3.org/2000/svg" xmlns:xlink="http://www.w3.org/1999/xlink" viewBox="0 0 1239.52 245.72"><defs><style>.cls-1{fill:url(#linear-gradient);}.cls-2{fill:url(#linear-gradient-2);}.cls-3{fill:url(#linear-gradient-3);}.cls-4{fill:url(#linear-gradient-4);}.cls-5{fill:url(#linear-gradient-5);}.cls-6{fill:url(#linear-gradient-6);}.cls-7{fill:url(#linear-gradient-7);}.cls-8{fill:url(#linear-gradient-8);}.cls-9{fill:url(#linear-gradient-9);}.cls-10{fill:url(#linear-gradient-10);}.cls-11{fill:url(#linear-gradient-11);}.cls-12{fill:url(#linear-gradient-12);}.cls-13{fill:url(#linear-gradient-13);}.cls-14{fill:url(#linear-gradient-14);}.cls-15{fill:url(#linear-gradient-15);}.cls-16{fill:url(#linear-gradient-16);}.cls-17{fill:url(#linear-gradient-17);}.cls-18{fill:url(#linear-gradient-18);}.cls-19{fill:url(#linear-gradient-19);}.cls-20{fill:url(#linear-gradient-20);}.cls-21{fill:url(#linear-gradient-21);}.cls-22{fill:url(#linear-gradient-22);}.cls-23{fill:url(#linear-gradient-23);}.cls-24{fill:url(#linear-gradient-24);}.cls-25{fill:url(#linear-gradient-25);}.cls-26{fill:url(#linear-gradient-26);}.cls-27{fill:url(#linear-gradient-27);}.cls-28{fill:#ee2741;}.cls-29{fill:#e01f26;}</style><linearGradient id="linear-gradient" y1="85.74" x2="1239.52" y2="85.74" gradientUnits="userSpaceOnUse"><stop offset="0" stop-color="#ee2741"></stop><stop offset="1" stop-color="#a03594"></stop></linearGradient><linearGradient id="linear-gradient-2" x1="143.1" y1="105.4" x2="269.11" y2="105.4" gradientUnits="userSpaceOnUse"><stop offset="0" stop-color="#bad8df"></stop><stop offset="1" stop-color="#fcdcda"></stop></linearGradient><linearGradient id="linear-gradient-3" x1="196.11" y1="57.83" x2="213.32" y2="57.83" xlink:href="#linear-gradient-2"></linearGradient><linearGradient id="linear-gradient-4" x1="237.59" y1="56.96" x2="254.81" y2="56.96" xlink:href="#linear-gradient-2"></linearGradient><linearGradient id="linear-gradient-5" x1="541.66" y1="77.64" x2="562.31" y2="77.64" xlink:href="#linear-gradient-2"></linearGradient><linearGradient id="linear-gradient-6" x1="541.66" y1="102.19" x2="562.22" y2="102.19" xlink:href="#linear-gradient-2"></linearGradient><linearGradient id="linear-gradient-7" x1="541.65" y1="126.47" x2="562.21" y2="126.47" xlink:href="#linear-gradient-2"></linearGradient><linearGradient id="linear-gradient-8" x1="566.75" y1="102.19" x2="587.48" y2="102.19" xlink:href="#linear-gradient-2"></linearGradient><linearGradient id="linear-gradient-9" x1="566.75" y1="126.29" x2="587.5" y2="126.29" xlink:href="#linear-gradient-2"></linearGradient><linearGradient id="linear-gradient-10" x1="566.86" y1="77.54" x2="587.5" y2="77.54" xlink:href="#linear-gradient-2"></linearGradient><linearGradient id="linear-gradient-11" x1="556.18" y1="55.82" x2="572.53" y2="55.82" xlink:href="#linear-gradient-2"></linearGradient><linearGradient id="linear-gradient-12" x1="595.4" y1="77.64" x2="616.05" y2="77.64" xlink:href="#linear-gradient-2"></linearGradient><linearGradient id="linear-gradient-13" x1="595.39" y1="102.19" x2="615.96" y2="102.19" xlink:href="#linear-gradient-2"></linearGradient><linearGradient id="linear-gradient-14" x1="595.39" y1="126.47" x2="615.95" y2="126.47" xlink:href="#linear-gradient-2"></linearGradient><linearGradient id="linear-gradient-15" x1="620.49" y1="102.19" x2="641.21" y2="102.19" xlink:href="#linear-gradient-2"></linearGradient><linearGradient id="linear-gradient-16" x1="620.49" y1="126.29" x2="641.24" y2="126.29" xlink:href="#linear-gradient-2"></linearGradient><linearGradient id="linear-gradient-17" x1="620.6" y1="77.54" x2="641.23" y2="77.54" xlink:href="#linear-gradient-2"></linearGradient><linearGradient id="linear-gradient-18" x1="609.92" y1="55.82" x2="626.27" y2="55.82" xlink:href="#linear-gradient-2"></linearGradient><linearGradient id="linear-gradient-19" x1="649.13" y1="77.64" x2="669.79" y2="77.64" xlink:href="#linear-gradient-2"></linearGradient><linearGradient id="linear-gradient-20" x1="649.13" y1="102.19" x2="669.69" y2="102.19" xlink:href="#linear-gradient-2"></linearGradient><linearGradient id="linear-gradient-21" x1="649.13" y1="126.47" x2="669.69" y2="126.47" xlink:href="#linear-gradient-2"></linearGradient><linearGradient id="linear-gradient-22" x1="674.22" y1="102.19" x2="694.95" y2="102.19" xlink:href="#linear-gradient-2"></linearGradient><linearGradient id="linear-gradient-23" x1="674.22" y1="126.29" x2="694.98" y2="126.29" xlink:href="#linear-gradient-2"></linearGradient><linearGradient id="linear-gradient-24" x1="674.34" y1="77.54" x2="694.97" y2="77.54" xlink:href="#linear-gradient-2"></linearGradient><linearGradient id="linear-gradient-25" x1="663.65" y1="55.82" x2="680" y2="55.82" xlink:href="#linear-gradient-2"></linearGradient><linearGradient id="linear-gradient-26" x1="936.65" y1="107.48" x2="1120.91" y2="107.48" xlink:href="#linear-gradient-2"></linearGradient><linearGradient id="linear-gradient-27" x1="916.16" y1="88.53" x2="1126.23" y2="88.53" xlink:href="#linear-gradient-2"></linearGradient></defs><g id="Layer_2" data-name="Layer 2"><g id="Copy"><path class="cls-1" d="M19.51,0H1220c10.77,0,19.51,7.46,19.51,16.67V154.82c0,9.2-8.74,16.66-19.51,16.66H19.51C8.73,171.48,0,164,0,154.82V16.67C0,7.46,8.73,0,19.51,0Z"></path><path class="cls-2" d="M144.25,148.37q-.58-27-1.15-54,22.5-15.1,45.14-30.27c.15,7.13.3,14.08.44,21.12,13.78-7.33,27.47-14.63,41.29-22,.16,7.1.31,14.06.45,21.12l36.91-21.89c.6,27.82,1.2,55.53,1.78,83.28l-.85,0L145,148.37h-.7m32.53-33.73-24.89.53q.26,12.47.53,24.85l24.89-.53c-.18-8.28-.35-16.53-.53-24.85m17.29,24.49,24.88-.54q-.25-12.43-.53-24.82l-24.88.53c.17,8.29.35,16.52.53,24.83m41.52-.89,24.84-.53c-.18-8.31-.35-16.57-.53-24.84l-24.84.53c.18,8.29.36,16.54.53,24.84"></path><path class="cls-3" d="M196.11,38.92l16.58-.36c0,.23,0,.46,0,.68q.3,14.32.62,28.61a.84.84,0,0,1-.46.92q-7.74,4-15.44,8.11l-.49.22c-.28-12.75-.55-25.43-.82-38.18"></path><path class="cls-4" d="M238.41,76.23c-.27-12.78-.55-25.47-.82-38.19l16.62-.35c0,.2,0,.4,0,.6q.28,13.86.59,27.71a.78.78,0,0,1-.4.83C249.22,69.87,244,73,238.84,76l-.43.22"></path><path class="cls-5" d="M561.53,93.34C556,91,550.6,89,546.29,84.81c-3.23-3.15-4.42-7.2-4.59-11.57-.14-3.47.14-7,.26-10.45a3.68,3.68,0,0,1,.29-.85c4.63,2.57,9.22,5,13.25,8.43A17.88,17.88,0,0,1,561.92,81a34.35,34.35,0,0,1-.39,12.3"></path><path class="cls-6" d="M542.24,86.59c5.27,3.06,10.57,5.7,14.85,10A17.18,17.18,0,0,1,562.22,109c0,2.91-.25,5.82-.4,8.75a3.44,3.44,0,0,1-.92,0c-4.53-1.8-9-3.69-13-6.72-4.23-3.25-6-7.8-6.24-13-.13-3.48.15-7,.27-10.46a3.79,3.79,0,0,1,.28-.93"></path><path class="cls-7" d="M542.28,110.7c5.79,3.38,11.83,6.21,16.2,11.56a16.47,16.47,0,0,1,3.73,10.58c0,3-.24,6-.39,9.41-1.89-.79-3.39-1.38-4.87-2-3.74-1.7-7.43-3.49-10.49-6.41-3.33-3.19-4.59-7.32-4.77-11.8-.13-3.43.15-6.87.26-10.3a4.56,4.56,0,0,1,.33-1"></path><path class="cls-8" d="M587,86.35a61.77,61.77,0,0,1,.1,14.43,15.08,15.08,0,0,1-5.13,9.57c-4.16,3.61-9.17,5.53-14.33,7.68l-.42-2.41c-1.56-9.36.78-17.1,8.78-22.39,3.5-2.32,7.12-4.47,11-6.88"></path><path class="cls-9" d="M587,110.93a54.81,54.81,0,0,1,0,14.42,15.4,15.4,0,0,1-6.56,10.3c-3.9,2.79-8.26,4.59-12.83,6.44-.18-1-.37-1.82-.48-2.69-.63-4.85-.79-9.72,1.65-14.1a20.06,20.06,0,0,1,4.93-6.11c4.09-3.16,8.54-5.83,12.84-8.7.16.15.31.29.45.44"></path><path class="cls-10" d="M567.33,93.44c-.17-3.3-.52-6.3-.46-9.3.14-6.93,3.66-11.91,9.06-15.56,3.52-2.38,7.19-4.52,11.07-6.94.45,5.89,1,11.32-.42,16.72a14.68,14.68,0,0,1-5.25,7.82c-4.05,3.24-8.76,5.1-14,7.26"></path><path class="cls-11" d="M564.87,38.35c2.15,4.15,4.46,8.22,6.42,12.47a12.54,12.54,0,0,1-.11,11.11c-1.95,3.92-4.19,7.68-6.26,11.42-.42-.1-.56-.09-.59-.15-2.32-4-4.8-7.91-6.9-12a11,11,0,0,1-.17-9.83c2.1-4.44,4.54-8.72,6.83-13.06l.78.06"></path><path class="cls-12" d="M615.26,93.34C609.76,91,604.33,89,600,84.81c-3.23-3.15-4.42-7.2-4.6-11.57-.13-3.47.15-7,.27-10.45a3.25,3.25,0,0,1,.29-.85c4.63,2.57,9.22,5,13.25,8.43A17.87,17.87,0,0,1,615.65,81a33.9,33.9,0,0,1-.39,12.3"></path><path class="cls-13" d="M596,86.59c5.28,3.06,10.58,5.7,14.85,10A17.19,17.19,0,0,1,616,109c0,2.91-.26,5.82-.4,8.75a3.52,3.52,0,0,1-.93,0c-4.53-1.8-9-3.69-13-6.72-4.24-3.25-6-7.8-6.24-13-.13-3.48.15-7,.26-10.46a5,5,0,0,1,.28-.93"></path><path class="cls-14" d="M596,110.7c5.79,3.38,11.83,6.21,16.19,11.56A16.48,16.48,0,0,1,616,132.84c0,3-.24,6-.39,9.41-1.89-.79-3.4-1.38-4.87-2-3.75-1.7-7.43-3.49-10.49-6.41-3.33-3.19-4.6-7.32-4.78-11.8-.13-3.43.15-6.87.27-10.3a4.07,4.07,0,0,1,.33-1"></path><path class="cls-15" d="M640.72,86.35a60.7,60.7,0,0,1,.1,14.43,15,15,0,0,1-5.13,9.57c-4.16,3.61-9.16,5.53-14.33,7.68l-.42-2.41c-1.56-9.36.79-17.1,8.78-22.39,3.51-2.32,7.13-4.47,11-6.88"></path><path class="cls-16" d="M640.76,110.93a55.25,55.25,0,0,1,0,14.42,15.43,15.43,0,0,1-6.56,10.3c-3.9,2.79-8.26,4.59-12.84,6.44-.18-1-.36-1.82-.47-2.69-.64-4.85-.8-9.72,1.64-14.1a20.21,20.21,0,0,1,4.93-6.11c4.1-3.16,8.55-5.83,12.85-8.7l.45.44"></path><path class="cls-17" d="M621.07,93.44c-.18-3.3-.53-6.3-.46-9.3.14-6.93,3.65-11.91,9.06-15.56,3.51-2.38,7.18-4.52,11.06-6.94.46,5.89,1,11.32-.41,16.72a14.64,14.64,0,0,1-5.26,7.82c-4,3.24-8.75,5.1-14,7.26"></path><path class="cls-18" d="M618.6,38.35c2.16,4.15,4.46,8.22,6.43,12.47a12.54,12.54,0,0,1-.12,11.11c-1.94,3.92-4.19,7.68-6.26,11.42-.42-.1-.55-.09-.59-.15-2.32-4-4.79-7.91-6.89-12a11,11,0,0,1-.18-9.83c2.1-4.44,4.55-8.72,6.84-13.06l.77.06"></path><path class="cls-19" d="M669,93.34C663.5,91,658.07,89,653.76,84.81c-3.22-3.15-4.42-7.2-4.59-11.57-.14-3.47.15-7,.26-10.45a3.36,3.36,0,0,1,.3-.85c4.62,2.57,9.21,5,13.24,8.43A17.88,17.88,0,0,1,669.39,81a34.12,34.12,0,0,1-.39,12.3"></path><path class="cls-20" d="M649.71,86.59c5.27,3.06,10.57,5.7,14.85,10A17.18,17.18,0,0,1,669.69,109c0,2.91-.25,5.82-.39,8.75a3.5,3.5,0,0,1-.93,0c-4.53-1.8-9-3.69-13-6.72-4.23-3.25-6-7.8-6.24-13-.13-3.48.16-7,.27-10.46a3.79,3.79,0,0,1,.28-.93"></path><path class="cls-21" d="M649.75,110.7c5.8,3.38,11.83,6.21,16.2,11.56a16.47,16.47,0,0,1,3.73,10.58c0,3-.24,6-.39,9.41-1.88-.79-3.39-1.38-4.86-2-3.75-1.7-7.44-3.49-10.5-6.41-3.33-3.19-4.59-7.32-4.77-11.8-.13-3.43.15-6.87.27-10.3a4,4,0,0,1,.32-1"></path><path class="cls-22" d="M694.46,86.35a61.77,61.77,0,0,1,.1,14.43,15.08,15.08,0,0,1-5.13,9.57c-4.16,3.61-9.17,5.53-14.33,7.68l-.42-2.41c-1.56-9.36.79-17.1,8.78-22.39,3.51-2.32,7.12-4.47,11-6.88"></path><path class="cls-23" d="M694.5,110.93a55.68,55.68,0,0,1,0,14.42,15.45,15.45,0,0,1-6.57,10.3c-3.89,2.79-8.25,4.59-12.83,6.44-.18-1-.37-1.82-.48-2.69-.63-4.85-.79-9.72,1.65-14.1a20.06,20.06,0,0,1,4.93-6.11c4.09-3.16,8.55-5.83,12.84-8.7l.46.44"></path><path class="cls-24" d="M674.8,93.44c-.17-3.3-.52-6.3-.46-9.3.15-6.93,3.66-11.91,9.06-15.56,3.52-2.38,7.19-4.52,11.07-6.94.45,5.89,1,11.32-.41,16.72a14.7,14.7,0,0,1-5.26,7.82c-4,3.24-8.75,5.1-14,7.26"></path><path class="cls-25" d="M672.34,38.35c2.15,4.15,4.46,8.22,6.42,12.47a12.54,12.54,0,0,1-.11,11.11c-1.94,3.92-4.19,7.68-6.26,11.42-.42-.1-.56-.09-.59-.15-2.32-4-4.79-7.91-6.9-12a11,11,0,0,1-.17-9.83c2.1-4.44,4.54-8.72,6.84-13.06l.77.06"></path><polygon class="cls-26" points="1034.73 140.94 985.45 90.08 943.87 137.49 936.65 129.26 985.1 74.03 1034.38 124.89 1075.75 77.72 1082.97 85.94 1034.73 140.94"></polygon><polygon class="cls-27" points="1022.19 38.56 1122.13 138.5 1122.11 38.57 1022.19 38.56"></polygon><path class="cls-28" d="M20.94,213.86V196.78h4l9.41,11.37H32.45V196.78h4.74v17.08h-4l-9.42-11.37h1.88v11.37Z"></path><path class="cls-28" d="M47.31,214.08a8.89,8.89,0,0,1-4.08-.89,6.5,6.5,0,0,1-3.68-6,6.71,6.71,0,0,1,.94-3.52,6.6,6.6,0,0,1,2.6-2.42,8,8,0,0,1,3.74-.86,8,8,0,0,1,3.56.79A6.19,6.19,0,0,1,53,203.54a7,7,0,0,1,.95,3.73c0,.17,0,.35,0,.56s0,.41-.05.59H43.36V206h8l-1.75.68a3.21,3.21,0,0,0-.33-1.56,2.54,2.54,0,0,0-1-1,3,3,0,0,0-2.9,0,2.47,2.47,0,0,0-1,1,3.57,3.57,0,0,0-.34,1.58v.71a3.32,3.32,0,0,0,.41,1.68,2.62,2.62,0,0,0,1.15,1.08,3.93,3.93,0,0,0,1.81.38,4.39,4.39,0,0,0,1.67-.28,5.06,5.06,0,0,0,1.38-.86L53,211.93a6,6,0,0,1-2.34,1.6A8.91,8.91,0,0,1,47.31,214.08Z"></path><path class="cls-28" d="M59,213.86l-4.71-13.22h4.4l3.73,11.05h-2.1l3.88-11.05H68.1l3.74,11.05h-2l3.85-11.05h4.08L73,213.86H68.52l-3.18-9.15h1.37l-3.27,9.15Z"></path><path class="cls-28" d="M92.45,214.2a15.43,15.43,0,0,1-4-.52,10.43,10.43,0,0,1-3.16-1.36l1.59-3.56A11.15,11.15,0,0,0,89.49,210a9.72,9.72,0,0,0,3,.47,5.91,5.91,0,0,0,1.61-.18,1.92,1.92,0,0,0,.89-.49,1.06,1.06,0,0,0-.26-1.64,4.62,4.62,0,0,0-1.39-.56c-.57-.15-1.2-.3-1.89-.44s-1.38-.34-2.07-.56a8.52,8.52,0,0,1-1.9-.89,4.49,4.49,0,0,1-1.39-1.45,4.36,4.36,0,0,1-.53-2.25,4.84,4.84,0,0,1,.84-2.78,5.79,5.79,0,0,1,2.52-2,10.21,10.21,0,0,1,4.2-.76,14.68,14.68,0,0,1,3.31.38,10.47,10.47,0,0,1,2.89,1.11l-1.49,3.59a11.43,11.43,0,0,0-2.42-1,8.65,8.65,0,0,0-2.31-.33,5.36,5.36,0,0,0-1.61.2,1.91,1.91,0,0,0-.88.55,1.23,1.23,0,0,0-.27.78,1,1,0,0,0,.52.89,4.76,4.76,0,0,0,1.4.54c.57.14,1.21.28,1.9.43a19.79,19.79,0,0,1,2.07.55,7.8,7.8,0,0,1,1.89.88,4.14,4.14,0,0,1,1.38,1.44,4.3,4.3,0,0,1,.53,2.23,4.75,4.75,0,0,1-.85,2.74,5.79,5.79,0,0,1-2.51,2A10.3,10.3,0,0,1,92.45,214.2Z"></path><path class="cls-28" d="M108.65,214.08a8.15,8.15,0,0,1-3.85-.88,6.53,6.53,0,0,1-3.61-6,6.51,6.51,0,0,1,1-3.53,6.64,6.64,0,0,1,2.65-2.41,8.39,8.39,0,0,1,3.85-.86,8.48,8.48,0,0,1,3.87.86,6.44,6.44,0,0,1,3.6,5.94,6.66,6.66,0,0,1-1,3.55,6.55,6.55,0,0,1-2.65,2.43A8.24,8.24,0,0,1,108.65,214.08Zm0-3.68a2.79,2.79,0,0,0,1.43-.37,2.57,2.57,0,0,0,1-1.09,3.8,3.8,0,0,0,.36-1.72,3.64,3.64,0,0,0-.36-1.69,2.61,2.61,0,0,0-1-1.06,2.7,2.7,0,0,0-1.43-.37,2.66,2.66,0,0,0-1.4.37,2.7,2.7,0,0,0-1,1.06,3.52,3.52,0,0,0-.38,1.69,3.67,3.67,0,0,0,.38,1.72,2.65,2.65,0,0,0,1,1.09A2.76,2.76,0,0,0,108.65,210.4Z"></path><path class="cls-28" d="M123.83,214.08a6.46,6.46,0,0,1-2.89-.63,4.53,4.53,0,0,1-2-2,7.27,7.27,0,0,1-.72-3.43v-7.39h4.63v6.63a3.3,3.3,0,0,0,.58,2.2,2,2,0,0,0,1.62.66,2.49,2.49,0,0,0,1.24-.32,2.26,2.26,0,0,0,.91-1,4.22,4.22,0,0,0,.34-1.8v-6.36h4.63v13.22h-4.41v-3.73l.85,1.05a4.66,4.66,0,0,1-2,2.18A5.71,5.71,0,0,1,123.83,214.08Z"></path><path class="cls-28" d="M133.76,204.59v-3.47h9.59v3.47Zm7.29,9.49a5.75,5.75,0,0,1-4-1.26,4.8,4.8,0,0,1-1.41-3.79V197.68h4.63V209a1.53,1.53,0,0,0,.39,1.11,1.33,1.33,0,0,0,1,.4,2.36,2.36,0,0,0,1.42-.41l1.15,3.24a4.1,4.1,0,0,1-1.44.58A8.69,8.69,0,0,1,141.05,214.08Z"></path><path class="cls-28" d="M154.67,200.42a6.07,6.07,0,0,1,2.78.62,4.59,4.59,0,0,1,2,1.91,7,7,0,0,1,.72,3.35v7.56H155.5v-6.81a3.07,3.07,0,0,0-.57-2.06,2,2,0,0,0-1.6-.64,2.74,2.74,0,0,0-1.34.32,2.27,2.27,0,0,0-1,1,4.09,4.09,0,0,0-.34,1.78v6.39h-4.63v-18.1h4.63v8.63l-1.07-1.09a5,5,0,0,1,2.07-2.16A6.11,6.11,0,0,1,154.67,200.42Z"></path><path class="cls-28" d="M170.36,213.86V196.78h4.83V210h8.15v3.83Z"></path><path class="cls-28" d="M190.54,214.08a6.5,6.5,0,0,1-2.9-.63,4.58,4.58,0,0,1-2-2,7.27,7.27,0,0,1-.72-3.43v-7.39h4.64v6.63a3.36,3.36,0,0,0,.57,2.2,2,2,0,0,0,1.63.66,2.49,2.49,0,0,0,1.24-.32,2.24,2.24,0,0,0,.9-1,4.07,4.07,0,0,0,.34-1.8v-6.36h4.64v13.22h-4.42v-3.73l.86,1.05a4.74,4.74,0,0,1-2,2.18A5.67,5.67,0,0,1,190.54,214.08Z"></path><path class="cls-28" d="M201.17,213.86v-2.73l7.42-8.54.78,1.49h-8v-3.44h11.79v2.7l-7.44,8.57-.78-1.51h8.46v3.46Z"></path><path class="cls-28" d="M221.91,214.08a8.15,8.15,0,0,1-3.85-.88,6.53,6.53,0,0,1-3.61-6,6.51,6.51,0,0,1,1-3.53,6.64,6.64,0,0,1,2.65-2.41,8.39,8.39,0,0,1,3.85-.86,8.48,8.48,0,0,1,3.87.86,6.44,6.44,0,0,1,3.6,5.94,6.66,6.66,0,0,1-.95,3.55,6.55,6.55,0,0,1-2.65,2.43A8.24,8.24,0,0,1,221.91,214.08Zm0-3.68a2.79,2.79,0,0,0,1.43-.37,2.51,2.51,0,0,0,1-1.09,3.8,3.8,0,0,0,.36-1.72,3.64,3.64,0,0,0-.36-1.69,2.54,2.54,0,0,0-1-1.06,2.7,2.7,0,0,0-1.43-.37,2.66,2.66,0,0,0-1.4.37,2.7,2.7,0,0,0-1,1.06,3.52,3.52,0,0,0-.38,1.69,3.67,3.67,0,0,0,.38,1.72,2.65,2.65,0,0,0,1,1.09A2.76,2.76,0,0,0,221.91,210.4Z"></path><path class="cls-28" d="M240.14,200.42a6.07,6.07,0,0,1,2.78.62,4.59,4.59,0,0,1,2,1.91,7,7,0,0,1,.71,3.35v7.56H241v-6.81a3.07,3.07,0,0,0-.57-2.06,2,2,0,0,0-1.6-.64,2.74,2.74,0,0,0-1.34.32,2.27,2.27,0,0,0-1,1,4.09,4.09,0,0,0-.34,1.78v6.39h-4.63V200.64h4.41v3.75l-.85-1.09a5,5,0,0,1,2.07-2.16A6.11,6.11,0,0,1,240.14,200.42Z"></path><path class="cls-28" d="M255.83,213.86V196.78h4l7.08,11.62h-2.1l6.88-11.62h4l.05,17.08h-4.44l-.05-10.32H272l-5.15,8.64h-2.15l-5.29-8.64h.92v10.32Z"></path><path class="cls-28" d="M285.81,214.08a8.89,8.89,0,0,1-4.08-.89,6.5,6.5,0,0,1-3.68-6,6.71,6.71,0,0,1,.94-3.52,6.6,6.6,0,0,1,2.6-2.42,8,8,0,0,1,3.74-.86,8,8,0,0,1,3.56.79,6.19,6.19,0,0,1,2.56,2.33,6.92,6.92,0,0,1,.95,3.73c0,.17,0,.35,0,.56s0,.41-.05.59H281.86V206h8l-1.75.68a3.21,3.21,0,0,0-.33-1.56,2.54,2.54,0,0,0-1-1,3,3,0,0,0-2.9,0,2.47,2.47,0,0,0-1,1,3.57,3.57,0,0,0-.34,1.58v.71a3.32,3.32,0,0,0,.41,1.68,2.62,2.62,0,0,0,1.15,1.08,3.93,3.93,0,0,0,1.81.38,4.39,4.39,0,0,0,1.67-.28,5.06,5.06,0,0,0,1.38-.86l2.44,2.53a6,6,0,0,1-2.34,1.6A8.91,8.91,0,0,1,285.81,214.08Z"></path><path class="cls-28" d="M300.21,213.18a6.69,6.69,0,0,1-3.23-.8,6,6,0,0,1-2.37-2.22,6.84,6.84,0,0,1,0-6.75A6,6,0,0,1,297,201.2a6.79,6.79,0,0,1,3.23-.78,5.79,5.79,0,0,1,2.88.67,4.29,4.29,0,0,1,1.82,2.08,10.85,10.85,0,0,1,0,7.23,4.32,4.32,0,0,1-1.82,2.09A5.69,5.69,0,0,1,300.21,213.18Zm.8,5.63a14.3,14.3,0,0,1-3.62-.44,8.8,8.8,0,0,1-2.94-1.29l1.69-3.24a6.12,6.12,0,0,0,2.06,1,7.9,7.9,0,0,0,2.4.38,3.74,3.74,0,0,0,2.71-.82,3.18,3.18,0,0,0,.83-2.37v-1.57l.24-3.71,0-3.73v-2.41h4.41v10.8c0,2.51-.67,4.36-2,5.57A8.35,8.35,0,0,1,301,218.81Zm.3-9.32a3.07,3.07,0,0,0,1.47-.34,2.56,2.56,0,0,0,1-1,2.82,2.82,0,0,0,0-2.83,2.46,2.46,0,0,0-1-.94,3.18,3.18,0,0,0-1.47-.33,3.27,3.27,0,0,0-1.49.33,2.49,2.49,0,0,0-1,.94,2.82,2.82,0,0,0,0,2.83,2.58,2.58,0,0,0,1,1A3.15,3.15,0,0,0,301.31,209.49Z"></path><path class="cls-28" d="M315.92,214.08a6,6,0,0,1-2.68-.54,3.86,3.86,0,0,1-1.67-1.46A3.8,3.8,0,0,1,311,210a3.54,3.54,0,0,1,.63-2.11,3.84,3.84,0,0,1,1.91-1.37,9.76,9.76,0,0,1,3.34-.48H320v2.42h-2.49a2.62,2.62,0,0,0-1.58.36,1.27,1.27,0,0,0,0,2,2,2,0,0,0,1.27.36,2.5,2.5,0,0,0,1.37-.38,2.18,2.18,0,0,0,.92-1.15l.63,1.7a3.46,3.46,0,0,1-1.42,2.07A5.07,5.07,0,0,1,315.92,214.08Zm3.91-.22V211.4l-.32-.61v-4.54a2.16,2.16,0,0,0-.67-1.7,3.16,3.16,0,0,0-2.14-.6,6.52,6.52,0,0,0-1.92.31,5,5,0,0,0-1.66.84L311.55,202a9.26,9.26,0,0,1,2.7-1.13,12.58,12.58,0,0,1,3.14-.4,7.61,7.61,0,0,1,5,1.47,5.73,5.73,0,0,1,1.76,4.63v7.34Z"></path><path class="cls-28" d="M327.07,218.59v-18h4.42v2.24l0,4.37.24,4.39v7Zm8.32-4.51a5.41,5.41,0,0,1-2.88-.74,4.67,4.67,0,0,1-1.81-2.25,10,10,0,0,1-.63-3.84,10.79,10.79,0,0,1,.59-3.87,4.4,4.4,0,0,1,1.77-2.23,5.53,5.53,0,0,1,3-.73,6.55,6.55,0,0,1,3.29.84,6.2,6.2,0,0,1,2.34,2.37,8.07,8.07,0,0,1,0,7.25,6.06,6.06,0,0,1-2.34,2.37A6.64,6.64,0,0,1,335.39,214.08Zm-1-3.68a2.73,2.73,0,0,0,1.4-.37,2.66,2.66,0,0,0,1-1.07,4,4,0,0,0,0-3.42,2.63,2.63,0,0,0-2.4-1.44,2.7,2.7,0,0,0-1.41.37,2.73,2.73,0,0,0-1,1.07,4.14,4.14,0,0,0,0,3.42,2.73,2.73,0,0,0,1,1.07A2.8,2.8,0,0,0,334.42,210.4Z"></path><path class="cls-28" d="M344,213.86v-18.1h4.64v18.1Z"></path><path class="cls-28" d="M355.84,214.08a6,6,0,0,1-2.68-.54,3.78,3.78,0,0,1-2.25-3.53,3.6,3.6,0,0,1,.62-2.11,3.91,3.91,0,0,1,1.92-1.37,9.72,9.72,0,0,1,3.34-.48h3.12v2.42h-2.48a2.6,2.6,0,0,0-1.58.36,1.21,1.21,0,0,0-.45,1,1.19,1.19,0,0,0,.46,1,2,2,0,0,0,1.27.36,2.52,2.52,0,0,0,1.38-.38,2.18,2.18,0,0,0,.92-1.15l.63,1.7a3.43,3.43,0,0,1-1.43,2.07A5,5,0,0,1,355.84,214.08Zm3.9-.22V211.4l-.31-.61v-4.54a2.19,2.19,0,0,0-.67-1.7,3.16,3.16,0,0,0-2.14-.6,6.59,6.59,0,0,0-1.93.31,5.08,5.08,0,0,0-1.66.84L351.47,202a9.26,9.26,0,0,1,2.7-1.13,12.5,12.5,0,0,1,3.13-.4,7.59,7.59,0,0,1,5,1.47,5.7,5.7,0,0,1,1.77,4.63v7.34Z"></path><path class="cls-28" d="M375.6,200.42a6,6,0,0,1,2.78.62,4.53,4.53,0,0,1,2,1.91,6.87,6.87,0,0,1,.72,3.35v7.56h-4.64v-6.81a3.07,3.07,0,0,0-.57-2.06,2,2,0,0,0-1.6-.64,2.74,2.74,0,0,0-1.34.32,2.2,2.2,0,0,0-.95,1,4,4,0,0,0-.34,1.78v6.39H367V200.64h4.42v3.75l-.86-1.09a5.11,5.11,0,0,1,2.08-2.16A6.07,6.07,0,0,1,375.6,200.42Z"></path><path class="cls-28" d="M382.58,204.59v-3.47h9.59v3.47Zm7.3,9.49a5.76,5.76,0,0,1-4-1.26,4.8,4.8,0,0,1-1.41-3.79V197.68h4.63V209a1.53,1.53,0,0,0,.39,1.11,1.33,1.33,0,0,0,1,.4,2.36,2.36,0,0,0,1.42-.41l1.15,3.24a4.1,4.1,0,0,1-1.44.58A8.67,8.67,0,0,1,389.88,214.08Z"></path><path class="cls-29" d="M119.57,241.05v-15h2l5.37,7.11,5.28-7.11h2v15h-1.7V228.63l-5.55,7.14-5.64-7.14v12.42Z"></path><path class="cls-29" d="M142.25,241.23a5.17,5.17,0,0,1-4.8-2.9,6.74,6.74,0,0,1,0-5.9,5.18,5.18,0,0,1,4.8-2.89,5,5,0,0,1,2.41.54,4.61,4.61,0,0,1,1.65,1.48v-1.84H148v11.33h-1.7v-1.81a4.82,4.82,0,0,1-1.65,1.45A5,5,0,0,1,142.25,241.23Zm.23-1.54a3.77,3.77,0,0,0,2.14-.59,3.71,3.71,0,0,0,1.32-1.58,5.23,5.23,0,0,0,0-4.29,3.72,3.72,0,0,0-1.32-1.56,3.77,3.77,0,0,0-2.14-.59,3.93,3.93,0,0,0-2.16.59,3.86,3.86,0,0,0-1.38,1.56,5.13,5.13,0,0,0,0,4.29,3.85,3.85,0,0,0,1.38,1.58A3.93,3.93,0,0,0,142.48,239.69Z"></path><path class="cls-29" d="M151,241.05V225.19h1.7v15.86Z"></path><path class="cls-29" d="M158.68,241.05l-4.45-11.33h1.86l3.58,9.52,3.56-9.52h1.86l-4.42,11.33Z"></path><path class="cls-29" d="M171.23,241.23a5.3,5.3,0,0,1-2.89-.78,5.39,5.39,0,0,1-1.92-2.12,6.74,6.74,0,0,1,0-5.9,5.36,5.36,0,0,1,1.92-2.11,5.3,5.3,0,0,1,2.89-.78,5,5,0,0,1,2.41.54,4.58,4.58,0,0,1,1.64,1.48v-1.84H177v11.33h-1.7v-1.81a4.79,4.79,0,0,1-1.64,1.45A5,5,0,0,1,171.23,241.23Zm.22-1.54a3.74,3.74,0,0,0,2.14-.59,3.67,3.67,0,0,0,1.33-1.58,5.34,5.34,0,0,0,0-4.29,3.67,3.67,0,0,0-1.33-1.56,3.74,3.74,0,0,0-2.14-.59,3.78,3.78,0,0,0-3.53,2.15,5,5,0,0,0,0,4.29,3.85,3.85,0,0,0,1.38,1.58A3.89,3.89,0,0,0,171.45,239.69Z"></path><path class="cls-29" d="M179.93,241.05V229.72h1.7v2.79a4,4,0,0,1,.35-.78,3.86,3.86,0,0,1,.76-1,4.3,4.3,0,0,1,1.25-.85,4.36,4.36,0,0,1,1.81-.35h.11v1.7h-.2a3.53,3.53,0,0,0-2.19.69,4.54,4.54,0,0,0-1.41,1.79,5.76,5.76,0,0,0-.48,2.34v5Z"></path><path class="cls-29" d="M185.5,243.56l1.31-4.82H189l-2,4.82Z"></path><path class="cls-29" d="M196.9,241.05v-15h6.73a5.42,5.42,0,0,1,2.79.61,3.7,3.7,0,0,1,1.49,1.53,4.11,4.11,0,0,1,.45,1.82,3.56,3.56,0,0,1-.61,2.24,3.79,3.79,0,0,1-1.41,1.14,4.84,4.84,0,0,1,1.28.65,3.56,3.56,0,0,1,1.08,1.19,3.93,3.93,0,0,1-.85,4.69,5.66,5.66,0,0,1-3.84,1.13Zm1.7-8.29h5a3.86,3.86,0,0,0,1.48-.28,2.49,2.49,0,0,0,1.12-.85,2.38,2.38,0,0,0,.43-1.48,2.64,2.64,0,0,0-.28-1.2,2.2,2.2,0,0,0-.91-.93,3.3,3.3,0,0,0-1.66-.36H198.6Zm0,6.68h5.59a3.86,3.86,0,0,0,2.39-.65,2.13,2.13,0,0,0,.85-1.82,2.56,2.56,0,0,0-.81-1.87,3.66,3.66,0,0,0-2.61-.8H198.6Z"></path><path class="cls-29" d="M216.31,241.23a5.17,5.17,0,0,1-4.8-2.9,6.74,6.74,0,0,1,0-5.9,5.26,5.26,0,0,1,1.91-2.11,5.32,5.32,0,0,1,2.89-.78,5.09,5.09,0,0,1,2.42.54,4.58,4.58,0,0,1,1.64,1.48v-1.84h1.7v11.33h-1.7v-1.81a4.79,4.79,0,0,1-1.64,1.45A5.09,5.09,0,0,1,216.31,241.23Zm.23-1.54a3.74,3.74,0,0,0,2.14-.59,3.81,3.81,0,0,0,1.33-1.58,5.34,5.34,0,0,0,0-4.29,3.81,3.81,0,0,0-1.33-1.56,3.74,3.74,0,0,0-2.14-.59,3.87,3.87,0,0,0-2.15.59,3.72,3.72,0,0,0-1.38,1.56,5,5,0,0,0,0,4.29,3.71,3.71,0,0,0,1.38,1.58A3.87,3.87,0,0,0,216.54,239.69Z"></path><path class="cls-29" d="M226.24,241.05v-9.83h-2.31v-1.5h2.31v-4.06h1.7v4.06h2.6v1.5h-2.6v9.83Z"></path><path class="cls-29" d="M237,241.23a5.17,5.17,0,0,1-4.8-2.9,6.74,6.74,0,0,1,0-5.9,5.26,5.26,0,0,1,1.91-2.11,5.32,5.32,0,0,1,2.89-.78,5.09,5.09,0,0,1,2.42.54,4.58,4.58,0,0,1,1.64,1.48v-1.84h1.7v11.33H241v-1.81a4.79,4.79,0,0,1-1.64,1.45A5.09,5.09,0,0,1,237,241.23Zm.23-1.54a3.77,3.77,0,0,0,2.14-.59,3.81,3.81,0,0,0,1.33-1.58,5.34,5.34,0,0,0,0-4.29,3.81,3.81,0,0,0-1.33-1.56,3.77,3.77,0,0,0-2.14-.59,3.87,3.87,0,0,0-2.15.59,3.81,3.81,0,0,0-1.39,1.56,5.13,5.13,0,0,0,0,4.29A3.8,3.8,0,0,0,235,239.1,3.87,3.87,0,0,0,237.18,239.69Z"></path><path class="cls-29" d="M245.65,241.05V229.72h1.7v1.77a5.49,5.49,0,0,1,1.5-1.38,4.1,4.1,0,0,1,2.26-.57,4.58,4.58,0,0,1,2.21.55,4.32,4.32,0,0,1,1.68,1.66,5.25,5.25,0,0,1,.64,2.71v6.59h-1.7V234.5a3.47,3.47,0,0,0-.88-2.48,3,3,0,0,0-2.29-.94,3.43,3.43,0,0,0-1.72.43,3.32,3.32,0,0,0-1.23,1.21,3.45,3.45,0,0,0-.47,1.8v6.53Z"></path><path class="cls-29" d="M263.66,245.72a6,6,0,0,1-3.46-.92,4.5,4.5,0,0,1-1.81-2.39h1.88a2.55,2.55,0,0,0,1.17,1.3,4.36,4.36,0,0,0,2.13.47,3.86,3.86,0,0,0,2.85-.92,3.68,3.68,0,0,0,.89-2.66V239a4.72,4.72,0,0,1-1.64,1.46,4.93,4.93,0,0,1-2.41.56,5.35,5.35,0,0,1-2.89-.76,5.25,5.25,0,0,1-1.92-2.07,6.65,6.65,0,0,1,0-5.86,5.15,5.15,0,0,1,1.92-2.06,5.35,5.35,0,0,1,2.89-.76,5.16,5.16,0,0,1,2.41.53,4.53,4.53,0,0,1,1.64,1.46v-1.81H269v11a4.81,4.81,0,0,1-1.39,3.71A5.62,5.62,0,0,1,263.66,245.72Zm-.18-6.21a3.79,3.79,0,0,0,2.12-.57,3.75,3.75,0,0,0,1.34-1.53,5.14,5.14,0,0,0,0-4.25,3.7,3.7,0,0,0-1.34-1.51,3.79,3.79,0,0,0-2.12-.57,3.94,3.94,0,0,0-2.15.57,3.72,3.72,0,0,0-1.38,1.51,4.94,4.94,0,0,0,0,4.25,3.78,3.78,0,0,0,1.38,1.53A3.94,3.94,0,0,0,263.48,239.51Z"></path><path class="cls-29" d="M276.74,241.23a5.19,5.19,0,0,1-4.81-2.9,6.74,6.74,0,0,1,0-5.9,5.21,5.21,0,0,1,4.81-2.89,5,5,0,0,1,2.41.54,4.58,4.58,0,0,1,1.64,1.48v-1.84h1.7v11.33h-1.7v-1.81a4.79,4.79,0,0,1-1.64,1.45A5,5,0,0,1,276.74,241.23Zm.22-1.54a3.74,3.74,0,0,0,2.14-.59,3.67,3.67,0,0,0,1.33-1.58,5.34,5.34,0,0,0,0-4.29,3.67,3.67,0,0,0-1.33-1.56,3.74,3.74,0,0,0-2.14-.59,3.78,3.78,0,0,0-3.53,2.15,5,5,0,0,0,0,4.29,3.85,3.85,0,0,0,1.38,1.58A3.89,3.89,0,0,0,277,239.69Z"></path><path class="cls-29" d="M289.56,241.23a6,6,0,0,1-2.64-.52,4.08,4.08,0,0,1-1.64-1.37,3.77,3.77,0,0,1-.64-1.85h1.77a2.72,2.72,0,0,0,.4,1.1,2.35,2.35,0,0,0,1,.86,4,4,0,0,0,1.76.33,5.66,5.66,0,0,0,.84-.07,4,4,0,0,0,1-.25,2.06,2.06,0,0,0,.79-.54,1.36,1.36,0,0,0,.31-.93,1.26,1.26,0,0,0-.54-1.09,4.4,4.4,0,0,0-1.41-.6l-1.82-.42a11.32,11.32,0,0,1-1.82-.53,3.55,3.55,0,0,1-1.41-.93,2.37,2.37,0,0,1-.54-1.64,2.81,2.81,0,0,1,1.12-2.39,6.8,6.8,0,0,1,5.75-.39,3.56,3.56,0,0,1,1.43,1.19,3.42,3.42,0,0,1,.58,1.57H292.1a1.89,1.89,0,0,0-.72-1.25,3.16,3.16,0,0,0-2.05-.52c-1.79,0-2.69.54-2.69,1.63a1.18,1.18,0,0,0,.54,1,4.4,4.4,0,0,0,1.41.58c.57.14,1.18.28,1.82.41a10.38,10.38,0,0,1,1.82.53,3.6,3.6,0,0,1,1.41,1,2.5,2.5,0,0,1,.54,1.69,2.91,2.91,0,0,1-1.25,2.53A5.83,5.83,0,0,1,289.56,241.23Z"></path><path class="cls-28" d="M457.14,213.86l-5.54-17.08h5l4.66,14.79h-2.52l4.91-14.79h4.44l4.63,14.79h-2.41l4.8-14.79h4.62l-5.54,17.08H469L465,201.3h1.39l-4.12,12.56Z"></path><path class="cls-28" d="M486.88,214.08a8.2,8.2,0,0,1-3.86-.88,6.59,6.59,0,0,1-2.64-2.43,6.5,6.5,0,0,1-1-3.55,6.43,6.43,0,0,1,1-3.53,6.62,6.62,0,0,1,2.64-2.41,9.12,9.12,0,0,1,7.73,0,6.48,6.48,0,0,1,3.6,5.94,6.58,6.58,0,0,1-1,3.55,6.46,6.46,0,0,1-2.64,2.43A8.24,8.24,0,0,1,486.88,214.08Zm0-3.68a2.82,2.82,0,0,0,1.43-.37,2.63,2.63,0,0,0,1-1.09,3.8,3.8,0,0,0,.36-1.72,3.64,3.64,0,0,0-.36-1.69,2.67,2.67,0,0,0-1-1.06,2.72,2.72,0,0,0-1.43-.37,2.65,2.65,0,0,0-2.4,1.43,3.41,3.41,0,0,0-.38,1.69,3.55,3.55,0,0,0,.38,1.72,2.59,2.59,0,0,0,1,1.09A2.73,2.73,0,0,0,486.88,210.4Z"></path><path class="cls-28" d="M496.49,213.86V200.64h4.42v3.85l-.66-1.1a4.27,4.27,0,0,1,1.9-2.23,6.39,6.39,0,0,1,3.2-.74v4.17l-.55-.06h-.5a3.35,3.35,0,0,0-2.29.76,3.18,3.18,0,0,0-.88,2.51v6.07Z"></path><path class="cls-28" d="M507.25,213.86v-18.1h4.64v18.1Z"></path><path class="cls-28" d="M520.65,214.08a6.48,6.48,0,0,1-3.28-.84,6.25,6.25,0,0,1-2.36-2.37,7.95,7.95,0,0,1,0-7.27,6.12,6.12,0,0,1,2.36-2.35,6.48,6.48,0,0,1,3.28-.83,5.37,5.37,0,0,1,2.89.73,4.51,4.51,0,0,1,1.79,2.24,10.28,10.28,0,0,1,.61,3.83,10.87,10.87,0,0,1-.58,3.88,4.44,4.44,0,0,1-1.76,2.25A5.47,5.47,0,0,1,520.65,214.08Zm1-3.68A2.8,2.8,0,0,0,523,210a2.55,2.55,0,0,0,1-1.09,3.67,3.67,0,0,0,.37-1.72,3.52,3.52,0,0,0-.37-1.69,2.58,2.58,0,0,0-1-1.06,2.89,2.89,0,0,0-2.83,0,2.54,2.54,0,0,0-1,1.06,3.52,3.52,0,0,0-.37,1.69,3.67,3.67,0,0,0,.37,1.72,2.51,2.51,0,0,0,1,1.09A2.78,2.78,0,0,0,521.62,210.4Zm2.91,3.46v-2.27l0-4.37-.24-4.36v-7.1h4.63v18.1Z"></path><path class="cls-28" d="M547.78,214.2a10.72,10.72,0,0,1-3.76-.64,8.71,8.71,0,0,1-3-1.85,8.42,8.42,0,0,1-2-2.81,9.36,9.36,0,0,1,0-7.15,8.49,8.49,0,0,1,2-2.82,8.73,8.73,0,0,1,3-1.84,10.9,10.9,0,0,1,3.82-.65,11.13,11.13,0,0,1,4.32.8,8.14,8.14,0,0,1,3.14,2.32l-3.07,2.78a6.18,6.18,0,0,0-1.89-1.42,5.23,5.23,0,0,0-2.26-.48,5.79,5.79,0,0,0-2,.34,4.34,4.34,0,0,0-1.54,1,4.64,4.64,0,0,0-1,1.54,5.86,5.86,0,0,0,0,4,4.68,4.68,0,0,0,1,1.55,4.46,4.46,0,0,0,1.53,1,5.38,5.38,0,0,0,2,.35,6.52,6.52,0,0,0,2.1-.35,7,7,0,0,0,2.07-1.21L555,212a10.86,10.86,0,0,1-3.39,1.61A13.27,13.27,0,0,1,547.78,214.2Zm2.9-2.8V205H555V212Z"></path><path class="cls-28" d="M557.81,213.86V200.64h4.41v3.85l-.66-1.1a4.29,4.29,0,0,1,1.91-2.23,6.35,6.35,0,0,1,3.19-.74v4.17l-.55-.06h-.5a3.37,3.37,0,0,0-2.29.76,3.21,3.21,0,0,0-.88,2.51v6.07Z"></path><path class="cls-28" d="M571.93,214.08a6,6,0,0,1-2.68-.54A3.79,3.79,0,0,1,567,210a3.53,3.53,0,0,1,.62-2.11,3.84,3.84,0,0,1,1.91-1.37,9.82,9.82,0,0,1,3.35-.48H576v2.42h-2.49a2.57,2.57,0,0,0-1.57.36,1.28,1.28,0,0,0,0,2,2,2,0,0,0,1.27.36,2.56,2.56,0,0,0,1.38-.38,2.17,2.17,0,0,0,.91-1.15l.64,1.7a3.47,3.47,0,0,1-1.43,2.07A5.07,5.07,0,0,1,571.93,214.08Zm3.91-.22V211.4l-.32-.61v-4.54a2.16,2.16,0,0,0-.67-1.7,3.15,3.15,0,0,0-2.13-.6,6.54,6.54,0,0,0-1.93.31,5,5,0,0,0-1.66.84L567.57,202a9.08,9.08,0,0,1,2.69-1.13,12.58,12.58,0,0,1,3.14-.4,7.59,7.59,0,0,1,5,1.47,5.7,5.7,0,0,1,1.77,4.63v7.34Z"></path><path class="cls-28" d="M591.7,200.42a6.07,6.07,0,0,1,2.78.62,4.51,4.51,0,0,1,2,1.91,6.87,6.87,0,0,1,.72,3.35v7.56h-4.63v-6.81A3,3,0,0,0,592,205a2,2,0,0,0-1.59-.64,2.8,2.8,0,0,0-1.35.32,2.3,2.3,0,0,0-1,1,4,4,0,0,0-.34,1.78v6.39h-4.64V200.64h4.42v3.75l-.85-1.09a5,5,0,0,1,2.07-2.16A6.11,6.11,0,0,1,591.7,200.42Z"></path><path class="cls-28" d="M608.68,200.42a6.07,6.07,0,0,1,2.78.62,4.53,4.53,0,0,1,2,1.91,7,7,0,0,1,.71,3.35v7.56h-4.63v-6.81a3.07,3.07,0,0,0-.57-2.06,2,2,0,0,0-1.6-.64,2.74,2.74,0,0,0-1.34.32,2.27,2.27,0,0,0-1,1,4.09,4.09,0,0,0-.34,1.78v6.39h-4.63V200.64h4.41v3.75l-.85-1.09a5,5,0,0,1,2.07-2.16A6.11,6.11,0,0,1,608.68,200.42Z"></path><path class="cls-28" d="M621.22,214.08a6,6,0,0,1-2.68-.54,3.82,3.82,0,0,1-2.25-3.53,3.6,3.6,0,0,1,.62-2.11,3.91,3.91,0,0,1,1.92-1.37,9.76,9.76,0,0,1,3.34-.48h3.13v2.42h-2.49a2.6,2.6,0,0,0-1.58.36,1.27,1.27,0,0,0,0,2,2,2,0,0,0,1.26.36,2.52,2.52,0,0,0,1.38-.38,2.18,2.18,0,0,0,.92-1.15l.63,1.7a3.43,3.43,0,0,1-1.43,2.07A5,5,0,0,1,621.22,214.08Zm3.9-.22V211.4l-.31-.61v-4.54a2.19,2.19,0,0,0-.67-1.7A3.16,3.16,0,0,0,622,204a6.59,6.59,0,0,0-1.93.31,5.08,5.08,0,0,0-1.66.84L616.85,202a9.26,9.26,0,0,1,2.7-1.13,12.5,12.5,0,0,1,3.13-.4,7.59,7.59,0,0,1,5,1.47,5.7,5.7,0,0,1,1.77,4.63v7.34Z"></path><path class="cls-28" d="M632.37,213.86V200.64h4.42v3.85l-.66-1.1a4.27,4.27,0,0,1,1.9-2.23,6.36,6.36,0,0,1,3.2-.74v4.17l-.55-.06h-.5a3.33,3.33,0,0,0-2.29.76,3.18,3.18,0,0,0-.88,2.51v6.07Z"></path><path class="cls-28" d="M647.62,214.42l-5.83-13.78h4.76l4.29,10.68Zm-1.81,4.39a7.13,7.13,0,0,1-2.11-.33,5,5,0,0,1-1.72-.86l1.61-3.25a3.05,3.05,0,0,0,1,.58,3.21,3.21,0,0,0,1.08.2,1.88,1.88,0,0,0,1.2-.34,2.68,2.68,0,0,0,.76-1.07l.61-1.54.36-.46,4.49-11.1h4.42l-5.71,13.76a8.56,8.56,0,0,1-1.58,2.67,5,5,0,0,1-2,1.35A7.12,7.12,0,0,1,645.81,218.81Z"></path><path class="cls-28" d="M670.82,213.86H666V196.78h13.4v3.73h-8.57Zm-.34-9.59h7.88V208h-7.88Z"></path><path class="cls-28" d="M681.44,213.86v-18.1h4.63v18.1Z"></path><path class="cls-28" d="M695.71,214.08a8.13,8.13,0,0,1-3.85-.88,6.67,6.67,0,0,1,0-11.92,8.36,8.36,0,0,1,3.85-.86,8.48,8.48,0,0,1,3.87.86,6.48,6.48,0,0,1,3.6,5.94,6.58,6.58,0,0,1-1,3.55,6.46,6.46,0,0,1-2.64,2.43A8.24,8.24,0,0,1,695.71,214.08Zm0-3.68a2.82,2.82,0,0,0,1.43-.37,2.63,2.63,0,0,0,1-1.09,3.8,3.8,0,0,0,.36-1.72,3.64,3.64,0,0,0-.36-1.69,2.67,2.67,0,0,0-1-1.06,2.72,2.72,0,0,0-1.43-.37,2.65,2.65,0,0,0-2.4,1.43,3.41,3.41,0,0,0-.38,1.69,3.55,3.55,0,0,0,.38,1.72,2.59,2.59,0,0,0,1,1.09A2.73,2.73,0,0,0,695.71,210.4Z"></path><path class="cls-28" d="M710.89,214.08a6.43,6.43,0,0,1-2.89-.63,4.55,4.55,0,0,1-2-2,7.27,7.27,0,0,1-.72-3.43v-7.39h4.64v6.63a3.36,3.36,0,0,0,.57,2.2,2.06,2.06,0,0,0,1.63.66,2.49,2.49,0,0,0,1.24-.32,2.24,2.24,0,0,0,.9-1,4.06,4.06,0,0,0,.35-1.8v-6.36h4.63v13.22h-4.42v-3.73l.86,1.05a4.74,4.74,0,0,1-2,2.18A5.67,5.67,0,0,1,710.89,214.08Z"></path><path class="cls-28" d="M722.21,213.86V200.64h4.41v3.85l-.65-1.1a4.27,4.27,0,0,1,1.9-2.23,6.35,6.35,0,0,1,3.19-.74v4.17l-.54-.06H730a3.38,3.38,0,0,0-2.3.76,3.21,3.21,0,0,0-.88,2.51v6.07Z"></path><path class="cls-28" d="M740.34,213.86V196.78h4l7.08,11.62h-2.1l6.88-11.62h4l.05,17.08h-4.44l0-10.32h.75l-5.14,8.64h-2.15l-5.3-8.64h.93v10.32Z"></path><path class="cls-28" d="M765.71,199.17a2.91,2.91,0,0,1-2.05-.71,2.36,2.36,0,0,1,0-3.51,3,3,0,0,1,2.05-.71,3.06,3.06,0,0,1,2,.67,2.19,2.19,0,0,1,.78,1.73,2.35,2.35,0,0,1-.77,1.81A2.89,2.89,0,0,1,765.71,199.17Zm-2.32,14.69V200.64H768v13.22Z"></path><path class="cls-28" d="M771,213.86v-18.1h4.64v18.1Z"></path><path class="cls-28" d="M778.67,213.86v-18.1h4.63v18.1Z"></path><path class="cls-29" d="M542.17,241.23a9.13,9.13,0,0,1-3.6-.6,4.62,4.62,0,0,1-2.08-1.67,5.19,5.19,0,0,1-.8-2.4h1.77a2.62,2.62,0,0,0,.72,1.76,4,4,0,0,0,1.74,1,8,8,0,0,0,2.36.32,5.8,5.8,0,0,0,3-.67,2.16,2.16,0,0,0,1.11-2,1.63,1.63,0,0,0-.56-1.28,4.44,4.44,0,0,0-1.47-.8,17.93,17.93,0,0,0-2-.58c-.72-.18-1.45-.36-2.18-.56a10.44,10.44,0,0,1-2-.74,4.33,4.33,0,0,1-1.47-1.17,2.91,2.91,0,0,1-.56-1.83,3.7,3.7,0,0,1,1.42-3,6.56,6.56,0,0,1,4.22-1.15,7.83,7.83,0,0,1,3.29.6A4.54,4.54,0,0,1,547,228a4.19,4.19,0,0,1,.71,2.11H546a2.79,2.79,0,0,0-1.14-1.91,4.92,4.92,0,0,0-3.06-.79,7.27,7.27,0,0,0-2.06.25,3.19,3.19,0,0,0-1.21.65,2.07,2.07,0,0,0-.57.83,2.65,2.65,0,0,0-.14.81,1.48,1.48,0,0,0,.55,1.21,4.41,4.41,0,0,0,1.47.77,21,21,0,0,0,2,.56c.74.17,1.48.35,2.21.55a11.47,11.47,0,0,1,2,.78,4.13,4.13,0,0,1,1.47,1.18,3,3,0,0,1,.56,1.86,3.7,3.7,0,0,1-1.59,3.21A7.41,7.41,0,0,1,542.17,241.23Z"></path><path class="cls-29" d="M555.15,241.23a5.17,5.17,0,0,1-4.8-2.9,6.74,6.74,0,0,1,0-5.9,5.26,5.26,0,0,1,1.91-2.11,5.32,5.32,0,0,1,2.89-.78,5,5,0,0,1,2.41.54,4.61,4.61,0,0,1,1.65,1.48v-1.84h1.7v11.33h-1.7v-1.81a4.82,4.82,0,0,1-1.65,1.45A5,5,0,0,1,555.15,241.23Zm.23-1.54a3.77,3.77,0,0,0,2.14-.59,3.71,3.71,0,0,0,1.32-1.58,5.23,5.23,0,0,0,0-4.29,3.72,3.72,0,0,0-1.32-1.56,3.77,3.77,0,0,0-2.14-.59,3.87,3.87,0,0,0-2.15.59,3.81,3.81,0,0,0-1.39,1.56,5.13,5.13,0,0,0,0,4.29,3.8,3.8,0,0,0,1.39,1.58A3.87,3.87,0,0,0,555.38,239.69Z"></path><path class="cls-29" d="M563.85,241.05V229.72h1.7v2.79a4.68,4.68,0,0,1,.35-.78,4.37,4.37,0,0,1,.76-1,4.22,4.22,0,0,1,1.26-.85,4.28,4.28,0,0,1,1.8-.35h.11v1.7h-.2a3.53,3.53,0,0,0-2.19.69,4.43,4.43,0,0,0-1.4,1.79,5.61,5.61,0,0,0-.49,2.34v5Z"></path><path class="cls-29" d="M571.6,227.82V225.6h1.83v2.22Zm.07,13.23V229.72h1.7v11.33Z"></path><path class="cls-29" d="M581.09,241.23a5.17,5.17,0,0,1-4.8-2.9,6.74,6.74,0,0,1,0-5.9,5.26,5.26,0,0,1,1.91-2.11,5.32,5.32,0,0,1,2.89-.78,5.09,5.09,0,0,1,2.42.54,4.66,4.66,0,0,1,1.64,1.48v-1.84h1.7v11.33h-1.7v-1.81a4.88,4.88,0,0,1-1.64,1.45A5.09,5.09,0,0,1,581.09,241.23Zm.23-1.54a3.77,3.77,0,0,0,2.14-.59,3.81,3.81,0,0,0,1.33-1.58,5.34,5.34,0,0,0,0-4.29,3.81,3.81,0,0,0-1.33-1.56,3.77,3.77,0,0,0-2.14-.59,3.87,3.87,0,0,0-2.15.59,3.81,3.81,0,0,0-1.39,1.56,5.13,5.13,0,0,0,0,4.29,3.8,3.8,0,0,0,1.39,1.58A3.87,3.87,0,0,0,581.32,239.69Z"></path><path class="cls-29" d="M591,245.53l2.06-4.64-4.62-11.17h1.88l3.65,9.29,3.71-9.29h1.86l-6.7,15.81Z"></path><path class="cls-29" d="M605.61,241.23a5.19,5.19,0,0,1-4.81-2.9,6.74,6.74,0,0,1,0-5.9,5.21,5.21,0,0,1,4.81-2.89,5,5,0,0,1,2.41.54,4.58,4.58,0,0,1,1.64,1.48v-1.84h1.7v11.33h-1.7v-1.81a4.79,4.79,0,0,1-1.64,1.45A5,5,0,0,1,605.61,241.23Zm.22-1.54a3.74,3.74,0,0,0,2.14-.59,3.67,3.67,0,0,0,1.33-1.58,5.34,5.34,0,0,0,0-4.29,3.67,3.67,0,0,0-1.33-1.56,3.74,3.74,0,0,0-2.14-.59,3.78,3.78,0,0,0-3.53,2.15,5,5,0,0,0,0,4.29,3.85,3.85,0,0,0,1.38,1.58A3.89,3.89,0,0,0,605.83,239.69Z"></path><path class="cls-29" d="M613.08,243.56l1.32-4.82h2.22l-2,4.82Z"></path><path class="cls-29" d="M636.15,244.61a5.78,5.78,0,0,1-2.16-.43,6,6,0,0,1-1.85-1.21,6.11,6.11,0,0,1-1.32-1.76A7.47,7.47,0,0,1,627,240.1a7.3,7.3,0,0,1-2.56-2.76,7.79,7.79,0,0,1-.92-3.79,8.15,8.15,0,0,1,.54-3,7.56,7.56,0,0,1,1.55-2.45,7,7,0,0,1,2.42-1.65,8.44,8.44,0,0,1,6.2,0,7,7,0,0,1,2.42,1.65,7.56,7.56,0,0,1,1.55,2.45,8.15,8.15,0,0,1,.54,3,7.88,7.88,0,0,1-.78,3.5,7.49,7.49,0,0,1-2.17,2.66,7.3,7.3,0,0,1-3.25,1.38,4.62,4.62,0,0,0,.67.9,4.07,4.07,0,0,0,1.18.83,4.26,4.26,0,0,0,1.77.34,3.72,3.72,0,0,0,1.48-.28,5,5,0,0,0,1.26-.74l.91,1.22a5.55,5.55,0,0,1-1.69.94A6.23,6.23,0,0,1,636.15,244.61Zm-5-5a5.94,5.94,0,0,0,3.16-.81,5.46,5.46,0,0,0,2-2.17,6.93,6.93,0,0,0,0-6.11,5.44,5.44,0,0,0-2-2.16,6.55,6.55,0,0,0-6.31,0,5.39,5.39,0,0,0-2,2.16,6.93,6.93,0,0,0,0,6.11,5.42,5.42,0,0,0,2,2.17A6,6,0,0,0,631.14,239.58Z"></path><path class="cls-29" d="M645.53,241.23a4.61,4.61,0,0,1-2.2-.56,4.31,4.31,0,0,1-1.69-1.65,5.25,5.25,0,0,1-.64-2.71v-6.59h1.7v6.55a3.43,3.43,0,0,0,.89,2.48,3,3,0,0,0,2.28.94,3.34,3.34,0,0,0,3-1.66,3.35,3.35,0,0,0,.47-1.78v-6.53H651v11.33h-1.7v-1.77a5.65,5.65,0,0,1-1.5,1.38A4.1,4.1,0,0,1,645.53,241.23Z"></path><path class="cls-29" d="M659,241.23a5.69,5.69,0,0,1-3-.78,5.46,5.46,0,0,1-2-2.12,6.21,6.21,0,0,1-.71-3,6.41,6.41,0,0,1,.68-2.95,5.15,5.15,0,0,1,2-2.11,6.14,6.14,0,0,1,6,0,5.2,5.2,0,0,1,1.94,2.11,6.41,6.41,0,0,1,.68,2.95v.68H655a4.61,4.61,0,0,0,.65,1.83A3.74,3.74,0,0,0,657,239.2a3.92,3.92,0,0,0,2,.49,3.63,3.63,0,0,0,2-.53,3.7,3.7,0,0,0,1.27-1.37h1.86a5.69,5.69,0,0,1-1.87,2.48A5.34,5.34,0,0,1,659,241.23Zm-4-6.75h7.7a4.22,4.22,0,0,0-1.22-2.43,3.6,3.6,0,0,0-2.63-1,3.56,3.56,0,0,0-2.62,1A4.3,4.3,0,0,0,655,234.48Z"></path><path class="cls-29" d="M665.78,241.05v-1.61l6.78-8.16h-6.69v-1.56h8.84v1.59l-6.8,8.15h6.8v1.59Z"></path><path class="cls-29" d="M681.84,241.23a5.62,5.62,0,0,1-3-.78,5.22,5.22,0,0,1-1.94-2.12,6.74,6.74,0,0,1,0-5.9,5.2,5.2,0,0,1,1.94-2.11,6.16,6.16,0,0,1,6,0,5.17,5.17,0,0,1,1.93,2.11,6.74,6.74,0,0,1,0,5.9,5.2,5.2,0,0,1-1.93,2.12A5.6,5.6,0,0,1,681.84,241.23Zm0-1.54a3.8,3.8,0,0,0,2.15-.59,3.71,3.71,0,0,0,1.32-1.58,5.34,5.34,0,0,0,0-4.29,3.72,3.72,0,0,0-1.32-1.56,3.8,3.8,0,0,0-2.15-.59,3.66,3.66,0,0,0-3.46,2.15,5.34,5.34,0,0,0,0,4.29,3.64,3.64,0,0,0,3.46,2.17Z"></path><path class="cls-29" d="M689.71,241.05V229.72h1.7v1.77a5.31,5.31,0,0,1,1.49-1.38,4.13,4.13,0,0,1,2.27-.57,4.61,4.61,0,0,1,2.21.55,4.36,4.36,0,0,1,1.67,1.66,5.25,5.25,0,0,1,.65,2.71v6.59H698V234.5a3.51,3.51,0,0,0-.88-2.48,3,3,0,0,0-2.29-.94,3.41,3.41,0,0,0-1.72.43,3.27,3.27,0,0,0-1.24,1.21,3.44,3.44,0,0,0-.46,1.8v6.53Z"></path><path class="cls-28" d="M887.14,207.93a3.46,3.46,0,0,1-1.48-.3,7.36,7.36,0,0,1-1.17-.69l-1-.68a1.58,1.58,0,0,0-.89-.3,1.19,1.19,0,0,0-1,.45,2.1,2.1,0,0,0-.42,1.25h-2.85a5.84,5.84,0,0,1,1.13-3.71,3.46,3.46,0,0,1,2.77-1.29,3.38,3.38,0,0,1,1.5.31,7.33,7.33,0,0,1,1.17.68c.35.25.67.48,1,.68a1.51,1.51,0,0,0,.9.31,1.21,1.21,0,0,0,1-.47,2.12,2.12,0,0,0,.39-1.26H891a5.81,5.81,0,0,1-1.11,3.72A3.46,3.46,0,0,1,887.14,207.93Z"></path><path class="cls-28" d="M898.19,214.2a14.32,14.32,0,0,1-3.55-.44,10.8,10.8,0,0,1-3.09-1.24l1.76-3.64a7.92,7.92,0,0,0,2.28,1.05,8.58,8.58,0,0,0,2.45.37,3.67,3.67,0,0,0,2-.47,1.44,1.44,0,0,0,.73-1.31,1.42,1.42,0,0,0-.61-1.21,3.43,3.43,0,0,0-2-.45h-2v-3.05l4.58-4.95.47,1.65h-8.74v-3.73h12.35v3l-4.59,4.95-2.37-1.34h1.32a7.14,7.14,0,0,1,4.84,1.43,4.62,4.62,0,0,1,1.65,3.67,5.16,5.16,0,0,1-.79,2.75,5.79,5.79,0,0,1-2.43,2.12A9.53,9.53,0,0,1,898.19,214.2Z"></path><path class="cls-28" d="M914.73,214.2a7,7,0,0,1-6.56-4.07,12.29,12.29,0,0,1,0-9.62,7.25,7.25,0,0,1,13.1,0,12.29,12.29,0,0,1,0,9.62,7,7,0,0,1-6.54,4.07Zm0-3.95a2.1,2.1,0,0,0,1.38-.49,3.21,3.21,0,0,0,.94-1.57,12.33,12.33,0,0,0,0-5.75,3.27,3.27,0,0,0-.94-1.56,2.19,2.19,0,0,0-2.76,0,3.36,3.36,0,0,0-1,1.56,12,12,0,0,0,0,5.75,3.29,3.29,0,0,0,1,1.57A2.1,2.1,0,0,0,914.73,210.25Z"></path><path class="cls-28" d="M928,206a4.51,4.51,0,0,1-2.24-.56,4,4,0,0,1-1.57-1.62,5.45,5.45,0,0,1-.56-2.55,5.36,5.36,0,0,1,.56-2.54,4,4,0,0,1,1.57-1.62,4.65,4.65,0,0,1,4.5,0,4.06,4.06,0,0,1,1.56,1.62,5.24,5.24,0,0,1,.57,2.54,5.31,5.31,0,0,1-.57,2.53,4,4,0,0,1-1.56,1.64A4.54,4.54,0,0,1,928,206Zm-1.56,7.83,11.66-17.08h3.52l-11.67,17.08ZM928,203.71a1.22,1.22,0,0,0,1-.56,3.23,3.23,0,0,0,.4-1.85,3.27,3.27,0,0,0-.4-1.86,1.22,1.22,0,0,0-1-.56,1.27,1.27,0,0,0-1,.56,3.09,3.09,0,0,0-.43,1.86,3.05,3.05,0,0,0,.43,1.85A1.27,1.27,0,0,0,928,203.71Zm12,10.37a4.52,4.52,0,0,1-2.25-.56,3.91,3.91,0,0,1-1.55-1.62,5.33,5.33,0,0,1-.56-2.55,5.27,5.27,0,0,1,.56-2.54,4,4,0,0,1,1.55-1.62,4.67,4.67,0,0,1,4.51,0,4.06,4.06,0,0,1,1.56,1.62,5.27,5.27,0,0,1,.58,2.54,5.34,5.34,0,0,1-.58,2.55,4,4,0,0,1-1.56,1.62A4.54,4.54,0,0,1,940,214.08Zm0-2.32a1.23,1.23,0,0,0,1-.56,3.14,3.14,0,0,0,.41-1.85,3.18,3.18,0,0,0-.41-1.86,1.21,1.21,0,0,0-2,0,3.16,3.16,0,0,0-.43,1.86,3.13,3.13,0,0,0,.43,1.85A1.23,1.23,0,0,0,940,211.76Z"></path><path class="cls-28" d="M951.72,213.86l7.54-17.08H964l7.56,17.08h-5l-5.91-14.71h1.9l-5.9,14.71Zm4.12-3.32,1.25-3.56h8.34l1.25,3.56Z"></path><path class="cls-28" d="M978.37,214.08a6.55,6.55,0,0,1-3.29-.84,6.22,6.22,0,0,1-2.35-2.37,7.95,7.95,0,0,1,0-7.27,6.1,6.1,0,0,1,2.35-2.35,6.54,6.54,0,0,1,3.29-.83,5.39,5.39,0,0,1,2.89.73,4.56,4.56,0,0,1,1.79,2.24,10.28,10.28,0,0,1,.61,3.83,10.63,10.63,0,0,1-.59,3.88,4.43,4.43,0,0,1-1.75,2.25A5.47,5.47,0,0,1,978.37,214.08Zm1-3.68a2.73,2.73,0,0,0,1.4-.37,2.51,2.51,0,0,0,1-1.09,3.67,3.67,0,0,0,.37-1.72,3.52,3.52,0,0,0-.37-1.69,2.54,2.54,0,0,0-1-1.06,2.64,2.64,0,0,0-1.4-.37,2.72,2.72,0,0,0-1.43.37,2.58,2.58,0,0,0-1,1.06,3.52,3.52,0,0,0-.37,1.69,3.67,3.67,0,0,0,.37,1.72,2.55,2.55,0,0,0,1,1.09A2.82,2.82,0,0,0,979.34,210.4Zm2.9,3.46v-2.27l0-4.37-.24-4.36v-7.1h4.63v18.1Z"></path><path class="cls-28" d="M995.4,214.08a6.55,6.55,0,0,1-3.29-.84,6.29,6.29,0,0,1-2.35-2.37,7.95,7.95,0,0,1,0-7.27,6.17,6.17,0,0,1,2.35-2.35,6.54,6.54,0,0,1,3.29-.83,5.39,5.39,0,0,1,2.89.73,4.56,4.56,0,0,1,1.79,2.24,10.28,10.28,0,0,1,.61,3.83,10.87,10.87,0,0,1-.58,3.88,4.44,4.44,0,0,1-1.76,2.25A5.47,5.47,0,0,1,995.4,214.08Zm1-3.68a2.73,2.73,0,0,0,1.4-.37,2.51,2.51,0,0,0,1-1.09,3.67,3.67,0,0,0,.37-1.72,3.52,3.52,0,0,0-.37-1.69,2.54,2.54,0,0,0-1-1.06,2.64,2.64,0,0,0-1.4-.37,2.75,2.75,0,0,0-1.43.37,2.58,2.58,0,0,0-1,1.06,3.52,3.52,0,0,0-.37,1.69,3.67,3.67,0,0,0,.37,1.72,2.55,2.55,0,0,0,1,1.09A2.85,2.85,0,0,0,996.37,210.4Zm2.91,3.46v-2.27l0-4.37-.24-4.36v-7.1h4.63v18.1Z"></path><path class="cls-28" d="M1009,199.17a2.89,2.89,0,0,1-2-.71,2.36,2.36,0,0,1,0-3.51,2.94,2.94,0,0,1,2-.71,3.08,3.08,0,0,1,2,.67,2.19,2.19,0,0,1,.78,1.73,2.38,2.38,0,0,1-.77,1.81A2.89,2.89,0,0,1,1009,199.17Zm-2.32,14.69V200.64h4.63v13.22Z"></path><path class="cls-28" d="M1012.91,204.59v-3.47h9.59v3.47Zm7.3,9.49a5.73,5.73,0,0,1-4-1.26,4.77,4.77,0,0,1-1.42-3.79V197.68h4.64V209a1.53,1.53,0,0,0,.39,1.11,1.32,1.32,0,0,0,1,.4,2.35,2.35,0,0,0,1.41-.41l1.15,3.24a4.1,4.1,0,0,1-1.44.58A8.6,8.6,0,0,1,1020.21,214.08Z"></path><path class="cls-28" d="M1027.53,199.17a2.89,2.89,0,0,1-2-.71,2.36,2.36,0,0,1,0-3.51,2.94,2.94,0,0,1,2-.71,3.06,3.06,0,0,1,2,.67,2.19,2.19,0,0,1,.78,1.73,2.38,2.38,0,0,1-.77,1.81A2.89,2.89,0,0,1,1027.53,199.17Zm-2.32,14.69V200.64h4.64v13.22Z"></path><path class="cls-28" d="M1039.48,214.08a8.15,8.15,0,0,1-3.85-.88,6.68,6.68,0,0,1-2.65-2.43,6.58,6.58,0,0,1-1-3.55,6.51,6.51,0,0,1,1-3.53,6.71,6.71,0,0,1,2.65-2.41,8.39,8.39,0,0,1,3.85-.86,8.48,8.48,0,0,1,3.87.86,6.51,6.51,0,0,1,2.65,2.41,6.59,6.59,0,0,1,1,3.53,6.66,6.66,0,0,1-1,3.55,6.49,6.49,0,0,1-2.65,2.43A8.24,8.24,0,0,1,1039.48,214.08Zm0-3.68a2.79,2.79,0,0,0,1.43-.37,2.51,2.51,0,0,0,1-1.09,3.8,3.8,0,0,0,.37-1.72,3.64,3.64,0,0,0-.37-1.69,2.54,2.54,0,0,0-1-1.06,2.7,2.7,0,0,0-1.43-.37,2.66,2.66,0,0,0-1.4.37,2.7,2.7,0,0,0-1,1.06,3.52,3.52,0,0,0-.38,1.69,3.67,3.67,0,0,0,.38,1.72,2.65,2.65,0,0,0,1,1.09A2.76,2.76,0,0,0,1039.48,210.4Z"></path><path class="cls-28" d="M1057.71,200.42a6,6,0,0,1,2.78.62,4.53,4.53,0,0,1,2,1.91,6.87,6.87,0,0,1,.72,3.35v7.56h-4.64v-6.81A3.07,3.07,0,0,0,1058,205a2,2,0,0,0-1.6-.64,2.74,2.74,0,0,0-1.34.32,2.2,2.2,0,0,0-1,1,3.94,3.94,0,0,0-.35,1.78v6.39h-4.63V200.64h4.41v3.75l-.85-1.09a5.09,5.09,0,0,1,2.07-2.16A6.11,6.11,0,0,1,1057.71,200.42Z"></path><path class="cls-28" d="M1070.25,214.08a6,6,0,0,1-2.68-.54,3.86,3.86,0,0,1-1.67-1.46,3.8,3.8,0,0,1-.58-2.07,3.54,3.54,0,0,1,.63-2.11,3.84,3.84,0,0,1,1.91-1.37,9.76,9.76,0,0,1,3.34-.48h3.13v2.42h-2.49a2.6,2.6,0,0,0-1.58.36,1.27,1.27,0,0,0,0,2,2,2,0,0,0,1.27.36,2.5,2.5,0,0,0,1.37-.38,2.18,2.18,0,0,0,.92-1.15l.63,1.7a3.46,3.46,0,0,1-1.42,2.07A5.07,5.07,0,0,1,1070.25,214.08Zm3.91-.22V211.4l-.32-.61v-4.54a2.16,2.16,0,0,0-.67-1.7,3.16,3.16,0,0,0-2.14-.6,6.52,6.52,0,0,0-1.92.31,4.89,4.89,0,0,0-1.66.84l-1.56-3.15a9.08,9.08,0,0,1,2.69-1.13,12.58,12.58,0,0,1,3.14-.4,7.61,7.61,0,0,1,5,1.47,5.7,5.7,0,0,1,1.76,4.63v7.34Z"></path><path class="cls-28" d="M1081.4,213.86v-18.1H1086v18.1Z"></path><path class="cls-28" d="M1096.36,213.86V196.78h4.83V210h8.15v3.83Z"></path><path class="cls-28" d="M1113.34,199.17a2.89,2.89,0,0,1-2-.71,2.36,2.36,0,0,1,0-3.51,2.94,2.94,0,0,1,2-.71,3.06,3.06,0,0,1,2.05.67,2.19,2.19,0,0,1,.78,1.73,2.38,2.38,0,0,1-.77,1.81A2.89,2.89,0,0,1,1113.34,199.17ZM1111,213.86V200.64h4.64v13.22Z"></path><path class="cls-28" d="M1127.27,200.42a6,6,0,0,1,2.78.62,4.53,4.53,0,0,1,2,1.91,6.87,6.87,0,0,1,.72,3.35v7.56h-4.64v-6.81a3.07,3.07,0,0,0-.57-2.06,2,2,0,0,0-1.6-.64,2.74,2.74,0,0,0-1.34.32,2.2,2.2,0,0,0-.95,1,4,4,0,0,0-.34,1.78v6.39h-4.64V200.64h4.42v3.75l-.86-1.09a5.05,5.05,0,0,1,2.08-2.16A6.07,6.07,0,0,1,1127.27,200.42Z"></path><path class="cls-28" d="M1142.74,214.08a9,9,0,0,1-4.09-.89,6.66,6.66,0,0,1-2.7-2.44,6.48,6.48,0,0,1-1-3.53,6.71,6.71,0,0,1,.94-3.52,6.53,6.53,0,0,1,2.6-2.42,8,8,0,0,1,3.73-.86,7.92,7.92,0,0,1,3.56.79,6.21,6.21,0,0,1,2.57,2.33,7,7,0,0,1,.95,3.73c0,.17,0,.35,0,.56s0,.41,0,.59h-10.47V206h8l-1.76.68a3.1,3.1,0,0,0-.32-1.56,2.6,2.6,0,0,0-1-1,2.77,2.77,0,0,0-1.45-.37,2.72,2.72,0,0,0-1.45.37,2.47,2.47,0,0,0-1,1,3.44,3.44,0,0,0-.34,1.58v.71a3.32,3.32,0,0,0,.4,1.68,2.69,2.69,0,0,0,1.16,1.08,3.93,3.93,0,0,0,1.81.38,4.42,4.42,0,0,0,1.67-.28,5.21,5.21,0,0,0,1.38-.86l2.44,2.53a6.15,6.15,0,0,1-2.35,1.6A8.82,8.82,0,0,1,1142.74,214.08Z"></path><path class="cls-28" d="M1156.28,214.08a13.82,13.82,0,0,1-3.28-.39,9.27,9.27,0,0,1-2.57-1l1.39-3.17a8.08,8.08,0,0,0,2.17.89,9.48,9.48,0,0,0,2.44.33,3.79,3.79,0,0,0,1.62-.24.73.73,0,0,0,.45-.66.6.6,0,0,0-.42-.57A4,4,0,0,0,1157,209l-1.52-.22c-.55-.09-1.11-.19-1.67-.33a5.27,5.27,0,0,1-1.54-.64,3.17,3.17,0,0,1-1.11-1.16,4,4,0,0,1,.33-4.11,4.86,4.86,0,0,1,2.18-1.56,9.58,9.58,0,0,1,3.52-.57,14.32,14.32,0,0,1,2.81.28,7.73,7.73,0,0,1,2.41.84l-1.39,3.15a6.55,6.55,0,0,0-2-.77,8.75,8.75,0,0,0-1.85-.21,3.62,3.62,0,0,0-1.65.27.78.78,0,0,0-.47.66.66.66,0,0,0,.41.6,4.15,4.15,0,0,0,1.11.31c.47.08,1,.15,1.53.22a17,17,0,0,1,1.67.33,5.71,5.71,0,0,1,1.54.65,3.22,3.22,0,0,1,1.11,1.15,3.71,3.71,0,0,1,.41,1.84,3.55,3.55,0,0,1-.74,2.19,5.08,5.08,0,0,1-2.2,1.56A9.48,9.48,0,0,1,1156.28,214.08Z"></path><path class="cls-29" d="M922.86,241.23a5.6,5.6,0,0,1-3-.78,5.25,5.25,0,0,1-2-2.12,6.74,6.74,0,0,1,0-5.9,5.22,5.22,0,0,1,2-2.11,6.14,6.14,0,0,1,6,0,5.2,5.2,0,0,1,1.94,2.11,6.74,6.74,0,0,1,0,5.9,5.22,5.22,0,0,1-1.94,2.12A5.56,5.56,0,0,1,922.86,241.23Zm0-1.54a3.61,3.61,0,0,0,3.47-2.17,5.34,5.34,0,0,0,0-4.29,3.83,3.83,0,0,0-6.94,0,5.34,5.34,0,0,0,0,4.29,3.64,3.64,0,0,0,3.47,2.17Z"></path><path class="cls-29" d="M933.58,241.05l-4.44-11.33H931l3.57,9.52,3.56-9.52H940l-4.42,11.33Z"></path><path class="cls-29" d="M946.38,241.23a5.69,5.69,0,0,1-3-.78,5.46,5.46,0,0,1-2-2.12,6.21,6.21,0,0,1-.71-3,6.28,6.28,0,0,1,.68-2.95,5.15,5.15,0,0,1,1.95-2.11,6.14,6.14,0,0,1,6,0,5.26,5.26,0,0,1,1.94,2.11,6.41,6.41,0,0,1,.68,2.95v.68h-9.5a4.61,4.61,0,0,0,.65,1.83,3.67,3.67,0,0,0,1.37,1.31,3.92,3.92,0,0,0,2,.49,3.66,3.66,0,0,0,2-.53,3.79,3.79,0,0,0,1.27-1.37h1.86a5.69,5.69,0,0,1-1.87,2.48A5.38,5.38,0,0,1,946.38,241.23Zm-4-6.75h7.71a4.18,4.18,0,0,0-1.23-2.43,4,4,0,0,0-5.24,0A4.37,4.37,0,0,0,942.41,234.48Z"></path><path class="cls-29" d="M954,241.05V229.72h1.7v2.79a4.68,4.68,0,0,1,.35-.78,4.1,4.1,0,0,1,.76-1,4.22,4.22,0,0,1,1.26-.85,4.28,4.28,0,0,1,1.8-.35H960v1.7h-.2a3.53,3.53,0,0,0-2.19.69,4.43,4.43,0,0,0-1.4,1.79,5.61,5.61,0,0,0-.49,2.34v5Z"></path><path class="cls-29" d="M967.83,241.05v-9.83h-2.31v-1.5h2.31v-4.06h1.7v4.06h2.61v1.5h-2.61v9.83Z"></path><path class="cls-29" d="M974,241.05V225.19h1.7v6.3a5.31,5.31,0,0,1,1.49-1.38,4.13,4.13,0,0,1,2.27-.57,4.61,4.61,0,0,1,2.21.55,4.36,4.36,0,0,1,1.67,1.66,5.25,5.25,0,0,1,.65,2.71v6.59h-1.7V234.5a3.51,3.51,0,0,0-.88-2.48,3,3,0,0,0-2.29-.94,3.47,3.47,0,0,0-1.73.43,3.32,3.32,0,0,0-1.23,1.21,3.44,3.44,0,0,0-.46,1.8v6.53Z"></path><path class="cls-29" d="M991.85,241.23a5.69,5.69,0,0,1-3-.78,5.46,5.46,0,0,1-2-2.12,6.21,6.21,0,0,1-.71-3,6.28,6.28,0,0,1,.68-2.95,5.15,5.15,0,0,1,2-2.11,6.14,6.14,0,0,1,6,0,5.26,5.26,0,0,1,1.94,2.11,6.41,6.41,0,0,1,.68,2.95v.68h-9.5a4.61,4.61,0,0,0,.65,1.83,3.67,3.67,0,0,0,1.37,1.31,3.92,3.92,0,0,0,2,.49,3.66,3.66,0,0,0,2-.53,3.79,3.79,0,0,0,1.27-1.37H997a5.69,5.69,0,0,1-1.87,2.48A5.38,5.38,0,0,1,991.85,241.23Zm-4-6.75h7.7a4.22,4.22,0,0,0-1.22-2.43,3.62,3.62,0,0,0-2.63-1,3.56,3.56,0,0,0-2.62,1A4.3,4.3,0,0,0,987.89,234.48Z"></path><path class="cls-29" d="M1004.27,241.05V229.72h1.7v1.77a5.31,5.31,0,0,1,1.49-1.38,4.11,4.11,0,0,1,2.27-.57,4.55,4.55,0,0,1,2.2.55,4.32,4.32,0,0,1,1.68,1.66,5.25,5.25,0,0,1,.65,2.71v6.59h-1.7V234.5a3.47,3.47,0,0,0-.89-2.48,3,3,0,0,0-2.28-.94,3.47,3.47,0,0,0-1.73.43,3.32,3.32,0,0,0-1.23,1.21,3.44,3.44,0,0,0-.46,1.8v6.53Z"></path><path class="cls-29" d="M1022.12,241.23a5.69,5.69,0,0,1-3-.78,5.39,5.39,0,0,1-2-2.12,6.21,6.21,0,0,1-.71-3,6.28,6.28,0,0,1,.68-2.95,5.2,5.2,0,0,1,1.94-2.11,6.16,6.16,0,0,1,6,0,5.17,5.17,0,0,1,1.93,2.11,6.28,6.28,0,0,1,.68,2.95v.68h-9.49a4.61,4.61,0,0,0,.65,1.83,3.67,3.67,0,0,0,1.37,1.31,3.92,3.92,0,0,0,2,.49,3.68,3.68,0,0,0,2-.53,3.88,3.88,0,0,0,1.27-1.37h1.85a5.59,5.59,0,0,1-1.86,2.48A5.38,5.38,0,0,1,1022.12,241.23Zm-4-6.75h7.71a4.18,4.18,0,0,0-1.23-2.43,4,4,0,0,0-5.24,0A4.37,4.37,0,0,0,1018.15,234.48Z"></path><path class="cls-29" d="M1027.94,241.05l4.37-5.85-4.1-5.48h2.18l2.92,4.28,2.9-4.28h2.18l-4.1,5.48,4.39,5.85h-2.17l-3.2-4.62-3.22,4.62Z"></path><path class="cls-29" d="M1041.47,241.05v-9.83h-2.31v-1.5h2.31v-4.06h1.7v4.06h2.6v1.5h-2.6v9.83Z"></path><path class="cls-29" d="M1057.33,241.23a6.46,6.46,0,0,1-2.44-.4,4.57,4.57,0,0,1-1.59-1,4.45,4.45,0,0,1-.92-1.29,5.38,5.38,0,0,1-.45-1.24h1.75a3.67,3.67,0,0,0,.59,1.07,3,3,0,0,0,1.14.88,4.53,4.53,0,0,0,1.85.34,3.44,3.44,0,0,0,1.78-.45,3.19,3.19,0,0,0,1.19-1.2,3.41,3.41,0,0,0,.43-1.68,3.25,3.25,0,0,0-.94-2.42,3.33,3.33,0,0,0-2.42-.92,4.16,4.16,0,0,0-1.79.38,3.35,3.35,0,0,0-1.17.83l-1.57-1,1-7.11h7.82v1.63h-6.28l-.68,4.35a4.94,4.94,0,0,1,1.25-.51,5.68,5.68,0,0,1,4.06.44,4.6,4.6,0,0,1,1.76,1.74,5,5,0,0,1,.64,2.55,4.88,4.88,0,0,1-.67,2.51,5,5,0,0,1-1.8,1.8A4.92,4.92,0,0,1,1057.33,241.23Z"></path><path class="cls-29" d="M1070.92,245.53l2.06-4.64-4.62-11.17h1.88l3.65,9.29,3.71-9.29h1.86l-6.7,15.81Z"></path><path class="cls-29" d="M1085.81,241.23a5.73,5.73,0,0,1-3-.78,5.37,5.37,0,0,1-2-2.12,6.1,6.1,0,0,1-.72-3,6.41,6.41,0,0,1,.68-2.95,5.29,5.29,0,0,1,2-2.11,5.6,5.6,0,0,1,3-.78,5.54,5.54,0,0,1,3,.78,5.2,5.2,0,0,1,1.94,2.11,6.41,6.41,0,0,1,.68,2.95v.68h-9.49a4.6,4.6,0,0,0,.64,1.83,3.74,3.74,0,0,0,1.37,1.31,4,4,0,0,0,2,.49,3.62,3.62,0,0,0,2-.53,3.7,3.7,0,0,0,1.27-1.37H1091a5.54,5.54,0,0,1-1.87,2.48A5.33,5.33,0,0,1,1085.81,241.23Zm-4-6.75h7.7a4.22,4.22,0,0,0-1.22-2.43,3.59,3.59,0,0,0-2.63-1,3.52,3.52,0,0,0-2.61,1A4.37,4.37,0,0,0,1081.84,234.48Z"></path><path class="cls-29" d="M1098.18,241.23a5.19,5.19,0,0,1-4.81-2.9,6.74,6.74,0,0,1,0-5.9,5.21,5.21,0,0,1,4.81-2.89,5,5,0,0,1,2.41.54,4.58,4.58,0,0,1,1.64,1.48v-1.84h1.7v11.33h-1.7v-1.81a4.79,4.79,0,0,1-1.64,1.45A5,5,0,0,1,1098.18,241.23Zm.22-1.54a3.74,3.74,0,0,0,2.14-.59,3.67,3.67,0,0,0,1.33-1.58,5.34,5.34,0,0,0,0-4.29,3.67,3.67,0,0,0-1.33-1.56,3.74,3.74,0,0,0-2.14-.59,3.78,3.78,0,0,0-3.53,2.15,5,5,0,0,0,0,4.29,3.75,3.75,0,0,0,3.53,2.17Z"></path><path class="cls-29" d="M1106.88,241.05V229.72h1.7v2.79a4,4,0,0,1,.35-.78,3.86,3.86,0,0,1,.76-1,4.3,4.3,0,0,1,1.25-.85,4.35,4.35,0,0,1,1.8-.35h.12v1.7h-.21a3.52,3.52,0,0,0-2.18.69,4.54,4.54,0,0,0-1.41,1.79,5.76,5.76,0,0,0-.48,2.34v5Z"></path><path class="cls-29" d="M1118.82,241.23a5.94,5.94,0,0,1-2.64-.52,4.11,4.11,0,0,1-1.65-1.37,3.76,3.76,0,0,1-.63-1.85h1.77a2.56,2.56,0,0,0,.39,1.1,2.4,2.4,0,0,0,1,.86,4.05,4.05,0,0,0,1.77.33,5.88,5.88,0,0,0,.84-.07,4,4,0,0,0,1-.25,2,2,0,0,0,.78-.54,1.36,1.36,0,0,0,.32-.93,1.25,1.25,0,0,0-.55-1.09,4.44,4.44,0,0,0-1.4-.6l-1.82-.42a11.44,11.44,0,0,1-1.83-.53,3.58,3.58,0,0,1-1.4-.93,2.37,2.37,0,0,1-.55-1.64,2.83,2.83,0,0,1,1.12-2.39,5.45,5.45,0,0,1,3.33-.85,5.51,5.51,0,0,1,2.43.46,3.42,3.42,0,0,1,2,2.76h-1.73a1.91,1.91,0,0,0-.71-1.25,3.19,3.19,0,0,0-2.05-.52c-1.8,0-2.7.54-2.7,1.63a1.16,1.16,0,0,0,.55,1,4.44,4.44,0,0,0,1.4.58c.58.14,1.18.28,1.83.41a10.38,10.38,0,0,1,1.82.53,3.64,3.64,0,0,1,1.4,1,2.46,2.46,0,0,1,.55,1.69,2.89,2.89,0,0,1-1.26,2.53A5.81,5.81,0,0,1,1118.82,241.23Z"></path></g></g></svg> 