<?xml version="1.0" encoding="UTF-8"?> <svg xmlns="http://www.w3.org/2000/svg" xmlns:xlink="http://www.w3.org/1999/xlink" viewBox="0 0 307.91 565.15"><defs><style>.cls-1{fill:url(#linear-gradient);}.cls-2{fill:url(#linear-gradient-2);}.cls-3{fill:url(#linear-gradient-3);}.cls-4{fill:url(#linear-gradient-4);}.cls-5{fill:url(#linear-gradient-5);}.cls-6{fill:url(#linear-gradient-6);}.cls-7{fill:url(#linear-gradient-7);}.cls-8{fill:url(#linear-gradient-8);}</style><linearGradient id="linear-gradient" x1="2988.49" y1="-1552.17" x2="2988.49" y2="-1475.51" gradientTransform="translate(-2791.92 1712.76)" gradientUnits="userSpaceOnUse"><stop offset="0" stop-color="#a03594"></stop><stop offset="1" stop-color="#fcdcda"></stop></linearGradient><linearGradient id="linear-gradient-2" x1="3678.99" y1="5259.53" x2="3678.99" y2="5436.54" gradientTransform="translate(-5224.74 3770.73) rotate(-90)" gradientUnits="userSpaceOnUse"><stop offset="0" stop-color="#3e2b58"></stop><stop offset="0.11" stop-color="#4b3761"></stop><stop offset="0.33" stop-color="#6e5779"></stop><stop offset="0.61" stop-color="#a58b9f"></stop><stop offset="0.96" stop-color="#f2d2d3"></stop><stop offset="1" stop-color="#fcdcda"></stop></linearGradient><linearGradient id="linear-gradient-3" x1="-5375.84" y1="4015.69" x2="-5375.84" y2="4092.34" gradientTransform="translate(-5179.28 4263.54) rotate(180)" gradientUnits="userSpaceOnUse"><stop offset="0" stop-color="#ee2741"></stop><stop offset="1" stop-color="#fcdcda"></stop></linearGradient><linearGradient id="linear-gradient-4" x1="-1403.85" y1="6799.78" x2="-1403.85" y2="6876.44" gradientTransform="translate(1482.27 -6601.25)" xlink:href="#linear-gradient-2"></linearGradient><linearGradient id="linear-gradient-5" x1="-1482.43" y1="6708.9" x2="-1323.25" y2="6708.9" gradientTransform="translate(1482.85 -6370.16)" xlink:href="#linear-gradient"></linearGradient><linearGradient id="linear-gradient-6" x1="5336.5" y1="6508.34" x2="5336.5" y2="6654.1" gradientTransform="translate(-6355.69 5674.96) rotate(-90)" xlink:href="#linear-gradient-3"></linearGradient><linearGradient id="linear-gradient-7" y1="338.46" x2="158.8" y2="338.46" gradientUnits="userSpaceOnUse"><stop offset="0" stop-color="#bad8df"></stop><stop offset="1" stop-color="#fcdcda"></stop></linearGradient><linearGradient id="linear-gradient-8" x1="0" y1="465.1" x2="158.8" y2="465.1" gradientTransform="matrix(1, 0, 0, -1, 0, 954.71)" xlink:href="#linear-gradient"></linearGradient></defs><g id="Layer_2" data-name="Layer 2"><g id="Design"><path class="cls-1" d="M156.83,183.47h0a79.46,79.46,0,0,0,79.46,79.45h0V183.47Z"></path><path class="cls-2" d="M0,183.47H0A183.47,183.47,0,0,0,183.47,0H0Z"></path><path class="cls-3" d="M236.29,262.92h0a79.46,79.46,0,0,0-79.46-79.45h0v79.45Z"></path><rect class="cls-4" y="183.47" width="156.83" height="79.45" transform="translate(156.84 446.39) rotate(180)"></rect><rect class="cls-5" x="0.41" y="263.2" width="156.59" height="151.08" transform="translate(157.41 677.47) rotate(180)"></rect><polygon class="cls-6" points="156.83 262.92 156.83 414 307.91 414 156.83 262.92"></polygon><path class="cls-7" d="M156.21,414H0V262.92H2.91A153.88,153.88,0,0,1,111.3,307.18,149.46,149.46,0,0,1,156.21,414Z"></path><path class="cls-8" d="M156.21,414.07H0V565.15H2.91A153.88,153.88,0,0,0,111.3,520.89,149.46,149.46,0,0,0,156.21,414.07Z"></path></g></g></svg> 