<?xml version="1.0" encoding="UTF-8"?> <svg xmlns="http://www.w3.org/2000/svg" xmlns:xlink="http://www.w3.org/1999/xlink" viewBox="0 0 938.9 960.6"><defs><style>.cls-1{fill:url(#linear-gradient);}.cls-2{fill:url(#linear-gradient-2);}.cls-3{fill:url(#linear-gradient-3);}.cls-4{fill:url(#linear-gradient-4);}.cls-5{fill:url(#linear-gradient-5);}.cls-6{fill:url(#linear-gradient-6);}.cls-7{fill:url(#linear-gradient-7);}.cls-8{fill:url(#linear-gradient-8);}.cls-9{fill:url(#linear-gradient-9);}.cls-10{fill:url(#linear-gradient-10);}.cls-11{fill:url(#linear-gradient-11);}.cls-12{fill:url(#linear-gradient-12);}.cls-13{fill:url(#linear-gradient-13);}.cls-14{fill:url(#linear-gradient-14);}.cls-15{fill:url(#linear-gradient-15);}.cls-16{fill:url(#linear-gradient-16);}.cls-17{fill:#3e2b58;}.cls-18{fill:url(#linear-gradient-17);}.cls-19{fill:url(#linear-gradient-18);}.cls-20{fill:url(#linear-gradient-19);}.cls-21{fill:url(#linear-gradient-20);}.cls-22{fill:url(#linear-gradient-21);}.cls-23{fill:#fff;}.cls-24{fill:url(#linear-gradient-22);}.cls-25{fill:url(#linear-gradient-23);}</style><linearGradient id="linear-gradient" x1="128.57" y1="44.54" x2="395.57" y2="44.54" gradientUnits="userSpaceOnUse"><stop offset="0.2" stop-color="#bad8df"></stop><stop offset="1" stop-color="#fcdcda"></stop></linearGradient><linearGradient id="linear-gradient-2" x1="103.96" y1="317.53" x2="259.07" y2="317.53" xlink:href="#linear-gradient"></linearGradient><linearGradient id="linear-gradient-3" x1="189.07" y1="184.98" x2="282.7" y2="184.98" xlink:href="#linear-gradient"></linearGradient><linearGradient id="linear-gradient-4" x1="474.13" y1="179.59" x2="833.74" y2="179.59" xlink:href="#linear-gradient"></linearGradient><linearGradient id="linear-gradient-5" x1="240" y1="606.8" x2="1178.9" y2="606.8" gradientUnits="userSpaceOnUse"><stop offset="0.23" stop-color="#ee2e47"></stop><stop offset="1" stop-color="#fcdcda"></stop></linearGradient><linearGradient id="linear-gradient-6" x1="65.82" y1="861.05" x2="292.07" y2="861.05" gradientUnits="userSpaceOnUse"><stop offset="0" stop-color="#3e2b58"></stop><stop offset="1" stop-color="#a03594"></stop></linearGradient><linearGradient id="linear-gradient-7" x1="629.99" y1="845.04" x2="885.07" y2="845.04" xlink:href="#linear-gradient-6"></linearGradient><linearGradient id="linear-gradient-8" x1="292.07" y1="813.83" x2="629.99" y2="813.83" xlink:href="#linear-gradient-6"></linearGradient><linearGradient id="linear-gradient-9" x1="172.34" y1="778.02" x2="194.42" y2="778.02" gradientUnits="userSpaceOnUse"><stop offset="0" stop-color="#a03594"></stop><stop offset="1" stop-color="#fcdcda"></stop></linearGradient><linearGradient id="linear-gradient-10" x1="79.28" y1="604.03" x2="274.52" y2="604.03" gradientUnits="userSpaceOnUse"><stop offset="0" stop-color="#bad8df"></stop><stop offset="1" stop-color="#fcdcda"></stop></linearGradient><linearGradient id="linear-gradient-11" x1="126.84" y1="451.97" x2="369.32" y2="451.97" gradientUnits="userSpaceOnUse"><stop offset="0" stop-color="#3e2b58"></stop><stop offset="0.33" stop-color="#402d59"></stop><stop offset="0.48" stop-color="#47345e"></stop><stop offset="0.59" stop-color="#544067"></stop><stop offset="0.68" stop-color="#665073"></stop><stop offset="0.76" stop-color="#7d6683"></stop><stop offset="0.84" stop-color="#9a8197"></stop><stop offset="0.91" stop-color="#bda1af"></stop><stop offset="0.97" stop-color="#e3c5c9"></stop><stop offset="1" stop-color="#fcdcda"></stop></linearGradient><linearGradient id="linear-gradient-12" x1="67.68" y1="451.97" x2="286.12" y2="451.97" xlink:href="#linear-gradient-6"></linearGradient><linearGradient id="linear-gradient-13" x1="752.97" y1="746" x2="775.06" y2="746" xlink:href="#linear-gradient-9"></linearGradient><linearGradient id="linear-gradient-14" x1="659.92" y1="572.01" x2="855.15" y2="572.01" xlink:href="#linear-gradient-10"></linearGradient><linearGradient id="linear-gradient-15" x1="707.47" y1="419.95" x2="949.95" y2="419.95" xlink:href="#linear-gradient-11"></linearGradient><linearGradient id="linear-gradient-16" x1="648.31" y1="419.95" x2="866.76" y2="419.95" xlink:href="#linear-gradient-6"></linearGradient><linearGradient id="linear-gradient-17" x1="455.98" y1="679.71" x2="480.45" y2="679.71" xlink:href="#linear-gradient-9"></linearGradient><linearGradient id="linear-gradient-18" x1="352.88" y1="447.45" x2="569.19" y2="447.45" xlink:href="#linear-gradient-10"></linearGradient><linearGradient id="linear-gradient-19" x1="405.56" y1="239.49" x2="674.23" y2="239.49" xlink:href="#linear-gradient-11"></linearGradient><linearGradient id="linear-gradient-20" x1="340.02" y1="239.49" x2="582.05" y2="239.49" xlink:href="#linear-gradient-6"></linearGradient><linearGradient id="linear-gradient-21" x1="461.03" y1="867.69" x2="461.03" y2="763.13" xlink:href="#linear-gradient-5"></linearGradient><linearGradient id="linear-gradient-22" x1="757.53" y1="887.92" x2="757.53" y2="801.29" xlink:href="#linear-gradient-5"></linearGradient><linearGradient id="linear-gradient-23" x1="176.9" y1="892.73" x2="176.9" y2="829.37" xlink:href="#linear-gradient-5"></linearGradient></defs><g id="Layer_2" data-name="Layer 2"><g id="Design"><path class="cls-1" d="M351,44.54H339.17A89.06,89.06,0,0,0,262.13,0H262a89.06,89.06,0,0,0-77,44.54H173.11a44.54,44.54,0,0,0-44.54,44.54h267A44.54,44.54,0,0,0,351,44.54Z"></path><path class="cls-2" d="M233.19,317.53h-6.88a51.72,51.72,0,0,0-44.76-25.87h-.07a51.7,51.7,0,0,0-44.75,25.87h-6.89A25.88,25.88,0,0,0,104,343.41H259.07A25.88,25.88,0,0,0,233.19,317.53Z"></path><path class="cls-3" d="M267.08,185h-4.16a31.24,31.24,0,0,0-27-15.62h0a31.24,31.24,0,0,0-27,15.62h-4.16a15.62,15.62,0,0,0-15.62,15.62H282.7A15.63,15.63,0,0,0,267.08,185Z"></path><path class="cls-4" d="M773.75,179.59h-16A119.94,119.94,0,0,0,654,119.6h-.17a119.94,119.94,0,0,0-103.76,60h-16a60,60,0,0,0-60,60H833.74A60,60,0,0,0,773.75,179.59Z"></path><path class="cls-5" d="M938.9,253V960.6H0c35.55-54.11,97.41-131.26,196.6-181.52C353.19,699.73,423,773.81,541.69,709.3c168.95-91.81,114.93-325.39,304.82-425.21A313.77,313.77,0,0,1,938.9,253Z"></path><path class="cls-6" d="M95.88,813.83H262a30.06,30.06,0,0,1,30.06,30.06v64.39a0,0,0,0,1,0,0H65.82a0,0,0,0,1,0,0V843.89A30.06,30.06,0,0,1,95.88,813.83Z"></path><path class="cls-7" d="M665.55,781.8h184a35.56,35.56,0,0,1,35.56,35.56v90.91a0,0,0,0,1,0,0H630a0,0,0,0,1,0,0V817.36A35.56,35.56,0,0,1,665.55,781.8Z"></path><path class="cls-8" d="M630,908.27H292.07V750.7a31.33,31.33,0,0,1,31.33-31.32H598.67A31.32,31.32,0,0,1,630,750.7Z"></path><rect class="cls-9" x="165.86" y="742.22" width="22.08" height="71.61"></rect><rect class="cls-10" x="79.28" y="444.94" width="195.23" height="318.19"></rect><rect class="cls-11" x="55.66" y="436.37" width="242.49" height="31.2" rx="8.79"></rect><rect class="cls-12" x="67.68" y="427.71" width="218.45" height="48.53" rx="10.4"></rect><rect class="cls-13" x="746.49" y="710.19" width="22.08" height="71.61"></rect><rect class="cls-14" x="659.92" y="412.92" width="195.23" height="318.19"></rect><rect class="cls-15" x="636.29" y="404.35" width="242.49" height="31.2" rx="8.79"></rect><rect class="cls-16" x="648.31" y="395.68" width="218.45" height="48.53" rx="10.4"></rect><path class="cls-17" d="M120.48,560.79V547.23h6.19a7.86,7.86,0,0,1,3.21.6,4.69,4.69,0,0,1,2.08,1.73,4.84,4.84,0,0,1,.74,2.69,4.58,4.58,0,0,1-2.82,4.38,7.69,7.69,0,0,1-3.21.61h-4.06l1.7-1.66v5.21Zm3.83-4.81-1.7-1.76h3.83a2.62,2.62,0,0,0,1.79-.52,1.81,1.81,0,0,0,.59-1.45,1.85,1.85,0,0,0-.59-1.48,2.67,2.67,0,0,0-1.79-.52h-3.83l1.7-1.76Z"></path><path class="cls-17" d="M141.41,550.12a4.85,4.85,0,0,1,2.21.49,3.63,3.63,0,0,1,1.56,1.52,5.45,5.45,0,0,1,.57,2.65v6h-3.68v-5.41a2.39,2.39,0,0,0-.46-1.63,1.6,1.6,0,0,0-1.26-.52,2.15,2.15,0,0,0-1.07.27,1.77,1.77,0,0,0-.75.8,3.16,3.16,0,0,0-.27,1.41v5.08h-3.68V546.42h3.68v6.85l-.86-.87a4,4,0,0,1,1.65-1.71A4.85,4.85,0,0,1,141.41,550.12Z"></path><path class="cls-17" d="M149.9,549.13a2.34,2.34,0,0,1-1.63-.56,1.83,1.83,0,0,1-.62-1.4,1.81,1.81,0,0,1,.62-1.39,2.29,2.29,0,0,1,1.63-.56,2.36,2.36,0,0,1,1.62.53,1.72,1.72,0,0,1,.62,1.36,1.88,1.88,0,0,1-.61,1.45A2.3,2.3,0,0,1,149.9,549.13Zm-1.84,11.66v-10.5h3.68v10.5Z"></path><path class="cls-17" d="M154.12,560.79V546.42h3.68v14.37Z"></path><path class="cls-17" d="M162,549.13a2.35,2.35,0,0,1-1.63-.56,1.83,1.83,0,0,1-.62-1.4,1.81,1.81,0,0,1,.62-1.39,2.31,2.31,0,0,1,1.63-.56,2.41,2.41,0,0,1,1.63.53,1.71,1.71,0,0,1,.61,1.36,1.88,1.88,0,0,1-.61,1.45A2.28,2.28,0,0,1,162,549.13Zm-1.84,11.66v-10.5h3.68v10.5Z"></path><path class="cls-17" d="M166.24,564.55V550.29h3.5v5.25l.19,3.49v5.52Zm6.6-3.59a4.25,4.25,0,0,1-2.28-.59,3.69,3.69,0,0,1-1.44-1.78,8,8,0,0,1-.5-3.05,8.54,8.54,0,0,1,.47-3.07,3.49,3.49,0,0,1,1.4-1.77,4.38,4.38,0,0,1,2.35-.58,5.22,5.22,0,0,1,2.61.66,5,5,0,0,1,1.86,1.88,6.44,6.44,0,0,1,0,5.76,4.8,4.8,0,0,1-1.86,1.88A5.22,5.22,0,0,1,172.84,561Zm-.77-2.92a2.19,2.19,0,0,0,1.11-.29,2.15,2.15,0,0,0,.8-.86,2.81,2.81,0,0,0,.3-1.35,2.87,2.87,0,0,0-.3-1.36,2.09,2.09,0,0,0-1.91-1.14,2.16,2.16,0,0,0-1.11.29,2.19,2.19,0,0,0-.8.85,2.87,2.87,0,0,0-.3,1.36,2.81,2.81,0,0,0,.3,1.35,2.08,2.08,0,0,0,1.91,1.15Z"></path><path class="cls-17" d="M179.7,564.55V550.29h3.5v5.25l.19,3.49v5.52Zm6.6-3.59a4.25,4.25,0,0,1-2.28-.59,3.69,3.69,0,0,1-1.44-1.78,8,8,0,0,1-.5-3.05,8.54,8.54,0,0,1,.47-3.07,3.49,3.49,0,0,1,1.4-1.77,4.38,4.38,0,0,1,2.35-.58,5.22,5.22,0,0,1,2.61.66,5,5,0,0,1,1.86,1.88,6.44,6.44,0,0,1,0,5.76,4.8,4.8,0,0,1-1.86,1.88A5.22,5.22,0,0,1,186.3,561Zm-.77-2.92a2.19,2.19,0,0,0,1.11-.29,2.15,2.15,0,0,0,.8-.86,2.81,2.81,0,0,0,.3-1.35,2.87,2.87,0,0,0-.3-1.36,2.09,2.09,0,0,0-1.91-1.14,2.16,2.16,0,0,0-1.11.29,2.19,2.19,0,0,0-.8.85,2.87,2.87,0,0,0-.3,1.36,2.81,2.81,0,0,0,.3,1.35,2.08,2.08,0,0,0,1.91,1.15Z"></path><path class="cls-17" d="M195,549.13a2.37,2.37,0,0,1-1.63-.56,1.83,1.83,0,0,1-.62-1.4,1.81,1.81,0,0,1,.62-1.39,2.32,2.32,0,0,1,1.63-.56,2.41,2.41,0,0,1,1.63.53,1.72,1.72,0,0,1,.62,1.36,1.92,1.92,0,0,1-.61,1.45A2.32,2.32,0,0,1,195,549.13Zm-1.84,11.66v-10.5h3.68v10.5Z"></path><path class="cls-17" d="M206.06,550.12a4.88,4.88,0,0,1,2.21.49,3.66,3.66,0,0,1,1.55,1.52,5.45,5.45,0,0,1,.58,2.65v6h-3.68v-5.41a2.44,2.44,0,0,0-.46-1.63,1.62,1.62,0,0,0-1.27-.52,2.14,2.14,0,0,0-1.06.27,1.74,1.74,0,0,0-.76.8,3.16,3.16,0,0,0-.27,1.41v5.08h-3.68v-10.5h3.51v3l-.68-.87a4,4,0,0,1,1.65-1.71A4.82,4.82,0,0,1,206.06,550.12Z"></path><path class="cls-17" d="M218.34,561a7.1,7.1,0,0,1-3.25-.7,5.4,5.4,0,0,1-2.15-1.94,5.18,5.18,0,0,1-.76-2.8,5.35,5.35,0,0,1,.74-2.8A5.18,5.18,0,0,1,215,550.8a6.73,6.73,0,0,1,5.79,0,4.83,4.83,0,0,1,2,1.85,5.54,5.54,0,0,1,.76,3c0,.13,0,.28,0,.44s0,.33,0,.47H215.2v-1.94h6.35l-1.39.54a2.51,2.51,0,0,0-.26-1.23,2.12,2.12,0,0,0-.78-.82,2.43,2.43,0,0,0-2.3,0,2,2,0,0,0-.77.82,2.77,2.77,0,0,0-.27,1.25v.57a2.67,2.67,0,0,0,.32,1.33,2.07,2.07,0,0,0,.92.86,3.17,3.17,0,0,0,1.43.3,3.53,3.53,0,0,0,1.33-.22,4,4,0,0,0,1.09-.69l1.94,2a4.89,4.89,0,0,1-1.86,1.27A7.14,7.14,0,0,1,218.34,561Z"></path><path class="cls-17" d="M229.08,561a10.76,10.76,0,0,1-2.6-.31,7.08,7.08,0,0,1-2-.77l1.1-2.52a6.73,6.73,0,0,0,1.72.71,7.79,7.79,0,0,0,1.94.26,3,3,0,0,0,1.29-.2.57.57,0,0,0,.36-.52.48.48,0,0,0-.34-.45,3.79,3.79,0,0,0-.89-.23l-1.21-.17c-.44-.07-.88-.15-1.33-.26a4.26,4.26,0,0,1-1.22-.51,2.43,2.43,0,0,1-.88-.92,3.18,3.18,0,0,1,.26-3.26,4,4,0,0,1,1.73-1.24,7.7,7.7,0,0,1,2.79-.45,11.49,11.49,0,0,1,2.24.22,6.2,6.2,0,0,1,1.91.67l-1.11,2.5a5.16,5.16,0,0,0-1.55-.61,7,7,0,0,0-1.47-.17,2.86,2.86,0,0,0-1.3.21.62.62,0,0,0-.38.53.52.52,0,0,0,.33.47,3.11,3.11,0,0,0,.88.25l1.21.18a10.26,10.26,0,0,1,1.32.26,4.83,4.83,0,0,1,1.23.51,2.65,2.65,0,0,1,.88.91,2.89,2.89,0,0,1,.33,1.46,2.79,2.79,0,0,1-.6,1.75,4,4,0,0,1-1.74,1.24A7.68,7.68,0,0,1,229.08,561Z"></path><path class="cls-17" d="M108.5,585.27V571.76h6.06a4.9,4.9,0,0,1,2.52.56,3.24,3.24,0,0,1,1.33,1.37,3.59,3.59,0,0,1,.41,1.65,3.13,3.13,0,0,1-.55,2,3.43,3.43,0,0,1-1.26,1,4.29,4.29,0,0,1,1.15.58,3.14,3.14,0,0,1,1,1.07,3.33,3.33,0,0,1,.39,1.69,3.24,3.24,0,0,1-1.16,2.53,5.06,5.06,0,0,1-3.45,1ZM110,577.8h4.53a3.75,3.75,0,0,0,1.34-.24,2.27,2.27,0,0,0,1-.77,2.21,2.21,0,0,0,.38-1.33,2.38,2.38,0,0,0-.25-1.08,2,2,0,0,0-.82-.84,2.93,2.93,0,0,0-1.5-.33H110Zm0,6h5a3.48,3.48,0,0,0,2.15-.58,1.94,1.94,0,0,0,.77-1.64,2.29,2.29,0,0,0-.74-1.68,3.2,3.2,0,0,0-2.34-.73H110Z"></path><path class="cls-17" d="M121.62,573.36v-2h1.65v2Zm.06,11.91v-10.2h1.53v10.2Z"></path><path class="cls-17" d="M129.58,585.43a5.46,5.46,0,0,1-2.38-.46,3.66,3.66,0,0,1-1.48-1.24,3.34,3.34,0,0,1-.57-1.66h1.59a2.38,2.38,0,0,0,.36,1,2,2,0,0,0,.9.77,3.65,3.65,0,0,0,1.6.3,5.86,5.86,0,0,0,.75-.06,3.72,3.72,0,0,0,.87-.23,1.74,1.74,0,0,0,.7-.49,1.2,1.2,0,0,0,.29-.83,1.15,1.15,0,0,0-.49-1,3.83,3.83,0,0,0-1.27-.54c-.51-.13-1.06-.26-1.64-.38a10.11,10.11,0,0,1-1.64-.48,3.28,3.28,0,0,1-1.27-.84,2.15,2.15,0,0,1-.49-1.48,2.55,2.55,0,0,1,1-2.15,4.92,4.92,0,0,1,3-.76,5.14,5.14,0,0,1,2.2.41,3.2,3.2,0,0,1,1.28,1.08,3,3,0,0,1,.52,1.4h-1.55a1.71,1.71,0,0,0-.64-1.12,2.92,2.92,0,0,0-1.85-.47q-2.43,0-2.43,1.47a1.08,1.08,0,0,0,.49.94,4,4,0,0,0,1.27.52c.51.13,1.06.25,1.64.37A8.44,8.44,0,0,1,132,580a3.21,3.21,0,0,1,1.27.86,2.27,2.27,0,0,1,.49,1.52,2.6,2.6,0,0,1-1.13,2.28A5.28,5.28,0,0,1,129.58,585.43Z"></path><path class="cls-17" d="M140.08,585.43a4.88,4.88,0,0,1-2.65-.7,4.72,4.72,0,0,1-1.74-1.91,5.91,5.91,0,0,1,0-5.31,4.76,4.76,0,0,1,1.74-1.9,4.88,4.88,0,0,1,2.65-.7,5.1,5.1,0,0,1,3.09.93,4.64,4.64,0,0,1,1.73,2.43h-1.66a3.19,3.19,0,0,0-1.11-1.43,3.11,3.11,0,0,0-1.84-.55,3.53,3.53,0,0,0-3.25,1.94,4.39,4.39,0,0,0,0,3.87,3.52,3.52,0,0,0,3.25,1.95,3.11,3.11,0,0,0,1.84-.55,3.19,3.19,0,0,0,1.11-1.43h1.66a4.64,4.64,0,0,1-1.73,2.43A5.1,5.1,0,0,1,140.08,585.43Z"></path><path class="cls-17" d="M150.77,585.43a4,4,0,0,1-2-.5,3.73,3.73,0,0,1-1.52-1.48,4.74,4.74,0,0,1-.59-2.44v-5.94h1.53V581a3.09,3.09,0,0,0,.81,2.23,2.73,2.73,0,0,0,2.05.85,3,3,0,0,0,2.66-1.49,3,3,0,0,0,.42-1.61v-5.88h1.53v10.2h-1.53v-1.59a4.85,4.85,0,0,1-1.35,1.24A3.72,3.72,0,0,1,150.77,585.43Z"></path><path class="cls-17" d="M158.28,573.36v-2h1.66v2Zm.06,11.91v-10.2h1.53v10.2Z"></path><path class="cls-17" d="M163.63,585.27v-8.85h-2.08v-1.35h2.08v-3.65h1.53v3.65h2.34v1.35h-2.34v8.85Z"></path><path class="cls-17" d="M172.89,585.43a5.49,5.49,0,0,1-2.38-.46,3.73,3.73,0,0,1-1.48-1.24,3.34,3.34,0,0,1-.57-1.66h1.59a2.53,2.53,0,0,0,.36,1,2.06,2.06,0,0,0,.91.77,3.64,3.64,0,0,0,1.59.3,6,6,0,0,0,.76-.06,3.64,3.64,0,0,0,.86-.23,1.78,1.78,0,0,0,.71-.49,1.19,1.19,0,0,0,.28-.83,1.12,1.12,0,0,0-.49-1,3.77,3.77,0,0,0-1.26-.54c-.52-.13-1.07-.26-1.64-.38a10.53,10.53,0,0,1-1.65-.48,3.25,3.25,0,0,1-1.26-.84,2.1,2.1,0,0,1-.49-1.48,2.55,2.55,0,0,1,1-2.15,4.9,4.9,0,0,1,3-.76,5.06,5.06,0,0,1,2.19.41,3.24,3.24,0,0,1,1.29,1.08,3.14,3.14,0,0,1,.52,1.4h-1.55a1.72,1.72,0,0,0-.65-1.12,2.88,2.88,0,0,0-1.84-.47q-2.43,0-2.43,1.47a1.06,1.06,0,0,0,.49.94,4,4,0,0,0,1.26.52c.52.13,1.07.25,1.65.37a8.87,8.87,0,0,1,1.64.48,3.11,3.11,0,0,1,1.26.86,2.22,2.22,0,0,1,.49,1.52,2.58,2.58,0,0,1-1.13,2.28A5.23,5.23,0,0,1,172.89,585.43Z"></path><path class="cls-17" d="M177.91,587.54l1.18-4.35h2l-1.79,4.35Z"></path><path class="cls-17" d="M193.84,585.43a6.34,6.34,0,0,1-3.48-.92,6.19,6.19,0,0,1-2.26-2.5,8.2,8.2,0,0,1,0-7,6.13,6.13,0,0,1,2.26-2.5,6.35,6.35,0,0,1,3.48-.93,6.8,6.8,0,0,1,2.76.54,6.25,6.25,0,0,1,2.08,1.48A6.13,6.13,0,0,1,200,575.8h-1.61a4.16,4.16,0,0,0-1.61-2,4.88,4.88,0,0,0-2.77-.74,5.17,5.17,0,0,0-2.79.72,4.68,4.68,0,0,0-1.74,2,6.7,6.7,0,0,0,0,5.5,4.53,4.53,0,0,0,1.74,2A5.17,5.17,0,0,0,194,584a4.88,4.88,0,0,0,2.77-.74,4.23,4.23,0,0,0,1.61-2H200a6.17,6.17,0,0,1-1.28,2.17,6,6,0,0,1-2.08,1.49A6.8,6.8,0,0,1,193.84,585.43Z"></path><path class="cls-17" d="M206.35,585.43a5,5,0,0,1-2.69-.7,4.7,4.7,0,0,1-1.76-1.91,6.08,6.08,0,0,1,0-5.31,4.74,4.74,0,0,1,1.76-1.9,5.54,5.54,0,0,1,5.39,0,4.71,4.71,0,0,1,1.75,1.9,6.08,6.08,0,0,1,0,5.31,4.68,4.68,0,0,1-1.75,1.91A5,5,0,0,1,206.35,585.43Zm0-1.38a3.4,3.4,0,0,0,1.93-.53,3.44,3.44,0,0,0,1.19-1.42,4.77,4.77,0,0,0,0-3.87,3.47,3.47,0,0,0-1.19-1.41,3.44,3.44,0,0,0-5.05,1.41,4.77,4.77,0,0,0,0,3.87,3.26,3.26,0,0,0,3.12,1.95Z"></path><path class="cls-17" d="M214.12,585.27v-8.85h-1.75v-1.35h1.75v-.9a3.07,3.07,0,0,1,1-2.51,4.17,4.17,0,0,1,2.76-.83H218v1.44h-.2a2.36,2.36,0,0,0-1.61.48,1.94,1.94,0,0,0-.55,1.54v.78h4.53v-.9a3.06,3.06,0,0,1,1-2.51,4.17,4.17,0,0,1,2.76-.83h.12v1.44h-.2a2.36,2.36,0,0,0-1.61.48,1.94,1.94,0,0,0-.55,1.54v.78h2.36v1.35h-2.36v8.85h-1.53v-8.85h-4.53v8.85Z"></path><path class="cls-17" d="M230.08,585.43a5.11,5.11,0,0,1-2.71-.7,4.82,4.82,0,0,1-1.81-1.91,5.49,5.49,0,0,1-.64-2.65,5.69,5.69,0,0,1,.61-2.66,4.71,4.71,0,0,1,1.75-1.9,5.05,5.05,0,0,1,2.7-.7,5,5,0,0,1,2.7.7,4.71,4.71,0,0,1,1.75,1.9,5.82,5.82,0,0,1,.61,2.66v.61h-8.55a4,4,0,0,0,.58,1.64,3.37,3.37,0,0,0,1.24,1.19,3.57,3.57,0,0,0,1.79.44,3.27,3.27,0,0,0,1.82-.48,3.31,3.31,0,0,0,1.14-1.24h1.67a5,5,0,0,1-1.68,2.24A4.8,4.8,0,0,1,230.08,585.43Zm-3.57-6.08h6.94a3.82,3.82,0,0,0-1.11-2.18,3.6,3.6,0,0,0-4.72,0A3.94,3.94,0,0,0,226.51,579.35Z"></path><path class="cls-17" d="M241.44,585.43a5.14,5.14,0,0,1-2.71-.7,4.89,4.89,0,0,1-1.81-1.91,5.61,5.61,0,0,1-.64-2.65,5.82,5.82,0,0,1,.61-2.66,4.74,4.74,0,0,1,1.76-1.9,5.56,5.56,0,0,1,5.4,0,4.76,4.76,0,0,1,1.74,1.9,5.69,5.69,0,0,1,.61,2.66v.61h-8.55a4.19,4.19,0,0,0,.59,1.64,3.27,3.27,0,0,0,1.23,1.19,3.6,3.6,0,0,0,1.79.44,3.24,3.24,0,0,0,1.82-.48,3.31,3.31,0,0,0,1.14-1.24h1.68a5.09,5.09,0,0,1-1.69,2.24A4.78,4.78,0,0,1,241.44,585.43Zm-3.57-6.08h6.94a3.8,3.8,0,0,0-1.1-2.18,3.27,3.27,0,0,0-2.37-.88,3.21,3.21,0,0,0-2.35.88A3.89,3.89,0,0,0,237.87,579.35Z"></path><path class="cls-17" d="M152.94,609.76V596.25h1.77l4.84,6.41,4.75-6.41h1.78v13.51h-1.53V598.57l-5,6.43-5.08-6.43v11.19Z"></path><path class="cls-17" d="M169,597.84v-2h1.66v2Zm.07,11.92V599.55h1.53v10.21Z"></path><path class="cls-17" d="M172,609.76l3.94-5.27-3.69-4.94h2l2.63,3.86,2.61-3.86h2l-3.69,4.94,3.95,5.27h-1.95l-2.88-4.17-2.9,4.17Z"></path><path class="cls-17" d="M187.17,609.92a5.21,5.21,0,0,1-2.71-.7,4.89,4.89,0,0,1-1.81-1.91,6,6,0,0,1,0-5.32,4.8,4.8,0,0,1,1.76-1.9,5.54,5.54,0,0,1,5.39,0,4.78,4.78,0,0,1,1.75,1.9,5.72,5.72,0,0,1,.61,2.66v.62h-8.55a4.23,4.23,0,0,0,.58,1.64,3.35,3.35,0,0,0,1.24,1.18,3.57,3.57,0,0,0,1.79.44,3.27,3.27,0,0,0,1.82-.48,3.36,3.36,0,0,0,1.14-1.23h1.67a5,5,0,0,1-1.68,2.23A4.8,4.8,0,0,1,187.17,609.92Zm-3.57-6.08h6.94a3.77,3.77,0,0,0-1.1-2.18,3.62,3.62,0,0,0-4.73,0A3.91,3.91,0,0,0,183.6,603.84Z"></path><path class="cls-17" d="M197.72,609.92a5.49,5.49,0,0,1-2.38-.47,3.71,3.71,0,0,1-1.48-1.23,3.37,3.37,0,0,1-.57-1.67h1.59a2.53,2.53,0,0,0,.36,1,2.14,2.14,0,0,0,.91.78,3.8,3.8,0,0,0,1.59.29,5.86,5.86,0,0,0,.76-.06,3.62,3.62,0,0,0,.86-.22,1.88,1.88,0,0,0,.71-.49,1.24,1.24,0,0,0,.28-.84,1.12,1.12,0,0,0-.49-1,3.77,3.77,0,0,0-1.26-.54L197,605.1a10.53,10.53,0,0,1-1.65-.48,3.12,3.12,0,0,1-1.26-.83,2.12,2.12,0,0,1-.49-1.48,2.54,2.54,0,0,1,1-2.15,6.07,6.07,0,0,1,5.18-.35,3.22,3.22,0,0,1,1.29,1.07,3.18,3.18,0,0,1,.52,1.41H200a1.7,1.7,0,0,0-.65-1.12,2.82,2.82,0,0,0-1.84-.47q-2.43,0-2.43,1.47a1,1,0,0,0,.49.93,3.86,3.86,0,0,0,1.26.52c.52.13,1.07.26,1.65.37a10.73,10.73,0,0,1,1.64.48,3,3,0,0,1,1.26.87,2.21,2.21,0,0,1,.49,1.52,2.57,2.57,0,0,1-1.13,2.27A5.16,5.16,0,0,1,197.72,609.92Z"></path><path class="cls-17" d="M138.49,656.23l-5.79-13.55h4.14l4.88,11.73h-2.44l5-11.73h3.79l-5.81,13.55Z"></path><path class="cls-17" d="M150.82,644.58a2.29,2.29,0,0,1-1.62-.57,1.87,1.87,0,0,1,0-2.78,2.29,2.29,0,0,1,1.62-.57,2.39,2.39,0,0,1,1.63.54,1.72,1.72,0,0,1,.62,1.36,1.91,1.91,0,0,1-.61,1.45A2.31,2.31,0,0,1,150.82,644.58ZM149,656.23V645.74h3.68v10.49Z"></path><path class="cls-17" d="M160.55,656.41a7.08,7.08,0,0,1-3.25-.71,5.31,5.31,0,0,1-2.15-1.93,5.2,5.2,0,0,1-.76-2.8,5.35,5.35,0,0,1,.74-2.8,5.18,5.18,0,0,1,2.07-1.92,6.24,6.24,0,0,1,3-.69,6.35,6.35,0,0,1,2.83.63,4.9,4.9,0,0,1,2,1.85,5.57,5.57,0,0,1,.75,3,3.63,3.63,0,0,1,0,.44c0,.17,0,.32,0,.47h-8.31V650h6.35l-1.39.54a2.44,2.44,0,0,0-.27-1.24,1.94,1.94,0,0,0-.77-.81,2.26,2.26,0,0,0-1.15-.29,2.23,2.23,0,0,0-1.15.29,2,2,0,0,0-.77.82,2.74,2.74,0,0,0-.27,1.25v.56a2.71,2.71,0,0,0,.32,1.34,2.13,2.13,0,0,0,.92.86,3.17,3.17,0,0,0,1.43.3,3.53,3.53,0,0,0,1.33-.22,4,4,0,0,0,1.09-.69l1.94,2a4.87,4.87,0,0,1-1.86,1.26A7.13,7.13,0,0,1,160.55,656.41Z"></path><path class="cls-17" d="M166.37,648.88v-2.75H174v2.75Zm5.8,7.53a4.54,4.54,0,0,1-3.14-1,3.81,3.81,0,0,1-1.12-3v-9h3.67v9a1.22,1.22,0,0,0,.31.88,1.06,1.06,0,0,0,.8.32,1.88,1.88,0,0,0,1.12-.33l.91,2.58a3.09,3.09,0,0,1-1.14.45A6.48,6.48,0,0,1,172.17,656.41Z"></path><path class="cls-17" d="M183,645.56a4.89,4.89,0,0,1,2.21.5,3.57,3.57,0,0,1,1.56,1.52,5.42,5.42,0,0,1,.57,2.65v6h-3.68v-5.4a2.37,2.37,0,0,0-.46-1.63,1.57,1.57,0,0,0-1.26-.52,2.26,2.26,0,0,0-1.07.26,1.85,1.85,0,0,0-.75.81,3.16,3.16,0,0,0-.27,1.41v5.07h-3.68V645.74h3.5v3l-.68-.87a4.09,4.09,0,0,1,1.65-1.72A4.85,4.85,0,0,1,183,645.56Z"></path><path class="cls-17" d="M192.93,656.41a4.73,4.73,0,0,1-2.13-.43,3,3,0,0,1-1.33-1.16,3.1,3.1,0,0,1-.46-1.65,2.84,2.84,0,0,1,.5-1.67,3,3,0,0,1,1.52-1.08,7.59,7.59,0,0,1,2.65-.38h2.48V652h-2a2,2,0,0,0-1.25.29.93.93,0,0,0-.36.77,1,1,0,0,0,.37.78,1.59,1.59,0,0,0,1,.29,2.09,2.09,0,0,0,1.1-.3,1.73,1.73,0,0,0,.72-.92l.51,1.35a2.73,2.73,0,0,1-1.14,1.64A4,4,0,0,1,192.93,656.41Zm3.1-.18v-2l-.26-.48v-3.61a1.67,1.67,0,0,0-.53-1.34,2.47,2.47,0,0,0-1.69-.48,5.09,5.09,0,0,0-1.53.24,4.31,4.31,0,0,0-1.32.67l-1.24-2.5a7.49,7.49,0,0,1,2.14-.9,10.12,10.12,0,0,1,2.49-.32,6,6,0,0,1,4,1.18,4.49,4.49,0,0,1,1.4,3.67v5.82Z"></path><path class="cls-17" d="M215.45,645.56a4.7,4.7,0,0,1,2.18.5,3.52,3.52,0,0,1,1.51,1.52,5.55,5.55,0,0,1,.55,2.65v6H216v-5.4a2.48,2.48,0,0,0-.43-1.63,1.4,1.4,0,0,0-1.16-.52,1.92,1.92,0,0,0-.95.25,1.66,1.66,0,0,0-.65.77,3.13,3.13,0,0,0-.24,1.33v5.2H208.9v-5.4a2.62,2.62,0,0,0-.41-1.63,1.41,1.41,0,0,0-1.17-.52,1.85,1.85,0,0,0-1,.25,1.73,1.73,0,0,0-.66.77,3.13,3.13,0,0,0-.24,1.33v5.2h-3.68V645.74h3.5v2.92l-.7-.83a4.09,4.09,0,0,1,1.59-1.7,4.48,4.48,0,0,1,2.25-.57,4.39,4.39,0,0,1,2.49.73,3.6,3.6,0,0,1,1.44,2.26l-1.2-.26a4.42,4.42,0,0,1,1.69-2A4.79,4.79,0,0,1,215.45,645.56Z"></path><path class="cls-17" d="M140.1,680.72V667.21h6.47a4.71,4.71,0,0,1,3.32,1.14,4,4,0,0,1,1.23,3.08,3.85,3.85,0,0,1-.5,2.09,3.41,3.41,0,0,1-1.25,1.17,6.88,6.88,0,0,1-1.51.58l3.55,5.45h-1.82l-3.26-5.18h-4.7v5.18Zm1.53-6.63h4.68a5.18,5.18,0,0,0,1.48-.23,2.77,2.77,0,0,0,1.28-.8,2.35,2.35,0,0,0,.52-1.63,2.49,2.49,0,0,0-.88-2,3.44,3.44,0,0,0-2.32-.75h-4.76Z"></path><path class="cls-17" d="M157.1,680.72V668.66h-4.71v-1.45h11v1.45h-4.71v12.06Z"></path><path class="cls-17" d="M165.28,680.72V667.21H171a6,6,0,0,1,2.32.46,6.13,6.13,0,0,1,2,1.34,6.38,6.38,0,0,1,1.38,2.12,8.13,8.13,0,0,1,0,5.67,6.38,6.38,0,0,1-1.38,2.12,6.13,6.13,0,0,1-2,1.34,6,6,0,0,1-2.32.46Zm1.53-1.45h4.1a4.29,4.29,0,0,0,2.51-.73,4.84,4.84,0,0,0,1.64-1.94,5.93,5.93,0,0,0,.58-2.63,6,6,0,0,0-.58-2.66,4.81,4.81,0,0,0-1.64-1.93,4.36,4.36,0,0,0-2.51-.72h-4.1Z"></path><path class="cls-17" d="M187.31,680.72V668.66H182.6v-1.45h11v1.45h-4.72v12.06Z"></path><path class="cls-17" d="M197.7,680.88a5.11,5.11,0,0,1-2.71-.7,4.89,4.89,0,0,1-1.81-1.91,5.52,5.52,0,0,1-.64-2.65,5.69,5.69,0,0,1,.61-2.66,4.71,4.71,0,0,1,1.75-1.9,5.49,5.49,0,0,1,5.4,0A4.62,4.62,0,0,1,202,673a5.7,5.7,0,0,1,.62,2.66v.61h-8.55a4,4,0,0,0,.58,1.64,3.51,3.51,0,0,0,1.23,1.19,3.63,3.63,0,0,0,1.8.43,3.19,3.19,0,0,0,1.82-.48,3.28,3.28,0,0,0,1.14-1.23h1.67a4.91,4.91,0,0,1-1.68,2.23A4.8,4.8,0,0,1,197.7,680.88Zm-3.57-6.08h6.94a3.78,3.78,0,0,0-1.11-2.18,3.6,3.6,0,0,0-4.72,0A3.91,3.91,0,0,0,194.13,674.8Z"></path><path class="cls-17" d="M208.84,680.88a4.75,4.75,0,0,1-2.6-.7,4.84,4.84,0,0,1-1.73-1.91,6.08,6.08,0,0,1,0-5.31,4.81,4.81,0,0,1,1.73-1.9,4.76,4.76,0,0,1,2.6-.71,4.57,4.57,0,0,1,2.17.49,4.12,4.12,0,0,1,1.48,1.33v-1.65H214v10.2h-1.53v-1.63a4.14,4.14,0,0,1-1.48,1.3A4.46,4.46,0,0,1,208.84,680.88Zm.2-1.39a3.24,3.24,0,0,0,3.12-1.94,4.49,4.49,0,0,0,.41-1.93,4.41,4.41,0,0,0-.41-1.94,3.24,3.24,0,0,0-3.12-1.94,3.41,3.41,0,0,0-3.18,1.94,4.28,4.28,0,0,0-.43,1.94,4.36,4.36,0,0,0,.43,1.93,3.41,3.41,0,0,0,3.18,1.94Z"></path><rect class="cls-18" x="448.8" y="640.04" width="24.47" height="79.34"></rect><rect class="cls-19" x="352.88" y="231.7" width="216.31" height="431.51"></rect><rect class="cls-20" x="326.7" y="222.2" width="268.67" height="34.57" rx="9.73"></rect><rect class="cls-21" x="340.02" y="212.6" width="242.03" height="53.77" rx="11.52"></rect><path class="cls-17" d="M395.45,356.17V340.41h7.2a9,9,0,0,1,3.72.7,5.56,5.56,0,0,1,2.43,2,5.69,5.69,0,0,1,.85,3.12,5.28,5.28,0,0,1-3.28,5.1,9,9,0,0,1-3.72.71h-4.73l2-1.94v6.06Zm4.45-5.58-2-2h4.46a3,3,0,0,0,2.08-.61,2.13,2.13,0,0,0,.69-1.69,2.17,2.17,0,0,0-.69-1.71,3.09,3.09,0,0,0-2.08-.61h-4.46l2-2Z"></path><path class="cls-17" d="M419.78,343.77a5.71,5.71,0,0,1,2.57.57,4.17,4.17,0,0,1,1.81,1.77,6.31,6.31,0,0,1,.66,3.08v7h-4.27v-6.28A2.84,2.84,0,0,0,420,348a1.89,1.89,0,0,0-1.48-.6,2.61,2.61,0,0,0-1.24.3,2.15,2.15,0,0,0-.87.94,3.68,3.68,0,0,0-.32,1.64v5.9h-4.28v-16.7h4.28v8l-1-1a4.71,4.71,0,0,1,1.91-2A5.68,5.68,0,0,1,419.78,343.77Z"></path><path class="cls-17" d="M429.64,342.62a2.73,2.73,0,0,1-1.89-.65,2.19,2.19,0,0,1,0-3.25,2.73,2.73,0,0,1,1.89-.65,2.81,2.81,0,0,1,1.89.62,2,2,0,0,1,.72,1.59,2.16,2.16,0,0,1-.71,1.67A2.62,2.62,0,0,1,429.64,342.62Zm-2.14,13.55V344h4.28v12.2Z"></path><path class="cls-17" d="M434.55,356.17v-16.7h4.28v16.7Z"></path><path class="cls-17" d="M443.73,342.62a2.73,2.73,0,0,1-1.89-.65,2.19,2.19,0,0,1,0-3.25,2.73,2.73,0,0,1,1.89-.65,2.81,2.81,0,0,1,1.89.62,2,2,0,0,1,.72,1.59,2.19,2.19,0,0,1-.7,1.67A2.67,2.67,0,0,1,443.73,342.62Zm-2.14,13.55V344h4.28v12.2Z"></path><path class="cls-17" d="M448.64,360.54V344h4.08V346l0,4,.23,4.05v6.42Zm7.68-4.17a5,5,0,0,1-2.66-.68,4.37,4.37,0,0,1-1.68-2.07,9.46,9.46,0,0,1-.57-3.55,9.94,9.94,0,0,1,.54-3.57,4.06,4.06,0,0,1,1.63-2.06,5.13,5.13,0,0,1,2.74-.67,6,6,0,0,1,3,.77,5.78,5.78,0,0,1,2.17,2.19,7.39,7.39,0,0,1,0,6.69,5.64,5.64,0,0,1-2.17,2.19A6,6,0,0,1,456.32,356.37Zm-.9-3.4a2.38,2.38,0,0,0,2.21-1.32,3.74,3.74,0,0,0,0-3.16,2.38,2.38,0,0,0-2.21-1.32,2.56,2.56,0,0,0-1.3.33,2.52,2.52,0,0,0-.92,1,3.74,3.74,0,0,0,0,3.16,2.52,2.52,0,0,0,.92,1A2.56,2.56,0,0,0,455.42,353Z"></path><path class="cls-17" d="M464.29,360.54V344h4.07V346l0,4,.22,4.05v6.42Zm7.67-4.17a5,5,0,0,1-2.65-.68,4.26,4.26,0,0,1-1.68-2.07,9.46,9.46,0,0,1-.57-3.55,9.94,9.94,0,0,1,.54-3.57,4.06,4.06,0,0,1,1.63-2.06,5.09,5.09,0,0,1,2.73-.67,6.09,6.09,0,0,1,3,.77,5.68,5.68,0,0,1,2.16,2.19,7.39,7.39,0,0,1,0,6.69,5.55,5.55,0,0,1-2.16,2.19A6.09,6.09,0,0,1,472,356.37Zm-.9-3.4a2.59,2.59,0,0,0,1.3-.33,2.52,2.52,0,0,0,.92-1,3.74,3.74,0,0,0,0-3.16,2.52,2.52,0,0,0-.92-1,2.59,2.59,0,0,0-1.3-.33,2.41,2.41,0,0,0-2.22,1.32,3.84,3.84,0,0,0,0,3.16,2.41,2.41,0,0,0,2.22,1.32Z"></path><path class="cls-17" d="M482.07,342.62a2.73,2.73,0,0,1-1.89-.65,2.19,2.19,0,0,1,0-3.25,2.73,2.73,0,0,1,1.89-.65,2.81,2.81,0,0,1,1.89.62,2,2,0,0,1,.72,1.59A2.16,2.16,0,0,1,484,342,2.62,2.62,0,0,1,482.07,342.62Zm-2.14,13.55V344h4.28v12.2Z"></path><path class="cls-17" d="M494.92,343.77a5.68,5.68,0,0,1,2.57.57,4.12,4.12,0,0,1,1.81,1.77,6.3,6.3,0,0,1,.67,3.08v7h-4.28v-6.28a2.84,2.84,0,0,0-.53-1.9,1.85,1.85,0,0,0-1.47-.6,2.58,2.58,0,0,0-1.24.3,2.11,2.11,0,0,0-.88.94,3.68,3.68,0,0,0-.32,1.64v5.9H487V344h4.07v3.47l-.79-1a4.73,4.73,0,0,1,1.92-2A5.64,5.64,0,0,1,494.92,343.77Z"></path><path class="cls-17" d="M509.2,356.37a8.15,8.15,0,0,1-3.77-.82,6.15,6.15,0,0,1-2.5-2.25,6,6,0,0,1-.89-3.25,6.25,6.25,0,0,1,.86-3.26,6,6,0,0,1,2.4-2.22,7.79,7.79,0,0,1,6.73-.07,5.71,5.71,0,0,1,2.37,2.15,6.44,6.44,0,0,1,.87,3.44,5,5,0,0,1,0,.52c0,.2,0,.38,0,.54h-9.66V348.9h7.38l-1.62.63a2.74,2.74,0,0,0-.3-1.44,2.42,2.42,0,0,0-.9-.95,2.89,2.89,0,0,0-2.68,0,2.36,2.36,0,0,0-.89,1,3.16,3.16,0,0,0-.32,1.45v.65a3.08,3.08,0,0,0,.38,1.56,2.44,2.44,0,0,0,1.06,1,3.77,3.77,0,0,0,1.67.35,4.13,4.13,0,0,0,1.54-.26,4.73,4.73,0,0,0,1.28-.8l2.25,2.34a5.75,5.75,0,0,1-2.16,1.48A8.46,8.46,0,0,1,509.2,356.37Z"></path><path class="cls-17" d="M521.69,356.37a12.81,12.81,0,0,1-3-.36,8.64,8.64,0,0,1-2.37-.9l1.28-2.92a8.12,8.12,0,0,0,2,.82,9,9,0,0,0,2.26.3,3.45,3.45,0,0,0,1.49-.22.69.69,0,0,0,.42-.61.56.56,0,0,0-.39-.53,4.36,4.36,0,0,0-1-.26l-1.41-.2c-.51-.08-1-.18-1.54-.31a4.82,4.82,0,0,1-1.42-.58,2.84,2.84,0,0,1-1-1.07,3.38,3.38,0,0,1-.38-1.71,3.33,3.33,0,0,1,.68-2.08,4.52,4.52,0,0,1,2-1.44,8.59,8.59,0,0,1,3.24-.53,13,13,0,0,1,2.6.26,7.31,7.31,0,0,1,2.22.77L526,347.71a5.87,5.87,0,0,0-1.8-.71,8.06,8.06,0,0,0-1.71-.19,3.42,3.42,0,0,0-1.52.24.73.73,0,0,0-.44.61.6.6,0,0,0,.39.55,3.2,3.2,0,0,0,1,.29l1.41.21a14.41,14.41,0,0,1,1.54.3,5.47,5.47,0,0,1,1.42.6,2.88,2.88,0,0,1,1,1.06,3.32,3.32,0,0,1,.38,1.7,3.28,3.28,0,0,1-.68,2,4.71,4.71,0,0,1-2,1.44A8.91,8.91,0,0,1,521.69,356.37Z"></path><path class="cls-17" d="M375.53,384.82a9.59,9.59,0,0,1-3.77-.63,4.84,4.84,0,0,1-2.17-1.74,5.39,5.39,0,0,1-.84-2.51h1.85a2.76,2.76,0,0,0,.76,1.83,4,4,0,0,0,1.82,1,8.38,8.38,0,0,0,2.47.34,6.19,6.19,0,0,0,3.16-.7,2.29,2.29,0,0,0,1.16-2.08,1.69,1.69,0,0,0-.58-1.34,4.58,4.58,0,0,0-1.54-.84q-1-.33-2.1-.6c-.76-.19-1.52-.38-2.29-.59a10.72,10.72,0,0,1-2.11-.78,4.3,4.3,0,0,1-1.54-1.22,3,3,0,0,1-.58-1.91,3.85,3.85,0,0,1,1.48-3.13,6.85,6.85,0,0,1,4.42-1.21,8.16,8.16,0,0,1,3.44.63,4.78,4.78,0,0,1,2,1.65,4.43,4.43,0,0,1,.75,2.2h-1.83a2.92,2.92,0,0,0-1.19-2,5.11,5.11,0,0,0-3.2-.82,7.58,7.58,0,0,0-2.16.26,3.37,3.37,0,0,0-1.27.68,2.11,2.11,0,0,0-.59.86,2.73,2.73,0,0,0-.15.86,1.58,1.58,0,0,0,.58,1.27,4.73,4.73,0,0,0,1.54.8,19.5,19.5,0,0,0,2.12.58c.78.18,1.55.37,2.32.58a12.5,12.5,0,0,1,2.11.81,4.35,4.35,0,0,1,1.54,1.25,3.07,3.07,0,0,1,.58,1.94,3.86,3.86,0,0,1-1.66,3.36A7.81,7.81,0,0,1,375.53,384.82Z"></path><path class="cls-17" d="M384.12,384.63V372.77h1.78v1.85a6,6,0,0,1,1.56-1.44,4.31,4.31,0,0,1,2.38-.6,4.89,4.89,0,0,1,2.31.58,4.54,4.54,0,0,1,1.75,1.73,5.55,5.55,0,0,1,.68,2.84v6.9H392.8v-6.85a3.67,3.67,0,0,0-.92-2.6,3.14,3.14,0,0,0-2.4-1,3.64,3.64,0,0,0-1.8.45,3.39,3.39,0,0,0-1.29,1.26,3.6,3.6,0,0,0-.49,1.89v6.83Z"></path><path class="cls-17" d="M402.55,384.82a5.46,5.46,0,0,1-3-.82,5.4,5.4,0,0,1-2-2.22,7.06,7.06,0,0,1,0-6.17,5.46,5.46,0,0,1,5-3,5.21,5.21,0,0,1,2.52.57,4.82,4.82,0,0,1,1.72,1.54v-1.92h1.78v11.86h-1.78v-1.9a4.77,4.77,0,0,1-1.72,1.52A5.21,5.21,0,0,1,402.55,384.82Zm.24-1.61a3.93,3.93,0,0,0,2.24-.62,3.84,3.84,0,0,0,1.38-1.65,5.49,5.49,0,0,0,0-4.49,3.87,3.87,0,0,0-1.38-1.64,3.93,3.93,0,0,0-2.24-.61,4.06,4.06,0,0,0-2.26.61,4,4,0,0,0-1.44,1.64,5.29,5.29,0,0,0,0,4.49,4,4,0,0,0,1.44,1.65A4.07,4.07,0,0,0,402.79,383.21Z"></path><path class="cls-17" d="M416.75,384.82a5.65,5.65,0,0,1-3.08-.82,5.58,5.58,0,0,1-2-2.22,7,7,0,0,1,0-6.17,5.52,5.52,0,0,1,5.11-3,6,6,0,0,1,3.6,1.09,5.34,5.34,0,0,1,2,2.83h-1.92a3.65,3.65,0,0,0-1.29-1.66,3.56,3.56,0,0,0-2.15-.64,4.08,4.08,0,0,0-3.77,2.25,5.11,5.11,0,0,0,0,4.49,4.1,4.1,0,0,0,3.77,2.27,3.62,3.62,0,0,0,2.15-.64,3.7,3.7,0,0,0,1.29-1.66h1.92a5.35,5.35,0,0,1-2,2.82A5.89,5.89,0,0,1,416.75,384.82Z"></path><path class="cls-17" d="M424.56,384.63V368h1.78v10.62l5.71-5.88h2.49l-4.76,4.67,5.12,7.19h-2.18l-4.15-5.95-2.23,2.2v3.75Z"></path><path class="cls-17" d="M440.45,384.82a6.28,6.28,0,0,1-2.77-.55,4.13,4.13,0,0,1-1.71-1.43,3.9,3.9,0,0,1-.67-1.93h1.85a2.87,2.87,0,0,0,.42,1.15,2.41,2.41,0,0,0,1.05.9,4.28,4.28,0,0,0,1.85.34,6.27,6.27,0,0,0,.88-.07,4.41,4.41,0,0,0,1-.26,2.25,2.25,0,0,0,.82-.57,1.43,1.43,0,0,0,.33-1,1.32,1.32,0,0,0-.57-1.14,4.34,4.34,0,0,0-1.47-.63c-.6-.15-1.24-.29-1.91-.44a12.46,12.46,0,0,1-1.91-.55,3.76,3.76,0,0,1-1.47-1,2.46,2.46,0,0,1-.57-1.72,3,3,0,0,1,1.17-2.5,5.74,5.74,0,0,1,3.48-.89,5.85,5.85,0,0,1,2.55.49,3.78,3.78,0,0,1,1.49,1.24,3.73,3.73,0,0,1,.61,1.64H443.1a2,2,0,0,0-.74-1.3,3.32,3.32,0,0,0-2.15-.55q-2.82,0-2.82,1.71a1.23,1.23,0,0,0,.57,1.09,4.79,4.79,0,0,0,1.47.6c.6.15,1.23.3,1.91.43a11.44,11.44,0,0,1,1.91.56,3.71,3.71,0,0,1,1.47,1,2.57,2.57,0,0,1,.57,1.76,3,3,0,0,1-1.32,2.65A6.06,6.06,0,0,1,440.45,384.82Z"></path><path class="cls-17" d="M446.28,387.26l1.38-5.05H450l-2.08,5.05Z"></path><path class="cls-17" d="M464.8,384.82a7.42,7.42,0,0,1-4.05-1.08,7.19,7.19,0,0,1-2.62-2.9,9.4,9.4,0,0,1,0-8.11,7.15,7.15,0,0,1,2.62-2.91,7.42,7.42,0,0,1,4.05-1.08,7.86,7.86,0,0,1,3.21.63,7.05,7.05,0,0,1,3.91,4.26h-1.87a4.89,4.89,0,0,0-1.88-2.3,5.68,5.68,0,0,0-3.22-.86,6,6,0,0,0-3.24.84,5.43,5.43,0,0,0-2,2.27,7.74,7.74,0,0,0,0,6.39,5.4,5.4,0,0,0,2,2.28,6,6,0,0,0,3.24.84,5.76,5.76,0,0,0,3.22-.85,5,5,0,0,0,1.88-2.3h1.87a7.38,7.38,0,0,1-1.49,2.52,7.15,7.15,0,0,1-2.42,1.73A7.86,7.86,0,0,1,464.8,384.82Z"></path><path class="cls-17" d="M479.2,384.82a5.45,5.45,0,0,1-5-3,7.06,7.06,0,0,1,0-6.17,5.46,5.46,0,0,1,5-3,5.28,5.28,0,0,1,2.53.57,5,5,0,0,1,1.72,1.54v-1.92h1.77v11.86h-1.77v-1.9a4.94,4.94,0,0,1-1.72,1.52A5.28,5.28,0,0,1,479.2,384.82Zm.24-1.61a3.79,3.79,0,0,0,3.63-2.27,5.6,5.6,0,0,0,0-4.49,3.77,3.77,0,0,0-3.63-2.25,4.09,4.09,0,0,0-2.26.61,4,4,0,0,0-1.44,1.64,5.29,5.29,0,0,0,0,4.49,4,4,0,0,0,1.44,1.65A4.09,4.09,0,0,0,479.44,383.21Z"></path><path class="cls-17" d="M488.31,384.63V372.77h1.78v1.85a5.66,5.66,0,0,1,1.56-1.44,4.3,4.3,0,0,1,2.37-.6,4.86,4.86,0,0,1,2.31.58,4.56,4.56,0,0,1,1.76,1.73,5.55,5.55,0,0,1,.68,2.84v6.9H497v-6.85a3.63,3.63,0,0,0-.93-2.6,3.1,3.1,0,0,0-2.39-1,3.65,3.65,0,0,0-1.81.45,3.54,3.54,0,0,0-1.29,1.26,3.69,3.69,0,0,0-.48,1.89v6.83Z"></path><path class="cls-17" d="M506.74,384.82a5.5,5.5,0,0,1-3-.82,5.44,5.44,0,0,1-2-2.22,7.06,7.06,0,0,1,0-6.17,5.43,5.43,0,0,1,5-3,5.21,5.21,0,0,1,2.52.57,4.91,4.91,0,0,1,1.72,1.54V368h1.78v16.6H511v-1.9a4.85,4.85,0,0,1-1.72,1.52A5.21,5.21,0,0,1,506.74,384.82Zm.23-1.61a3.79,3.79,0,0,0,3.63-2.27,5.6,5.6,0,0,0,0-4.49,4,4,0,0,0-1.39-1.64,3.91,3.91,0,0,0-2.24-.61,3.94,3.94,0,0,0-3.7,2.25,5.29,5.29,0,0,0,0,4.49,4,4,0,0,0,3.7,2.27Z"></path><path class="cls-17" d="M515.77,370.78v-2.32h1.92v2.32Zm.07,13.85V372.77h1.78v11.86Z"></path><path class="cls-17" d="M526,384.82a5.92,5.92,0,0,1-3.15-.82,5.48,5.48,0,0,1-2.1-2.22,6.41,6.41,0,0,1-.75-3.08,6.7,6.7,0,0,1,.71-3.09,5.5,5.5,0,0,1,2-2.21,5.91,5.91,0,0,1,3.13-.82,5.85,5.85,0,0,1,3.14.82,5.47,5.47,0,0,1,2,2.21,6.57,6.57,0,0,1,.71,3.09v.71H521.8a4.79,4.79,0,0,0,.67,1.91,4,4,0,0,0,1.44,1.38,4.14,4.14,0,0,0,2.08.51,3.79,3.79,0,0,0,2.11-.56,3.88,3.88,0,0,0,1.33-1.43h2a5.86,5.86,0,0,1-2,2.59A5.58,5.58,0,0,1,526,384.82Zm-4.15-7.07h8.06a4.34,4.34,0,0,0-1.28-2.53,4.2,4.2,0,0,0-5.49,0A4.47,4.47,0,0,0,521.82,377.75Z"></path><path class="cls-17" d="M538.23,384.82a6.2,6.2,0,0,1-2.76-.55,4.17,4.17,0,0,1-1.72-1.43,3.9,3.9,0,0,1-.67-1.93h1.85a2.87,2.87,0,0,0,.42,1.15,2.44,2.44,0,0,0,1.06.9,4.23,4.23,0,0,0,1.84.34,6.27,6.27,0,0,0,.88-.07,4.28,4.28,0,0,0,1-.26,2.17,2.17,0,0,0,.82-.57,1.43,1.43,0,0,0,.33-1,1.32,1.32,0,0,0-.57-1.14,4.34,4.34,0,0,0-1.47-.63c-.6-.15-1.24-.29-1.91-.44a12.46,12.46,0,0,1-1.91-.55,3.76,3.76,0,0,1-1.47-1,2.46,2.46,0,0,1-.57-1.72,2.94,2.94,0,0,1,1.18-2.5,5.71,5.71,0,0,1,3.47-.89,5.85,5.85,0,0,1,2.55.49,3.71,3.71,0,0,1,1.49,1.24,3.61,3.61,0,0,1,.61,1.64h-1.8a2,2,0,0,0-.75-1.3,3.32,3.32,0,0,0-2.15-.55q-2.82,0-2.82,1.71a1.23,1.23,0,0,0,.57,1.09,4.79,4.79,0,0,0,1.47.6c.6.15,1.24.3,1.91.43a11.44,11.44,0,0,1,1.91.56,3.71,3.71,0,0,1,1.47,1,2.57,2.57,0,0,1,.57,1.76,3,3,0,0,1-1.32,2.65A6,6,0,0,1,538.23,384.82Z"></path><path class="cls-17" d="M544.07,387.26l1.37-5.05h2.33l-2.09,5.05Z"></path><path class="cls-17" d="M404.14,413.28a7.44,7.44,0,0,1-4.06-1.08,7.19,7.19,0,0,1-2.62-2.9,9.49,9.49,0,0,1,0-8.11,7.15,7.15,0,0,1,2.62-2.91,7.44,7.44,0,0,1,4.06-1.08,7.84,7.84,0,0,1,3.2.63,7.05,7.05,0,0,1,3.91,4.26h-1.87a4.94,4.94,0,0,0-1.88-2.3,5.66,5.66,0,0,0-3.22-.86,6,6,0,0,0-3.24.84,5.49,5.49,0,0,0-2,2.27,7.85,7.85,0,0,0,0,6.39,5.4,5.4,0,0,0,2,2.28,6,6,0,0,0,3.24.84,5.65,5.65,0,0,0,3.22-.85,5,5,0,0,0,1.88-2.3h1.87a7.38,7.38,0,0,1-1.49,2.52,7,7,0,0,1-2.42,1.73A7.84,7.84,0,0,1,404.14,413.28Z"></path><path class="cls-17" d="M413.53,413.09v-16.6h1.78v6.59a5.8,5.8,0,0,1,1.56-1.44,4.3,4.3,0,0,1,2.37-.6,4.9,4.9,0,0,1,2.32.58,4.5,4.5,0,0,1,1.75,1.74,5.49,5.49,0,0,1,.68,2.83v6.9h-1.78v-6.85a3.63,3.63,0,0,0-.93-2.6,3.1,3.1,0,0,0-2.39-1,3.59,3.59,0,0,0-1.8.45,3.44,3.44,0,0,0-1.3,1.27,3.63,3.63,0,0,0-.48,1.88v6.83Z"></path><path class="cls-17" d="M432.1,413.28a5.8,5.8,0,0,1-3.13-.82,5.37,5.37,0,0,1-2-2.21,6.69,6.69,0,0,1-.71-3.09,6.57,6.57,0,0,1,.71-3.09,5.43,5.43,0,0,1,2-2.21,6.4,6.4,0,0,1,6.27,0,5.54,5.54,0,0,1,2,2.21,6.7,6.7,0,0,1,.71,3.09,6.81,6.81,0,0,1-.71,3.09,5.48,5.48,0,0,1-2,2.21A5.79,5.79,0,0,1,432.1,413.28Zm0-1.61a3.79,3.79,0,0,0,3.63-2.27,5.6,5.6,0,0,0,0-4.49,4.15,4.15,0,0,0-5.86-1.64,3.92,3.92,0,0,0-1.4,1.64,5.6,5.6,0,0,0,0,4.49,3.88,3.88,0,0,0,1.4,1.65A4,4,0,0,0,432.1,411.67Z"></path><path class="cls-17" d="M445.43,413.28a5.66,5.66,0,0,1-3.09-.82,5.53,5.53,0,0,1-2-2.21,6.58,6.58,0,0,1-.73-3.09,6.47,6.47,0,0,1,.73-3.09,5.59,5.59,0,0,1,2-2.21,5.74,5.74,0,0,1,3.09-.82,6,6,0,0,1,3.59,1.09,5.36,5.36,0,0,1,2,2.83H449.1a3.65,3.65,0,0,0-1.29-1.66,3.56,3.56,0,0,0-2.15-.64,4.08,4.08,0,0,0-3.77,2.25,5.11,5.11,0,0,0,0,4.49,4.1,4.1,0,0,0,3.77,2.27,3.56,3.56,0,0,0,2.15-.64,3.7,3.7,0,0,0,1.29-1.66H451a5.37,5.37,0,0,1-2,2.82A5.88,5.88,0,0,1,445.43,413.28Z"></path><path class="cls-17" d="M458.38,413.28a5.8,5.8,0,0,1-3.13-.82,5.37,5.37,0,0,1-2-2.21,6.69,6.69,0,0,1-.71-3.09,6.57,6.57,0,0,1,.71-3.09,5.43,5.43,0,0,1,2-2.21,6.4,6.4,0,0,1,6.27,0,5.54,5.54,0,0,1,2,2.21,6.7,6.7,0,0,1,.71,3.09,6.81,6.81,0,0,1-.71,3.09,5.48,5.48,0,0,1-2,2.21A5.81,5.81,0,0,1,458.38,413.28Zm0-1.61A3.79,3.79,0,0,0,462,409.4a5.6,5.6,0,0,0,0-4.49,3.77,3.77,0,0,0-3.63-2.25,3.8,3.8,0,0,0-3.63,2.25,5.49,5.49,0,0,0,0,4.49,3.81,3.81,0,0,0,3.63,2.27Z"></path><path class="cls-17" d="M466.61,413.09v-16.6h1.78v16.6Z"></path><path class="cls-17" d="M476.47,413.28a5.49,5.49,0,0,1-3-.82,5.57,5.57,0,0,1-2-2.21,6.81,6.81,0,0,1-.71-3.09,6.7,6.7,0,0,1,.71-3.09,5.64,5.64,0,0,1,2-2.21,5.57,5.57,0,0,1,3-.82,5.28,5.28,0,0,1,2.53.57,4.91,4.91,0,0,1,1.72,1.54v-1.92h1.78v11.86h-1.78v-1.9a4.85,4.85,0,0,1-1.72,1.52A5.28,5.28,0,0,1,476.47,413.28Zm.24-1.61a3.79,3.79,0,0,0,3.63-2.27,5.6,5.6,0,0,0,0-4.49,3.77,3.77,0,0,0-3.63-2.25,4,4,0,0,0-2.25.61,4,4,0,0,0-1.45,1.64,5.29,5.29,0,0,0,0,4.49,3.93,3.93,0,0,0,1.45,1.65A4,4,0,0,0,476.71,411.67Z"></path><path class="cls-17" d="M486.86,413.09V402.8h-2.42v-1.57h2.42V397h1.78v4.24h2.73v1.57h-2.73v10.29Z"></path><path class="cls-17" d="M498.34,413.28a5.92,5.92,0,0,1-3.15-.82,5.51,5.51,0,0,1-2.1-2.21,6.48,6.48,0,0,1-.75-3.09,6.7,6.7,0,0,1,.71-3.09,5.5,5.5,0,0,1,2-2.21,5.91,5.91,0,0,1,3.13-.82,5.85,5.85,0,0,1,3.14.82,5.47,5.47,0,0,1,2,2.21,6.57,6.57,0,0,1,.71,3.09v.71h-9.93a4.79,4.79,0,0,0,.67,1.91,4,4,0,0,0,1.44,1.38,4.14,4.14,0,0,0,2.08.51,3.77,3.77,0,0,0,2.11-.56,3.88,3.88,0,0,0,1.33-1.43h1.95a5.81,5.81,0,0,1-2,2.59A5.52,5.52,0,0,1,498.34,413.28Zm-4.15-7.07h8.06a4.37,4.37,0,0,0-1.28-2.53,4.2,4.2,0,0,0-5.49,0A4.5,4.5,0,0,0,494.19,406.21Z"></path><path class="cls-17" d="M510.6,413.28a6.35,6.35,0,0,1-2.76-.54,4.26,4.26,0,0,1-1.72-1.44,3.9,3.9,0,0,1-.67-1.93h1.85a2.87,2.87,0,0,0,.42,1.15,2.44,2.44,0,0,0,1.06.9,4.23,4.23,0,0,0,1.84.34,6.27,6.27,0,0,0,.88-.07,4.28,4.28,0,0,0,1-.26,2.06,2.06,0,0,0,.82-.57,1.41,1.41,0,0,0,.33-1,1.32,1.32,0,0,0-.57-1.14,4.34,4.34,0,0,0-1.47-.63c-.6-.15-1.24-.29-1.91-.44a12.46,12.46,0,0,1-1.91-.55,3.76,3.76,0,0,1-1.47-1,2.45,2.45,0,0,1-.57-1.72,3,3,0,0,1,1.18-2.5,5.71,5.71,0,0,1,3.47-.89,5.85,5.85,0,0,1,2.55.49,3.71,3.71,0,0,1,1.49,1.24,3.61,3.61,0,0,1,.61,1.64h-1.8a2,2,0,0,0-.75-1.3,3.32,3.32,0,0,0-2.15-.55q-2.82,0-2.82,1.71a1.23,1.23,0,0,0,.57,1.09,4.79,4.79,0,0,0,1.47.6c.6.15,1.24.3,1.91.43a11.44,11.44,0,0,1,1.91.56,3.71,3.71,0,0,1,1.47,1,2.57,2.57,0,0,1,.57,1.76,3,3,0,0,1-1.32,2.65A6,6,0,0,1,510.6,413.28Z"></path><path class="cls-17" d="M516.44,415.72l1.37-5.05h2.33l-2.09,5.05Z"></path><path class="cls-17" d="M395.71,441.74a7.44,7.44,0,0,1-4.06-1.08,7.19,7.19,0,0,1-2.62-2.9,9.49,9.49,0,0,1,0-8.11,7.15,7.15,0,0,1,2.62-2.91,7.44,7.44,0,0,1,4.06-1.08,7.84,7.84,0,0,1,3.2.63,7.05,7.05,0,0,1,3.91,4.26H401a4.94,4.94,0,0,0-1.88-2.3,5.68,5.68,0,0,0-3.22-.86,6,6,0,0,0-3.24.84,5.49,5.49,0,0,0-2,2.27,7.85,7.85,0,0,0,0,6.39,5.4,5.4,0,0,0,2,2.28,6,6,0,0,0,3.24.84,5.68,5.68,0,0,0,3.22-.85,5,5,0,0,0,1.88-2.3h1.87a7.38,7.38,0,0,1-1.49,2.52,7,7,0,0,1-2.42,1.73A7.84,7.84,0,0,1,395.71,441.74Z"></path><path class="cls-17" d="M409.72,441.74a4.82,4.82,0,0,1-2.3-.58,4.52,4.52,0,0,1-1.77-1.73,5.53,5.53,0,0,1-.67-2.84v-6.9h1.78v6.86a3.61,3.61,0,0,0,.93,2.59,3.15,3.15,0,0,0,2.39,1,3.65,3.65,0,0,0,1.8-.46,3.53,3.53,0,0,0,1.78-3.15v-6.83h1.78v11.86h-1.78V439.7a6,6,0,0,1-1.57,1.45A4.33,4.33,0,0,1,409.72,441.74Z"></path><path class="cls-17" d="M418.52,446.25V429.69h1.78v1.9a4.7,4.7,0,0,1,1.72-1.53,5.33,5.33,0,0,1,2.52-.56,5.43,5.43,0,0,1,5,3,6.57,6.57,0,0,1,.71,3.09,6.66,6.66,0,0,1-.71,3.09,5.43,5.43,0,0,1-5,3,4.93,4.93,0,0,1-4.24-2.11v6.62Zm5.79-6.12a4,4,0,0,0,2.26-.62,4,4,0,0,0,1.44-1.65,5.29,5.29,0,0,0,0-4.49,3.91,3.91,0,0,0-3.7-2.25,3.94,3.94,0,0,0-2.23.61,3.85,3.85,0,0,0-1.4,1.64,5.49,5.49,0,0,0,0,4.49,3.82,3.82,0,0,0,1.4,1.65A4,4,0,0,0,424.31,440.13Z"></path><path class="cls-17" d="M438.77,441.55v-15.7h2.07l9.7,13.21V425.85h1.78v15.7h-2.07l-9.7-13.26v13.26Z"></path><path class="cls-17" d="M460.93,441.74a5.77,5.77,0,0,1-3.13-.82,5.37,5.37,0,0,1-2-2.21,6.67,6.67,0,0,1-.72-3.09,6.58,6.58,0,0,1,.72-3.09,5.43,5.43,0,0,1,2-2.21,6.4,6.4,0,0,1,6.27,0,5.54,5.54,0,0,1,2,2.21,6.7,6.7,0,0,1,.71,3.09,6.78,6.78,0,0,1-.71,3.09,5.48,5.48,0,0,1-2,2.21A5.81,5.81,0,0,1,460.93,441.74Zm0-1.61a3.79,3.79,0,0,0,3.63-2.27,5.6,5.6,0,0,0,0-4.49,3.77,3.77,0,0,0-3.63-2.25,3.92,3.92,0,0,0-2.23.61,3.85,3.85,0,0,0-1.4,1.64,5.49,5.49,0,0,0,0,4.49,3.82,3.82,0,0,0,1.4,1.65A3.92,3.92,0,0,0,460.93,440.13Z"></path><path class="cls-17" d="M474.3,441.74a5.82,5.82,0,0,1-3.13-.82,5.5,5.5,0,0,1-2-2.21,6.78,6.78,0,0,1-.71-3.09,6.7,6.7,0,0,1,.71-3.09,5.57,5.57,0,0,1,2-2.21,6.42,6.42,0,0,1,6.28,0,5.52,5.52,0,0,1,2,2.21,6.57,6.57,0,0,1,.71,3.09,6.66,6.66,0,0,1-.71,3.09,5.46,5.46,0,0,1-2,2.21A5.82,5.82,0,0,1,474.3,441.74Zm0-1.61a3.79,3.79,0,0,0,3.63-2.27,5.49,5.49,0,0,0,0-4.49,4,4,0,0,0-1.39-1.64,4.4,4.4,0,0,0-4.47,0,4,4,0,0,0-1.4,1.64,5.6,5.6,0,0,0,0,4.49,3.81,3.81,0,0,0,3.63,2.27Z"></path><path class="cls-17" d="M487.54,441.74a5.43,5.43,0,0,1-5-3,6.66,6.66,0,0,1-.71-3.09,6.57,6.57,0,0,1,.71-3.09,5.43,5.43,0,0,1,5-3,5.21,5.21,0,0,1,2.52.57,4.82,4.82,0,0,1,1.72,1.54V425h1.78v16.6h-1.78v-1.9a4.77,4.77,0,0,1-1.72,1.52A5.21,5.21,0,0,1,487.54,441.74Zm.23-1.61a3.76,3.76,0,0,0,3.63-2.27,5.49,5.49,0,0,0,0-4.49,3.75,3.75,0,0,0-3.63-2.25,4,4,0,0,0-2.25.61,4.11,4.11,0,0,0-1.45,1.64,5.39,5.39,0,0,0,0,4.49,4,4,0,0,0,3.7,2.27Z"></path><path class="cls-17" d="M496.64,441.55V425h1.78v16.6Z"></path><path class="cls-17" d="M506.77,441.74a5.92,5.92,0,0,1-3.15-.82,5.58,5.58,0,0,1-2.1-2.21,6.45,6.45,0,0,1-.75-3.09,6.7,6.7,0,0,1,.71-3.09,5.57,5.57,0,0,1,2-2.21,5.91,5.91,0,0,1,3.13-.82,5.85,5.85,0,0,1,3.14.82,5.47,5.47,0,0,1,2,2.21,6.57,6.57,0,0,1,.71,3.09v.71H502.6a4.79,4.79,0,0,0,.67,1.91,4,4,0,0,0,1.44,1.38,4.14,4.14,0,0,0,2.08.51,3.82,3.82,0,0,0,2.12-.56,3.93,3.93,0,0,0,1.32-1.43h1.95a5.81,5.81,0,0,1-2,2.59A5.52,5.52,0,0,1,506.77,441.74Zm-4.15-7.07h8.06a4.31,4.31,0,0,0-1.28-2.53,4.2,4.2,0,0,0-5.49,0A4.5,4.5,0,0,0,502.62,434.67Z"></path><path class="cls-17" d="M519,441.74a6.35,6.35,0,0,1-2.76-.54,4.26,4.26,0,0,1-1.72-1.44,3.79,3.79,0,0,1-.66-1.93h1.85a2.71,2.71,0,0,0,.41,1.15,2.44,2.44,0,0,0,1.06.9,4.25,4.25,0,0,0,1.85.34,6.25,6.25,0,0,0,.87-.07,4.28,4.28,0,0,0,1-.26,2,2,0,0,0,.82-.57,1.41,1.41,0,0,0,.33-1,1.32,1.32,0,0,0-.57-1.14,4.34,4.34,0,0,0-1.47-.63c-.6-.15-1.24-.29-1.91-.44a12.46,12.46,0,0,1-1.91-.55,3.76,3.76,0,0,1-1.47-1,2.45,2.45,0,0,1-.57-1.72,3,3,0,0,1,1.18-2.5,5.71,5.71,0,0,1,3.47-.89,5.79,5.79,0,0,1,2.55.49,3.74,3.74,0,0,1,1.5,1.24,3.6,3.6,0,0,1,.6,1.64h-1.8a2,2,0,0,0-.75-1.3,3.3,3.3,0,0,0-2.15-.55q-2.82,0-2.82,1.71a1.23,1.23,0,0,0,.57,1.09,4.79,4.79,0,0,0,1.47.6c.6.16,1.24.3,1.91.43a11.44,11.44,0,0,1,1.91.56,3.71,3.71,0,0,1,1.47,1,2.57,2.57,0,0,1,.57,1.76,3,3,0,0,1-1.32,2.65A6,6,0,0,1,519,441.74Z"></path><path class="cls-17" d="M524.87,444.18l1.37-5.05h2.33l-2.09,5.05Z"></path><path class="cls-17" d="M418.26,470v-15.7h7.52a5.41,5.41,0,0,1,3.85,1.33,4.64,4.64,0,0,1,1.44,3.58,4.49,4.49,0,0,1-.58,2.42A3.87,3.87,0,0,1,429,463a7.51,7.51,0,0,1-1.76.68L431.4,470h-2.11l-3.8-6H420v6ZM420,462.3h5.43a5.81,5.81,0,0,0,1.73-.26,3.07,3.07,0,0,0,1.48-.93,2.7,2.7,0,0,0,.61-1.89,2.93,2.93,0,0,0-1-2.36,4,4,0,0,0-2.71-.86H420Z"></path><path class="cls-17" d="M438,470V456h-5.48v-1.69h12.73V456h-5.48v14Z"></path><path class="cls-17" d="M447.53,470v-15.7h6.61a7.08,7.08,0,0,1,5,2.09,7.44,7.44,0,0,1,1.61,2.47,8.5,8.5,0,0,1,.59,3.29,8.59,8.59,0,0,1-.59,3.3,7.55,7.55,0,0,1-1.61,2.47,7.28,7.28,0,0,1-2.31,1.55,7.14,7.14,0,0,1-2.7.53Zm1.78-1.68h4.76a5,5,0,0,0,2.92-.86,5.66,5.66,0,0,0,1.91-2.25,7.37,7.37,0,0,0,0-6.14,5.63,5.63,0,0,0-1.91-2.24,5,5,0,0,0-2.92-.84h-4.76Z"></path><path class="cls-17" d="M473.14,470V456h-5.48v-1.69H480.4V456h-5.48v14Z"></path><path class="cls-17" d="M485.21,470.2a5.92,5.92,0,0,1-3.15-.82,5.65,5.65,0,0,1-2.1-2.21,6.45,6.45,0,0,1-.75-3.09,6.7,6.7,0,0,1,.71-3.09,5.57,5.57,0,0,1,2-2.21,6.42,6.42,0,0,1,6.28,0,5.52,5.52,0,0,1,2,2.21,6.58,6.58,0,0,1,.72,3.09v.71H481a4.79,4.79,0,0,0,.67,1.91,4,4,0,0,0,1.44,1.38,4.18,4.18,0,0,0,2.09.51,3.7,3.7,0,0,0,3.43-2h1.95a5.73,5.73,0,0,1-2,2.59A5.52,5.52,0,0,1,485.21,470.2Zm-4.15-7.07h8.06a4.31,4.31,0,0,0-1.28-2.53,4.2,4.2,0,0,0-5.49,0A4.63,4.63,0,0,0,481.06,463.13Z"></path><path class="cls-17" d="M498.16,470.2a5.49,5.49,0,0,1-3-.82,5.57,5.57,0,0,1-2-2.21,6.78,6.78,0,0,1-.71-3.09,6.7,6.7,0,0,1,.71-3.09,5.64,5.64,0,0,1,2-2.21,5.57,5.57,0,0,1,3-.82,5.28,5.28,0,0,1,2.53.57,5,5,0,0,1,1.72,1.54v-1.92h1.78V470h-1.78v-1.9a4.94,4.94,0,0,1-1.72,1.52A5.28,5.28,0,0,1,498.16,470.2Zm.24-1.61a3.79,3.79,0,0,0,3.63-2.27,5.6,5.6,0,0,0,0-4.49,3.77,3.77,0,0,0-3.63-2.25,4,4,0,0,0-2.25.61,4,4,0,0,0-1.45,1.64,5.29,5.29,0,0,0,0,4.49,3.93,3.93,0,0,0,1.45,1.65A4,4,0,0,0,498.4,468.59Z"></path><path class="cls-17" d="M414,524V511.82h-4.84v-3.54H423.3v3.54h-4.81V524Z"></path><path class="cls-17" d="M432.71,511.64a5.71,5.71,0,0,1,2.57.57,4.17,4.17,0,0,1,1.81,1.77,6.3,6.3,0,0,1,.67,3.08v7h-4.28v-6.28a2.84,2.84,0,0,0-.53-1.9,1.85,1.85,0,0,0-1.47-.6,2.58,2.58,0,0,0-1.24.3,2.11,2.11,0,0,0-.88.94,3.68,3.68,0,0,0-.32,1.64V524h-4.27v-16.7H429v8l-1-1a4.73,4.73,0,0,1,1.92-2A5.64,5.64,0,0,1,432.71,511.64Z"></path><path class="cls-17" d="M444.28,524.24a5.58,5.58,0,0,1-2.47-.49,3.58,3.58,0,0,1-1.54-1.35,3.51,3.51,0,0,1-.53-1.92,3.29,3.29,0,0,1,.57-1.94,3.53,3.53,0,0,1,1.77-1.26,8.86,8.86,0,0,1,3.08-.44H448v2.23h-2.29a2.38,2.38,0,0,0-1.45.33,1.11,1.11,0,0,0-.42.9,1.06,1.06,0,0,0,.43.9,1.79,1.79,0,0,0,1.17.34,2.34,2.34,0,0,0,1.27-.35,2,2,0,0,0,.84-1.07l.59,1.58a3.19,3.19,0,0,1-1.32,1.9A4.61,4.61,0,0,1,444.28,524.24Zm3.61-.2v-2.27l-.3-.57V517a2,2,0,0,0-.62-1.57,2.88,2.88,0,0,0-2-.55,5.83,5.83,0,0,0-1.77.28,4.69,4.69,0,0,0-1.53.78l-1.45-2.91a8.33,8.33,0,0,1,2.49-1,11.51,11.51,0,0,1,2.89-.37,7,7,0,0,1,4.61,1.36,5.24,5.24,0,0,1,1.63,4.26V524Z"></path><path class="cls-17" d="M456.71,510.49a2.73,2.73,0,0,1-1.89-.65,2.19,2.19,0,0,1,0-3.25,2.73,2.73,0,0,1,1.89-.65,2.81,2.81,0,0,1,1.89.62,2,2,0,0,1,.72,1.59,2.16,2.16,0,0,1-.71,1.67A2.62,2.62,0,0,1,456.71,510.49ZM454.57,524v-12.2h4.28V524Z"></path><path class="cls-17" d="M461.62,524v-16.7h4.28V524Z"></path><path class="cls-17" d="M472.51,524.24a5.58,5.58,0,0,1-2.47-.49,3.67,3.67,0,0,1-1.55-1.35,3.59,3.59,0,0,1-.52-1.92,3.29,3.29,0,0,1,.57-1.94,3.53,3.53,0,0,1,1.77-1.26,8.86,8.86,0,0,1,3.08-.44h2.88v2.23H474a2.38,2.38,0,0,0-1.45.33,1.11,1.11,0,0,0-.42.9,1.06,1.06,0,0,0,.43.9,1.79,1.79,0,0,0,1.17.34,2.34,2.34,0,0,0,1.27-.35,2,2,0,0,0,.84-1.07l.59,1.58a3.19,3.19,0,0,1-1.32,1.9A4.61,4.61,0,0,1,472.51,524.24Zm3.6-.2v-2.27l-.29-.57V517a2,2,0,0,0-.62-1.57,2.9,2.9,0,0,0-2-.55,5.83,5.83,0,0,0-1.77.28,4.85,4.85,0,0,0-1.54.78l-1.44-2.91a8.33,8.33,0,0,1,2.49-1,11.51,11.51,0,0,1,2.89-.37,7,7,0,0,1,4.61,1.36,5.24,5.24,0,0,1,1.63,4.26V524Z"></path><path class="cls-17" d="M490.75,511.64a5.66,5.66,0,0,1,2.56.57,4.2,4.2,0,0,1,1.82,1.77,6.31,6.31,0,0,1,.66,3.08v7h-4.28v-6.28a2.78,2.78,0,0,0-.53-1.9,1.85,1.85,0,0,0-1.47-.6,2.61,2.61,0,0,0-1.24.3,2.17,2.17,0,0,0-.88.94,3.69,3.69,0,0,0-.31,1.64V524H482.8v-12.2h4.08v3.47l-.79-1a4.65,4.65,0,0,1,1.91-2A5.68,5.68,0,0,1,490.75,511.64Z"></path><path class="cls-17" d="M503.94,524.24a6.09,6.09,0,0,1-3-.77,5.78,5.78,0,0,1-2.17-2.19,7.35,7.35,0,0,1,0-6.71,5.72,5.72,0,0,1,2.17-2.17,6.09,6.09,0,0,1,3-.76,5,5,0,0,1,2.67.67,4.18,4.18,0,0,1,1.65,2.07,9.45,9.45,0,0,1,.56,3.54,10.07,10.07,0,0,1-.54,3.58,4.08,4.08,0,0,1-1.62,2.07A5.06,5.06,0,0,1,503.94,524.24Zm.9-3.4a2.53,2.53,0,0,0,1.29-.33,2.38,2.38,0,0,0,.92-1,3.51,3.51,0,0,0,.33-1.58,3.41,3.41,0,0,0-.33-1.57,2.42,2.42,0,0,0-.92-1,2.53,2.53,0,0,0-1.29-.33,2.61,2.61,0,0,0-1.32.33,2.47,2.47,0,0,0-.91,1,3.4,3.4,0,0,0-.34,1.57,3.51,3.51,0,0,0,.34,1.58,2.43,2.43,0,0,0,.91,1A2.61,2.61,0,0,0,504.84,520.84Zm2.68,3.2V522l0-4-.22-4v-6.55h4.27V524Z"></path><path class="cls-17" d="M421.78,552.5V536.8h7.05a5.71,5.71,0,0,1,2.93.64,4,4,0,0,1,1.55,1.6,4.37,4.37,0,0,1,.47,1.91,3.72,3.72,0,0,1-.64,2.34,3.86,3.86,0,0,1-1.47,1.19,5.47,5.47,0,0,1,1.34.68,3.7,3.7,0,0,1,1.13,1.25,3.87,3.87,0,0,1,.45,2,3.78,3.78,0,0,1-1.34,2.94,5.85,5.85,0,0,1-4,1.19Zm1.78-8.68h5.27a4.18,4.18,0,0,0,1.55-.28,2.66,2.66,0,0,0,1.17-.89,2.55,2.55,0,0,0,.45-1.56,2.7,2.7,0,0,0-.29-1.25,2.41,2.41,0,0,0-.95-1,3.51,3.51,0,0,0-1.74-.38h-5.46Zm0,7h5.86a4.06,4.06,0,0,0,2.5-.68,2.27,2.27,0,0,0,.89-1.91,2.65,2.65,0,0,0-.85-2,3.74,3.74,0,0,0-2.73-.85h-5.67Z"></path><path class="cls-17" d="M437,538.65v-2.32H439v2.32Zm.07,13.85V540.64h1.78V552.5Z"></path><path class="cls-17" d="M446.28,552.69a6.2,6.2,0,0,1-2.76-.55,4.17,4.17,0,0,1-1.72-1.43,3.79,3.79,0,0,1-.66-1.93H443a2.71,2.71,0,0,0,.41,1.15,2.44,2.44,0,0,0,1.06.9,4.25,4.25,0,0,0,1.85.34,6.25,6.25,0,0,0,.87-.07,4.28,4.28,0,0,0,1-.26,2.17,2.17,0,0,0,.82-.57,1.43,1.43,0,0,0,.33-1,1.32,1.32,0,0,0-.57-1.14,4.34,4.34,0,0,0-1.47-.63c-.6-.15-1.24-.29-1.91-.44a12.46,12.46,0,0,1-1.91-.55,3.76,3.76,0,0,1-1.47-1,2.46,2.46,0,0,1-.57-1.72,2.94,2.94,0,0,1,1.18-2.5,5.71,5.71,0,0,1,3.47-.89,5.79,5.79,0,0,1,2.55.49,3.74,3.74,0,0,1,1.5,1.24,3.6,3.6,0,0,1,.6,1.64h-1.8a2,2,0,0,0-.75-1.3A3.3,3.3,0,0,0,446,542q-2.82,0-2.82,1.71a1.23,1.23,0,0,0,.57,1.09,4.79,4.79,0,0,0,1.47.6c.6.15,1.24.3,1.91.43a11.44,11.44,0,0,1,1.91.56,3.62,3.62,0,0,1,1.47,1,2.57,2.57,0,0,1,.57,1.76,3,3,0,0,1-1.32,2.65A6,6,0,0,1,446.28,552.69Z"></path><path class="cls-17" d="M458.49,552.69a5.65,5.65,0,0,1-3.08-.82,5.58,5.58,0,0,1-2-2.22,7,7,0,0,1,0-6.17,5.52,5.52,0,0,1,5.11-3,6,6,0,0,1,3.6,1.09,5.34,5.34,0,0,1,2,2.83h-1.92a3.65,3.65,0,0,0-1.29-1.66,3.56,3.56,0,0,0-2.15-.64,4.08,4.08,0,0,0-3.77,2.25,5.11,5.11,0,0,0,0,4.49,4.1,4.1,0,0,0,3.77,2.27,3.62,3.62,0,0,0,2.15-.64,3.7,3.7,0,0,0,1.29-1.66h1.92a5.35,5.35,0,0,1-2,2.82A5.89,5.89,0,0,1,458.49,552.69Z"></path><path class="cls-17" d="M470.92,552.69a4.82,4.82,0,0,1-2.3-.58,4.49,4.49,0,0,1-1.76-1.73,5.53,5.53,0,0,1-.68-2.84v-6.9H468v6.86a3.57,3.57,0,0,0,.94,2.59,3.12,3.12,0,0,0,2.38,1,3.65,3.65,0,0,0,1.8-.46,3.53,3.53,0,0,0,1.78-3.15v-6.83h1.78V552.5h-1.78v-1.85a6,6,0,0,1-1.57,1.45A4.33,4.33,0,0,1,470.92,552.69Z"></path><path class="cls-17" d="M479.65,538.65v-2.32h1.92v2.32Zm.07,13.85V540.64h1.78V552.5Z"></path><path class="cls-17" d="M485.86,552.5V542.21h-2.41v-1.57h2.41V536.4h1.78v4.24h2.73v1.57h-2.73V552.5Z"></path><path class="cls-17" d="M496.63,552.69a6.2,6.2,0,0,1-2.76-.55,4.17,4.17,0,0,1-1.72-1.43,3.79,3.79,0,0,1-.66-1.93h1.84a2.87,2.87,0,0,0,.42,1.15,2.44,2.44,0,0,0,1.06.9,4.25,4.25,0,0,0,1.85.34,6.25,6.25,0,0,0,.87-.07,4.28,4.28,0,0,0,1-.26,2.17,2.17,0,0,0,.82-.57,1.43,1.43,0,0,0,.33-1,1.32,1.32,0,0,0-.57-1.14,4.34,4.34,0,0,0-1.47-.63c-.6-.15-1.24-.29-1.91-.44a12.46,12.46,0,0,1-1.91-.55,3.76,3.76,0,0,1-1.47-1,2.46,2.46,0,0,1-.57-1.72,2.94,2.94,0,0,1,1.18-2.5,5.71,5.71,0,0,1,3.47-.89,5.82,5.82,0,0,1,2.55.49,3.53,3.53,0,0,1,2.1,2.88h-1.8a2,2,0,0,0-.75-1.3,3.3,3.3,0,0,0-2.15-.55q-2.82,0-2.82,1.71a1.23,1.23,0,0,0,.57,1.09,4.79,4.79,0,0,0,1.47.6c.6.15,1.24.3,1.91.43a11.44,11.44,0,0,1,1.91.56,3.62,3.62,0,0,1,1.47,1,2.57,2.57,0,0,1,.57,1.76,3,3,0,0,1-1.32,2.65A6,6,0,0,1,496.63,552.69Z"></path><path class="cls-17" d="M699.7,496V482.39h6.2a7.86,7.86,0,0,1,3.21.6,4.7,4.7,0,0,1,2.08,1.74,4.81,4.81,0,0,1,.74,2.68,4.58,4.58,0,0,1-2.82,4.38,7.69,7.69,0,0,1-3.21.61h-4.06l1.7-1.66V496Zm3.84-4.8-1.7-1.77h3.83a2.62,2.62,0,0,0,1.79-.52,2.1,2.1,0,0,0,0-2.92,2.62,2.62,0,0,0-1.79-.53h-3.83l1.7-1.76Z"></path><path class="cls-17" d="M720.64,485.28a4.88,4.88,0,0,1,2.21.49,3.63,3.63,0,0,1,1.56,1.52A5.46,5.46,0,0,1,725,490v6H721.3v-5.4a2.4,2.4,0,0,0-.46-1.64,1.6,1.6,0,0,0-1.27-.51,2.13,2.13,0,0,0-1.06.26,1.84,1.84,0,0,0-.76.8,3.16,3.16,0,0,0-.27,1.41V496H713.8V481.58h3.68v6.85l-.85-.87a4,4,0,0,1,1.65-1.71A4.85,4.85,0,0,1,720.64,485.28Z"></path><path class="cls-17" d="M729.12,484.29a2.33,2.33,0,0,1-1.62-.56,1.8,1.8,0,0,1-.62-1.4,1.78,1.78,0,0,1,.62-1.39,2.33,2.33,0,0,1,1.62-.56,2.44,2.44,0,0,1,1.63.53,1.74,1.74,0,0,1,.62,1.37,1.87,1.87,0,0,1-.61,1.44A2.31,2.31,0,0,1,729.12,484.29ZM727.28,496v-10.5H731V496Z"></path><path class="cls-17" d="M733.35,496V481.58H737V496Z"></path><path class="cls-17" d="M741.25,484.29a2.34,2.34,0,0,1-1.63-.56,1.83,1.83,0,0,1-.62-1.4,1.81,1.81,0,0,1,.62-1.39,2.34,2.34,0,0,1,1.63-.56,2.41,2.41,0,0,1,1.62.53,1.71,1.71,0,0,1,.62,1.37,1.87,1.87,0,0,1-.61,1.44A2.28,2.28,0,0,1,741.25,484.29ZM739.41,496v-10.5h3.68V496Z"></path><path class="cls-17" d="M745.47,499.71V485.45H749v1.78l0,3.47.2,3.49v5.52Zm6.6-3.59a4.16,4.16,0,0,1-2.28-.59,3.65,3.65,0,0,1-1.45-1.78,8.21,8.21,0,0,1-.49-3.05,8.54,8.54,0,0,1,.47-3.07,3.44,3.44,0,0,1,1.4-1.77,4.38,4.38,0,0,1,2.35-.58,5.12,5.12,0,0,1,2.61.67,4.91,4.91,0,0,1,1.86,1.87,5.84,5.84,0,0,1,.68,2.88,5.91,5.91,0,0,1-.68,2.89,4.78,4.78,0,0,1-1.86,1.87A5.22,5.22,0,0,1,752.07,496.12Zm-.77-2.92a2.06,2.06,0,0,0,1.9-1.14,3.14,3.14,0,0,0,0-2.72,2.06,2.06,0,0,0-1.9-1.14,2.2,2.2,0,0,0-1.12.29,2.17,2.17,0,0,0-.79.85,3.23,3.23,0,0,0,0,2.72,2.17,2.17,0,0,0,.79.85A2.2,2.2,0,0,0,751.3,493.2Z"></path><path class="cls-17" d="M758.93,499.71V485.45h3.5v1.78l0,3.47.2,3.49v5.52Zm6.6-3.59a4.16,4.16,0,0,1-2.28-.59,3.65,3.65,0,0,1-1.45-1.78,8.21,8.21,0,0,1-.49-3.05,8.54,8.54,0,0,1,.47-3.07,3.44,3.44,0,0,1,1.4-1.77,4.38,4.38,0,0,1,2.35-.58,5.12,5.12,0,0,1,2.61.67,4.91,4.91,0,0,1,1.86,1.87,5.84,5.84,0,0,1,.68,2.88,5.91,5.91,0,0,1-.68,2.89,4.78,4.78,0,0,1-1.86,1.87A5.22,5.22,0,0,1,765.53,496.12Zm-.77-2.92a2.06,2.06,0,0,0,1.9-1.14,3.14,3.14,0,0,0,0-2.72,2.06,2.06,0,0,0-1.9-1.14,2.2,2.2,0,0,0-1.12.29,2.17,2.17,0,0,0-.79.85,3.23,3.23,0,0,0,0,2.72,2.17,2.17,0,0,0,.79.85A2.2,2.2,0,0,0,764.76,493.2Z"></path><path class="cls-17" d="M774.23,484.29a2.35,2.35,0,0,1-1.63-.56,1.83,1.83,0,0,1-.62-1.4,1.81,1.81,0,0,1,.62-1.39,2.35,2.35,0,0,1,1.63-.56,2.46,2.46,0,0,1,1.63.53,1.73,1.73,0,0,1,.61,1.37,1.87,1.87,0,0,1-.61,1.44A2.28,2.28,0,0,1,774.23,484.29ZM772.39,496v-10.5h3.68V496Z"></path><path class="cls-17" d="M785.29,485.28a4.81,4.81,0,0,1,2.2.49,3.63,3.63,0,0,1,1.56,1.52,5.46,5.46,0,0,1,.57,2.66v6h-3.68v-5.4a2.45,2.45,0,0,0-.45-1.64,1.61,1.61,0,0,0-1.27-.51,2.11,2.11,0,0,0-1.06.26,1.74,1.74,0,0,0-.76.8,3.16,3.16,0,0,0-.27,1.41V496h-3.68v-10.5H782v3l-.67-.87a4,4,0,0,1,1.64-1.71A4.89,4.89,0,0,1,785.29,485.28Z"></path><path class="cls-17" d="M797.57,496.12a7.08,7.08,0,0,1-3.25-.7,5.33,5.33,0,0,1-2.15-1.94,5.18,5.18,0,0,1-.76-2.8,5.37,5.37,0,0,1,.74-2.8,5.13,5.13,0,0,1,2.06-1.91,6.7,6.7,0,0,1,5.8-.06,4.89,4.89,0,0,1,2,1.85,5.54,5.54,0,0,1,.75,3,3.7,3.7,0,0,1,0,.45c0,.16,0,.32,0,.46h-8.31v-1.94h6.35l-1.39.55a2.42,2.42,0,0,0-.27-1.24,2,2,0,0,0-.77-.82,2.26,2.26,0,0,0-1.15-.29,2.29,2.29,0,0,0-1.16.29,2,2,0,0,0-.76.83,2.71,2.71,0,0,0-.27,1.25v.56a2.57,2.57,0,0,0,.32,1.33,2.07,2.07,0,0,0,.92.86,3,3,0,0,0,1.43.31,3.52,3.52,0,0,0,1.33-.23,4,4,0,0,0,1.09-.69l1.94,2a5,5,0,0,1-1.86,1.27A7.14,7.14,0,0,1,797.57,496.12Z"></path><path class="cls-17" d="M808.31,496.12a10.7,10.7,0,0,1-2.6-.31,7.08,7.08,0,0,1-2-.77l1.1-2.52a6.59,6.59,0,0,0,1.72.71,7.79,7.79,0,0,0,1.94.26,3.15,3.15,0,0,0,1.29-.19.59.59,0,0,0,.36-.53.48.48,0,0,0-.34-.45,3.93,3.93,0,0,0-.89-.23l-1.21-.17a12.48,12.48,0,0,1-1.33-.26,4.41,4.41,0,0,1-1.22-.5,2.59,2.59,0,0,1-.88-.92,3,3,0,0,1-.33-1.48,2.94,2.94,0,0,1,.59-1.79,4,4,0,0,1,1.73-1.24,7.62,7.62,0,0,1,2.79-.45,11.49,11.49,0,0,1,2.24.22,6.29,6.29,0,0,1,1.91.67l-1.11,2.5a5.16,5.16,0,0,0-1.55-.61,7,7,0,0,0-1.47-.17,2.78,2.78,0,0,0-1.31.22.6.6,0,0,0-.37.52.51.51,0,0,0,.33.47,2.73,2.73,0,0,0,.88.25l1.21.18a10.26,10.26,0,0,1,1.32.26,4.61,4.61,0,0,1,1.22.51,2.56,2.56,0,0,1,.88.91,2.91,2.91,0,0,1,.33,1.47,2.77,2.77,0,0,1-.59,1.74,3.94,3.94,0,0,1-1.74,1.24A7.68,7.68,0,0,1,808.31,496.12Z"></path><path class="cls-17" d="M691.77,520.43v-13.5h1.53v13.5Z"></path><path class="cls-17" d="M696.28,520.43v-10.2h1.53v1.59a5,5,0,0,1,1.34-1.24,3.72,3.72,0,0,1,2-.51,4.06,4.06,0,0,1,2,.5,3.86,3.86,0,0,1,1.51,1.49,4.71,4.71,0,0,1,.58,2.44v5.93h-1.53v-5.89a3.14,3.14,0,0,0-.79-2.24,2.71,2.71,0,0,0-2.06-.84,3.1,3.1,0,0,0-1.55.38,3,3,0,0,0-1.12,1.09,3.21,3.21,0,0,0-.41,1.63v5.87Z"></path><path class="cls-17" d="M711.54,520.6a5.49,5.49,0,0,1-2.38-.47,3.66,3.66,0,0,1-1.48-1.24,3.34,3.34,0,0,1-.57-1.66h1.59a2.38,2.38,0,0,0,.36,1,2.06,2.06,0,0,0,.91.77,3.61,3.61,0,0,0,1.59.3,5.86,5.86,0,0,0,.75-.06,3.72,3.72,0,0,0,.87-.23,1.65,1.65,0,0,0,.7-.49,1.2,1.2,0,0,0,.29-.83,1.12,1.12,0,0,0-.49-1,3.83,3.83,0,0,0-1.27-.54c-.51-.13-1.06-.26-1.64-.38a10.41,10.41,0,0,1-1.64-.48,3.27,3.27,0,0,1-1.27-.83,2.18,2.18,0,0,1-.49-1.48,2.54,2.54,0,0,1,1-2.16,4.87,4.87,0,0,1,3-.76,5,5,0,0,1,2.2.42,3.18,3.18,0,0,1,1.28,1.07,2.92,2.92,0,0,1,.52,1.41h-1.55a1.73,1.73,0,0,0-.64-1.13,2.9,2.9,0,0,0-1.85-.47c-1.62,0-2.42.49-2.42,1.47a1.06,1.06,0,0,0,.49.94,3.89,3.89,0,0,0,1.26.52c.52.13,1.06.25,1.64.37a8.75,8.75,0,0,1,1.65.48,3.17,3.17,0,0,1,1.26.87,2.21,2.21,0,0,1,.49,1.52,2.6,2.6,0,0,1-1.13,2.27A5.28,5.28,0,0,1,711.54,520.6Z"></path><path class="cls-17" d="M718.76,520.43v-8.85h-2.08v-1.35h2.08v-3.65h1.53v3.65h2.35v1.35h-2.35v8.85Z"></path><path class="cls-17" d="M728.41,520.6a4.7,4.7,0,0,1-4.33-2.62,6.08,6.08,0,0,1,0-5.31,4.81,4.81,0,0,1,1.73-1.9,4.75,4.75,0,0,1,2.6-.7,4.46,4.46,0,0,1,2.17.49,4.1,4.1,0,0,1,1.48,1.32v-1.65h1.53v10.2h-1.53V518.8a4.26,4.26,0,0,1-1.48,1.31A4.57,4.57,0,0,1,728.41,520.6Zm.2-1.39a3.37,3.37,0,0,0,1.93-.53,3.46,3.46,0,0,0,1.2-1.42,4.88,4.88,0,0,0,0-3.87,3.4,3.4,0,0,0-1.2-1.4,3.3,3.3,0,0,0-1.93-.53,3.41,3.41,0,0,0-1.93.53,3.45,3.45,0,0,0-1.25,1.4,4.57,4.57,0,0,0,0,3.87,3.4,3.4,0,0,0,3.18,2Z"></path><path class="cls-17" d="M736.24,520.43v-10.2h1.54v1.59a5,5,0,0,1,1.34-1.24,3.72,3.72,0,0,1,2-.51,4.06,4.06,0,0,1,2,.5,3.86,3.86,0,0,1,1.51,1.49,4.71,4.71,0,0,1,.58,2.44v5.93h-1.53v-5.89a3.14,3.14,0,0,0-.79-2.24,2.71,2.71,0,0,0-2.06-.84,3.07,3.07,0,0,0-1.55.38,3,3,0,0,0-1.12,1.09,3.11,3.11,0,0,0-.41,1.63v5.87Z"></path><path class="cls-17" d="M748.65,520.43v-8.85h-2.08v-1.35h2.08v-3.65h1.53v3.65h2.35v1.35h-2.35v8.85Z"></path><path class="cls-17" d="M764.54,520.6a6.35,6.35,0,0,1-3.48-.93,6.13,6.13,0,0,1-2.26-2.5,8.2,8.2,0,0,1,0-7,6.13,6.13,0,0,1,2.26-2.5,6.35,6.35,0,0,1,3.48-.93,6.8,6.8,0,0,1,2.76.54,6.25,6.25,0,0,1,2.08,1.48,6.17,6.17,0,0,1,1.28,2.19h-1.61a4.23,4.23,0,0,0-1.61-2,4.88,4.88,0,0,0-2.77-.74,5.09,5.09,0,0,0-2.79.73,4.59,4.59,0,0,0-1.74,1.94,6.7,6.7,0,0,0,0,5.5,4.53,4.53,0,0,0,1.74,2,5.09,5.09,0,0,0,2.79.73,4.88,4.88,0,0,0,2.77-.74,4.23,4.23,0,0,0,1.61-2h1.61a6.31,6.31,0,0,1-1.28,2.18,6.14,6.14,0,0,1-2.08,1.49A6.8,6.8,0,0,1,764.54,520.6Z"></path><path class="cls-17" d="M777.05,520.6a5,5,0,0,1-2.69-.71A4.7,4.7,0,0,1,772.6,518a6.08,6.08,0,0,1,0-5.31,4.74,4.74,0,0,1,1.76-1.9,5.54,5.54,0,0,1,5.39,0,4.71,4.71,0,0,1,1.75,1.9,6.08,6.08,0,0,1,0,5.31,4.68,4.68,0,0,1-1.75,1.91A5,5,0,0,1,777.05,520.6Zm0-1.39a3.4,3.4,0,0,0,1.93-.53,3.44,3.44,0,0,0,1.19-1.42,4.77,4.77,0,0,0,0-3.87A3.38,3.38,0,0,0,779,512a3.45,3.45,0,0,0-5.05,1.4,4.77,4.77,0,0,0,0,3.87,3.26,3.26,0,0,0,3.12,2Z"></path><path class="cls-17" d="M784.82,520.43v-8.85h-1.75v-1.35h1.75v-.9a3.07,3.07,0,0,1,1-2.51,4.23,4.23,0,0,1,2.76-.83h.12v1.45h-.2a2.36,2.36,0,0,0-1.61.48,1.93,1.93,0,0,0-.55,1.54v.77h4.53v-.9a3.06,3.06,0,0,1,1-2.51,4.23,4.23,0,0,1,2.76-.83h.12v1.45h-.2a2.36,2.36,0,0,0-1.61.48,1.93,1.93,0,0,0-.55,1.54v.77h2.36v1.35h-2.36v8.85h-1.53v-8.85h-4.53v8.85Z"></path><path class="cls-17" d="M800.78,520.6a5.12,5.12,0,0,1-2.71-.71,4.82,4.82,0,0,1-1.81-1.91,5.49,5.49,0,0,1-.64-2.65,5.72,5.72,0,0,1,.61-2.66,4.67,4.67,0,0,1,1.76-1.9,5.54,5.54,0,0,1,5.39,0,4.71,4.71,0,0,1,1.75,1.9,5.85,5.85,0,0,1,.61,2.66v.61h-8.55a4.12,4.12,0,0,0,.58,1.65,3.43,3.43,0,0,0,1.24,1.18,3.57,3.57,0,0,0,1.79.44,3.27,3.27,0,0,0,1.82-.48,3.31,3.31,0,0,0,1.14-1.24h1.67a4.94,4.94,0,0,1-1.68,2.24A4.8,4.8,0,0,1,800.78,520.6Zm-3.57-6.08h6.94a3.84,3.84,0,0,0-1.11-2.19,3.64,3.64,0,0,0-4.72,0A4,4,0,0,0,797.21,514.52Z"></path><path class="cls-17" d="M812.14,520.6a5.14,5.14,0,0,1-2.71-.71,4.89,4.89,0,0,1-1.81-1.91,5.61,5.61,0,0,1-.64-2.65,5.85,5.85,0,0,1,.61-2.66,4.74,4.74,0,0,1,1.76-1.9,5.56,5.56,0,0,1,5.4,0,4.76,4.76,0,0,1,1.74,1.9,5.72,5.72,0,0,1,.61,2.66v.61h-8.55a4.29,4.29,0,0,0,.59,1.65,3.32,3.32,0,0,0,1.23,1.18,3.62,3.62,0,0,0,1.79.44,3.24,3.24,0,0,0,1.82-.48,3.31,3.31,0,0,0,1.14-1.24h1.68a5,5,0,0,1-1.69,2.24A4.78,4.78,0,0,1,812.14,520.6Zm-3.57-6.08h6.94a3.83,3.83,0,0,0-1.1-2.19,3.27,3.27,0,0,0-2.37-.87,3.2,3.2,0,0,0-2.35.87A3.92,3.92,0,0,0,808.57,514.52Z"></path><path class="cls-17" d="M817.88,522.7l1.18-4.35h2l-1.79,4.35Z"></path><path class="cls-17" d="M688.6,544.92V531.41h6.08a4.77,4.77,0,0,1,3.41,1.17,4.66,4.66,0,0,1,0,6.35,4.77,4.77,0,0,1-3.41,1.17h-4.55v4.82Zm1.53-6.25h4.45a3.36,3.36,0,0,0,2.41-.77,3.19,3.19,0,0,0,0-4.27,3.4,3.4,0,0,0-2.41-.77h-4.45Z"></path><path class="cls-17" d="M705.52,545.08a5,5,0,0,1-2.69-.7,4.7,4.7,0,0,1-1.76-1.91,6.1,6.1,0,0,1,0-5.32,4.64,4.64,0,0,1,1.76-1.89,5.47,5.47,0,0,1,5.39,0,4.69,4.69,0,0,1,1.75,1.89,6.1,6.1,0,0,1,0,5.32,4.74,4.74,0,0,1-1.75,1.91A5,5,0,0,1,705.52,545.08Zm0-1.39a3.23,3.23,0,0,0,3.12-2,4.75,4.75,0,0,0,0-3.86,3.35,3.35,0,0,0-1.19-1.41,3.76,3.76,0,0,0-3.85,0,3.3,3.3,0,0,0-1.2,1.41,4.75,4.75,0,0,0,0,3.86,3.27,3.27,0,0,0,1.2,1.42A3.33,3.33,0,0,0,705.52,543.69Z"></path><path class="cls-17" d="M716.58,545.08a4.16,4.16,0,0,1-2-.5,3.82,3.82,0,0,1-1.52-1.49,4.71,4.71,0,0,1-.58-2.44v-5.93H714v5.89a3.15,3.15,0,0,0,.8,2.24,2.72,2.72,0,0,0,2,.84,3,3,0,0,0,1.55-.4,2.93,2.93,0,0,0,1.12-1.09,3.13,3.13,0,0,0,.41-1.61v-5.87h1.53v10.2H720v-1.59a5,5,0,0,1-1.34,1.24A3.72,3.72,0,0,1,716.58,545.08Z"></path><path class="cls-17" d="M728.53,545.08a4.88,4.88,0,0,1-2.65-.7,4.79,4.79,0,0,1-1.74-1.91,5.93,5.93,0,0,1,0-5.32,4.73,4.73,0,0,1,1.74-1.89,4.88,4.88,0,0,1,2.65-.71,5,5,0,0,1,3.09.94,4.58,4.58,0,0,1,1.73,2.43H731.7a3.22,3.22,0,0,0-1.12-1.43,3,3,0,0,0-1.84-.55,3.62,3.62,0,0,0-2,.53,3.51,3.51,0,0,0-1.29,1.41,4.36,4.36,0,0,0,0,3.86,3.47,3.47,0,0,0,1.29,1.42,3.53,3.53,0,0,0,2,.53,3,3,0,0,0,1.84-.55,3.22,3.22,0,0,0,1.12-1.43h1.65a4.51,4.51,0,0,1-1.73,2.43A5,5,0,0,1,728.53,545.08Z"></path><path class="cls-17" d="M735.25,544.92V530.63h1.53v5.68a5,5,0,0,1,1.34-1.25,3.72,3.72,0,0,1,2-.51,4.17,4.17,0,0,1,2,.5,3.79,3.79,0,0,1,1.51,1.49,4.71,4.71,0,0,1,.58,2.44v5.94h-1.53V539a3.12,3.12,0,0,0-.79-2.23,2.69,2.69,0,0,0-2.06-.85,3.1,3.1,0,0,0-1.55.39,2.84,2.84,0,0,0-1.11,1.09,3.1,3.1,0,0,0-.42,1.62v5.88Z"></path><path class="cls-17" d="M751.47,544.92V531.41h1.77l8.35,11.36V531.41h1.53v13.51h-1.78L753,533.51v11.41Z"></path><path class="cls-17" d="M770.52,545.08a5,5,0,0,1-2.69-.7,4.76,4.76,0,0,1-1.76-1.91,6.1,6.1,0,0,1,0-5.32,4.71,4.71,0,0,1,1.76-1.89,5.49,5.49,0,0,1,5.4,0,4.73,4.73,0,0,1,1.74,1.89,6.1,6.1,0,0,1,0,5.32,4.79,4.79,0,0,1-1.74,1.91A5,5,0,0,1,770.52,545.08Zm0-1.39a3.23,3.23,0,0,0,3.12-2,4.75,4.75,0,0,0,0-3.86,3.35,3.35,0,0,0-1.19-1.41,3.74,3.74,0,0,0-3.84,0,3.25,3.25,0,0,0-1.21,1.41,4.75,4.75,0,0,0,0,3.86,3.22,3.22,0,0,0,1.21,1.42A3.32,3.32,0,0,0,770.52,543.69Z"></path><path class="cls-17" d="M782,545.08a5,5,0,0,1-2.69-.7,4.76,4.76,0,0,1-1.76-1.91,6.1,6.1,0,0,1,0-5.32,4.71,4.71,0,0,1,1.76-1.89,5.47,5.47,0,0,1,5.39,0,4.69,4.69,0,0,1,1.75,1.89,6.1,6.1,0,0,1,0,5.32,4.74,4.74,0,0,1-1.75,1.91A5,5,0,0,1,782,545.08Zm0-1.39a3.23,3.23,0,0,0,3.12-2,4.75,4.75,0,0,0,0-3.86,3.35,3.35,0,0,0-1.19-1.41,3.76,3.76,0,0,0-3.85,0,3.3,3.3,0,0,0-1.2,1.41,4.75,4.75,0,0,0,0,3.86,3.27,3.27,0,0,0,1.2,1.42A3.33,3.33,0,0,0,782,543.69Z"></path><path class="cls-17" d="M793.42,545.08a4.67,4.67,0,0,1-4.33-2.61,6.1,6.1,0,0,1,0-5.32,4.73,4.73,0,0,1,4.33-2.6,4.6,4.6,0,0,1,2.17.49,4.21,4.21,0,0,1,1.48,1.33v-5.74h1.53v14.29h-1.53v-1.64a4.25,4.25,0,0,1-1.48,1.31A4.49,4.49,0,0,1,793.42,545.08Zm.2-1.39a3.23,3.23,0,0,0,3.12-2,4.75,4.75,0,0,0,0-3.86,3.35,3.35,0,0,0-1.19-1.41,3.42,3.42,0,0,0-1.93-.53,3.52,3.52,0,0,0-1.94.53,3.39,3.39,0,0,0-1.24,1.41,4.55,4.55,0,0,0,0,3.86,3.36,3.36,0,0,0,1.24,1.42A3.44,3.44,0,0,0,793.62,543.69Z"></path><path class="cls-17" d="M801.25,544.92V530.63h1.53v14.29Z"></path><path class="cls-17" d="M810,545.08a5.11,5.11,0,0,1-2.71-.7,4.89,4.89,0,0,1-1.81-1.91,5.64,5.64,0,0,1-.64-2.65,5.76,5.76,0,0,1,.61-2.67,4.71,4.71,0,0,1,1.76-1.89,5.47,5.47,0,0,1,5.39,0,4.69,4.69,0,0,1,1.75,1.89,5.76,5.76,0,0,1,.61,2.67v.61h-8.55a4.23,4.23,0,0,0,.58,1.64,3.35,3.35,0,0,0,1.24,1.18,3.47,3.47,0,0,0,1.79.44,3.27,3.27,0,0,0,1.82-.48,3.36,3.36,0,0,0,1.14-1.23h1.67a5,5,0,0,1-1.68,2.23A4.8,4.8,0,0,1,810,545.08ZM806.39,539h6.94a3.77,3.77,0,0,0-1.1-2.18,3.62,3.62,0,0,0-4.73,0A3.91,3.91,0,0,0,806.39,539Z"></path><path class="cls-17" d="M820.51,545.08a5.49,5.49,0,0,1-2.38-.47,3.54,3.54,0,0,1-1.47-1.23,3.29,3.29,0,0,1-.58-1.67h1.59a2.53,2.53,0,0,0,.36,1,2.14,2.14,0,0,0,.91.78,3.65,3.65,0,0,0,1.59.29,5.86,5.86,0,0,0,.76-.06,3.62,3.62,0,0,0,.86-.22,1.78,1.78,0,0,0,.71-.49,1.24,1.24,0,0,0,.28-.84,1.12,1.12,0,0,0-.49-1,3.68,3.68,0,0,0-1.26-.54l-1.64-.38a11.73,11.73,0,0,1-1.65-.47,3.25,3.25,0,0,1-1.26-.84,2.1,2.1,0,0,1-.49-1.48,2.54,2.54,0,0,1,1-2.15,6.07,6.07,0,0,1,5.18-.35,3.3,3.3,0,0,1,1.29,1.07,3.23,3.23,0,0,1,.52,1.41H822.8a1.7,1.7,0,0,0-.65-1.12,2.82,2.82,0,0,0-1.84-.47q-2.43,0-2.43,1.47a1.07,1.07,0,0,0,.49.94,4.35,4.35,0,0,0,1.26.52c.52.12,1.07.25,1.65.36a10.73,10.73,0,0,1,1.64.48,3.23,3.23,0,0,1,1.26.87,2.21,2.21,0,0,1,.49,1.52,2.57,2.57,0,0,1-1.13,2.27A5.16,5.16,0,0,1,820.51,545.08Z"></path><path class="cls-17" d="M712.82,591.4V577.84H716l5.62,9.22h-1.67l5.46-9.22h3.16l0,13.56h-3.52l0-8.2h.6l-4.09,6.86h-1.7l-4.21-6.86h.74v8.2Z"></path><path class="cls-17" d="M734.44,591.57a4.73,4.73,0,0,1-2.13-.43,3,3,0,0,1-1.78-2.8,2.85,2.85,0,0,1,.49-1.68,3.09,3.09,0,0,1,1.52-1.08,7.59,7.59,0,0,1,2.65-.38h2.48v1.92h-2a2,2,0,0,0-1.25.29.93.93,0,0,0-.36.77,1,1,0,0,0,.37.78,1.59,1.59,0,0,0,1,.29,2.09,2.09,0,0,0,1.1-.3,1.73,1.73,0,0,0,.72-.92l.51,1.35a2.73,2.73,0,0,1-1.13,1.64A4,4,0,0,1,734.44,591.57Zm3.1-.17v-2l-.26-.48v-3.61a1.67,1.67,0,0,0-.53-1.34,2.47,2.47,0,0,0-1.69-.48,4.81,4.81,0,0,0-1.53.25,4.08,4.08,0,0,0-1.32.66L731,582a7.34,7.34,0,0,1,2.14-.91,10.11,10.11,0,0,1,2.49-.31,6,6,0,0,1,4,1.17,4.49,4.49,0,0,1,1.4,3.67v5.83Z"></path><path class="cls-17" d="M743.29,591.4V577H747V591.4Z"></path><path class="cls-17" d="M752.66,591.57a4.73,4.73,0,0,1-2.13-.43A3.15,3.15,0,0,1,749.2,590a3.09,3.09,0,0,1-.45-1.64,2.85,2.85,0,0,1,.49-1.68,3.09,3.09,0,0,1,1.52-1.08,7.65,7.65,0,0,1,2.66-.38h2.48v1.92h-2a2,2,0,0,0-1.25.29.93.93,0,0,0-.36.77,1,1,0,0,0,.37.78,1.62,1.62,0,0,0,1,.29,2.05,2.05,0,0,0,1.09-.3,1.79,1.79,0,0,0,.73-.92l.5,1.35a2.69,2.69,0,0,1-1.13,1.64A4,4,0,0,1,752.66,591.57Zm3.1-.17v-2l-.25-.48v-3.61A1.7,1.7,0,0,0,755,584a2.5,2.5,0,0,0-1.7-.48,4.9,4.9,0,0,0-1.53.25,4.3,4.3,0,0,0-1.32.66L749.2,582a7.17,7.17,0,0,1,2.13-.91,10.23,10.23,0,0,1,2.49-.31,6,6,0,0,1,4,1.17,4.5,4.5,0,0,1,1.41,3.67v5.83Z"></path><path class="cls-17" d="M764.55,591.84l-4.63-10.94h3.78l3.41,8.48Zm-1.43,3.49a5.7,5.7,0,0,1-1.67-.26,4.18,4.18,0,0,1-1.37-.69l1.28-2.58a2.34,2.34,0,0,0,.76.46,2.42,2.42,0,0,0,.86.16,1.51,1.51,0,0,0,.95-.27,2,2,0,0,0,.6-.85l.49-1.22.29-.37,3.56-8.81h3.51l-4.53,10.92a7,7,0,0,1-1.25,2.12A4.11,4.11,0,0,1,765,595,5.8,5.8,0,0,1,763.12,595.33Z"></path><path class="cls-17" d="M777,591.57a10.84,10.84,0,0,1-2.61-.31,7.65,7.65,0,0,1-2-.77l1.1-2.52a6.32,6.32,0,0,0,1.73.7,7.3,7.3,0,0,0,1.93.27,3,3,0,0,0,1.29-.2.58.58,0,0,0,.36-.52.48.48,0,0,0-.34-.46,3.84,3.84,0,0,0-.89-.22l-1.21-.17c-.44-.07-.88-.15-1.33-.26a4.26,4.26,0,0,1-1.22-.51,2.43,2.43,0,0,1-.88-.92,3.18,3.18,0,0,1,.26-3.26,3.92,3.92,0,0,1,1.74-1.24,7.62,7.62,0,0,1,2.79-.45,11.39,11.39,0,0,1,2.23.22,6.2,6.2,0,0,1,1.91.67l-1.1,2.49a5.67,5.67,0,0,0-1.55-.61,7.12,7.12,0,0,0-1.48-.16,2.86,2.86,0,0,0-1.3.21.63.63,0,0,0-.38.53.52.52,0,0,0,.33.47,3.11,3.11,0,0,0,.88.25l1.21.18a9.18,9.18,0,0,1,1.33.26,4.56,4.56,0,0,1,1.22.51,2.56,2.56,0,0,1,.88.91,2.89,2.89,0,0,1,.33,1.46,2.84,2.84,0,0,1-.59,1.75,4.12,4.12,0,0,1-1.75,1.24A7.63,7.63,0,0,1,777,591.57Z"></path><path class="cls-17" d="M785.59,579.74a2.34,2.34,0,0,1-1.63-.56,1.83,1.83,0,0,1-.62-1.4,1.81,1.81,0,0,1,.62-1.39,2.29,2.29,0,0,1,1.63-.56,2.36,2.36,0,0,1,1.62.53,1.72,1.72,0,0,1,.62,1.36,1.9,1.9,0,0,1-.61,1.45A2.28,2.28,0,0,1,785.59,579.74Zm-1.84,11.66V580.9h3.68v10.5Z"></path><path class="cls-17" d="M793.12,591.57a4.73,4.73,0,0,1-2.13-.43,3,3,0,0,1-1.78-2.8,2.85,2.85,0,0,1,.49-1.68,3.09,3.09,0,0,1,1.52-1.08,7.63,7.63,0,0,1,2.65-.38h2.48v1.92h-2a2,2,0,0,0-1.25.29.93.93,0,0,0-.36.77,1,1,0,0,0,.37.78,1.6,1.6,0,0,0,1,.29,2.05,2.05,0,0,0,1.09-.3A1.79,1.79,0,0,0,796,588l.5,1.35a2.69,2.69,0,0,1-1.13,1.64A4,4,0,0,1,793.12,591.57Zm3.1-.17v-2L796,589v-3.61a1.68,1.68,0,0,0-.54-1.34,2.47,2.47,0,0,0-1.69-.48,4.85,4.85,0,0,0-1.53.25,4.08,4.08,0,0,0-1.32.66L789.65,582a7.34,7.34,0,0,1,2.14-.91,10.11,10.11,0,0,1,2.49-.31,6,6,0,0,1,4,1.17,4.5,4.5,0,0,1,1.41,3.67v5.83Z"></path><path class="cls-17" d="M722.36,615.88V602.37h6.06a5,5,0,0,1,2.52.55,3.34,3.34,0,0,1,1.34,1.38,3.72,3.72,0,0,1,.41,1.64,3.18,3.18,0,0,1-.56,2,3.23,3.23,0,0,1-1.26,1,4.65,4.65,0,0,1,1.15.59,3.14,3.14,0,0,1,1,1.07,3.33,3.33,0,0,1,.39,1.69,3.26,3.26,0,0,1-1.15,2.53,5.09,5.09,0,0,1-3.46,1Zm1.53-7.47h4.53a3.71,3.71,0,0,0,1.34-.24,2.34,2.34,0,0,0,1-.77,2.14,2.14,0,0,0,.39-1.33,2.43,2.43,0,0,0-.26-1.09,2,2,0,0,0-.82-.83,2.93,2.93,0,0,0-1.5-.33h-4.69Zm0,6h5a3.46,3.46,0,0,0,2.15-.58,2,2,0,0,0,.77-1.64,2.32,2.32,0,0,0-.74-1.69,3.25,3.25,0,0,0-2.34-.72h-4.88Z"></path><path class="cls-17" d="M735.48,604v-2h1.65v2Zm.06,11.92v-10.2h1.53v10.2Z"></path><path class="cls-17" d="M743.44,616a5.35,5.35,0,0,1-2.38-.47,3.57,3.57,0,0,1-1.48-1.23,3.34,3.34,0,0,1-.57-1.66h1.59a2.38,2.38,0,0,0,.36,1,2.12,2.12,0,0,0,.91.77,3.64,3.64,0,0,0,1.59.3,5.86,5.86,0,0,0,.75-.06,3.72,3.72,0,0,0,.87-.23,1.74,1.74,0,0,0,.7-.49,1.22,1.22,0,0,0,.29-.83,1.11,1.11,0,0,0-.49-1,3.86,3.86,0,0,0-1.26-.54c-.52-.13-1.07-.26-1.65-.38a10.41,10.41,0,0,1-1.64-.48,3.17,3.17,0,0,1-1.26-.84,2.1,2.1,0,0,1-.49-1.48,2.53,2.53,0,0,1,1-2.15,4.87,4.87,0,0,1,3-.76,5,5,0,0,1,2.2.41,3.26,3.26,0,0,1,1.28,1.07,3,3,0,0,1,.52,1.41h-1.55a1.71,1.71,0,0,0-.64-1.12,2.9,2.9,0,0,0-1.85-.47c-1.62,0-2.42.49-2.42,1.47a1.06,1.06,0,0,0,.49.94,3.89,3.89,0,0,0,1.26.52c.52.13,1.06.25,1.64.37a8.75,8.75,0,0,1,1.65.48,3.25,3.25,0,0,1,1.26.86,2.22,2.22,0,0,1,.49,1.52,2.61,2.61,0,0,1-1.13,2.28A5.28,5.28,0,0,1,743.44,616Z"></path><path class="cls-17" d="M754,616a4.89,4.89,0,0,1-2.66-.7,4.79,4.79,0,0,1-1.74-1.91,6,6,0,0,1,0-5.31,4.76,4.76,0,0,1,1.74-1.9,4.89,4.89,0,0,1,2.66-.7,5.1,5.1,0,0,1,3.09.93,4.62,4.62,0,0,1,1.72,2.43h-1.65a3.19,3.19,0,0,0-1.11-1.43,3.14,3.14,0,0,0-1.85-.55,3.62,3.62,0,0,0-2,.53,3.54,3.54,0,0,0-1.28,1.41,4.39,4.39,0,0,0,0,3.87,3.5,3.5,0,0,0,1.28,1.42,3.62,3.62,0,0,0,2,.53,3.14,3.14,0,0,0,1.85-.55,3.19,3.19,0,0,0,1.11-1.43h1.65A4.56,4.56,0,0,1,757,615.1,5,5,0,0,1,754,616Z"></path><path class="cls-17" d="M764.64,616a4,4,0,0,1-2-.5,3.82,3.82,0,0,1-1.52-1.49,4.7,4.7,0,0,1-.58-2.43v-5.94h1.53v5.89a3.11,3.11,0,0,0,.8,2.24,2.73,2.73,0,0,0,2.05.85,3.08,3.08,0,0,0,2.67-1.49,3.17,3.17,0,0,0,.41-1.62v-5.87h1.53v10.2H768v-1.59a5,5,0,0,1-1.34,1.24A3.72,3.72,0,0,1,764.64,616Z"></path><path class="cls-17" d="M772.14,604v-2h1.66v2Zm.07,11.92v-10.2h1.53v10.2Z"></path><path class="cls-17" d="M777.49,615.88V607h-2.08v-1.35h2.08V602H779v3.65h2.35V607H779v8.85Z"></path><path class="cls-17" d="M786.75,616a5.27,5.27,0,0,1-2.37-.47,3.57,3.57,0,0,1-1.48-1.23,3.34,3.34,0,0,1-.57-1.66h1.59a2.51,2.51,0,0,0,.35,1,2.12,2.12,0,0,0,.91.77,3.64,3.64,0,0,0,1.59.3,5.86,5.86,0,0,0,.76-.06,3.72,3.72,0,0,0,.87-.23,1.82,1.82,0,0,0,.7-.49,1.22,1.22,0,0,0,.29-.83,1.14,1.14,0,0,0-.49-1,3.83,3.83,0,0,0-1.27-.54c-.52-.13-1.06-.26-1.64-.38a10.11,10.11,0,0,1-1.64-.48,3.28,3.28,0,0,1-1.27-.84,2.1,2.1,0,0,1-.49-1.48,2.55,2.55,0,0,1,1-2.15,6.17,6.17,0,0,1,5.18-.35,3.06,3.06,0,0,1,1.81,2.48H789a1.75,1.75,0,0,0-.64-1.12,2.92,2.92,0,0,0-1.85-.47q-2.43,0-2.43,1.47a1.06,1.06,0,0,0,.49.94,4,4,0,0,0,1.27.52c.51.13,1.06.25,1.64.37a8.65,8.65,0,0,1,1.64.48,3.21,3.21,0,0,1,1.27.86,2.27,2.27,0,0,1,.49,1.52,2.6,2.6,0,0,1-1.14,2.28A5.23,5.23,0,0,1,786.75,616Z"></path><path class="cls-17" d="M715.69,663.6V653.09h-4.16v-3h12.14v3h-4.14V663.6Z"></path><path class="cls-17" d="M731.77,652.93a4.81,4.81,0,0,1,2.2.5,3.57,3.57,0,0,1,1.56,1.52,5.42,5.42,0,0,1,.57,2.65v6h-3.68v-5.4a2.47,2.47,0,0,0-.45-1.64,1.61,1.61,0,0,0-1.27-.51,2.22,2.22,0,0,0-1.06.26,1.76,1.76,0,0,0-.76.81,3.16,3.16,0,0,0-.27,1.41v5.07h-3.68V649.23h3.68v6.86l-.85-.87a4.07,4.07,0,0,1,1.64-1.72A4.89,4.89,0,0,1,731.77,652.93Z"></path><path class="cls-17" d="M741.72,663.78a4.73,4.73,0,0,1-2.13-.43,3.15,3.15,0,0,1-1.33-1.16,3.1,3.1,0,0,1-.45-1.65,2.84,2.84,0,0,1,.49-1.67,3.17,3.17,0,0,1,1.52-1.09,7.92,7.92,0,0,1,2.66-.37H745v1.91h-2a2.07,2.07,0,0,0-1.25.29,1,1,0,0,0-.36.78.92.92,0,0,0,.37.77,1.56,1.56,0,0,0,1,.29,2.05,2.05,0,0,0,1.09-.3,1.75,1.75,0,0,0,.73-.92l.5,1.36a2.72,2.72,0,0,1-1.13,1.64A4.05,4.05,0,0,1,741.72,663.78Zm3.1-.18v-2l-.25-.49v-3.6a1.68,1.68,0,0,0-.54-1.34,2.47,2.47,0,0,0-1.69-.48,5.19,5.19,0,0,0-1.53.24,4.1,4.1,0,0,0-1.32.67l-1.24-2.5a7.62,7.62,0,0,1,2.14-.9,10.25,10.25,0,0,1,2.49-.32,6,6,0,0,1,4,1.17,4.52,4.52,0,0,1,1.41,3.67v5.83Z"></path><path class="cls-17" d="M752.41,652a2.33,2.33,0,0,1-1.63-.57,1.81,1.81,0,0,1-.62-1.39,1.83,1.83,0,0,1,.62-1.4,2.37,2.37,0,0,1,1.63-.56,2.41,2.41,0,0,1,1.63.54,1.72,1.72,0,0,1,.62,1.36,1.91,1.91,0,0,1-.61,1.44A2.33,2.33,0,0,1,752.41,652Zm-1.84,11.65V653.11h3.68V663.6Z"></path><path class="cls-17" d="M756.63,663.6V649.23h3.68V663.6Z"></path><path class="cls-17" d="M766,663.78a4.8,4.8,0,0,1-2.14-.43,3.07,3.07,0,0,1-1.32-1.16,3,3,0,0,1-.46-1.65,2.84,2.84,0,0,1,.5-1.67,3.12,3.12,0,0,1,1.52-1.09,7.86,7.86,0,0,1,2.65-.37h2.48v1.91h-2a2,2,0,0,0-1.24.29,1,1,0,0,0-.36.78.92.92,0,0,0,.37.77,1.53,1.53,0,0,0,1,.29,2.09,2.09,0,0,0,1.1-.3,1.69,1.69,0,0,0,.72-.92l.51,1.36a2.77,2.77,0,0,1-1.14,1.64A4,4,0,0,1,766,663.78Zm3.09-.18v-2l-.25-.49v-3.6a1.7,1.7,0,0,0-.53-1.34,2.5,2.5,0,0,0-1.7-.48,5.07,5.07,0,0,0-1.52.24,4.1,4.1,0,0,0-1.32.67l-1.24-2.5a7.49,7.49,0,0,1,2.14-.9,10.12,10.12,0,0,1,2.49-.32,6,6,0,0,1,4,1.17,4.55,4.55,0,0,1,1.4,3.67v5.83Z"></path><path class="cls-17" d="M781.69,652.93a4.85,4.85,0,0,1,2.21.5,3.57,3.57,0,0,1,1.56,1.52,5.42,5.42,0,0,1,.57,2.65v6h-3.68v-5.4a2.47,2.47,0,0,0-.45-1.64,1.63,1.63,0,0,0-1.27-.51,2.26,2.26,0,0,0-1.07.26,1.79,1.79,0,0,0-.75.81,3.16,3.16,0,0,0-.27,1.41v5.07h-3.68V653.11h3.5v3l-.68-.87a4,4,0,0,1,1.65-1.72A4.85,4.85,0,0,1,781.69,652.93Z"></path><path class="cls-17" d="M793,663.78a5.11,5.11,0,0,1-2.6-.67,5,5,0,0,1-1.87-1.88,6.3,6.3,0,0,1,0-5.77,4.87,4.87,0,0,1,1.87-1.87,5.21,5.21,0,0,1,2.6-.66,4.36,4.36,0,0,1,2.3.58,3.64,3.64,0,0,1,1.42,1.79,8.24,8.24,0,0,1,.48,3,8.69,8.69,0,0,1-.46,3.08,3.53,3.53,0,0,1-1.4,1.78A4.39,4.39,0,0,1,793,663.78Zm.78-2.93a2.09,2.09,0,0,0,1.11-.29,2,2,0,0,0,.78-.86,2.87,2.87,0,0,0,.29-1.36,2.81,2.81,0,0,0-.29-1.35,2,2,0,0,0-.78-.84,2.09,2.09,0,0,0-1.11-.29,2.15,2.15,0,0,0-1.14.29,2,2,0,0,0-.78.84,2.93,2.93,0,0,0-.29,1.35,3,3,0,0,0,.29,1.36,2,2,0,0,0,.78.86A2.15,2.15,0,0,0,793.82,660.85Zm2.3,2.75v-1.8l0-3.46-.19-3.47v-5.64h3.68V663.6Z"></path><path class="cls-17" d="M727.86,688.09l-4.2-13.51h1.61l3.47,11.34,3.63-11.34h1.75l3.64,11.34,3.46-11.34h1.62l-4.21,13.51H736.9l-3.65-11.35-3.66,11.35Z"></path><path class="cls-17" d="M748,688.25a4.67,4.67,0,0,1-4.33-2.61,6.1,6.1,0,0,1,0-5.32,4.73,4.73,0,0,1,4.33-2.6,4.57,4.57,0,0,1,2.17.49,4.12,4.12,0,0,1,1.48,1.33v-1.65h1.53v10.2h-1.53v-1.63a4.24,4.24,0,0,1-1.48,1.3A4.46,4.46,0,0,1,748,688.25Zm.2-1.39a3.23,3.23,0,0,0,3.12-2,4.75,4.75,0,0,0,0-3.86,3.35,3.35,0,0,0-1.19-1.41,3.4,3.4,0,0,0-1.93-.53,3.52,3.52,0,0,0-1.94.53,3.39,3.39,0,0,0-1.24,1.41,4.55,4.55,0,0,0,0,3.86,3.36,3.36,0,0,0,1.24,1.42A3.44,3.44,0,0,0,748.18,686.86Z"></path><path class="cls-17" d="M756.51,688.09v-8.86h-1.76v-1.34h1.76V677a3,3,0,0,1,1-2.51,4.17,4.17,0,0,1,2.76-.84h.12v1.45h-.2a2.36,2.36,0,0,0-1.61.48,1.93,1.93,0,0,0-.55,1.54v.78h2.36v1.34H758v8.86Z"></path><path class="cls-17" d="M766.4,688.25a5.11,5.11,0,0,1-2.71-.7,4.89,4.89,0,0,1-1.81-1.91,5.52,5.52,0,0,1-.64-2.65,5.76,5.76,0,0,1,.61-2.67,4.71,4.71,0,0,1,1.76-1.89,5.47,5.47,0,0,1,5.39,0,4.75,4.75,0,0,1,1.75,1.89,5.76,5.76,0,0,1,.61,2.67v.61h-8.55a4.23,4.23,0,0,0,.58,1.64,3.35,3.35,0,0,0,1.24,1.18,3.47,3.47,0,0,0,1.79.44,3.27,3.27,0,0,0,1.82-.48,3.36,3.36,0,0,0,1.14-1.23h1.67a4.91,4.91,0,0,1-1.68,2.23A4.8,4.8,0,0,1,766.4,688.25Zm-3.57-6.08h6.94a3.83,3.83,0,0,0-1.1-2.18,3.23,3.23,0,0,0-2.37-.88,3.19,3.19,0,0,0-2.36.88A3.91,3.91,0,0,0,762.83,682.17Z"></path><path class="cls-17" d="M773.24,688.09v-10.2h1.53v2.51a4.13,4.13,0,0,1,.31-.71,4,4,0,0,1,.69-.89,4,4,0,0,1,1.13-.76,3.8,3.8,0,0,1,1.62-.32h.1v1.53h-.18a3.16,3.16,0,0,0-2,.63,4.06,4.06,0,0,0-1.27,1.61,5.17,5.17,0,0,0-.43,2.11v4.49Z"></path><path class="cls-17" d="M784,688.25a5.49,5.49,0,0,1-2.38-.47,3.63,3.63,0,0,1-1.48-1.23,3.37,3.37,0,0,1-.57-1.67h1.59a2.38,2.38,0,0,0,.36,1,2.14,2.14,0,0,0,.91.78,3.64,3.64,0,0,0,1.59.3,6.13,6.13,0,0,0,.75-.07,3.7,3.7,0,0,0,.87-.22,1.74,1.74,0,0,0,.7-.49,1.19,1.19,0,0,0,.29-.84,1.14,1.14,0,0,0-.49-1,3.86,3.86,0,0,0-1.26-.54c-.52-.13-1.07-.25-1.65-.37a13.6,13.6,0,0,1-1.64-.48,3.17,3.17,0,0,1-1.26-.84,2.1,2.1,0,0,1-.49-1.48,2.53,2.53,0,0,1,1-2.15,4.89,4.89,0,0,1,3-.77,5,5,0,0,1,2.2.42,3.26,3.26,0,0,1,1.28,1.07,3,3,0,0,1,.52,1.41h-1.55a1.68,1.68,0,0,0-.64-1.12,2.9,2.9,0,0,0-1.85-.47c-1.61,0-2.42.49-2.42,1.47a1.06,1.06,0,0,0,.49.94,4.12,4.12,0,0,0,1.26.52c.52.13,1.07.25,1.64.36a10.53,10.53,0,0,1,1.65.48,3.38,3.38,0,0,1,1.26.87,2.21,2.21,0,0,1,.49,1.52,2.63,2.63,0,0,1-1.13,2.28A5.28,5.28,0,0,1,784,688.25Z"></path><rect class="cls-22" x="353.5" y="763.13" width="215.06" height="104.56" rx="12"></rect><path class="cls-23" d="M423.81,779.19v68.39H404.47V794.14h-12.7V779.19Z"></path><path class="cls-23" d="M432.51,843l5.57-12.7a37.12,37.12,0,0,0,18.46,4.89c6.26,0,8.31-1.37,8.31-3.62,0-7.13-31.27,1-31.27-20.23,0-10,9.19-17.58,25.8-17.58,7.42,0,15.63,1.56,20.91,4.49l-5.57,12.61a31,31,0,0,0-15.25-3.91c-6.25,0-8.5,1.76-8.5,3.71,0,7.33,31.17-.59,31.17,20.42,0,9.77-9,17.39-26.18,17.39C447,848.46,437.69,846.22,432.51,843Z"></path><path class="cls-23" d="M526.7,845.43c-3.23,2.06-8,3-12.9,3-13.58,0-21.5-6.64-21.5-20.22V810.46h-7.72V796.58h7.72V782.8h18.57v13.78H523v13.88H510.87V828c0,3.91,2.24,6.06,5.57,6.06a10.17,10.17,0,0,0,5.66-1.66Z"></path><rect class="cls-24" x="668.44" y="801.29" width="178.19" height="86.63" rx="12"></rect><path class="cls-23" d="M727.79,863V875H686.45v-9.41L706.32,847c4.25-3.94,4.86-6.37,4.86-8.57,0-3.41-2.28-5.46-6.83-5.46a10.83,10.83,0,0,0-9.48,5.16l-11.16-6.22c4-6.68,11.54-11.08,22-11.08,12.21,0,20.63,6.3,20.63,16.16,0,5.16-1.44,9.86-9,16.84l-10,9.26Z"></path><path class="cls-23" d="M778,851.43V875H763.6V853.78c0-5.92-2.58-8.42-6.75-8.42-4.63,0-8.19,2.88-8.19,9.71V875H734.24V833.83H748v4.47a17.69,17.69,0,0,1,13-5.15C770.66,833.15,778,838.68,778,851.43Z"></path><path class="cls-23" d="M831.35,818.66V875H817.62v-4.1c-2.73,3.26-6.75,4.78-12.06,4.78-11.23,0-20.26-8.19-20.26-21.32s9-21.16,20.26-21.16c4.78,0,8.64,1.36,11.38,4.24V818.66Zm-14.19,35.65c0-6.22-3.71-9.71-8.57-9.71s-8.65,3.49-8.65,9.71,3.72,9.86,8.65,9.86S817.16,860.61,817.16,854.31Z"></path><rect class="cls-25" x="111.73" y="829.37" width="130.34" height="63.37" rx="12"></rect><path class="cls-23" d="M161.7,869.57c0,7-5.53,13.7-17.93,13.7-5.7,0-11.75-1.41-16-4.06l4.23-8.76a20.82,20.82,0,0,0,11.4,3.41c3.94,0,6.52-1.53,6.52-4.29,0-2.47-1.82-4-6.28-4h-4.88v-7.35l7.34-7.94H129.9v-9h29.74v7.29l-8.52,9.17C158.05,859.23,161.7,863.7,161.7,869.57Z"></path><path class="cls-23" d="M188.38,850.06v10.05a19.74,19.74,0,0,0-2.52-.18c-4.53,0-7.64,2.3-7.64,7.88v14.63H167.05V850.59h10.64v3.82C180,851.53,183.68,850.06,188.38,850.06Z"></path><path class="cls-23" d="M226.53,838.83v43.61H215.89v-3.17c-2.11,2.53-5.23,3.7-9.34,3.7-8.7,0-15.69-6.34-15.69-16.51s7-16.4,15.69-16.4c3.7,0,6.7,1.06,8.81,3.29V838.83Zm-11,27.63c0-4.82-2.88-7.53-6.64-7.53s-6.7,2.71-6.7,7.53,2.88,7.64,6.7,7.64S215.54,871.34,215.54,866.46Z"></path></g></g></svg> 