<?xml version="1.0" encoding="UTF-8"?> <svg xmlns="http://www.w3.org/2000/svg" xmlns:xlink="http://www.w3.org/1999/xlink" viewBox="0 0 542.6 1341"><defs><style>.cls-1{fill:url(#linear-gradient);}.cls-2{fill:url(#linear-gradient-2);}.cls-3{fill:url(#linear-gradient-3);}.cls-4{fill:#fff;}.cls-5{fill:url(#linear-gradient-4);}.cls-6{fill:url(#linear-gradient-5);}.cls-7{fill:url(#linear-gradient-6);}.cls-8{fill:url(#linear-gradient-7);}.cls-9{fill:url(#linear-gradient-8);}.cls-10{fill:url(#linear-gradient-9);}.cls-11{fill:url(#linear-gradient-10);}.cls-12{fill:url(#linear-gradient-11);}.cls-13{fill:url(#linear-gradient-12);}.cls-14{fill:url(#linear-gradient-13);}.cls-15{fill:url(#linear-gradient-14);}.cls-16{fill:url(#linear-gradient-15);}.cls-17{fill:url(#linear-gradient-16);}.cls-18{fill:url(#linear-gradient-17);}.cls-19{fill:url(#linear-gradient-18);}.cls-20{fill:url(#linear-gradient-19);}.cls-21{fill:url(#linear-gradient-20);}.cls-22{fill:url(#linear-gradient-21);}.cls-23{fill:url(#linear-gradient-22);}.cls-24{fill:url(#linear-gradient-23);}.cls-25{fill:url(#linear-gradient-24);}.cls-26{fill:url(#linear-gradient-25);}.cls-27{fill:url(#linear-gradient-26);}.cls-28{fill:url(#linear-gradient-27);}.cls-29{fill:url(#linear-gradient-28);}.cls-30{fill:url(#linear-gradient-29);}.cls-31{fill:url(#linear-gradient-30);}</style><linearGradient id="linear-gradient" x1="-505.6" y1="-157.75" x2="-72.28" y2="-157.75" gradientTransform="matrix(1, 0.08, -0.05, 0.98, 894.72, 1036.72)" gradientUnits="userSpaceOnUse"><stop offset="0.3" stop-color="#fcdcda"></stop><stop offset="1" stop-color="#3e2b58"></stop></linearGradient><linearGradient id="linear-gradient-2" y1="436.56" x2="797.66" y2="436.56" gradientUnits="userSpaceOnUse"><stop offset="0" stop-color="#bad8df"></stop><stop offset="1" stop-color="#fcdcda"></stop></linearGradient><linearGradient id="linear-gradient-3" y1="383.13" x2="764.95" y2="383.13" gradientUnits="userSpaceOnUse"><stop offset="0" stop-color="#ee2741"></stop><stop offset="1" stop-color="#a03594"></stop></linearGradient><linearGradient id="linear-gradient-4" x1="31.94" y1="1330.04" x2="163.78" y2="1330.04" gradientUnits="userSpaceOnUse"><stop offset="0" stop-color="#ed2741"></stop><stop offset="0.91" stop-color="#fcdcda"></stop></linearGradient><linearGradient id="linear-gradient-5" x1="36.94" y1="1308.83" x2="168.77" y2="1308.83" xlink:href="#linear-gradient-4"></linearGradient><linearGradient id="linear-gradient-6" x1="26.95" y1="1286.92" x2="274.34" y2="1286.92" xlink:href="#linear-gradient-4"></linearGradient><linearGradient id="linear-gradient-7" x1="42.76" y1="1265.01" x2="174.59" y2="1265.01" xlink:href="#linear-gradient-4"></linearGradient><linearGradient id="linear-gradient-8" x1="36.93" y1="1245.1" x2="120.35" y2="1245.03" xlink:href="#linear-gradient-4"></linearGradient><linearGradient id="linear-gradient-9" x1="380.59" y1="1330.04" x2="512.42" y2="1330.04" xlink:href="#linear-gradient-4"></linearGradient><linearGradient id="linear-gradient-10" x1="385.58" y1="1308.83" x2="517.41" y2="1308.83" xlink:href="#linear-gradient-4"></linearGradient><linearGradient id="linear-gradient-11" x1="375.59" y1="1286.92" x2="622.98" y2="1286.92" xlink:href="#linear-gradient-4"></linearGradient><linearGradient id="linear-gradient-12" x1="391.4" y1="1265.01" x2="523.23" y2="1265.01" xlink:href="#linear-gradient-4"></linearGradient><linearGradient id="linear-gradient-13" x1="385.57" y1="1245.1" x2="469" y2="1245.03" xlink:href="#linear-gradient-4"></linearGradient><linearGradient id="linear-gradient-14" x1="380.57" y1="1223.2" x2="483.77" y2="1223.1" xlink:href="#linear-gradient-4"></linearGradient><linearGradient id="linear-gradient-15" x1="375.58" y1="1201.29" x2="610.71" y2="1201.07" xlink:href="#linear-gradient-4"></linearGradient><linearGradient id="linear-gradient-16" x1="380.57" y1="1179.38" x2="485.92" y2="1179.29" xlink:href="#linear-gradient-4"></linearGradient><linearGradient id="linear-gradient-17" x1="375.58" y1="1158.73" x2="480.93" y2="1158.63" xlink:href="#linear-gradient-4"></linearGradient><linearGradient id="linear-gradient-18" x1="204.22" y1="1330.04" x2="336.05" y2="1330.04" xlink:href="#linear-gradient-4"></linearGradient><linearGradient id="linear-gradient-19" x1="209.21" y1="1308.83" x2="341.04" y2="1308.83" xlink:href="#linear-gradient-4"></linearGradient><linearGradient id="linear-gradient-20" x1="199.23" y1="1286.92" x2="446.62" y2="1286.92" xlink:href="#linear-gradient-4"></linearGradient><linearGradient id="linear-gradient-21" x1="215.03" y1="1265.01" x2="346.87" y2="1265.01" xlink:href="#linear-gradient-4"></linearGradient><linearGradient id="linear-gradient-22" x1="209.2" y1="1245.1" x2="292.63" y2="1245.03" xlink:href="#linear-gradient-4"></linearGradient><linearGradient id="linear-gradient-23" x1="199.22" y1="1223.2" x2="302.41" y2="1223.1" xlink:href="#linear-gradient-4"></linearGradient><linearGradient id="linear-gradient-24" x1="215.02" y1="1201.29" x2="450.15" y2="1201.07" xlink:href="#linear-gradient-4"></linearGradient><linearGradient id="linear-gradient-25" x1="209.2" y1="1179.38" x2="314.55" y2="1179.29" xlink:href="#linear-gradient-4"></linearGradient><linearGradient id="linear-gradient-26" x1="204.21" y1="1158.73" x2="309.56" y2="1158.63" xlink:href="#linear-gradient-4"></linearGradient><linearGradient id="linear-gradient-27" x1="207.54" y1="1136.82" x2="312.88" y2="1136.72" xlink:href="#linear-gradient-4"></linearGradient><linearGradient id="linear-gradient-28" x1="215.02" y1="1114.91" x2="320.37" y2="1114.82" xlink:href="#linear-gradient-4"></linearGradient><linearGradient id="linear-gradient-29" x1="209.2" y1="1092.66" x2="314.55" y2="1092.56" xlink:href="#linear-gradient-4"></linearGradient><linearGradient id="linear-gradient-30" x1="2147.37" y1="3714.37" x2="2252.72" y2="3714.28" gradientTransform="translate(-1938.17 -2714.09)" xlink:href="#linear-gradient-4"></linearGradient></defs><g id="Layer_2" data-name="Layer 2"><g id="Design"><path class="cls-1" d="M418.07,763.74,300.4,680.15,170.1,736.78,181.44,752l-64,35.8L240.2,963l4.77-1.84a46.8,46.8,0,0,0,29.92-48.49l-1.12-11.34a102.71,102.71,0,0,0-18.63-49.36l-5.25-7.37a8.13,8.13,0,0,1,4.69-12.76l36.31-8.67a60.68,60.68,0,0,1,68.61,33.29h0l.79,87.45c2.77,18,10.5,27.87,22.86,39.34l12.46,11.56,13.44-121,49.43,77a44.29,44.29,0,0,0,42,20l42.14-4.7L458.42,803.64A92.75,92.75,0,0,0,418.07,763.74Z"></path><path class="cls-2" d="M365.34,700.67l-20.85,10.79L138.61,818l-10.36,5.36L88.8,757.49,0,609.18V49.76A177.18,177.18,0,0,1,9.88,65.43l318,568.33Z"></path><polygon class="cls-3" points="350.36 622.14 327.9 633.76 88.8 757.49 71.87 766.25 0 646.53 0 0 2.23 0 350.36 622.14"></polygon><ellipse class="cls-4" cx="92.48" cy="690.71" rx="26.18" ry="27.13" transform="translate(-559.36 444.27) rotate(-61.66)"></ellipse><rect class="cls-5" x="31.94" y="1319.09" width="131.83" height="21.91"></rect><rect class="cls-6" x="36.94" y="1297.87" width="131.83" height="21.91"></rect><rect class="cls-7" x="26.95" y="1275.97" width="131.83" height="21.91"></rect><rect class="cls-8" x="42.76" y="1254.06" width="131.83" height="21.91"></rect><rect class="cls-9" x="36.94" y="1234.09" width="131.83" height="21.91"></rect><rect class="cls-10" x="380.59" y="1319.09" width="131.83" height="21.91"></rect><rect class="cls-11" x="385.58" y="1297.87" width="131.83" height="21.91"></rect><rect class="cls-12" x="375.59" y="1275.97" width="131.83" height="21.91"></rect><rect class="cls-13" x="391.4" y="1254.06" width="131.83" height="21.91"></rect><rect class="cls-14" x="385.58" y="1234.09" width="131.83" height="21.91"></rect><rect class="cls-15" x="380.59" y="1212.18" width="131.83" height="21.91"></rect><rect class="cls-16" x="375.59" y="1190.28" width="131.83" height="21.91"></rect><rect class="cls-17" x="380.59" y="1168.37" width="131.83" height="21.91"></rect><rect class="cls-18" x="375.59" y="1147.71" width="131.83" height="21.91"></rect><rect class="cls-19" x="204.22" y="1319.09" width="131.83" height="21.91"></rect><rect class="cls-20" x="209.21" y="1297.87" width="131.83" height="21.91"></rect><rect class="cls-21" x="199.23" y="1275.97" width="131.83" height="21.91"></rect><rect class="cls-22" x="215.03" y="1254.06" width="131.83" height="21.91"></rect><rect class="cls-23" x="209.21" y="1234.09" width="131.83" height="21.91"></rect><rect class="cls-24" x="199.23" y="1212.18" width="131.83" height="21.91"></rect><rect class="cls-25" x="215.03" y="1190.28" width="131.83" height="21.91"></rect><rect class="cls-26" x="209.21" y="1168.37" width="131.83" height="21.91"></rect><rect class="cls-27" x="204.22" y="1147.71" width="131.83" height="21.91"></rect><rect class="cls-28" x="207.55" y="1125.8" width="131.83" height="21.91"></rect><rect class="cls-29" x="215.03" y="1103.9" width="131.83" height="21.91"></rect><rect class="cls-30" x="209.21" y="1081.65" width="131.83" height="21.91"></rect><rect class="cls-31" x="209.21" y="989.27" width="131.83" height="21.91" transform="translate(-267.02 115.79) rotate(-16.13)"></rect></g></g></svg> 