<?xml version="1.0" encoding="UTF-8"?> <svg xmlns="http://www.w3.org/2000/svg" xmlns:xlink="http://www.w3.org/1999/xlink" viewBox="0 0 1021.57 780"><defs><style>.cls-1{fill:url(#linear-gradient);}.cls-2{fill:url(#linear-gradient-2);}.cls-3{fill:url(#linear-gradient-3);}.cls-4{fill:url(#linear-gradient-4);}.cls-5{fill:url(#linear-gradient-5);}.cls-6{fill:url(#linear-gradient-6);}.cls-7{fill:url(#linear-gradient-7);}.cls-8{fill:url(#linear-gradient-8);}.cls-9{fill:url(#linear-gradient-9);}.cls-10{fill:url(#linear-gradient-10);}.cls-11{fill:url(#linear-gradient-11);}.cls-12{fill:url(#linear-gradient-12);}.cls-13{fill:url(#linear-gradient-13);}.cls-14{fill:url(#linear-gradient-14);}.cls-15{fill:url(#linear-gradient-15);}.cls-16{fill:url(#linear-gradient-16);}.cls-17{fill:url(#linear-gradient-17);}.cls-18,.cls-44{fill:#fcdcda;}.cls-19,.cls-21{opacity:0.43;}.cls-19{fill:url(#linear-gradient-18);}.cls-20{fill:#ee2741;}.cls-21{fill:#dbbfbd;}.cls-22{fill:url(#linear-gradient-19);}.cls-23{fill:url(#linear-gradient-20);}.cls-24{fill:url(#linear-gradient-21);}.cls-25{fill:url(#linear-gradient-22);}.cls-26{fill:#3e2b58;}.cls-27{fill:#f1f1f2;}.cls-28{fill:url(#linear-gradient-23);}.cls-29{fill:url(#linear-gradient-24);}.cls-30{fill:url(#linear-gradient-25);}.cls-31{fill:url(#linear-gradient-26);}.cls-32{fill:url(#linear-gradient-27);}.cls-113,.cls-33,.cls-57,.cls-58{fill:none;}.cls-33,.cls-51,.cls-58{stroke:#fcdcda;}.cls-113,.cls-114,.cls-33,.cls-44,.cls-51{stroke-miterlimit:10;}.cls-34{fill:url(#linear-gradient-28);}.cls-35{fill:url(#linear-gradient-29);}.cls-36{fill:url(#linear-gradient-30);}.cls-37{fill:url(#linear-gradient-31);}.cls-38{fill:url(#linear-gradient-32);}.cls-39{fill:url(#linear-gradient-33);}.cls-40{fill:url(#linear-gradient-34);}.cls-41{fill:url(#linear-gradient-35);}.cls-42{fill:url(#linear-gradient-36);}.cls-43{fill:url(#linear-gradient-37);}.cls-44{stroke:#3e2b58;}.cls-44,.cls-51{stroke-width:0.75px;}.cls-45{fill:url(#linear-gradient-38);}.cls-46{fill:url(#linear-gradient-39);}.cls-47{fill:url(#linear-gradient-40);}.cls-48{fill:url(#linear-gradient-41);}.cls-49{fill:url(#linear-gradient-42);}.cls-50{fill:url(#linear-gradient-43);}.cls-51{fill:url(#linear-gradient-44);}.cls-52{fill:url(#linear-gradient-45);}.cls-53{fill:url(#linear-gradient-46);}.cls-54{fill:url(#linear-gradient-47);}.cls-55{fill:url(#linear-gradient-48);}.cls-56{fill:url(#linear-gradient-49);}.cls-57{stroke:#3e2c57;stroke-width:4px;}.cls-57,.cls-58{stroke-linecap:round;stroke-linejoin:round;}.cls-113,.cls-58{stroke-width:3px;}.cls-59{fill:url(#linear-gradient-50);}.cls-60{fill:url(#linear-gradient-51);}.cls-61{fill:url(#linear-gradient-52);}.cls-62{fill:url(#linear-gradient-53);}.cls-63{fill:url(#linear-gradient-54);}.cls-64{fill:url(#linear-gradient-55);}.cls-65{fill:url(#linear-gradient-56);}.cls-66{fill:url(#linear-gradient-57);}.cls-67{fill:url(#linear-gradient-58);}.cls-68{fill:url(#linear-gradient-59);}.cls-69{fill:url(#linear-gradient-60);}.cls-70{fill:url(#linear-gradient-61);}.cls-71{fill:url(#linear-gradient-62);}.cls-72{fill:url(#linear-gradient-63);}.cls-73{fill:url(#linear-gradient-64);}.cls-74{fill:url(#linear-gradient-65);}.cls-75{fill:url(#linear-gradient-66);}.cls-76{fill:url(#linear-gradient-67);}.cls-77{fill:url(#linear-gradient-68);}.cls-78{fill:url(#linear-gradient-69);}.cls-79{fill:url(#linear-gradient-70);}.cls-80{fill:url(#linear-gradient-71);}.cls-81{fill:url(#linear-gradient-72);}.cls-82{fill:url(#linear-gradient-73);}.cls-83{fill:url(#linear-gradient-74);}.cls-84{fill:url(#linear-gradient-75);}.cls-85{fill:url(#linear-gradient-76);}.cls-86{fill:url(#linear-gradient-77);}.cls-87{fill:url(#linear-gradient-78);}.cls-88{fill:url(#linear-gradient-79);}.cls-89{fill:url(#linear-gradient-80);}.cls-90{fill:url(#linear-gradient-81);}.cls-91{fill:url(#linear-gradient-82);}.cls-92{fill:url(#linear-gradient-83);}.cls-93{fill:url(#linear-gradient-84);}.cls-94{fill:url(#linear-gradient-85);}.cls-95{opacity:0.15;fill:url(#linear-gradient-86);}.cls-96{fill:url(#linear-gradient-87);}.cls-97{fill:url(#linear-gradient-88);}.cls-98{fill:url(#linear-gradient-89);}.cls-99{fill:url(#linear-gradient-90);}.cls-100{fill:url(#linear-gradient-91);}.cls-101{fill:url(#linear-gradient-92);}.cls-102{fill:url(#linear-gradient-93);}.cls-103{fill:url(#linear-gradient-94);}.cls-104,.cls-114{fill:#bad8df;}.cls-105{fill:url(#linear-gradient-95);}.cls-106{fill:url(#linear-gradient-96);}.cls-107{fill:url(#linear-gradient-97);}.cls-108{fill:url(#linear-gradient-98);}.cls-109{fill:url(#linear-gradient-99);}.cls-110{fill:url(#linear-gradient-100);}.cls-111{fill:url(#linear-gradient-101);}.cls-112{fill:url(#linear-gradient-102);}.cls-113,.cls-114{stroke:#bad8df;}</style><linearGradient id="linear-gradient" y1="390" x2="1019" y2="390" gradientUnits="userSpaceOnUse"><stop offset="0.42" stop-color="#bad8df"></stop><stop offset="1" stop-color="#fcdcda"></stop></linearGradient><linearGradient id="linear-gradient-2" x1="-170.18" y1="638.04" x2="900.82" y2="638.04" gradientUnits="userSpaceOnUse"><stop offset="0" stop-color="#3e2b58"></stop><stop offset="0.97" stop-color="#a03594"></stop></linearGradient><linearGradient id="linear-gradient-3" x1="191.51" y1="684.25" x2="1262.52" y2="684.25" xlink:href="#linear-gradient-2"></linearGradient><linearGradient id="linear-gradient-4" x1="970.59" y1="742.34" x2="2033.53" y2="742.34" xlink:href="#linear-gradient-2"></linearGradient><linearGradient id="linear-gradient-5" x1="459.63" y1="562.04" x2="751.01" y2="562.04" xlink:href="#linear-gradient-2"></linearGradient><linearGradient id="linear-gradient-6" x1="106.2" y1="365.06" x2="912.8" y2="365.06" xlink:href="#linear-gradient-2"></linearGradient><linearGradient id="linear-gradient-7" x1="135.71" y1="365.06" x2="1436.68" y2="365.06" gradientUnits="userSpaceOnUse"><stop offset="0.21" stop-color="#ec2942"></stop><stop offset="1" stop-color="#fcdcda"></stop></linearGradient><linearGradient id="linear-gradient-8" x1="403" y1="603.3" x2="616" y2="603.3" xlink:href="#linear-gradient-2"></linearGradient><linearGradient id="linear-gradient-9" x1="135.71" y1="215.87" x2="2319.81" y2="215.87" gradientUnits="userSpaceOnUse"><stop offset="0.16" stop-color="#bad8df"></stop><stop offset="1" stop-color="#fcdcda"></stop></linearGradient><linearGradient id="linear-gradient-10" x1="197.56" y1="215.87" x2="212.89" y2="215.87" gradientUnits="userSpaceOnUse"><stop offset="0" stop-color="#a03594"></stop><stop offset="1" stop-color="#ee2741"></stop></linearGradient><linearGradient id="linear-gradient-11" x1="151.09" y1="215.87" x2="166.43" y2="215.87" xlink:href="#linear-gradient-10"></linearGradient><linearGradient id="linear-gradient-12" x1="173.39" y1="215.87" x2="188.73" y2="215.87" xlink:href="#linear-gradient-10"></linearGradient><linearGradient id="linear-gradient-13" x1="262.26" y1="271.92" x2="756.75" y2="271.92" xlink:href="#linear-gradient-9"></linearGradient><linearGradient id="linear-gradient-14" x1="187.1" y1="394.93" x2="361.94" y2="394.93" xlink:href="#linear-gradient"></linearGradient><linearGradient id="linear-gradient-15" x1="164.26" y1="396.54" x2="390.81" y2="396.54" gradientUnits="userSpaceOnUse"><stop offset="0" stop-color="#ee2741"></stop><stop offset="0.63" stop-color="#fcdcda"></stop></linearGradient><linearGradient id="linear-gradient-16" x1="220.63" y1="466.26" x2="328.41" y2="466.26" gradientUnits="userSpaceOnUse"><stop offset="0" stop-color="#ee2741"></stop><stop offset="1" stop-color="#fcdcda"></stop></linearGradient><linearGradient id="linear-gradient-17" x1="220.63" y1="326.82" x2="328.41" y2="326.82" xlink:href="#linear-gradient-16"></linearGradient><linearGradient id="linear-gradient-18" x1="325.01" y1="461.68" x2="277.86" y2="414.53" gradientUnits="userSpaceOnUse"><stop offset="0.36" stop-color="#fcdcda"></stop><stop offset="0.65" stop-color="#c9afae"></stop></linearGradient><linearGradient id="linear-gradient-19" x1="249.55" y1="418.59" x2="368.65" y2="418.59" gradientTransform="translate(216.51 -81.86) rotate(26.51)" gradientUnits="userSpaceOnUse"><stop offset="0" stop-color="#ee2741"></stop><stop offset="0.55" stop-color="#fcdcda"></stop></linearGradient><linearGradient id="linear-gradient-20" x1="228.06" y1="420.03" x2="255.53" y2="420.03" gradientUnits="userSpaceOnUse"><stop offset="0" stop-color="#bad8df"></stop><stop offset="1" stop-color="#fcdcda"></stop></linearGradient><linearGradient id="linear-gradient-21" x1="228.57" y1="420.57" x2="257.97" y2="420.57" gradientUnits="userSpaceOnUse"><stop offset="0" stop-color="#3e2b58"></stop><stop offset="1" stop-color="#fcdcda"></stop></linearGradient><linearGradient id="linear-gradient-22" x1="280.58" y1="445.5" x2="315.72" y2="445.5" xlink:href="#linear-gradient-16"></linearGradient><linearGradient id="linear-gradient-23" x1="245.74" y1="448.94" x2="255.55" y2="448.94" xlink:href="#linear-gradient-21"></linearGradient><linearGradient id="linear-gradient-24" x1="250.06" y1="448.74" x2="261.17" y2="448.74" xlink:href="#linear-gradient-21"></linearGradient><linearGradient id="linear-gradient-25" x1="259.95" y1="452.84" x2="272.5" y2="452.84" xlink:href="#linear-gradient-21"></linearGradient><linearGradient id="linear-gradient-26" x1="261.04" y1="451.86" x2="272.04" y2="451.86" gradientUnits="userSpaceOnUse"><stop offset="0" stop-color="#a03594"></stop><stop offset="1" stop-color="#fcdcda"></stop></linearGradient><linearGradient id="linear-gradient-27" x1="249.57" y1="449.25" x2="256.28" y2="449.25" xlink:href="#linear-gradient-26"></linearGradient><linearGradient id="linear-gradient-28" x1="659.34" y1="394.93" x2="834.18" y2="394.93" xlink:href="#linear-gradient"></linearGradient><linearGradient id="linear-gradient-29" x1="687.37" y1="388.83" x2="803.94" y2="388.83" xlink:href="#linear-gradient-21"></linearGradient><linearGradient id="linear-gradient-30" x1="687.37" y1="468.62" x2="838.03" y2="468.62" xlink:href="#linear-gradient-21"></linearGradient><linearGradient id="linear-gradient-31" x1="733.84" y1="379.87" x2="757.48" y2="379.87" gradientUnits="userSpaceOnUse"><stop offset="0" stop-color="#3e2b58"></stop><stop offset="1" stop-color="#221730"></stop></linearGradient><linearGradient id="linear-gradient-32" x1="707.56" y1="347.5" x2="734.6" y2="347.5" xlink:href="#linear-gradient-31"></linearGradient><linearGradient id="linear-gradient-33" x1="756.9" y1="347.5" x2="783.94" y2="347.5" xlink:href="#linear-gradient-21"></linearGradient><linearGradient id="linear-gradient-34" x1="733.84" y1="347.77" x2="741.16" y2="347.77" xlink:href="#linear-gradient-31"></linearGradient><linearGradient id="linear-gradient-35" x1="741.16" y1="347.77" x2="744.72" y2="347.77" xlink:href="#linear-gradient-21"></linearGradient><linearGradient id="linear-gradient-36" x1="744.72" y1="347.77" x2="757.18" y2="347.77" xlink:href="#linear-gradient-21"></linearGradient><linearGradient id="linear-gradient-37" x1="698.07" y1="443.45" x2="849.12" y2="443.45" xlink:href="#linear-gradient-21"></linearGradient><linearGradient id="linear-gradient-38" x1="424.68" y1="394.93" x2="599.53" y2="394.93" xlink:href="#linear-gradient"></linearGradient><linearGradient id="linear-gradient-39" x1="244.13" y1="272" x2="345.78" y2="272" xlink:href="#linear-gradient-7"></linearGradient><linearGradient id="linear-gradient-40" x1="446.6" y1="407.54" x2="692.82" y2="407.54" xlink:href="#linear-gradient-21"></linearGradient><linearGradient id="linear-gradient-41" x1="446.62" y1="468.09" x2="577.94" y2="468.09" xlink:href="#linear-gradient-21"></linearGradient><linearGradient id="linear-gradient-42" x1="441.87" y1="324.23" x2="650.72" y2="324.23" xlink:href="#linear-gradient-21"></linearGradient><linearGradient id="linear-gradient-43" x1="441.87" y1="339.45" x2="774.2" y2="339.45" xlink:href="#linear-gradient-21"></linearGradient><linearGradient id="linear-gradient-44" x1="498.7" y1="339.74" x2="527.24" y2="339.74" gradientUnits="userSpaceOnUse"><stop offset="0" stop-color="#ed2741"></stop><stop offset="0.4" stop-color="#ed2943"></stop><stop offset="0.54" stop-color="#ee3048"></stop><stop offset="0.65" stop-color="#ef3b52"></stop><stop offset="0.73" stop-color="#f04c61"></stop><stop offset="0.8" stop-color="#f26273"></stop><stop offset="0.86" stop-color="#f47e8a"></stop><stop offset="0.92" stop-color="#f79ea6"></stop><stop offset="0.97" stop-color="#fac2c4"></stop><stop offset="1" stop-color="#fcdcda"></stop></linearGradient><linearGradient id="linear-gradient-45" x1="535.85" y1="407.54" x2="575.34" y2="407.54" xlink:href="#linear-gradient-44"></linearGradient><linearGradient id="linear-gradient-46" x1="490.14" y1="339.45" x2="579.56" y2="339.45" xlink:href="#linear-gradient-44"></linearGradient><linearGradient id="linear-gradient-47" x1="535.84" y1="324.23" x2="553.48" y2="324.23" xlink:href="#linear-gradient-44"></linearGradient><linearGradient id="linear-gradient-48" x1="568.34" y1="324.23" x2="582.34" y2="324.23" xlink:href="#linear-gradient-44"></linearGradient><linearGradient id="linear-gradient-49" x1="503.24" y1="468.09" x2="580.9" y2="468.09" xlink:href="#linear-gradient-44"></linearGradient><linearGradient id="linear-gradient-50" x1="553.48" y1="324.23" x2="568.34" y2="324.23" xlink:href="#linear-gradient-21"></linearGradient><linearGradient id="linear-gradient-51" x1="553.48" y1="337.82" x2="579.04" y2="337.82" xlink:href="#linear-gradient-21"></linearGradient><linearGradient id="linear-gradient-52" x1="468.1" y1="385.51" x2="548.13" y2="385.51" xlink:href="#linear-gradient-44"></linearGradient><linearGradient id="linear-gradient-53" x1="718.35" y1="1454.25" x2="772.05" y2="1454.25" gradientTransform="matrix(1, -0.09, 0.09, 1, -348.17, -982.17)" xlink:href="#linear-gradient-44"></linearGradient><linearGradient id="linear-gradient-54" x1="835.41" y1="6080.91" x2="908.73" y2="6080.91" gradientTransform="translate(-3322.4 -4398.74) rotate(-30)" xlink:href="#linear-gradient-44"></linearGradient><linearGradient id="linear-gradient-55" x1="858.14" y1="6078.61" x2="931.45" y2="6078.61" gradientTransform="translate(-3322.4 -4398.74) rotate(-30)" xlink:href="#linear-gradient-44"></linearGradient><linearGradient id="linear-gradient-56" x1="435.99" y1="459.79" x2="546.66" y2="459.79" xlink:href="#linear-gradient-44"></linearGradient><linearGradient id="linear-gradient-57" x1="-9060.74" y1="15012.2" x2="-8951.98" y2="15012.2" gradientTransform="translate(-16305.13 -4344.9) rotate(-105.02)" xlink:href="#linear-gradient-44"></linearGradient><linearGradient id="linear-gradient-58" x1="452.13" y1="459" x2="458.65" y2="459" xlink:href="#linear-gradient-21"></linearGradient><linearGradient id="linear-gradient-59" x1="452.13" y1="456.29" x2="463.35" y2="456.29" xlink:href="#linear-gradient-21"></linearGradient><linearGradient id="linear-gradient-60" x1="459.68" y1="459" x2="466.2" y2="459" xlink:href="#linear-gradient-21"></linearGradient><linearGradient id="linear-gradient-61" x1="459.68" y1="456.29" x2="470.9" y2="456.29" xlink:href="#linear-gradient-21"></linearGradient><linearGradient id="linear-gradient-62" x1="467.24" y1="459" x2="473.76" y2="459" xlink:href="#linear-gradient-21"></linearGradient><linearGradient id="linear-gradient-63" x1="467.24" y1="456.29" x2="478.45" y2="456.29" xlink:href="#linear-gradient-21"></linearGradient><linearGradient id="linear-gradient-64" x1="806.17" y1="6110.83" x2="902.69" y2="6110.83" gradientTransform="translate(-3322.4 -4398.74) rotate(-30)" xlink:href="#linear-gradient-44"></linearGradient><linearGradient id="linear-gradient-65" x1="474.79" y1="459" x2="481.31" y2="459" xlink:href="#linear-gradient-21"></linearGradient><linearGradient id="linear-gradient-66" x1="474.79" y1="456.29" x2="486" y2="456.29" xlink:href="#linear-gradient-21"></linearGradient><linearGradient id="linear-gradient-67" x1="482.34" y1="459" x2="488.86" y2="459" xlink:href="#linear-gradient-21"></linearGradient><linearGradient id="linear-gradient-68" x1="482.34" y1="456.29" x2="493.55" y2="456.29" xlink:href="#linear-gradient-21"></linearGradient><linearGradient id="linear-gradient-69" x1="515.17" y1="428.69" x2="563.4" y2="428.69" xlink:href="#linear-gradient-21"></linearGradient><linearGradient id="linear-gradient-70" x1="532.7" y1="428.69" x2="619.98" y2="428.69" xlink:href="#linear-gradient-21"></linearGradient><linearGradient id="linear-gradient-71" x1="495.97" y1="428.69" x2="573.82" y2="428.69" xlink:href="#linear-gradient-44"></linearGradient><linearGradient id="linear-gradient-72" x1="-24.51" y1="7680.77" x2="-1.2" y2="7680.77" gradientTransform="translate(-5141.56 -5174.03) rotate(-45)" xlink:href="#linear-gradient-9"></linearGradient><linearGradient id="linear-gradient-73" x1="-17.61" y1="7694.86" x2="-12.71" y2="7694.86" gradientTransform="translate(304.15 -7416.63)" xlink:href="#linear-gradient-9"></linearGradient><linearGradient id="linear-gradient-74" x1="47.85" y1="508.78" x2="623.89" y2="508.78" xlink:href="#linear-gradient-10"></linearGradient><linearGradient id="linear-gradient-75" x1="87.19" y1="502.19" x2="598.42" y2="502.19" xlink:href="#linear-gradient"></linearGradient><linearGradient id="linear-gradient-76" x1="112.78" y1="508.78" x2="506.07" y2="508.78" xlink:href="#linear-gradient"></linearGradient><linearGradient id="linear-gradient-77" x1="95.73" y1="515.36" x2="567.6" y2="515.36" xlink:href="#linear-gradient"></linearGradient><linearGradient id="linear-gradient-78" x1="285.61" y1="508.78" x2="861.65" y2="508.78" xlink:href="#linear-gradient-10"></linearGradient><linearGradient id="linear-gradient-79" x1="339.36" y1="502.19" x2="784.15" y2="502.19" xlink:href="#linear-gradient"></linearGradient><linearGradient id="linear-gradient-80" x1="327.78" y1="508.78" x2="825.94" y2="508.78" xlink:href="#linear-gradient"></linearGradient><linearGradient id="linear-gradient-81" x1="362.95" y1="515.36" x2="699" y2="515.36" xlink:href="#linear-gradient"></linearGradient><linearGradient id="linear-gradient-82" x1="520.49" y1="508.78" x2="1096.54" y2="508.78" xlink:href="#linear-gradient-10"></linearGradient><linearGradient id="linear-gradient-83" x1="579.08" y1="502.19" x2="1001.59" y2="502.19" xlink:href="#linear-gradient"></linearGradient><linearGradient id="linear-gradient-84" x1="592.08" y1="508.78" x2="954.66" y2="508.78" xlink:href="#linear-gradient"></linearGradient><linearGradient id="linear-gradient-85" x1="559.23" y1="515.36" x2="1073.24" y2="515.36" xlink:href="#linear-gradient"></linearGradient><linearGradient id="linear-gradient-86" x1="135.56" y1="365.06" x2="1436.53" y2="365.06" xlink:href="#linear-gradient-9"></linearGradient><linearGradient id="linear-gradient-87" x1="185.71" y1="639.81" x2="284.9" y2="639.81" gradientUnits="userSpaceOnUse"><stop offset="0" stop-color="#3e2b58"></stop><stop offset="0.97" stop-color="#ee2741"></stop></linearGradient><linearGradient id="linear-gradient-88" x1="177.83" y1="726.19" x2="394.07" y2="726.19" xlink:href="#linear-gradient-2"></linearGradient><linearGradient id="linear-gradient-89" x1="2711.08" y1="10077.45" x2="2927.32" y2="10077.45" gradientTransform="translate(-9827.66 3598.08) rotate(-90)" xlink:href="#linear-gradient"></linearGradient><linearGradient id="linear-gradient-90" x1="294.12" y1="753.1" x2="402.24" y2="753.1" xlink:href="#linear-gradient-2"></linearGradient><linearGradient id="linear-gradient-91" x1="294.12" y1="699.29" x2="402.24" y2="699.29" xlink:href="#linear-gradient-2"></linearGradient><linearGradient id="linear-gradient-92" x1="-33.18" y1="683.13" x2="362.14" y2="683.13" xlink:href="#linear-gradient-7"></linearGradient><linearGradient id="linear-gradient-93" x1="-108.08" y1="687.1" x2="178.58" y2="687.1" gradientUnits="userSpaceOnUse"><stop offset="0" stop-color="#fcdcda"></stop><stop offset="0.17" stop-color="#f8adb3"></stop><stop offset="0.36" stop-color="#f5808c"></stop><stop offset="0.54" stop-color="#f25c6e"></stop><stop offset="0.71" stop-color="#f04359"></stop><stop offset="0.86" stop-color="#ee334c"></stop><stop offset="0.98" stop-color="#ee2e47"></stop></linearGradient><linearGradient id="linear-gradient-94" x1="29.32" y1="687.11" x2="167.41" y2="687.11" xlink:href="#linear-gradient"></linearGradient><linearGradient id="linear-gradient-95" x1="735.78" y1="639.81" x2="834.98" y2="639.81" xlink:href="#linear-gradient-87"></linearGradient><linearGradient id="linear-gradient-96" x1="-4324.87" y1="726.19" x2="-4108.63" y2="726.19" gradientTransform="matrix(1, 0, 0, -1, 5023.81, 1452.39)" xlink:href="#linear-gradient-2"></linearGradient><linearGradient id="linear-gradient-97" x1="2711.08" y1="5574.74" x2="2927.32" y2="5574.74" gradientTransform="matrix(0, -1, -1, 0, 6345.64, 3598.08)" xlink:href="#linear-gradient"></linearGradient><linearGradient id="linear-gradient-98" x1="-4208.58" y1="753.1" x2="-4100.46" y2="753.1" gradientTransform="matrix(1, 0, 0, -1, 4863.19, 1506.19)" xlink:href="#linear-gradient-2"></linearGradient><linearGradient id="linear-gradient-99" x1="-4208.58" y1="699.29" x2="-4100.46" y2="699.29" gradientTransform="matrix(1, 0, 0, -1, 4863.19, 1398.58)" xlink:href="#linear-gradient-2"></linearGradient><linearGradient id="linear-gradient-100" x1="719.04" y1="682.66" x2="1297.92" y2="682.66" gradientUnits="userSpaceOnUse"><stop offset="0.21" stop-color="#ed2741"></stop><stop offset="1" stop-color="#fcdcda"></stop></linearGradient><linearGradient id="linear-gradient-101" x1="715.68" y1="682.65" x2="1002.34" y2="682.65" xlink:href="#linear-gradient-93"></linearGradient><linearGradient id="linear-gradient-102" x1="853.08" y1="682.66" x2="991.18" y2="682.66" xlink:href="#linear-gradient"></linearGradient></defs><g id="Layer_2" data-name="Layer 2"><g id="Design"><path class="cls-1" d="M1019,87.21V780H0V87.21A87.21,87.21,0,0,1,87.21,0H931.79A87.2,87.2,0,0,1,1019,87.21Z"></path><rect class="cls-2" x="1.83" y="614.3" width="1019.74" height="47.49"></rect><rect class="cls-3" x="1.83" y="661.79" width="1019.74" height="44.94"></rect><rect class="cls-4" x="6.93" y="704.68" width="1012.07" height="75.32"></rect><rect class="cls-5" x="459.63" y="532.75" width="99.74" height="58.58"></rect><path class="cls-6" d="M885.77,562H133.23c-14.93,0-27-12.87-27-28.76V196.83c0-15.88,12.1-28.76,27-28.76H885.77c14.93,0,27,12.88,27,28.76V533.28C912.8,549.17,900.7,562,885.77,562Z"></path><rect class="cls-7" x="135.71" y="199.01" width="747.58" height="332.1"></rect><path class="cls-8" d="M592.2,591.33H426.79s-21.53,0-23.79,23.93H616C613.73,591.33,592.2,591.33,592.2,591.33Z"></path><rect class="cls-9" x="135.71" y="197.63" width="747.58" height="36.48"></rect><path class="cls-10" d="M212.89,215.87a7.67,7.67,0,1,1-7.67-7.67A7.68,7.68,0,0,1,212.89,215.87Z"></path><path class="cls-11" d="M166.43,215.87a7.67,7.67,0,1,1-7.67-7.67A7.68,7.68,0,0,1,166.43,215.87Z"></path><path class="cls-12" d="M188.73,215.87a7.67,7.67,0,1,1-7.67-7.67A7.67,7.67,0,0,1,188.73,215.87Z"></path><rect class="cls-13" x="262.26" y="254.94" width="494.49" height="33.96" rx="9.29"></rect><rect class="cls-14" x="187.1" y="307.51" width="174.84" height="174.84" rx="17.42"></rect><path class="cls-15" d="M328.41,330.09v51.42c-2.9.77-7.21,2.85-8.82,2.27-2.43-.87-1.5-2.25-.93-4.81s-.63-3-1.13-4.19.19-1.13,1.32-1.75,1.62-1.25,1.37-2.56a2.19,2.19,0,0,0-3.81-1.19c-2,1.68-.88,2.93-.38,4.12s-.31,1.44-.31,1.44c-.31,1.5-2.69,2.62-2.19,5.38s-.38,2.37-1.62,2.87-1.38,4.13-2.88,8.76-5.42,3-5.42,3-31.84,13.38-36.09,9.88-7.26-.87-8.45.89,1.32,3.62.88,5.24-1.08-1.15-3.66-2.63-3.48,1-8.28,2-2.75-5.87-3.13-7.25-5.87-1.62-4.62.88c1,15.13-4.5,26.51-4.63,31.68s1.91,7,1.91,7a2.63,2.63,0,0,1-1.28,2.21c-2.88,1.21-1.75,7.17,1.28,9.33,2.5,1.78,2.47,7.16,2.38,9H220.63V330.09Z"></path><polygon class="cls-16" points="220.63 463 220.63 466.38 222.37 469.53 224.1 466.38 225.84 469.53 227.58 466.38 229.32 469.53 231.06 466.38 232.8 469.53 234.54 466.38 236.27 469.53 238.01 466.38 239.75 469.53 241.49 466.38 243.23 469.53 244.97 466.38 246.71 469.53 248.44 466.38 250.18 469.53 251.92 466.38 253.66 469.53 255.4 466.38 257.13 469.53 258.87 466.38 260.61 469.53 262.35 466.38 264.09 469.53 265.83 466.38 267.56 469.53 269.3 466.38 271.04 469.53 272.78 466.38 274.52 469.53 276.26 466.38 278 469.53 279.73 466.38 281.47 469.53 283.21 466.38 284.95 469.53 286.69 466.38 288.43 469.53 290.17 466.38 291.9 469.53 293.64 466.38 295.38 469.53 297.12 466.38 298.86 469.53 300.6 466.38 302.33 469.53 304.07 466.38 305.81 469.53 307.55 466.38 309.29 469.53 311.03 466.38 312.76 469.53 314.5 466.38 316.24 469.53 317.98 466.38 319.72 469.53 321.46 466.38 323.19 469.53 324.93 466.38 326.67 469.53 328.41 466.38 328.41 463 220.63 463"></polygon><polygon class="cls-17" points="328.41 330.09 328.41 326.7 326.67 323.56 324.93 326.7 323.19 323.56 321.46 326.7 319.72 323.56 317.98 326.7 316.24 323.56 314.5 326.7 312.76 323.56 311.03 326.7 309.29 323.56 307.55 326.7 305.81 323.56 304.07 326.7 302.33 323.56 300.6 326.7 298.86 323.56 297.12 326.7 295.38 323.56 293.64 326.7 291.9 323.56 290.17 326.7 288.43 323.56 286.69 326.7 284.95 323.56 283.21 326.7 281.47 323.56 279.73 326.7 278 323.56 276.26 326.7 274.52 323.56 272.78 326.7 271.04 323.56 269.3 326.7 267.56 323.56 265.83 326.7 264.09 323.56 262.35 326.7 260.61 323.56 258.87 326.7 257.13 323.56 255.4 326.7 253.66 323.56 251.92 326.7 250.18 323.56 248.44 326.7 246.71 323.56 244.97 326.7 243.23 323.56 241.49 326.7 239.75 323.56 238.01 326.7 236.27 323.56 234.54 326.7 232.8 323.56 231.06 326.7 229.32 323.56 227.58 326.7 225.84 323.56 224.1 326.7 222.37 323.56 220.63 326.7 220.63 330.09 328.41 330.09"></polygon><path class="cls-18" d="M328.41,381.51V463H239.92c.09-1.82.12-7.2-2.38-9-3-2.16-4.16-8.12-1.28-9.33a2.63,2.63,0,0,0,1.28-2.21s-2-1.77-1.91-7,5.63-16.55,4.63-31.68c-1.25-2.5,4.25-2.25,4.62-.88s-1.67,8.21,3.13,7.25,5.69-3.47,8.28-2,3.23,4.26,3.66,2.63-2.08-3.47-.88-5.24,4.2-4.39,8.45-.89,36.09-9.88,36.09-9.88,3.92,1.63,5.42-3,1.62-8.26,2.88-8.76,2.12-.12,1.62-2.87,1.88-3.88,2.19-5.38c0,0,.81-.25.31-1.44s-1.62-2.44.38-4.12a2.19,2.19,0,0,1,3.81,1.19c.25,1.31-.25,1.93-1.37,2.56s-1.82.56-1.32,1.75,1.69,1.62,1.13,4.19-1.5,3.94.93,4.81C321.2,384.36,325.51,382.28,328.41,381.51Z"></path><path class="cls-19" d="M255.53,440.72l22,18s45.5,16.87,44.65-29c-.19-6.56-9.26-28.57-9.26-28.57Z"></path><path class="cls-20" d="M249.67,380.4c-4,0-8.52-9.52-8.52-23.2s4.49-23.2,8.52-23.2h52.05c4,0,8.52,9.53,8.52,23.2s-4.49,23.2-8.52,23.2Z"></path><path class="cls-18" d="M301.72,335.5c2.38,0,7,7.66,7,21.7s-4.64,21.7-7,21.7H249.67c-2.38,0-7-7.66-7-21.7s4.64-21.7,7-21.7h52.05m0-3H249.67c-5.53,0-10,11.06-10,24.7s4.49,24.7,10,24.7h52.05c5.54,0,10-11.06,10-24.7s-4.48-24.7-10-24.7Z"></path><path class="cls-18" d="M293.18,353.44c-.91.91-.86.52-.86.52s-.05-2.34-.05-3.76.65-4.91-2.7-5.45h0c-7.37-.64-7.24,5.45-4.52,5.45,1.77,0,1.89-1.53,1.77-2.61,0-.38.31-.42.69-.33.64.15.85,1.07.2,2.16-1.17,1.94-4.93.46-4.93,5.12,0,3.51,3.82,2.09,4.83,1.63a.41.41,0,0,1,.48.11,2.92,2.92,0,0,0,2.27.92C293,357.2,294.09,352.53,293.18,353.44Zm-6.42.65c-1.1-1.69,1.35-3.14,1.35-3.14C288.11,353,288.25,354.54,286.76,354.09Z"></path><path class="cls-18" d="M273.47,368.09c-.91.91-.86.52-.86.52s-.05-2.33-.05-3.76.65-4.91-2.7-5.44h0c-7.37-.63-7.24,5.45-4.52,5.45,1.77,0,1.9-1.53,1.77-2.6-.05-.39.32-.43.69-.34.65.15.85,1.07.2,2.16-1.17,1.94-4.93.46-4.93,5.12,0,3.51,3.82,2.1,4.83,1.63a.41.41,0,0,1,.48.11,2.9,2.9,0,0,0,2.28.92C273.28,371.85,274.38,367.18,273.47,368.09Zm-6.42.65c-1.1-1.69,1.36-3.14,1.36-3.14C268.41,367.67,268.54,369.19,267.05,368.74Z"></path><path class="cls-18" d="M298.37,367.64c-.72,1.36-3.83,1.81-3.83-1.56l4.8-1.36a2.08,2.08,0,0,0,0-1.82c-.46-1.1-2.37-3.72-5.45-2.91-3.72,1-6.61,10.76,0,12.05,3.89,0,5.25-1.23,5.65-3.76C299.46,367.5,299,366.46,298.37,367.64ZM294.74,362c1-.2,1.22.58,1.22,1.61a18,18,0,0,0-1.87.91S293.52,362.64,294.74,362Z"></path><path class="cls-18" d="M282,352.64c-.71,1.37-3.82,1.82-3.82-1.55l4.8-1.36a2.08,2.08,0,0,0,0-1.82c-.46-1.1-2.38-3.72-5.45-2.91-3.72,1-6.61,10.76,0,12.05,3.89,0,5.25-1.23,5.65-3.76C283.11,352.51,282.63,351.47,282,352.64ZM278.39,347c1-.2,1.22.58,1.22,1.61a18,18,0,0,0-1.87.91S277.17,347.65,278.39,347Z"></path><path class="cls-18" d="M275.61,368a.75.75,0,0,0-.8-.79c-.82,0-1,.83-1,1.59v1a1.67,1.67,0,0,0,1.15,1.58,11.71,11.71,0,0,0,3.53.44c3.76,0,4.54-2.34,4.54-4.64s-3.83-3.77-3.83-3.77-1.15-.36-1.15-1.16.51-.74,1.15-.74,1.17.61,1.17,1.49.84,1.17,1.49,1.17.52-.84.52-1.75.07-2.42-3.24-2.42-4.42,1.29-4.93,3.41,1.1,3.74,4,4.65,1.1,2.2-.19,2S276.33,369.66,275.61,368Z"></path><path class="cls-18" d="M282.74,360.79v.68a.26.26,0,0,0,.28.25c.31,0,.78,0,.76.44s0,7,0,7,.27,2.72,2.69,2.72,4-1.12,4-2-.58-.85-.87-.79c-.48.11-1.34.86-1.53.35s0-7.23,0-7.23h1.23a1.09,1.09,0,0,0,.59-1.07c0-.85-.13-1.06-.85-1.06h-1v-2.12s-.22-.68-.81-.45c-.22.08-3.05,1.87-4.14,2.56A.92.92,0,0,0,282.74,360.79Z"></path><path class="cls-18" d="M292.72,346.14v.67a.26.26,0,0,0,.27.26c.32,0,.79,0,.77.44s0,7,0,7,.27,2.73,2.69,2.73,4.05-1.12,4.05-2-.58-.86-.87-.79c-.48.11-1.34.86-1.53.34s0-7.22,0-7.22h1.23a1.09,1.09,0,0,0,.59-1.07c0-.85-.13-1.06-.85-1.06h-1v-2.12s-.22-.68-.81-.45c-.22.08-3,1.87-4.14,2.56A.92.92,0,0,0,292.72,346.14Z"></path><path class="cls-18" d="M264.82,357.05h5.1a1.24,1.24,0,0,0,1.27-1.26c-.14-.93-1.61-.07-1.61-1.62v-5.36s.34-.69.78,0,.21,1.65,1.36,1.65,2.44-1.39,2.44-4.33c0-1.38-3.28-1.81-4.67.44-.08-.18,1-1.86-1.08-1.58a7.41,7.41,0,0,0-3.59,1.58s-1.12.87.35,1.68c.35.13.26,6.61.26,6.61s-1,.61-1,1.21A1.41,1.41,0,0,0,264.82,357.05Z"></path><path class="cls-18" d="M263.29,348.25h-1.23s-1.49-3.55-3.5-3.55-4.67,6.57-1,9.47c1,.37,1.49.37,1.49-1.25V351.3s-1.62-.05-1.62-1.32,1.94-1.08,2.78-1.08h3.7A1,1,0,0,1,265,350c0,1.12-1.75,1-1.75,1v5.15s.26.95-.26.95-1.17-1-1.17-1A10.16,10.16,0,0,1,257,357.2c-2.92,0-6.09-1.37-6.09-6.19,0-1.29-.31-4.44,1.91-6.67a6.84,6.84,0,0,1,3.14-1.76,7,7,0,0,1,3.79.1,6.62,6.62,0,0,1,2.08,1.16c.1-.2.38-1,.8-1a.57.57,0,0,1,.4.21C263.71,343.79,263.36,347.55,263.29,348.25Z"></path><path class="cls-18" d="M254.62,368.82v-7.39s-.17-1.81-1.21-.77c-.64.86-1.29,2.58-1.9,2.58s-.62-1.28-.62-1.28v-3.47s-.12-.71,1.07-.71h10.62s.71-.26.71,1v3.12s-.28,1.83-1.49-.33-2.08-2-2.33-.61-.1,8.45-.1,8.45a1.46,1.46,0,0,1,1.2,1.48,1,1,0,0,1-1.1,1.11h-5.1a.85.85,0,0,1-.87-.93v-.42a1,1,0,0,1,.43-.83l.69-.47Z"></path><ellipse class="cls-18" cx="280.58" cy="415.77" rx="34.77" ry="20.53" transform="translate(-156.09 168.97) rotate(-26.51)"></ellipse><path class="cls-18" d="M314.87,403.15c5.06,10.14-5.26,27.79-22.44,36.36s-35.22,7.3-40.28-2.85,4.77-25.32,22-33.89S309.81,393,314.87,403.15Z"></path><ellipse class="cls-21" cx="281.02" cy="416.65" rx="34.77" ry="20.53" transform="translate(-156.43 169.26) rotate(-26.51)"></ellipse><ellipse class="cls-22" cx="281.99" cy="418.59" rx="34.77" ry="20.53" transform="translate(-157.2 169.89) rotate(-26.51)"></ellipse><path class="cls-23" d="M250,432.15a11.8,11.8,0,0,1-4.07,1.58,12.94,12.94,0,0,1-10.07-2.39,13.46,13.46,0,0,1-4.73-7.26c-.36-1.36-.81-2.49-1.64-2.29s-1,1.27-.9,2.81A15,15,0,0,1,239,406.16c-4.06,1.93-8.81,5.07-8.35,9.33.56,5.18,8.19,3.67,9.32,1.05s.37-3.82,1.94-4.88c0,0,.43-.5.62.44s1.06.94,1.63.38.49-3.63-2.25-3.06-1.92,3.16-3,4.35c-.83,1-4.22,1.52-3.91-1.73.37-2.44,6.06-5.57,9.87-4.44,3.39,1,8.14,3.53,10.23,11.27A12,12,0,0,1,250,432.15Z"></path><path class="cls-24" d="M258,420.57a15,15,0,0,1-29.36,4c-.14-1.54.11-2.62.9-2.81s1.28.93,1.64,2.29a13.46,13.46,0,0,0,4.73,7.26A12.94,12.94,0,0,0,246,433.73a11.8,11.8,0,0,0,4.07-1.58,12,12,0,0,0,5.09-13.28c-2.09-7.74-6.84-10.27-10.23-11.27-3.81-1.13-9.5,2-9.87,4.44-.31,3.25,3.08,2.68,3.91,1.73,1.05-1.19.17-3.76,3-4.35s2.81,2.49,2.25,3.06-1.44.56-1.63-.38-.62-.44-.62-.44c-1.57,1.06-.82,2.25-1.94,4.88s-8.76,4.13-9.32-1.05c-.46-4.26,4.29-7.4,8.35-9.33a15.31,15.31,0,0,1,4-.55A15,15,0,0,1,258,420.57Z"></path><path class="cls-25" d="M280.58,441.36v12.13s7.13,1.56,17.45-2.13c6.69-2.12,17.69-1.5,17.69-1.5V437.23a56.31,56.31,0,0,0-16.38,1.82A78.75,78.75,0,0,1,280.58,441.36Z"></path><rect class="cls-26" x="227.07" y="454.93" width="20.94" height="3.75"></rect><rect class="cls-26" x="294.78" y="454.93" width="20.94" height="3.75"></rect><rect class="cls-27" x="259.51" y="383.69" width="3.69" height="6.37"></rect><rect class="cls-27" x="266.68" y="383.69" width="3.69" height="6.37"></rect><rect class="cls-27" x="273.85" y="383.69" width="3.69" height="6.37"></rect><rect class="cls-27" x="281.02" y="383.69" width="3.69" height="6.37"></rect><rect class="cls-27" x="288.19" y="383.69" width="3.69" height="6.37"></rect><rect class="cls-26" x="227.07" y="450.27" width="8.56" height="3.75"></rect><rect class="cls-26" x="227.07" y="445.5" width="8.56" height="3.75"></rect><path class="cls-28" d="M254.18,451.32a13.44,13.44,0,0,1,1.37,2.25c0,.07-.14.1-.35,0-.56-.31-1.63-2-3.5-1.94s-2.25,2.44-2.44,2.41c-2.87-.84-4.12-5.47-3.25-8.16s3-2.31,3.5-.94a1.22,1.22,0,0,0,.07.17c0-.17-.07-.17-.07-.17h.06c.15.6.3,1.2.44,1.68C250.45,448.12,252.93,449.69,254.18,451.32Z"></path><path class="cls-29" d="M260,455.8c0,.19-1.92-2.24-3.67-2a5,5,0,0,0-.14-1.32,12,12,0,0,0-3.88-5.11,5.22,5.22,0,0,1-2-2.69h0a.11.11,0,0,0,0-.07h0a1.91,1.91,0,0,1,1-2.63c1.67-.87,5.15.19,6.69,1.88S263,451.11,260,455.8Z"></path><path class="cls-30" d="M270.6,458.24c-1.12.67-8.58,2.38-10.65-2.44.06-1.85.24-8.42.24-8.42s8.66-3.4,11.37,4q.07.25.15.54c-1.61-.79-5.34-2.33-8-.95-3.51,1.79-2.51,2.12-2.51,2.12s3.8-1.87,7.3-1a26.13,26.13,0,0,1,3.57,1.14,6.14,6.14,0,0,0,.35.91C272.85,455.11,271.73,457.57,270.6,458.24Z"></path><path class="cls-31" d="M272,453.28a26.13,26.13,0,0,0-3.57-1.14c-3.5-.9-7.3,1-7.3,1s-1-.33,2.51-2.12c2.69-1.38,6.42.16,8,.95C271.81,452.35,271.91,452.82,272,453.28Z"></path><path class="cls-32" d="M256.28,453.81h0a3.58,3.58,0,0,1-.69-.42.25.25,0,0,1,0,.17,13.44,13.44,0,0,0-1.37-2.25c-1.25-1.63-3.73-3.2-4.17-4.72-.14-.48-.29-1.08-.44-1.68.19,0,.74,0,.71-.23a5.22,5.22,0,0,0,2,2.69,12,12,0,0,1,3.88,5.11A5,5,0,0,1,256.28,453.81Z"></path><path class="cls-33" d="M256.28,453.81a4.65,4.65,0,0,1-.14,1.11s-.21-.57-.59-1.35a.25.25,0,0,0,0-.17,3.58,3.58,0,0,0,.69.42Z"></path><rect class="cls-34" x="659.34" y="307.51" width="174.84" height="174.84" rx="17.42"></rect><rect class="cls-18" x="687.37" y="397.8" width="116.57" height="66.64"></rect><path class="cls-35" d="M700.11,379.87H791.2a12.74,12.74,0,0,1,12.74,12.74v5.19a0,0,0,0,1,0,0H687.37a0,0,0,0,1,0,0v-5.19a12.74,12.74,0,0,1,12.74-12.74Z"></path><rect class="cls-36" x="687.37" y="464.44" width="116.57" height="8.36"></rect><rect class="cls-37" x="733.84" y="375.99" width="23.64" height="7.74"></rect><polygon class="cls-38" points="707.56 328.03 734.6 376 733.84 319 707.56 328.03"></polygon><polygon class="cls-39" points="783.94 328.03 756.9 376 757.48 319 783.94 328.03"></polygon><rect class="cls-40" x="733.84" y="319" width="7.33" height="57.54"></rect><rect class="cls-41" x="741.16" y="319" width="3.56" height="57.54"></rect><rect class="cls-42" x="744.72" y="319" width="12.46" height="57.54"></rect><path class="cls-43" d="M706.36,422.46h77.77a8.3,8.3,0,0,1,8.3,8.3v33.69a0,0,0,0,1,0,0H698.07a0,0,0,0,1,0,0V430.76A8.3,8.3,0,0,1,706.36,422.46Z"></path><circle class="cls-26" cx="744.7" cy="419.59" r="23.1"></circle><path class="cls-44" d="M772,422.56a3.12,3.12,0,0,0,2.17-3h0v-.11h0a3.13,3.13,0,0,0-2.18-3,3.12,3.12,0,0,0-1.3-5.8,3.13,3.13,0,0,0-2.51-5.4,3.12,3.12,0,0,0-.09-3.68h0a3.11,3.11,0,0,0-3.53-1,3.14,3.14,0,0,0-.87-3.58h0a3.69,3.69,0,0,1-5.3-3.57h0a3.7,3.7,0,0,1-5.94-2.35h0a3.7,3.7,0,0,1-6.31-1h0a3.69,3.69,0,0,1-6.37.36h0a3.69,3.69,0,0,1-6.15,1.72h0a3.1,3.1,0,0,0-2,3.12,3.13,3.13,0,0,0-3.69-.11h0a3.68,3.68,0,0,1-4.85,4.14h0a3.13,3.13,0,0,0-.46,3.66,3.12,3.12,0,0,0-3.06,5.1,3.12,3.12,0,0,0-3,2.13h0a3.13,3.13,0,0,0,1.12,3.52,3.12,3.12,0,0,0-2.48,2.73h0a3.14,3.14,0,0,0,1.85,3.19,3.11,3.11,0,0,0-1.84,3.19h0a3.13,3.13,0,0,0,2.49,2.72,3.12,3.12,0,0,0,1.91,5.64,3.09,3.09,0,0,0-.32,3.67h0a3.11,3.11,0,0,0,3.39,1.42,11.77,11.77,0,0,1,5.35,7.78,3.69,3.69,0,0,1,5.64,3,3.1,3.1,0,0,0,3.57-.92,11.78,11.78,0,0,1,9,3,3.69,3.69,0,0,1,6.3-1h0a3.11,3.11,0,0,0,2.28-2.89,3.14,3.14,0,0,0,3.65.52h0a3.69,3.69,0,0,1,5.28-3.59h0a3.7,3.7,0,0,1,4.39-4.64h0a3.11,3.11,0,0,0,.07-3.68,3.12,3.12,0,0,0,2.5-5.4,3.14,3.14,0,0,0,2.77-2.45h0A3.11,3.11,0,0,0,772,422.56Zm-8.82,11.12h0a2.64,2.64,0,0,1-3.46,3.66h0a2.64,2.64,0,0,1-4.17,2.83h0a2.64,2.64,0,0,1-4.67,1.87h0a2.64,2.64,0,0,1-5,.81,2.65,2.65,0,0,1-5-.26A3.08,3.08,0,0,0,738,443.7a5.92,5.92,0,0,1-6.39-4.81,3.11,3.11,0,0,0-3.11-.22,3.16,3.16,0,0,0-.73-3h0a3.13,3.13,0,0,0-3-.88,3.11,3.11,0,0,0-.06-3.12h0a3.13,3.13,0,0,0-2.74-1.51A3.1,3.1,0,0,0,720.2,425a3.11,3.11,0,0,0,1.26-2.86h0a3.11,3.11,0,0,0-1.85-2.52,3.1,3.1,0,0,0,1.84-2.52h0a3.14,3.14,0,0,0-1.27-2.86,3.09,3.09,0,0,0,2.34-2.06h0a3.12,3.12,0,0,0-.62-3.06,3.12,3.12,0,0,0,2.73-1.51,3.15,3.15,0,0,0,0-3.13,3.11,3.11,0,0,0,3-.89h0a2.64,2.64,0,0,1,3.84-3.27h0A2.64,2.64,0,0,1,736,398h0a2.63,2.63,0,0,1,4.84-1.36h0a2.65,2.65,0,0,1,5-.28h0a2.64,2.64,0,0,1,5,.79h0a2.64,2.64,0,0,1,4.68,1.85h0a2.64,2.64,0,0,1,4.17,2.82h0a3.11,3.11,0,0,0,3.08.55,3.14,3.14,0,0,0,.4,3.1h0a3.11,3.11,0,0,0,2.89,1.19,3.12,3.12,0,0,0,2.28,4.9,3.12,3.12,0,0,0,1.18,5.27,3.16,3.16,0,0,0-1.56,2.71s0,0,0,.05v0h0a3.14,3.14,0,0,0,1.57,2.7,3.1,3.1,0,0,0-2.1,2.31h0a3.12,3.12,0,0,0,.94,3,3.13,3.13,0,0,0-2.27,4.91A3.1,3.1,0,0,0,763.18,433.68Z"></path><polygon class="cls-26" points="727.11 439.25 727.11 439.25 727.11 439.25 727.11 439.25"></polygon><path class="cls-26" d="M769.31,420.32a2.79,2.79,0,0,0,1.72-2.8h0s0,0,0,0v-.05h0a2.77,2.77,0,0,0-2.15-2.48,2.79,2.79,0,0,0-1.57-5.08,2.79,2.79,0,0,0-2.62-4.62,2.8,2.8,0,0,0-.34-3.27h0a3.3,3.3,0,0,1-4.25-3.8h0a3.3,3.3,0,0,1-5-2.8h0a2.77,2.77,0,0,0-3.2.73,2.8,2.8,0,0,0-2.25-2.4h0a3.3,3.3,0,0,1-5.69-.45h0a3.29,3.29,0,0,1-5.64.77h0a3.3,3.3,0,0,1-5.36,2h0a3.29,3.29,0,0,1-4.79,3.08h0a3.29,3.29,0,0,1-4,4h0a2.8,2.8,0,0,0-.15,3.29,2.79,2.79,0,0,0-2.36,4.76,2.8,2.8,0,0,0-2.53,2.11h0a2.79,2.79,0,0,0,1.25,3.05,2.78,2.78,0,0,0-2,2.61h0a2.78,2.78,0,0,0,1.87,2.7,2.79,2.79,0,0,0-1.41,3h0a2.79,2.79,0,0,0,2.41,2.25,2.78,2.78,0,0,0,2.1,4.88,2.79,2.79,0,0,0,0,3.29h0a3.29,3.29,0,0,1,3.81,4.24,3.3,3.3,0,0,1,4.63,3.33,3.3,3.3,0,0,1,5.24,2.26,3.29,3.29,0,0,1,5.6,1.07,3.29,3.29,0,0,1,5.7-.15,3.29,3.29,0,0,1,5.53-1.37h0a3.3,3.3,0,0,1,5.11-2.53h0a3.3,3.3,0,0,1,4.45-3.57h0a3.29,3.29,0,0,1,3.57-4.44h0a2.76,2.76,0,0,0-.2-3.28,2.79,2.79,0,0,0,1.85-5,2.78,2.78,0,0,0,2.28-2.37h0A2.79,2.79,0,0,0,769.31,420.32Zm-7.06,10.52h0a2.36,2.36,0,0,1-2.82,3.51h0a2.77,2.77,0,0,0-.72,2.69,2.81,2.81,0,0,0-2.79.12h0a2.79,2.79,0,0,0-1.28,2.48,2.76,2.76,0,0,0-2.74-.48h0a2.35,2.35,0,0,1-4.36,1.07,2.81,2.81,0,0,0-2.21,1.71,5.27,5.27,0,0,1-6.7-2.43,2.81,2.81,0,0,0-2.72.62,5.28,5.28,0,0,1-5.06-5h0a2.78,2.78,0,0,0-2.73-.57,2.82,2.82,0,0,0-.28-2.78h0a2.8,2.8,0,0,0-2.54-1.14,2.78,2.78,0,0,0-1.91-4.43,2.79,2.79,0,0,0,.92-2.63h0a2.75,2.75,0,0,0-1.82-2.11,2.78,2.78,0,0,0,1.45-2.38h0a2.78,2.78,0,0,0-1.33-2.45,2.8,2.8,0,0,0,1.94-2h0a2.77,2.77,0,0,0-.77-2.67,2.78,2.78,0,0,0,2.15-4.33,2.79,2.79,0,0,0,2.6-1h0a2.36,2.36,0,0,1,3.18-3.19h0a2.36,2.36,0,0,1,3.78-2.43h0a2.35,2.35,0,0,1,4.21-1.55h0a2.37,2.37,0,0,1,4.47-.61h0a2.36,2.36,0,0,1,4.48.36h0a2.35,2.35,0,0,1,4.29,1.31h0a2.36,2.36,0,0,1,3.92,2.21h0a2.79,2.79,0,0,0,2.78.27,2.76,2.76,0,0,0,.58,2.73h0a2.77,2.77,0,0,0,2.65.86,2.78,2.78,0,0,0,2.38,4.19,2.78,2.78,0,0,0,1.42,4.61,2.81,2.81,0,0,0-1.19,2.53s0,0,0,0v0h0a2.79,2.79,0,0,0,1.58,2.3,2.76,2.76,0,0,0-1.7,2.2h0a2.78,2.78,0,0,0,1,2.58,2.78,2.78,0,0,0-1.67,4.52A2.8,2.8,0,0,0,762.25,430.84Z"></path><polygon class="cls-26" points="765.46 417.89 765.46 417.89 765.46 417.88 765.46 417.89"></polygon><path class="cls-18" d="M739.54,422.74v1.17l6.83-2.13s2.45-.86,2.45-2.78c0,0,0,.54-2.66,1.5S739.54,422.74,739.54,422.74Z"></path><path class="cls-18" d="M737.57,432.32c-1.26.36-5.36,2.34-3.36,4.34s4.21-2.36,4.21-2.36.28-.81.7-2c1.07-3.05,3-8.6,3.3-8.94s3.23-.75,3.23-.75-4.13,11.89-7.17,14.24-4.47,1.48-5.12,1.23c-.29-.11-2.24-2,0-4.22a9.18,9.18,0,0,1,5.61-2.34l.45,0-.21.59S737.85,432.24,737.57,432.32Z"></path><path class="cls-18" d="M748.82,426.16a2.61,2.61,0,0,0-.93-.24,2.49,2.49,0,0,0-1.2.24,6.18,6.18,0,0,0-2,1.84c-.25.37-1.6,2.36-.8,3.68a1.4,1.4,0,0,0,.59.57c1.32.67,3.37-1.21,3.37-1.21S751.32,427.12,748.82,426.16Zm-3.46,4.9c-.61-.61.63-2.19.63-2.19a1.89,1.89,0,0,0,1.17,1.6C746.55,431.08,745.63,431.33,745.36,431.06Zm3.3-3c0,.49-.41,1.14-.71,1s-.28-.78-.16-1.17.39-.65.62-.58S748.67,427.63,748.66,428Z"></path><path class="cls-18" d="M749.73,429.52s-1.16,1.72-.44,2.08a1.24,1.24,0,0,0,1.56-.56c.16-.32,1.52-3.28,3.12-4.32a5.92,5.92,0,0,1-.13.87,6.18,6.18,0,0,1-.54,1.49,1.67,1.67,0,0,0-.46,1.08,1,1,0,0,0,.21.72,1.67,1.67,0,0,0,1.76-.33c.48-.55,1.24-1.33,1.24-1.33s-.43,1.1-.2,1.33,1.12.37,1.84-1,2-3.32,2.8-3.64c.32,0-.72,1.76-.84,1.92s-.48,1.84.12,2.12,1.76-.41,2.12-.8,1.85-2.2,1.88-2.33,0-.39-.08-.44a.43.43,0,0,0-.47.13c-.13.18-1.84,2.15-2.21,2.11a24.2,24.2,0,0,1,1.69-3,1.3,1.3,0,0,0-.29-1.57c-.65-.43-1.65-.18-2.47.72a22.44,22.44,0,0,0-1.77,2.38l.92-2a.65.65,0,0,0-.23-.68c-.21-.21-.54-.08-.62,0a1,1,0,0,0-.52.44c-.51.79-.86,2.44-1.3,2.87s-1.56,1.85-2,1.94c.5-.76.88-1.41,1.15-1.9a4.35,4.35,0,0,0,.47-1c.14-.5.45-1.4-.1-1.79a1.35,1.35,0,0,0-1.83,0c-.68.67-2.2,2.64-2.2,2.64l2.59-4.05.64-1.26s.4-1.14-.15-1.5-1.65-.39-2.75,1.77-2.25,6-2.49,6.16-.53.31-.53.31l-.89,1.38A2.19,2.19,0,0,0,749.73,429.52Z"></path><path class="cls-18" d="M763.78,410.58a3.94,3.94,0,0,0,.48-1c0-.27.16-.32.35-.24a2.31,2.31,0,0,1,.27,2.85,8.14,8.14,0,0,1-5.92,3.6c-3.28.48-16.38,2-21,3.09s-10.94,3-11.74,5.71,2,2.73,2.64,2.71c2.79-.08,5.48-2.14,6.83-4.63a9.29,9.29,0,0,0,1-3.13l3.38-.5a12.58,12.58,0,0,1-2.58,5.12,12.72,12.72,0,0,1-6.11,3.95c-2.51.56-4.55.55-5.4,0a4.51,4.51,0,0,1-.47-.33,3.33,3.33,0,0,1-1.09-4c.82-2.27,3.84-4.08,5.41-4.78s14.56-3.36,16.69-3.68,8.32-1,10.94-1.68S762.79,412.66,763.78,410.58Z"></path><path class="cls-18" d="M736.21,408.52s.35-.69,0-.85a5.35,5.35,0,0,0-2.45,1.09c-.14.24-3.52,10.12-3.52,10.12l2.74-.72.78-2.54a4.49,4.49,0,0,1,2.69,1.78s3.65-.77,3.65-.77-1.86-3.07-3.41-3.07a5.93,5.93,0,0,0,3.64-5.17,4.61,4.61,0,0,0-1.74-3.6,4.31,4.31,0,0,0-2.11-.59,9.16,9.16,0,0,0-6.93,2.68,8.07,8.07,0,0,0-2.48,5.58,3.48,3.48,0,0,0,.8,2.22l.63.48a1.56,1.56,0,0,0,.83.17,1.54,1.54,0,0,0,.43-.09,1.47,1.47,0,0,0,0-.75,1.55,1.55,0,0,0-.23-.45,6.77,6.77,0,0,1,.46-4.34,7.13,7.13,0,0,1,3.74-3.28c.5-.19,3.3-.88,3.78.82a5.19,5.19,0,0,1-2.69,5.47c-.22-.24,0-.85,0-.85Z"></path><path class="cls-18" d="M762.39,409.48c-.09-.09-.36.15-.47.29a1.06,1.06,0,0,0-.21.41,1.67,1.67,0,0,1-.53.58,1.73,1.73,0,0,1-1,.29c.76-1.68.6-1.75,1.6-2.71a.77.77,0,0,0,0-.89.54.54,0,0,0-.21-.13h-1.8s-.68-.44-.68-.71-.18-.65-.54-.57a1.64,1.64,0,0,0-1.62,1.72c0,.52.46,1.09.78,1.09,0,0-1.3,2.47-2.7,3.17s-1.46-.81-1.32-1.13.8-2.2,1.72-2.3c.08.33.44.48,0,1s-.6.75-.94.91-.46.46-.38.64.84.23,1.34-.29,2-2.55,1-3.59-4,1.4-4.28,2.72a4.17,4.17,0,0,0,0,1.94s-1.72,1.85-1.72,1c0-.16.46-1.24-.5-1.24a3.46,3.46,0,0,0,2.3-3.1,1,1,0,0,0-1.32-1,1.89,1.89,0,0,0-1.36,1.06s.8-.36.76.14-.48,1.9-1.66,1.9a33.53,33.53,0,0,1,1.72-4.78c.49-.48,2.69-2.16,3.06-3.08a2.2,2.2,0,0,0,.16-.76,2.11,2.11,0,0,0-.16-.8,1.47,1.47,0,0,0-.55-.42A2.14,2.14,0,0,0,751,401a11.67,11.67,0,0,0-2,3.46c-.08.29-1.14.17-2.36.3a7.4,7.4,0,0,0-3.74,1.49,2.7,2.7,0,0,0-1.4,3l.1.48s1.56-2.48,3-2.86a12.45,12.45,0,0,1,3.34-.46s-1.66,7-2.38,7.4c-.66.12-.6.15-.52-.27s2-4.63,2-4.7,0-.33-.18-.3h-1.58s-.2,0-.3.29l-1.76,4.81s-.36.58-.78.34.38-2.88,1.52-3.69a.84.84,0,0,0,.14-1c-.24-.24-1.71-.34-2.69,1.19s-1.32,2.45-1.09,3.59a1.76,1.76,0,0,0,1.66,1.48c.52,0,1.22-.88,1.22-.88a.91.91,0,0,0,.74.54c.5,0,1.38-.52,1.38-.8a.71.71,0,0,0,.68.51c.54,0,1.8-.36,1.8-2.35.06,0-.12,1.93,1.44,1.93s3-1.87,3-1.87a1.2,1.2,0,0,0,1.34,1c1.24,0,2.36-1.23,3.14-2a21.82,21.82,0,0,0,2.06-2.77s-.22-.72-.38-.72,0-.41,0-.41a7.41,7.41,0,0,0,.74,1.19s-1.72,2.83-.72,3.45,2.28-.36,2.58-.68,1.42-1.66,1.42-1.66S762.54,409.64,762.39,409.48Zm-10-7.67c.7.79-1.12,1.78-1.14,1.81C751.46,401.49,752.38,401.81,752.38,401.81Z"></path><polygon class="cls-18" points="771.99 458.04 780.8 461.61 710.49 461.61 719.3 458.04 710.49 454.48 780.8 454.48 771.99 458.04"></polygon><rect class="cls-45" x="424.68" y="307.51" width="174.84" height="174.84" rx="17.42"></rect><rect class="cls-46" x="265.56" y="257.66" width="32.86" height="28.68" rx="6.76"></rect><polygon class="cls-47" points="535.85 464.53 446.6 464.54 457.02 436.44 457 436.04 456.6 428.99 452.24 350.53 535.85 350.53 535.85 464.53 535.85 464.53"></polygon><polygon class="cls-48" points="535.85 464.53 535.85 464.54 535.85 471.64 446.62 471.64 446.62 464.53 535.85 464.53"></polygon><rect class="cls-49" x="441.87" y="320.08" width="93.97" height="8.29"></rect><polygon class="cls-50" points="535.85 328.38 535.85 350.53 452.24 350.53 441.87 328.38 535.85 328.38"></polygon><path class="cls-51" d="M500.82,336.41h26.42a0,0,0,0,1,0,0V341a2.12,2.12,0,0,1-2.12,2.12H498.7a0,0,0,0,1,0,0v-4.54A2.12,2.12,0,0,1,500.82,336.41Z"></path><path class="cls-18" d="M500.25,341.56a.47.47,0,0,0,.16.36c.09.08.2.08.41.1a2.35,2.35,0,0,0,.5,0,1.73,1.73,0,0,0,.52-.23,1.59,1.59,0,0,0,.37-.31,1.46,1.46,0,0,0,.32-.94v-2.58s0-.48-.48-.48-.46.47-.46.47v2.43a.81.81,0,0,1-.2.51.8.8,0,0,1-.47.25c-.28.07-.39,0-.52.08A.49.49,0,0,0,500.25,341.56Z"></path><path class="cls-18" d="M516.16,341.56a.47.47,0,0,0,.16.36c.09.08.2.08.41.1a2.35,2.35,0,0,0,.5,0,1.73,1.73,0,0,0,.52-.23,1.59,1.59,0,0,0,.37-.31,1.55,1.55,0,0,0,.3-.67,1.42,1.42,0,0,0,0-.27v-2.58s0-.48-.48-.48-.47.47-.47.47v2.43a.74.74,0,0,1-.19.51.83.83,0,0,1-.47.25c-.28.07-.39,0-.52.08A.49.49,0,0,0,516.16,341.56Z"></path><rect class="cls-18" x="518.84" y="337.45" width="0.93" height="4.58" rx="0.38"></rect><path class="cls-18" d="M504,340.77h0a.37.37,0,0,1,0-.53l.9-.63a.39.39,0,0,1,.52.15h0a.38.38,0,0,1,0,.54l-.9.62A.39.39,0,0,1,504,340.77Z"></path><rect class="cls-18" x="520.2" y="337.45" width="0.93" height="4.58" rx="0.38"></rect><rect class="cls-18" x="521.03" y="340.25" width="0.93" height="2.61" rx="0.38" transform="translate(179.94 863.06) rotate(-90)"></rect><rect class="cls-18" x="523.09" y="337.45" width="0.93" height="4.58" rx="0.38"></rect><rect class="cls-18" x="523.92" y="340.25" width="0.93" height="2.61" rx="0.38" transform="translate(182.83 865.94) rotate(-90)"></rect><path class="cls-18" d="M503.86,340.62v.93a.47.47,0,0,1-.32.46.46.46,0,0,1-.61-.44v-2.35A1.64,1.64,0,0,0,503.86,340.62Z"></path><path class="cls-18" d="M506.51,339.22v2.33a.48.48,0,0,1-.31.46.47.47,0,0,1-.62-.44v-2.09a.86.86,0,1,0-1.72,0v1.14a1.64,1.64,0,0,1-.93-1.4h0v0a1.8,1.8,0,0,1,3.58,0v0Z"></path><path class="cls-18" d="M510.49,341.11a.54.54,0,0,1,0,.41.51.51,0,0,1-.23.21l-.33.16a2.5,2.5,0,0,1-.62.13h-.21a2.25,2.25,0,1,1,0-4.49l.27,0a2.58,2.58,0,0,1,.83.25s.24.13.29.36a.51.51,0,0,1-.09.38.61.61,0,0,1-.53.23,1.5,1.5,0,0,0-.29-.16,1.35,1.35,0,0,0-.47-.08h0a1.25,1.25,0,1,0,0,2.5h0a1.77,1.77,0,0,0,.8-.23A.59.59,0,0,1,510.49,341.11Z"></path><rect class="cls-18" x="510.7" y="337.45" width="1.01" height="4.58" rx="0.41"></rect><rect class="cls-18" x="513.88" y="338.09" width="0.76" height="1.18" rx="0.31"></rect><path class="cls-18" d="M513.92,341.89h0a.49.49,0,0,1-.71,0L511.5,340a.54.54,0,0,1,0-.75h0a.48.48,0,0,1,.71,0l1.71,1.89A.54.54,0,0,1,513.92,341.89Z"></path><path class="cls-18" d="M513.62,337.73h0a.51.51,0,0,1,.07.69l-1.4,1.6a.43.43,0,0,1-.65,0h0a.52.52,0,0,1-.07-.69l1.4-1.61A.44.44,0,0,1,513.62,337.73Z"></path><path class="cls-18" d="M516.69,339.75v.87a.43.43,0,0,1-.38.43.42.42,0,0,1-.46-.41h0v-.93l0-.06a.3.3,0,0,0-.25-.14.29.29,0,0,0-.29.28v.85a.42.42,0,0,1-.49.41.43.43,0,0,1-.34-.44v-.79a1.6,1.6,0,0,1,0-.22,1,1,0,0,1,1.11-1,1.09,1.09,0,0,1,1.13,1Z"></path><polygon class="cls-52" points="575.34 464.54 535.85 464.54 535.85 350.54 570.01 350.54 569.14 367.02 566.11 424.71 565.49 436.44 575.34 464.54"></polygon><path class="cls-53" d="M582.34,328.38,570,350.53H535.84V328.38h17.64v11.45a7.43,7.43,0,0,0,14.86,0V328.38Z"></path><rect class="cls-54" x="535.84" y="320.08" width="17.63" height="8.29"></rect><rect class="cls-55" x="568.34" y="320.08" width="14" height="8.29"></rect><polygon class="cls-56" points="575.34 464.53 575.34 471.64 535.85 471.64 535.85 464.54 575.32 464.54 575.32 464.53 575.34 464.53"></polygon><path class="cls-57" d="M477,368.92c-3.45-.13-6.35-1.75-7.43-4.26s.18-5.32.93-6.91a15.89,15.89,0,0,1,11.41-8.43c6.18-1.14,14.76,1.13,15.52,5.72.59,3.61-3.73,8.44-10.65,10.84"></path><line class="cls-57" x1="486.1" y1="353.96" x2="478.87" y2="377.97"></line><path class="cls-57" d="M502.06,358.83l-3.21,10.66s.25,3.72,4,0"></path><path class="cls-57" d="M512.81,354.56s-10.46,7.66-5.66,13.73c1.9,1.19,3.5-2.06,3.5-2.06"></path><path class="cls-57" d="M513.13,358.29s-3.5,14,3.63,6.24"></path><path class="cls-57" d="M520.3,348.29s-2.48,15-2.11,16.24,2.56,1.55,4-1.33"></path><line class="cls-57" x1="514.7" y1="354.56" x2="523.32" y2="353.09"></line><path class="cls-57" d="M526,347.26s-2.69,15.09-2.12,16.24c1.29,2.58,4.31,0,5.79-2.88"></path><line class="cls-57" x1="520.38" y1="353.53" x2="528.99" y2="352.06"></line><path class="cls-57" d="M534.25,349s-3,1.49-3.09,6.93,3.14,5.15,3.79,4.85,3.52-1.41,3.61-6.16S537,348,534.25,349Z"></path><path class="cls-57" d="M538.51,356.87s3.4-1.83,3.54-2.07-.67,6.68,15.56-.1"></path><path class="cls-57" d="M543.81,350.28a20,20,0,0,1,.19-3.85,17.31,17.31,0,0,0-.24-4.16,5,5,0,0,0,1.42,4.1c1.78,1.55,5.62,3.7,3.15,11"></path><ellipse class="cls-57" cx="503.33" cy="355.31" rx="1.22" ry="0.99" transform="translate(-37.12 651.13) rotate(-63.91)"></ellipse><path class="cls-58" d="M478.1,368c-3.45-.13-6.35-1.74-7.44-4.25s.19-5.32.94-6.92a15.87,15.87,0,0,1,11.4-8.42c6.18-1.14,14.77,1.13,15.52,5.71.59,3.62-3.73,8.44-10.64,10.84"></path><line class="cls-58" x1="487.2" y1="353.08" x2="479.96" y2="377.08"></line><path class="cls-58" d="M503.15,358,500,368.61s.24,3.72,4,0"></path><path class="cls-58" d="M513.91,353.68s-10.47,7.65-5.66,13.73c1.9,1.19,3.5-2.07,3.5-2.07"></path><path class="cls-58" d="M514.22,357.41s-3.49,14,3.64,6.24"></path><path class="cls-58" d="M521.4,347.41s-2.48,15-2.12,16.24,2.56,1.55,4-1.33"></path><line class="cls-58" x1="515.8" y1="353.68" x2="524.41" y2="352.21"></line><path class="cls-58" d="M527.07,346.38s-2.68,15.09-2.11,16.24c1.28,2.58,4.3,0,5.78-2.89"></path><line class="cls-58" x1="521.47" y1="352.65" x2="530.09" y2="351.18"></line><path class="cls-58" d="M535.34,348.1s-3,1.49-3.09,6.93,3.14,5.15,3.79,4.85,3.52-1.41,3.61-6.17S538.08,347.07,535.34,348.1Z"></path><path class="cls-58" d="M539.61,356a39.23,39.23,0,0,0,3.53-2.06c.13-.24-.67,6.68,15.57-.1"></path><path class="cls-58" d="M544.91,349.4a20.43,20.43,0,0,1,.18-3.85,17.58,17.58,0,0,0-.23-4.16,4.93,4.93,0,0,0,1.41,4.1c1.79,1.55,5.62,3.7,3.16,11"></path><ellipse class="cls-58" cx="504.42" cy="354.43" rx="1.22" ry="0.99" transform="translate(-35.71 651.62) rotate(-63.91)"></ellipse><rect class="cls-59" x="553.48" y="320.08" width="14.86" height="8.29"></rect><path class="cls-60" d="M568.34,328.38v11.45a7.43,7.43,0,1,1-14.86,0V328.38Z"></path><rect class="cls-18" x="500.61" y="375.7" width="24.05" height="4.53"></rect><rect class="cls-61" x="493.6" y="382.14" width="38.05" height="6.73"></rect><polygon class="cls-62" points="540.75 406.98 539.75 395.31 532.55 390.04 526.36 396.45 527.37 408.13 534.56 413.4 540.75 406.98"></polygon><polygon class="cls-63" points="502.83 423.63 494.83 409.77 482.89 407.43 478.94 418.94 486.95 432.8 498.89 435.15 502.83 423.63"></polygon><polygon class="cls-64" points="521.36 410.28 513.36 396.42 501.42 394.08 497.47 405.59 505.48 419.45 517.42 421.8 521.36 410.28"></polygon><polygon class="cls-65" points="535.84 448.03 535.84 471.55 518.41 471.55 508.15 459.79 518.41 448.03 535.84 448.03"></polygon><polygon class="cls-66" points="528 419.19 505.07 425.34 497.13 441.56 512.12 451.62 535.05 445.47 542.99 429.25 528 419.19"></polygon><path class="cls-67" d="M458.65,457.29v2.34a1.08,1.08,0,0,1-1.08,1.09h-4.35a1.09,1.09,0,0,1-1.09-1.09v-2.34a1.09,1.09,0,0,0,1.09,1.09h4.35A1.08,1.08,0,0,0,458.65,457.29Z"></path><rect class="cls-68" x="452.13" y="454.2" width="6.52" height="4.18" rx="1.09"></rect><path class="cls-69" d="M466.2,457.29v2.34a1.08,1.08,0,0,1-1.08,1.09h-4.35a1.09,1.09,0,0,1-1.09-1.09v-2.34a1.09,1.09,0,0,0,1.09,1.09h4.35A1.08,1.08,0,0,0,466.2,457.29Z"></path><rect class="cls-70" x="459.68" y="454.2" width="6.52" height="4.18" rx="1.09"></rect><path class="cls-71" d="M473.76,457.29v2.34a1.09,1.09,0,0,1-1.09,1.09h-4.35a1.08,1.08,0,0,1-1.08-1.09v-2.34a1.08,1.08,0,0,0,1.08,1.09h4.35A1.09,1.09,0,0,0,473.76,457.29Z"></path><rect class="cls-72" x="467.24" y="454.2" width="6.52" height="4.18" rx="1.09"></rect><polygon class="cls-73" points="511.87 455.89 501.34 437.64 485.61 434.56 480.42 449.72 490.96 467.97 506.68 471.05 511.87 455.89"></polygon><path class="cls-74" d="M481.31,457.29v2.34a1.09,1.09,0,0,1-1.09,1.09h-4.35a1.08,1.08,0,0,1-1.08-1.09v-2.34a1.08,1.08,0,0,0,1.08,1.09h4.35A1.09,1.09,0,0,0,481.31,457.29Z"></path><rect class="cls-75" x="474.79" y="454.2" width="6.52" height="4.18" rx="1.09"></rect><path class="cls-76" d="M488.86,457.29v2.34a1.09,1.09,0,0,1-1.09,1.09h-4.34a1.09,1.09,0,0,1-1.09-1.09v-2.34a1.09,1.09,0,0,0,1.09,1.09h4.34A1.09,1.09,0,0,0,488.86,457.29Z"></path><rect class="cls-77" x="482.34" y="454.2" width="6.52" height="4.18" rx="1.09"></rect><rect class="cls-18" x="541.25" y="451.68" width="24.96" height="1.12"></rect><rect class="cls-18" x="541.25" y="453.64" width="21.02" height="1.12"></rect><rect class="cls-18" x="541.25" y="455.73" width="16.55" height="1.12"></rect><rect class="cls-18" x="541.25" y="458.11" width="29.62" height="1.12"></rect><rect class="cls-18" x="541.25" y="460.13" width="24.96" height="1.12"></rect><circle class="cls-78" cx="539.29" cy="428.69" r="24.12"></circle><circle class="cls-79" cx="539.29" cy="428.69" r="20.75"></circle><circle class="cls-80" cx="539.29" cy="428.69" r="18.51"></circle><path class="cls-81" d="M272.23,262.22a8.63,8.63,0,1,0,12.2,0A8.62,8.62,0,0,0,272.23,262.22Zm10.71,10.71a6.52,6.52,0,1,1,0-9.22A6.51,6.51,0,0,1,282.94,272.93Z"></path><rect class="cls-82" x="286.54" y="270.65" width="3.62" height="15.15" rx="1.81" transform="translate(-112.28 285.39) rotate(-45)"></rect><rect class="cls-83" x="187.1" y="494.53" width="174.84" height="28.49" rx="6.51"></rect><rect class="cls-84" x="198.11" y="500.23" width="155.17" height="3.92"></rect><rect class="cls-85" x="198.11" y="506.81" width="119.37" height="3.92"></rect><rect class="cls-86" x="198.11" y="513.4" width="143.22" height="3.92"></rect><rect class="cls-87" x="424.85" y="494.53" width="174.84" height="28.49" rx="6.51"></rect><rect class="cls-88" x="435.86" y="500.23" width="135.01" height="3.92"></rect><rect class="cls-89" x="435.86" y="506.81" width="151.21" height="3.92"></rect><rect class="cls-90" x="435.86" y="513.4" width="102" height="3.92"></rect><rect class="cls-91" x="659.74" y="494.53" width="174.84" height="28.49" rx="6.51"></rect><rect class="cls-92" x="670.75" y="500.23" width="128.24" height="3.92"></rect><rect class="cls-93" x="670.75" y="506.81" width="110.05" height="3.92"></rect><rect class="cls-94" x="670.75" y="513.4" width="156.02" height="3.92"></rect><polygon class="cls-95" points="135.56 531.11 135.56 199 883.14 199 135.56 531.11"></polygon><path class="cls-96" d="M284.9,674.59H185.71V605c0,19.2,11.11,36.6,29.06,49.18S257.51,674.59,284.9,674.59Z"></path><rect class="cls-97" x="195.99" y="672.39" width="107.61" height="107.61"></rect><polygon class="cls-98" points="195.99 672.39 195.99 780 303.6 780 195.99 672.39"></polygon><rect class="cls-99" x="303.2" y="726.19" width="53.81" height="53.81"></rect><path class="cls-100" d="M303.2,672.39h43.74A10.07,10.07,0,0,1,357,682.45v43.74a0,0,0,0,1,0,0H303.2a0,0,0,0,1,0,0V672.39A0,0,0,0,1,303.2,672.39Z"></path><path class="cls-101" d="M0,586.25H158.25a38.49,38.49,0,0,1,38.49,38.49V780a0,0,0,0,1,0,0H0a0,0,0,0,1,0,0V586.25A0,0,0,0,1,0,586.25Z"></path><circle class="cls-102" cx="98.37" cy="687.1" r="47.29"></circle><path class="cls-103" d="M98.37,618.06a69.05,69.05,0,1,0,69,69.05A69,69,0,0,0,98.37,618.06Zm0,116.33a47.29,47.29,0,1,1,47.28-47.28A47.28,47.28,0,0,1,98.37,734.39Z"></path><path class="cls-104" d="M97.88,712a42.72,42.72,0,0,1-12-1.67A27.8,27.8,0,0,1,76.71,706l4.07-9a28.21,28.21,0,0,0,7.85,3.89,29.28,29.28,0,0,0,9.25,1.51,18.07,18.07,0,0,0,5.73-.74,7,7,0,0,0,3.22-2,4.26,4.26,0,0,0,1-2.85,3.91,3.91,0,0,0-1.63-3.29,13.53,13.53,0,0,0-4.33-2q-2.7-.78-5.88-1.48c-2.13-.47-4.26-1-6.41-1.7a26.09,26.09,0,0,1-5.92-2.67,12.52,12.52,0,0,1-4.29-4.36,13.17,13.17,0,0,1-1.59-6.77,14.6,14.6,0,0,1,2.37-8.11,16.25,16.25,0,0,1,7.21-5.85,29.79,29.79,0,0,1,12.18-2.18,40.48,40.48,0,0,1,9.66,1.18,28.52,28.52,0,0,1,8.32,3.41l-3.77,9a30.39,30.39,0,0,0-7.18-3,27.56,27.56,0,0,0-7.11-1,17.05,17.05,0,0,0-5.69.78,6.6,6.6,0,0,0-3.15,2.11,4.79,4.79,0,0,0-1,3,4,4,0,0,0,1.63,3.33,12,12,0,0,0,4.29,2q2.67.71,5.92,1.41a65.85,65.85,0,0,1,6.44,1.74,28.81,28.81,0,0,1,5.85,2.62,12.72,12.72,0,0,1,4.33,4.3,12.53,12.53,0,0,1,1.67,6.69,14.2,14.2,0,0,1-2.41,8,16.72,16.72,0,0,1-7.29,5.85A29.55,29.55,0,0,1,97.88,712Zm-2.74,8V650.4h7.47V720Z"></path><rect class="cls-104" x="309.72" y="679.47" width="41.36" height="7.22"></rect><rect class="cls-104" x="309.72" y="693.84" width="41.36" height="7.22"></rect><rect class="cls-104" x="309.72" y="708.21" width="41.36" height="7.22"></rect><rect class="cls-104" x="309.72" y="722.59" width="41.36" height="7.22"></rect><rect class="cls-104" x="309.72" y="736.96" width="41.36" height="7.22"></rect><rect class="cls-104" x="309.72" y="751.33" width="41.36" height="7.22"></rect><path class="cls-105" d="M735.78,674.59H835V605c0,19.2-11.11,36.6-29.06,49.18S763.17,674.59,735.78,674.59Z"></path><rect class="cls-106" x="717.09" y="672.39" width="107.61" height="107.61" transform="translate(1541.79 1452.39) rotate(-180)"></rect><polygon class="cls-107" points="824.7 672.39 824.7 780 717.09 780 824.7 672.39"></polygon><rect class="cls-108" x="663.68" y="726.19" width="53.81" height="53.81" transform="translate(1381.17 1506.19) rotate(-180)"></rect><path class="cls-109" d="M663.68,672.39h53.81a0,0,0,0,1,0,0v43.74a10.07,10.07,0,0,1-10.07,10.07H663.68a0,0,0,0,1,0,0V672.39A0,0,0,0,1,663.68,672.39Z" transform="translate(1381.17 1398.58) rotate(-180)"></path><path class="cls-110" d="M859.3,585.79H1019a0,0,0,0,1,0,0V779.53a0,0,0,0,1,0,0H825.26a0,0,0,0,1,0,0V619.84A34,34,0,0,1,859.3,585.79Z"></path><circle class="cls-111" cx="922.13" cy="682.65" r="47.29"></circle><path class="cls-112" d="M922.13,613.61a69.05,69.05,0,1,0,69,69A69.05,69.05,0,0,0,922.13,613.61Zm0,116.33a47.29,47.29,0,1,1,47.28-47.28A47.28,47.28,0,0,1,922.13,729.94Z"></path><rect class="cls-104" x="669.9" y="679.47" width="41.36" height="7.22"></rect><rect class="cls-104" x="669.9" y="693.84" width="41.36" height="7.22"></rect><rect class="cls-104" x="669.9" y="708.21" width="41.36" height="7.22"></rect><rect class="cls-104" x="669.9" y="722.59" width="41.36" height="7.22"></rect><rect class="cls-104" x="669.9" y="736.96" width="41.36" height="7.22"></rect><rect class="cls-104" x="669.9" y="751.33" width="41.36" height="7.22"></rect><polyline class="cls-113" points="906.2 697.8 902.27 703.8 948.13 703.8"></polyline><polyline class="cls-113" points="918 697.8 905.39 697.8 895.73 660.8 886.53 660.8"></polyline><circle class="cls-114" cx="912.08" cy="709.59" r="3.55"></circle><circle class="cls-114" cx="937.1" cy="709.59" r="3.55"></circle><line class="cls-113" x1="912.59" y1="665.89" x2="918.41" y2="694.4"></line><line class="cls-113" x1="943.56" y1="665.89" x2="937.74" y2="694.4"></line><line class="cls-113" x1="927.73" y1="665.89" x2="927.73" y2="694.4"></line><line class="cls-113" x1="903.29" y1="676.92" x2="952.17" y2="676.92"></line><line class="cls-113" x1="905.98" y1="686.91" x2="949.49" y2="686.91"></line><polygon class="cls-113" points="947.48 694.4 907.99 694.4 900.33 665.89 955.13 665.89 947.48 694.4"></polygon></g></g></svg> 