<?xml version="1.0" encoding="UTF-8"?> <svg xmlns="http://www.w3.org/2000/svg" xmlns:xlink="http://www.w3.org/1999/xlink" viewBox="0 0 204.57 246.9"><defs><style>.cls-1{fill:url(#linear-gradient);}.cls-2{fill:url(#linear-gradient-2);}.cls-3{fill:url(#linear-gradient-3);}.cls-4{fill:url(#linear-gradient-4);}.cls-5{fill:url(#linear-gradient-5);}.cls-6{fill:url(#linear-gradient-6);}.cls-7{fill:url(#linear-gradient-7);}.cls-8{fill:none;stroke:#fff;stroke-linecap:round;stroke-linejoin:round;stroke-width:4px;}</style><linearGradient id="linear-gradient" x1="38.99" y1="122.04" x2="243.53" y2="122.04" gradientTransform="translate(0.55 1.4) rotate(0.01)" gradientUnits="userSpaceOnUse"><stop offset="0" stop-color="#3e2b58"></stop><stop offset="0.33" stop-color="#402d59"></stop><stop offset="0.48" stop-color="#47345e"></stop><stop offset="0.59" stop-color="#544067"></stop><stop offset="0.68" stop-color="#665073"></stop><stop offset="0.76" stop-color="#7d6683"></stop><stop offset="0.84" stop-color="#9a8197"></stop><stop offset="0.91" stop-color="#bda1af"></stop><stop offset="0.97" stop-color="#e3c5c9"></stop><stop offset="1" stop-color="#fcdcda"></stop></linearGradient><linearGradient id="linear-gradient-2" x1="97.14" y1="3843.95" x2="107.24" y2="3843.95" gradientTransform="matrix(1, 0, 0, -1, 0, 4040.05)" gradientUnits="userSpaceOnUse"><stop offset="0.16" stop-color="#3e2c57"></stop><stop offset="1" stop-color="#ee2842"></stop></linearGradient><linearGradient id="linear-gradient-3" x1="83.03" y1="3871.9" x2="110" y2="3871.9" gradientTransform="matrix(1, 0, 0, -1, 0, 4040.05)" gradientUnits="userSpaceOnUse"><stop offset="0.16" stop-color="#a03694"></stop><stop offset="1" stop-color="#ee2842"></stop></linearGradient><linearGradient id="linear-gradient-4" x1="83.09" y1="3863.98" x2="121.48" y2="3863.98" xlink:href="#linear-gradient-3"></linearGradient><linearGradient id="linear-gradient-5" x1="83.03" y1="3848.04" x2="121.45" y2="3848.04" xlink:href="#linear-gradient-3"></linearGradient><linearGradient id="linear-gradient-6" x1="83.03" y1="3856.05" x2="103.18" y2="3856.05" xlink:href="#linear-gradient-3"></linearGradient><linearGradient id="linear-gradient-7" x1="56.28" y1="3934.06" x2="148.29" y2="3934.06" gradientTransform="matrix(1, 0, 0, -1, 0, 4040.05)" gradientUnits="userSpaceOnUse"><stop offset="0.16" stop-color="#ec2942"></stop><stop offset="1" stop-color="#fcdcda"></stop></linearGradient></defs><g id="Layer_2" data-name="Layer 2"><g id="Design"><rect class="cls-1" x="0.02" y="0.01" width="204.54" height="246.88" rx="33.31"></rect><path class="cls-2" d="M107.25,196a5.06,5.06,0,1,1-10.11.49V196H101v-4.93a5.17,5.17,0,0,1,1.24-.13A5,5,0,0,1,107.25,196Z"></path><path class="cls-3" d="M121.45,168.16a3.94,3.94,0,0,1-3.93,4H87a4,4,0,0,1,0-7.93h30.45a4,4,0,0,1,4,3.92Z"></path><path class="cls-4" d="M121.45,176.07a4,4,0,0,1-3.93,4H87.05a4,4,0,1,1-.44-7.92h30.92A4,4,0,0,1,121.45,176.07Z"></path><path class="cls-5" d="M121.45,192a4,4,0,0,1-4,3.94H87a4,4,0,0,1,0-7.93h30.45a4,4,0,0,1,4,3.91A.22.22,0,0,1,121.45,192Z"></path><path class="cls-6" d="M121.45,184a3.94,3.94,0,0,1-3.93,4H87A4,4,0,1,1,87,180h30.45a4,4,0,0,1,4,3.91Z"></path><path class="cls-7" d="M148.29,92.86a45.08,45.08,0,0,1-16.77,35.06h0a61.56,61.56,0,0,0-13.14,33.23c-.15,2-.13,3.23-.13,3.23h-32v-.65a61,61,0,0,0-13.54-36.08A45.06,45.06,0,0,1,56.28,92.86V89.38a15,15,0,0,1,.2-2V87c.11-.87.25-1.73.41-2.59a1,1,0,0,1,.1-.52l.11-.51a2.88,2.88,0,0,1,.09-.4,35,35,0,0,1,1.23-4.25,1.59,1.59,0,0,1,.14-.4c.16-.47.33-.94.5-1.4s.25-.64.38-.94c.38-1,.8-1.89,1.23-2.81l.47-.91c.08-.15.15-.3.24-.44.23-.46.48-.9.73-1.35l.52-.87c.09-.15.17-.29.27-.43l.54-.86.57-.84L64.3,67l.58-.81.06-.08.56-.73.63-.79c.32-.4.64-.79,1-1.17l.33-.38c.33-.38.68-.75,1-1.12h0l.7-.73.37-.37.73-.7q.59-.57,1.23-1.11c.83-.72,1.67-1.43,2.56-2.1.43-.34.88-.66,1.33-1s1.11-.77,1.69-1.14,1.44-.9,2.18-1.32h0c.29-.16.57-.33.87-.48l.45-.24.92-.47.59-.23.93-.45c.62-.28,1.23-.54,1.87-.8h0c1.12-.45,2.27-.86,3.42-1.23l.5-.16.91-.26h.12l.86-.23,1-.22c.61-.15,1.23-.27,1.82-.4s1.24-.22,1.85-.3l.62-.09.62-.09h.37l.89-.1h.49l1-.07h.35c.86,0,1.71-.07,2.58-.07h0C127.7,47.48,148.29,67.8,148.29,92.86Z"></path><path class="cls-8" d="M96.15,164.21a63.73,63.73,0,0,0,.29-24.73c-1.74-9.32-5-14.67-9.3-21.84-1.06-1.76-3.14-5-6.85-6.15-.88-.26-3.9-1.23-5.29.48-1,1.15-.87,3.22.26,5.09a11.6,11.6,0,0,0,4.16,4.13s6.7,3.78,16.91-1.71l.46-.26s.48-.27.93-.56,16.9-14.77,12.12-24.44c-1.35-2.72-4.42-5.26-7.55-5-4,.28-6.22,4.83-6.35,5.12-3.44,7.14,1.81,18.76,10.31,23a20.51,20.51,0,0,0,6.16,1.91c7.54,1.32,17.3-.31,18.46-4.15.68-2.35-1.73-6.08-4.47-6.35-6.36-.62-14.2,17.67-17.23,30.37a76.08,76.08,0,0,0-1.57,25.17"></path></g></g></svg> 