<?xml version="1.0" encoding="UTF-8"?> <svg xmlns="http://www.w3.org/2000/svg" xmlns:xlink="http://www.w3.org/1999/xlink" viewBox="0 0 772.11 995.45"><defs><style>.cls-1{fill:url(#linear-gradient);}.cls-2{fill:url(#linear-gradient-2);}.cls-3{fill:url(#linear-gradient-3);}.cls-4{fill:url(#linear-gradient-4);}.cls-5{fill:url(#linear-gradient-5);}.cls-6{fill:url(#linear-gradient-6);}.cls-7{fill:url(#linear-gradient-7);}.cls-8{fill:url(#linear-gradient-8);}.cls-9{fill:url(#linear-gradient-9);}.cls-10{fill:url(#linear-gradient-10);}.cls-11{fill:url(#linear-gradient-11);}.cls-12{fill:url(#linear-gradient-12);}.cls-13{fill:url(#linear-gradient-13);}.cls-14{fill:url(#linear-gradient-14);}.cls-15{fill:url(#linear-gradient-15);}.cls-16{fill:url(#linear-gradient-16);}.cls-17{fill:url(#linear-gradient-17);}.cls-18{fill:url(#linear-gradient-18);}.cls-19{fill:url(#linear-gradient-19);}.cls-20{fill:url(#linear-gradient-20);}.cls-21{fill:url(#linear-gradient-21);}.cls-22{fill:url(#linear-gradient-22);}.cls-23{fill:url(#linear-gradient-23);}.cls-24{fill:url(#linear-gradient-24);}.cls-25{fill:url(#linear-gradient-25);}.cls-26{fill:url(#linear-gradient-26);}.cls-27{fill:url(#linear-gradient-27);}.cls-28{fill:url(#linear-gradient-28);}.cls-29{fill:url(#linear-gradient-29);}.cls-30{fill:url(#linear-gradient-30);}.cls-31{fill:url(#linear-gradient-31);}.cls-32{fill:url(#linear-gradient-32);}.cls-33{fill:url(#linear-gradient-33);}.cls-34{fill:url(#linear-gradient-34);}.cls-35{fill:url(#linear-gradient-35);}.cls-36{fill:url(#linear-gradient-36);}.cls-37{fill:url(#linear-gradient-37);}.cls-38{fill:url(#linear-gradient-38);}.cls-39{fill:url(#linear-gradient-39);}.cls-40{fill:url(#linear-gradient-40);}.cls-41{fill:url(#linear-gradient-41);}.cls-42{fill:url(#linear-gradient-42);}.cls-43{fill:url(#linear-gradient-43);}.cls-44{fill:url(#linear-gradient-44);}.cls-45{fill:url(#linear-gradient-45);}.cls-46{fill:url(#linear-gradient-46);}.cls-47{fill:url(#linear-gradient-47);}.cls-48{fill:url(#linear-gradient-48);}.cls-49{fill:url(#linear-gradient-49);}.cls-50{fill:url(#linear-gradient-50);}.cls-51{fill:url(#linear-gradient-51);}.cls-52{fill:url(#linear-gradient-52);}.cls-53{fill:url(#linear-gradient-53);}.cls-54{fill:url(#linear-gradient-54);}.cls-55{fill:#fcdcda;}.cls-56{fill:url(#linear-gradient-55);}.cls-57{fill:url(#linear-gradient-56);}.cls-58{fill:url(#linear-gradient-57);}.cls-59{fill:url(#linear-gradient-58);}.cls-60,.cls-61{fill:none;stroke-miterlimit:10;stroke-width:6px;}.cls-60{stroke:url(#linear-gradient-59);}.cls-61{stroke:url(#linear-gradient-60);}.cls-62{fill:url(#linear-gradient-61);}.cls-63{fill:url(#linear-gradient-62);}.cls-64{fill:url(#linear-gradient-63);}.cls-65{fill:url(#linear-gradient-64);}.cls-66{fill:url(#linear-gradient-65);}.cls-67{fill:url(#linear-gradient-66);}.cls-68{fill:url(#linear-gradient-67);}.cls-69{fill:url(#linear-gradient-68);}.cls-70{fill:url(#linear-gradient-69);}.cls-71{fill:url(#linear-gradient-70);}.cls-72{fill:url(#linear-gradient-71);}.cls-73{fill:url(#linear-gradient-72);}.cls-74{fill:url(#linear-gradient-73);}.cls-75{fill:url(#linear-gradient-74);}.cls-76{fill:url(#linear-gradient-75);}.cls-77{fill:url(#linear-gradient-76);}.cls-78{fill:url(#linear-gradient-77);}.cls-79{fill:url(#linear-gradient-78);}.cls-80{fill:url(#linear-gradient-79);}.cls-81{fill:url(#linear-gradient-80);}.cls-82{fill:url(#linear-gradient-81);}.cls-83{fill:url(#linear-gradient-82);}.cls-84{fill:url(#linear-gradient-83);}.cls-85{fill:url(#linear-gradient-84);}.cls-86{fill:url(#linear-gradient-85);}.cls-87{fill:url(#linear-gradient-86);}.cls-88{fill:url(#linear-gradient-87);}.cls-89{fill:url(#linear-gradient-88);}</style><linearGradient id="linear-gradient" x1="629.26" y1="427.77" x2="1109.49" y2="427.77" gradientUnits="userSpaceOnUse"><stop offset="0" stop-color="#fcdcda"></stop><stop offset="0.57" stop-color="#bad8df"></stop></linearGradient><linearGradient id="linear-gradient-2" x1="655.35" y1="426.96" x2="1235.01" y2="426.96" gradientUnits="userSpaceOnUse"><stop offset="0.57" stop-color="#bad8df"></stop><stop offset="1" stop-color="#fcdcda"></stop></linearGradient><linearGradient id="linear-gradient-3" x1="535.96" y1="660.43" x2="1055.96" y2="660.43" xlink:href="#linear-gradient-2"></linearGradient><linearGradient id="linear-gradient-4" x1="224.06" y1="430.94" x2="2993.4" y2="430.94" xlink:href="#linear-gradient-2"></linearGradient><linearGradient id="linear-gradient-5" x1="101.11" y1="-33.08" x2="1154.05" y2="1019.86" gradientUnits="userSpaceOnUse"><stop offset="0" stop-color="#fcdcda"></stop><stop offset="0.59" stop-color="#bad8df"></stop></linearGradient><linearGradient id="linear-gradient-6" x1="336.99" y1="544.18" x2="1622.69" y2="544.18" gradientUnits="userSpaceOnUse"><stop offset="0" stop-color="#bad8df"></stop><stop offset="0.37" stop-color="#fcdcda"></stop></linearGradient><linearGradient id="linear-gradient-7" x1="-500.06" y1="803.92" x2="706.81" y2="803.92" xlink:href="#linear-gradient-2"></linearGradient><linearGradient id="linear-gradient-8" x1="-360" y1="828.7" x2="718.68" y2="828.7" gradientUnits="userSpaceOnUse"><stop offset="0" stop-color="#a03594"></stop><stop offset="0.22" stop-color="#a23895"></stop><stop offset="0.37" stop-color="#a74199"></stop><stop offset="0.51" stop-color="#af51a0"></stop><stop offset="0.64" stop-color="#bc67a9"></stop><stop offset="0.75" stop-color="#cb84b5"></stop><stop offset="0.87" stop-color="#dfa7c4"></stop><stop offset="0.97" stop-color="#f5d0d5"></stop><stop offset="1" stop-color="#fcdcda"></stop></linearGradient><linearGradient id="linear-gradient-9" x1="-75.06" y1="923.27" x2="1090.27" y2="923.27" gradientUnits="userSpaceOnUse"><stop offset="0.05" stop-color="#3e2b58"></stop><stop offset="0.13" stop-color="#502d63"></stop><stop offset="0.28" stop-color="#7e327f"></stop><stop offset="0.37" stop-color="#a03594"></stop><stop offset="0.51" stop-color="#a23895"></stop><stop offset="0.61" stop-color="#a74199"></stop><stop offset="0.69" stop-color="#af51a0"></stop><stop offset="0.77" stop-color="#bc67a9"></stop><stop offset="0.85" stop-color="#cb84b5"></stop><stop offset="0.92" stop-color="#dfa7c4"></stop><stop offset="0.98" stop-color="#f5d0d5"></stop><stop offset="1" stop-color="#fcdcda"></stop></linearGradient><linearGradient id="linear-gradient-10" x1="-257.85" y1="961.76" x2="875.47" y2="961.76" gradientUnits="userSpaceOnUse"><stop offset="0" stop-color="#a03594"></stop><stop offset="0.28" stop-color="#a33591"></stop><stop offset="0.49" stop-color="#ab3388"></stop><stop offset="0.66" stop-color="#ba3078"></stop><stop offset="0.83" stop-color="#cf2d62"></stop><stop offset="0.98" stop-color="#e92846"></stop><stop offset="1" stop-color="#ee2741"></stop></linearGradient><linearGradient id="linear-gradient-11" x1="320.28" y1="845.33" x2="491.25" y2="845.33" gradientUnits="userSpaceOnUse"><stop offset="0" stop-color="#3e2b58"></stop><stop offset="0.54" stop-color="#fcdcda"></stop></linearGradient><linearGradient id="linear-gradient-12" x1="461.98" y1="859.69" x2="500.83" y2="859.69" gradientUnits="userSpaceOnUse"><stop offset="0" stop-color="#3e2b58"></stop><stop offset="1" stop-color="#fcdcda"></stop></linearGradient><linearGradient id="linear-gradient-13" x1="441.14" y1="859.69" x2="461.98" y2="859.69" xlink:href="#linear-gradient-12"></linearGradient><linearGradient id="linear-gradient-14" x1="9174.2" y1="860.69" x2="9195.03" y2="860.69" gradientTransform="matrix(-1, 0, 0, 1, 9570.89, 0)" xlink:href="#linear-gradient-12"></linearGradient><linearGradient id="linear-gradient-15" x1="403.77" y1="885.37" x2="519.32" y2="885.37" xlink:href="#linear-gradient-12"></linearGradient><linearGradient id="linear-gradient-16" x1="-591.59" y1="2580.11" x2="-420.62" y2="2580.11" gradientTransform="translate(679.58 -1712.98)" xlink:href="#linear-gradient-11"></linearGradient><linearGradient id="linear-gradient-17" x1="-449.89" y1="2594.47" x2="-411.04" y2="2594.47" gradientTransform="translate(1555.23 -1380.39) rotate(20.56)" xlink:href="#linear-gradient-12"></linearGradient><linearGradient id="linear-gradient-18" x1="-470.72" y1="2594.47" x2="-449.89" y2="2594.47" gradientTransform="translate(1555.23 -1380.39) rotate(20.56)" xlink:href="#linear-gradient-12"></linearGradient><linearGradient id="linear-gradient-19" x1="10086.07" y1="2595.47" x2="10106.9" y2="2595.47" gradientTransform="matrix(-0.94, -0.35, -0.35, 0.94, 10516.42, 1981.03)" xlink:href="#linear-gradient-12"></linearGradient><linearGradient id="linear-gradient-20" x1="-508.1" y1="2620.15" x2="-392.55" y2="2620.15" gradientTransform="translate(663.69 -1705.46)" xlink:href="#linear-gradient-12"></linearGradient><linearGradient id="linear-gradient-21" x1="7801.03" y1="586.52" x2="7920.09" y2="586.52" gradientTransform="translate(-7335.61 5.3) scale(1 0.75)" gradientUnits="userSpaceOnUse"><stop offset="0.3" stop-color="#fcdcda"></stop><stop offset="1" stop-color="#3e2b58"></stop></linearGradient><linearGradient id="linear-gradient-22" x1="7518.75" y1="-788.87" x2="7432.41" y2="-788.87" gradientTransform="matrix(1, 0, 0, -0.69, -7101, -112.14)" gradientUnits="userSpaceOnUse"><stop offset="0" stop-color="#ed2741"></stop><stop offset="1" stop-color="#fcdcda"></stop></linearGradient><linearGradient id="linear-gradient-23" x1="7897.47" y1="419.63" x2="7811.14" y2="419.63" gradientTransform="translate(-7429.71 191.63) scale(1 0.68)" xlink:href="#linear-gradient-22"></linearGradient><linearGradient id="linear-gradient-24" x1="7508.44" y1="742.67" x2="7324.78" y2="742.67" gradientTransform="matrix(1, 0, 0, -1, -7048.31, 1485.34)" xlink:href="#linear-gradient-12"></linearGradient><linearGradient id="linear-gradient-25" x1="3168.52" y1="-4445.91" x2="2976.31" y2="-4445.91" gradientTransform="matrix(1, 0, 0, -0.65, -2759.84, -2233.98)" xlink:href="#linear-gradient-12"></linearGradient><linearGradient id="linear-gradient-26" x1="8399.5" y1="2727.53" x2="8215.83" y2="2727.53" gradientTransform="matrix(1, 0, 0, -1.29, -8141.18, 4306.33)" xlink:href="#linear-gradient-12"></linearGradient><linearGradient id="linear-gradient-27" x1="8015.11" y1="1433.59" x2="7831.45" y2="1433.59" gradientTransform="matrix(1, 0, 0, -1.12, -7719.44, 2274.09)" xlink:href="#linear-gradient-12"></linearGradient><linearGradient id="linear-gradient-28" x1="305.93" y1="484.62" x2="436.65" y2="484.62" gradientTransform="matrix(1, 0, 0, 1, 0, 0)" xlink:href="#linear-gradient-22"></linearGradient><linearGradient id="linear-gradient-29" x1="216.87" y1="484.62" x2="337.42" y2="484.62" gradientUnits="userSpaceOnUse"><stop offset="0" stop-color="#ed2741"></stop><stop offset="0.91" stop-color="#fcdcda"></stop></linearGradient><linearGradient id="linear-gradient-30" x1="254.23" y1="398.83" x2="357.1" y2="398.83" gradientUnits="userSpaceOnUse"><stop offset="0.5" stop-color="#bad8df"></stop><stop offset="0.95" stop-color="#fcdcda"></stop></linearGradient><linearGradient id="linear-gradient-31" x1="287.8" y1="407.15" x2="324.31" y2="407.15" gradientUnits="userSpaceOnUse"><stop offset="0" stop-color="#ed2741"></stop><stop offset="0.4" stop-color="#ed2943"></stop><stop offset="0.54" stop-color="#ee3048"></stop><stop offset="0.65" stop-color="#ef3b52"></stop><stop offset="0.73" stop-color="#f04c61"></stop><stop offset="0.8" stop-color="#f26273"></stop><stop offset="0.86" stop-color="#f47e8a"></stop><stop offset="0.92" stop-color="#f79ea6"></stop><stop offset="0.97" stop-color="#fac2c4"></stop><stop offset="1" stop-color="#fcdcda"></stop></linearGradient><linearGradient id="linear-gradient-32" x1="-15.36" y1="11636.86" x2="28.9" y2="11636.86" gradientTransform="translate(312.78 12000.61) rotate(180)" gradientUnits="userSpaceOnUse"><stop offset="0" stop-color="#fcdcda"></stop><stop offset="1" stop-color="#ed2741"></stop></linearGradient><linearGradient id="linear-gradient-33" x1="305.95" y1="400.43" x2="227.59" y2="400.43" gradientUnits="userSpaceOnUse"><stop offset="0" stop-color="#fcdcda"></stop><stop offset="0.62" stop-color="#ed2741"></stop></linearGradient><linearGradient id="linear-gradient-34" x1="7695.33" y1="400.43" x2="7616.97" y2="400.43" gradientTransform="matrix(-1, 0, 0, 1, 8001.39, 0)" gradientUnits="userSpaceOnUse"><stop offset="0.47" stop-color="#ed2741"></stop><stop offset="1" stop-color="#fcdcda"></stop></linearGradient><linearGradient id="linear-gradient-35" x1="12128.5" y1="236.42" x2="12203.57" y2="236.42" gradientTransform="matrix(1, 0, 0, -1, -11870.25, 472.83)" gradientUnits="userSpaceOnUse"><stop offset="0" stop-color="#3e2b58"></stop><stop offset="0.08" stop-color="#644f72"></stop><stop offset="0.18" stop-color="#8d748e"></stop><stop offset="0.28" stop-color="#af94a5"></stop><stop offset="0.39" stop-color="#cbaeb9"></stop><stop offset="0.51" stop-color="#e1c3c7"></stop><stop offset="0.63" stop-color="#f0d1d2"></stop><stop offset="0.78" stop-color="#f9d9d8"></stop><stop offset="1" stop-color="#fcdcda"></stop></linearGradient><linearGradient id="linear-gradient-36" x1="12042.55" y1="236.42" x2="12117.62" y2="236.42" gradientTransform="matrix(1, 0, 0, -1, -11698.36, 472.83)" xlink:href="#linear-gradient-35"></linearGradient><linearGradient id="linear-gradient-37" x1="12048.26" y1="237.81" x2="12048.29" y2="237.81" gradientTransform="matrix(-1, 0, 0, 1, 12405.8, 0)" gradientUnits="userSpaceOnUse"><stop offset="0.12" stop-color="#fcdcda"></stop><stop offset="0.83" stop-color="#3e2b58"></stop></linearGradient><linearGradient id="linear-gradient-38" x1="12072.72" y1="322.18" x2="12073.34" y2="322.18" xlink:href="#linear-gradient-37"></linearGradient><linearGradient id="linear-gradient-39" x1="12072.99" y1="321.5" x2="12109.11" y2="321.5" xlink:href="#linear-gradient-37"></linearGradient><linearGradient id="linear-gradient-40" x1="12091.79" y1="328.99" x2="12092.88" y2="328.99" xlink:href="#linear-gradient-37"></linearGradient><linearGradient id="linear-gradient-41" x1="12092.9" y1="327.93" x2="12094.34" y2="327.93" xlink:href="#linear-gradient-37"></linearGradient><linearGradient id="linear-gradient-42" x1="12095.25" y1="325.17" x2="12097.68" y2="325.17" xlink:href="#linear-gradient-37"></linearGradient><linearGradient id="linear-gradient-43" x1="12097.4" y1="322.74" x2="12098.3" y2="322.74" xlink:href="#linear-gradient-37"></linearGradient><linearGradient id="linear-gradient-44" x1="12102" y1="309.82" x2="12102.95" y2="309.82" xlink:href="#linear-gradient-37"></linearGradient><linearGradient id="linear-gradient-45" x1="12072.3" y1="322.8" x2="12102.42" y2="322.8" gradientTransform="matrix(-1, 0, 0, 1, 12405.8, 0)" gradientUnits="userSpaceOnUse"><stop offset="0.53" stop-color="#3e2b58"></stop><stop offset="1" stop-color="#fcdcda"></stop></linearGradient><linearGradient id="linear-gradient-46" x1="12072.96" y1="335.98" x2="12076.04" y2="335.98" gradientTransform="matrix(-1, 0, 0, 1, 12405.8, 0)" xlink:href="#linear-gradient-12"></linearGradient><linearGradient id="linear-gradient-47" x1="12073.27" y1="321.5" x2="12088.93" y2="321.5" gradientTransform="matrix(-1, 0, 0, 1, 12405.8, 0)" gradientUnits="userSpaceOnUse"><stop offset="0" stop-color="#fcdcda"></stop><stop offset="0.54" stop-color="#3e2b58"></stop></linearGradient><linearGradient id="linear-gradient-48" x1="12091.79" y1="329" x2="12092.25" y2="329" xlink:href="#linear-gradient-47"></linearGradient><linearGradient id="linear-gradient-49" x1="12092.9" y1="327.94" x2="12093.5" y2="327.94" xlink:href="#linear-gradient-47"></linearGradient><linearGradient id="linear-gradient-50" x1="12095.25" y1="325.5" x2="12095.79" y2="325.5" xlink:href="#linear-gradient-47"></linearGradient><linearGradient id="linear-gradient-51" x1="12095.79" y1="324.84" x2="12096.32" y2="324.84" xlink:href="#linear-gradient-47"></linearGradient><linearGradient id="linear-gradient-52" x1="12097.4" y1="322.74" x2="12097.8" y2="322.74" xlink:href="#linear-gradient-47"></linearGradient><linearGradient id="linear-gradient-53" x1="12102.1" y1="311.48" x2="12102.17" y2="311.48" xlink:href="#linear-gradient-47"></linearGradient><linearGradient id="linear-gradient-54" x1="12102" y1="309.82" x2="12102.42" y2="309.82" xlink:href="#linear-gradient-47"></linearGradient><linearGradient id="linear-gradient-55" x1="12116.85" y1="236.42" x2="12191.92" y2="236.42" gradientTransform="matrix(1, 0, 0, -1, -11846.96, 472.83)" xlink:href="#linear-gradient-12"></linearGradient><linearGradient id="linear-gradient-56" x1="12041.33" y1="258.6" x2="12069.73" y2="258.6" gradientTransform="matrix(1, 0, 0, -1, -11703.38, 517.21)" gradientUnits="userSpaceOnUse"><stop offset="0.02" stop-color="#bad8df"></stop><stop offset="1" stop-color="#fcdcda"></stop></linearGradient><linearGradient id="linear-gradient-57" x1="12077.81" y1="258.6" x2="12104.92" y2="258.6" gradientTransform="matrix(1, 0, 0, -1, -11776.35, 517.21)" gradientUnits="userSpaceOnUse"><stop offset="0" stop-color="#bad8df"></stop><stop offset="1" stop-color="#fcdcda"></stop></linearGradient><linearGradient id="linear-gradient-58" x1="12069.43" y1="253.22" x2="12085.7" y2="253.22" gradientTransform="matrix(1, 0, 0, -1, -11739.86, 506.43)" xlink:href="#linear-gradient-45"></linearGradient><linearGradient id="linear-gradient-59" x1="12037.08" y1="258.6" x2="12072.11" y2="258.6" gradientTransform="matrix(1, 0, 0, -1, -11703.38, 517.21)" xlink:href="#linear-gradient-45"></linearGradient><linearGradient id="linear-gradient-60" x1="12073.56" y1="258.6" x2="12108.59" y2="258.6" gradientTransform="matrix(1, 0, 0, -1, -11776.35, 517.21)" xlink:href="#linear-gradient-45"></linearGradient><linearGradient id="linear-gradient-61" x1="12105.59" y1="250.78" x2="12114.28" y2="250.78" gradientTransform="matrix(1, 0, 0, -1, -11814.07, 501.56)" xlink:href="#linear-gradient-45"></linearGradient><linearGradient id="linear-gradient-62" x1="12115.21" y1="249.56" x2="12162.43" y2="249.56" gradientTransform="matrix(1, 0, 0, -1, -11844.39, 499.12)" gradientUnits="userSpaceOnUse"><stop offset="0.17" stop-color="#3e2b58"></stop><stop offset="1" stop-color="#fcdcda"></stop></linearGradient><linearGradient id="linear-gradient-63" x1="12042.52" y1="203.91" x2="12408.13" y2="203.91" gradientTransform="matrix(1, 0, 0, -1, -11772.05, 407.83)" xlink:href="#linear-gradient-12"></linearGradient><linearGradient id="linear-gradient-64" x1="263.33" y1="351.9" x2="303.2" y2="351.9" gradientUnits="userSpaceOnUse"><stop offset="0" stop-color="#bad8df"></stop><stop offset="0.95" stop-color="#fcdcda"></stop></linearGradient><linearGradient id="linear-gradient-65" x1="7637.77" y1="351.32" x2="7676.02" y2="351.32" gradientTransform="matrix(-1, 0, 0, 1, 7986.49, 0)" gradientUnits="userSpaceOnUse"><stop offset="0" stop-color="#fcdcda"></stop><stop offset="1" stop-color="#bad8df"></stop></linearGradient><linearGradient id="linear-gradient-66" x1="234.28" y1="576.67" x2="351.57" y2="576.67" xlink:href="#linear-gradient-29"></linearGradient><linearGradient id="linear-gradient-67" x1="7666.13" y1="576.67" x2="7739.5" y2="576.67" gradientTransform="matrix(1, 0, 0, -1, -7358.9, 1153.34)" gradientUnits="userSpaceOnUse"><stop offset="0" stop-color="#fcdcda"></stop><stop offset="0.04" stop-color="#fbcfcf"></stop><stop offset="0.22" stop-color="#f79ca4"></stop><stop offset="0.39" stop-color="#f37281"></stop><stop offset="0.56" stop-color="#f15165"></stop><stop offset="0.72" stop-color="#ef3a51"></stop><stop offset="0.87" stop-color="#ed2c45"></stop><stop offset="1" stop-color="#ed2741"></stop></linearGradient><linearGradient id="linear-gradient-68" x1="332.98" y1="459.11" x2="381.98" y2="459.11" gradientTransform="matrix(1, 0, 0, 1, 0, 0)" xlink:href="#linear-gradient-22"></linearGradient><linearGradient id="linear-gradient-69" x1="332.98" y1="445.39" x2="381.98" y2="445.39" xlink:href="#linear-gradient-30"></linearGradient><linearGradient id="linear-gradient-70" x1="4182.67" y1="-1237.22" x2="4332.42" y2="-1237.22" gradientTransform="matrix(0.7, -0.72, 0.76, 0.74, -1834.35, 4457.02)" xlink:href="#linear-gradient-21"></linearGradient><linearGradient id="linear-gradient-71" x1="-2323.27" y1="6007.59" x2="-2412.48" y2="6007.59" gradientTransform="matrix(0.55, 0.84, -0.5, 0.44, 4497.76, -282.58)" xlink:href="#linear-gradient-29"></linearGradient><linearGradient id="linear-gradient-72" x1="4171.9" y1="-3141.5" x2="4327.95" y2="-3141.5" gradientTransform="matrix(0.72, -0.74, 0.57, 0.55, -1091.25, 5341.16)" xlink:href="#linear-gradient-22"></linearGradient><linearGradient id="linear-gradient-73" x1="627.75" y1="709.67" x2="627.87" y2="709.67" xlink:href="#linear-gradient-8"></linearGradient><linearGradient id="linear-gradient-74" x1="627.75" y1="709.67" x2="772.11" y2="709.67" xlink:href="#linear-gradient-10"></linearGradient><linearGradient id="linear-gradient-75" x1="213.8" y1="778.92" x2="943.3" y2="778.92" xlink:href="#linear-gradient-10"></linearGradient><linearGradient id="linear-gradient-76" x1="425.01" y1="154.67" x2="770.05" y2="154.67" gradientUnits="userSpaceOnUse"><stop offset="0.2" stop-color="#bad8df"></stop><stop offset="1" stop-color="#fcdcda"></stop></linearGradient><linearGradient id="linear-gradient-77" x1="120.89" y1="77.05" x2="334.01" y2="77.05" xlink:href="#linear-gradient-76"></linearGradient><linearGradient id="linear-gradient-78" x1="394.51" y1="23.6" x2="536.01" y2="23.6" xlink:href="#linear-gradient-76"></linearGradient><linearGradient id="linear-gradient-79" x1="-193.43" y1="890.82" x2="896.41" y2="890.82" xlink:href="#linear-gradient-10"></linearGradient><linearGradient id="linear-gradient-80" x1="544.81" y1="670.34" x2="628.97" y2="670.34" gradientUnits="userSpaceOnUse"><stop offset="0.57" stop-color="#ee2741"></stop><stop offset="1" stop-color="#fcdcda"></stop></linearGradient><linearGradient id="linear-gradient-81" x1="514.78" y1="716.07" x2="686.66" y2="716.07" xlink:href="#linear-gradient-80"></linearGradient><linearGradient id="linear-gradient-82" x1="415.51" y1="552.97" x2="668.95" y2="552.97" xlink:href="#linear-gradient-80"></linearGradient><linearGradient id="linear-gradient-83" x1="550.14" y1="552.97" x2="550.41" y2="552.97" xlink:href="#linear-gradient-80"></linearGradient><linearGradient id="linear-gradient-84" x1="9709.11" y1="634.52" x2="9962.56" y2="634.52" gradientTransform="matrix(1, 0, 0, -1, -9281.86, 1269.04)" gradientUnits="userSpaceOnUse"><stop offset="0" stop-color="#fcdcda"></stop><stop offset="0.88" stop-color="#ee2741"></stop></linearGradient><linearGradient id="linear-gradient-85" x1="7982.01" y1="9190.22" x2="8033.81" y2="9190.22" gradientTransform="matrix(0, -1, -1, 0, 9910.8, 8696.38)" gradientUnits="userSpaceOnUse"><stop offset="0.57" stop-color="#bad8df"></stop><stop offset="0.72" stop-color="#d2d9dd"></stop><stop offset="1" stop-color="#fcdcda"></stop></linearGradient><linearGradient id="linear-gradient-86" x1="490.97" y1="617.23" x2="634.37" y2="617.23" gradientTransform="matrix(1, 0, 0, 1, 0, 0)" xlink:href="#linear-gradient-85"></linearGradient><linearGradient id="linear-gradient-87" x1="492.62" y1="631.42" x2="636.03" y2="631.42" gradientTransform="matrix(1, 0, 0, 1, 0, 0)" xlink:href="#linear-gradient-85"></linearGradient><linearGradient id="linear-gradient-88" x1="466.59" y1="645.78" x2="609.99" y2="645.78" gradientTransform="matrix(1, 0, 0, 1, 0, 0)" xlink:href="#linear-gradient-85"></linearGradient></defs><g id="Layer_2" data-name="Layer 2"><g id="Design"><polygon class="cls-1" points="772 464.64 772 485.95 676.99 485.95 676.99 369.6 677.02 369.65 772 464.64"></polygon><polygon class="cls-2" points="770.04 369.6 770.04 484.31 655.35 484.31 770.04 369.6"></polygon><polygon class="cls-3" points="772 602.27 772 718.6 252 718.6 252 602.28 252.01 602.27 772 602.27"></polygon><polygon class="cls-4" points="772 487.74 772 602.05 338.85 602.05 338.85 602.28 224.06 602.28 224.07 602.27 338.85 487.47 338.85 487.74 451.94 374.62 451.94 372.75 451.99 372.75 565.13 259.6 565.13 372.75 678.27 372.75 678.31 372.8 722.46 420.36 770.06 471.68 772 473.76 772 487.74 772 487.74"></polygon><polygon class="cls-5" points="772 466.51 772 602.28 565.13 602.28 565.13 259.6 678.27 372.75 678.31 372.8 772 466.51"></polygon><polygon class="cls-6" points="772 624.17 772 718.6 517.62 718.6 517.62 369.75 772 624.17"></polygon><path class="cls-7" d="M229.24,706.74H765.87a0,0,0,0,1,0,0V901.1a0,0,0,0,1,0,0h-681a0,0,0,0,1,0,0v-50A144.35,144.35,0,0,1,229.24,706.74Z"></path><path class="cls-8" d="M307.17,756.52h464.3a0,0,0,0,1,0,0V900.88a0,0,0,0,1,0,0H162.82a0,0,0,0,1,0,0v0A144.35,144.35,0,0,1,307.17,756.52Z"></path><path class="cls-9" d="M144.35,851.1H770a0,0,0,0,1,0,0V995.45a0,0,0,0,1,0,0H0a0,0,0,0,1,0,0v0A144.35,144.35,0,0,1,144.35,851.1Z"></path><path class="cls-10" d="M406.62,930.54H771.47a0,0,0,0,1,0,0V993a0,0,0,0,1,0,0H344.19a0,0,0,0,1,0,0v0A62.43,62.43,0,0,1,406.62,930.54Z"></path><rect class="cls-11" x="403.77" y="820.56" width="58.2" height="49.55"></rect><polygon class="cls-12" points="500.83 870.1 461.98 870.1 461.98 849.27 500.83 870.1"></polygon><path class="cls-13" d="M462,849.28V870.1H441.14A20.83,20.83,0,0,0,462,849.28Z"></path><path class="cls-14" d="M403.77,850.28V871.1H424.6A20.83,20.83,0,0,1,403.77,850.28Z"></path><path class="cls-15" d="M403.77,870.1h96.9a18.65,18.65,0,0,1,18.65,18.65v11.87a0,0,0,0,1,0,0H420.84a17.07,17.07,0,0,1-17.07-17.07V870.1A0,0,0,0,1,403.77,870.1Z"></path><rect class="cls-16" x="171.48" y="842.36" width="58.2" height="49.55" transform="translate(317.33 -15.21) rotate(20.56)"></rect><polygon class="cls-17" points="255.51 914.19 219.13 900.55 226.45 881.04 255.51 914.19"></polygon><path class="cls-18" d="M226.45,881.05l-7.32,19.49-19.5-7.31A20.83,20.83,0,0,0,226.45,881.05Z"></path><path class="cls-19" d="M171.6,861.54,164.29,881l19.5,7.31A20.82,20.82,0,0,1,171.6,861.54Z"></path><path class="cls-20" d="M155.59,899.42h96.9a18.65,18.65,0,0,1,18.65,18.65V930a0,0,0,0,1,0,0H172.66a17.07,17.07,0,0,1-17.07-17.07V899.42a0,0,0,0,1,0,0Z" transform="translate(334.84 -16.67) rotate(20.56)"></path><path class="cls-21" d="M465.43,378.86H520a0,0,0,0,1,0,0V511.93a0,0,0,0,1,0,0H502.29a36.86,36.86,0,0,1-36.86-36.86V378.86A0,0,0,0,1,465.43,378.86Z" transform="matrix(-0.58, -0.82, 0.82, -0.58, 413.94, 1104.87)"></path><path class="cls-22" d="M373,353.68h54.53a0,0,0,0,1,0,0V506.41a0,0,0,0,1,0,0H409.88A36.86,36.86,0,0,1,373,469.55V353.68A0,0,0,0,1,373,353.68Z" transform="translate(800.56 860.1) rotate(180)"></path><path class="cls-23" d="M459.88,400.19h17.67a0,0,0,0,1,0,0V550.4a0,0,0,0,1,0,0H423a0,0,0,0,1,0,0V437A36.86,36.86,0,0,1,459.88,400.19Z" transform="translate(322.62 1117.45) rotate(-125.3)"></path><path class="cls-24" d="M386.42,654.31h79.7a0,0,0,0,1,0,0V831a0,0,0,0,1,0,0H397.84a11.42,11.42,0,0,1-11.42-11.42V654.31A0,0,0,0,1,386.42,654.31Z" transform="translate(852.54 1485.34) rotate(-180)"></path><path class="cls-25" d="M352.21,550.6h0a62.73,62.73,0,0,1,62.73,62.73V735a0,0,0,0,1,0,0H331.53a0,0,0,0,1,0,0V571.28A20.68,20.68,0,0,1,352.21,550.6Z" transform="translate(1115.77 676.98) rotate(122.77)"></path><rect class="cls-26" x="184.6" y="695.15" width="79.7" height="183.89" transform="translate(158.17 1602.88) rotate(-159.44)"></rect><path class="cls-27" d="M262.64,584.73h39a0,0,0,0,1,0,0v160a0,0,0,0,1,0,0H222a0,0,0,0,1,0,0V625.41a40.68,40.68,0,0,1,40.68-40.68Z" transform="translate(431.89 1358.62) rotate(-172.27)"></path><path class="cls-28" d="M395,351.61v282.7H351.51a45.58,45.58,0,0,1-45.58-45.58V334.94h25.92l25.25,7Z"></path><path class="cls-29" d="M305.93,334.94V588.73a45.58,45.58,0,0,1-45.58,45.58H216.87V351.61l37.36-10.4,17.86-6.27Z"></path><path class="cls-30" d="M357.1,341.61l-32.79,77.61L306,462.69l0,0-.05-.13L287.8,419.82l-33.57-79.49,17.86-5.39a30,30,0,0,0,.66,6.24c1,0,2.07-.07,3.08-.18a28.45,28.45,0,0,1-3.08.19c2.88,13.49,15.11,18.51,29.46,18.51,16.49,0,29.64-8.25,29.64-24.76h0Z"></path><polygon class="cls-31" points="287.81 427.81 306.11 351.61 324.31 427.33 305.95 462.69 305.88 462.61 287.81 427.81"></polygon><polygon class="cls-32" points="306.01 375.87 328.14 351.61 283.87 351.61 306.01 375.87"></polygon><polygon class="cls-33" points="305.95 462.69 227.59 384.59 240.66 359.7 227.59 348.38 261.4 338.17 305.95 462.69"></polygon><polygon class="cls-34" points="306.06 462.69 384.42 384.59 371.35 359.7 384.42 348.38 350.61 338.17 306.06 462.69"></polygon><path class="cls-35" d="M268.26,207.64h0a9,9,0,0,1,9,9v40.87a7.63,7.63,0,0,1-7.63,7.63H258.25a0,0,0,0,1,0,0V217.65a10,10,0,0,1,10-10Z" transform="translate(535.55 472.83) rotate(180)"></path><path class="cls-36" d="M354.2,207.64h0a9,9,0,0,1,9,9v40.87a7.63,7.63,0,0,1-7.63,7.63H344.19a0,0,0,0,1,0,0V217.65a10,10,0,0,1,10-10Z" transform="translate(707.44 472.83) rotate(180)"></path><path class="cls-37" d="M357.51,237.05c0,.51,0,1,0,1.52v-1.52Z"></path><path class="cls-38" d="M332.81,322.21l.27,0h0Z"></path><path class="cls-39" d="M316.87,320.41a30,30,0,0,0,15.66,1.85l.28-.05-.28,0a30.08,30.08,0,0,1-15.66-1.84Z"></path><path class="cls-40" d="M313.53,328.79l0,0,.46.39-.46-.4Z"></path><path class="cls-41" d="M312.27,327.63l0,0,.6.57-.6-.57Z"></path><path class="cls-42" d="M309.48,324.51c.1.15.21.28.32.42a2.43,2.43,0,0,1,.2.25l0,0s0,0,0,0a3.88,3.88,0,0,0,.26.31l.22.26-.54-.64Z"></path><path class="cls-43" d="M308,322.44l.19.29c.06.1.13.2.21.31Z"></path><path class="cls-44" d="M303.38,309.52v0l.42.58Z"></path><path class="cls-45" d="M303.38,309.54l.12.87c0,.29.08.58.13.86s.05.28.07.41a0,0,0,0,0,0,0l.09.43a5.78,5.78,0,0,0,.12.57c.08.39.17.78.28,1.15.05.21.11.42.17.63l.12.4c0,.14.08.28.13.42s.05.18.08.26c.09.25.17.5.26.74s.13.36.2.54.07.19.11.28,0,.09.05.13l.07.18c.18.43.36.85.55,1.27h0c.07.16.15.32.23.47a2.1,2.1,0,0,0,.15.3,1.3,1.3,0,0,0,.08.17l0,.07a1.24,1.24,0,0,0,.1.2l.16.32.06.1c.07.13.13.25.21.38l.15.27h0a.33.33,0,0,0,.06.1c.13.24.26.46.41.69s.18.31.28.46l.09.14,0,.06.4.6a.86.86,0,0,0,.07.1c0,.07.09.14.14.2a2.83,2.83,0,0,0,.2.28l.16.21c.17.23.33.46.51.68l.53.67.54.64.12.14.45.49.49.53.09.08.57.57,0,0,.6.57.63.56h0l.46.4.11.09.2.16.47.37h0l.07.06.05,0c.2.16.41.32.63.47l.59.42.23.16c.11.07.21.15.33.22l.32.21.24.15.41.25h0l.16.09c.22.14.44.26.67.39l.74.4,1,.5.85.39c.52.23,1,.43,1.57.63l.58.21.15,0c.4.14.8.27,1.21.39l.61.17.71.19.83.19,1,.2.87.14.33,0,.8.1a28.65,28.65,0,0,0,3.09.18,29.82,29.82,0,0,0,.65-6.24,29.19,29.19,0,0,0-.42-5v-2.67l-.27,0-.28.05a30,30,0,0,1-15.66-1.85l-.68-.29c-.25-.11-.49-.21-.73-.33l-.76-.37a29.76,29.76,0,0,1-7.92-5.76c-.34-.35-.66-.7-1-1.05s-.43-.49-.64-.74h0l-.47-.56s0,0,0,0q-.24-.29-.45-.57h0l-.44-.58s0,0,0,0Z"></path><path class="cls-46" d="M329.76,335.88a28.48,28.48,0,0,0,3.09.19h0A28.65,28.65,0,0,1,329.76,335.88Z"></path><path class="cls-47" d="M316.87,320.41a30,30,0,0,0,15.66,1.85h0a30.08,30.08,0,0,1-15.66-1.84Z"></path><path class="cls-48" d="M313.55,328.8h0l.46.39Z"></path><path class="cls-49" d="M312.3,327.66h0l.6.57Z"></path><path class="cls-50" d="M310,325.18l0,0s0,0,0,0a3.88,3.88,0,0,0,.26.31l.22.26Z"></path><path class="cls-51" d="M309.48,324.51c.1.15.21.28.32.42a2.43,2.43,0,0,1,.2.25h0Z"></path><path class="cls-52" d="M308,322.44l.19.29c.06.1.13.2.21.31Z"></path><path class="cls-53" d="M303.63,311.27a2.34,2.34,0,0,1,0,.26l0,.15C303.68,311.55,303.66,311.41,303.63,311.27Z"></path><path class="cls-54" d="M303.38,309.52v0l.42.58Z"></path><path class="cls-55" d="M262.1,262.39a11.31,11.31,0,0,0,11.31,11.32c.25,0,.5,0,.75,0v51.17a28.13,28.13,0,0,0-.42,5h0a29.89,29.89,0,0,0,59.11,6.24,28.48,28.48,0,0,1-3.09-.19,7.28,7.28,0,0,1-.8-.1l-.33,0-.87-.14-1-.2-.83-.19-.71-.19-.61-.17c-.41-.12-.81-.25-1.21-.39l-.15,0-.58-.21c-.53-.2-1.05-.4-1.57-.63l-.85-.39-1-.5-.74-.4c-.23-.13-.45-.25-.67-.39l-.16-.09h0l-.41-.25-.24-.15-.32-.21c-.12-.07-.22-.15-.33-.22l-.23-.16-.59-.42c-.22-.15-.43-.31-.63-.47l-.05,0-.07-.06h0l-.47-.37-.2-.16-.11-.09-.46-.39,0,0-.63-.56-.6-.57,0,0-.57-.57-.09-.08-.49-.53-.45-.49-.12-.14-.22-.26a3.88,3.88,0,0,1-.26-.31s0,0,0,0l0,0a2.43,2.43,0,0,0-.2-.25c-.11-.14-.22-.27-.32-.42s-.35-.45-.51-.68l-.16-.21a2.83,2.83,0,0,1-.2-.28c-.05-.06-.09-.13-.14-.2a.86.86,0,0,1-.07-.1c-.08-.11-.15-.21-.21-.31l-.19-.29,0-.06-.09-.14c-.1-.15-.19-.31-.28-.46s-.28-.45-.41-.69a.33.33,0,0,1-.06-.1h0l-.15-.27c-.08-.13-.14-.25-.21-.38l-.06-.1-.16-.32a1.24,1.24,0,0,1-.1-.2l0-.07a1.3,1.3,0,0,1-.08-.17,2.1,2.1,0,0,1-.15-.3c-.08-.15-.16-.31-.23-.47h0c-.19-.42-.37-.84-.55-1.27l-.07-.18s0-.09-.05-.13-.08-.19-.11-.28-.14-.36-.2-.54-.17-.49-.26-.74c0-.08-.05-.17-.08-.26s-.09-.28-.13-.42l-.12-.4c-.06-.21-.12-.42-.17-.63-.11-.37-.2-.76-.28-1.15s-.15-.67-.21-1a0,0,0,0,1,0,0l0-.15c-.07-.37-.12-.74-.17-1.12s-.09-.59-.12-.89v0l.42.6s0,0,0,0l.44.58h0q.21.28.45.57s0,0,0,0l.47.56h0c.21.25.42.5.64.74s.64.7,1,1.05a29.76,29.76,0,0,0,7.92,5.76l.76.37c.24.12.48.22.73.33l.68.29a30.08,30.08,0,0,0,15.66,1.84l.28,0,.27,0h0A29.9,29.9,0,0,0,358,292.7a28.18,28.18,0,0,0-.18-3.32c-.07-.57-.14-1.13-.24-1.68V238.57c0-.52,0-1,0-1.52h0a41.86,41.86,0,0,0-81.17-12.76,42.6,42.6,0,0,0-2,7.56,41.49,41.49,0,0,0-.54,6.73,38.6,38.6,0,0,0,.32,5.08v7.47a4.71,4.71,0,0,0-.75,0A11.31,11.31,0,0,0,262.1,262.39Z"></path><path class="cls-55" d="M332.81,322.21l.27,0h0Z"></path><path class="cls-55" d="M329.76,335.88a28.48,28.48,0,0,0,3.09.19h0A28.65,28.65,0,0,1,329.76,335.88Z"></path><path class="cls-55" d="M316.87,320.41a30,30,0,0,0,15.66,1.85l.28-.05-.28,0a30.08,30.08,0,0,1-15.66-1.84Z"></path><path class="cls-55" d="M313.53,328.79l0,0,.46.39-.46-.4Z"></path><path class="cls-55" d="M312.27,327.63l0,0,.6.57-.6-.57Z"></path><path class="cls-55" d="M309.48,324.51c.1.15.21.28.32.42a2.43,2.43,0,0,1,.2.25l0,0s0,0,0,0a3.88,3.88,0,0,0,.26.31l.22.26-.54-.64Z"></path><path class="cls-55" d="M308,322.44l.19.29c.06.1.13.2.21.31Z"></path><path class="cls-55" d="M303.38,309.52v0l.42.58Z"></path><path class="cls-56" d="M285.91,207.64h3a0,0,0,0,1,0,0v57.55a0,0,0,0,1,0,0H269.89a0,0,0,0,1,0,0V223.66A16,16,0,0,1,285.91,207.64Z" transform="translate(558.84 472.83) rotate(-180)"></path><path class="cls-57" d="M352.83,248.34h0a12.89,12.89,0,0,1,12.89,12.89v7.63a0,0,0,0,1,0,0h-29a0,0,0,0,1,0,0v-4.39a16.13,16.13,0,0,1,16.13-16.13Z" transform="translate(702.42 517.21) rotate(180)"></path><path class="cls-58" d="M315.13,248.34h3.25a10.85,10.85,0,0,1,10.85,10.85v9.67a0,0,0,0,1,0,0h-29a0,0,0,0,1,0,0v-5.6A14.92,14.92,0,0,1,315.13,248.34Z" transform="translate(629.46 517.21) rotate(-180)"></path><rect class="cls-59" x="329.24" y="250.78" width="7.45" height="4.88" transform="translate(665.94 506.43) rotate(-180)"></rect><path class="cls-60" d="M352.83,248.34h0a12.89,12.89,0,0,1,12.89,12.89v7.63a0,0,0,0,1,0,0h-29a0,0,0,0,1,0,0v-4.39A16.13,16.13,0,0,1,352.83,248.34Z" transform="translate(702.42 517.21) rotate(-180)"></path><path class="cls-61" d="M315.13,248.34h3.25a10.85,10.85,0,0,1,10.85,10.85v9.67a0,0,0,0,1,0,0h-29a0,0,0,0,1,0,0v-5.6a14.92,14.92,0,0,1,14.92-14.92Z" transform="translate(629.46 517.21) rotate(-180)"></path><rect class="cls-62" x="291.52" y="248.34" width="8.69" height="4.88" transform="translate(591.73 501.56) rotate(-180)"></rect><rect class="cls-63" x="269.89" y="248.34" width="21.63" height="2.44" transform="translate(561.41 499.12) rotate(-180)"></rect><path class="cls-64" d="M288.9,182.85h74.38a0,0,0,0,1,0,0v21.1a21,21,0,0,1-21,21H294.17a23.7,23.7,0,0,1-23.7-23.7v0A18.43,18.43,0,0,1,288.9,182.85Z" transform="translate(633.75 407.83) rotate(-180)"></path><polygon class="cls-65" points="306.11 351.61 272.33 331.13 261.4 338.17 273.75 372.68 306.11 351.61"></polygon><polygon class="cls-66" points="305.93 351.61 331.43 329.95 350.64 338.17 338.3 372.68 305.93 351.61"></polygon><path class="cls-67" d="M232,562.92h53.72a0,0,0,0,1,0,0v0a27.5,27.5,0,0,1-27.5,27.5H232a0,0,0,0,1,0,0v-27.5a0,0,0,0,1,0,0Z"></path><path class="cls-68" d="M327.89,562.92h26.22a27.5,27.5,0,0,1,27.5,27.5v0a0,0,0,0,1,0,0H327.89a0,0,0,0,1,0,0v-27.5A0,0,0,0,1,327.89,562.92Z" transform="translate(709.51 1153.34) rotate(-180)"></path><path class="cls-69" d="M333,450.19h49a0,0,0,0,1,0,0v1.32A16.52,16.52,0,0,1,365.45,468H349.5A16.52,16.52,0,0,1,333,451.51v-1.32A0,0,0,0,1,333,450.19Z"></path><rect class="cls-70" x="332.98" y="440.3" width="49" height="10.18"></rect><path class="cls-71" d="M234.89,568.34,220.11,588c-8.51,11.3-22.71,11.34-31.72.09l-69.83-87.22c-13.55-16.93-14.16-44.43-1.36-61.43l7-9.32Z"></path><path class="cls-72" d="M121.1,466.24l15.15,23L252.18,387.83,234.3,360.64c-7.22-11-20.7-13.22-30.1-5l-78.34,68.55C114.5,434.14,112.37,453,121.1,466.24Z"></path><path class="cls-73" d="M209.82,536.41l-31.1,41.32L108,489.05c-8.56-10.68-10.55-34.41,0-48.46L126.41,424Z"></path><path class="cls-74" d="M627.87,706.74q-.12,2.91-.12,5.85v-5.85Z"></path><path class="cls-75" d="M772.11,568.24V851.1H627.75V712.59q0-2.94.12-5.85a144.35,144.35,0,0,1,144.24-138.5Z"></path><path class="cls-76" d="M627.75,706.74V851.09H483.41A144.34,144.34,0,0,0,627.75,706.74Z"></path><path class="cls-77" d="M770.05,154.67v71.08H425a71.08,71.08,0,0,1,71.08-71.08H515A142.12,142.12,0,0,1,637.93,83.6h.2a142.06,142.06,0,0,1,122.93,71.07Z"></path><path class="cls-78" d="M298.45,77.05H289A71,71,0,0,0,227.5,41.5h-.1a71,71,0,0,0-61.49,35.55h-9.47a35.55,35.55,0,0,0-35.55,35.55H334A35.56,35.56,0,0,0,298.45,77.05Z"></path><path class="cls-79" d="M512.4,23.6h-6.28A47.18,47.18,0,0,0,465.29,0h-.06A47.18,47.18,0,0,0,424.4,23.6h-6.28a23.61,23.61,0,0,0-23.61,23.61H536A23.61,23.61,0,0,0,512.4,23.6Z"></path><path class="cls-80" d="M771.47,851.1v79.44H692a79.43,79.43,0,0,0,79.45-79.44Z"></path><rect class="cls-81" x="590.98" y="489.6" width="26.45" height="361.47"></rect><rect class="cls-82" x="521.18" y="690.17" width="171.88" height="51.8"></rect><rect class="cls-83" x="527.84" y="527.07" width="158.56" height="51.8"></rect><polygon class="cls-84" points="482.99 552.97 527.84 578.87 527.84 527.07 482.99 552.97"></polygon><rect class="cls-55" x="536.02" y="532.86" width="5.51" height="40.22"></rect><rect class="cls-55" x="553.11" y="532.86" width="5.51" height="40.22"></rect><rect class="cls-55" x="570.19" y="532.86" width="5.51" height="40.22"></rect><rect class="cls-55" x="587.28" y="532.86" width="5.51" height="40.22"></rect><rect class="cls-55" x="604.37" y="532.86" width="5.51" height="40.22"></rect><rect class="cls-55" x="621.46" y="532.86" width="5.51" height="40.22"></rect><rect class="cls-55" x="638.54" y="532.86" width="5.51" height="40.22"></rect><rect class="cls-55" x="655.63" y="532.86" width="5.51" height="40.22"></rect><rect class="cls-55" x="672.72" y="532.86" width="5.51" height="40.22"></rect><rect class="cls-85" x="539.59" y="608.62" width="158.56" height="51.8" transform="translate(1237.74 1269.04) rotate(-180)"></rect><polygon class="cls-86" points="743 634.52 698.15 660.42 698.15 608.62 743 634.52"></polygon><rect class="cls-87" x="546.35" y="614.13" width="143.4" height="6.2"></rect><rect class="cls-88" x="546.35" y="628.32" width="143.4" height="6.2"></rect><rect class="cls-89" x="546.35" y="642.68" width="143.4" height="6.2"></rect></g></g></svg> 