<?xml version="1.0" encoding="UTF-8"?> <svg xmlns="http://www.w3.org/2000/svg" xmlns:xlink="http://www.w3.org/1999/xlink" viewBox="0 0 215.96 280.02"><defs><style>.cls-1{fill:url(#linear-gradient);}.cls-2{fill:url(#linear-gradient-2);}.cls-3{fill:url(#linear-gradient-3);}.cls-4{fill:#ec1c24;}.cls-10,.cls-38,.cls-4,.cls-7,.cls-8,.cls-9{stroke:#fcdcda;stroke-miterlimit:10;}.cls-5{fill:#fcdcda;}.cls-6{fill:#3e2b58;}.cls-10,.cls-7,.cls-8,.cls-9{stroke-width:2px;}.cls-7{fill:url(#linear-gradient-4);}.cls-8{fill:url(#linear-gradient-5);}.cls-9{fill:url(#linear-gradient-6);}.cls-10{fill:url(#linear-gradient-7);}.cls-11{fill:url(#linear-gradient-8);}.cls-12{fill:url(#linear-gradient-9);}.cls-13{fill:url(#linear-gradient-10);}.cls-14{fill:url(#linear-gradient-11);}.cls-15{fill:url(#linear-gradient-12);}.cls-16{fill:url(#linear-gradient-13);}.cls-17{fill:url(#linear-gradient-14);}.cls-18{fill:url(#linear-gradient-15);}.cls-19{fill:url(#linear-gradient-16);}.cls-20{fill:url(#linear-gradient-17);}.cls-21{fill:url(#linear-gradient-18);}.cls-22{fill:url(#linear-gradient-19);}.cls-23{fill:url(#linear-gradient-20);}.cls-24{fill:url(#linear-gradient-21);}.cls-25{fill:url(#linear-gradient-22);}.cls-26{fill:url(#linear-gradient-23);}.cls-27{fill:url(#linear-gradient-24);}.cls-28{fill:url(#linear-gradient-25);}.cls-29{fill:url(#linear-gradient-26);}.cls-30{fill:url(#linear-gradient-27);}.cls-31{fill:url(#linear-gradient-28);}.cls-32{fill:url(#linear-gradient-29);}.cls-33{fill:url(#linear-gradient-30);}.cls-34{fill:url(#linear-gradient-31);}.cls-35{fill:url(#linear-gradient-32);}.cls-36{fill:url(#linear-gradient-33);}.cls-37{fill:url(#linear-gradient-34);}.cls-38{fill:none;stroke-width:4px;}.cls-39{fill:url(#linear-gradient-35);}.cls-40{fill:url(#linear-gradient-36);}.cls-41{fill:url(#linear-gradient-37);}.cls-42{fill:url(#linear-gradient-38);}.cls-43{fill:#ee2741;}.cls-44{fill:url(#linear-gradient-39);}.cls-45{fill:url(#linear-gradient-40);}.cls-46{fill:url(#linear-gradient-41);}.cls-47{fill:url(#linear-gradient-42);}.cls-48{fill:url(#linear-gradient-43);}.cls-49{fill:url(#linear-gradient-44);}</style><linearGradient id="linear-gradient" x1="198.59" y1="42.77" x2="215.96" y2="42.77" gradientUnits="userSpaceOnUse"><stop offset="0" stop-color="#ee2741"></stop><stop offset="0.63" stop-color="#fcdcda"></stop></linearGradient><linearGradient id="linear-gradient-2" x1="198.59" y1="2387.71" x2="215.96" y2="2387.71" gradientTransform="matrix(1, 0, 0, -1, 0, 2628.29)" xlink:href="#linear-gradient"></linearGradient><linearGradient id="linear-gradient-3" x1="102.9" y1="141.91" x2="734.47" y2="141.91" xlink:href="#linear-gradient"></linearGradient><linearGradient id="linear-gradient-4" x1="90.49" y1="51.66" x2="90.49" y2="92.4" gradientUnits="userSpaceOnUse"><stop offset="0" stop-color="#3e2b58"></stop><stop offset="0.61" stop-color="#bad8df"></stop><stop offset="1" stop-color="#3e2b58"></stop></linearGradient><linearGradient id="linear-gradient-5" x1="49.73" y1="45.39" x2="49.73" y2="95.39" xlink:href="#linear-gradient-4"></linearGradient><linearGradient id="linear-gradient-6" x1="130.39" y1="47.13" x2="130.39" y2="92.69" xlink:href="#linear-gradient-4"></linearGradient><linearGradient id="linear-gradient-7" x1="166.11" y1="47.13" x2="166.11" y2="92.69" xlink:href="#linear-gradient-4"></linearGradient><linearGradient id="linear-gradient-8" x1="33.46" y1="166.71" x2="302.25" y2="166.71" gradientUnits="userSpaceOnUse"><stop offset="0" stop-color="#3e2b58"></stop><stop offset="0.42" stop-color="#bad8df"></stop><stop offset="1" stop-color="#fcdcda"></stop></linearGradient><linearGradient id="linear-gradient-9" x1="142.36" y1="229.99" x2="266.56" y2="229.99" xlink:href="#linear-gradient-8"></linearGradient><linearGradient id="linear-gradient-10" x1="80.04" y1="240.58" x2="182.23" y2="240.58" gradientUnits="userSpaceOnUse"><stop offset="0.42" stop-color="#bad8df"></stop><stop offset="1" stop-color="#fcdcda"></stop></linearGradient><linearGradient id="linear-gradient-11" x1="144.93" y1="219.4" x2="247.63" y2="219.4" gradientUnits="userSpaceOnUse"><stop offset="0.08" stop-color="#ee2741"></stop><stop offset="0.51" stop-color="#fcdcda"></stop></linearGradient><linearGradient id="linear-gradient-12" x1="103.52" y1="220.69" x2="177.83" y2="220.69" xlink:href="#linear-gradient-10"></linearGradient><linearGradient id="linear-gradient-13" x1="93.08" y1="226.46" x2="179.79" y2="226.46" xlink:href="#linear-gradient-10"></linearGradient><linearGradient id="linear-gradient-14" x1="142.4" y1="234.16" x2="229.11" y2="234.16" xlink:href="#linear-gradient-11"></linearGradient><linearGradient id="linear-gradient-15" x1="162.07" y1="243.4" x2="200.48" y2="243.4" xlink:href="#linear-gradient-11"></linearGradient><linearGradient id="linear-gradient-16" x1="-108.5" y1="1721.03" x2="-103.79" y2="1726.19" gradientTransform="translate(175.96 -1549.13)" xlink:href="#linear-gradient-11"></linearGradient><linearGradient id="linear-gradient-17" x1="29.83" y1="192.7" x2="71.71" y2="192.7" xlink:href="#linear-gradient"></linearGradient><linearGradient id="linear-gradient-18" x1="19.17" y1="120.57" x2="117.87" y2="120.57" gradientUnits="userSpaceOnUse"><stop offset="0.08" stop-color="#fcdcda"></stop><stop offset="1" stop-color="#fcdcda" stop-opacity="0"></stop></linearGradient><linearGradient id="linear-gradient-19" x1="21.06" y1="120.57" x2="114.15" y2="120.57" gradientUnits="userSpaceOnUse"><stop offset="0.08" stop-color="#ee2741"></stop><stop offset="1" stop-color="#fcdcda" stop-opacity="0"></stop></linearGradient><linearGradient id="linear-gradient-20" x1="53.91" y1="163" x2="54.76" y2="173.72" xlink:href="#linear-gradient-11"></linearGradient><linearGradient id="linear-gradient-21" x1="24.89" y1="120.57" x2="37.73" y2="120.57" xlink:href="#linear-gradient-10"></linearGradient><linearGradient id="linear-gradient-22" x1="53.13" y1="120.57" x2="65.97" y2="120.57" xlink:href="#linear-gradient-10"></linearGradient><linearGradient id="linear-gradient-23" x1="39.01" y1="120.57" x2="42.86" y2="120.57" xlink:href="#linear-gradient-10"></linearGradient><linearGradient id="linear-gradient-24" x1="83.64" y1="120.57" x2="87.49" y2="120.57" xlink:href="#linear-gradient-10"></linearGradient><linearGradient id="linear-gradient-25" x1="89.53" y1="120.57" x2="100.58" y2="120.57" xlink:href="#linear-gradient-10"></linearGradient><linearGradient id="linear-gradient-26" x1="67.25" y1="120.57" x2="80.77" y2="120.57" xlink:href="#linear-gradient-10"></linearGradient><linearGradient id="linear-gradient-27" x1="44.15" y1="120.57" x2="54.41" y2="120.57" xlink:href="#linear-gradient-10"></linearGradient><linearGradient id="linear-gradient-28" x1="22.07" y1="143.49" x2="102.43" y2="143.49" xlink:href="#linear-gradient-10"></linearGradient><linearGradient id="linear-gradient-29" x1="22.07" y1="152.09" x2="102.43" y2="152.09" xlink:href="#linear-gradient-10"></linearGradient><linearGradient id="linear-gradient-30" x1="22.07" y1="161.01" x2="102.43" y2="161.01" xlink:href="#linear-gradient-10"></linearGradient><linearGradient id="linear-gradient-31" x1="4284.16" y1="42.77" x2="4301.53" y2="42.77" gradientTransform="matrix(-1, 0, 0, 1, 4301.53, 0)" gradientUnits="userSpaceOnUse"><stop offset="0" stop-color="#fcdcda"></stop><stop offset="1" stop-color="#ee2741"></stop></linearGradient><linearGradient id="linear-gradient-32" x1="4284.16" y1="2387.71" x2="4301.53" y2="2387.71" gradientTransform="translate(4301.53 2628.29) rotate(180)" xlink:href="#linear-gradient-31"></linearGradient><linearGradient id="linear-gradient-33" x1="39.75" y1="205.92" x2="159.29" y2="205.92" xlink:href="#linear-gradient"></linearGradient><linearGradient id="linear-gradient-34" x1="65.89" y1="213.08" x2="95.77" y2="213.08" gradientTransform="translate(164.98 1.29) rotate(42.44)" gradientUnits="userSpaceOnUse"><stop offset="0" stop-color="#3e2b58"></stop><stop offset="0.97" stop-color="#ee2741"></stop></linearGradient><linearGradient id="linear-gradient-35" x1="248.07" y1="18.79" x2="0.44" y2="18.79" gradientTransform="matrix(1, 0, 0, 1, 0, 0)" xlink:href="#linear-gradient-31"></linearGradient><linearGradient id="linear-gradient-36" x1="248.07" y1="12.02" x2="0.44" y2="12.02" gradientTransform="matrix(1, 0, 0, 1, 0, 0)" xlink:href="#linear-gradient-31"></linearGradient><linearGradient id="linear-gradient-37" x1="326.94" y1="15.41" x2="79.31" y2="15.41" gradientTransform="matrix(1, 0, 0, 1, 0, 0)" xlink:href="#linear-gradient-31"></linearGradient><linearGradient id="linear-gradient-38" x1="326.94" y1="8.64" x2="79.31" y2="8.64" gradientTransform="matrix(1, 0, 0, 1, 0, 0)" xlink:href="#linear-gradient-31"></linearGradient><linearGradient id="linear-gradient-39" x1="248.07" y1="2531.86" x2="0.44" y2="2531.86" gradientTransform="matrix(1, 0, 0, -1, 0, 2799.86)" xlink:href="#linear-gradient-31"></linearGradient><linearGradient id="linear-gradient-40" x1="326.94" y1="2535.25" x2="79.31" y2="2535.25" gradientTransform="matrix(1, 0, 0, -1, 0, 2799.86)" xlink:href="#linear-gradient-31"></linearGradient><linearGradient id="linear-gradient-41" x1="326.94" y1="2528.47" x2="79.31" y2="2528.47" gradientTransform="matrix(1, 0, 0, -1, 0, 2799.86)" xlink:href="#linear-gradient-31"></linearGradient><linearGradient id="linear-gradient-42" x1="27.67" y1="242.73" x2="76.47" y2="242.73" xlink:href="#linear-gradient-10"></linearGradient><linearGradient id="linear-gradient-43" x1="51.15" y1="242.73" x2="140.77" y2="242.73" xlink:href="#linear-gradient-10"></linearGradient><linearGradient id="linear-gradient-44" x1="55.75" y1="252.44" x2="179.32" y2="252.44" xlink:href="#linear-gradient-10"></linearGradient></defs><g id="Layer_2" data-name="Layer 2"><g id="Design"><polygon class="cls-1" points="198.59 65.06 198.59 20.49 215.96 20.49 198.59 65.06"></polygon><polygon class="cls-2" points="198.59 218.3 198.59 262.87 215.96 262.87 198.59 218.3"></polygon><rect class="cls-3" x="17.37" y="20.49" width="181.23" height="242.85"></rect><path class="cls-4" d="M79.67,30.35h65.85a0,0,0,0,1,0,0V43.07a3.46,3.46,0,0,1-3.46,3.46H76.21a0,0,0,0,1,0,0V33.81A3.46,3.46,0,0,1,79.67,30.35Z"></path><path class="cls-5" d="M80,42.85a1.19,1.19,0,0,0,.39.89c.22.18.48.2,1,.23a4.08,4.08,0,0,0,1.21-.07,3.84,3.84,0,0,0,1.27-.56,3.7,3.7,0,0,0,.9-.75A3.49,3.49,0,0,0,85.45,41a5.13,5.13,0,0,0,.07-.66V34.05s-.11-1.17-1.17-1.17S83.21,34,83.21,34v5.9a1.89,1.89,0,0,1-.46,1.25,2.15,2.15,0,0,1-1.15.6c-.68.16-.94-.05-1.27.2A1.17,1.17,0,0,0,80,42.85Z"></path><path class="cls-5" d="M118.6,42.85a1.23,1.23,0,0,0,.39.89,1.68,1.68,0,0,0,1,.23,4.1,4.1,0,0,0,1.21-.07,3.94,3.94,0,0,0,1.27-.56,3.5,3.5,0,0,0,.89-.75,3.43,3.43,0,0,0,.72-1.62,3.62,3.62,0,0,0,.06-.66V34.05S124,32.88,123,32.88,121.85,34,121.85,34v5.9a2,2,0,0,1-.46,1.25,2.17,2.17,0,0,1-1.16.6c-.68.16-.93-.05-1.26.2A1.2,1.2,0,0,0,118.6,42.85Z"></path><rect class="cls-5" x="125.12" y="32.88" width="2.26" height="11.13" rx="0.52"></rect><path class="cls-5" d="M89.05,41h0a.94.94,0,0,1,.1-1.31l2.18-1.52a1,1,0,0,1,1.27.36h0a.93.93,0,0,1-.09,1.31l-2.18,1.52A1,1,0,0,1,89.05,41Z"></path><rect class="cls-5" x="128.41" y="32.88" width="2.26" height="11.13" rx="0.52"></rect><rect class="cls-5" x="130.45" y="39.69" width="2.26" height="6.33" rx="0.52" transform="translate(88.72 174.43) rotate(-90)"></rect><rect class="cls-5" x="135.43" y="32.88" width="2.26" height="11.13" rx="0.52"></rect><rect class="cls-5" x="137.47" y="39.69" width="2.26" height="6.33" rx="0.52" transform="matrix(0, -1, 1, 0, 95.74, 181.45)"></rect><path class="cls-5" d="M88.73,40.57v2.31a1.13,1.13,0,1,1-2.25,0V37.17A3.94,3.94,0,0,0,88.73,40.57Z"></path><path class="cls-5" d="M95.18,37.17v5.71a1.13,1.13,0,1,1-2.26,0V37.82a2.1,2.1,0,1,0-4.19,0v2.75a3.94,3.94,0,0,1-2.25-3.4h0v-.09a4.37,4.37,0,0,1,8.7,0v.09Z"></path><path class="cls-5" d="M104.83,41.78a1.13,1.13,0,0,1,0,1,1.07,1.07,0,0,1-.54.5,6,6,0,0,1-.81.38A6.22,6.22,0,0,1,102,44l-.51,0a5.46,5.46,0,1,1,0-10.91,4.63,4.63,0,0,1,.65,0,6.29,6.29,0,0,1,2,.61,1.75,1.75,0,0,1,.71.88,1.2,1.2,0,0,1-.21.92,1.5,1.5,0,0,1-1.3.56,3.06,3.06,0,0,0-.71-.38,3.3,3.3,0,0,0-1.13-.22h0a3,3,0,1,0,0,6.09h.1a4.26,4.26,0,0,0,2-.54A1.38,1.38,0,0,1,104.83,41.78Z"></path><rect class="cls-5" x="105.36" y="32.87" width="2.45" height="11.13" rx="0.57"></rect><rect class="cls-5" x="113.07" y="34.44" width="1.84" height="2.86" rx="0.42"></rect><path class="cls-5" d="M113.17,43.65h0a1.17,1.17,0,0,1-1.72-.09L107.29,39a1.34,1.34,0,0,1,0-1.82h0a1.18,1.18,0,0,1,1.73.09l4.15,4.59A1.33,1.33,0,0,1,113.17,43.65Z"></path><path class="cls-5" d="M112.44,33.55h0a1.25,1.25,0,0,1,.16,1.67l-3.39,3.91a1.08,1.08,0,0,1-1.58-.06h0a1.26,1.26,0,0,1-.16-1.68l3.4-3.9A1.06,1.06,0,0,1,112.44,33.55Z"></path><path class="cls-5" d="M119.89,38.46a1,1,0,0,1,0,.17v1.94a1,1,0,0,1-.92,1,1,1,0,0,1-1.1-1h0v-2s0-.16,0-.25a.62.62,0,0,0-.07-.16.75.75,0,0,0-.61-.32.69.69,0,0,0-.7.67v2.08a1,1,0,0,1-1.2,1,1,1,0,0,1-.82-1V38.63c0-.22,0-.4,0-.52a2.5,2.5,0,0,1,2.69-2.41,2.63,2.63,0,0,1,2.74,2.5A2.19,2.19,0,0,1,119.89,38.46Z"></path><polygon class="cls-6" points="139.34 72.14 147.62 93.82 131.54 93.82 128.63 84.68 120.83 93.82 109.2 93.82 126.19 75.07 116.81 54.08 132.44 54.08 135.96 63.29 143.6 54.08 154.76 54.08 139.34 72.14"></polygon><polygon class="cls-6" points="175.05 72.14 183.34 93.82 167.26 93.82 164.35 84.68 156.55 93.82 144.92 93.82 161.91 75.07 152.53 54.08 168.16 54.08 171.67 63.29 179.32 54.08 190.48 54.08 175.05 72.14"></polygon><path class="cls-6" d="M103,54.08H95.82L71.71,93.82H82l7.14-11.61h8V93.82h15.29v-3.6Zm-6.5,22.28H90.61l2.93-7h2.93Z"></path><polygon class="cls-6" points="76.33 54.08 76.33 93.82 59.56 93.82 60.75 79.73 52.02 93.82 45.87 93.82 41.2 79.14 38.72 93.82 26.32 93.82 40.41 54.08 47.85 54.08 54 72.88 67.89 54.08 76.33 54.08"></polygon><path class="cls-7" d="M101.38,53H94.23L70.12,92.77H80.39l7.14-11.6h8v11.6h15.29V89.18Zm-6.5,22.28H89L92,68.37h2.93Z"></path><polygon class="cls-8" points="74.73 53.03 74.73 92.77 57.97 92.77 59.16 78.69 50.43 92.77 44.27 92.77 39.61 78.09 37.13 92.77 24.73 92.77 38.82 53.03 46.26 53.03 52.41 71.84 66.3 53.03 74.73 53.03"></polygon><polygon class="cls-9" points="137.74 71.1 146.03 92.77 129.95 92.77 127.05 83.63 119.24 92.77 107.61 92.77 124.6 74.02 115.22 53.03 130.84 53.03 134.36 62.25 142.01 53.03 153.17 53.03 137.74 71.1"></polygon><polygon class="cls-10" points="173.46 71.1 181.75 92.77 165.67 92.77 162.76 83.63 154.96 92.77 143.33 92.77 160.32 74.02 150.94 53.03 166.56 53.03 170.08 62.25 177.73 53.03 188.89 53.03 173.46 71.1"></polygon><path class="cls-11" d="M137.17,210.52a43.12,43.12,0,0,1-18.68-4.47c-15.72-7.53-17.82-25.63-14.54-40,4.75-20.91,22.29-43.12,45.45-43.12,13.64,0,23.74,3.51,30,10.43,6.1,6.73,6.94,15.06,7,18.68-3.79-.05-12.26-.15-18.39-.15-2.4,0-4.12,0-5.37,0-.8-5.42-4.48-13.06-14.63-13.06a23.35,23.35,0,0,0-3.73.31c-10.57,1.69-18,15.74-19.82,28.73-1.65,11.61,1.16,20.34,7.53,23.35a19.84,19.84,0,0,0,9.1,2.4c11.21,0,17.16-11.38,18.89-15.32,3.07,0,10.87-.13,16.47-.13l4,0C177.36,189.15,161,210.52,137.17,210.52Z"></path><path class="cls-5" d="M149.4,124.89c13,0,22.62,3.27,28.49,9.73A26.26,26.26,0,0,1,184.28,150c-4.29-.05-11.12-.12-16.28-.12h-3.73c-1.51-6.25-6.36-13-16.28-13a25,25,0,0,0-4,.34c-11.52,1.84-19.52,16.7-21.48,30.42-1.78,12.49,1.43,22,8.59,25.41a22,22,0,0,0,10,2.62c11.37,0,17.75-10.34,20.17-15.34,3.6,0,10.25-.11,15.19-.11h1.22c-4.5,11.06-20.1,28.36-40.49,28.36a41.09,41.09,0,0,1-17.81-4.28,24.5,24.5,0,0,1-13.06-15.07c-2.15-6.55-2.29-14.41-.4-22.72,4.58-20.15,21.38-41.56,43.5-41.56m0-4c-42.36,0-67.48,69.85-31.77,87a45,45,0,0,0,19.54,4.67c25.84,0,44.22-24.63,45.69-36.22-.1-.1-2.83-.14-6.42-.14-7.19,0-17.83.14-17.83.14s-5.51,15.31-17.53,15.31a18,18,0,0,1-8.25-2.2c-13.92-6.59-4.85-45.65,11.75-48.3a21.33,21.33,0,0,1,3.42-.29c12.66,0,12.8,13.21,12.8,13.21a59.28,59.28,0,0,1,7.2-.18c8.16,0,20.33.18,20.33.18s3.42-33.14-38.93-33.14Z"></path><circle class="cls-12" cx="166.11" cy="229.99" r="23.75"></circle><path class="cls-13" d="M187.29,230a21.18,21.18,0,1,1-42.36,0Z"></path><path class="cls-14" d="M187.29,230H144.93a21.18,21.18,0,1,1,42.36,0Z"></path><rect class="cls-15" x="150.71" y="218.44" width="30.81" height="4.49"></rect><rect class="cls-16" x="148.14" y="224.22" width="35.94" height="4.49"></rect><rect class="cls-17" x="148.14" y="231.92" width="35.94" height="4.49"></rect><path class="cls-18" d="M168.36,242.07s2.88,0,2.88,0,.35-3.46-4.07-3.46-7,7.3-3.32,9.09,6.62-1.8,6.82-3.3c0,0-2.54,0-2.54,0s-.84,2.33-2.69,1.37c-1.46-.69-.51-4.77,1.22-5.05A1.36,1.36,0,0,1,168.36,242.07Z"></path><rect class="cls-19" x="68.85" y="170.63" width="1.93" height="7.7" transform="translate(121.96 -6.07) rotate(37.92)"></rect><path class="cls-20" d="M31.3,205.92s-2.9,4.85,0,6.28c1.95.93,6.75-.5,6.75-.5a8.5,8.5,0,0,0,4.14.81c2.28-.17,6.13,2.4,17-7.87S71.42,188,71.42,182.18c0-1.93.64-1.37,0-3.57s-4.49-6.06-6.42-5.41a4,4,0,0,1-3.14-.08,27.69,27.69,0,0,0-32,25.12C29.46,204.25,31.3,205.92,31.3,205.92Z"></path><path class="cls-21" d="M26.89,107.62h97a0,0,0,0,1,0,0v25.89a0,0,0,0,1,0,0h-97a7.72,7.72,0,0,1-7.72-7.72V115.34A7.72,7.72,0,0,1,26.89,107.62Z"></path><path class="cls-22" d="M26.41,109.34h96.15a0,0,0,0,1,0,0V131.8a0,0,0,0,1,0,0H26.41a5.35,5.35,0,0,1-5.35-5.35V114.69a5.35,5.35,0,0,1,5.35-5.35Z"></path><path class="cls-23" d="M70.13,172.51s-9.3-11.19-18.28-9.26S39,170.31,39,170.31s4.49-1.29,5.78,0,5.77,2.56,12.19,1.28S67.88,170.86,70.13,172.51Z"></path><path class="cls-24" d="M31.32,125c-.21-2-2.75-12.42-2.75-12.42H24.89l4.5,16h3.76l4.58-16H34.2S31.63,123,31.32,125Z"></path><path class="cls-25" d="M57.71,112.55l-4.58,16h3.53s.34-1.36.78-3.21h4.09c.43,1.85.77,3.21.77,3.21H66l-4.5-16Zm.5,9.62c.61-2.53,1.18-5,1.33-6,.1.92.65,3.44,1.23,6Z"></path><rect class="cls-26" x="39.01" y="112.55" width="3.85" height="16.04"></rect><rect class="cls-27" x="83.64" y="112.55" width="3.85" height="16.04"></rect><polygon class="cls-28" points="96.73 112.55 96.73 120.89 93.6 112.55 93.39 112.55 93.19 112.55 89.53 112.55 89.53 128.59 93.39 128.59 93.39 119.69 96.73 128.59 100.58 128.59 100.58 112.55 96.73 112.55"></polygon><path class="cls-29" d="M78.2,112.55H76.45S74.26,123,74,125c-.17-2-2.34-12.42-2.34-12.42H67.25v16h2.57V117.93l2.54,10.66h3.2l2.64-10.86v10.86h2.57v-16H78.2Z"></path><polygon class="cls-30" points="54.41 112.55 44.15 112.55 44.15 115.76 47.35 115.76 47.35 128.59 51.2 128.59 51.2 115.76 54.41 115.76 54.41 112.55"></polygon><rect class="cls-31" x="22.07" y="139.01" width="73.04" height="8.96"></rect><rect class="cls-32" x="22.07" y="149.01" width="73.04" height="6.17"></rect><rect class="cls-33" x="22.07" y="159" width="73.04" height="4.02"></rect><polygon class="cls-34" points="17.37 65.06 17.37 20.49 0 20.49 17.37 65.06"></polygon><polygon class="cls-35" points="17.37 218.3 17.37 262.87 0 262.87 17.37 218.3"></polygon><path class="cls-36" d="M68.23,226.7s-26.06-7.06-24.83-25.59a15.4,15.4,0,0,1,9.09-12.86c9.75-4.45,26.73-6.8,42.24,12.12C98.81,205.7,68.23,226.7,68.23,226.7Z"></path><ellipse class="cls-37" cx="80.83" cy="213.08" rx="18.84" ry="8.1" transform="translate(-122.62 110.38) rotate(-42.44)"></ellipse><ellipse class="cls-38" cx="83.4" cy="215.65" rx="12.88" ry="5.54" transform="translate(-123.68 112.79) rotate(-42.44)"></ellipse><rect class="cls-39" y="17.1" width="215.96" height="3.39"></rect><rect class="cls-40" y="10.33" width="215.96" height="3.39"></rect><rect class="cls-41" y="13.71" width="215.96" height="3.39"></rect><rect class="cls-42" y="6.94" width="215.96" height="3.39"></rect><polyline class="cls-43" points="0 6.94 4.13 0 8.28 6.94"></polyline><polyline class="cls-43" points="8.28 6.94 12.41 0 16.55 6.94"></polyline><polyline class="cls-43" points="16.55 6.94 20.69 0 24.83 6.94"></polyline><polyline class="cls-43" points="24.83 6.94 28.96 0 33.1 6.94"></polyline><polyline class="cls-43" points="33.1 6.94 37.24 0 41.38 6.94"></polyline><polyline class="cls-43" points="41.38 6.94 45.52 0 49.66 6.94"></polyline><polyline class="cls-43" points="49.66 6.94 53.79 0 57.93 6.94"></polyline><polyline class="cls-43" points="57.93 6.94 62.07 0 66.21 6.94"></polyline><polyline class="cls-43" points="66.21 6.94 70.34 0 74.49 6.94"></polyline><polyline class="cls-43" points="74.49 6.94 78.62 0 82.76 6.94"></polyline><polyline class="cls-43" points="82.76 6.94 86.9 0 91.04 6.94"></polyline><polyline class="cls-43" points="91.04 6.94 95.17 0 99.31 6.94"></polyline><polyline class="cls-43" points="99.31 6.94 103.45 0 107.59 6.94"></polyline><polyline class="cls-43" points="107.59 6.94 111.72 0 115.87 6.94"></polyline><polyline class="cls-43" points="115.87 6.94 120 0 124.14 6.94"></polyline><polyline class="cls-43" points="124.14 6.94 128.28 0 132.42 6.94"></polyline><polyline class="cls-43" points="132.42 6.94 136.55 0 140.69 6.94"></polyline><polyline class="cls-43" points="140.69 6.94 144.83 0 148.97 6.94"></polyline><polyline class="cls-43" points="148.97 6.94 153.11 0 157.25 6.94"></polyline><polyline class="cls-43" points="157.25 6.94 161.38 0 165.52 6.94"></polyline><polyline class="cls-43" points="165.52 6.94 169.66 0 173.8 6.94"></polyline><polyline class="cls-43" points="173.8 6.94 177.94 0 182.08 6.94"></polyline><polyline class="cls-43" points="182.08 6.94 186.21 0 190.35 6.94"></polyline><polyline class="cls-43" points="190.35 6.94 194.49 0 198.63 6.94"></polyline><polyline class="cls-43" points="198.63 6.94 202.76 0 206.91 6.94"></polyline><polyline class="cls-43" points="206.91 6.94 211.43 0 215.96 6.94"></polyline><rect class="cls-44" y="266.3" width="215.96" height="3.39"></rect><rect class="cls-45" y="262.92" width="215.96" height="3.39"></rect><rect class="cls-46" y="269.69" width="215.96" height="3.39"></rect><polyline class="cls-43" points="0 273.08 4.13 280.02 8.28 273.08"></polyline><polyline class="cls-43" points="8.28 273.08 12.41 280.02 16.55 273.08"></polyline><polyline class="cls-43" points="16.55 273.08 20.69 280.02 24.83 273.08"></polyline><polyline class="cls-43" points="24.83 273.08 28.96 280.02 33.1 273.08"></polyline><polyline class="cls-43" points="33.1 273.08 37.24 280.02 41.38 273.08"></polyline><polyline class="cls-43" points="41.38 273.08 45.52 280.02 49.66 273.08"></polyline><polyline class="cls-43" points="49.66 273.08 53.79 280.02 57.93 273.08"></polyline><polyline class="cls-43" points="57.93 273.08 62.07 280.02 66.21 273.08"></polyline><polyline class="cls-43" points="66.21 273.08 70.34 280.02 74.49 273.08"></polyline><polyline class="cls-43" points="74.49 273.08 78.62 280.02 82.76 273.08"></polyline><polyline class="cls-43" points="82.76 273.08 86.9 280.02 91.04 273.08"></polyline><polyline class="cls-43" points="91.04 273.08 95.17 280.02 99.31 273.08"></polyline><polyline class="cls-43" points="99.31 273.08 103.45 280.02 107.59 273.08"></polyline><polyline class="cls-43" points="107.59 273.08 111.72 280.02 115.87 273.08"></polyline><polyline class="cls-43" points="115.87 273.08 120 280.02 124.14 273.08"></polyline><polyline class="cls-43" points="124.14 273.08 128.28 280.02 132.42 273.08"></polyline><polyline class="cls-43" points="132.42 273.08 136.55 280.02 140.69 273.08"></polyline><polyline class="cls-43" points="140.69 273.08 144.83 280.02 148.97 273.08"></polyline><polyline class="cls-43" points="148.97 273.08 153.11 280.02 157.25 273.08"></polyline><polyline class="cls-43" points="157.25 273.08 161.38 280.02 165.52 273.08"></polyline><polyline class="cls-43" points="165.52 273.08 169.66 280.02 173.8 273.08"></polyline><polyline class="cls-43" points="173.8 273.08 177.94 280.02 182.08 273.08"></polyline><polyline class="cls-43" points="182.08 273.08 186.21 280.02 190.35 273.08"></polyline><polyline class="cls-43" points="190.35 273.08 194.49 280.02 198.63 273.08"></polyline><polyline class="cls-43" points="198.63 273.08 202.76 280.02 206.91 273.08"></polyline><polyline class="cls-43" points="206.91 273.08 211.43 280.02 215.96 273.08"></polyline><rect class="cls-47" x="21.06" y="229.99" width="14" height="25.47"></rect><rect class="cls-48" x="39.01" y="238.42" width="25.72" height="8.62"></rect><rect class="cls-49" x="39.01" y="249.43" width="35.46" height="6.03"></rect></g></g></svg> 