<?xml version="1.0" encoding="UTF-8"?> <svg xmlns="http://www.w3.org/2000/svg" xmlns:xlink="http://www.w3.org/1999/xlink" viewBox="0 0 179.45 243.03"><defs><style>.cls-1{fill:url(#linear-gradient);}.cls-2{fill:url(#linear-gradient-2);}.cls-3{fill:url(#linear-gradient-3);}.cls-4{fill:#fcdcda;}.cls-5,.cls-7{opacity:0.43;}.cls-5{fill:url(#linear-gradient-4);}.cls-6{fill:#ee2741;}.cls-7{fill:#dabebc;}.cls-8{fill:url(#linear-gradient-5);}.cls-9{fill:url(#linear-gradient-6);}.cls-10{fill:url(#linear-gradient-7);}.cls-11{fill:url(#linear-gradient-8);}.cls-12{fill:#3e2c57;}.cls-13{fill:#f1f1f1;}.cls-14{fill:url(#linear-gradient-9);}.cls-15{fill:url(#linear-gradient-10);}.cls-16{fill:url(#linear-gradient-11);}.cls-17{fill:url(#linear-gradient-12);}.cls-18{fill:url(#linear-gradient-13);}.cls-19{fill:none;stroke:#fcdcda;stroke-miterlimit:10;}</style><linearGradient id="linear-gradient" x1="-93.86" y1="121.52" x2="283.34" y2="121.52" gradientUnits="userSpaceOnUse"><stop offset="0" stop-color="#ee2741"></stop><stop offset="0.63" stop-color="#fcdcda"></stop></linearGradient><linearGradient id="linear-gradient-2" y1="237.6" x2="179.45" y2="237.6" gradientUnits="userSpaceOnUse"><stop offset="0" stop-color="#ee2741"></stop><stop offset="1" stop-color="#fcdcda"></stop></linearGradient><linearGradient id="linear-gradient-3" y1="5.44" x2="179.45" y2="5.44" xlink:href="#linear-gradient-2"></linearGradient><linearGradient id="linear-gradient-4" x1="173.78" y1="229.96" x2="95.29" y2="151.47" gradientUnits="userSpaceOnUse"><stop offset="0.36" stop-color="#fcdcda"></stop><stop offset="0.65" stop-color="#c8aead"></stop></linearGradient><linearGradient id="linear-gradient-5" x1="48.15" y1="158.22" x2="246.45" y2="158.22" gradientTransform="translate(81.37 -28.97) rotate(26.51)" gradientUnits="userSpaceOnUse"><stop offset="0" stop-color="#ee2741"></stop><stop offset="0.55" stop-color="#fcdcda"></stop></linearGradient><linearGradient id="linear-gradient-6" x1="12.36" y1="160.63" x2="58.1" y2="160.63" gradientUnits="userSpaceOnUse"><stop offset="0" stop-color="#bad8df"></stop><stop offset="1" stop-color="#fcdcda"></stop></linearGradient><linearGradient id="linear-gradient-7" x1="13.22" y1="161.53" x2="62.18" y2="161.53" gradientUnits="userSpaceOnUse"><stop offset="0" stop-color="#3e2c57"></stop><stop offset="1" stop-color="#fcdcda"></stop></linearGradient><linearGradient id="linear-gradient-8" x1="99.82" y1="203.03" x2="158.32" y2="203.03" xlink:href="#linear-gradient-2"></linearGradient><linearGradient id="linear-gradient-9" x1="41.8" y1="208.75" x2="58.14" y2="208.75" xlink:href="#linear-gradient-7"></linearGradient><linearGradient id="linear-gradient-10" x1="49" y1="208.42" x2="67.5" y2="208.42" xlink:href="#linear-gradient-7"></linearGradient><linearGradient id="linear-gradient-11" x1="65.47" y1="215.26" x2="86.36" y2="215.26" xlink:href="#linear-gradient-7"></linearGradient><linearGradient id="linear-gradient-12" x1="67.28" y1="213.62" x2="85.6" y2="213.62" gradientUnits="userSpaceOnUse"><stop offset="0" stop-color="#a03594"></stop><stop offset="1" stop-color="#fcdcda"></stop></linearGradient><linearGradient id="linear-gradient-13" x1="48.19" y1="209.28" x2="59.37" y2="209.28" xlink:href="#linear-gradient-12"></linearGradient></defs><g id="Layer_2" data-name="Layer 2"><g id="Design"><path class="cls-1" d="M179.45,10.87V96.48c-4.84,1.29-12,4.75-14.68,3.79-4.06-1.46-2.5-3.75-1.56-8s-1-5-1.87-7,.31-1.87,2.18-2.91,2.71-2.09,2.29-4.27-3-4.79-6.35-2S158,81,158.84,83s-.52,2.39-.52,2.39c-.52,2.5-4.48,4.37-3.65,9s-.62,4-2.7,4.78-2.29,6.87-4.79,14.58-9,5-9,5-53,22.28-60.08,16.45S66,133.68,64,136.62s2.2,6,1.47,8.72-1.8-1.92-6.1-4.37-5.79,1.73-13.78,3.33-4.58-9.79-5.21-12.08-9.78-2.71-7.7,1.46c1.67,25.19-7.49,44.13-7.7,52.75S28.15,198,28.15,198s0,2.71-2.13,3.68c-4.78,2-2.91,11.94,2.13,15.53,4.17,3,4.12,11.92,4,14.95H0V10.87Z"></path><polygon class="cls-2" points="0 232.16 0 237.8 2.89 243.03 5.79 237.8 8.68 243.03 11.58 237.8 14.47 243.03 17.37 237.8 20.26 243.03 23.16 237.8 26.05 243.03 28.94 237.8 31.84 243.03 34.73 237.8 37.63 243.03 40.52 237.8 43.41 243.03 46.31 237.8 49.2 243.03 52.1 237.8 54.99 243.03 57.89 237.8 60.78 243.03 63.67 237.8 66.57 243.03 69.46 237.8 72.36 243.03 75.25 237.8 78.15 243.03 81.04 237.8 83.94 243.03 86.83 237.8 89.72 243.03 92.62 237.8 95.51 243.03 98.41 237.8 101.3 243.03 104.2 237.8 107.09 243.03 109.98 237.8 112.88 243.03 115.77 237.8 118.67 243.03 121.56 237.8 124.46 243.03 127.35 237.8 130.25 243.03 133.14 237.8 136.03 243.03 138.93 237.8 141.82 243.03 144.72 237.8 147.61 243.03 150.51 237.8 153.4 243.03 156.29 237.8 159.19 243.03 162.08 237.8 164.98 243.03 167.87 237.8 170.77 243.03 173.66 237.8 176.56 243.03 179.45 237.8 179.45 232.16 0 232.16"></polygon><polygon class="cls-3" points="179.45 10.87 179.45 5.24 176.56 0 173.66 5.24 170.77 0 167.87 5.24 164.98 0 162.08 5.24 159.19 0 156.29 5.24 153.4 0 150.51 5.24 147.61 0 144.72 5.24 141.82 0 138.93 5.24 136.03 0 133.14 5.24 130.25 0 127.35 5.24 124.46 0 121.56 5.24 118.67 0 115.77 5.24 112.88 0 109.98 5.24 107.09 0 104.2 5.24 101.3 0 98.41 5.24 95.51 0 92.62 5.24 89.72 0 86.83 5.24 83.94 0 81.04 5.24 78.15 0 75.25 5.24 72.36 0 69.46 5.24 66.57 0 63.67 5.24 60.78 0 57.89 5.24 54.99 0 52.1 5.24 49.2 0 46.31 5.24 43.41 0 40.52 5.24 37.63 0 34.73 5.24 31.84 0 28.94 5.24 26.05 0 23.16 5.24 20.26 0 17.37 5.24 14.47 0 11.58 5.24 8.68 0 5.79 5.24 2.89 0 0 5.24 0 10.87 179.45 10.87"></polygon><path class="cls-4" d="M179.45,96.48V232.16H32.13c.14-3,.19-12-4-14.95-5-3.59-6.91-13.52-2.13-15.53,2.09-1,2.13-3.68,2.13-3.68s-3.38-2.95-3.17-11.57,9.37-27.56,7.7-52.75c-2.08-4.17,7.08-3.75,7.7-1.46S37.6,145.9,45.59,144.3s9.47-5.79,13.78-3.33,5.38,7.07,6.1,4.37S62,139.56,64,136.62s7-7.31,14.07-1.48,60.08-16.45,60.08-16.45,6.53,2.71,9-5S149.89,100,152,99.12s3.54-.21,2.7-4.78,3.13-6.46,3.65-9c0,0,1.35-.41.52-2.39s-2.71-4.06.62-6.87,5.94-.2,6.35,2-.41,3.22-2.29,4.27-3,.93-2.18,2.91,2.81,2.7,1.87,7-2.5,6.56,1.56,8C167.44,101.23,174.61,97.77,179.45,96.48Z"></path><path class="cls-5" d="M58.1,195.07,94.75,225s75.76,28.09,74.34-48.32c-.32-10.93-15.41-47.57-15.41-47.57Z"></path><path class="cls-6" d="M48.35,96.64c-8.92,0-16.18-18.22-16.18-40.62S39.43,15.4,48.35,15.4H135c8.92,0,16.17,18.22,16.17,40.62S143.94,96.64,135,96.64Z"></path><path class="cls-4" d="M135,15.9c8.49,0,15.67,18.37,15.67,40.12S143.51,96.14,135,96.14H48.35c-8.5,0-15.68-18.37-15.68-40.12S39.85,15.9,48.35,15.9H135m0-1H48.35C39.14,14.9,31.67,33.31,31.67,56s7.47,41.12,16.68,41.12H135c9.21,0,16.67-18.41,16.67-41.12S144.23,14.9,135,14.9Z"></path><path class="cls-4" d="M120.79,49.75c-1.51,1.51-1.43.86-1.43.86s-.08-3.88-.08-6.25,1.07-8.18-4.5-9.07h-.07c-12.27-1.05-12,9.08-7.52,9.08,2.94,0,3.16-2.55,2.94-4.34-.07-.64.53-.71,1.16-.56,1.07.25,1.42,1.78.33,3.6-2,3.23-8.21.77-8.21,8.52,0,5.85,6.37,3.49,8,2.72a.69.69,0,0,1,.8.18A4.83,4.83,0,0,0,116,56C120.47,56,122.3,48.24,120.79,49.75ZM110.1,50.83c-1.83-2.81,2.26-5.22,2.26-5.22C112.36,49.05,112.59,51.58,110.1,50.83Z"></path><path class="cls-4" d="M88,74.14c-1.51,1.52-1.43.87-1.43.87s-.08-3.89-.08-6.26,1.07-8.18-4.5-9.06H81.9c-12.27-1.06-12.05,9.07-7.52,9.07,2.94,0,3.15-2.55,2.94-4.33-.08-.64.53-.71,1.16-.56,1.07.24,1.41,1.77.32,3.59-1.94,3.24-8.2.78-8.2,8.53,0,5.84,6.36,3.48,8,2.72a.68.68,0,0,1,.8.18,4.85,4.85,0,0,0,3.79,1.53C87.65,80.41,89.49,72.63,88,74.14ZM77.29,75.23C75.45,72.42,79.55,70,79.55,70,79.55,73.44,79.77,76,77.29,75.23Z"></path><path class="cls-4" d="M129.43,73.39c-1.19,2.26-6.38,3-6.38-2.59l8-2.27a3.39,3.39,0,0,0,0-3c-.75-1.84-3.94-6.2-9.06-4.86-6.19,1.62-11,17.92,0,20.08,6.47,0,8.74-2,9.4-6.26C131.26,73.17,130.45,71.43,129.43,73.39Zm-6-9.39c1.61-.33,2,1,2,2.69a29.27,29.27,0,0,0-3.13,1.52S121.35,65.08,123.39,64Z"></path><path class="cls-4" d="M102.2,48.43c-1.18,2.27-6.37,3-6.37-2.59l8-2.27a3.39,3.39,0,0,0,0-3c-.76-1.84-3.95-6.19-9.07-4.85-6.19,1.61-11,17.91,0,20.07,6.48,0,8.75-2.05,9.41-6.26C104,48.21,103.23,46.47,102.2,48.43Zm-6-9.39c1.61-.33,2,1,2,2.7a27.43,27.43,0,0,0-3.13,1.51S94.13,40.12,96.17,39Z"></path><path class="cls-4" d="M91.54,74a1.27,1.27,0,0,0-1.33-1.33c-1.37,0-1.71,1.38-1.71,2.65V77a2.76,2.76,0,0,0,1.92,2.63,19.41,19.41,0,0,0,5.87.74c6.26,0,7.55-3.91,7.55-7.73s-6.37-6.28-6.37-6.28-1.92-.59-1.92-1.93c0-1.12.85-1.23,1.92-1.23s2,1,2,2.48,1.4,2,2.48,2,.86-1.41.86-2.92.11-4-5.39-4S90,62.87,89.16,66.4s1.84,6.23,6.7,7.74,1.83,3.67-.33,3.35S92.73,76.76,91.54,74Z"></path><path class="cls-4" d="M103.41,62v1.13a.43.43,0,0,0,.46.42c.52-.06,1.3,0,1.27.73,0,.59,0,11.6,0,11.6s.45,4.54,4.49,4.54,6.73-1.87,6.73-3.37-1-1.42-1.44-1.31c-.8.18-2.24,1.44-2.56.57s0-12,0-12h2.06a1.81,1.81,0,0,0,1-1.78c0-1.41-.23-1.76-1.42-1.76h-1.63V57.2s-.37-1.14-1.36-.76c-.36.14-5.07,3.12-6.88,4.27A1.52,1.52,0,0,0,103.41,62Z"></path><path class="cls-4" d="M120,37.6v1.12a.41.41,0,0,0,.46.42c.52-.06,1.3,0,1.26.74,0,.59,0,11.6,0,11.6s.46,4.53,4.5,4.53S133,54.15,133,52.65s-1-1.42-1.44-1.32c-.8.18-2.24,1.44-2.56.58s0-12,0-12H131a1.81,1.81,0,0,0,1-1.79c0-1.4-.23-1.76-1.42-1.76H129V32.8s-.37-1.13-1.37-.75c-.36.14-5.06,3.11-6.88,4.26A1.53,1.53,0,0,0,120,37.6Z"></path><path class="cls-4" d="M73.58,55.77h8.5a2.07,2.07,0,0,0,2.11-2.11c-.24-1.54-2.7-.11-2.7-2.69V42.05s.59-1.15,1.3,0,.36,2.73,2.27,2.73,4.07-2.3,4.07-7.19c0-2.3-5.47-3-7.77.72-.15-.29,1.7-3.1-1.81-2.63a12.39,12.39,0,0,0-6,2.63s-1.87,1.45.58,2.81c.58.21.43,11,.43,11s-1.69,1-1.69,2A2.35,2.35,0,0,0,73.58,55.77Z"></path><path class="cls-4" d="M71,41.12H69s-2.48-5.91-5.83-5.91S55.38,46.13,61.53,51c1.73.63,2.48.63,2.48-2.07v-2.7s-2.7-.08-2.7-2.2,3.24-1.8,4.65-1.8h6.15A1.73,1.73,0,0,1,73.94,44c0,1.87-2.91,1.62-2.91,1.62v8.57s.43,1.59-.43,1.59-1.95-1.7-1.95-1.7A17,17,0,0,1,60.56,56C55.7,56,50.41,53.74,50.41,45.7c0-2.14-.51-7.38,3.19-11.1a11.58,11.58,0,0,1,11.53-2.76,10.63,10.63,0,0,1,3.47,1.94c.17-.34.62-1.64,1.32-1.67a1,1,0,0,1,.68.37C71.73,33.69,71.14,39.94,71,41.12Z"></path><path class="cls-4" d="M56.6,75.36V63.06s-.29-3-2-1.29c-1.08,1.44-2.16,4.31-3.17,4.31s-1-2.13-1-2.13V58.17S50.18,57,52.17,57H69.84S71,56.55,71,58.71v5.2s-.47,3-2.48-.56-3.46-3.31-3.89-1-.16,14.07-.16,14.07a2.43,2.43,0,0,1,2,2.47,1.73,1.73,0,0,1-1.84,1.85H56.17a1.42,1.42,0,0,1-1.44-1.55v-.71a1.67,1.67,0,0,1,.72-1.37l1.15-.8Z"></path><ellipse class="cls-4" cx="99.82" cy="153.53" rx="57.88" ry="34.18" transform="translate(-58.04 60.7) rotate(-26.51)"></ellipse><path class="cls-4" d="M156.91,132.51c8.42,16.89-8.77,46.27-37.37,60.54s-58.63,12.15-67.06-4.74S60.42,146.16,89,131.89,148.48,115.62,156.91,132.51Z"></path><ellipse class="cls-7" cx="100.55" cy="154.99" rx="57.88" ry="34.18" transform="translate(-58.61 61.18) rotate(-26.51)"></ellipse><ellipse class="cls-8" cx="102.16" cy="158.22" rx="57.88" ry="34.18" transform="translate(-59.89 62.24) rotate(-26.51)"></ellipse><path class="cls-9" d="M48.93,180.8a19.38,19.38,0,0,1-6.78,2.63c-5.17.73-11.21.29-16.76-4a22.44,22.44,0,0,1-7.88-12.1c-.6-2.25-1.34-4.14-2.73-3.81s-1.73,2.11-1.5,4.68a24.91,24.91,0,0,1,17.27-30.69c-6.76,3.2-14.67,8.43-13.9,15.52.94,8.62,13.64,6.12,15.51,1.75s.63-6.35,3.23-8.12c0,0,.73-.83,1,.73s1.77,1.56,2.71.62.83-6-3.75-5.08-3.19,5.26-4.93,7.24c-1.39,1.58-7,2.53-6.52-2.89.63-4.05,10.1-9.26,16.44-7.38,5.63,1.66,13.55,5.88,17,18.76A19.89,19.89,0,0,1,48.93,180.8Z"></path><path class="cls-10" d="M62.18,161.53a24.91,24.91,0,0,1-48.9,6.7c-.23-2.57.2-4.36,1.5-4.68s2.13,1.56,2.73,3.81a22.44,22.44,0,0,0,7.88,12.1c5.55,4.26,11.59,4.7,16.76,4a19.38,19.38,0,0,0,6.78-2.63,19.89,19.89,0,0,0,8.47-22.11c-3.47-12.88-11.39-17.1-17-18.76-6.34-1.88-15.81,3.33-16.44,7.38-.52,5.42,5.13,4.47,6.52,2.89,1.74-2,.28-6.27,4.93-7.24s4.68,4.15,3.75,5.08-2.4.94-2.71-.62-1-.73-1-.73c-2.6,1.77-1.35,3.75-3.23,8.12s-14.57,6.87-15.51-1.75c-.77-7.09,7.14-12.32,13.9-15.52a24.92,24.92,0,0,1,31.63,24Z"></path><path class="cls-11" d="M99.82,196.13v20.2s11.87,2.6,29-3.54c11.14-3.54,29.46-2.5,29.46-2.5v-21a94.06,94.06,0,0,0-27.27,3C116.79,196.13,102.74,196,99.82,196.13Z"></path><rect class="cls-12" x="10.72" y="218.72" width="34.87" height="6.25"></rect><rect class="cls-12" x="123.45" y="218.72" width="34.87" height="6.25"></rect><rect class="cls-13" x="64.73" y="100.12" width="6.14" height="10.6"></rect><rect class="cls-13" x="76.67" y="100.12" width="6.14" height="10.6"></rect><rect class="cls-13" x="88.61" y="100.12" width="6.14" height="10.6"></rect><rect class="cls-13" x="100.55" y="100.12" width="6.14" height="10.6"></rect><rect class="cls-13" x="112.49" y="100.12" width="6.14" height="10.6"></rect><rect class="cls-12" x="10.72" y="210.97" width="14.26" height="6.25"></rect><rect class="cls-12" x="10.72" y="203.03" width="14.26" height="6.25"></rect><path class="cls-14" d="M55.86,212.72a22.63,22.63,0,0,1,2.28,3.74c-.07.13-.23.17-.58,0-.94-.52-2.71-3.33-5.83-3.23s-3.75,4.06-4.06,4c-4.79-1.4-6.87-9.11-5.41-13.58s5-3.85,5.83-1.56c0,.09.07.18.11.27,0-.27-.11-.27-.11-.27h.1c.25,1,.5,2,.73,2.8C49.64,207.39,53.78,210,55.86,212.72Z"></path><path class="cls-15" d="M65.47,220.18c0,.31-3.2-3.74-6.11-3.31a7.84,7.84,0,0,0-.24-2.21c-.55-2.18-3.88-6.87-6.45-8.51a8.57,8.57,0,0,1-3.3-4.47h0a.27.27,0,0,0,0-.12h0c-.31-.63-1.07-2.92,1.7-4.38s8.57.32,11.14,3.13S70.57,212.37,65.47,220.18Z"></path><path class="cls-16" d="M83.2,224.24c-1.87,1.11-14.29,3.95-17.73-4.06.11-3.09.39-14,.39-14s14.43-5.65,18.94,6.71c.09.27.17.57.25.89-2.68-1.32-8.9-3.87-13.37-1.59-5.84,3-4.18,3.54-4.18,3.54s6.33-3.12,12.16-1.61A42.14,42.14,0,0,1,85.6,216a9.55,9.55,0,0,0,.58,1.52C87,219,85.07,223.13,83.2,224.24Z"></path><path class="cls-17" d="M85.6,216a42.14,42.14,0,0,0-5.94-1.89c-5.83-1.51-12.16,1.61-12.16,1.61s-1.66-.55,4.18-3.54c4.47-2.28,10.69.27,13.37,1.59C85.22,214.44,85.38,215.22,85.6,216Z"></path><path class="cls-18" d="M59.36,216.87h0a5.18,5.18,0,0,1-1.15-.69.5.5,0,0,1,0,.28,22.63,22.63,0,0,0-2.28-3.74c-2.08-2.71-6.22-5.33-6.94-7.85-.23-.8-.48-1.81-.73-2.8.31,0,1.22,0,1.18-.39a8.57,8.57,0,0,0,3.3,4.47c2.57,1.64,5.9,6.33,6.45,8.51A7.84,7.84,0,0,1,59.36,216.87Z"></path><path class="cls-19" d="M59.36,216.87a7.72,7.72,0,0,1-.24,1.85s-.34-.95-1-2.26a.5.5,0,0,0,0-.28,5.18,5.18,0,0,0,1.15.69Z"></path></g></g></svg> 